%TF.GenerationSoftware,KiCad,Pcbnew,8.0.8+dfsg-1*%
%TF.CreationDate,2025-07-24T04:48:22-04:00*%
%TF.ProjectId,VGA_SRAM_SHUIELD_DOUBLE_BUFFER,5647415f-5352-4414-9d5f-53485549454c,rev?*%
%TF.SameCoordinates,Original*%
%TF.FileFunction,Profile,NP*%
%FSLAX46Y46*%
G04 Gerber Fmt 4.6, Leading zero omitted, Abs format (unit mm)*
G04 Created by KiCad (PCBNEW 8.0.8+dfsg-1) date 2025-07-24 04:48:22*
%MOMM*%
%LPD*%
G01*
G04 APERTURE LIST*
%TA.AperFunction,Profile*%
%ADD10C,0.050000*%
%TD*%
G04 APERTURE END LIST*
D10*
X28000000Y-134250000D02*
X27500000Y-134250000D01*
X32500000Y-135000000D02*
X29000000Y-135000000D01*
X144000000Y-146000000D02*
X144000000Y-151500000D01*
X121000000Y-184000000D02*
X121000000Y-180250000D01*
X152500000Y-153500000D02*
X152500000Y-179500000D01*
X46000000Y-131000000D02*
X45000000Y-132000000D01*
X33500000Y-134000000D02*
X32500000Y-135000000D01*
X152000000Y-180000000D02*
X152500000Y-179500000D01*
X128500000Y-145000000D02*
X143000000Y-145000000D01*
X127000000Y-133000000D02*
X127000000Y-143500000D01*
X44500000Y-134000000D02*
X33500000Y-134000000D01*
X144000000Y-151500000D02*
X145000000Y-152500000D01*
X120500000Y-184500000D02*
X121000000Y-184000000D01*
X45000000Y-132000000D02*
X45000000Y-133500000D01*
X143000000Y-145000000D02*
X144000000Y-146000000D01*
X125000000Y-131000000D02*
X127000000Y-133000000D01*
X46000000Y-131000000D02*
X125000000Y-131000000D01*
X27500000Y-184500000D02*
X120500000Y-184500000D01*
X45000000Y-133500000D02*
X44500000Y-134000000D01*
X127000000Y-143500000D02*
X128500000Y-145000000D01*
X151500000Y-152500000D02*
X152500000Y-153500000D01*
X145000000Y-152500000D02*
X151500000Y-152500000D01*
X27500000Y-134250000D02*
X27500000Y-184500000D01*
X121500000Y-180000000D02*
X121000000Y-180250000D01*
X152000000Y-180000000D02*
X121500000Y-180000000D01*
X29000000Y-135000000D02*
X28000000Y-134250000D01*
M02*
