%TF.GenerationSoftware,KiCad,Pcbnew,8.0.8+dfsg-1*%
%TF.CreationDate,2025-07-24T04:48:21-04:00*%
%TF.ProjectId,VGA_SRAM_SHUIELD_DOUBLE_BUFFER,5647415f-5352-4414-9d5f-53485549454c,rev?*%
%TF.SameCoordinates,Original*%
%TF.FileFunction,Legend,Top*%
%TF.FilePolarity,Positive*%
%FSLAX46Y46*%
G04 Gerber Fmt 4.6, Leading zero omitted, Abs format (unit mm)*
G04 Created by KiCad (PCBNEW 8.0.8+dfsg-1) date 2025-07-24 04:48:21*
%MOMM*%
%LPD*%
G01*
G04 APERTURE LIST*
%ADD10C,0.100000*%
%ADD11C,0.000000*%
%ADD12C,0.125000*%
%ADD13C,0.150000*%
%ADD14C,0.120000*%
G04 APERTURE END LIST*
D10*
X60398646Y-158474657D02*
X60586146Y-159374657D01*
X60586146Y-159374657D02*
X60998646Y-158474657D01*
X61245075Y-158903228D02*
X61545075Y-158903228D01*
X61614718Y-159374657D02*
X61186146Y-159374657D01*
X61186146Y-159374657D02*
X61298646Y-158474657D01*
X61298646Y-158474657D02*
X61727218Y-158474657D01*
X62514718Y-159374657D02*
X62268289Y-158946085D01*
X62000432Y-159374657D02*
X62112932Y-158474657D01*
X62112932Y-158474657D02*
X62455789Y-158474657D01*
X62455789Y-158474657D02*
X62536146Y-158517514D01*
X62536146Y-158517514D02*
X62573646Y-158560371D01*
X62573646Y-158560371D02*
X62605789Y-158646085D01*
X62605789Y-158646085D02*
X62589718Y-158774657D01*
X62589718Y-158774657D02*
X62536146Y-158860371D01*
X62536146Y-158860371D02*
X62487932Y-158903228D01*
X62487932Y-158903228D02*
X62396861Y-158946085D01*
X62396861Y-158946085D02*
X62054004Y-158946085D01*
X62862932Y-159331800D02*
X62986146Y-159374657D01*
X62986146Y-159374657D02*
X63200432Y-159374657D01*
X63200432Y-159374657D02*
X63291504Y-159331800D01*
X63291504Y-159331800D02*
X63339718Y-159288942D01*
X63339718Y-159288942D02*
X63393289Y-159203228D01*
X63393289Y-159203228D02*
X63404004Y-159117514D01*
X63404004Y-159117514D02*
X63371861Y-159031800D01*
X63371861Y-159031800D02*
X63334361Y-158988942D01*
X63334361Y-158988942D02*
X63254004Y-158946085D01*
X63254004Y-158946085D02*
X63087932Y-158903228D01*
X63087932Y-158903228D02*
X63007575Y-158860371D01*
X63007575Y-158860371D02*
X62970075Y-158817514D01*
X62970075Y-158817514D02*
X62937932Y-158731800D01*
X62937932Y-158731800D02*
X62948646Y-158646085D01*
X62948646Y-158646085D02*
X63002218Y-158560371D01*
X63002218Y-158560371D02*
X63050432Y-158517514D01*
X63050432Y-158517514D02*
X63141504Y-158474657D01*
X63141504Y-158474657D02*
X63355789Y-158474657D01*
X63355789Y-158474657D02*
X63479004Y-158517514D01*
X63757575Y-159374657D02*
X63870075Y-158474657D01*
X64470075Y-158474657D02*
X64641503Y-158474657D01*
X64641503Y-158474657D02*
X64721860Y-158517514D01*
X64721860Y-158517514D02*
X64796860Y-158603228D01*
X64796860Y-158603228D02*
X64818289Y-158774657D01*
X64818289Y-158774657D02*
X64780789Y-159074657D01*
X64780789Y-159074657D02*
X64716503Y-159246085D01*
X64716503Y-159246085D02*
X64620075Y-159331800D01*
X64620075Y-159331800D02*
X64529003Y-159374657D01*
X64529003Y-159374657D02*
X64357575Y-159374657D01*
X64357575Y-159374657D02*
X64277218Y-159331800D01*
X64277218Y-159331800D02*
X64202218Y-159246085D01*
X64202218Y-159246085D02*
X64180789Y-159074657D01*
X64180789Y-159074657D02*
X64218289Y-158774657D01*
X64218289Y-158774657D02*
X64282575Y-158603228D01*
X64282575Y-158603228D02*
X64379003Y-158517514D01*
X64379003Y-158517514D02*
X64470075Y-158474657D01*
X65129003Y-159374657D02*
X65241503Y-158474657D01*
X65241503Y-158474657D02*
X65643289Y-159374657D01*
X65643289Y-159374657D02*
X65755789Y-158474657D01*
X59790000Y-158180000D02*
X78110000Y-158190000D01*
X59792000Y-150450000D02*
X78150000Y-150450000D01*
X78150000Y-159610000D01*
X59792000Y-159610000D01*
X59792000Y-150450000D01*
X80500000Y-143500000D02*
X96000000Y-143500000D01*
X52700000Y-141100000D02*
X52400000Y-141100000D01*
X52100000Y-141100000D02*
X52700000Y-141100000D01*
D11*
G36*
X66770315Y-155675599D02*
G01*
X66791773Y-155676060D01*
X66812490Y-155677444D01*
X66832463Y-155679748D01*
X66851687Y-155682971D01*
X66870160Y-155687111D01*
X66887878Y-155692167D01*
X66896453Y-155695037D01*
X66904838Y-155698135D01*
X66913032Y-155701462D01*
X66921036Y-155705016D01*
X66928848Y-155708797D01*
X66936469Y-155712806D01*
X66943897Y-155717042D01*
X66951133Y-155721505D01*
X66958176Y-155726195D01*
X66965026Y-155731110D01*
X66971682Y-155736253D01*
X66978143Y-155741621D01*
X66984410Y-155747214D01*
X66990482Y-155753034D01*
X66996359Y-155759079D01*
X67002039Y-155765348D01*
X67007523Y-155771843D01*
X67012810Y-155778563D01*
X67017900Y-155785506D01*
X67022793Y-155792675D01*
X67031753Y-155807249D01*
X67039744Y-155822312D01*
X67046820Y-155837813D01*
X67053034Y-155853701D01*
X67058441Y-155869923D01*
X67063095Y-155886427D01*
X67067050Y-155903163D01*
X67070359Y-155920079D01*
X67073076Y-155937122D01*
X67075257Y-155954241D01*
X67076953Y-155971386D01*
X67078221Y-155988503D01*
X67079682Y-156022449D01*
X67080074Y-156055668D01*
X67079681Y-156088236D01*
X67078220Y-156121021D01*
X67076956Y-156137436D01*
X67075267Y-156153833D01*
X67073099Y-156170190D01*
X67070400Y-156186480D01*
X67067116Y-156202682D01*
X67063195Y-156218770D01*
X67058583Y-156234722D01*
X67053229Y-156250513D01*
X67047078Y-156266118D01*
X67040079Y-156281515D01*
X67032177Y-156296679D01*
X67023321Y-156311586D01*
X67013709Y-156325639D01*
X67003269Y-156338868D01*
X66992024Y-156351262D01*
X66979996Y-156362810D01*
X66967208Y-156373499D01*
X66953684Y-156383318D01*
X66939446Y-156392257D01*
X66924517Y-156400303D01*
X66908919Y-156407446D01*
X66892676Y-156413673D01*
X66875811Y-156418974D01*
X66858346Y-156423336D01*
X66840305Y-156426749D01*
X66821709Y-156429201D01*
X66802583Y-156430681D01*
X66782949Y-156431177D01*
X66674074Y-156431177D01*
X67088079Y-156780690D01*
X67091102Y-156783447D01*
X67093872Y-156786398D01*
X67096383Y-156789526D01*
X67098631Y-156792815D01*
X67100612Y-156796248D01*
X67102320Y-156799807D01*
X67103752Y-156803475D01*
X67104902Y-156807237D01*
X67105766Y-156811074D01*
X67106340Y-156814970D01*
X67106618Y-156818908D01*
X67106597Y-156822871D01*
X67106272Y-156826842D01*
X67105637Y-156830804D01*
X67104689Y-156834741D01*
X67103424Y-156838635D01*
X67101869Y-156842411D01*
X67100041Y-156846018D01*
X67097957Y-156849444D01*
X67095629Y-156852679D01*
X67093074Y-156855714D01*
X67090304Y-156858539D01*
X67087336Y-156861142D01*
X67084183Y-156863514D01*
X67080861Y-156865646D01*
X67077383Y-156867526D01*
X67073765Y-156869144D01*
X67070021Y-156870492D01*
X67066166Y-156871557D01*
X67062214Y-156872331D01*
X67058180Y-156872802D01*
X67054079Y-156872962D01*
X66930254Y-156872962D01*
X66927915Y-156872909D01*
X66925589Y-156872752D01*
X66923278Y-156872493D01*
X66920986Y-156872132D01*
X66918716Y-156871672D01*
X66916472Y-156871112D01*
X66914256Y-156870455D01*
X66912072Y-156869702D01*
X66909923Y-156868855D01*
X66907811Y-156867914D01*
X66905741Y-156866881D01*
X66903716Y-156865758D01*
X66901738Y-156864546D01*
X66899811Y-156863245D01*
X66897938Y-156861858D01*
X66896122Y-156860386D01*
X66411806Y-156448301D01*
X66411778Y-156448256D01*
X66411751Y-156448213D01*
X66411723Y-156448173D01*
X66411696Y-156448136D01*
X66411669Y-156448101D01*
X66411642Y-156448068D01*
X66411614Y-156448036D01*
X66411586Y-156448007D01*
X66411558Y-156447978D01*
X66411529Y-156447951D01*
X66411499Y-156447925D01*
X66411468Y-156447900D01*
X66411436Y-156447875D01*
X66411402Y-156447850D01*
X66411367Y-156447826D01*
X66411331Y-156447801D01*
X66407825Y-156444751D01*
X66398821Y-156436844D01*
X66394555Y-156432941D01*
X66390474Y-156429017D01*
X66386599Y-156425027D01*
X66382952Y-156420929D01*
X66379552Y-156416681D01*
X66376422Y-156412240D01*
X66373581Y-156407564D01*
X66371051Y-156402609D01*
X66368854Y-156397333D01*
X66367008Y-156391694D01*
X66366225Y-156388724D01*
X66365537Y-156385648D01*
X66364948Y-156382460D01*
X66364460Y-156379154D01*
X66364076Y-156375725D01*
X66363798Y-156372168D01*
X66363573Y-156364649D01*
X66363573Y-156339699D01*
X66363683Y-156334947D01*
X66364011Y-156330282D01*
X66364553Y-156325707D01*
X66365304Y-156321228D01*
X66366259Y-156316847D01*
X66367415Y-156312569D01*
X66368767Y-156308399D01*
X66370312Y-156304341D01*
X66372043Y-156300399D01*
X66373958Y-156296577D01*
X66376052Y-156292880D01*
X66378321Y-156289311D01*
X66380760Y-156285875D01*
X66383365Y-156282576D01*
X66386131Y-156279418D01*
X66389055Y-156276406D01*
X66392133Y-156273544D01*
X66395358Y-156270836D01*
X66398729Y-156268286D01*
X66402239Y-156265899D01*
X66405886Y-156263678D01*
X66409664Y-156261628D01*
X66413569Y-156259754D01*
X66417597Y-156258058D01*
X66421744Y-156256547D01*
X66426005Y-156255223D01*
X66430376Y-156254091D01*
X66434852Y-156253156D01*
X66439430Y-156252421D01*
X66444105Y-156251891D01*
X66448873Y-156251570D01*
X66453729Y-156251462D01*
X66793849Y-156251462D01*
X66797181Y-156251396D01*
X66800441Y-156251202D01*
X66803629Y-156250887D01*
X66806743Y-156250457D01*
X66809784Y-156249916D01*
X66812751Y-156249273D01*
X66815643Y-156248532D01*
X66818458Y-156247700D01*
X66821198Y-156246783D01*
X66823860Y-156245787D01*
X66826444Y-156244718D01*
X66828950Y-156243582D01*
X66831377Y-156242385D01*
X66833724Y-156241133D01*
X66835990Y-156239832D01*
X66838175Y-156238488D01*
X66840278Y-156237108D01*
X66842298Y-156235698D01*
X66846088Y-156232809D01*
X66849538Y-156229871D01*
X66852645Y-156226933D01*
X66855401Y-156224041D01*
X66857802Y-156221247D01*
X66859842Y-156218597D01*
X66861516Y-156216140D01*
X66864241Y-156210838D01*
X66866787Y-156204876D01*
X66869155Y-156198248D01*
X66871344Y-156190950D01*
X66873355Y-156182978D01*
X66875188Y-156174326D01*
X66876845Y-156164990D01*
X66878325Y-156154965D01*
X66880759Y-156132829D01*
X66882492Y-156107879D01*
X66883529Y-156080079D01*
X66883874Y-156049389D01*
X66883874Y-156045288D01*
X66883830Y-156029184D01*
X66883374Y-156008914D01*
X66882093Y-155985911D01*
X66881015Y-155973832D01*
X66879575Y-155961607D01*
X66877723Y-155949416D01*
X66875408Y-155937437D01*
X66872576Y-155925849D01*
X66869178Y-155914833D01*
X66865161Y-155904566D01*
X66862905Y-155899770D01*
X66860474Y-155895229D01*
X66857863Y-155890964D01*
X66855065Y-155886999D01*
X66852074Y-155883356D01*
X66848884Y-155880057D01*
X66844232Y-155876269D01*
X66841300Y-155874240D01*
X66837933Y-155872163D01*
X66834105Y-155870070D01*
X66829793Y-155867992D01*
X66824971Y-155865962D01*
X66819615Y-155864011D01*
X66813701Y-155862171D01*
X66807205Y-155860473D01*
X66800102Y-155858949D01*
X66792367Y-155857632D01*
X66783977Y-155856552D01*
X66774906Y-155855741D01*
X66765131Y-155855231D01*
X66754627Y-155855054D01*
X66306359Y-155855054D01*
X66303606Y-155855063D01*
X66301138Y-155855091D01*
X66298937Y-155855139D01*
X66296981Y-155855210D01*
X66295251Y-155855306D01*
X66293727Y-155855427D01*
X66293037Y-155855499D01*
X66292390Y-155855577D01*
X66291785Y-155855664D01*
X66291219Y-155855757D01*
X66290690Y-155855859D01*
X66290195Y-155855969D01*
X66289731Y-155856088D01*
X66289297Y-155856215D01*
X66288889Y-155856351D01*
X66288506Y-155856497D01*
X66288144Y-155856651D01*
X66287802Y-155856816D01*
X66287476Y-155856990D01*
X66287164Y-155857174D01*
X66286865Y-155857369D01*
X66286575Y-155857574D01*
X66286291Y-155857790D01*
X66286012Y-155858016D01*
X66285457Y-155858504D01*
X66284487Y-155859403D01*
X66284023Y-155859883D01*
X66283577Y-155860407D01*
X66283150Y-155860990D01*
X66282746Y-155861649D01*
X66282368Y-155862402D01*
X66282018Y-155863263D01*
X66281699Y-155864252D01*
X66281414Y-155865383D01*
X66281165Y-155866673D01*
X66280955Y-155868140D01*
X66280787Y-155869800D01*
X66280664Y-155871669D01*
X66280588Y-155873765D01*
X66280562Y-155876103D01*
X66280562Y-156820527D01*
X66280494Y-156823221D01*
X66280291Y-156825880D01*
X66279956Y-156828500D01*
X66279494Y-156831079D01*
X66278907Y-156833612D01*
X66278198Y-156836097D01*
X66277371Y-156838531D01*
X66276429Y-156840909D01*
X66275376Y-156843230D01*
X66274215Y-156845488D01*
X66272948Y-156847682D01*
X66271580Y-156849808D01*
X66270114Y-156851862D01*
X66268553Y-156853841D01*
X66266900Y-156855742D01*
X66265159Y-156857562D01*
X66263332Y-156859297D01*
X66261424Y-156860944D01*
X66259438Y-156862500D01*
X66257376Y-156863961D01*
X66255242Y-156865325D01*
X66253040Y-156866587D01*
X66250773Y-156867744D01*
X66248443Y-156868794D01*
X66246056Y-156869733D01*
X66243612Y-156870557D01*
X66241117Y-156871263D01*
X66238573Y-156871849D01*
X66235984Y-156872310D01*
X66233353Y-156872643D01*
X66230682Y-156872846D01*
X66227977Y-156872914D01*
X66143377Y-156872914D01*
X66140671Y-156872846D01*
X66138001Y-156872643D01*
X66135370Y-156872310D01*
X66132780Y-156871848D01*
X66130237Y-156871263D01*
X66127741Y-156870556D01*
X66125298Y-156869732D01*
X66122910Y-156868793D01*
X66120581Y-156867743D01*
X66118314Y-156866586D01*
X66116112Y-156865323D01*
X66113978Y-156863960D01*
X66111916Y-156862499D01*
X66109930Y-156860943D01*
X66108022Y-156859295D01*
X66106195Y-156857560D01*
X66104454Y-156855740D01*
X66102801Y-156853839D01*
X66101240Y-156851859D01*
X66099774Y-156849805D01*
X66098406Y-156847680D01*
X66097139Y-156845486D01*
X66095978Y-156843227D01*
X66094925Y-156840907D01*
X66093983Y-156838529D01*
X66093156Y-156836095D01*
X66092447Y-156833610D01*
X66091860Y-156831077D01*
X66091398Y-156828499D01*
X66091063Y-156825879D01*
X66090860Y-156823221D01*
X66090792Y-156820527D01*
X66090792Y-155894820D01*
X66090915Y-155876238D01*
X66091207Y-155866426D01*
X66091777Y-155856318D01*
X66092715Y-155845955D01*
X66094116Y-155835374D01*
X66096070Y-155824615D01*
X66098671Y-155813717D01*
X66102011Y-155802720D01*
X66106182Y-155791661D01*
X66111276Y-155780580D01*
X66117386Y-155769517D01*
X66120850Y-155764004D01*
X66124603Y-155758509D01*
X66128657Y-155753039D01*
X66133022Y-155747597D01*
X66137710Y-155742189D01*
X66142733Y-155736820D01*
X66148102Y-155731493D01*
X66153829Y-155726215D01*
X66153877Y-155726195D01*
X66153926Y-155726173D01*
X66153951Y-155726161D01*
X66153976Y-155726148D01*
X66154002Y-155726135D01*
X66154027Y-155726120D01*
X66154053Y-155726105D01*
X66154078Y-155726089D01*
X66154104Y-155726071D01*
X66154129Y-155726053D01*
X66154155Y-155726033D01*
X66154180Y-155726012D01*
X66154205Y-155725989D01*
X66154230Y-155725966D01*
X66163828Y-155718074D01*
X66173513Y-155711038D01*
X66183265Y-155704808D01*
X66193066Y-155699338D01*
X66202899Y-155694579D01*
X66212745Y-155690484D01*
X66222587Y-155687006D01*
X66232405Y-155684096D01*
X66242183Y-155681707D01*
X66251901Y-155679791D01*
X66261542Y-155678301D01*
X66271087Y-155677189D01*
X66280519Y-155676407D01*
X66289819Y-155675907D01*
X66307951Y-155675564D01*
X66770307Y-155675564D01*
X66770315Y-155675599D01*
G37*
G36*
X64690167Y-157180354D02*
G01*
X64401838Y-157180354D01*
X64400319Y-157180387D01*
X64398701Y-157180484D01*
X64397003Y-157180644D01*
X64395243Y-157180865D01*
X64393442Y-157181144D01*
X64391617Y-157181478D01*
X64389787Y-157181866D01*
X64387972Y-157182307D01*
X64386191Y-157182796D01*
X64384461Y-157183333D01*
X64382803Y-157183915D01*
X64381235Y-157184540D01*
X64379776Y-157185206D01*
X64378444Y-157185911D01*
X64377259Y-157186652D01*
X64376240Y-157187428D01*
X64375531Y-157188051D01*
X64374866Y-157188713D01*
X64374244Y-157189411D01*
X64373664Y-157190142D01*
X64373124Y-157190904D01*
X64372622Y-157191693D01*
X64372157Y-157192506D01*
X64371728Y-157193341D01*
X64370972Y-157195065D01*
X64370341Y-157196841D01*
X64369824Y-157198646D01*
X64369411Y-157200456D01*
X64369089Y-157202250D01*
X64368847Y-157204003D01*
X64368674Y-157205692D01*
X64368557Y-157207295D01*
X64368451Y-157210148D01*
X64368435Y-157212378D01*
X64368435Y-157372647D01*
X64683091Y-157372647D01*
X64683091Y-157406779D01*
X64368437Y-157406779D01*
X64368437Y-157584114D01*
X64368463Y-157585226D01*
X64368541Y-157586425D01*
X64368671Y-157587696D01*
X64368856Y-157589025D01*
X64369095Y-157590396D01*
X64369389Y-157591795D01*
X64369740Y-157593207D01*
X64370148Y-157594618D01*
X64370615Y-157596012D01*
X64371140Y-157597376D01*
X64371725Y-157598695D01*
X64372371Y-157599953D01*
X64373078Y-157601136D01*
X64373848Y-157602229D01*
X64374257Y-157602738D01*
X64374682Y-157603219D01*
X64375122Y-157603670D01*
X64375579Y-157604089D01*
X64376083Y-157604497D01*
X64376663Y-157604891D01*
X64378029Y-157605636D01*
X64379645Y-157606325D01*
X64381475Y-157606960D01*
X64383484Y-157607540D01*
X64385639Y-157608067D01*
X64387905Y-157608541D01*
X64390247Y-157608962D01*
X64395023Y-157609649D01*
X64399690Y-157610133D01*
X64403972Y-157610421D01*
X64407594Y-157610515D01*
X64693078Y-157610515D01*
X64693078Y-157644712D01*
X64397608Y-157644701D01*
X64391099Y-157644701D01*
X64384462Y-157644569D01*
X64381116Y-157644390D01*
X64377763Y-157644103D01*
X64374411Y-157643683D01*
X64371068Y-157643104D01*
X64367741Y-157642341D01*
X64364440Y-157641369D01*
X64361173Y-157640164D01*
X64357946Y-157638699D01*
X64356351Y-157637862D01*
X64354769Y-157636951D01*
X64353202Y-157635962D01*
X64351650Y-157634893D01*
X64350115Y-157633741D01*
X64348597Y-157632502D01*
X64347098Y-157631173D01*
X64345618Y-157629751D01*
X64344257Y-157628333D01*
X64342978Y-157626883D01*
X64340651Y-157623893D01*
X64338619Y-157620793D01*
X64336860Y-157617594D01*
X64335356Y-157614308D01*
X64334087Y-157610945D01*
X64333032Y-157607518D01*
X64332172Y-157604037D01*
X64331487Y-157600515D01*
X64330958Y-157596962D01*
X64330565Y-157593390D01*
X64330287Y-157589810D01*
X64330001Y-157582674D01*
X64329941Y-157575644D01*
X64329941Y-157212374D01*
X64329971Y-157209683D01*
X64330061Y-157207078D01*
X64330207Y-157204558D01*
X64330405Y-157202123D01*
X64330653Y-157199772D01*
X64330947Y-157197503D01*
X64331284Y-157195316D01*
X64331660Y-157193210D01*
X64332073Y-157191185D01*
X64332519Y-157189238D01*
X64332995Y-157187370D01*
X64333498Y-157185579D01*
X64334024Y-157183865D01*
X64334571Y-157182227D01*
X64335134Y-157180663D01*
X64335711Y-157179173D01*
X64336893Y-157176413D01*
X64338091Y-157173937D01*
X64339280Y-157171740D01*
X64340432Y-157169813D01*
X64341522Y-157168152D01*
X64342524Y-157166747D01*
X64343412Y-157165592D01*
X64344161Y-157164681D01*
X64345512Y-157163130D01*
X64346888Y-157161667D01*
X64348286Y-157160291D01*
X64349707Y-157158997D01*
X64352615Y-157156649D01*
X64355605Y-157154604D01*
X64358673Y-157152841D01*
X64361814Y-157151338D01*
X64365024Y-157150076D01*
X64368296Y-157149035D01*
X64371626Y-157148192D01*
X64375010Y-157147529D01*
X64378442Y-157147024D01*
X64381917Y-157146657D01*
X64385430Y-157146407D01*
X64388977Y-157146254D01*
X64396151Y-157146157D01*
X64690167Y-157146157D01*
X64690167Y-157180354D01*
G37*
G36*
X65366493Y-157140542D02*
G01*
X65369071Y-157140715D01*
X65371587Y-157140999D01*
X65374040Y-157141393D01*
X65376429Y-157141894D01*
X65378752Y-157142500D01*
X65381007Y-157143209D01*
X65383193Y-157144018D01*
X65385308Y-157144925D01*
X65387351Y-157145928D01*
X65389321Y-157147024D01*
X65391214Y-157148210D01*
X65393031Y-157149486D01*
X65394769Y-157150848D01*
X65396427Y-157152293D01*
X65398003Y-157153821D01*
X65399496Y-157155427D01*
X65400904Y-157157111D01*
X65402225Y-157158869D01*
X65403459Y-157160699D01*
X65404602Y-157162600D01*
X65405655Y-157164568D01*
X65406615Y-157166601D01*
X65407480Y-157168697D01*
X65408250Y-157170853D01*
X65408922Y-157173068D01*
X65409495Y-157175339D01*
X65409967Y-157177663D01*
X65410337Y-157180039D01*
X65410604Y-157182463D01*
X65410765Y-157184934D01*
X65410819Y-157187449D01*
X65410819Y-157644712D01*
X65372388Y-157644712D01*
X65372388Y-157187449D01*
X65372369Y-157186535D01*
X65372315Y-157185661D01*
X65372226Y-157184828D01*
X65372105Y-157184034D01*
X65371953Y-157183279D01*
X65371772Y-157182561D01*
X65371564Y-157181881D01*
X65371330Y-157181237D01*
X65371072Y-157180628D01*
X65370791Y-157180054D01*
X65370490Y-157179514D01*
X65370170Y-157179007D01*
X65369833Y-157178533D01*
X65369480Y-157178090D01*
X65369113Y-157177678D01*
X65368734Y-157177296D01*
X65368345Y-157176943D01*
X65367947Y-157176618D01*
X65367541Y-157176322D01*
X65367131Y-157176052D01*
X65366717Y-157175808D01*
X65366300Y-157175589D01*
X65365884Y-157175395D01*
X65365469Y-157175225D01*
X65364649Y-157174953D01*
X65363856Y-157174766D01*
X65363102Y-157174658D01*
X65362401Y-157174624D01*
X65361996Y-157174649D01*
X65361575Y-157174721D01*
X65361141Y-157174839D01*
X65360693Y-157175001D01*
X65360235Y-157175205D01*
X65359766Y-157175448D01*
X65358806Y-157176045D01*
X65357824Y-157176775D01*
X65356832Y-157177622D01*
X65355842Y-157178569D01*
X65354864Y-157179599D01*
X65353912Y-157180696D01*
X65352995Y-157181844D01*
X65352127Y-157183024D01*
X65351318Y-157184222D01*
X65350580Y-157185420D01*
X65349925Y-157186601D01*
X65349364Y-157187750D01*
X65348908Y-157188849D01*
X65179443Y-157596239D01*
X65177042Y-157601906D01*
X65174637Y-157607380D01*
X65172208Y-157612638D01*
X65169733Y-157617654D01*
X65167192Y-157622407D01*
X65164564Y-157626870D01*
X65161828Y-157631022D01*
X65160413Y-157632973D01*
X65158963Y-157634838D01*
X65157476Y-157636612D01*
X65155949Y-157638294D01*
X65154379Y-157639880D01*
X65152764Y-157641366D01*
X65151101Y-157642751D01*
X65149388Y-157644031D01*
X65147621Y-157645204D01*
X65145799Y-157646265D01*
X65143919Y-157647213D01*
X65141978Y-157648044D01*
X65139974Y-157648756D01*
X65137903Y-157649344D01*
X65135764Y-157649807D01*
X65133554Y-157650142D01*
X65131269Y-157650345D01*
X65128909Y-157650413D01*
X65126548Y-157650345D01*
X65124264Y-157650141D01*
X65122053Y-157649806D01*
X65119914Y-157649341D01*
X65117843Y-157648751D01*
X65115839Y-157648038D01*
X65113898Y-157647205D01*
X65112018Y-157646255D01*
X65110196Y-157645191D01*
X65108429Y-157644016D01*
X65106716Y-157642734D01*
X65105053Y-157641347D01*
X65101868Y-157638270D01*
X65098854Y-157634810D01*
X65095989Y-157630991D01*
X65093253Y-157626838D01*
X65090625Y-157622374D01*
X65088084Y-157617623D01*
X65085609Y-157612610D01*
X65083179Y-157607359D01*
X65078374Y-157596239D01*
X64908909Y-157188849D01*
X64908444Y-157187750D01*
X64907876Y-157186601D01*
X64907216Y-157185420D01*
X64906474Y-157184222D01*
X64905663Y-157183024D01*
X64904793Y-157181844D01*
X64903876Y-157180696D01*
X64902923Y-157179599D01*
X64901945Y-157178569D01*
X64900954Y-157177622D01*
X64899960Y-157176775D01*
X64899466Y-157176395D01*
X64898975Y-157176045D01*
X64898489Y-157175729D01*
X64898010Y-157175448D01*
X64897539Y-157175205D01*
X64897077Y-157175001D01*
X64896626Y-157174839D01*
X64896186Y-157174721D01*
X64895760Y-157174649D01*
X64895349Y-157174624D01*
X64894649Y-157174658D01*
X64893896Y-157174765D01*
X64893103Y-157174951D01*
X64892283Y-157175222D01*
X64891452Y-157175584D01*
X64890621Y-157176045D01*
X64889805Y-157176610D01*
X64889407Y-157176934D01*
X64889018Y-157177286D01*
X64888639Y-157177668D01*
X64888272Y-157178080D01*
X64887919Y-157178522D01*
X64887582Y-157178996D01*
X64887261Y-157179503D01*
X64886960Y-157180043D01*
X64886679Y-157180617D01*
X64886421Y-157181226D01*
X64886187Y-157181871D01*
X64885978Y-157182552D01*
X64885797Y-157183270D01*
X64885645Y-157184027D01*
X64885524Y-157184822D01*
X64885436Y-157185657D01*
X64885381Y-157186532D01*
X64885363Y-157187449D01*
X64885363Y-157644712D01*
X64846995Y-157644712D01*
X64846995Y-157187449D01*
X64847049Y-157184940D01*
X64847209Y-157182474D01*
X64847474Y-157180054D01*
X64847843Y-157177682D01*
X64848314Y-157175361D01*
X64848886Y-157173093D01*
X64849556Y-157170880D01*
X64850324Y-157168725D01*
X64851187Y-157166630D01*
X64852145Y-157164597D01*
X64853195Y-157162629D01*
X64854337Y-157160729D01*
X64855568Y-157158898D01*
X64856888Y-157157139D01*
X64858294Y-157155454D01*
X64859785Y-157153846D01*
X64861360Y-157152317D01*
X64863016Y-157150869D01*
X64864754Y-157149506D01*
X64866570Y-157148228D01*
X64868463Y-157147039D01*
X64870432Y-157145941D01*
X64872476Y-157144936D01*
X64874592Y-157144027D01*
X64876780Y-157143216D01*
X64879037Y-157142506D01*
X64881362Y-157141898D01*
X64883754Y-157141395D01*
X64886211Y-157141000D01*
X64888732Y-157140715D01*
X64891314Y-157140542D01*
X64893957Y-157140484D01*
X64896578Y-157140538D01*
X64899111Y-157140700D01*
X64901558Y-157140967D01*
X64903922Y-157141340D01*
X64906206Y-157141816D01*
X64908412Y-157142396D01*
X64910545Y-157143076D01*
X64912606Y-157143857D01*
X64914598Y-157144737D01*
X64916525Y-157145715D01*
X64918389Y-157146790D01*
X64920193Y-157147960D01*
X64921939Y-157149225D01*
X64923631Y-157150583D01*
X64925272Y-157152033D01*
X64926864Y-157153574D01*
X64929915Y-157156923D01*
X64932805Y-157160623D01*
X64935558Y-157164662D01*
X64938196Y-157169032D01*
X64940743Y-157173724D01*
X64943222Y-157178727D01*
X64945655Y-157184032D01*
X64948065Y-157189631D01*
X65116801Y-157595565D01*
X65117636Y-157597889D01*
X65118582Y-157600440D01*
X65119109Y-157601748D01*
X65119679Y-157603051D01*
X65120298Y-157604328D01*
X65120970Y-157605558D01*
X65121328Y-157606150D01*
X65121701Y-157606721D01*
X65122090Y-157607271D01*
X65122496Y-157607796D01*
X65122919Y-157608294D01*
X65123361Y-157608762D01*
X65123820Y-157609198D01*
X65124300Y-157609599D01*
X65124799Y-157609963D01*
X65125319Y-157610286D01*
X65125860Y-157610567D01*
X65126423Y-157610802D01*
X65127008Y-157610990D01*
X65127617Y-157611127D01*
X65128250Y-157611211D01*
X65128907Y-157611240D01*
X65129564Y-157611211D01*
X65130197Y-157611127D01*
X65130806Y-157610990D01*
X65131392Y-157610802D01*
X65131955Y-157610567D01*
X65132496Y-157610286D01*
X65133015Y-157609963D01*
X65133515Y-157609599D01*
X65133994Y-157609199D01*
X65134453Y-157608763D01*
X65134894Y-157608295D01*
X65135318Y-157607797D01*
X65136112Y-157606722D01*
X65136843Y-157605559D01*
X65137515Y-157604329D01*
X65138133Y-157603052D01*
X65138703Y-157601749D01*
X65139230Y-157600441D01*
X65141013Y-157595565D01*
X65309749Y-157189631D01*
X65312159Y-157184033D01*
X65314592Y-157178727D01*
X65317070Y-157173724D01*
X65319617Y-157169033D01*
X65322256Y-157164663D01*
X65325009Y-157160624D01*
X65327899Y-157156924D01*
X65329402Y-157155205D01*
X65330949Y-157153574D01*
X65332541Y-157152033D01*
X65334182Y-157150583D01*
X65335874Y-157149225D01*
X65337621Y-157147960D01*
X65339425Y-157146790D01*
X65341288Y-157145715D01*
X65343215Y-157144737D01*
X65345207Y-157143857D01*
X65347268Y-157143076D01*
X65349401Y-157142396D01*
X65351608Y-157141817D01*
X65353892Y-157141340D01*
X65356256Y-157140967D01*
X65358702Y-157140700D01*
X65361235Y-157140538D01*
X65363856Y-157140484D01*
X65366493Y-157140542D01*
G37*
G36*
X63843043Y-155675629D02*
G01*
X63845714Y-155675831D01*
X63848345Y-155676163D01*
X63850934Y-155676623D01*
X63853478Y-155677207D01*
X63855974Y-155677912D01*
X63858417Y-155678734D01*
X63860806Y-155679670D01*
X63863135Y-155680717D01*
X63865403Y-155681872D01*
X63867606Y-155683131D01*
X63869740Y-155684490D01*
X63871803Y-155685948D01*
X63873791Y-155687500D01*
X63875700Y-155689143D01*
X63877528Y-155690874D01*
X63879271Y-155692689D01*
X63880926Y-155694585D01*
X63882489Y-155696560D01*
X63883958Y-155698609D01*
X63885328Y-155700729D01*
X63886597Y-155702917D01*
X63887762Y-155705170D01*
X63888819Y-155707484D01*
X63889764Y-155709857D01*
X63890595Y-155712284D01*
X63891308Y-155714763D01*
X63891900Y-155717290D01*
X63892367Y-155719863D01*
X63892707Y-155722476D01*
X63892915Y-155725128D01*
X63892990Y-155727816D01*
X63892954Y-155729793D01*
X63892846Y-155731751D01*
X63892667Y-155733689D01*
X63892420Y-155735606D01*
X63892104Y-155737500D01*
X63891721Y-155739370D01*
X63891272Y-155741215D01*
X63890758Y-155743033D01*
X63890181Y-155744823D01*
X63889541Y-155746584D01*
X63888840Y-155748314D01*
X63888079Y-155750011D01*
X63887259Y-155751676D01*
X63886382Y-155753306D01*
X63885447Y-155754900D01*
X63884457Y-155756456D01*
X63438439Y-156476384D01*
X63438439Y-156820537D01*
X63438371Y-156823231D01*
X63438168Y-156825889D01*
X63437833Y-156828510D01*
X63437371Y-156831088D01*
X63436783Y-156833622D01*
X63436075Y-156836107D01*
X63435248Y-156838540D01*
X63434306Y-156840919D01*
X63433253Y-156843239D01*
X63432092Y-156845498D01*
X63430825Y-156847692D01*
X63429457Y-156849817D01*
X63427991Y-156851871D01*
X63426430Y-156853851D01*
X63424777Y-156855752D01*
X63423036Y-156857572D01*
X63421210Y-156859307D01*
X63419301Y-156860954D01*
X63417315Y-156862510D01*
X63415253Y-156863971D01*
X63413120Y-156865334D01*
X63410917Y-156866596D01*
X63408650Y-156867754D01*
X63406321Y-156868804D01*
X63403933Y-156869742D01*
X63401490Y-156870566D01*
X63398995Y-156871273D01*
X63396451Y-156871858D01*
X63393861Y-156872319D01*
X63391230Y-156872653D01*
X63388560Y-156872855D01*
X63385854Y-156872923D01*
X63301188Y-156872923D01*
X63298482Y-156872855D01*
X63295812Y-156872653D01*
X63293181Y-156872319D01*
X63290592Y-156871858D01*
X63288048Y-156871273D01*
X63285552Y-156870566D01*
X63283109Y-156869742D01*
X63280721Y-156868803D01*
X63278392Y-156867753D01*
X63276125Y-156866596D01*
X63273922Y-156865333D01*
X63271789Y-156863970D01*
X63269727Y-156862509D01*
X63267741Y-156860953D01*
X63265833Y-156859305D01*
X63264006Y-156857570D01*
X63262265Y-156855750D01*
X63260612Y-156853849D01*
X63259051Y-156851870D01*
X63257585Y-156849816D01*
X63256217Y-156847690D01*
X63254950Y-156845496D01*
X63253789Y-156843238D01*
X63252736Y-156840917D01*
X63251794Y-156838539D01*
X63250967Y-156836106D01*
X63250259Y-156833621D01*
X63249671Y-156831087D01*
X63249209Y-156828509D01*
X63248874Y-156825889D01*
X63248671Y-156823230D01*
X63248603Y-156820537D01*
X63248603Y-156476384D01*
X62801857Y-155755331D01*
X62800083Y-155752259D01*
X62798534Y-155749102D01*
X62797210Y-155745871D01*
X62796113Y-155742579D01*
X62795241Y-155739235D01*
X62794596Y-155735852D01*
X62794177Y-155732441D01*
X62793986Y-155729013D01*
X62794021Y-155725580D01*
X62794285Y-155722152D01*
X62794775Y-155718742D01*
X62795494Y-155715361D01*
X62796442Y-155712020D01*
X62797618Y-155708730D01*
X62799023Y-155705502D01*
X62800657Y-155702349D01*
X62802489Y-155699323D01*
X62804507Y-155696450D01*
X62806700Y-155693736D01*
X62809058Y-155691187D01*
X62811570Y-155688809D01*
X62814228Y-155686607D01*
X62817021Y-155684587D01*
X62819939Y-155682755D01*
X62822971Y-155681116D01*
X62826108Y-155679678D01*
X62829339Y-155678444D01*
X62832655Y-155677422D01*
X62836045Y-155676617D01*
X62839500Y-155676035D01*
X62843009Y-155675682D01*
X62846562Y-155675562D01*
X62940621Y-155675562D01*
X62942335Y-155675590D01*
X62944040Y-155675673D01*
X62945734Y-155675810D01*
X62947418Y-155676002D01*
X62949089Y-155676246D01*
X62950747Y-155676543D01*
X62952391Y-155676892D01*
X62954019Y-155677293D01*
X62957223Y-155678244D01*
X62960351Y-155679394D01*
X62963394Y-155680736D01*
X62966343Y-155682265D01*
X62969189Y-155683977D01*
X62971923Y-155685865D01*
X62974536Y-155687926D01*
X62975794Y-155689019D01*
X62977018Y-155690153D01*
X62978208Y-155691328D01*
X62979362Y-155692543D01*
X62980479Y-155693796D01*
X62981557Y-155695089D01*
X62982597Y-155696419D01*
X62983596Y-155697786D01*
X62984553Y-155699191D01*
X62985468Y-155700631D01*
X63343447Y-156284630D01*
X63701426Y-155700633D01*
X63703298Y-155697790D01*
X63705336Y-155695093D01*
X63707532Y-155692547D01*
X63709875Y-155690158D01*
X63712358Y-155687931D01*
X63714970Y-155685870D01*
X63717704Y-155683982D01*
X63720550Y-155682270D01*
X63723499Y-155680740D01*
X63726542Y-155679398D01*
X63729671Y-155678248D01*
X63732875Y-155677296D01*
X63736146Y-155676546D01*
X63739476Y-155676004D01*
X63742854Y-155675675D01*
X63746273Y-155675564D01*
X63840331Y-155675564D01*
X63840338Y-155675560D01*
X63843043Y-155675629D01*
G37*
D10*
X45600000Y-141100000D02*
X46200000Y-141100000D01*
X59792000Y-163894000D02*
X78150000Y-163894000D01*
X78150000Y-166026000D01*
X59792000Y-166026000D01*
X59792000Y-163894000D01*
X59792000Y-159610000D02*
X78150000Y-159610000D01*
X78150000Y-161762000D01*
X59792000Y-161762000D01*
X59792000Y-159610000D01*
D11*
G36*
X63129831Y-151035860D02*
G01*
X63131579Y-151035948D01*
X63133316Y-151036093D01*
X63135041Y-151036295D01*
X63136753Y-151036553D01*
X63138451Y-151036866D01*
X63140134Y-151037234D01*
X63141800Y-151037655D01*
X63143448Y-151038130D01*
X63145077Y-151038658D01*
X63146686Y-151039237D01*
X63148273Y-151039867D01*
X63149838Y-151040548D01*
X63151379Y-151041278D01*
X63152894Y-151042057D01*
X63154384Y-151042884D01*
X63155846Y-151043759D01*
X63157279Y-151044681D01*
X63158682Y-151045648D01*
X63160054Y-151046661D01*
X63161394Y-151047719D01*
X63162700Y-151048820D01*
X63163971Y-151049965D01*
X63165207Y-151051152D01*
X63166405Y-151052380D01*
X63167565Y-151053650D01*
X63168685Y-151054961D01*
X63169764Y-151056310D01*
X63170801Y-151057699D01*
X63171795Y-151059126D01*
X63172745Y-151060590D01*
X63173648Y-151062091D01*
X64490206Y-153336699D01*
X64507696Y-153364697D01*
X64526887Y-153391283D01*
X64547687Y-153416402D01*
X64570000Y-153440000D01*
X64593733Y-153462022D01*
X64618790Y-153482415D01*
X64645079Y-153501124D01*
X64672503Y-153518094D01*
X64700969Y-153533271D01*
X64730382Y-153546601D01*
X64760649Y-153558029D01*
X64791674Y-153567502D01*
X64823364Y-153574964D01*
X64855623Y-153580361D01*
X64888358Y-153583639D01*
X64921474Y-153584744D01*
X64928254Y-153584698D01*
X64935046Y-153584560D01*
X64941845Y-153584330D01*
X64948643Y-153584007D01*
X64955436Y-153583589D01*
X64962215Y-153583078D01*
X64968977Y-153582471D01*
X64975713Y-153581769D01*
X64976432Y-153581705D01*
X64977150Y-153581651D01*
X64977869Y-153581608D01*
X64978588Y-153581574D01*
X64979307Y-153581549D01*
X64980026Y-153581532D01*
X64981468Y-153581519D01*
X64984765Y-153581622D01*
X64988029Y-153581929D01*
X64991252Y-153582436D01*
X64994424Y-153583139D01*
X64997538Y-153584033D01*
X65000585Y-153585115D01*
X65003557Y-153586380D01*
X65006445Y-153587825D01*
X65009240Y-153589445D01*
X65011935Y-153591235D01*
X65014521Y-153593193D01*
X65016990Y-153595314D01*
X65019332Y-153597593D01*
X65021540Y-153600027D01*
X65023605Y-153602612D01*
X65025520Y-153605343D01*
X65027434Y-153608508D01*
X65029108Y-153611770D01*
X65030541Y-153615114D01*
X65031732Y-153618528D01*
X65032681Y-153622000D01*
X65033388Y-153625517D01*
X65033852Y-153629065D01*
X65034073Y-153632632D01*
X65034051Y-153636205D01*
X65033784Y-153639771D01*
X65033274Y-153643318D01*
X65032519Y-153646833D01*
X65031519Y-153650302D01*
X65030274Y-153653713D01*
X65028783Y-153657054D01*
X65027045Y-153660311D01*
X64169537Y-155141834D01*
X64167683Y-155144809D01*
X64165652Y-155147631D01*
X64163453Y-155150296D01*
X64161095Y-155152797D01*
X64158588Y-155155130D01*
X64155942Y-155157289D01*
X64153167Y-155159268D01*
X64150271Y-155161062D01*
X64147266Y-155162666D01*
X64144161Y-155164073D01*
X64140964Y-155165279D01*
X64137687Y-155166278D01*
X64134339Y-155167065D01*
X64130929Y-155167633D01*
X64127467Y-155167978D01*
X64123963Y-155168095D01*
X64122206Y-155168066D01*
X64120458Y-155167979D01*
X64118721Y-155167834D01*
X64116996Y-155167634D01*
X64115284Y-155167377D01*
X64113586Y-155167066D01*
X64111903Y-155166700D01*
X64110237Y-155166280D01*
X64108589Y-155165807D01*
X64106960Y-155165282D01*
X64105351Y-155164705D01*
X64103764Y-155164077D01*
X64102199Y-155163399D01*
X64100658Y-155162670D01*
X64099143Y-155161893D01*
X64097653Y-155161068D01*
X64096191Y-155160195D01*
X64094758Y-155159274D01*
X64093355Y-155158308D01*
X64091983Y-155157296D01*
X64090643Y-155156238D01*
X64089337Y-155155137D01*
X64088066Y-155153992D01*
X64086830Y-155152804D01*
X64085632Y-155151573D01*
X64084473Y-155150301D01*
X64083352Y-155148989D01*
X64082273Y-155147635D01*
X64081236Y-155146243D01*
X64080242Y-155144811D01*
X64079292Y-155143342D01*
X64078389Y-155141834D01*
X61747424Y-151114638D01*
X61745773Y-151111546D01*
X61744342Y-151108377D01*
X61743131Y-151105144D01*
X61742141Y-151101856D01*
X61741370Y-151098525D01*
X61740820Y-151095161D01*
X61740490Y-151091775D01*
X61740380Y-151088379D01*
X61740490Y-151084983D01*
X61740820Y-151081597D01*
X61741370Y-151078233D01*
X61742141Y-151074902D01*
X61743131Y-151071614D01*
X61744342Y-151068381D01*
X61745773Y-151065212D01*
X61747424Y-151062120D01*
X61749277Y-151059154D01*
X61751309Y-151056339D01*
X61753508Y-151053679D01*
X61755866Y-151051180D01*
X61758373Y-151048849D01*
X61761018Y-151046690D01*
X61763794Y-151044709D01*
X61766689Y-151042913D01*
X61769694Y-151041307D01*
X61772799Y-151039896D01*
X61775996Y-151038686D01*
X61779273Y-151037684D01*
X61782621Y-151036894D01*
X61786032Y-151036323D01*
X61789494Y-151035976D01*
X61792998Y-151035860D01*
X63128075Y-151035831D01*
X63129831Y-151035860D01*
G37*
D10*
X46200000Y-141100000D02*
X45900000Y-141100000D01*
X45900000Y-140700000D02*
X45900000Y-141500000D01*
D11*
G36*
X61244635Y-155675603D02*
G01*
X61246653Y-155675718D01*
X61248655Y-155675909D01*
X61250638Y-155676175D01*
X61252602Y-155676513D01*
X61254543Y-155676924D01*
X61256461Y-155677405D01*
X61258354Y-155677956D01*
X61260219Y-155678576D01*
X61262056Y-155679263D01*
X61263862Y-155680017D01*
X61265636Y-155680836D01*
X61267376Y-155681718D01*
X61269081Y-155682663D01*
X61270748Y-155683670D01*
X61272375Y-155684738D01*
X61273962Y-155685865D01*
X61275507Y-155687050D01*
X61277006Y-155688292D01*
X61278460Y-155689589D01*
X61279866Y-155690942D01*
X61281223Y-155692348D01*
X61282528Y-155693806D01*
X61283780Y-155695316D01*
X61284978Y-155696876D01*
X61286119Y-155698485D01*
X61287201Y-155700141D01*
X61288224Y-155701844D01*
X61289185Y-155703592D01*
X61290083Y-155705385D01*
X61290916Y-155707221D01*
X61291681Y-155709099D01*
X61654886Y-156648628D01*
X62018025Y-155709099D01*
X62019623Y-155705388D01*
X62021482Y-155701848D01*
X62023587Y-155698490D01*
X62025926Y-155695323D01*
X62028483Y-155692355D01*
X62031245Y-155689596D01*
X62034199Y-155687056D01*
X62037330Y-155684744D01*
X62040625Y-155682668D01*
X62044069Y-155680840D01*
X62047650Y-155679267D01*
X62051352Y-155677959D01*
X62055162Y-155676925D01*
X62059067Y-155676175D01*
X62063052Y-155675719D01*
X62067104Y-155675564D01*
X62162685Y-155675564D01*
X62165944Y-155675664D01*
X62169167Y-155675962D01*
X62172346Y-155676452D01*
X62175475Y-155677132D01*
X62178544Y-155677997D01*
X62181545Y-155679042D01*
X62184472Y-155680263D01*
X62187316Y-155681657D01*
X62190069Y-155683220D01*
X62192724Y-155684946D01*
X62195272Y-155686832D01*
X62197706Y-155688873D01*
X62200018Y-155691067D01*
X62202200Y-155693407D01*
X62204244Y-155695891D01*
X62206142Y-155698514D01*
X62207886Y-155701250D01*
X62209447Y-155704070D01*
X62210822Y-155706964D01*
X62212012Y-155709925D01*
X62213015Y-155712942D01*
X62213831Y-155716006D01*
X62214459Y-155719109D01*
X62214898Y-155722241D01*
X62215147Y-155725394D01*
X62215205Y-155728557D01*
X62215072Y-155731723D01*
X62214746Y-155734881D01*
X62214227Y-155738023D01*
X62213513Y-155741140D01*
X62212605Y-155744222D01*
X62211500Y-155747261D01*
X61799347Y-156780519D01*
X61795435Y-156789699D01*
X61790818Y-156798972D01*
X61785501Y-156808241D01*
X61779490Y-156817414D01*
X61772789Y-156826395D01*
X61765402Y-156835090D01*
X61757334Y-156843405D01*
X61748589Y-156851245D01*
X61739172Y-156858516D01*
X61729088Y-156865124D01*
X61723797Y-156868150D01*
X61718341Y-156870975D01*
X61712720Y-156873586D01*
X61706935Y-156875973D01*
X61700987Y-156878123D01*
X61694876Y-156880025D01*
X61688602Y-156881666D01*
X61682167Y-156883036D01*
X61675571Y-156884121D01*
X61668814Y-156884911D01*
X61661897Y-156885394D01*
X61654820Y-156885558D01*
X61649614Y-156885448D01*
X61643197Y-156885041D01*
X61635721Y-156884213D01*
X61627335Y-156882847D01*
X61618190Y-156880820D01*
X61608434Y-156878013D01*
X61598217Y-156874305D01*
X61587691Y-156869575D01*
X61582358Y-156866790D01*
X61577004Y-156863704D01*
X61571647Y-156860303D01*
X61566306Y-156856571D01*
X61561000Y-156852493D01*
X61555748Y-156848055D01*
X61550568Y-156843240D01*
X61545479Y-156838035D01*
X61540500Y-156832424D01*
X61535649Y-156826393D01*
X61530945Y-156819925D01*
X61526408Y-156813006D01*
X61522055Y-156805621D01*
X61517906Y-156797755D01*
X61513979Y-156789392D01*
X61510293Y-156780519D01*
X61098140Y-155747261D01*
X61097036Y-155744212D01*
X61096127Y-155741122D01*
X61095414Y-155737999D01*
X61094894Y-155734854D01*
X61094568Y-155731694D01*
X61094435Y-155728529D01*
X61094493Y-155725367D01*
X61094742Y-155722217D01*
X61095181Y-155719088D01*
X61095809Y-155715989D01*
X61096625Y-155712928D01*
X61097628Y-155709915D01*
X61098818Y-155706958D01*
X61100194Y-155704066D01*
X61101754Y-155701249D01*
X61103498Y-155698514D01*
X61105409Y-155695891D01*
X61107465Y-155693408D01*
X61109659Y-155691067D01*
X61111982Y-155688874D01*
X61114427Y-155686833D01*
X61116984Y-155684947D01*
X61119647Y-155683220D01*
X61122407Y-155681658D01*
X61125257Y-155680264D01*
X61128187Y-155679042D01*
X61131190Y-155677997D01*
X61134259Y-155677132D01*
X61137384Y-155676453D01*
X61140558Y-155675962D01*
X61143773Y-155675664D01*
X61147021Y-155675564D01*
X61242602Y-155675564D01*
X61244635Y-155675603D01*
G37*
G36*
X64218947Y-157180373D02*
G01*
X64010324Y-157180373D01*
X64010324Y-157644712D01*
X63971960Y-157644712D01*
X63971960Y-157180373D01*
X63763338Y-157180373D01*
X63763338Y-157146176D01*
X64218947Y-157146176D01*
X64218947Y-157180373D01*
G37*
G36*
X63671398Y-157180304D02*
G01*
X63414424Y-157180304D01*
X63411041Y-157180379D01*
X63407578Y-157180605D01*
X63404056Y-157180982D01*
X63400496Y-157181509D01*
X63396919Y-157182186D01*
X63393346Y-157183014D01*
X63389798Y-157183992D01*
X63386296Y-157185120D01*
X63382860Y-157186399D01*
X63379512Y-157187828D01*
X63376272Y-157189407D01*
X63373162Y-157191136D01*
X63370202Y-157193016D01*
X63367413Y-157195046D01*
X63364817Y-157197225D01*
X63362434Y-157199555D01*
X63361075Y-157201119D01*
X63359802Y-157202734D01*
X63358611Y-157204396D01*
X63357499Y-157206102D01*
X63355503Y-157209635D01*
X63353791Y-157213305D01*
X63352342Y-157217088D01*
X63351134Y-157220957D01*
X63350145Y-157224886D01*
X63349353Y-157228849D01*
X63348736Y-157232821D01*
X63348272Y-157236776D01*
X63347940Y-157240687D01*
X63347718Y-157244529D01*
X63347513Y-157251901D01*
X63347484Y-157258686D01*
X63347528Y-157264542D01*
X63347699Y-157270365D01*
X63348061Y-157276135D01*
X63348674Y-157281834D01*
X63349599Y-157287443D01*
X63350198Y-157290208D01*
X63350899Y-157292943D01*
X63351708Y-157295645D01*
X63352634Y-157298314D01*
X63353685Y-157300945D01*
X63354867Y-157303537D01*
X63356190Y-157306088D01*
X63357659Y-157308594D01*
X63359284Y-157311054D01*
X63361071Y-157313466D01*
X63363029Y-157315826D01*
X63365166Y-157318132D01*
X63367488Y-157320383D01*
X63370003Y-157322576D01*
X63372720Y-157324707D01*
X63375646Y-157326776D01*
X63378788Y-157328779D01*
X63382155Y-157330714D01*
X63385754Y-157332580D01*
X63389592Y-157334372D01*
X63393678Y-157336090D01*
X63398019Y-157337730D01*
X63591626Y-157406125D01*
X63602631Y-157410121D01*
X63613187Y-157414127D01*
X63623245Y-157418230D01*
X63628070Y-157420345D01*
X63632752Y-157422515D01*
X63637283Y-157424752D01*
X63641658Y-157427066D01*
X63645869Y-157429468D01*
X63649910Y-157431968D01*
X63653776Y-157434578D01*
X63657460Y-157437307D01*
X63660954Y-157440167D01*
X63664253Y-157443167D01*
X63668707Y-157447667D01*
X63672729Y-157452345D01*
X63676339Y-157457179D01*
X63679558Y-157462145D01*
X63682406Y-157467221D01*
X63684901Y-157472383D01*
X63687065Y-157477609D01*
X63688917Y-157482874D01*
X63690476Y-157488156D01*
X63691763Y-157493432D01*
X63692798Y-157498679D01*
X63693600Y-157503873D01*
X63694189Y-157508992D01*
X63694585Y-157514013D01*
X63694809Y-157518911D01*
X63694879Y-157523665D01*
X63694603Y-157534737D01*
X63693794Y-157545007D01*
X63693086Y-157550978D01*
X63692125Y-157557375D01*
X63690872Y-157564097D01*
X63689288Y-157571048D01*
X63687334Y-157578126D01*
X63684972Y-157585233D01*
X63682163Y-157592270D01*
X63678869Y-157599138D01*
X63675050Y-157605737D01*
X63672932Y-157608905D01*
X63670669Y-157611969D01*
X63668511Y-157614693D01*
X63666306Y-157617263D01*
X63664056Y-157619683D01*
X63661764Y-157621958D01*
X63659432Y-157624093D01*
X63657063Y-157626091D01*
X63654659Y-157627957D01*
X63652224Y-157629696D01*
X63649760Y-157631312D01*
X63647269Y-157632809D01*
X63642217Y-157635466D01*
X63637089Y-157637701D01*
X63631907Y-157639550D01*
X63626691Y-157641050D01*
X63621461Y-157642234D01*
X63616239Y-157643139D01*
X63611044Y-157643800D01*
X63605899Y-157644252D01*
X63600823Y-157644531D01*
X63590963Y-157644712D01*
X63314012Y-157644712D01*
X63314015Y-157610528D01*
X63595199Y-157610528D01*
X63600782Y-157610335D01*
X63606293Y-157609719D01*
X63611691Y-157608622D01*
X63616938Y-157606989D01*
X63621994Y-157604763D01*
X63624437Y-157603410D01*
X63626818Y-157601888D01*
X63629131Y-157600190D01*
X63631371Y-157598309D01*
X63633534Y-157596237D01*
X63635614Y-157593967D01*
X63637606Y-157591493D01*
X63639506Y-157588808D01*
X63641309Y-157585904D01*
X63643009Y-157582775D01*
X63644601Y-157579413D01*
X63646081Y-157575812D01*
X63647444Y-157571963D01*
X63648684Y-157567861D01*
X63649797Y-157563499D01*
X63650778Y-157558868D01*
X63651621Y-157553963D01*
X63652322Y-157548776D01*
X63652876Y-157543300D01*
X63653278Y-157537528D01*
X63653606Y-157525068D01*
X63653513Y-157518964D01*
X63653193Y-157512938D01*
X63652586Y-157507002D01*
X63651632Y-157501167D01*
X63650269Y-157495444D01*
X63649415Y-157492629D01*
X63648436Y-157489845D01*
X63647325Y-157487096D01*
X63646074Y-157484382D01*
X63644676Y-157481704D01*
X63643122Y-157479065D01*
X63641405Y-157476465D01*
X63639518Y-157473906D01*
X63637453Y-157471390D01*
X63635203Y-157468917D01*
X63632759Y-157466489D01*
X63630115Y-157464108D01*
X63627262Y-157461776D01*
X63624194Y-157459493D01*
X63620902Y-157457260D01*
X63617379Y-157455080D01*
X63613618Y-157452954D01*
X63609610Y-157450883D01*
X63605349Y-157448869D01*
X63600826Y-157446913D01*
X63596034Y-157445016D01*
X63590966Y-157443181D01*
X63392331Y-157374785D01*
X63387682Y-157373135D01*
X63383093Y-157371387D01*
X63378575Y-157369541D01*
X63374138Y-157367602D01*
X63369794Y-157365570D01*
X63365551Y-157363448D01*
X63361422Y-157361238D01*
X63357416Y-157358942D01*
X63353544Y-157356563D01*
X63349816Y-157354102D01*
X63346244Y-157351561D01*
X63342838Y-157348944D01*
X63339608Y-157346251D01*
X63336565Y-157343485D01*
X63333719Y-157340649D01*
X63331081Y-157337743D01*
X63327400Y-157333267D01*
X63324084Y-157328652D01*
X63321116Y-157323913D01*
X63318478Y-157319064D01*
X63316152Y-157314117D01*
X63314121Y-157309088D01*
X63312368Y-157303989D01*
X63310873Y-157298834D01*
X63309621Y-157293637D01*
X63308592Y-157288413D01*
X63307771Y-157283174D01*
X63307138Y-157277934D01*
X63306676Y-157272707D01*
X63306369Y-157267508D01*
X63306197Y-157262349D01*
X63306143Y-157257244D01*
X63306326Y-157247225D01*
X63306608Y-157241959D01*
X63307066Y-157236559D01*
X63307738Y-157231051D01*
X63308659Y-157225463D01*
X63309865Y-157219820D01*
X63311394Y-157214151D01*
X63313282Y-157208481D01*
X63315565Y-157202839D01*
X63318280Y-157197250D01*
X63321464Y-157191742D01*
X63323243Y-157189027D01*
X63325152Y-157186342D01*
X63327197Y-157183691D01*
X63329382Y-157181077D01*
X63331712Y-157178503D01*
X63334191Y-157175973D01*
X63336823Y-157173490D01*
X63339613Y-157171057D01*
X63342414Y-157168771D01*
X63345487Y-157166490D01*
X63348833Y-157164234D01*
X63352457Y-157162023D01*
X63356361Y-157159876D01*
X63360548Y-157157813D01*
X63365021Y-157155853D01*
X63369784Y-157154017D01*
X63374839Y-157152323D01*
X63380189Y-157150791D01*
X63385837Y-157149442D01*
X63391786Y-157148294D01*
X63398040Y-157147366D01*
X63404601Y-157146680D01*
X63411473Y-157146254D01*
X63418657Y-157146107D01*
X63671398Y-157146107D01*
X63671398Y-157180304D01*
G37*
G36*
X65937189Y-155675571D02*
G01*
X65939859Y-155675773D01*
X65942491Y-155676106D01*
X65945080Y-155676566D01*
X65947624Y-155677150D01*
X65950119Y-155677854D01*
X65952562Y-155678676D01*
X65954950Y-155679613D01*
X65957279Y-155680660D01*
X65959547Y-155681814D01*
X65961749Y-155683073D01*
X65963882Y-155684433D01*
X65965944Y-155685891D01*
X65967931Y-155687443D01*
X65969839Y-155689086D01*
X65971665Y-155690816D01*
X65973407Y-155692632D01*
X65975060Y-155694528D01*
X65976621Y-155696502D01*
X65978087Y-155698551D01*
X65979455Y-155700672D01*
X65980721Y-155702860D01*
X65981883Y-155705113D01*
X65982936Y-155707427D01*
X65983878Y-155709800D01*
X65984705Y-155712227D01*
X65985413Y-155714706D01*
X65986001Y-155717233D01*
X65986463Y-155719805D01*
X65986798Y-155722419D01*
X65987001Y-155725071D01*
X65987069Y-155727758D01*
X65987069Y-155802700D01*
X65987001Y-155805398D01*
X65986798Y-155808061D01*
X65986463Y-155810685D01*
X65986001Y-155813266D01*
X65985413Y-155815802D01*
X65984705Y-155818289D01*
X65983878Y-155820724D01*
X65982936Y-155823104D01*
X65981883Y-155825425D01*
X65980721Y-155827684D01*
X65979455Y-155829878D01*
X65978087Y-155832003D01*
X65976621Y-155834057D01*
X65975060Y-155836035D01*
X65973407Y-155837936D01*
X65971665Y-155839754D01*
X65969839Y-155841488D01*
X65967931Y-155843134D01*
X65965944Y-155844688D01*
X65963882Y-155846148D01*
X65961749Y-155847510D01*
X65959547Y-155848770D01*
X65957279Y-155849926D01*
X65954950Y-155850974D01*
X65952562Y-155851911D01*
X65950119Y-155852734D01*
X65947624Y-155853439D01*
X65945080Y-155854024D01*
X65942491Y-155854484D01*
X65939859Y-155854817D01*
X65937189Y-155855019D01*
X65934483Y-155855087D01*
X65299686Y-155855087D01*
X65298597Y-155855105D01*
X65297446Y-155855160D01*
X65294988Y-155855368D01*
X65292380Y-155855693D01*
X65289689Y-155856117D01*
X65286983Y-155856624D01*
X65284328Y-155857195D01*
X65281793Y-155857813D01*
X65279445Y-155858460D01*
X65279257Y-155859650D01*
X65279090Y-155860993D01*
X65278945Y-155862502D01*
X65278822Y-155864189D01*
X65278725Y-155866064D01*
X65278653Y-155868139D01*
X65278609Y-155870426D01*
X65278594Y-155872935D01*
X65278594Y-156171781D01*
X65918817Y-156171781D01*
X65921522Y-156171849D01*
X65924192Y-156172051D01*
X65926824Y-156172385D01*
X65929413Y-156172846D01*
X65931957Y-156173431D01*
X65934452Y-156174138D01*
X65936895Y-156174962D01*
X65939283Y-156175901D01*
X65941612Y-156176951D01*
X65943880Y-156178108D01*
X65946082Y-156179371D01*
X65948216Y-156180734D01*
X65950277Y-156182195D01*
X65952264Y-156183751D01*
X65954172Y-156185399D01*
X65955998Y-156187134D01*
X65957740Y-156188954D01*
X65959393Y-156190855D01*
X65960954Y-156192834D01*
X65962420Y-156194889D01*
X65963788Y-156197014D01*
X65965054Y-156199208D01*
X65966216Y-156201467D01*
X65967269Y-156203787D01*
X65968211Y-156206165D01*
X65969038Y-156208599D01*
X65969746Y-156211084D01*
X65970334Y-156213617D01*
X65970796Y-156216196D01*
X65971131Y-156218816D01*
X65971334Y-156221474D01*
X65971402Y-156224168D01*
X65971402Y-156299109D01*
X65971334Y-156301807D01*
X65971131Y-156304470D01*
X65970796Y-156307094D01*
X65970334Y-156309675D01*
X65969746Y-156312211D01*
X65969038Y-156314698D01*
X65968211Y-156317133D01*
X65967269Y-156319513D01*
X65966216Y-156321834D01*
X65965054Y-156324093D01*
X65963788Y-156326287D01*
X65962420Y-156328412D01*
X65960954Y-156330466D01*
X65959393Y-156332444D01*
X65957740Y-156334345D01*
X65955998Y-156336163D01*
X65954172Y-156337897D01*
X65952264Y-156339543D01*
X65950277Y-156341097D01*
X65948216Y-156342557D01*
X65946082Y-156343919D01*
X65943880Y-156345179D01*
X65941612Y-156346335D01*
X65939283Y-156347383D01*
X65936895Y-156348320D01*
X65934452Y-156349143D01*
X65931957Y-156349848D01*
X65929413Y-156350433D01*
X65926824Y-156350893D01*
X65924192Y-156351226D01*
X65921522Y-156351428D01*
X65918817Y-156351496D01*
X65278594Y-156351496D01*
X65278594Y-156687778D01*
X65278597Y-156687977D01*
X65278606Y-156688197D01*
X65278635Y-156688685D01*
X65278677Y-156689221D01*
X65278726Y-156689779D01*
X65282527Y-156690431D01*
X65286625Y-156691064D01*
X65290927Y-156691655D01*
X65295337Y-156692185D01*
X65299764Y-156692633D01*
X65304111Y-156692978D01*
X65308287Y-156693200D01*
X65312196Y-156693279D01*
X65940709Y-156693279D01*
X65943415Y-156693347D01*
X65946085Y-156693550D01*
X65948716Y-156693883D01*
X65951306Y-156694344D01*
X65953849Y-156694930D01*
X65956345Y-156695636D01*
X65958788Y-156696460D01*
X65961176Y-156697399D01*
X65963505Y-156698449D01*
X65965772Y-156699607D01*
X65967974Y-156700869D01*
X65970108Y-156702232D01*
X65972170Y-156703694D01*
X65974156Y-156705250D01*
X65976064Y-156706897D01*
X65977891Y-156708632D01*
X65979632Y-156710452D01*
X65981285Y-156712353D01*
X65982846Y-156714333D01*
X65984312Y-156716387D01*
X65985680Y-156718512D01*
X65986947Y-156720706D01*
X65988108Y-156722965D01*
X65989161Y-156725285D01*
X65990103Y-156727664D01*
X65990930Y-156730097D01*
X65991638Y-156732582D01*
X65992226Y-156735115D01*
X65992688Y-156737694D01*
X65993023Y-156740314D01*
X65993226Y-156742972D01*
X65993294Y-156745666D01*
X65993294Y-156820607D01*
X65993226Y-156823301D01*
X65993023Y-156825960D01*
X65992688Y-156828580D01*
X65992226Y-156831159D01*
X65991638Y-156833692D01*
X65990930Y-156836178D01*
X65990103Y-156838611D01*
X65989161Y-156840990D01*
X65988108Y-156843310D01*
X65986947Y-156845568D01*
X65985680Y-156847762D01*
X65984312Y-156849888D01*
X65982846Y-156851942D01*
X65981285Y-156853921D01*
X65979632Y-156855822D01*
X65977891Y-156857642D01*
X65976064Y-156859377D01*
X65974156Y-156861025D01*
X65972170Y-156862580D01*
X65970108Y-156864042D01*
X65967974Y-156865405D01*
X65965772Y-156866667D01*
X65963505Y-156867824D01*
X65961176Y-156868874D01*
X65958788Y-156869813D01*
X65956345Y-156870637D01*
X65953849Y-156871343D01*
X65951306Y-156871929D01*
X65948716Y-156872390D01*
X65946085Y-156872723D01*
X65943415Y-156872926D01*
X65940709Y-156872994D01*
X65280712Y-156872994D01*
X65266525Y-156872900D01*
X65250522Y-156872243D01*
X65241963Y-156871526D01*
X65233100Y-156870458D01*
X65223982Y-156868967D01*
X65214658Y-156866983D01*
X65205178Y-156864435D01*
X65195592Y-156861254D01*
X65185950Y-156857368D01*
X65176301Y-156852707D01*
X65166695Y-156847201D01*
X65157182Y-156840779D01*
X65152476Y-156837203D01*
X65147811Y-156833371D01*
X65143195Y-156829275D01*
X65138632Y-156824906D01*
X65134101Y-156820202D01*
X65129853Y-156815407D01*
X65125879Y-156810531D01*
X65122170Y-156805581D01*
X65118717Y-156800565D01*
X65115510Y-156795492D01*
X65112540Y-156790368D01*
X65109799Y-156785202D01*
X65104965Y-156774776D01*
X65100935Y-156764277D01*
X65097635Y-156753769D01*
X65094993Y-156743316D01*
X65092936Y-156732980D01*
X65091389Y-156722825D01*
X65090281Y-156712916D01*
X65089538Y-156703315D01*
X65088857Y-156685292D01*
X65088759Y-156669266D01*
X65088759Y-155873073D01*
X65088828Y-155866482D01*
X65089030Y-155860054D01*
X65089815Y-155847678D01*
X65091075Y-155835933D01*
X65092769Y-155824807D01*
X65094857Y-155814286D01*
X65097298Y-155804359D01*
X65100053Y-155795012D01*
X65103080Y-155786233D01*
X65106340Y-155778011D01*
X65109792Y-155770331D01*
X65113396Y-155763182D01*
X65117111Y-155756552D01*
X65120898Y-155750427D01*
X65124716Y-155744795D01*
X65128524Y-155739644D01*
X65132283Y-155734961D01*
X65136999Y-155729564D01*
X65141815Y-155724505D01*
X65146723Y-155719773D01*
X65151712Y-155715355D01*
X65156773Y-155711242D01*
X65161898Y-155707423D01*
X65167076Y-155703887D01*
X65172300Y-155700622D01*
X65177559Y-155697619D01*
X65182844Y-155694865D01*
X65188146Y-155692351D01*
X65193457Y-155690065D01*
X65204064Y-155686136D01*
X65214593Y-155682989D01*
X65224969Y-155680538D01*
X65235118Y-155678697D01*
X65244967Y-155677377D01*
X65254442Y-155676492D01*
X65263470Y-155675956D01*
X65271976Y-155675680D01*
X65287130Y-155675564D01*
X65934495Y-155675564D01*
X65934483Y-155675503D01*
X65937189Y-155675571D01*
G37*
D10*
X52100000Y-143500000D02*
X52600000Y-143500000D01*
D11*
G36*
X65936944Y-157180304D02*
G01*
X65679969Y-157180304D01*
X65676586Y-157180379D01*
X65673123Y-157180605D01*
X65669601Y-157180982D01*
X65666041Y-157181509D01*
X65662464Y-157182186D01*
X65658891Y-157183014D01*
X65655343Y-157183992D01*
X65651841Y-157185120D01*
X65648405Y-157186399D01*
X65645057Y-157187828D01*
X65641817Y-157189407D01*
X65638707Y-157191136D01*
X65635747Y-157193016D01*
X65632958Y-157195046D01*
X65630362Y-157197225D01*
X65627978Y-157199555D01*
X65626620Y-157201119D01*
X65625347Y-157202734D01*
X65624156Y-157204396D01*
X65623044Y-157206102D01*
X65621047Y-157209635D01*
X65619336Y-157213305D01*
X65617887Y-157217088D01*
X65616679Y-157220957D01*
X65615690Y-157224886D01*
X65614898Y-157228849D01*
X65614281Y-157232821D01*
X65613817Y-157236776D01*
X65613485Y-157240687D01*
X65613263Y-157244529D01*
X65613058Y-157251901D01*
X65613029Y-157258686D01*
X65613073Y-157264542D01*
X65613244Y-157270365D01*
X65613606Y-157276135D01*
X65614218Y-157281834D01*
X65615144Y-157287443D01*
X65615743Y-157290208D01*
X65616444Y-157292943D01*
X65617253Y-157295645D01*
X65618179Y-157298314D01*
X65619230Y-157300945D01*
X65620412Y-157303537D01*
X65621734Y-157306088D01*
X65623204Y-157308594D01*
X65624829Y-157311054D01*
X65626616Y-157313466D01*
X65628574Y-157315826D01*
X65630710Y-157318132D01*
X65633032Y-157320383D01*
X65635548Y-157322576D01*
X65638265Y-157324707D01*
X65641190Y-157326776D01*
X65644333Y-157328779D01*
X65647700Y-157330714D01*
X65651298Y-157332580D01*
X65655137Y-157334372D01*
X65659223Y-157336090D01*
X65663564Y-157337730D01*
X65857236Y-157406125D01*
X65868241Y-157410121D01*
X65878798Y-157414127D01*
X65888855Y-157418230D01*
X65893681Y-157420345D01*
X65898363Y-157422515D01*
X65902894Y-157424752D01*
X65907268Y-157427066D01*
X65911479Y-157429468D01*
X65915521Y-157431968D01*
X65919387Y-157434578D01*
X65923070Y-157437307D01*
X65926565Y-157440167D01*
X65929864Y-157443167D01*
X65934318Y-157447667D01*
X65938340Y-157452345D01*
X65941951Y-157457179D01*
X65945170Y-157462145D01*
X65948018Y-157467221D01*
X65950514Y-157472383D01*
X65952677Y-157477609D01*
X65954529Y-157482874D01*
X65956088Y-157488156D01*
X65957375Y-157493432D01*
X65958410Y-157498679D01*
X65959212Y-157503873D01*
X65959801Y-157508992D01*
X65960197Y-157514013D01*
X65960420Y-157518911D01*
X65960490Y-157523665D01*
X65960214Y-157534737D01*
X65959405Y-157545007D01*
X65958698Y-157550978D01*
X65957736Y-157557375D01*
X65956483Y-157564097D01*
X65954899Y-157571048D01*
X65952945Y-157578126D01*
X65950583Y-157585233D01*
X65947774Y-157592270D01*
X65944480Y-157599138D01*
X65940662Y-157605737D01*
X65938544Y-157608905D01*
X65936280Y-157611969D01*
X65934122Y-157614693D01*
X65931917Y-157617263D01*
X65929667Y-157619683D01*
X65927375Y-157621958D01*
X65925043Y-157624093D01*
X65922674Y-157626091D01*
X65920271Y-157627957D01*
X65917836Y-157629696D01*
X65915371Y-157631312D01*
X65912880Y-157632809D01*
X65907828Y-157635466D01*
X65902701Y-157637701D01*
X65897519Y-157639550D01*
X65892302Y-157641050D01*
X65887073Y-157642234D01*
X65881850Y-157643139D01*
X65876656Y-157643800D01*
X65871511Y-157644252D01*
X65866435Y-157644531D01*
X65856574Y-157644712D01*
X65579624Y-157644712D01*
X65579494Y-157644725D01*
X65579494Y-157610528D01*
X65860677Y-157610528D01*
X65866260Y-157610335D01*
X65871771Y-157609719D01*
X65877169Y-157608622D01*
X65882416Y-157606989D01*
X65887472Y-157604763D01*
X65889915Y-157603410D01*
X65892296Y-157601888D01*
X65894609Y-157600190D01*
X65896849Y-157598309D01*
X65899012Y-157596237D01*
X65901092Y-157593967D01*
X65903084Y-157591493D01*
X65904984Y-157588808D01*
X65906787Y-157585904D01*
X65908487Y-157582775D01*
X65910079Y-157579413D01*
X65911559Y-157575812D01*
X65912922Y-157571963D01*
X65914162Y-157567861D01*
X65915275Y-157563499D01*
X65916256Y-157558868D01*
X65917099Y-157553963D01*
X65917800Y-157548776D01*
X65918354Y-157543300D01*
X65918756Y-157537528D01*
X65919084Y-157525068D01*
X65918990Y-157518964D01*
X65918671Y-157512938D01*
X65918064Y-157507002D01*
X65917109Y-157501167D01*
X65915746Y-157495444D01*
X65914893Y-157492629D01*
X65913914Y-157489845D01*
X65912803Y-157487096D01*
X65911552Y-157484382D01*
X65910153Y-157481704D01*
X65908599Y-157479065D01*
X65906883Y-157476465D01*
X65904996Y-157473906D01*
X65902931Y-157471390D01*
X65900680Y-157468917D01*
X65898236Y-157466489D01*
X65895592Y-157464108D01*
X65892740Y-157461776D01*
X65889671Y-157459493D01*
X65886379Y-157457260D01*
X65882856Y-157455080D01*
X65879095Y-157452954D01*
X65875087Y-157450883D01*
X65870826Y-157448869D01*
X65866303Y-157446913D01*
X65861511Y-157445016D01*
X65856443Y-157443181D01*
X65657809Y-157374785D01*
X65653172Y-157373135D01*
X65648593Y-157371387D01*
X65644084Y-157369541D01*
X65639655Y-157367602D01*
X65635316Y-157365570D01*
X65631079Y-157363448D01*
X65626954Y-157361238D01*
X65622951Y-157358942D01*
X65619082Y-157356563D01*
X65615356Y-157354102D01*
X65611786Y-157351561D01*
X65608381Y-157348944D01*
X65605151Y-157346251D01*
X65602109Y-157343485D01*
X65599263Y-157340649D01*
X65596626Y-157337743D01*
X65592945Y-157333267D01*
X65589629Y-157328652D01*
X65586661Y-157323913D01*
X65584023Y-157319064D01*
X65581697Y-157314117D01*
X65579666Y-157309088D01*
X65577913Y-157303989D01*
X65576418Y-157298834D01*
X65575166Y-157293637D01*
X65574138Y-157288413D01*
X65573316Y-157283174D01*
X65572683Y-157277934D01*
X65572222Y-157272707D01*
X65571914Y-157267508D01*
X65571742Y-157262349D01*
X65571689Y-157257244D01*
X65571871Y-157247225D01*
X65572153Y-157241959D01*
X65572612Y-157236559D01*
X65573283Y-157231051D01*
X65574204Y-157225463D01*
X65575410Y-157219820D01*
X65576939Y-157214151D01*
X65578827Y-157208481D01*
X65581110Y-157202839D01*
X65583825Y-157197250D01*
X65587009Y-157191742D01*
X65588788Y-157189027D01*
X65590698Y-157186342D01*
X65592743Y-157183691D01*
X65594928Y-157181077D01*
X65597258Y-157178503D01*
X65599736Y-157175973D01*
X65602369Y-157173490D01*
X65605159Y-157171057D01*
X65607971Y-157168771D01*
X65611052Y-157166490D01*
X65614404Y-157164234D01*
X65618031Y-157162023D01*
X65621936Y-157159876D01*
X65626123Y-157157813D01*
X65630595Y-157155853D01*
X65635355Y-157154017D01*
X65640406Y-157152323D01*
X65645752Y-157150791D01*
X65651396Y-157149442D01*
X65657342Y-157148294D01*
X65663592Y-157147366D01*
X65670150Y-157146680D01*
X65677019Y-157146254D01*
X65684203Y-157146107D01*
X65936944Y-157146107D01*
X65936944Y-157180304D01*
G37*
G36*
X62545101Y-155663243D02*
G01*
X62554554Y-155664084D01*
X62563649Y-155665452D01*
X62572394Y-155667319D01*
X62580797Y-155669658D01*
X62588865Y-155672440D01*
X62596606Y-155675639D01*
X62604026Y-155679226D01*
X62611135Y-155683175D01*
X62617939Y-155687457D01*
X62624445Y-155692044D01*
X62630662Y-155696910D01*
X62636597Y-155702026D01*
X62642257Y-155707365D01*
X62647650Y-155712899D01*
X62652783Y-155718601D01*
X62662300Y-155730397D01*
X62670870Y-155742531D01*
X62678551Y-155754783D01*
X62685404Y-155766931D01*
X62691489Y-155778754D01*
X62696867Y-155790031D01*
X62705741Y-155810064D01*
X62705753Y-155810109D01*
X62705765Y-155810152D01*
X62705778Y-155810191D01*
X62705790Y-155810229D01*
X62705802Y-155810264D01*
X62705815Y-155810297D01*
X62705827Y-155810328D01*
X62705840Y-155810358D01*
X62705865Y-155810414D01*
X62705889Y-155810465D01*
X62705939Y-155810564D01*
X63125962Y-156800298D01*
X63127151Y-156803351D01*
X63128139Y-156806452D01*
X63128928Y-156809592D01*
X63129517Y-156812760D01*
X63129909Y-156815948D01*
X63130103Y-156819147D01*
X63130101Y-156822347D01*
X63129904Y-156825538D01*
X63129513Y-156828711D01*
X63128927Y-156831858D01*
X63128149Y-156834968D01*
X63127179Y-156838032D01*
X63126018Y-156841041D01*
X63124667Y-156843985D01*
X63123126Y-156846855D01*
X63121397Y-156849642D01*
X63119485Y-156852315D01*
X63117426Y-156854847D01*
X63115228Y-156857234D01*
X63112898Y-156859472D01*
X63110445Y-156861555D01*
X63107876Y-156863480D01*
X63105198Y-156865243D01*
X63102421Y-156866838D01*
X63099552Y-156868262D01*
X63096598Y-156869511D01*
X63093567Y-156870579D01*
X63090468Y-156871463D01*
X63087308Y-156872158D01*
X63084096Y-156872660D01*
X63080838Y-156872964D01*
X63077542Y-156873066D01*
X62986659Y-156873066D01*
X62984674Y-156873029D01*
X62982704Y-156872919D01*
X62980749Y-156872737D01*
X62978810Y-156872483D01*
X62976890Y-156872159D01*
X62974991Y-156871767D01*
X62973113Y-156871306D01*
X62971259Y-156870779D01*
X62969430Y-156870186D01*
X62967628Y-156869528D01*
X62965855Y-156868806D01*
X62964111Y-156868022D01*
X62962400Y-156867177D01*
X62960722Y-156866271D01*
X62959078Y-156865306D01*
X62957472Y-156864282D01*
X62955904Y-156863201D01*
X62954376Y-156862064D01*
X62952890Y-156860872D01*
X62951447Y-156859626D01*
X62950048Y-156858327D01*
X62948697Y-156856977D01*
X62947394Y-156855575D01*
X62946140Y-156854124D01*
X62944939Y-156852624D01*
X62943790Y-156851077D01*
X62942696Y-156849483D01*
X62941659Y-156847843D01*
X62940680Y-156846160D01*
X62939761Y-156844433D01*
X62938903Y-156842664D01*
X62938108Y-156840853D01*
X62818385Y-156554642D01*
X62252114Y-156554642D01*
X62132390Y-156840853D01*
X62130727Y-156844431D01*
X62128820Y-156847840D01*
X62126684Y-156851072D01*
X62124330Y-156854119D01*
X62121772Y-156856972D01*
X62119023Y-156859621D01*
X62116095Y-156862059D01*
X62113002Y-156864278D01*
X62109756Y-156866267D01*
X62106370Y-156868019D01*
X62102857Y-156869526D01*
X62099230Y-156870777D01*
X62095502Y-156871766D01*
X62091686Y-156872483D01*
X62087794Y-156872919D01*
X62083840Y-156873066D01*
X61992956Y-156873066D01*
X61989672Y-156872964D01*
X61986422Y-156872660D01*
X61983215Y-156872158D01*
X61980059Y-156871463D01*
X61976962Y-156870579D01*
X61973933Y-156869511D01*
X61970979Y-156868263D01*
X61968110Y-156866839D01*
X61965333Y-156865244D01*
X61962656Y-156863481D01*
X61960088Y-156861556D01*
X61957637Y-156859472D01*
X61955311Y-156857235D01*
X61953119Y-156854848D01*
X61951068Y-156852316D01*
X61949168Y-156849642D01*
X61947427Y-156846846D01*
X61945876Y-156843968D01*
X61944515Y-156841019D01*
X61943347Y-156838008D01*
X61942370Y-156834943D01*
X61941586Y-156831834D01*
X61940997Y-156828690D01*
X61940601Y-156825519D01*
X61940402Y-156822332D01*
X61940398Y-156819136D01*
X61940591Y-156815941D01*
X61940982Y-156812756D01*
X61941571Y-156809590D01*
X61942360Y-156806452D01*
X61943348Y-156803352D01*
X61944538Y-156800298D01*
X62125072Y-156374920D01*
X62329041Y-156374920D01*
X62741656Y-156374920D01*
X62535349Y-155883393D01*
X62329041Y-156374920D01*
X62125072Y-156374920D01*
X62364561Y-155810632D01*
X62373264Y-155790542D01*
X62378547Y-155779231D01*
X62384538Y-155767371D01*
X62391303Y-155755185D01*
X62398905Y-155742895D01*
X62407409Y-155730722D01*
X62416881Y-155718888D01*
X62422001Y-155713168D01*
X62427386Y-155707616D01*
X62433046Y-155702260D01*
X62438988Y-155697127D01*
X62445221Y-155692245D01*
X62451753Y-155687643D01*
X62458591Y-155683347D01*
X62465744Y-155679385D01*
X62473221Y-155675786D01*
X62481028Y-155672576D01*
X62489175Y-155669785D01*
X62497669Y-155667438D01*
X62506519Y-155665565D01*
X62515732Y-155664193D01*
X62525317Y-155663349D01*
X62535282Y-155663062D01*
X62535284Y-155662957D01*
X62545101Y-155663243D01*
G37*
D10*
X52400000Y-140700000D02*
X52400000Y-141500000D01*
X36330500Y-136247400D02*
X37956100Y-136247400D01*
X45600000Y-143500000D02*
X46100000Y-143500000D01*
D11*
G36*
X62651766Y-157180304D02*
G01*
X62394791Y-157180304D01*
X62391408Y-157180379D01*
X62387945Y-157180605D01*
X62384423Y-157180982D01*
X62380863Y-157181509D01*
X62377286Y-157182186D01*
X62373713Y-157183014D01*
X62370165Y-157183992D01*
X62366663Y-157185120D01*
X62363227Y-157186399D01*
X62359879Y-157187828D01*
X62356639Y-157189407D01*
X62353529Y-157191136D01*
X62350569Y-157193016D01*
X62347781Y-157195046D01*
X62345184Y-157197225D01*
X62342801Y-157199555D01*
X62341443Y-157201119D01*
X62340170Y-157202734D01*
X62338978Y-157204396D01*
X62337866Y-157206102D01*
X62335870Y-157209635D01*
X62334158Y-157213305D01*
X62332709Y-157217088D01*
X62331501Y-157220957D01*
X62330512Y-157224886D01*
X62329720Y-157228849D01*
X62329103Y-157232821D01*
X62328640Y-157236776D01*
X62328308Y-157240687D01*
X62328085Y-157244529D01*
X62327881Y-157251901D01*
X62327851Y-157258686D01*
X62327895Y-157264542D01*
X62328067Y-157270365D01*
X62328428Y-157276135D01*
X62329041Y-157281834D01*
X62329966Y-157287443D01*
X62330566Y-157290208D01*
X62331266Y-157292943D01*
X62332076Y-157295645D01*
X62333002Y-157298314D01*
X62334052Y-157300945D01*
X62335235Y-157303537D01*
X62336557Y-157306088D01*
X62338026Y-157308594D01*
X62339651Y-157311054D01*
X62341439Y-157313466D01*
X62343397Y-157315826D01*
X62345533Y-157318132D01*
X62347855Y-157320383D01*
X62350371Y-157322576D01*
X62353087Y-157324707D01*
X62356013Y-157326776D01*
X62359156Y-157328779D01*
X62362522Y-157330714D01*
X62366121Y-157332580D01*
X62369959Y-157334372D01*
X62374045Y-157336090D01*
X62378386Y-157337730D01*
X62572060Y-157406125D01*
X62583065Y-157410121D01*
X62593621Y-157414127D01*
X62603679Y-157418230D01*
X62608504Y-157420345D01*
X62613186Y-157422515D01*
X62617717Y-157424752D01*
X62622092Y-157427066D01*
X62626303Y-157429468D01*
X62630345Y-157431968D01*
X62634210Y-157434578D01*
X62637894Y-157437307D01*
X62641388Y-157440167D01*
X62644688Y-157443167D01*
X62649141Y-157447667D01*
X62653163Y-157452345D01*
X62656774Y-157457179D01*
X62659993Y-157462145D01*
X62662841Y-157467221D01*
X62665336Y-157472383D01*
X62667500Y-157477609D01*
X62669352Y-157482874D01*
X62670911Y-157488156D01*
X62672198Y-157493432D01*
X62673233Y-157498679D01*
X62674034Y-157503873D01*
X62674623Y-157508992D01*
X62675020Y-157514013D01*
X62675243Y-157518911D01*
X62675313Y-157523665D01*
X62675037Y-157534737D01*
X62674228Y-157545007D01*
X62673520Y-157550978D01*
X62672559Y-157557375D01*
X62671306Y-157564097D01*
X62669722Y-157571048D01*
X62667768Y-157578126D01*
X62665406Y-157585233D01*
X62662597Y-157592270D01*
X62659303Y-157599138D01*
X62655484Y-157605737D01*
X62653366Y-157608905D01*
X62651103Y-157611969D01*
X62648939Y-157614693D01*
X62646728Y-157617263D01*
X62644473Y-157619683D01*
X62642176Y-157621958D01*
X62639840Y-157624093D01*
X62637466Y-157626091D01*
X62635059Y-157627957D01*
X62632620Y-157629696D01*
X62630153Y-157631312D01*
X62627658Y-157632809D01*
X62622601Y-157635466D01*
X62617469Y-157637701D01*
X62612284Y-157639550D01*
X62607065Y-157641050D01*
X62601833Y-157642234D01*
X62596609Y-157643139D01*
X62591414Y-157643800D01*
X62586268Y-157644252D01*
X62581192Y-157644531D01*
X62571331Y-157644712D01*
X62294380Y-157644712D01*
X62294381Y-157610528D01*
X62575566Y-157610528D01*
X62581149Y-157610335D01*
X62586659Y-157609719D01*
X62592058Y-157608622D01*
X62597305Y-157606989D01*
X62602360Y-157604763D01*
X62604804Y-157603410D01*
X62607184Y-157601888D01*
X62609497Y-157600190D01*
X62611738Y-157598309D01*
X62613900Y-157596237D01*
X62615980Y-157593967D01*
X62617973Y-157591493D01*
X62619873Y-157588808D01*
X62621675Y-157585904D01*
X62623375Y-157582775D01*
X62624968Y-157579413D01*
X62626448Y-157575812D01*
X62627810Y-157571963D01*
X62629050Y-157567861D01*
X62630163Y-157563499D01*
X62631144Y-157558868D01*
X62631988Y-157553963D01*
X62632689Y-157548776D01*
X62633243Y-157543300D01*
X62633645Y-157537528D01*
X62633972Y-157525068D01*
X62633878Y-157518964D01*
X62633557Y-157512938D01*
X62632947Y-157507002D01*
X62631989Y-157501167D01*
X62630622Y-157495444D01*
X62629766Y-157492629D01*
X62628785Y-157489845D01*
X62627672Y-157487096D01*
X62626419Y-157484382D01*
X62625019Y-157481704D01*
X62623463Y-157479065D01*
X62621745Y-157476465D01*
X62619857Y-157473906D01*
X62617791Y-157471390D01*
X62615540Y-157468917D01*
X62613096Y-157466489D01*
X62610452Y-157464108D01*
X62607600Y-157461776D01*
X62604532Y-157459493D01*
X62601242Y-157457260D01*
X62597721Y-157455080D01*
X62593962Y-157452954D01*
X62589957Y-157450883D01*
X62585700Y-157448869D01*
X62581181Y-157446913D01*
X62576395Y-157445016D01*
X62571332Y-157443181D01*
X62372698Y-157374785D01*
X62368049Y-157373135D01*
X62363460Y-157371387D01*
X62358942Y-157369541D01*
X62354505Y-157367602D01*
X62350160Y-157365570D01*
X62345918Y-157363448D01*
X62341788Y-157361238D01*
X62337782Y-157358942D01*
X62333910Y-157356563D01*
X62330183Y-157354102D01*
X62326611Y-157351561D01*
X62323204Y-157348944D01*
X62319974Y-157346251D01*
X62316931Y-157343485D01*
X62314085Y-157340649D01*
X62311447Y-157337743D01*
X62307766Y-157333267D01*
X62304451Y-157328652D01*
X62301483Y-157323913D01*
X62298844Y-157319064D01*
X62296519Y-157314117D01*
X62294488Y-157309088D01*
X62292734Y-157303989D01*
X62291240Y-157298834D01*
X62289987Y-157293637D01*
X62288959Y-157288413D01*
X62288137Y-157283174D01*
X62287504Y-157277934D01*
X62287043Y-157272707D01*
X62286735Y-157267508D01*
X62286563Y-157262349D01*
X62286510Y-157257244D01*
X62286692Y-157247225D01*
X62286974Y-157241959D01*
X62287433Y-157236559D01*
X62288104Y-157231051D01*
X62289025Y-157225463D01*
X62290231Y-157219820D01*
X62291760Y-157214151D01*
X62293648Y-157208481D01*
X62295931Y-157202839D01*
X62298646Y-157197250D01*
X62301830Y-157191742D01*
X62303609Y-157189027D01*
X62305519Y-157186342D01*
X62307564Y-157183691D01*
X62309749Y-157181077D01*
X62312078Y-157178503D01*
X62314557Y-157175973D01*
X62317189Y-157173490D01*
X62319980Y-157171057D01*
X62322792Y-157168771D01*
X62325872Y-157166490D01*
X62329224Y-157164234D01*
X62332851Y-157162023D01*
X62336757Y-157159876D01*
X62340944Y-157157813D01*
X62345416Y-157155853D01*
X62350175Y-157154017D01*
X62355227Y-157152323D01*
X62360573Y-157150791D01*
X62366217Y-157149442D01*
X62372163Y-157148294D01*
X62378413Y-157147366D01*
X62384971Y-157146680D01*
X62391840Y-157146254D01*
X62399024Y-157146107D01*
X62651766Y-157146107D01*
X62651766Y-157180304D01*
G37*
G36*
X64098234Y-155663237D02*
G01*
X64106335Y-155663757D01*
X64114140Y-155664606D01*
X64121656Y-155665767D01*
X64128890Y-155667224D01*
X64135848Y-155668962D01*
X64142538Y-155670965D01*
X64148967Y-155673218D01*
X64155141Y-155675705D01*
X64161066Y-155678410D01*
X64166751Y-155681317D01*
X64172202Y-155684411D01*
X64177426Y-155687676D01*
X64182429Y-155691096D01*
X64187218Y-155694656D01*
X64191801Y-155698340D01*
X64196184Y-155702133D01*
X64200374Y-155706018D01*
X64208204Y-155714003D01*
X64215343Y-155722171D01*
X64221849Y-155730395D01*
X64227775Y-155738551D01*
X64233176Y-155746513D01*
X64242626Y-155761353D01*
X64777014Y-156620449D01*
X64777014Y-155728014D01*
X64777083Y-155725316D01*
X64777286Y-155722653D01*
X64777620Y-155720029D01*
X64778083Y-155717448D01*
X64778670Y-155714912D01*
X64779379Y-155712425D01*
X64780206Y-155709990D01*
X64781148Y-155707610D01*
X64782201Y-155705289D01*
X64783362Y-155703030D01*
X64784629Y-155700836D01*
X64785996Y-155698711D01*
X64787463Y-155696657D01*
X64789024Y-155694679D01*
X64790677Y-155692778D01*
X64792418Y-155690960D01*
X64794245Y-155689226D01*
X64796153Y-155687580D01*
X64798139Y-155686026D01*
X64800201Y-155684566D01*
X64802335Y-155683204D01*
X64804537Y-155681944D01*
X64806804Y-155680788D01*
X64809133Y-155679740D01*
X64811521Y-155678803D01*
X64813964Y-155677980D01*
X64816460Y-155677275D01*
X64819003Y-155676690D01*
X64821593Y-155676230D01*
X64824224Y-155675897D01*
X64826894Y-155675695D01*
X64829600Y-155675627D01*
X64914267Y-155675627D01*
X64916972Y-155675695D01*
X64919642Y-155675898D01*
X64922274Y-155676232D01*
X64924863Y-155676693D01*
X64927407Y-155677278D01*
X64929902Y-155677985D01*
X64932345Y-155678809D01*
X64934733Y-155679748D01*
X64937062Y-155680798D01*
X64939330Y-155681955D01*
X64941532Y-155683218D01*
X64943665Y-155684581D01*
X64945727Y-155686043D01*
X64947714Y-155687599D01*
X64949622Y-155689246D01*
X64951448Y-155690981D01*
X64953189Y-155692801D01*
X64954842Y-155694702D01*
X64956403Y-155696682D01*
X64957870Y-155698736D01*
X64959238Y-155700862D01*
X64960504Y-155703055D01*
X64961665Y-155705314D01*
X64962719Y-155707634D01*
X64963660Y-155710013D01*
X64964487Y-155712446D01*
X64965196Y-155714931D01*
X64965783Y-155717464D01*
X64966246Y-155720042D01*
X64966580Y-155722662D01*
X64966783Y-155725321D01*
X64966852Y-155728014D01*
X64966852Y-156711465D01*
X64966677Y-156721270D01*
X64966155Y-156730850D01*
X64965292Y-156740199D01*
X64964092Y-156749312D01*
X64962561Y-156758183D01*
X64960703Y-156766806D01*
X64958523Y-156775176D01*
X64956027Y-156783287D01*
X64953218Y-156791133D01*
X64950103Y-156798709D01*
X64946686Y-156806010D01*
X64942972Y-156813028D01*
X64938966Y-156819760D01*
X64934673Y-156826198D01*
X64930098Y-156832338D01*
X64925246Y-156838174D01*
X64920122Y-156843700D01*
X64914731Y-156848910D01*
X64909078Y-156853800D01*
X64903168Y-156858362D01*
X64897005Y-156862592D01*
X64890595Y-156866484D01*
X64883943Y-156870032D01*
X64877054Y-156873230D01*
X64869932Y-156876074D01*
X64862582Y-156878557D01*
X64855011Y-156880673D01*
X64847222Y-156882417D01*
X64839220Y-156883783D01*
X64831011Y-156884766D01*
X64822599Y-156885360D01*
X64813990Y-156885560D01*
X64806306Y-156885410D01*
X64798877Y-156884966D01*
X64791696Y-156884238D01*
X64784755Y-156883234D01*
X64778047Y-156881965D01*
X64771566Y-156880439D01*
X64765305Y-156878665D01*
X64759256Y-156876654D01*
X64753413Y-156874414D01*
X64747768Y-156871954D01*
X64742315Y-156869284D01*
X64737046Y-156866413D01*
X64731954Y-156863351D01*
X64727033Y-156860106D01*
X64722276Y-156856689D01*
X64717675Y-156853107D01*
X64708914Y-156845490D01*
X64700694Y-156837330D01*
X64692960Y-156828700D01*
X64685656Y-156819676D01*
X64678724Y-156810331D01*
X64672110Y-156800739D01*
X64665756Y-156790976D01*
X64659608Y-156781116D01*
X64123632Y-155919177D01*
X64123632Y-156820672D01*
X64123563Y-156823366D01*
X64123360Y-156826025D01*
X64123026Y-156828645D01*
X64122563Y-156831224D01*
X64121976Y-156833757D01*
X64121267Y-156836242D01*
X64120440Y-156838676D01*
X64119499Y-156841054D01*
X64118446Y-156843375D01*
X64117284Y-156845633D01*
X64116018Y-156847827D01*
X64114650Y-156849953D01*
X64113184Y-156852007D01*
X64111623Y-156853986D01*
X64109970Y-156855887D01*
X64108228Y-156857707D01*
X64106402Y-156859442D01*
X64104494Y-156861089D01*
X64102507Y-156862645D01*
X64100446Y-156864106D01*
X64098312Y-156865470D01*
X64096110Y-156866732D01*
X64093843Y-156867889D01*
X64091513Y-156868939D01*
X64089125Y-156869878D01*
X64086682Y-156870702D01*
X64084187Y-156871408D01*
X64081643Y-156871994D01*
X64079054Y-156872455D01*
X64076422Y-156872788D01*
X64073752Y-156872991D01*
X64071046Y-156873059D01*
X63986380Y-156873059D01*
X63983674Y-156872991D01*
X63981004Y-156872788D01*
X63978372Y-156872455D01*
X63975783Y-156871993D01*
X63973239Y-156871408D01*
X63970744Y-156870701D01*
X63968301Y-156869877D01*
X63965913Y-156868938D01*
X63963583Y-156867889D01*
X63961316Y-156866731D01*
X63959114Y-156865469D01*
X63956980Y-156864105D01*
X63954919Y-156862644D01*
X63952932Y-156861088D01*
X63951024Y-156859441D01*
X63949198Y-156857706D01*
X63947456Y-156855886D01*
X63945804Y-156853984D01*
X63944242Y-156852005D01*
X63942776Y-156849951D01*
X63941408Y-156847825D01*
X63940142Y-156845632D01*
X63938981Y-156843373D01*
X63937927Y-156841053D01*
X63936986Y-156838674D01*
X63936159Y-156836241D01*
X63935450Y-156833756D01*
X63934863Y-156831223D01*
X63934400Y-156828644D01*
X63934066Y-156826024D01*
X63933863Y-156823366D01*
X63933794Y-156820672D01*
X63933794Y-155826244D01*
X63934028Y-155815190D01*
X63934718Y-155804583D01*
X63935850Y-155794418D01*
X63937406Y-155784687D01*
X63939373Y-155775385D01*
X63941733Y-155766505D01*
X63944471Y-155758041D01*
X63947571Y-155749987D01*
X63951019Y-155742335D01*
X63954797Y-155735081D01*
X63958890Y-155728217D01*
X63963283Y-155721737D01*
X63967960Y-155715635D01*
X63972905Y-155709904D01*
X63978102Y-155704539D01*
X63983536Y-155699533D01*
X63989191Y-155694879D01*
X63995051Y-155690571D01*
X64001100Y-155686603D01*
X64007323Y-155682968D01*
X64013705Y-155679661D01*
X64020228Y-155676675D01*
X64026878Y-155674003D01*
X64033639Y-155671639D01*
X64047431Y-155667810D01*
X64061477Y-155665138D01*
X64075653Y-155663572D01*
X64089832Y-155663062D01*
X64089830Y-155663060D01*
X64098234Y-155663237D01*
G37*
G36*
X62983616Y-157446011D02*
G01*
X63166507Y-157146176D01*
X63209237Y-157146176D01*
X63002798Y-157480872D01*
X63002798Y-157644714D01*
X62964367Y-157644714D01*
X62964367Y-157480872D01*
X62757927Y-157146176D01*
X62800657Y-157146176D01*
X62983616Y-157446011D01*
G37*
G36*
X66456552Y-151035889D02*
G01*
X66458300Y-151035976D01*
X66460037Y-151036120D01*
X66461762Y-151036321D01*
X66463474Y-151036577D01*
X66465172Y-151036889D01*
X66466855Y-151037255D01*
X66468521Y-151037675D01*
X66470169Y-151038148D01*
X66471798Y-151038673D01*
X66473407Y-151039250D01*
X66474994Y-151039878D01*
X66476559Y-151040557D01*
X66478100Y-151041285D01*
X66479616Y-151042062D01*
X66481105Y-151042888D01*
X66482567Y-151043761D01*
X66484000Y-151044682D01*
X66485403Y-151045648D01*
X66486775Y-151046660D01*
X66488115Y-151047718D01*
X66489421Y-151048819D01*
X66490693Y-151049964D01*
X66491928Y-151051152D01*
X66493126Y-151052382D01*
X66494286Y-151053654D01*
X66495406Y-151054967D01*
X66496485Y-151056320D01*
X66497522Y-151057712D01*
X66498516Y-151059143D01*
X66499466Y-151060613D01*
X66500369Y-151062120D01*
X66502020Y-151065212D01*
X66503451Y-151068381D01*
X66504662Y-151071614D01*
X66505652Y-151074902D01*
X66506423Y-151078233D01*
X66506973Y-151081597D01*
X66507303Y-151084983D01*
X66507413Y-151088379D01*
X66507303Y-151091775D01*
X66506973Y-151095161D01*
X66506423Y-151098525D01*
X66505652Y-151101856D01*
X66504662Y-151105144D01*
X66503451Y-151108377D01*
X66502020Y-151111546D01*
X66500369Y-151114638D01*
X65472204Y-152891040D01*
X65470351Y-152894014D01*
X65468320Y-152896837D01*
X65466121Y-152899501D01*
X65463763Y-152902003D01*
X65461256Y-152904336D01*
X65458611Y-152906494D01*
X65455835Y-152908474D01*
X65452940Y-152910268D01*
X65449935Y-152911871D01*
X65446829Y-152913279D01*
X65443633Y-152914485D01*
X65440356Y-152915484D01*
X65437007Y-152916270D01*
X65433597Y-152916839D01*
X65430135Y-152917184D01*
X65426630Y-152917300D01*
X65424874Y-152917271D01*
X65423126Y-152917184D01*
X65421389Y-152917040D01*
X65419664Y-152916839D01*
X65417952Y-152916583D01*
X65416254Y-152916271D01*
X65414571Y-152915905D01*
X65412905Y-152915486D01*
X65411257Y-152915013D01*
X65409628Y-152914488D01*
X65408019Y-152913911D01*
X65406432Y-152913283D01*
X65404867Y-152912604D01*
X65403326Y-152911876D01*
X65401810Y-152911099D01*
X65400321Y-152910273D01*
X65398859Y-152909400D01*
X65397426Y-152908480D01*
X65396022Y-152907513D01*
X65394650Y-152906501D01*
X65393311Y-152905444D01*
X65392005Y-152904342D01*
X65390733Y-152903197D01*
X65389498Y-152902009D01*
X65388300Y-152900779D01*
X65387140Y-152899507D01*
X65386020Y-152898194D01*
X65384941Y-152896841D01*
X65383904Y-152895449D01*
X65382910Y-152894017D01*
X65381960Y-152892547D01*
X65381057Y-152891040D01*
X64352826Y-151114638D01*
X64351175Y-151111546D01*
X64349744Y-151108377D01*
X64348533Y-151105144D01*
X64347542Y-151101856D01*
X64346772Y-151098525D01*
X64346222Y-151095161D01*
X64345891Y-151091775D01*
X64345781Y-151088379D01*
X64345891Y-151084983D01*
X64346222Y-151081597D01*
X64346772Y-151078233D01*
X64347542Y-151074902D01*
X64348533Y-151071614D01*
X64349744Y-151068381D01*
X64351175Y-151065212D01*
X64352826Y-151062120D01*
X64354679Y-151059155D01*
X64356710Y-151056341D01*
X64358910Y-151053684D01*
X64361268Y-151051190D01*
X64363774Y-151048863D01*
X64366420Y-151046710D01*
X64369196Y-151044736D01*
X64372091Y-151042946D01*
X64375096Y-151041346D01*
X64378202Y-151039941D01*
X64381398Y-151038737D01*
X64384675Y-151037740D01*
X64388023Y-151036955D01*
X64391434Y-151036387D01*
X64394896Y-151036042D01*
X64398400Y-151035926D01*
X66454795Y-151035860D01*
X66456552Y-151035889D01*
G37*
D10*
X59792000Y-161798000D02*
X78150000Y-161798000D01*
X78150000Y-163890000D01*
X59792000Y-163890000D01*
X59792000Y-161798000D01*
D12*
X132148902Y-153207833D02*
X132548902Y-153207833D01*
X132348902Y-153907833D02*
X132348902Y-153207833D01*
X132782235Y-153907833D02*
X132782235Y-153207833D01*
X132782235Y-153207833D02*
X132948902Y-153207833D01*
X132948902Y-153207833D02*
X133048902Y-153241166D01*
X133048902Y-153241166D02*
X133115569Y-153307833D01*
X133115569Y-153307833D02*
X133148902Y-153374500D01*
X133148902Y-153374500D02*
X133182235Y-153507833D01*
X133182235Y-153507833D02*
X133182235Y-153607833D01*
X133182235Y-153607833D02*
X133148902Y-153741166D01*
X133148902Y-153741166D02*
X133115569Y-153807833D01*
X133115569Y-153807833D02*
X133048902Y-153874500D01*
X133048902Y-153874500D02*
X132948902Y-153907833D01*
X132948902Y-153907833D02*
X132782235Y-153907833D01*
X133615569Y-153207833D02*
X133748902Y-153207833D01*
X133748902Y-153207833D02*
X133815569Y-153241166D01*
X133815569Y-153241166D02*
X133882235Y-153307833D01*
X133882235Y-153307833D02*
X133915569Y-153441166D01*
X133915569Y-153441166D02*
X133915569Y-153674500D01*
X133915569Y-153674500D02*
X133882235Y-153807833D01*
X133882235Y-153807833D02*
X133815569Y-153874500D01*
X133815569Y-153874500D02*
X133748902Y-153907833D01*
X133748902Y-153907833D02*
X133615569Y-153907833D01*
X133615569Y-153907833D02*
X133548902Y-153874500D01*
X133548902Y-153874500D02*
X133482235Y-153807833D01*
X133482235Y-153807833D02*
X133448902Y-153674500D01*
X133448902Y-153674500D02*
X133448902Y-153441166D01*
X133448902Y-153441166D02*
X133482235Y-153307833D01*
X133482235Y-153307833D02*
X133548902Y-153241166D01*
X133548902Y-153241166D02*
X133615569Y-153207833D01*
X140148902Y-153207833D02*
X140548902Y-153207833D01*
X140348902Y-153907833D02*
X140348902Y-153207833D01*
X140782235Y-153907833D02*
X140782235Y-153207833D01*
X140782235Y-153207833D02*
X140948902Y-153207833D01*
X140948902Y-153207833D02*
X141048902Y-153241166D01*
X141048902Y-153241166D02*
X141115569Y-153307833D01*
X141115569Y-153307833D02*
X141148902Y-153374500D01*
X141148902Y-153374500D02*
X141182235Y-153507833D01*
X141182235Y-153507833D02*
X141182235Y-153607833D01*
X141182235Y-153607833D02*
X141148902Y-153741166D01*
X141148902Y-153741166D02*
X141115569Y-153807833D01*
X141115569Y-153807833D02*
X141048902Y-153874500D01*
X141048902Y-153874500D02*
X140948902Y-153907833D01*
X140948902Y-153907833D02*
X140782235Y-153907833D01*
X141482235Y-153907833D02*
X141482235Y-153207833D01*
D10*
X75866146Y-159344657D02*
X75351860Y-159344657D01*
X75609003Y-159344657D02*
X75721503Y-158444657D01*
X75721503Y-158444657D02*
X75619717Y-158573228D01*
X75619717Y-158573228D02*
X75523289Y-158658942D01*
X75523289Y-158658942D02*
X75432217Y-158701800D01*
X76262574Y-159258942D02*
X76300074Y-159301800D01*
X76300074Y-159301800D02*
X76251860Y-159344657D01*
X76251860Y-159344657D02*
X76214360Y-159301800D01*
X76214360Y-159301800D02*
X76262574Y-159258942D01*
X76262574Y-159258942D02*
X76251860Y-159344657D01*
X76964360Y-158444657D02*
X77050074Y-158444657D01*
X77050074Y-158444657D02*
X77130431Y-158487514D01*
X77130431Y-158487514D02*
X77167931Y-158530371D01*
X77167931Y-158530371D02*
X77200074Y-158616085D01*
X77200074Y-158616085D02*
X77221503Y-158787514D01*
X77221503Y-158787514D02*
X77194717Y-159001800D01*
X77194717Y-159001800D02*
X77130431Y-159173228D01*
X77130431Y-159173228D02*
X77076860Y-159258942D01*
X77076860Y-159258942D02*
X77028645Y-159301800D01*
X77028645Y-159301800D02*
X76937574Y-159344657D01*
X76937574Y-159344657D02*
X76851860Y-159344657D01*
X76851860Y-159344657D02*
X76771503Y-159301800D01*
X76771503Y-159301800D02*
X76734003Y-159258942D01*
X76734003Y-159258942D02*
X76701860Y-159173228D01*
X76701860Y-159173228D02*
X76680431Y-159001800D01*
X76680431Y-159001800D02*
X76707217Y-158787514D01*
X76707217Y-158787514D02*
X76771503Y-158616085D01*
X76771503Y-158616085D02*
X76825074Y-158530371D01*
X76825074Y-158530371D02*
X76873288Y-158487514D01*
X76873288Y-158487514D02*
X76964360Y-158444657D01*
D13*
X69323922Y-151099987D02*
X69657255Y-152099987D01*
X69657255Y-152099987D02*
X69990588Y-151099987D01*
X70847731Y-151147606D02*
X70752493Y-151099987D01*
X70752493Y-151099987D02*
X70609636Y-151099987D01*
X70609636Y-151099987D02*
X70466779Y-151147606D01*
X70466779Y-151147606D02*
X70371541Y-151242844D01*
X70371541Y-151242844D02*
X70323922Y-151338082D01*
X70323922Y-151338082D02*
X70276303Y-151528558D01*
X70276303Y-151528558D02*
X70276303Y-151671415D01*
X70276303Y-151671415D02*
X70323922Y-151861891D01*
X70323922Y-151861891D02*
X70371541Y-151957129D01*
X70371541Y-151957129D02*
X70466779Y-152052368D01*
X70466779Y-152052368D02*
X70609636Y-152099987D01*
X70609636Y-152099987D02*
X70704874Y-152099987D01*
X70704874Y-152099987D02*
X70847731Y-152052368D01*
X70847731Y-152052368D02*
X70895350Y-152004748D01*
X70895350Y-152004748D02*
X70895350Y-151671415D01*
X70895350Y-151671415D02*
X70704874Y-151671415D01*
X71276303Y-151814272D02*
X71752493Y-151814272D01*
X71181065Y-152099987D02*
X71514398Y-151099987D01*
X71514398Y-151099987D02*
X71847731Y-152099987D01*
X69466779Y-153709931D02*
X69466779Y-152709931D01*
X69466779Y-152709931D02*
X69704874Y-152709931D01*
X69704874Y-152709931D02*
X69847731Y-152757550D01*
X69847731Y-152757550D02*
X69942969Y-152852788D01*
X69942969Y-152852788D02*
X69990588Y-152948026D01*
X69990588Y-152948026D02*
X70038207Y-153138502D01*
X70038207Y-153138502D02*
X70038207Y-153281359D01*
X70038207Y-153281359D02*
X69990588Y-153471835D01*
X69990588Y-153471835D02*
X69942969Y-153567073D01*
X69942969Y-153567073D02*
X69847731Y-153662312D01*
X69847731Y-153662312D02*
X69704874Y-153709931D01*
X69704874Y-153709931D02*
X69466779Y-153709931D01*
X70609636Y-153709931D02*
X70514398Y-153662312D01*
X70514398Y-153662312D02*
X70466779Y-153614692D01*
X70466779Y-153614692D02*
X70419160Y-153519454D01*
X70419160Y-153519454D02*
X70419160Y-153233740D01*
X70419160Y-153233740D02*
X70466779Y-153138502D01*
X70466779Y-153138502D02*
X70514398Y-153090883D01*
X70514398Y-153090883D02*
X70609636Y-153043264D01*
X70609636Y-153043264D02*
X70752493Y-153043264D01*
X70752493Y-153043264D02*
X70847731Y-153090883D01*
X70847731Y-153090883D02*
X70895350Y-153138502D01*
X70895350Y-153138502D02*
X70942969Y-153233740D01*
X70942969Y-153233740D02*
X70942969Y-153519454D01*
X70942969Y-153519454D02*
X70895350Y-153614692D01*
X70895350Y-153614692D02*
X70847731Y-153662312D01*
X70847731Y-153662312D02*
X70752493Y-153709931D01*
X70752493Y-153709931D02*
X70609636Y-153709931D01*
X71800112Y-153043264D02*
X71800112Y-153709931D01*
X71371541Y-153043264D02*
X71371541Y-153567073D01*
X71371541Y-153567073D02*
X71419160Y-153662312D01*
X71419160Y-153662312D02*
X71514398Y-153709931D01*
X71514398Y-153709931D02*
X71657255Y-153709931D01*
X71657255Y-153709931D02*
X71752493Y-153662312D01*
X71752493Y-153662312D02*
X71800112Y-153614692D01*
X72276303Y-153709931D02*
X72276303Y-152709931D01*
X72276303Y-153090883D02*
X72371541Y-153043264D01*
X72371541Y-153043264D02*
X72562017Y-153043264D01*
X72562017Y-153043264D02*
X72657255Y-153090883D01*
X72657255Y-153090883D02*
X72704874Y-153138502D01*
X72704874Y-153138502D02*
X72752493Y-153233740D01*
X72752493Y-153233740D02*
X72752493Y-153519454D01*
X72752493Y-153519454D02*
X72704874Y-153614692D01*
X72704874Y-153614692D02*
X72657255Y-153662312D01*
X72657255Y-153662312D02*
X72562017Y-153709931D01*
X72562017Y-153709931D02*
X72371541Y-153709931D01*
X72371541Y-153709931D02*
X72276303Y-153662312D01*
X73323922Y-153709931D02*
X73228684Y-153662312D01*
X73228684Y-153662312D02*
X73181065Y-153567073D01*
X73181065Y-153567073D02*
X73181065Y-152709931D01*
X74085827Y-153662312D02*
X73990589Y-153709931D01*
X73990589Y-153709931D02*
X73800113Y-153709931D01*
X73800113Y-153709931D02*
X73704875Y-153662312D01*
X73704875Y-153662312D02*
X73657256Y-153567073D01*
X73657256Y-153567073D02*
X73657256Y-153186121D01*
X73657256Y-153186121D02*
X73704875Y-153090883D01*
X73704875Y-153090883D02*
X73800113Y-153043264D01*
X73800113Y-153043264D02*
X73990589Y-153043264D01*
X73990589Y-153043264D02*
X74085827Y-153090883D01*
X74085827Y-153090883D02*
X74133446Y-153186121D01*
X74133446Y-153186121D02*
X74133446Y-153281359D01*
X74133446Y-153281359D02*
X73657256Y-153376597D01*
X69800112Y-154796065D02*
X69942969Y-154843684D01*
X69942969Y-154843684D02*
X69990588Y-154891303D01*
X69990588Y-154891303D02*
X70038207Y-154986541D01*
X70038207Y-154986541D02*
X70038207Y-155129398D01*
X70038207Y-155129398D02*
X69990588Y-155224636D01*
X69990588Y-155224636D02*
X69942969Y-155272256D01*
X69942969Y-155272256D02*
X69847731Y-155319875D01*
X69847731Y-155319875D02*
X69466779Y-155319875D01*
X69466779Y-155319875D02*
X69466779Y-154319875D01*
X69466779Y-154319875D02*
X69800112Y-154319875D01*
X69800112Y-154319875D02*
X69895350Y-154367494D01*
X69895350Y-154367494D02*
X69942969Y-154415113D01*
X69942969Y-154415113D02*
X69990588Y-154510351D01*
X69990588Y-154510351D02*
X69990588Y-154605589D01*
X69990588Y-154605589D02*
X69942969Y-154700827D01*
X69942969Y-154700827D02*
X69895350Y-154748446D01*
X69895350Y-154748446D02*
X69800112Y-154796065D01*
X69800112Y-154796065D02*
X69466779Y-154796065D01*
X70895350Y-154653208D02*
X70895350Y-155319875D01*
X70466779Y-154653208D02*
X70466779Y-155177017D01*
X70466779Y-155177017D02*
X70514398Y-155272256D01*
X70514398Y-155272256D02*
X70609636Y-155319875D01*
X70609636Y-155319875D02*
X70752493Y-155319875D01*
X70752493Y-155319875D02*
X70847731Y-155272256D01*
X70847731Y-155272256D02*
X70895350Y-155224636D01*
X71228684Y-154653208D02*
X71609636Y-154653208D01*
X71371541Y-155319875D02*
X71371541Y-154462732D01*
X71371541Y-154462732D02*
X71419160Y-154367494D01*
X71419160Y-154367494D02*
X71514398Y-154319875D01*
X71514398Y-154319875D02*
X71609636Y-154319875D01*
X71800113Y-154653208D02*
X72181065Y-154653208D01*
X71942970Y-155319875D02*
X71942970Y-154462732D01*
X71942970Y-154462732D02*
X71990589Y-154367494D01*
X71990589Y-154367494D02*
X72085827Y-154319875D01*
X72085827Y-154319875D02*
X72181065Y-154319875D01*
X72895351Y-155272256D02*
X72800113Y-155319875D01*
X72800113Y-155319875D02*
X72609637Y-155319875D01*
X72609637Y-155319875D02*
X72514399Y-155272256D01*
X72514399Y-155272256D02*
X72466780Y-155177017D01*
X72466780Y-155177017D02*
X72466780Y-154796065D01*
X72466780Y-154796065D02*
X72514399Y-154700827D01*
X72514399Y-154700827D02*
X72609637Y-154653208D01*
X72609637Y-154653208D02*
X72800113Y-154653208D01*
X72800113Y-154653208D02*
X72895351Y-154700827D01*
X72895351Y-154700827D02*
X72942970Y-154796065D01*
X72942970Y-154796065D02*
X72942970Y-154891303D01*
X72942970Y-154891303D02*
X72466780Y-154986541D01*
X73371542Y-155319875D02*
X73371542Y-154653208D01*
X73371542Y-154843684D02*
X73419161Y-154748446D01*
X73419161Y-154748446D02*
X73466780Y-154700827D01*
X73466780Y-154700827D02*
X73562018Y-154653208D01*
X73562018Y-154653208D02*
X73657256Y-154653208D01*
X74371542Y-155272256D02*
X74276304Y-155319875D01*
X74276304Y-155319875D02*
X74085828Y-155319875D01*
X74085828Y-155319875D02*
X73990590Y-155272256D01*
X73990590Y-155272256D02*
X73942971Y-155177017D01*
X73942971Y-155177017D02*
X73942971Y-154796065D01*
X73942971Y-154796065D02*
X73990590Y-154700827D01*
X73990590Y-154700827D02*
X74085828Y-154653208D01*
X74085828Y-154653208D02*
X74276304Y-154653208D01*
X74276304Y-154653208D02*
X74371542Y-154700827D01*
X74371542Y-154700827D02*
X74419161Y-154796065D01*
X74419161Y-154796065D02*
X74419161Y-154891303D01*
X74419161Y-154891303D02*
X73942971Y-154986541D01*
X75276304Y-155319875D02*
X75276304Y-154319875D01*
X75276304Y-155272256D02*
X75181066Y-155319875D01*
X75181066Y-155319875D02*
X74990590Y-155319875D01*
X74990590Y-155319875D02*
X74895352Y-155272256D01*
X74895352Y-155272256D02*
X74847733Y-155224636D01*
X74847733Y-155224636D02*
X74800114Y-155129398D01*
X74800114Y-155129398D02*
X74800114Y-154843684D01*
X74800114Y-154843684D02*
X74847733Y-154748446D01*
X74847733Y-154748446D02*
X74895352Y-154700827D01*
X74895352Y-154700827D02*
X74990590Y-154653208D01*
X74990590Y-154653208D02*
X75181066Y-154653208D01*
X75181066Y-154653208D02*
X75276304Y-154700827D01*
X69323922Y-155929819D02*
X69657255Y-156929819D01*
X69657255Y-156929819D02*
X69990588Y-155929819D01*
X70323922Y-156929819D02*
X70323922Y-156263152D01*
X70323922Y-155929819D02*
X70276303Y-155977438D01*
X70276303Y-155977438D02*
X70323922Y-156025057D01*
X70323922Y-156025057D02*
X70371541Y-155977438D01*
X70371541Y-155977438D02*
X70323922Y-155929819D01*
X70323922Y-155929819D02*
X70323922Y-156025057D01*
X71228683Y-156929819D02*
X71228683Y-155929819D01*
X71228683Y-156882200D02*
X71133445Y-156929819D01*
X71133445Y-156929819D02*
X70942969Y-156929819D01*
X70942969Y-156929819D02*
X70847731Y-156882200D01*
X70847731Y-156882200D02*
X70800112Y-156834580D01*
X70800112Y-156834580D02*
X70752493Y-156739342D01*
X70752493Y-156739342D02*
X70752493Y-156453628D01*
X70752493Y-156453628D02*
X70800112Y-156358390D01*
X70800112Y-156358390D02*
X70847731Y-156310771D01*
X70847731Y-156310771D02*
X70942969Y-156263152D01*
X70942969Y-156263152D02*
X71133445Y-156263152D01*
X71133445Y-156263152D02*
X71228683Y-156310771D01*
X72085826Y-156882200D02*
X71990588Y-156929819D01*
X71990588Y-156929819D02*
X71800112Y-156929819D01*
X71800112Y-156929819D02*
X71704874Y-156882200D01*
X71704874Y-156882200D02*
X71657255Y-156786961D01*
X71657255Y-156786961D02*
X71657255Y-156406009D01*
X71657255Y-156406009D02*
X71704874Y-156310771D01*
X71704874Y-156310771D02*
X71800112Y-156263152D01*
X71800112Y-156263152D02*
X71990588Y-156263152D01*
X71990588Y-156263152D02*
X72085826Y-156310771D01*
X72085826Y-156310771D02*
X72133445Y-156406009D01*
X72133445Y-156406009D02*
X72133445Y-156501247D01*
X72133445Y-156501247D02*
X71657255Y-156596485D01*
X72704874Y-156929819D02*
X72609636Y-156882200D01*
X72609636Y-156882200D02*
X72562017Y-156834580D01*
X72562017Y-156834580D02*
X72514398Y-156739342D01*
X72514398Y-156739342D02*
X72514398Y-156453628D01*
X72514398Y-156453628D02*
X72562017Y-156358390D01*
X72562017Y-156358390D02*
X72609636Y-156310771D01*
X72609636Y-156310771D02*
X72704874Y-156263152D01*
X72704874Y-156263152D02*
X72847731Y-156263152D01*
X72847731Y-156263152D02*
X72942969Y-156310771D01*
X72942969Y-156310771D02*
X72990588Y-156358390D01*
X72990588Y-156358390D02*
X73038207Y-156453628D01*
X73038207Y-156453628D02*
X73038207Y-156739342D01*
X73038207Y-156739342D02*
X72990588Y-156834580D01*
X72990588Y-156834580D02*
X72942969Y-156882200D01*
X72942969Y-156882200D02*
X72847731Y-156929819D01*
X72847731Y-156929819D02*
X72704874Y-156929819D01*
X74800112Y-156834580D02*
X74752493Y-156882200D01*
X74752493Y-156882200D02*
X74609636Y-156929819D01*
X74609636Y-156929819D02*
X74514398Y-156929819D01*
X74514398Y-156929819D02*
X74371541Y-156882200D01*
X74371541Y-156882200D02*
X74276303Y-156786961D01*
X74276303Y-156786961D02*
X74228684Y-156691723D01*
X74228684Y-156691723D02*
X74181065Y-156501247D01*
X74181065Y-156501247D02*
X74181065Y-156358390D01*
X74181065Y-156358390D02*
X74228684Y-156167914D01*
X74228684Y-156167914D02*
X74276303Y-156072676D01*
X74276303Y-156072676D02*
X74371541Y-155977438D01*
X74371541Y-155977438D02*
X74514398Y-155929819D01*
X74514398Y-155929819D02*
X74609636Y-155929819D01*
X74609636Y-155929819D02*
X74752493Y-155977438D01*
X74752493Y-155977438D02*
X74800112Y-156025057D01*
X75657255Y-156929819D02*
X75657255Y-156406009D01*
X75657255Y-156406009D02*
X75609636Y-156310771D01*
X75609636Y-156310771D02*
X75514398Y-156263152D01*
X75514398Y-156263152D02*
X75323922Y-156263152D01*
X75323922Y-156263152D02*
X75228684Y-156310771D01*
X75657255Y-156882200D02*
X75562017Y-156929819D01*
X75562017Y-156929819D02*
X75323922Y-156929819D01*
X75323922Y-156929819D02*
X75228684Y-156882200D01*
X75228684Y-156882200D02*
X75181065Y-156786961D01*
X75181065Y-156786961D02*
X75181065Y-156691723D01*
X75181065Y-156691723D02*
X75228684Y-156596485D01*
X75228684Y-156596485D02*
X75323922Y-156548866D01*
X75323922Y-156548866D02*
X75562017Y-156548866D01*
X75562017Y-156548866D02*
X75657255Y-156501247D01*
X76133446Y-156929819D02*
X76133446Y-156263152D01*
X76133446Y-156453628D02*
X76181065Y-156358390D01*
X76181065Y-156358390D02*
X76228684Y-156310771D01*
X76228684Y-156310771D02*
X76323922Y-156263152D01*
X76323922Y-156263152D02*
X76419160Y-156263152D01*
X77181065Y-156929819D02*
X77181065Y-155929819D01*
X77181065Y-156882200D02*
X77085827Y-156929819D01*
X77085827Y-156929819D02*
X76895351Y-156929819D01*
X76895351Y-156929819D02*
X76800113Y-156882200D01*
X76800113Y-156882200D02*
X76752494Y-156834580D01*
X76752494Y-156834580D02*
X76704875Y-156739342D01*
X76704875Y-156739342D02*
X76704875Y-156453628D01*
X76704875Y-156453628D02*
X76752494Y-156358390D01*
X76752494Y-156358390D02*
X76800113Y-156310771D01*
X76800113Y-156310771D02*
X76895351Y-156263152D01*
X76895351Y-156263152D02*
X77085827Y-156263152D01*
X77085827Y-156263152D02*
X77181065Y-156310771D01*
D12*
X130015569Y-145641166D02*
X129948902Y-145607833D01*
X129948902Y-145607833D02*
X129848902Y-145607833D01*
X129848902Y-145607833D02*
X129748902Y-145641166D01*
X129748902Y-145641166D02*
X129682236Y-145707833D01*
X129682236Y-145707833D02*
X129648902Y-145774500D01*
X129648902Y-145774500D02*
X129615569Y-145907833D01*
X129615569Y-145907833D02*
X129615569Y-146007833D01*
X129615569Y-146007833D02*
X129648902Y-146141166D01*
X129648902Y-146141166D02*
X129682236Y-146207833D01*
X129682236Y-146207833D02*
X129748902Y-146274500D01*
X129748902Y-146274500D02*
X129848902Y-146307833D01*
X129848902Y-146307833D02*
X129915569Y-146307833D01*
X129915569Y-146307833D02*
X130015569Y-146274500D01*
X130015569Y-146274500D02*
X130048902Y-146241166D01*
X130048902Y-146241166D02*
X130048902Y-146007833D01*
X130048902Y-146007833D02*
X129915569Y-146007833D01*
X130348902Y-146307833D02*
X130348902Y-145607833D01*
X130348902Y-145607833D02*
X130748902Y-146307833D01*
X130748902Y-146307833D02*
X130748902Y-145607833D01*
X131082235Y-146307833D02*
X131082235Y-145607833D01*
X131082235Y-145607833D02*
X131248902Y-145607833D01*
X131248902Y-145607833D02*
X131348902Y-145641166D01*
X131348902Y-145641166D02*
X131415569Y-145707833D01*
X131415569Y-145707833D02*
X131448902Y-145774500D01*
X131448902Y-145774500D02*
X131482235Y-145907833D01*
X131482235Y-145907833D02*
X131482235Y-146007833D01*
X131482235Y-146007833D02*
X131448902Y-146141166D01*
X131448902Y-146141166D02*
X131415569Y-146207833D01*
X131415569Y-146207833D02*
X131348902Y-146274500D01*
X131348902Y-146274500D02*
X131248902Y-146307833D01*
X131248902Y-146307833D02*
X131082235Y-146307833D01*
D10*
X60591503Y-162377514D02*
X60505789Y-162334657D01*
X60505789Y-162334657D02*
X60377217Y-162334657D01*
X60377217Y-162334657D02*
X60248646Y-162377514D01*
X60248646Y-162377514D02*
X60162931Y-162463228D01*
X60162931Y-162463228D02*
X60120074Y-162548942D01*
X60120074Y-162548942D02*
X60077217Y-162720371D01*
X60077217Y-162720371D02*
X60077217Y-162848942D01*
X60077217Y-162848942D02*
X60120074Y-163020371D01*
X60120074Y-163020371D02*
X60162931Y-163106085D01*
X60162931Y-163106085D02*
X60248646Y-163191800D01*
X60248646Y-163191800D02*
X60377217Y-163234657D01*
X60377217Y-163234657D02*
X60462931Y-163234657D01*
X60462931Y-163234657D02*
X60591503Y-163191800D01*
X60591503Y-163191800D02*
X60634360Y-163148942D01*
X60634360Y-163148942D02*
X60634360Y-162848942D01*
X60634360Y-162848942D02*
X60462931Y-162848942D01*
X61020074Y-163234657D02*
X61020074Y-162634657D01*
X61020074Y-162806085D02*
X61062931Y-162720371D01*
X61062931Y-162720371D02*
X61105789Y-162677514D01*
X61105789Y-162677514D02*
X61191503Y-162634657D01*
X61191503Y-162634657D02*
X61277217Y-162634657D01*
X61920074Y-163191800D02*
X61834360Y-163234657D01*
X61834360Y-163234657D02*
X61662932Y-163234657D01*
X61662932Y-163234657D02*
X61577217Y-163191800D01*
X61577217Y-163191800D02*
X61534360Y-163106085D01*
X61534360Y-163106085D02*
X61534360Y-162763228D01*
X61534360Y-162763228D02*
X61577217Y-162677514D01*
X61577217Y-162677514D02*
X61662932Y-162634657D01*
X61662932Y-162634657D02*
X61834360Y-162634657D01*
X61834360Y-162634657D02*
X61920074Y-162677514D01*
X61920074Y-162677514D02*
X61962932Y-162763228D01*
X61962932Y-162763228D02*
X61962932Y-162848942D01*
X61962932Y-162848942D02*
X61534360Y-162934657D01*
X62691503Y-163191800D02*
X62605789Y-163234657D01*
X62605789Y-163234657D02*
X62434361Y-163234657D01*
X62434361Y-163234657D02*
X62348646Y-163191800D01*
X62348646Y-163191800D02*
X62305789Y-163106085D01*
X62305789Y-163106085D02*
X62305789Y-162763228D01*
X62305789Y-162763228D02*
X62348646Y-162677514D01*
X62348646Y-162677514D02*
X62434361Y-162634657D01*
X62434361Y-162634657D02*
X62605789Y-162634657D01*
X62605789Y-162634657D02*
X62691503Y-162677514D01*
X62691503Y-162677514D02*
X62734361Y-162763228D01*
X62734361Y-162763228D02*
X62734361Y-162848942D01*
X62734361Y-162848942D02*
X62305789Y-162934657D01*
X63120075Y-162634657D02*
X63120075Y-163234657D01*
X63120075Y-162720371D02*
X63162932Y-162677514D01*
X63162932Y-162677514D02*
X63248647Y-162634657D01*
X63248647Y-162634657D02*
X63377218Y-162634657D01*
X63377218Y-162634657D02*
X63462932Y-162677514D01*
X63462932Y-162677514D02*
X63505790Y-162763228D01*
X63505790Y-162763228D02*
X63505790Y-163234657D01*
X60420074Y-165163228D02*
X60548646Y-165206085D01*
X60548646Y-165206085D02*
X60591503Y-165248942D01*
X60591503Y-165248942D02*
X60634360Y-165334657D01*
X60634360Y-165334657D02*
X60634360Y-165463228D01*
X60634360Y-165463228D02*
X60591503Y-165548942D01*
X60591503Y-165548942D02*
X60548646Y-165591800D01*
X60548646Y-165591800D02*
X60462931Y-165634657D01*
X60462931Y-165634657D02*
X60120074Y-165634657D01*
X60120074Y-165634657D02*
X60120074Y-164734657D01*
X60120074Y-164734657D02*
X60420074Y-164734657D01*
X60420074Y-164734657D02*
X60505789Y-164777514D01*
X60505789Y-164777514D02*
X60548646Y-164820371D01*
X60548646Y-164820371D02*
X60591503Y-164906085D01*
X60591503Y-164906085D02*
X60591503Y-164991800D01*
X60591503Y-164991800D02*
X60548646Y-165077514D01*
X60548646Y-165077514D02*
X60505789Y-165120371D01*
X60505789Y-165120371D02*
X60420074Y-165163228D01*
X60420074Y-165163228D02*
X60120074Y-165163228D01*
X61148646Y-165634657D02*
X61062931Y-165591800D01*
X61062931Y-165591800D02*
X61020074Y-165506085D01*
X61020074Y-165506085D02*
X61020074Y-164734657D01*
X61877218Y-165034657D02*
X61877218Y-165634657D01*
X61491503Y-165034657D02*
X61491503Y-165506085D01*
X61491503Y-165506085D02*
X61534360Y-165591800D01*
X61534360Y-165591800D02*
X61620075Y-165634657D01*
X61620075Y-165634657D02*
X61748646Y-165634657D01*
X61748646Y-165634657D02*
X61834360Y-165591800D01*
X61834360Y-165591800D02*
X61877218Y-165548942D01*
X62648646Y-165591800D02*
X62562932Y-165634657D01*
X62562932Y-165634657D02*
X62391504Y-165634657D01*
X62391504Y-165634657D02*
X62305789Y-165591800D01*
X62305789Y-165591800D02*
X62262932Y-165506085D01*
X62262932Y-165506085D02*
X62262932Y-165163228D01*
X62262932Y-165163228D02*
X62305789Y-165077514D01*
X62305789Y-165077514D02*
X62391504Y-165034657D01*
X62391504Y-165034657D02*
X62562932Y-165034657D01*
X62562932Y-165034657D02*
X62648646Y-165077514D01*
X62648646Y-165077514D02*
X62691504Y-165163228D01*
X62691504Y-165163228D02*
X62691504Y-165248942D01*
X62691504Y-165248942D02*
X62262932Y-165334657D01*
D12*
X134748902Y-153207833D02*
X135148902Y-153207833D01*
X134948902Y-153907833D02*
X134948902Y-153207833D01*
X135382235Y-153907833D02*
X135382235Y-153207833D01*
X135382235Y-153207833D02*
X135615569Y-153707833D01*
X135615569Y-153707833D02*
X135848902Y-153207833D01*
X135848902Y-153207833D02*
X135848902Y-153907833D01*
X136148902Y-153874500D02*
X136248902Y-153907833D01*
X136248902Y-153907833D02*
X136415569Y-153907833D01*
X136415569Y-153907833D02*
X136482235Y-153874500D01*
X136482235Y-153874500D02*
X136515569Y-153841166D01*
X136515569Y-153841166D02*
X136548902Y-153774500D01*
X136548902Y-153774500D02*
X136548902Y-153707833D01*
X136548902Y-153707833D02*
X136515569Y-153641166D01*
X136515569Y-153641166D02*
X136482235Y-153607833D01*
X136482235Y-153607833D02*
X136415569Y-153574500D01*
X136415569Y-153574500D02*
X136282235Y-153541166D01*
X136282235Y-153541166D02*
X136215569Y-153507833D01*
X136215569Y-153507833D02*
X136182235Y-153474500D01*
X136182235Y-153474500D02*
X136148902Y-153407833D01*
X136148902Y-153407833D02*
X136148902Y-153341166D01*
X136148902Y-153341166D02*
X136182235Y-153274500D01*
X136182235Y-153274500D02*
X136215569Y-153241166D01*
X136215569Y-153241166D02*
X136282235Y-153207833D01*
X136282235Y-153207833D02*
X136448902Y-153207833D01*
X136448902Y-153207833D02*
X136548902Y-153241166D01*
D10*
X60634360Y-161334657D02*
X60334360Y-160906085D01*
X60120074Y-161334657D02*
X60120074Y-160434657D01*
X60120074Y-160434657D02*
X60462931Y-160434657D01*
X60462931Y-160434657D02*
X60548646Y-160477514D01*
X60548646Y-160477514D02*
X60591503Y-160520371D01*
X60591503Y-160520371D02*
X60634360Y-160606085D01*
X60634360Y-160606085D02*
X60634360Y-160734657D01*
X60634360Y-160734657D02*
X60591503Y-160820371D01*
X60591503Y-160820371D02*
X60548646Y-160863228D01*
X60548646Y-160863228D02*
X60462931Y-160906085D01*
X60462931Y-160906085D02*
X60120074Y-160906085D01*
X61362931Y-161291800D02*
X61277217Y-161334657D01*
X61277217Y-161334657D02*
X61105789Y-161334657D01*
X61105789Y-161334657D02*
X61020074Y-161291800D01*
X61020074Y-161291800D02*
X60977217Y-161206085D01*
X60977217Y-161206085D02*
X60977217Y-160863228D01*
X60977217Y-160863228D02*
X61020074Y-160777514D01*
X61020074Y-160777514D02*
X61105789Y-160734657D01*
X61105789Y-160734657D02*
X61277217Y-160734657D01*
X61277217Y-160734657D02*
X61362931Y-160777514D01*
X61362931Y-160777514D02*
X61405789Y-160863228D01*
X61405789Y-160863228D02*
X61405789Y-160948942D01*
X61405789Y-160948942D02*
X60977217Y-161034657D01*
X62177218Y-161334657D02*
X62177218Y-160434657D01*
X62177218Y-161291800D02*
X62091503Y-161334657D01*
X62091503Y-161334657D02*
X61920075Y-161334657D01*
X61920075Y-161334657D02*
X61834360Y-161291800D01*
X61834360Y-161291800D02*
X61791503Y-161248942D01*
X61791503Y-161248942D02*
X61748646Y-161163228D01*
X61748646Y-161163228D02*
X61748646Y-160906085D01*
X61748646Y-160906085D02*
X61791503Y-160820371D01*
X61791503Y-160820371D02*
X61834360Y-160777514D01*
X61834360Y-160777514D02*
X61920075Y-160734657D01*
X61920075Y-160734657D02*
X62091503Y-160734657D01*
X62091503Y-160734657D02*
X62177218Y-160777514D01*
D12*
X129748902Y-153207833D02*
X130148902Y-153207833D01*
X129948902Y-153907833D02*
X129948902Y-153207833D01*
X130782235Y-153841166D02*
X130748902Y-153874500D01*
X130748902Y-153874500D02*
X130648902Y-153907833D01*
X130648902Y-153907833D02*
X130582235Y-153907833D01*
X130582235Y-153907833D02*
X130482235Y-153874500D01*
X130482235Y-153874500D02*
X130415569Y-153807833D01*
X130415569Y-153807833D02*
X130382235Y-153741166D01*
X130382235Y-153741166D02*
X130348902Y-153607833D01*
X130348902Y-153607833D02*
X130348902Y-153507833D01*
X130348902Y-153507833D02*
X130382235Y-153374500D01*
X130382235Y-153374500D02*
X130415569Y-153307833D01*
X130415569Y-153307833D02*
X130482235Y-153241166D01*
X130482235Y-153241166D02*
X130582235Y-153207833D01*
X130582235Y-153207833D02*
X130648902Y-153207833D01*
X130648902Y-153207833D02*
X130748902Y-153241166D01*
X130748902Y-153241166D02*
X130782235Y-153274500D01*
X131082235Y-153907833D02*
X131082235Y-153207833D01*
X131482235Y-153907833D02*
X131182235Y-153507833D01*
X131482235Y-153207833D02*
X131082235Y-153607833D01*
X132248902Y-146307833D02*
X132248902Y-145607833D01*
X132248902Y-145607833D02*
X132515569Y-145607833D01*
X132515569Y-145607833D02*
X132582236Y-145641166D01*
X132582236Y-145641166D02*
X132615569Y-145674500D01*
X132615569Y-145674500D02*
X132648902Y-145741166D01*
X132648902Y-145741166D02*
X132648902Y-145841166D01*
X132648902Y-145841166D02*
X132615569Y-145907833D01*
X132615569Y-145907833D02*
X132582236Y-145941166D01*
X132582236Y-145941166D02*
X132515569Y-145974500D01*
X132515569Y-145974500D02*
X132248902Y-145974500D01*
X132882236Y-145607833D02*
X133048902Y-146307833D01*
X133048902Y-146307833D02*
X133182236Y-145807833D01*
X133182236Y-145807833D02*
X133315569Y-146307833D01*
X133315569Y-146307833D02*
X133482236Y-145607833D01*
X134148902Y-146307833D02*
X133915569Y-145974500D01*
X133748902Y-146307833D02*
X133748902Y-145607833D01*
X133748902Y-145607833D02*
X134015569Y-145607833D01*
X134015569Y-145607833D02*
X134082236Y-145641166D01*
X134082236Y-145641166D02*
X134115569Y-145674500D01*
X134115569Y-145674500D02*
X134148902Y-145741166D01*
X134148902Y-145741166D02*
X134148902Y-145841166D01*
X134148902Y-145841166D02*
X134115569Y-145907833D01*
X134115569Y-145907833D02*
X134082236Y-145941166D01*
X134082236Y-145941166D02*
X134015569Y-145974500D01*
X134015569Y-145974500D02*
X133748902Y-145974500D01*
D13*
X79974819Y-160488094D02*
X80784342Y-160488094D01*
X80784342Y-160488094D02*
X80879580Y-160440475D01*
X80879580Y-160440475D02*
X80927200Y-160392856D01*
X80927200Y-160392856D02*
X80974819Y-160297618D01*
X80974819Y-160297618D02*
X80974819Y-160107142D01*
X80974819Y-160107142D02*
X80927200Y-160011904D01*
X80927200Y-160011904D02*
X80879580Y-159964285D01*
X80879580Y-159964285D02*
X80784342Y-159916666D01*
X80784342Y-159916666D02*
X79974819Y-159916666D01*
X80974819Y-158916666D02*
X80974819Y-159488094D01*
X80974819Y-159202380D02*
X79974819Y-159202380D01*
X79974819Y-159202380D02*
X80117676Y-159297618D01*
X80117676Y-159297618D02*
X80212914Y-159392856D01*
X80212914Y-159392856D02*
X80260533Y-159488094D01*
X79974819Y-158583332D02*
X79974819Y-157964285D01*
X79974819Y-157964285D02*
X80355771Y-158297618D01*
X80355771Y-158297618D02*
X80355771Y-158154761D01*
X80355771Y-158154761D02*
X80403390Y-158059523D01*
X80403390Y-158059523D02*
X80451009Y-158011904D01*
X80451009Y-158011904D02*
X80546247Y-157964285D01*
X80546247Y-157964285D02*
X80784342Y-157964285D01*
X80784342Y-157964285D02*
X80879580Y-158011904D01*
X80879580Y-158011904D02*
X80927200Y-158059523D01*
X80927200Y-158059523D02*
X80974819Y-158154761D01*
X80974819Y-158154761D02*
X80974819Y-158440475D01*
X80974819Y-158440475D02*
X80927200Y-158535713D01*
X80927200Y-158535713D02*
X80879580Y-158583332D01*
X87361905Y-135114819D02*
X87361905Y-135924342D01*
X87361905Y-135924342D02*
X87409524Y-136019580D01*
X87409524Y-136019580D02*
X87457143Y-136067200D01*
X87457143Y-136067200D02*
X87552381Y-136114819D01*
X87552381Y-136114819D02*
X87742857Y-136114819D01*
X87742857Y-136114819D02*
X87838095Y-136067200D01*
X87838095Y-136067200D02*
X87885714Y-136019580D01*
X87885714Y-136019580D02*
X87933333Y-135924342D01*
X87933333Y-135924342D02*
X87933333Y-135114819D01*
X88933333Y-136114819D02*
X88361905Y-136114819D01*
X88647619Y-136114819D02*
X88647619Y-135114819D01*
X88647619Y-135114819D02*
X88552381Y-135257676D01*
X88552381Y-135257676D02*
X88457143Y-135352914D01*
X88457143Y-135352914D02*
X88361905Y-135400533D01*
X89885714Y-136114819D02*
X89314286Y-136114819D01*
X89600000Y-136114819D02*
X89600000Y-135114819D01*
X89600000Y-135114819D02*
X89504762Y-135257676D01*
X89504762Y-135257676D02*
X89409524Y-135352914D01*
X89409524Y-135352914D02*
X89314286Y-135400533D01*
X54666666Y-134954819D02*
X54666666Y-135669104D01*
X54666666Y-135669104D02*
X54619047Y-135811961D01*
X54619047Y-135811961D02*
X54523809Y-135907200D01*
X54523809Y-135907200D02*
X54380952Y-135954819D01*
X54380952Y-135954819D02*
X54285714Y-135954819D01*
X55285714Y-135383390D02*
X55190476Y-135335771D01*
X55190476Y-135335771D02*
X55142857Y-135288152D01*
X55142857Y-135288152D02*
X55095238Y-135192914D01*
X55095238Y-135192914D02*
X55095238Y-135145295D01*
X55095238Y-135145295D02*
X55142857Y-135050057D01*
X55142857Y-135050057D02*
X55190476Y-135002438D01*
X55190476Y-135002438D02*
X55285714Y-134954819D01*
X55285714Y-134954819D02*
X55476190Y-134954819D01*
X55476190Y-134954819D02*
X55571428Y-135002438D01*
X55571428Y-135002438D02*
X55619047Y-135050057D01*
X55619047Y-135050057D02*
X55666666Y-135145295D01*
X55666666Y-135145295D02*
X55666666Y-135192914D01*
X55666666Y-135192914D02*
X55619047Y-135288152D01*
X55619047Y-135288152D02*
X55571428Y-135335771D01*
X55571428Y-135335771D02*
X55476190Y-135383390D01*
X55476190Y-135383390D02*
X55285714Y-135383390D01*
X55285714Y-135383390D02*
X55190476Y-135431009D01*
X55190476Y-135431009D02*
X55142857Y-135478628D01*
X55142857Y-135478628D02*
X55095238Y-135573866D01*
X55095238Y-135573866D02*
X55095238Y-135764342D01*
X55095238Y-135764342D02*
X55142857Y-135859580D01*
X55142857Y-135859580D02*
X55190476Y-135907200D01*
X55190476Y-135907200D02*
X55285714Y-135954819D01*
X55285714Y-135954819D02*
X55476190Y-135954819D01*
X55476190Y-135954819D02*
X55571428Y-135907200D01*
X55571428Y-135907200D02*
X55619047Y-135859580D01*
X55619047Y-135859580D02*
X55666666Y-135764342D01*
X55666666Y-135764342D02*
X55666666Y-135573866D01*
X55666666Y-135573866D02*
X55619047Y-135478628D01*
X55619047Y-135478628D02*
X55571428Y-135431009D01*
X55571428Y-135431009D02*
X55476190Y-135383390D01*
D12*
X53752714Y-143466428D02*
X53752714Y-143037857D01*
X54009857Y-143552142D02*
X53109857Y-143252142D01*
X53109857Y-143252142D02*
X54009857Y-142952142D01*
X53109857Y-142652142D02*
X53838428Y-142652142D01*
X53838428Y-142652142D02*
X53924142Y-142609285D01*
X53924142Y-142609285D02*
X53967000Y-142566428D01*
X53967000Y-142566428D02*
X54009857Y-142480713D01*
X54009857Y-142480713D02*
X54009857Y-142309285D01*
X54009857Y-142309285D02*
X53967000Y-142223570D01*
X53967000Y-142223570D02*
X53924142Y-142180713D01*
X53924142Y-142180713D02*
X53838428Y-142137856D01*
X53838428Y-142137856D02*
X53109857Y-142137856D01*
X54009857Y-141709285D02*
X53109857Y-141709285D01*
X53109857Y-141709285D02*
X53109857Y-141494999D01*
X53109857Y-141494999D02*
X53152714Y-141366428D01*
X53152714Y-141366428D02*
X53238428Y-141280713D01*
X53238428Y-141280713D02*
X53324142Y-141237856D01*
X53324142Y-141237856D02*
X53495571Y-141194999D01*
X53495571Y-141194999D02*
X53624142Y-141194999D01*
X53624142Y-141194999D02*
X53795571Y-141237856D01*
X53795571Y-141237856D02*
X53881285Y-141280713D01*
X53881285Y-141280713D02*
X53967000Y-141366428D01*
X53967000Y-141366428D02*
X54009857Y-141494999D01*
X54009857Y-141494999D02*
X54009857Y-141709285D01*
X54009857Y-140809285D02*
X53109857Y-140809285D01*
X53109857Y-140209285D02*
X53109857Y-140037857D01*
X53109857Y-140037857D02*
X53152714Y-139952142D01*
X53152714Y-139952142D02*
X53238428Y-139866428D01*
X53238428Y-139866428D02*
X53409857Y-139823571D01*
X53409857Y-139823571D02*
X53709857Y-139823571D01*
X53709857Y-139823571D02*
X53881285Y-139866428D01*
X53881285Y-139866428D02*
X53967000Y-139952142D01*
X53967000Y-139952142D02*
X54009857Y-140037857D01*
X54009857Y-140037857D02*
X54009857Y-140209285D01*
X54009857Y-140209285D02*
X53967000Y-140295000D01*
X53967000Y-140295000D02*
X53881285Y-140380714D01*
X53881285Y-140380714D02*
X53709857Y-140423571D01*
X53709857Y-140423571D02*
X53409857Y-140423571D01*
X53409857Y-140423571D02*
X53238428Y-140380714D01*
X53238428Y-140380714D02*
X53152714Y-140295000D01*
X53152714Y-140295000D02*
X53109857Y-140209285D01*
D13*
X40176666Y-134144819D02*
X40176666Y-134859104D01*
X40176666Y-134859104D02*
X40129047Y-135001961D01*
X40129047Y-135001961D02*
X40033809Y-135097200D01*
X40033809Y-135097200D02*
X39890952Y-135144819D01*
X39890952Y-135144819D02*
X39795714Y-135144819D01*
X41176666Y-135144819D02*
X40605238Y-135144819D01*
X40890952Y-135144819D02*
X40890952Y-134144819D01*
X40890952Y-134144819D02*
X40795714Y-134287676D01*
X40795714Y-134287676D02*
X40700476Y-134382914D01*
X40700476Y-134382914D02*
X40605238Y-134430533D01*
X80074819Y-169258094D02*
X80884342Y-169258094D01*
X80884342Y-169258094D02*
X80979580Y-169210475D01*
X80979580Y-169210475D02*
X81027200Y-169162856D01*
X81027200Y-169162856D02*
X81074819Y-169067618D01*
X81074819Y-169067618D02*
X81074819Y-168877142D01*
X81074819Y-168877142D02*
X81027200Y-168781904D01*
X81027200Y-168781904D02*
X80979580Y-168734285D01*
X80979580Y-168734285D02*
X80884342Y-168686666D01*
X80884342Y-168686666D02*
X80074819Y-168686666D01*
X81074819Y-167686666D02*
X81074819Y-168258094D01*
X81074819Y-167972380D02*
X80074819Y-167972380D01*
X80074819Y-167972380D02*
X80217676Y-168067618D01*
X80217676Y-168067618D02*
X80312914Y-168162856D01*
X80312914Y-168162856D02*
X80360533Y-168258094D01*
X80170057Y-167305713D02*
X80122438Y-167258094D01*
X80122438Y-167258094D02*
X80074819Y-167162856D01*
X80074819Y-167162856D02*
X80074819Y-166924761D01*
X80074819Y-166924761D02*
X80122438Y-166829523D01*
X80122438Y-166829523D02*
X80170057Y-166781904D01*
X80170057Y-166781904D02*
X80265295Y-166734285D01*
X80265295Y-166734285D02*
X80360533Y-166734285D01*
X80360533Y-166734285D02*
X80503390Y-166781904D01*
X80503390Y-166781904D02*
X81074819Y-167353332D01*
X81074819Y-167353332D02*
X81074819Y-166734285D01*
X100638095Y-165704819D02*
X100638095Y-166514342D01*
X100638095Y-166514342D02*
X100685714Y-166609580D01*
X100685714Y-166609580D02*
X100733333Y-166657200D01*
X100733333Y-166657200D02*
X100828571Y-166704819D01*
X100828571Y-166704819D02*
X101019047Y-166704819D01*
X101019047Y-166704819D02*
X101114285Y-166657200D01*
X101114285Y-166657200D02*
X101161904Y-166609580D01*
X101161904Y-166609580D02*
X101209523Y-166514342D01*
X101209523Y-166514342D02*
X101209523Y-165704819D01*
X101590476Y-165704819D02*
X102257142Y-165704819D01*
X102257142Y-165704819D02*
X101828571Y-166704819D01*
D10*
X64798633Y-165086666D02*
X64465300Y-165319999D01*
X64798633Y-165486666D02*
X64098633Y-165486666D01*
X64098633Y-165486666D02*
X64098633Y-165219999D01*
X64098633Y-165219999D02*
X64131966Y-165153333D01*
X64131966Y-165153333D02*
X64165300Y-165119999D01*
X64165300Y-165119999D02*
X64231966Y-165086666D01*
X64231966Y-165086666D02*
X64331966Y-165086666D01*
X64331966Y-165086666D02*
X64398633Y-165119999D01*
X64398633Y-165119999D02*
X64431966Y-165153333D01*
X64431966Y-165153333D02*
X64465300Y-165219999D01*
X64465300Y-165219999D02*
X64465300Y-165486666D01*
X64098633Y-164853333D02*
X64098633Y-164419999D01*
X64098633Y-164419999D02*
X64365300Y-164653333D01*
X64365300Y-164653333D02*
X64365300Y-164553333D01*
X64365300Y-164553333D02*
X64398633Y-164486666D01*
X64398633Y-164486666D02*
X64431966Y-164453333D01*
X64431966Y-164453333D02*
X64498633Y-164419999D01*
X64498633Y-164419999D02*
X64665300Y-164419999D01*
X64665300Y-164419999D02*
X64731966Y-164453333D01*
X64731966Y-164453333D02*
X64765300Y-164486666D01*
X64765300Y-164486666D02*
X64798633Y-164553333D01*
X64798633Y-164553333D02*
X64798633Y-164753333D01*
X64798633Y-164753333D02*
X64765300Y-164819999D01*
X64765300Y-164819999D02*
X64731966Y-164853333D01*
D13*
X125894819Y-177121904D02*
X126704342Y-177121904D01*
X126704342Y-177121904D02*
X126799580Y-177074285D01*
X126799580Y-177074285D02*
X126847200Y-177026666D01*
X126847200Y-177026666D02*
X126894819Y-176931428D01*
X126894819Y-176931428D02*
X126894819Y-176740952D01*
X126894819Y-176740952D02*
X126847200Y-176645714D01*
X126847200Y-176645714D02*
X126799580Y-176598095D01*
X126799580Y-176598095D02*
X126704342Y-176550476D01*
X126704342Y-176550476D02*
X125894819Y-176550476D01*
X126228152Y-175645714D02*
X126894819Y-175645714D01*
X125847200Y-175883809D02*
X126561485Y-176121904D01*
X126561485Y-176121904D02*
X126561485Y-175502857D01*
X100291905Y-150454819D02*
X100291905Y-151264342D01*
X100291905Y-151264342D02*
X100339524Y-151359580D01*
X100339524Y-151359580D02*
X100387143Y-151407200D01*
X100387143Y-151407200D02*
X100482381Y-151454819D01*
X100482381Y-151454819D02*
X100672857Y-151454819D01*
X100672857Y-151454819D02*
X100768095Y-151407200D01*
X100768095Y-151407200D02*
X100815714Y-151359580D01*
X100815714Y-151359580D02*
X100863333Y-151264342D01*
X100863333Y-151264342D02*
X100863333Y-150454819D01*
X101863333Y-151454819D02*
X101291905Y-151454819D01*
X101577619Y-151454819D02*
X101577619Y-150454819D01*
X101577619Y-150454819D02*
X101482381Y-150597676D01*
X101482381Y-150597676D02*
X101387143Y-150692914D01*
X101387143Y-150692914D02*
X101291905Y-150740533D01*
X102720476Y-150788152D02*
X102720476Y-151454819D01*
X102482381Y-150407200D02*
X102244286Y-151121485D01*
X102244286Y-151121485D02*
X102863333Y-151121485D01*
X58936666Y-168724819D02*
X58936666Y-169439104D01*
X58936666Y-169439104D02*
X58889047Y-169581961D01*
X58889047Y-169581961D02*
X58793809Y-169677200D01*
X58793809Y-169677200D02*
X58650952Y-169724819D01*
X58650952Y-169724819D02*
X58555714Y-169724819D01*
X59317619Y-168724819D02*
X59936666Y-168724819D01*
X59936666Y-168724819D02*
X59603333Y-169105771D01*
X59603333Y-169105771D02*
X59746190Y-169105771D01*
X59746190Y-169105771D02*
X59841428Y-169153390D01*
X59841428Y-169153390D02*
X59889047Y-169201009D01*
X59889047Y-169201009D02*
X59936666Y-169296247D01*
X59936666Y-169296247D02*
X59936666Y-169534342D01*
X59936666Y-169534342D02*
X59889047Y-169629580D01*
X59889047Y-169629580D02*
X59841428Y-169677200D01*
X59841428Y-169677200D02*
X59746190Y-169724819D01*
X59746190Y-169724819D02*
X59460476Y-169724819D01*
X59460476Y-169724819D02*
X59365238Y-169677200D01*
X59365238Y-169677200D02*
X59317619Y-169629580D01*
X51745833Y-136904819D02*
X51412500Y-136428628D01*
X51174405Y-136904819D02*
X51174405Y-135904819D01*
X51174405Y-135904819D02*
X51555357Y-135904819D01*
X51555357Y-135904819D02*
X51650595Y-135952438D01*
X51650595Y-135952438D02*
X51698214Y-136000057D01*
X51698214Y-136000057D02*
X51745833Y-136095295D01*
X51745833Y-136095295D02*
X51745833Y-136238152D01*
X51745833Y-136238152D02*
X51698214Y-136333390D01*
X51698214Y-136333390D02*
X51650595Y-136381009D01*
X51650595Y-136381009D02*
X51555357Y-136428628D01*
X51555357Y-136428628D02*
X51174405Y-136428628D01*
X52126786Y-136000057D02*
X52174405Y-135952438D01*
X52174405Y-135952438D02*
X52269643Y-135904819D01*
X52269643Y-135904819D02*
X52507738Y-135904819D01*
X52507738Y-135904819D02*
X52602976Y-135952438D01*
X52602976Y-135952438D02*
X52650595Y-136000057D01*
X52650595Y-136000057D02*
X52698214Y-136095295D01*
X52698214Y-136095295D02*
X52698214Y-136190533D01*
X52698214Y-136190533D02*
X52650595Y-136333390D01*
X52650595Y-136333390D02*
X52079167Y-136904819D01*
X52079167Y-136904819D02*
X52698214Y-136904819D01*
X57974819Y-146259523D02*
X58974819Y-145592857D01*
X57974819Y-145592857D02*
X58974819Y-146259523D01*
X58974819Y-144688095D02*
X58974819Y-145259523D01*
X58974819Y-144973809D02*
X57974819Y-144973809D01*
X57974819Y-144973809D02*
X58117676Y-145069047D01*
X58117676Y-145069047D02*
X58212914Y-145164285D01*
X58212914Y-145164285D02*
X58260533Y-145259523D01*
D10*
X69528633Y-160836666D02*
X69195300Y-161069999D01*
X69528633Y-161236666D02*
X68828633Y-161236666D01*
X68828633Y-161236666D02*
X68828633Y-160969999D01*
X68828633Y-160969999D02*
X68861966Y-160903333D01*
X68861966Y-160903333D02*
X68895300Y-160869999D01*
X68895300Y-160869999D02*
X68961966Y-160836666D01*
X68961966Y-160836666D02*
X69061966Y-160836666D01*
X69061966Y-160836666D02*
X69128633Y-160869999D01*
X69128633Y-160869999D02*
X69161966Y-160903333D01*
X69161966Y-160903333D02*
X69195300Y-160969999D01*
X69195300Y-160969999D02*
X69195300Y-161236666D01*
X69528633Y-160503333D02*
X69528633Y-160369999D01*
X69528633Y-160369999D02*
X69495300Y-160303333D01*
X69495300Y-160303333D02*
X69461966Y-160269999D01*
X69461966Y-160269999D02*
X69361966Y-160203333D01*
X69361966Y-160203333D02*
X69228633Y-160169999D01*
X69228633Y-160169999D02*
X68961966Y-160169999D01*
X68961966Y-160169999D02*
X68895300Y-160203333D01*
X68895300Y-160203333D02*
X68861966Y-160236666D01*
X68861966Y-160236666D02*
X68828633Y-160303333D01*
X68828633Y-160303333D02*
X68828633Y-160436666D01*
X68828633Y-160436666D02*
X68861966Y-160503333D01*
X68861966Y-160503333D02*
X68895300Y-160536666D01*
X68895300Y-160536666D02*
X68961966Y-160569999D01*
X68961966Y-160569999D02*
X69128633Y-160569999D01*
X69128633Y-160569999D02*
X69195300Y-160536666D01*
X69195300Y-160536666D02*
X69228633Y-160503333D01*
X69228633Y-160503333D02*
X69261966Y-160436666D01*
X69261966Y-160436666D02*
X69261966Y-160303333D01*
X69261966Y-160303333D02*
X69228633Y-160236666D01*
X69228633Y-160236666D02*
X69195300Y-160203333D01*
X69195300Y-160203333D02*
X69128633Y-160169999D01*
D13*
X115961905Y-137379819D02*
X115961905Y-138189342D01*
X115961905Y-138189342D02*
X116009524Y-138284580D01*
X116009524Y-138284580D02*
X116057143Y-138332200D01*
X116057143Y-138332200D02*
X116152381Y-138379819D01*
X116152381Y-138379819D02*
X116342857Y-138379819D01*
X116342857Y-138379819D02*
X116438095Y-138332200D01*
X116438095Y-138332200D02*
X116485714Y-138284580D01*
X116485714Y-138284580D02*
X116533333Y-138189342D01*
X116533333Y-138189342D02*
X116533333Y-137379819D01*
X116961905Y-137475057D02*
X117009524Y-137427438D01*
X117009524Y-137427438D02*
X117104762Y-137379819D01*
X117104762Y-137379819D02*
X117342857Y-137379819D01*
X117342857Y-137379819D02*
X117438095Y-137427438D01*
X117438095Y-137427438D02*
X117485714Y-137475057D01*
X117485714Y-137475057D02*
X117533333Y-137570295D01*
X117533333Y-137570295D02*
X117533333Y-137665533D01*
X117533333Y-137665533D02*
X117485714Y-137808390D01*
X117485714Y-137808390D02*
X116914286Y-138379819D01*
X116914286Y-138379819D02*
X117533333Y-138379819D01*
X118152381Y-137379819D02*
X118247619Y-137379819D01*
X118247619Y-137379819D02*
X118342857Y-137427438D01*
X118342857Y-137427438D02*
X118390476Y-137475057D01*
X118390476Y-137475057D02*
X118438095Y-137570295D01*
X118438095Y-137570295D02*
X118485714Y-137760771D01*
X118485714Y-137760771D02*
X118485714Y-137998866D01*
X118485714Y-137998866D02*
X118438095Y-138189342D01*
X118438095Y-138189342D02*
X118390476Y-138284580D01*
X118390476Y-138284580D02*
X118342857Y-138332200D01*
X118342857Y-138332200D02*
X118247619Y-138379819D01*
X118247619Y-138379819D02*
X118152381Y-138379819D01*
X118152381Y-138379819D02*
X118057143Y-138332200D01*
X118057143Y-138332200D02*
X118009524Y-138284580D01*
X118009524Y-138284580D02*
X117961905Y-138189342D01*
X117961905Y-138189342D02*
X117914286Y-137998866D01*
X117914286Y-137998866D02*
X117914286Y-137760771D01*
X117914286Y-137760771D02*
X117961905Y-137570295D01*
X117961905Y-137570295D02*
X118009524Y-137475057D01*
X118009524Y-137475057D02*
X118057143Y-137427438D01*
X118057143Y-137427438D02*
X118152381Y-137379819D01*
D10*
X74318633Y-162916666D02*
X73985300Y-163149999D01*
X74318633Y-163316666D02*
X73618633Y-163316666D01*
X73618633Y-163316666D02*
X73618633Y-163049999D01*
X73618633Y-163049999D02*
X73651966Y-162983333D01*
X73651966Y-162983333D02*
X73685300Y-162949999D01*
X73685300Y-162949999D02*
X73751966Y-162916666D01*
X73751966Y-162916666D02*
X73851966Y-162916666D01*
X73851966Y-162916666D02*
X73918633Y-162949999D01*
X73918633Y-162949999D02*
X73951966Y-162983333D01*
X73951966Y-162983333D02*
X73985300Y-163049999D01*
X73985300Y-163049999D02*
X73985300Y-163316666D01*
X73618633Y-162683333D02*
X73618633Y-162216666D01*
X73618633Y-162216666D02*
X74318633Y-162516666D01*
D13*
X58211905Y-137629819D02*
X58211905Y-138439342D01*
X58211905Y-138439342D02*
X58259524Y-138534580D01*
X58259524Y-138534580D02*
X58307143Y-138582200D01*
X58307143Y-138582200D02*
X58402381Y-138629819D01*
X58402381Y-138629819D02*
X58592857Y-138629819D01*
X58592857Y-138629819D02*
X58688095Y-138582200D01*
X58688095Y-138582200D02*
X58735714Y-138534580D01*
X58735714Y-138534580D02*
X58783333Y-138439342D01*
X58783333Y-138439342D02*
X58783333Y-137629819D01*
X59783333Y-138629819D02*
X59211905Y-138629819D01*
X59497619Y-138629819D02*
X59497619Y-137629819D01*
X59497619Y-137629819D02*
X59402381Y-137772676D01*
X59402381Y-137772676D02*
X59307143Y-137867914D01*
X59307143Y-137867914D02*
X59211905Y-137915533D01*
X60259524Y-138629819D02*
X60450000Y-138629819D01*
X60450000Y-138629819D02*
X60545238Y-138582200D01*
X60545238Y-138582200D02*
X60592857Y-138534580D01*
X60592857Y-138534580D02*
X60688095Y-138391723D01*
X60688095Y-138391723D02*
X60735714Y-138201247D01*
X60735714Y-138201247D02*
X60735714Y-137820295D01*
X60735714Y-137820295D02*
X60688095Y-137725057D01*
X60688095Y-137725057D02*
X60640476Y-137677438D01*
X60640476Y-137677438D02*
X60545238Y-137629819D01*
X60545238Y-137629819D02*
X60354762Y-137629819D01*
X60354762Y-137629819D02*
X60259524Y-137677438D01*
X60259524Y-137677438D02*
X60211905Y-137725057D01*
X60211905Y-137725057D02*
X60164286Y-137820295D01*
X60164286Y-137820295D02*
X60164286Y-138058390D01*
X60164286Y-138058390D02*
X60211905Y-138153628D01*
X60211905Y-138153628D02*
X60259524Y-138201247D01*
X60259524Y-138201247D02*
X60354762Y-138248866D01*
X60354762Y-138248866D02*
X60545238Y-138248866D01*
X60545238Y-138248866D02*
X60640476Y-138201247D01*
X60640476Y-138201247D02*
X60688095Y-138153628D01*
X60688095Y-138153628D02*
X60735714Y-138058390D01*
X47420833Y-137004819D02*
X47087500Y-136528628D01*
X46849405Y-137004819D02*
X46849405Y-136004819D01*
X46849405Y-136004819D02*
X47230357Y-136004819D01*
X47230357Y-136004819D02*
X47325595Y-136052438D01*
X47325595Y-136052438D02*
X47373214Y-136100057D01*
X47373214Y-136100057D02*
X47420833Y-136195295D01*
X47420833Y-136195295D02*
X47420833Y-136338152D01*
X47420833Y-136338152D02*
X47373214Y-136433390D01*
X47373214Y-136433390D02*
X47325595Y-136481009D01*
X47325595Y-136481009D02*
X47230357Y-136528628D01*
X47230357Y-136528628D02*
X46849405Y-136528628D01*
X48373214Y-137004819D02*
X47801786Y-137004819D01*
X48087500Y-137004819D02*
X48087500Y-136004819D01*
X48087500Y-136004819D02*
X47992262Y-136147676D01*
X47992262Y-136147676D02*
X47897024Y-136242914D01*
X47897024Y-136242914D02*
X47801786Y-136290533D01*
D10*
X64798633Y-160836666D02*
X64465300Y-161069999D01*
X64798633Y-161236666D02*
X64098633Y-161236666D01*
X64098633Y-161236666D02*
X64098633Y-160969999D01*
X64098633Y-160969999D02*
X64131966Y-160903333D01*
X64131966Y-160903333D02*
X64165300Y-160869999D01*
X64165300Y-160869999D02*
X64231966Y-160836666D01*
X64231966Y-160836666D02*
X64331966Y-160836666D01*
X64331966Y-160836666D02*
X64398633Y-160869999D01*
X64398633Y-160869999D02*
X64431966Y-160903333D01*
X64431966Y-160903333D02*
X64465300Y-160969999D01*
X64465300Y-160969999D02*
X64465300Y-161236666D01*
X64398633Y-160436666D02*
X64365300Y-160503333D01*
X64365300Y-160503333D02*
X64331966Y-160536666D01*
X64331966Y-160536666D02*
X64265300Y-160569999D01*
X64265300Y-160569999D02*
X64231966Y-160569999D01*
X64231966Y-160569999D02*
X64165300Y-160536666D01*
X64165300Y-160536666D02*
X64131966Y-160503333D01*
X64131966Y-160503333D02*
X64098633Y-160436666D01*
X64098633Y-160436666D02*
X64098633Y-160303333D01*
X64098633Y-160303333D02*
X64131966Y-160236666D01*
X64131966Y-160236666D02*
X64165300Y-160203333D01*
X64165300Y-160203333D02*
X64231966Y-160169999D01*
X64231966Y-160169999D02*
X64265300Y-160169999D01*
X64265300Y-160169999D02*
X64331966Y-160203333D01*
X64331966Y-160203333D02*
X64365300Y-160236666D01*
X64365300Y-160236666D02*
X64398633Y-160303333D01*
X64398633Y-160303333D02*
X64398633Y-160436666D01*
X64398633Y-160436666D02*
X64431966Y-160503333D01*
X64431966Y-160503333D02*
X64465300Y-160536666D01*
X64465300Y-160536666D02*
X64531966Y-160569999D01*
X64531966Y-160569999D02*
X64665300Y-160569999D01*
X64665300Y-160569999D02*
X64731966Y-160536666D01*
X64731966Y-160536666D02*
X64765300Y-160503333D01*
X64765300Y-160503333D02*
X64798633Y-160436666D01*
X64798633Y-160436666D02*
X64798633Y-160303333D01*
X64798633Y-160303333D02*
X64765300Y-160236666D01*
X64765300Y-160236666D02*
X64731966Y-160203333D01*
X64731966Y-160203333D02*
X64665300Y-160169999D01*
X64665300Y-160169999D02*
X64531966Y-160169999D01*
X64531966Y-160169999D02*
X64465300Y-160203333D01*
X64465300Y-160203333D02*
X64431966Y-160236666D01*
X64431966Y-160236666D02*
X64398633Y-160303333D01*
X74318633Y-161149999D02*
X73985300Y-161383332D01*
X74318633Y-161549999D02*
X73618633Y-161549999D01*
X73618633Y-161549999D02*
X73618633Y-161283332D01*
X73618633Y-161283332D02*
X73651966Y-161216666D01*
X73651966Y-161216666D02*
X73685300Y-161183332D01*
X73685300Y-161183332D02*
X73751966Y-161149999D01*
X73751966Y-161149999D02*
X73851966Y-161149999D01*
X73851966Y-161149999D02*
X73918633Y-161183332D01*
X73918633Y-161183332D02*
X73951966Y-161216666D01*
X73951966Y-161216666D02*
X73985300Y-161283332D01*
X73985300Y-161283332D02*
X73985300Y-161549999D01*
X74318633Y-160483332D02*
X74318633Y-160883332D01*
X74318633Y-160683332D02*
X73618633Y-160683332D01*
X73618633Y-160683332D02*
X73718633Y-160749999D01*
X73718633Y-160749999D02*
X73785300Y-160816666D01*
X73785300Y-160816666D02*
X73818633Y-160883332D01*
X73618633Y-160049999D02*
X73618633Y-159983332D01*
X73618633Y-159983332D02*
X73651966Y-159916665D01*
X73651966Y-159916665D02*
X73685300Y-159883332D01*
X73685300Y-159883332D02*
X73751966Y-159849999D01*
X73751966Y-159849999D02*
X73885300Y-159816665D01*
X73885300Y-159816665D02*
X74051966Y-159816665D01*
X74051966Y-159816665D02*
X74185300Y-159849999D01*
X74185300Y-159849999D02*
X74251966Y-159883332D01*
X74251966Y-159883332D02*
X74285300Y-159916665D01*
X74285300Y-159916665D02*
X74318633Y-159983332D01*
X74318633Y-159983332D02*
X74318633Y-160049999D01*
X74318633Y-160049999D02*
X74285300Y-160116665D01*
X74285300Y-160116665D02*
X74251966Y-160149999D01*
X74251966Y-160149999D02*
X74185300Y-160183332D01*
X74185300Y-160183332D02*
X74051966Y-160216665D01*
X74051966Y-160216665D02*
X73885300Y-160216665D01*
X73885300Y-160216665D02*
X73751966Y-160183332D01*
X73751966Y-160183332D02*
X73685300Y-160149999D01*
X73685300Y-160149999D02*
X73651966Y-160116665D01*
X73651966Y-160116665D02*
X73618633Y-160049999D01*
X53751966Y-145616666D02*
X53785300Y-145649999D01*
X53785300Y-145649999D02*
X53818633Y-145749999D01*
X53818633Y-145749999D02*
X53818633Y-145816666D01*
X53818633Y-145816666D02*
X53785300Y-145916666D01*
X53785300Y-145916666D02*
X53718633Y-145983333D01*
X53718633Y-145983333D02*
X53651966Y-146016666D01*
X53651966Y-146016666D02*
X53518633Y-146049999D01*
X53518633Y-146049999D02*
X53418633Y-146049999D01*
X53418633Y-146049999D02*
X53285300Y-146016666D01*
X53285300Y-146016666D02*
X53218633Y-145983333D01*
X53218633Y-145983333D02*
X53151966Y-145916666D01*
X53151966Y-145916666D02*
X53118633Y-145816666D01*
X53118633Y-145816666D02*
X53118633Y-145749999D01*
X53118633Y-145749999D02*
X53151966Y-145649999D01*
X53151966Y-145649999D02*
X53185300Y-145616666D01*
X53818633Y-144949999D02*
X53818633Y-145349999D01*
X53818633Y-145149999D02*
X53118633Y-145149999D01*
X53118633Y-145149999D02*
X53218633Y-145216666D01*
X53218633Y-145216666D02*
X53285300Y-145283333D01*
X53285300Y-145283333D02*
X53318633Y-145349999D01*
D13*
X51194642Y-133804819D02*
X50861309Y-133328628D01*
X50623214Y-133804819D02*
X50623214Y-132804819D01*
X50623214Y-132804819D02*
X51004166Y-132804819D01*
X51004166Y-132804819D02*
X51099404Y-132852438D01*
X51099404Y-132852438D02*
X51147023Y-132900057D01*
X51147023Y-132900057D02*
X51194642Y-132995295D01*
X51194642Y-132995295D02*
X51194642Y-133138152D01*
X51194642Y-133138152D02*
X51147023Y-133233390D01*
X51147023Y-133233390D02*
X51099404Y-133281009D01*
X51099404Y-133281009D02*
X51004166Y-133328628D01*
X51004166Y-133328628D02*
X50623214Y-133328628D01*
X51575595Y-132900057D02*
X51623214Y-132852438D01*
X51623214Y-132852438D02*
X51718452Y-132804819D01*
X51718452Y-132804819D02*
X51956547Y-132804819D01*
X51956547Y-132804819D02*
X52051785Y-132852438D01*
X52051785Y-132852438D02*
X52099404Y-132900057D01*
X52099404Y-132900057D02*
X52147023Y-132995295D01*
X52147023Y-132995295D02*
X52147023Y-133090533D01*
X52147023Y-133090533D02*
X52099404Y-133233390D01*
X52099404Y-133233390D02*
X51527976Y-133804819D01*
X51527976Y-133804819D02*
X52147023Y-133804819D01*
X52766071Y-132804819D02*
X52861309Y-132804819D01*
X52861309Y-132804819D02*
X52956547Y-132852438D01*
X52956547Y-132852438D02*
X53004166Y-132900057D01*
X53004166Y-132900057D02*
X53051785Y-132995295D01*
X53051785Y-132995295D02*
X53099404Y-133185771D01*
X53099404Y-133185771D02*
X53099404Y-133423866D01*
X53099404Y-133423866D02*
X53051785Y-133614342D01*
X53051785Y-133614342D02*
X53004166Y-133709580D01*
X53004166Y-133709580D02*
X52956547Y-133757200D01*
X52956547Y-133757200D02*
X52861309Y-133804819D01*
X52861309Y-133804819D02*
X52766071Y-133804819D01*
X52766071Y-133804819D02*
X52670833Y-133757200D01*
X52670833Y-133757200D02*
X52623214Y-133709580D01*
X52623214Y-133709580D02*
X52575595Y-133614342D01*
X52575595Y-133614342D02*
X52527976Y-133423866D01*
X52527976Y-133423866D02*
X52527976Y-133185771D01*
X52527976Y-133185771D02*
X52575595Y-132995295D01*
X52575595Y-132995295D02*
X52623214Y-132900057D01*
X52623214Y-132900057D02*
X52670833Y-132852438D01*
X52670833Y-132852438D02*
X52766071Y-132804819D01*
X91866666Y-179254819D02*
X91866666Y-179969104D01*
X91866666Y-179969104D02*
X91819047Y-180111961D01*
X91819047Y-180111961D02*
X91723809Y-180207200D01*
X91723809Y-180207200D02*
X91580952Y-180254819D01*
X91580952Y-180254819D02*
X91485714Y-180254819D01*
X92295238Y-179350057D02*
X92342857Y-179302438D01*
X92342857Y-179302438D02*
X92438095Y-179254819D01*
X92438095Y-179254819D02*
X92676190Y-179254819D01*
X92676190Y-179254819D02*
X92771428Y-179302438D01*
X92771428Y-179302438D02*
X92819047Y-179350057D01*
X92819047Y-179350057D02*
X92866666Y-179445295D01*
X92866666Y-179445295D02*
X92866666Y-179540533D01*
X92866666Y-179540533D02*
X92819047Y-179683390D01*
X92819047Y-179683390D02*
X92247619Y-180254819D01*
X92247619Y-180254819D02*
X92866666Y-180254819D01*
X89580952Y-165369104D02*
X90057142Y-165369104D01*
X89485714Y-165654819D02*
X89819047Y-164654819D01*
X89819047Y-164654819D02*
X90152380Y-165654819D01*
X90485714Y-165654819D02*
X90485714Y-164654819D01*
X90485714Y-164654819D02*
X91057142Y-165654819D01*
X91057142Y-165654819D02*
X91057142Y-164654819D01*
X91485714Y-165369104D02*
X91961904Y-165369104D01*
X91390476Y-165654819D02*
X91723809Y-164654819D01*
X91723809Y-164654819D02*
X92057142Y-165654819D01*
X92866666Y-165654819D02*
X92390476Y-165654819D01*
X92390476Y-165654819D02*
X92390476Y-164654819D01*
X93390476Y-164654819D02*
X93580952Y-164654819D01*
X93580952Y-164654819D02*
X93676190Y-164702438D01*
X93676190Y-164702438D02*
X93771428Y-164797676D01*
X93771428Y-164797676D02*
X93819047Y-164988152D01*
X93819047Y-164988152D02*
X93819047Y-165321485D01*
X93819047Y-165321485D02*
X93771428Y-165511961D01*
X93771428Y-165511961D02*
X93676190Y-165607200D01*
X93676190Y-165607200D02*
X93580952Y-165654819D01*
X93580952Y-165654819D02*
X93390476Y-165654819D01*
X93390476Y-165654819D02*
X93295238Y-165607200D01*
X93295238Y-165607200D02*
X93200000Y-165511961D01*
X93200000Y-165511961D02*
X93152381Y-165321485D01*
X93152381Y-165321485D02*
X93152381Y-164988152D01*
X93152381Y-164988152D02*
X93200000Y-164797676D01*
X93200000Y-164797676D02*
X93295238Y-164702438D01*
X93295238Y-164702438D02*
X93390476Y-164654819D01*
X94771428Y-164702438D02*
X94676190Y-164654819D01*
X94676190Y-164654819D02*
X94533333Y-164654819D01*
X94533333Y-164654819D02*
X94390476Y-164702438D01*
X94390476Y-164702438D02*
X94295238Y-164797676D01*
X94295238Y-164797676D02*
X94247619Y-164892914D01*
X94247619Y-164892914D02*
X94200000Y-165083390D01*
X94200000Y-165083390D02*
X94200000Y-165226247D01*
X94200000Y-165226247D02*
X94247619Y-165416723D01*
X94247619Y-165416723D02*
X94295238Y-165511961D01*
X94295238Y-165511961D02*
X94390476Y-165607200D01*
X94390476Y-165607200D02*
X94533333Y-165654819D01*
X94533333Y-165654819D02*
X94628571Y-165654819D01*
X94628571Y-165654819D02*
X94771428Y-165607200D01*
X94771428Y-165607200D02*
X94819047Y-165559580D01*
X94819047Y-165559580D02*
X94819047Y-165226247D01*
X94819047Y-165226247D02*
X94628571Y-165226247D01*
D10*
X69528633Y-165086666D02*
X69195300Y-165319999D01*
X69528633Y-165486666D02*
X68828633Y-165486666D01*
X68828633Y-165486666D02*
X68828633Y-165219999D01*
X68828633Y-165219999D02*
X68861966Y-165153333D01*
X68861966Y-165153333D02*
X68895300Y-165119999D01*
X68895300Y-165119999D02*
X68961966Y-165086666D01*
X68961966Y-165086666D02*
X69061966Y-165086666D01*
X69061966Y-165086666D02*
X69128633Y-165119999D01*
X69128633Y-165119999D02*
X69161966Y-165153333D01*
X69161966Y-165153333D02*
X69195300Y-165219999D01*
X69195300Y-165219999D02*
X69195300Y-165486666D01*
X69061966Y-164486666D02*
X69528633Y-164486666D01*
X68795300Y-164653333D02*
X69295300Y-164819999D01*
X69295300Y-164819999D02*
X69295300Y-164386666D01*
D13*
X46944642Y-133804819D02*
X46611309Y-133328628D01*
X46373214Y-133804819D02*
X46373214Y-132804819D01*
X46373214Y-132804819D02*
X46754166Y-132804819D01*
X46754166Y-132804819D02*
X46849404Y-132852438D01*
X46849404Y-132852438D02*
X46897023Y-132900057D01*
X46897023Y-132900057D02*
X46944642Y-132995295D01*
X46944642Y-132995295D02*
X46944642Y-133138152D01*
X46944642Y-133138152D02*
X46897023Y-133233390D01*
X46897023Y-133233390D02*
X46849404Y-133281009D01*
X46849404Y-133281009D02*
X46754166Y-133328628D01*
X46754166Y-133328628D02*
X46373214Y-133328628D01*
X47897023Y-133804819D02*
X47325595Y-133804819D01*
X47611309Y-133804819D02*
X47611309Y-132804819D01*
X47611309Y-132804819D02*
X47516071Y-132947676D01*
X47516071Y-132947676D02*
X47420833Y-133042914D01*
X47420833Y-133042914D02*
X47325595Y-133090533D01*
X48373214Y-133804819D02*
X48563690Y-133804819D01*
X48563690Y-133804819D02*
X48658928Y-133757200D01*
X48658928Y-133757200D02*
X48706547Y-133709580D01*
X48706547Y-133709580D02*
X48801785Y-133566723D01*
X48801785Y-133566723D02*
X48849404Y-133376247D01*
X48849404Y-133376247D02*
X48849404Y-132995295D01*
X48849404Y-132995295D02*
X48801785Y-132900057D01*
X48801785Y-132900057D02*
X48754166Y-132852438D01*
X48754166Y-132852438D02*
X48658928Y-132804819D01*
X48658928Y-132804819D02*
X48468452Y-132804819D01*
X48468452Y-132804819D02*
X48373214Y-132852438D01*
X48373214Y-132852438D02*
X48325595Y-132900057D01*
X48325595Y-132900057D02*
X48277976Y-132995295D01*
X48277976Y-132995295D02*
X48277976Y-133233390D01*
X48277976Y-133233390D02*
X48325595Y-133328628D01*
X48325595Y-133328628D02*
X48373214Y-133376247D01*
X48373214Y-133376247D02*
X48468452Y-133423866D01*
X48468452Y-133423866D02*
X48658928Y-133423866D01*
X48658928Y-133423866D02*
X48754166Y-133376247D01*
X48754166Y-133376247D02*
X48801785Y-133328628D01*
X48801785Y-133328628D02*
X48849404Y-133233390D01*
X44794819Y-139523333D02*
X45509104Y-139523333D01*
X45509104Y-139523333D02*
X45651961Y-139570952D01*
X45651961Y-139570952D02*
X45747200Y-139666190D01*
X45747200Y-139666190D02*
X45794819Y-139809047D01*
X45794819Y-139809047D02*
X45794819Y-139904285D01*
X45128152Y-138618571D02*
X45794819Y-138618571D01*
X44747200Y-138856666D02*
X45461485Y-139094761D01*
X45461485Y-139094761D02*
X45461485Y-138475714D01*
D12*
X46571428Y-146309857D02*
X46571428Y-145409857D01*
X46571428Y-145409857D02*
X46914285Y-145409857D01*
X46914285Y-145409857D02*
X47000000Y-145452714D01*
X47000000Y-145452714D02*
X47042857Y-145495571D01*
X47042857Y-145495571D02*
X47085714Y-145581285D01*
X47085714Y-145581285D02*
X47085714Y-145709857D01*
X47085714Y-145709857D02*
X47042857Y-145795571D01*
X47042857Y-145795571D02*
X47000000Y-145838428D01*
X47000000Y-145838428D02*
X46914285Y-145881285D01*
X46914285Y-145881285D02*
X46571428Y-145881285D01*
X47385714Y-145409857D02*
X47600000Y-146309857D01*
X47600000Y-146309857D02*
X47771428Y-145667000D01*
X47771428Y-145667000D02*
X47942857Y-146309857D01*
X47942857Y-146309857D02*
X48157143Y-145409857D01*
X49014285Y-146309857D02*
X48714285Y-145881285D01*
X48499999Y-146309857D02*
X48499999Y-145409857D01*
X48499999Y-145409857D02*
X48842856Y-145409857D01*
X48842856Y-145409857D02*
X48928571Y-145452714D01*
X48928571Y-145452714D02*
X48971428Y-145495571D01*
X48971428Y-145495571D02*
X49014285Y-145581285D01*
X49014285Y-145581285D02*
X49014285Y-145709857D01*
X49014285Y-145709857D02*
X48971428Y-145795571D01*
X48971428Y-145795571D02*
X48928571Y-145838428D01*
X48928571Y-145838428D02*
X48842856Y-145881285D01*
X48842856Y-145881285D02*
X48499999Y-145881285D01*
X50042856Y-146052714D02*
X50471428Y-146052714D01*
X49957142Y-146309857D02*
X50257142Y-145409857D01*
X50257142Y-145409857D02*
X50557142Y-146309857D01*
X50857142Y-145409857D02*
X50857142Y-146138428D01*
X50857142Y-146138428D02*
X50899999Y-146224142D01*
X50899999Y-146224142D02*
X50942857Y-146267000D01*
X50942857Y-146267000D02*
X51028571Y-146309857D01*
X51028571Y-146309857D02*
X51199999Y-146309857D01*
X51199999Y-146309857D02*
X51285714Y-146267000D01*
X51285714Y-146267000D02*
X51328571Y-146224142D01*
X51328571Y-146224142D02*
X51371428Y-146138428D01*
X51371428Y-146138428D02*
X51371428Y-145409857D01*
X51714285Y-145409857D02*
X52314285Y-146309857D01*
X52314285Y-145409857D02*
X51714285Y-146309857D01*
D13*
X80074819Y-177371904D02*
X80884342Y-177371904D01*
X80884342Y-177371904D02*
X80979580Y-177324285D01*
X80979580Y-177324285D02*
X81027200Y-177276666D01*
X81027200Y-177276666D02*
X81074819Y-177181428D01*
X81074819Y-177181428D02*
X81074819Y-176990952D01*
X81074819Y-176990952D02*
X81027200Y-176895714D01*
X81027200Y-176895714D02*
X80979580Y-176848095D01*
X80979580Y-176848095D02*
X80884342Y-176800476D01*
X80884342Y-176800476D02*
X80074819Y-176800476D01*
X80503390Y-176181428D02*
X80455771Y-176276666D01*
X80455771Y-176276666D02*
X80408152Y-176324285D01*
X80408152Y-176324285D02*
X80312914Y-176371904D01*
X80312914Y-176371904D02*
X80265295Y-176371904D01*
X80265295Y-176371904D02*
X80170057Y-176324285D01*
X80170057Y-176324285D02*
X80122438Y-176276666D01*
X80122438Y-176276666D02*
X80074819Y-176181428D01*
X80074819Y-176181428D02*
X80074819Y-175990952D01*
X80074819Y-175990952D02*
X80122438Y-175895714D01*
X80122438Y-175895714D02*
X80170057Y-175848095D01*
X80170057Y-175848095D02*
X80265295Y-175800476D01*
X80265295Y-175800476D02*
X80312914Y-175800476D01*
X80312914Y-175800476D02*
X80408152Y-175848095D01*
X80408152Y-175848095D02*
X80455771Y-175895714D01*
X80455771Y-175895714D02*
X80503390Y-175990952D01*
X80503390Y-175990952D02*
X80503390Y-176181428D01*
X80503390Y-176181428D02*
X80551009Y-176276666D01*
X80551009Y-176276666D02*
X80598628Y-176324285D01*
X80598628Y-176324285D02*
X80693866Y-176371904D01*
X80693866Y-176371904D02*
X80884342Y-176371904D01*
X80884342Y-176371904D02*
X80979580Y-176324285D01*
X80979580Y-176324285D02*
X81027200Y-176276666D01*
X81027200Y-176276666D02*
X81074819Y-176181428D01*
X81074819Y-176181428D02*
X81074819Y-175990952D01*
X81074819Y-175990952D02*
X81027200Y-175895714D01*
X81027200Y-175895714D02*
X80979580Y-175848095D01*
X80979580Y-175848095D02*
X80884342Y-175800476D01*
X80884342Y-175800476D02*
X80693866Y-175800476D01*
X80693866Y-175800476D02*
X80598628Y-175848095D01*
X80598628Y-175848095D02*
X80551009Y-175895714D01*
X80551009Y-175895714D02*
X80503390Y-175990952D01*
D10*
X64798633Y-162936666D02*
X64465300Y-163169999D01*
X64798633Y-163336666D02*
X64098633Y-163336666D01*
X64098633Y-163336666D02*
X64098633Y-163069999D01*
X64098633Y-163069999D02*
X64131966Y-163003333D01*
X64131966Y-163003333D02*
X64165300Y-162969999D01*
X64165300Y-162969999D02*
X64231966Y-162936666D01*
X64231966Y-162936666D02*
X64331966Y-162936666D01*
X64331966Y-162936666D02*
X64398633Y-162969999D01*
X64398633Y-162969999D02*
X64431966Y-163003333D01*
X64431966Y-163003333D02*
X64465300Y-163069999D01*
X64465300Y-163069999D02*
X64465300Y-163336666D01*
X64098633Y-162303333D02*
X64098633Y-162636666D01*
X64098633Y-162636666D02*
X64431966Y-162669999D01*
X64431966Y-162669999D02*
X64398633Y-162636666D01*
X64398633Y-162636666D02*
X64365300Y-162569999D01*
X64365300Y-162569999D02*
X64365300Y-162403333D01*
X64365300Y-162403333D02*
X64398633Y-162336666D01*
X64398633Y-162336666D02*
X64431966Y-162303333D01*
X64431966Y-162303333D02*
X64498633Y-162269999D01*
X64498633Y-162269999D02*
X64665300Y-162269999D01*
X64665300Y-162269999D02*
X64731966Y-162303333D01*
X64731966Y-162303333D02*
X64765300Y-162336666D01*
X64765300Y-162336666D02*
X64798633Y-162403333D01*
X64798633Y-162403333D02*
X64798633Y-162569999D01*
X64798633Y-162569999D02*
X64765300Y-162636666D01*
X64765300Y-162636666D02*
X64731966Y-162669999D01*
D13*
X112011905Y-150454819D02*
X112011905Y-151264342D01*
X112011905Y-151264342D02*
X112059524Y-151359580D01*
X112059524Y-151359580D02*
X112107143Y-151407200D01*
X112107143Y-151407200D02*
X112202381Y-151454819D01*
X112202381Y-151454819D02*
X112392857Y-151454819D01*
X112392857Y-151454819D02*
X112488095Y-151407200D01*
X112488095Y-151407200D02*
X112535714Y-151359580D01*
X112535714Y-151359580D02*
X112583333Y-151264342D01*
X112583333Y-151264342D02*
X112583333Y-150454819D01*
X113583333Y-151454819D02*
X113011905Y-151454819D01*
X113297619Y-151454819D02*
X113297619Y-150454819D01*
X113297619Y-150454819D02*
X113202381Y-150597676D01*
X113202381Y-150597676D02*
X113107143Y-150692914D01*
X113107143Y-150692914D02*
X113011905Y-150740533D01*
X114488095Y-150454819D02*
X114011905Y-150454819D01*
X114011905Y-150454819D02*
X113964286Y-150931009D01*
X113964286Y-150931009D02*
X114011905Y-150883390D01*
X114011905Y-150883390D02*
X114107143Y-150835771D01*
X114107143Y-150835771D02*
X114345238Y-150835771D01*
X114345238Y-150835771D02*
X114440476Y-150883390D01*
X114440476Y-150883390D02*
X114488095Y-150931009D01*
X114488095Y-150931009D02*
X114535714Y-151026247D01*
X114535714Y-151026247D02*
X114535714Y-151264342D01*
X114535714Y-151264342D02*
X114488095Y-151359580D01*
X114488095Y-151359580D02*
X114440476Y-151407200D01*
X114440476Y-151407200D02*
X114345238Y-151454819D01*
X114345238Y-151454819D02*
X114107143Y-151454819D01*
X114107143Y-151454819D02*
X114011905Y-151407200D01*
X114011905Y-151407200D02*
X113964286Y-151359580D01*
D10*
X69528633Y-162936666D02*
X69195300Y-163169999D01*
X69528633Y-163336666D02*
X68828633Y-163336666D01*
X68828633Y-163336666D02*
X68828633Y-163069999D01*
X68828633Y-163069999D02*
X68861966Y-163003333D01*
X68861966Y-163003333D02*
X68895300Y-162969999D01*
X68895300Y-162969999D02*
X68961966Y-162936666D01*
X68961966Y-162936666D02*
X69061966Y-162936666D01*
X69061966Y-162936666D02*
X69128633Y-162969999D01*
X69128633Y-162969999D02*
X69161966Y-163003333D01*
X69161966Y-163003333D02*
X69195300Y-163069999D01*
X69195300Y-163069999D02*
X69195300Y-163336666D01*
X68828633Y-162336666D02*
X68828633Y-162469999D01*
X68828633Y-162469999D02*
X68861966Y-162536666D01*
X68861966Y-162536666D02*
X68895300Y-162569999D01*
X68895300Y-162569999D02*
X68995300Y-162636666D01*
X68995300Y-162636666D02*
X69128633Y-162669999D01*
X69128633Y-162669999D02*
X69395300Y-162669999D01*
X69395300Y-162669999D02*
X69461966Y-162636666D01*
X69461966Y-162636666D02*
X69495300Y-162603333D01*
X69495300Y-162603333D02*
X69528633Y-162536666D01*
X69528633Y-162536666D02*
X69528633Y-162403333D01*
X69528633Y-162403333D02*
X69495300Y-162336666D01*
X69495300Y-162336666D02*
X69461966Y-162303333D01*
X69461966Y-162303333D02*
X69395300Y-162269999D01*
X69395300Y-162269999D02*
X69228633Y-162269999D01*
X69228633Y-162269999D02*
X69161966Y-162303333D01*
X69161966Y-162303333D02*
X69128633Y-162336666D01*
X69128633Y-162336666D02*
X69095300Y-162403333D01*
X69095300Y-162403333D02*
X69095300Y-162536666D01*
X69095300Y-162536666D02*
X69128633Y-162603333D01*
X69128633Y-162603333D02*
X69161966Y-162636666D01*
X69161966Y-162636666D02*
X69228633Y-162669999D01*
D13*
X113068095Y-165639819D02*
X113068095Y-166449342D01*
X113068095Y-166449342D02*
X113115714Y-166544580D01*
X113115714Y-166544580D02*
X113163333Y-166592200D01*
X113163333Y-166592200D02*
X113258571Y-166639819D01*
X113258571Y-166639819D02*
X113449047Y-166639819D01*
X113449047Y-166639819D02*
X113544285Y-166592200D01*
X113544285Y-166592200D02*
X113591904Y-166544580D01*
X113591904Y-166544580D02*
X113639523Y-166449342D01*
X113639523Y-166449342D02*
X113639523Y-165639819D01*
X114020476Y-165639819D02*
X114639523Y-165639819D01*
X114639523Y-165639819D02*
X114306190Y-166020771D01*
X114306190Y-166020771D02*
X114449047Y-166020771D01*
X114449047Y-166020771D02*
X114544285Y-166068390D01*
X114544285Y-166068390D02*
X114591904Y-166116009D01*
X114591904Y-166116009D02*
X114639523Y-166211247D01*
X114639523Y-166211247D02*
X114639523Y-166449342D01*
X114639523Y-166449342D02*
X114591904Y-166544580D01*
X114591904Y-166544580D02*
X114544285Y-166592200D01*
X114544285Y-166592200D02*
X114449047Y-166639819D01*
X114449047Y-166639819D02*
X114163333Y-166639819D01*
X114163333Y-166639819D02*
X114068095Y-166592200D01*
X114068095Y-166592200D02*
X114020476Y-166544580D01*
X140223810Y-146454819D02*
X140223810Y-145454819D01*
X140652381Y-146407200D02*
X140795238Y-146454819D01*
X140795238Y-146454819D02*
X141033333Y-146454819D01*
X141033333Y-146454819D02*
X141128571Y-146407200D01*
X141128571Y-146407200D02*
X141176190Y-146359580D01*
X141176190Y-146359580D02*
X141223809Y-146264342D01*
X141223809Y-146264342D02*
X141223809Y-146169104D01*
X141223809Y-146169104D02*
X141176190Y-146073866D01*
X141176190Y-146073866D02*
X141128571Y-146026247D01*
X141128571Y-146026247D02*
X141033333Y-145978628D01*
X141033333Y-145978628D02*
X140842857Y-145931009D01*
X140842857Y-145931009D02*
X140747619Y-145883390D01*
X140747619Y-145883390D02*
X140700000Y-145835771D01*
X140700000Y-145835771D02*
X140652381Y-145740533D01*
X140652381Y-145740533D02*
X140652381Y-145645295D01*
X140652381Y-145645295D02*
X140700000Y-145550057D01*
X140700000Y-145550057D02*
X140747619Y-145502438D01*
X140747619Y-145502438D02*
X140842857Y-145454819D01*
X140842857Y-145454819D02*
X141080952Y-145454819D01*
X141080952Y-145454819D02*
X141223809Y-145502438D01*
X141652381Y-146454819D02*
X141652381Y-145454819D01*
X141652381Y-145454819D02*
X142033333Y-145454819D01*
X142033333Y-145454819D02*
X142128571Y-145502438D01*
X142128571Y-145502438D02*
X142176190Y-145550057D01*
X142176190Y-145550057D02*
X142223809Y-145645295D01*
X142223809Y-145645295D02*
X142223809Y-145788152D01*
X142223809Y-145788152D02*
X142176190Y-145883390D01*
X142176190Y-145883390D02*
X142128571Y-145931009D01*
X142128571Y-145931009D02*
X142033333Y-145978628D01*
X142033333Y-145978628D02*
X141652381Y-145978628D01*
X43511905Y-165704819D02*
X43511905Y-164704819D01*
X43511905Y-164704819D02*
X43750000Y-164704819D01*
X43750000Y-164704819D02*
X43892857Y-164752438D01*
X43892857Y-164752438D02*
X43988095Y-164847676D01*
X43988095Y-164847676D02*
X44035714Y-164942914D01*
X44035714Y-164942914D02*
X44083333Y-165133390D01*
X44083333Y-165133390D02*
X44083333Y-165276247D01*
X44083333Y-165276247D02*
X44035714Y-165466723D01*
X44035714Y-165466723D02*
X43988095Y-165561961D01*
X43988095Y-165561961D02*
X43892857Y-165657200D01*
X43892857Y-165657200D02*
X43750000Y-165704819D01*
X43750000Y-165704819D02*
X43511905Y-165704819D01*
X44702381Y-164704819D02*
X44797619Y-164704819D01*
X44797619Y-164704819D02*
X44892857Y-164752438D01*
X44892857Y-164752438D02*
X44940476Y-164800057D01*
X44940476Y-164800057D02*
X44988095Y-164895295D01*
X44988095Y-164895295D02*
X45035714Y-165085771D01*
X45035714Y-165085771D02*
X45035714Y-165323866D01*
X45035714Y-165323866D02*
X44988095Y-165514342D01*
X44988095Y-165514342D02*
X44940476Y-165609580D01*
X44940476Y-165609580D02*
X44892857Y-165657200D01*
X44892857Y-165657200D02*
X44797619Y-165704819D01*
X44797619Y-165704819D02*
X44702381Y-165704819D01*
X44702381Y-165704819D02*
X44607143Y-165657200D01*
X44607143Y-165657200D02*
X44559524Y-165609580D01*
X44559524Y-165609580D02*
X44511905Y-165514342D01*
X44511905Y-165514342D02*
X44464286Y-165323866D01*
X44464286Y-165323866D02*
X44464286Y-165085771D01*
X44464286Y-165085771D02*
X44511905Y-164895295D01*
X44511905Y-164895295D02*
X44559524Y-164800057D01*
X44559524Y-164800057D02*
X44607143Y-164752438D01*
X44607143Y-164752438D02*
X44702381Y-164704819D01*
D14*
%TO.C,U13*%
X79375000Y-159275000D02*
X79375000Y-161225000D01*
X79375000Y-159275000D02*
X79375000Y-157325000D01*
X88245000Y-159275000D02*
X88245000Y-161225000D01*
X88245000Y-159275000D02*
X88245000Y-157325000D01*
X79440000Y-161975000D02*
X79110000Y-162215000D01*
X79110000Y-161735000D01*
X79440000Y-161975000D01*
G36*
X79440000Y-161975000D02*
G01*
X79110000Y-162215000D01*
X79110000Y-161735000D01*
X79440000Y-161975000D01*
G37*
%TO.C,U11*%
X84840000Y-136415000D02*
X84840000Y-136650000D01*
X84840000Y-149435000D02*
X84840000Y-149200000D01*
X88700000Y-136415000D02*
X84840000Y-136415000D01*
X88700000Y-136415000D02*
X92560000Y-136415000D01*
X88700000Y-149435000D02*
X84840000Y-149435000D01*
X88700000Y-149435000D02*
X92560000Y-149435000D01*
X92560000Y-136415000D02*
X92560000Y-136650000D01*
X92560000Y-149435000D02*
X92560000Y-149200000D01*
X84050000Y-136650000D02*
X83710000Y-136180000D01*
X84390000Y-136180000D01*
X84050000Y-136650000D01*
G36*
X84050000Y-136650000D02*
G01*
X83710000Y-136180000D01*
X84390000Y-136180000D01*
X84050000Y-136650000D01*
G37*
%TO.C,J8*%
X54470000Y-138745000D02*
X54470000Y-143885000D01*
X54470000Y-138745000D02*
X57130000Y-138745000D01*
X54470000Y-143885000D02*
X57130000Y-143885000D01*
X55800000Y-136145000D02*
X57130000Y-136145000D01*
X57130000Y-136145000D02*
X57130000Y-137475000D01*
X57130000Y-138745000D02*
X57130000Y-143885000D01*
%TO.C,J1*%
X28572300Y-150070000D02*
X35422300Y-150070000D01*
X35422300Y-136810000D02*
X28572300Y-136810000D01*
X39652300Y-136190000D02*
X40152300Y-136690000D01*
X40152300Y-136690000D02*
X40652300Y-136190000D01*
X40652300Y-136190000D02*
X39652300Y-136190000D01*
X44222300Y-148340000D02*
X44222300Y-138540000D01*
%TO.C,J7*%
X26640000Y-152890000D02*
X40530000Y-152890000D01*
X40530000Y-152890000D02*
X40530000Y-183860000D01*
X40530000Y-183860000D02*
X26640000Y-183860000D01*
X40991325Y-172690000D02*
X41424338Y-172440000D01*
X41424338Y-172440000D02*
X41424338Y-172940000D01*
X41424338Y-172940000D02*
X40991325Y-172690000D01*
%TO.C,U12*%
X79375000Y-167945000D02*
X79375000Y-169895000D01*
X79375000Y-167945000D02*
X79375000Y-165995000D01*
X88245000Y-167945000D02*
X88245000Y-169895000D01*
X88245000Y-167945000D02*
X88245000Y-165995000D01*
X79440000Y-170645000D02*
X79110000Y-170885000D01*
X79110000Y-170405000D01*
X79440000Y-170645000D01*
G36*
X79440000Y-170645000D02*
G01*
X79110000Y-170885000D01*
X79110000Y-170405000D01*
X79440000Y-170645000D01*
G37*
%TO.C,U7*%
X96750000Y-167475000D02*
X96410000Y-167005000D01*
X97090000Y-167005000D01*
X96750000Y-167475000D01*
G36*
X96750000Y-167475000D02*
G01*
X96410000Y-167005000D01*
X97090000Y-167005000D01*
X96750000Y-167475000D01*
G37*
X105260000Y-180260000D02*
X105260000Y-180025000D01*
X105260000Y-167240000D02*
X105260000Y-167475000D01*
X101400000Y-180260000D02*
X105260000Y-180260000D01*
X101400000Y-180260000D02*
X97540000Y-180260000D01*
X101400000Y-167240000D02*
X105260000Y-167240000D01*
X101400000Y-167240000D02*
X97540000Y-167240000D01*
X97540000Y-180260000D02*
X97540000Y-180025000D01*
X97540000Y-167240000D02*
X97540000Y-167475000D01*
%TO.C,R3*%
X66510436Y-164245000D02*
X66964564Y-164245000D01*
X66510436Y-165715000D02*
X66964564Y-165715000D01*
%TO.C,U4*%
X127440000Y-155500000D02*
X127440000Y-178200000D01*
X127440000Y-178200000D02*
X151140000Y-178200000D01*
X128440000Y-154500000D02*
X127440000Y-155500000D01*
X138290000Y-154500000D02*
X128440000Y-154500000D01*
X151140000Y-154500000D02*
X140290000Y-154500000D01*
X151140000Y-178200000D02*
X151140000Y-154500000D01*
%TO.C,U14*%
X97540000Y-151875000D02*
X97540000Y-152110000D01*
X97540000Y-164895000D02*
X97540000Y-164660000D01*
X101400000Y-151875000D02*
X97540000Y-151875000D01*
X101400000Y-151875000D02*
X105260000Y-151875000D01*
X101400000Y-164895000D02*
X97540000Y-164895000D01*
X101400000Y-164895000D02*
X105260000Y-164895000D01*
X105260000Y-151875000D02*
X105260000Y-152110000D01*
X105260000Y-164895000D02*
X105260000Y-164660000D01*
X96750000Y-152110000D02*
X96410000Y-151640000D01*
X97090000Y-151640000D01*
X96750000Y-152110000D01*
G36*
X96750000Y-152110000D02*
G01*
X96410000Y-151640000D01*
X97090000Y-151640000D01*
X96750000Y-152110000D01*
G37*
D13*
%TO.C,J3*%
X60392000Y-167310000D02*
X60392000Y-180310000D01*
X60392000Y-180310000D02*
X74108000Y-180310000D01*
X74108000Y-167356000D02*
X60392000Y-167356000D01*
X74108000Y-180310000D02*
X74108000Y-167310000D01*
D14*
%TO.C,R2*%
X51685436Y-137365000D02*
X52139564Y-137365000D01*
X51685436Y-138835000D02*
X52139564Y-138835000D01*
%TO.C,X1*%
X45850000Y-147050000D02*
X45850000Y-167200000D01*
X46600000Y-167950000D02*
X58000000Y-167950000D01*
X58000000Y-147050000D02*
X45850000Y-147050000D01*
X58750000Y-167200000D02*
X58750000Y-147800000D01*
X46600000Y-167950000D02*
G75*
G02*
X45850000Y-167200000I0J750000D01*
G01*
X58000000Y-147050000D02*
G75*
G02*
X58750000Y-147800000I0J-750000D01*
G01*
X58750000Y-167200000D02*
G75*
G02*
X58000000Y-167950000I-750000J0D01*
G01*
%TO.C,R9*%
X71210436Y-159935000D02*
X71664564Y-159935000D01*
X71210436Y-161405000D02*
X71664564Y-161405000D01*
%TO.C,U20*%
X96625000Y-137207500D02*
X97005000Y-137207500D01*
X96625000Y-142397500D02*
X96625000Y-137207500D01*
X96625000Y-142397500D02*
X96625000Y-147587500D01*
X96625000Y-147587500D02*
X97005000Y-147587500D01*
X115255000Y-137207500D02*
X114875000Y-137207500D01*
X115255000Y-142397500D02*
X115255000Y-137207500D01*
X115255000Y-142397500D02*
X115255000Y-147587500D01*
X115255000Y-147587500D02*
X114875000Y-147587500D01*
X97005000Y-148112500D02*
X96675000Y-148352500D01*
X96675000Y-147872500D01*
X97005000Y-148112500D01*
G36*
X97005000Y-148112500D02*
G01*
X96675000Y-148352500D01*
X96675000Y-147872500D01*
X97005000Y-148112500D01*
G37*
%TO.C,R7*%
X76010436Y-162085000D02*
X76464564Y-162085000D01*
X76010436Y-163555000D02*
X76464564Y-163555000D01*
%TO.C,U19*%
X61135000Y-137397500D02*
X61515000Y-137397500D01*
X61135000Y-142587500D02*
X61135000Y-137397500D01*
X61135000Y-142587500D02*
X61135000Y-147777500D01*
X61135000Y-147777500D02*
X61515000Y-147777500D01*
X79765000Y-137397500D02*
X79385000Y-137397500D01*
X79765000Y-142587500D02*
X79765000Y-137397500D01*
X79765000Y-142587500D02*
X79765000Y-147777500D01*
X79765000Y-147777500D02*
X79385000Y-147777500D01*
X61515000Y-148302500D02*
X61185000Y-148542500D01*
X61185000Y-148062500D01*
X61515000Y-148302500D01*
G36*
X61515000Y-148302500D02*
G01*
X61185000Y-148542500D01*
X61185000Y-148062500D01*
X61515000Y-148302500D01*
G37*
%TO.C,R1*%
X47360436Y-137465000D02*
X47814564Y-137465000D01*
X47360436Y-138935000D02*
X47814564Y-138935000D01*
%TO.C,R8*%
X66510436Y-159945000D02*
X66964564Y-159945000D01*
X66510436Y-161415000D02*
X66964564Y-161415000D01*
%TO.C,R10*%
X76010436Y-159935000D02*
X76464564Y-159935000D01*
X76010436Y-161405000D02*
X76464564Y-161405000D01*
%TO.C,C1*%
X55811252Y-144765000D02*
X55288748Y-144765000D01*
X55811252Y-146235000D02*
X55288748Y-146235000D01*
%TO.C,R20*%
X51610436Y-134265000D02*
X52064564Y-134265000D01*
X51610436Y-135735000D02*
X52064564Y-135735000D01*
%TO.C,J2*%
X89630000Y-166170000D02*
X89630000Y-178990000D01*
X89630000Y-166170000D02*
X92230000Y-166170000D01*
X89630000Y-178990000D02*
X94830000Y-178990000D01*
X92230000Y-166170000D02*
X92230000Y-168770000D01*
X92230000Y-168770000D02*
X94830000Y-168770000D01*
X93500000Y-166170000D02*
X94830000Y-166170000D01*
X94830000Y-166170000D02*
X94830000Y-167500000D01*
X94830000Y-168770000D02*
X94830000Y-178990000D01*
%TO.C,R4*%
X71210436Y-164235000D02*
X71664564Y-164235000D01*
X71210436Y-165705000D02*
X71664564Y-165705000D01*
%TO.C,R19*%
X47360436Y-134265000D02*
X47814564Y-134265000D01*
X47360436Y-135735000D02*
X47814564Y-135735000D01*
%TO.C,J4*%
X46530000Y-139690000D02*
X46530000Y-144890000D01*
X46530000Y-139690000D02*
X49130000Y-139690000D01*
X46530000Y-144890000D02*
X51730000Y-144890000D01*
X49130000Y-139690000D02*
X49130000Y-142290000D01*
X49130000Y-142290000D02*
X51730000Y-142290000D01*
X50400000Y-139690000D02*
X51730000Y-139690000D01*
X51730000Y-139690000D02*
X51730000Y-141020000D01*
X51730000Y-142290000D02*
X51730000Y-144890000D01*
%TO.C,U8*%
X79375000Y-176585000D02*
X79375000Y-178535000D01*
X79375000Y-176585000D02*
X79375000Y-174635000D01*
X88245000Y-176585000D02*
X88245000Y-178535000D01*
X88245000Y-176585000D02*
X88245000Y-174635000D01*
X79440000Y-179285000D02*
X79110000Y-179525000D01*
X79110000Y-179045000D01*
X79440000Y-179285000D01*
G36*
X79440000Y-179285000D02*
G01*
X79110000Y-179525000D01*
X79110000Y-179045000D01*
X79440000Y-179285000D01*
G37*
%TO.C,R5*%
X66510436Y-162095000D02*
X66964564Y-162095000D01*
X66510436Y-163565000D02*
X66964564Y-163565000D01*
%TO.C,U15*%
X109630000Y-151830000D02*
X109630000Y-152065000D01*
X109630000Y-164850000D02*
X109630000Y-164615000D01*
X113490000Y-151830000D02*
X109630000Y-151830000D01*
X113490000Y-151830000D02*
X117350000Y-151830000D01*
X113490000Y-164850000D02*
X109630000Y-164850000D01*
X113490000Y-164850000D02*
X117350000Y-164850000D01*
X117350000Y-151830000D02*
X117350000Y-152065000D01*
X117350000Y-164850000D02*
X117350000Y-164615000D01*
X108840000Y-152065000D02*
X108500000Y-151595000D01*
X109180000Y-151595000D01*
X108840000Y-152065000D01*
G36*
X108840000Y-152065000D02*
G01*
X108500000Y-151595000D01*
X109180000Y-151595000D01*
X108840000Y-152065000D01*
G37*
D13*
%TO.C,J6*%
X42675000Y-178644400D02*
X42675000Y-171394400D01*
X42675000Y-181883473D02*
X42675000Y-181405328D01*
X42675000Y-184372545D02*
X42675000Y-181872545D01*
X42675000Y-184372545D02*
X43690032Y-184372545D01*
X43690032Y-184372545D02*
X49190032Y-184372545D01*
X43940032Y-181872545D02*
X42675000Y-181872545D01*
X49190032Y-183172545D02*
X49190032Y-184372545D01*
X49190032Y-184372545D02*
X54690032Y-184372545D01*
X54625000Y-184372545D02*
X57425000Y-184372545D01*
X55925000Y-169894400D02*
X53175000Y-169894400D01*
X56025000Y-181872545D02*
X57425000Y-181872545D01*
X57425000Y-178644400D02*
X57425000Y-171394400D01*
X57425000Y-181872545D02*
X57425000Y-181394400D01*
X57425000Y-184372545D02*
X57425000Y-181872545D01*
D14*
%TO.C,R6*%
X71210436Y-162085000D02*
X71664564Y-162085000D01*
X71210436Y-163555000D02*
X71664564Y-163555000D01*
%TO.C,U3*%
X109180000Y-167260000D02*
X108840000Y-166790000D01*
X109520000Y-166790000D01*
X109180000Y-167260000D01*
G36*
X109180000Y-167260000D02*
G01*
X108840000Y-166790000D01*
X109520000Y-166790000D01*
X109180000Y-167260000D01*
G37*
X113830000Y-180045000D02*
X109970000Y-180045000D01*
X109970000Y-180045000D02*
X109970000Y-179810000D01*
X109970000Y-167025000D02*
X109970000Y-167260000D01*
X113830000Y-167025000D02*
X109970000Y-167025000D01*
X113830000Y-180045000D02*
X117690000Y-180045000D01*
X117690000Y-180045000D02*
X117690000Y-179810000D01*
X117690000Y-167025000D02*
X117690000Y-167260000D01*
X113830000Y-167025000D02*
X117690000Y-167025000D01*
%TD*%
M02*
