M48
; DRILL file {KiCad 8.0.8+dfsg-1} date 2025-07-24T04:48:23-0400
; FORMAT={-:-/ absolute / inch / decimal}
; #@! TF.CreationDate,2025-07-24T04:48:23-04:00
; #@! TF.GenerationSoftware,Kicad,Pcbnew,8.0.8+dfsg-1
; #@! TF.FileFunction,Plated,1,6,PTH
FMAT,2
INCH
; #@! TA.AperFunction,Plated,PTH,ViaDrill
T1C0.0118
; #@! TA.AperFunction,Plated,PTH,ComponentDrill
T2C0.0315
; #@! TA.AperFunction,Plated,PTH,ComponentDrill
T3C0.0350
; #@! TA.AperFunction,Plated,PTH,ComponentDrill
T4C0.0362
; #@! TA.AperFunction,Plated,PTH,ComponentDrill
T5C0.0394
; #@! TA.AperFunction,Plated,PTH,ComponentDrill
T6C0.0400
; #@! TA.AperFunction,Plated,PTH,ComponentDrill
T7C0.0902
; #@! TA.AperFunction,Plated,PTH,ComponentDrill
T8C0.0906
; #@! TA.AperFunction,Plated,PTH,ComponentDrill
T9C0.1260
%
G90
G05
T1
X1.7966Y-5.307
X1.8331Y-6.6359
X1.8677Y-5.4814
X1.922Y-6.6366
X1.9494Y-5.2995
X1.966Y-6.7458
X1.9673Y-5.4223
X1.9791Y-5.3611
X2.0078Y-6.6364
X2.0402Y-6.5786
X2.1177Y-5.3233
X2.1632Y-5.9471
X2.2867Y-6.2697
X2.3237Y-6.5762
X2.3667Y-5.7559
X2.3696Y-6.1622
X2.3697Y-6.1137
X2.4114Y-5.8418
X2.4199Y-5.3424
X2.4355Y-6.4864
X2.4744Y-5.4503
X2.4936Y-5.6334
X2.4965Y-6.2397
X2.5031Y-6.1836
X2.5043Y-6.3017
X2.5048Y-6.3565
X2.506Y-5.559
X2.5219Y-5.4592
X2.5316Y-5.7494
X2.5321Y-6.4082
X2.5397Y-5.5921
X2.5451Y-5.3422
X2.5516Y-6.477
X2.5639Y-6.0947
X2.5999Y-6.2098
X2.6005Y-5.5637
X2.6008Y-5.4786
X2.6111Y-5.702
X2.6255Y-6.3664
X2.6275Y-6.5305
X2.6296Y-5.3429
X2.6596Y-5.8847
X2.6615Y-6.2743
X2.7104Y-6.1167
X2.7175Y-6.167
X2.7241Y-5.9138
X2.7286Y-5.5533
X2.7289Y-5.6522
X2.7309Y-5.6865
X2.7326Y-6.2998
X2.7364Y-5.7554
X2.7364Y-6.4949
X2.7368Y-6.3766
X2.7417Y-5.4643
X2.7554Y-7.1042
X2.7728Y-5.8859
X2.8457Y-6.0265
X2.8499Y-6.1129
X2.8502Y-6.2166
X2.8519Y-5.8836
X2.8661Y-5.6636
X2.8691Y-5.5136
X2.8753Y-5.461
X2.8847Y-5.6006
X2.8886Y-6.5197
X2.8922Y-6.0264
X2.8926Y-6.3496
X2.8929Y-5.3405
X2.8979Y-6.7828
X2.9037Y-6.1597
X2.9056Y-5.7625
X2.9065Y-6.4246
X2.9107Y-6.0893
X2.9107Y-6.1216
X2.9185Y-6.2762
X2.922Y-6.4774
X2.9253Y-6.3562
X2.9341Y-5.8844
X2.9587Y-5.5028
X2.9656Y-6.4877
X2.9747Y-5.4737
X2.975Y-5.342
X2.9863Y-5.5435
X2.9987Y-5.6382
X3.0028Y-6.4872
X3.0069Y-5.467
X3.0274Y-5.706
X3.0304Y-5.3419
X3.0495Y-5.9186
X3.0641Y-6.0799
X3.0728Y-5.4574
X3.0918Y-6.4069
X3.093Y-5.489
X3.1006Y-5.3418
X3.1032Y-5.6062
X3.1179Y-7.0685
X3.1312Y-6.3006
X3.1354Y-6.441
X3.1629Y-6.2892
X3.182Y-6.63
X3.2161Y-5.8805
X3.2194Y-6.6296
X3.2265Y-6.969
X3.2265Y-5.6062
X3.2401Y-5.7361
X3.2408Y-5.7026
X3.2415Y-5.4546
X3.2496Y-6.2403
X3.2514Y-5.8267
X3.2896Y-6.0819
X3.2904Y-6.114
X3.2918Y-6.9706
X3.2926Y-6.0405
X3.2996Y-6.241
X3.3005Y-6.4312
X3.3363Y-6.9444
X3.3407Y-5.368
X3.3834Y-5.4572
X3.4058Y-5.6095
X3.4138Y-5.7879
X3.4161Y-5.5117
X3.423Y-6.7639
X3.4259Y-6.3041
X3.4267Y-6.2483
X3.4359Y-5.5728
X3.437Y-5.9226
X3.4508Y-6.5731
X3.4521Y-5.7618
X3.4626Y-6.0338
X3.4716Y-5.496
X3.4716Y-5.631
X3.4881Y-6.3848
X3.4931Y-6.7283
X3.5031Y-6.2326
X3.5201Y-6.106
X3.5367Y-6.3195
X3.5379Y-5.4837
X3.557Y-5.7193
X3.573Y-5.796
X3.5856Y-5.6248
X3.5989Y-5.555
X3.6098Y-5.7193
X3.615Y-5.4438
X3.622Y-5.8287
X3.6387Y-5.9463
X3.6684Y-5.8845
X3.7032Y-5.9463
X3.7175Y-5.883
X3.7261Y-5.3583
X3.7325Y-5.5635
X3.7347Y-5.9463
X3.747Y-6.2541
X3.7501Y-5.4514
X3.751Y-6.6622
X3.7576Y-5.7271
X3.7893Y-5.368
X3.7939Y-5.8906
X3.8598Y-5.63
X3.8653Y-5.8864
X3.8661Y-5.7613
X3.8671Y-5.7115
X3.8684Y-6.8156
X3.8719Y-6.7252
X3.8748Y-6.505
X3.8765Y-5.9508
X3.8884Y-5.7352
X3.8945Y-5.448
X3.9035Y-6.4159
X3.905Y-5.9668
X3.9105Y-6.2793
X3.9119Y-6.1423
X3.9132Y-6.1896
X3.9187Y-5.7741
X3.9221Y-5.6884
X3.9222Y-6.0793
X3.9314Y-5.5538
X3.9332Y-6.6768
X3.9455Y-5.8947
X3.9474Y-6.3538
X3.9592Y-6.2669
X3.9638Y-6.1959
X3.9679Y-6.1053
X3.9735Y-5.9367
X3.9891Y-5.7328
X3.9932Y-5.8836
X3.9947Y-6.3445
X3.9952Y-6.2185
X3.9956Y-5.478
X3.997Y-6.3917
X4.0009Y-5.5542
X4.0063Y-6.112
X4.0293Y-6.0683
X4.0324Y-6.2912
X4.0328Y-6.1524
X4.0375Y-6.2007
X4.0382Y-6.661
X4.0433Y-5.7529
X4.0485Y-5.8974
X4.0557Y-5.562
X4.057Y-6.2637
X4.0643Y-6.0141
X4.0643Y-6.108
X4.0643Y-6.1606
X4.0698Y-6.8843
X4.0765Y-5.4428
X4.0847Y-5.677
X4.0866Y-6.8271
X4.0905Y-6.3703
X4.0953Y-6.7697
X4.0958Y-5.7504
X4.1009Y-6.4883
X4.1021Y-5.5825
X4.108Y-6.9256
X4.108Y-5.4371
X4.11Y-5.6962
X4.1101Y-6.8896
X4.1147Y-7.0099
X4.1192Y-6.8361
X4.1821Y-6.5337
X4.2255Y-6.5095
X4.2273Y-5.4501
X4.2294Y-5.6487
X4.2299Y-5.6805
X4.2316Y-6.381
X4.2335Y-6.2871
X4.2342Y-6.772
X4.2368Y-7.0406
X4.2369Y-6.7051
X4.2375Y-5.5768
X4.2375Y-5.7689
X4.24Y-5.712
X4.242Y-6.8235
X4.2426Y-6.9433
X4.2495Y-6.983
X4.2533Y-5.8993
X4.2597Y-6.5503
X4.2988Y-5.336
X4.3005Y-5.8918
X4.3012Y-7.1042
X4.3489Y-5.7248
X4.3555Y-6.5574
X4.3596Y-6.7591
X4.3636Y-6.8098
X4.3657Y-6.641
X4.3665Y-6.1792
X4.3673Y-6.2789
X4.3694Y-5.7758
X4.3695Y-6.6883
X4.3754Y-5.8893
X4.3764Y-6.0021
X4.3777Y-6.4342
X4.3795Y-5.4906
X4.3835Y-6.7366
X4.389Y-6.1571
X4.3908Y-6.0704
X4.3944Y-5.6268
X4.3962Y-5.7028
X4.3962Y-6.578
X4.413Y-6.6568
X4.4171Y-5.4397
X4.4185Y-6.8193
X4.4186Y-6.2404
X4.4212Y-6.3885
X4.4277Y-6.2089
X4.4402Y-6.7927
X4.4437Y-6.6364
X4.4477Y-5.5027
X4.4509Y-6.8615
X4.4557Y-5.8981
X4.4673Y-6.6934
X4.4694Y-6.5718
X4.4782Y-6.0813
X4.4842Y-6.3887
X4.4863Y-5.7754
X4.4874Y-5.6126
X4.4921Y-6.2893
X4.4966Y-5.4401
X4.5026Y-6.7414
X4.5038Y-6.6364
X4.5167Y-5.9348
X4.5324Y-5.8417
X4.533Y-5.7817
X4.5348Y-6.7419
X4.5357Y-6.4561
X4.5374Y-6.6616
X4.5387Y-6.1421
X4.5475Y-5.9864
X4.556Y-5.3739
X4.5601Y-6.0652
X4.5625Y-6.1834
X4.5709Y-6.2591
X4.571Y-6.4123
X4.5813Y-6.6389
X4.5889Y-6.0187
X4.5919Y-6.3887
X4.5921Y-6.451
X4.5936Y-6.08
X4.5945Y-6.2895
X4.5949Y-5.6007
X4.6017Y-5.5106
X4.6022Y-5.5586
X4.6045Y-6.9122
X4.6046Y-7.0057
X4.6049Y-6.8132
X4.6051Y-6.7421
X4.6106Y-6.8789
X4.7126Y-6.3775
X4.7139Y-5.7716
X4.7199Y-6.7755
X4.7207Y-6.7118
X4.7208Y-6.0134
X4.7232Y-6.5007
X4.7339Y-6.6463
X4.737Y-6.3018
X4.9779Y-6.1177
X4.9881Y-6.0372
X5.1597Y-6.8784
T2
X1.9091Y-5.9008
X1.9091Y-6.5008
X2.2091Y-5.9008
X2.2091Y-6.5008
X5.1339Y-6.2992
X5.1339Y-6.3992
X5.1339Y-6.4992
X5.1339Y-6.5992
X5.1339Y-6.6992
X5.1339Y-6.7992
X5.2339Y-6.1992
X5.2339Y-6.2992
X5.2339Y-6.3992
X5.2339Y-6.4992
X5.2339Y-6.5992
X5.2339Y-6.6992
X5.2339Y-6.7992
X5.2339Y-6.8992
X5.3339Y-6.1992
X5.3339Y-6.2992
X5.3339Y-6.7992
X5.3339Y-6.8992
X5.4339Y-6.1992
X5.4339Y-6.2992
X5.4339Y-6.7992
X5.4339Y-6.8992
X5.5339Y-6.1992
X5.5339Y-6.2992
X5.5339Y-6.7992
X5.5339Y-6.8992
X5.6339Y-6.1992
X5.6339Y-6.2992
X5.6339Y-6.7992
X5.6339Y-6.8992
X5.7339Y-6.1992
X5.7339Y-6.2992
X5.7339Y-6.3992
X5.7339Y-6.4992
X5.7339Y-6.5992
X5.7339Y-6.6992
X5.7339Y-6.7992
X5.7339Y-6.8992
X5.8339Y-6.2992
X5.8339Y-6.3992
X5.8339Y-6.4992
X5.8339Y-6.5992
X5.8339Y-6.6992
X5.8339Y-6.7992
T3
X2.5157Y-6.6657
X2.5157Y-6.7638
X2.5965Y-6.7638
X2.6988Y-6.7638
X2.7795Y-6.6657
X2.7795Y-6.7638
T4
X1.5808Y-5.5094
X1.5808Y-5.6079
X1.5808Y-5.6866
X1.5808Y-5.785
X1.6839Y-5.5094
X1.6839Y-5.6079
X1.6839Y-5.6866
X1.6839Y-5.785
T5
X1.3752Y-6.4382
X1.3752Y-6.5283
X1.3752Y-6.6185
X1.3752Y-6.7087
X1.3752Y-6.7988
X1.4531Y-6.4833
X1.4531Y-6.5734
X1.4531Y-6.6636
X1.4531Y-6.7537
X1.4531Y-6.8439
X1.5311Y-6.4382
X1.5311Y-6.5283
X1.5311Y-6.6185
X1.5311Y-6.7087
X1.5311Y-6.7988
X1.8843Y-5.552
X1.8843Y-5.652
X1.9843Y-5.552
X1.9843Y-5.652
X2.1969Y-5.4124
X2.1969Y-5.5124
X2.1969Y-5.6124
X3.5811Y-6.5945
X3.5811Y-6.6945
X3.5811Y-6.7945
X3.5811Y-6.8945
X3.5811Y-6.9945
X3.6811Y-6.5945
X3.6811Y-6.6945
X3.6811Y-6.7945
X3.6811Y-6.8945
X3.6811Y-6.9945
X5.1441Y-5.8528
X5.1441Y-5.9528
X5.2441Y-5.8528
X5.2441Y-5.9528
X5.3441Y-5.8528
X5.3441Y-5.9528
X5.4441Y-5.8528
X5.4441Y-5.9528
X5.5441Y-5.8528
X5.5441Y-5.9528
T6
X2.228Y-5.265
X2.328Y-5.265
X2.428Y-5.265
X2.488Y-7.165
X2.528Y-5.265
X2.588Y-7.165
X2.628Y-5.265
X2.688Y-7.165
X2.728Y-5.265
X2.788Y-7.165
X2.888Y-5.265
X2.888Y-7.165
X2.988Y-5.265
X3.088Y-5.265
X3.088Y-7.165
X3.188Y-5.265
X3.188Y-7.165
X3.288Y-5.265
X3.288Y-7.165
X3.388Y-5.265
X3.388Y-7.165
X3.488Y-5.265
X3.488Y-7.165
X3.588Y-5.265
X3.588Y-7.165
X3.593Y-6.065
X3.593Y-6.165
X3.593Y-6.265
X3.688Y-7.165
X3.693Y-6.065
X3.693Y-6.165
X3.693Y-6.265
X3.788Y-5.265
X3.788Y-7.165
X3.888Y-5.265
X3.988Y-5.265
X3.988Y-7.165
X4.088Y-5.265
X4.088Y-7.165
X4.188Y-5.265
X4.188Y-7.165
X4.288Y-5.265
X4.288Y-7.165
X4.388Y-5.265
X4.388Y-7.165
X4.488Y-5.265
X4.488Y-7.165
X4.588Y-7.165
X4.688Y-7.165
X4.788Y-5.265
X4.788Y-5.365
X4.788Y-5.465
X4.788Y-5.565
X4.788Y-5.665
X4.788Y-5.765
X4.788Y-5.865
X4.788Y-5.965
X4.788Y-6.065
X4.788Y-6.165
X4.788Y-6.265
X4.788Y-6.365
X4.788Y-6.465
X4.788Y-6.565
X4.788Y-6.665
X4.788Y-6.765
X4.788Y-6.865
X4.788Y-6.965
X4.888Y-5.265
X4.888Y-5.365
X4.888Y-5.465
X4.888Y-5.565
X4.888Y-5.665
X4.888Y-5.765
X4.888Y-5.865
X4.888Y-5.965
X4.888Y-6.065
X4.888Y-6.165
X4.888Y-6.265
X4.888Y-6.365
X4.888Y-6.465
X4.888Y-6.565
X4.888Y-6.665
X4.888Y-6.765
X4.888Y-6.865
X4.888Y-6.965
T7
X2.3815Y-6.8819
X2.6476Y-6.9138
X2.9138Y-6.8819
T8
X1.4741Y-5.3886
X1.4741Y-5.9059
X1.6977Y-5.3886
X1.6977Y-5.9059
T9
X1.4752Y-6.1368
X1.4752Y-7.1211
M30
