%TF.GenerationSoftware,KiCad,Pcbnew,8.0.8+dfsg-1*%
%TF.CreationDate,2025-07-24T04:48:21-04:00*%
%TF.ProjectId,VGA_SRAM_SHUIELD_DOUBLE_BUFFER,5647415f-5352-4414-9d5f-53485549454c,rev?*%
%TF.SameCoordinates,Original*%
%TF.FileFunction,Paste,Bot*%
%TF.FilePolarity,Positive*%
%FSLAX46Y46*%
G04 Gerber Fmt 4.6, Leading zero omitted, Abs format (unit mm)*
G04 Created by KiCad (PCBNEW 8.0.8+dfsg-1) date 2025-07-24 04:48:21*
%MOMM*%
%LPD*%
G01*
G04 APERTURE LIST*
G04 Aperture macros list*
%AMRoundRect*
0 Rectangle with rounded corners*
0 $1 Rounding radius*
0 $2 $3 $4 $5 $6 $7 $8 $9 X,Y pos of 4 corners*
0 Add a 4 corners polygon primitive as box body*
4,1,4,$2,$3,$4,$5,$6,$7,$8,$9,$2,$3,0*
0 Add four circle primitives for the rounded corners*
1,1,$1+$1,$2,$3*
1,1,$1+$1,$4,$5*
1,1,$1+$1,$6,$7*
1,1,$1+$1,$8,$9*
0 Add four rect primitives between the rounded corners*
20,1,$1+$1,$2,$3,$4,$5,0*
20,1,$1+$1,$4,$5,$6,$7,0*
20,1,$1+$1,$6,$7,$8,$9,0*
20,1,$1+$1,$8,$9,$2,$3,0*%
G04 Aperture macros list end*
%ADD10RoundRect,0.150000X0.800000X0.150000X-0.800000X0.150000X-0.800000X-0.150000X0.800000X-0.150000X0*%
G04 APERTURE END LIST*
D10*
%TO.C,U9*%
X106000000Y-167855000D03*
X106000000Y-169125000D03*
X106000000Y-170395000D03*
X106000000Y-171665000D03*
X106000000Y-172935000D03*
X106000000Y-174205000D03*
X106000000Y-175475000D03*
X106000000Y-176745000D03*
X106000000Y-178015000D03*
X106000000Y-179285000D03*
X96800000Y-179285000D03*
X96800000Y-178015000D03*
X96800000Y-176745000D03*
X96800000Y-175475000D03*
X96800000Y-174205000D03*
X96800000Y-172935000D03*
X96800000Y-171665000D03*
X96800000Y-170395000D03*
X96800000Y-169125000D03*
X96800000Y-167855000D03*
%TD*%
%TO.C,U21*%
X80500000Y-137210000D03*
X80500000Y-138480000D03*
X80500000Y-139750000D03*
X80500000Y-141020000D03*
X80500000Y-142290000D03*
X80500000Y-143560000D03*
X80500000Y-144830000D03*
X80500000Y-146100000D03*
X80500000Y-147370000D03*
X80500000Y-148640000D03*
X71300000Y-148640000D03*
X71300000Y-147370000D03*
X71300000Y-146100000D03*
X71300000Y-144830000D03*
X71300000Y-143560000D03*
X71300000Y-142290000D03*
X71300000Y-141020000D03*
X71300000Y-139750000D03*
X71300000Y-138480000D03*
X71300000Y-137210000D03*
%TD*%
%TO.C,U18*%
X118360000Y-137140000D03*
X118360000Y-138410000D03*
X118360000Y-139680000D03*
X118360000Y-140950000D03*
X118360000Y-142220000D03*
X118360000Y-143490000D03*
X118360000Y-144760000D03*
X118360000Y-146030000D03*
X118360000Y-147300000D03*
X118360000Y-148570000D03*
X109160000Y-148570000D03*
X109160000Y-147300000D03*
X109160000Y-146030000D03*
X109160000Y-144760000D03*
X109160000Y-143490000D03*
X109160000Y-142220000D03*
X109160000Y-140950000D03*
X109160000Y-139680000D03*
X109160000Y-138410000D03*
X109160000Y-137140000D03*
%TD*%
%TO.C,U16*%
X105910000Y-137210000D03*
X105910000Y-138480000D03*
X105910000Y-139750000D03*
X105910000Y-141020000D03*
X105910000Y-142290000D03*
X105910000Y-143560000D03*
X105910000Y-144830000D03*
X105910000Y-146100000D03*
X105910000Y-147370000D03*
X105910000Y-148640000D03*
X96710000Y-148640000D03*
X96710000Y-147370000D03*
X96710000Y-146100000D03*
X96710000Y-144830000D03*
X96710000Y-143560000D03*
X96710000Y-142290000D03*
X96710000Y-141020000D03*
X96710000Y-139750000D03*
X96710000Y-138480000D03*
X96710000Y-137210000D03*
%TD*%
%TO.C,U10*%
X109250000Y-167785000D03*
X109250000Y-169055000D03*
X109250000Y-170325000D03*
X109250000Y-171595000D03*
X109250000Y-172865000D03*
X109250000Y-174135000D03*
X109250000Y-175405000D03*
X109250000Y-176675000D03*
X109250000Y-177945000D03*
X109250000Y-179215000D03*
X118450000Y-179215000D03*
X118450000Y-177945000D03*
X118450000Y-176675000D03*
X118450000Y-175405000D03*
X118450000Y-174135000D03*
X118450000Y-172865000D03*
X118450000Y-171595000D03*
X118450000Y-170325000D03*
X118450000Y-169055000D03*
X118450000Y-167785000D03*
%TD*%
%TO.C,U5*%
X106000000Y-152535000D03*
X106000000Y-153805000D03*
X106000000Y-155075000D03*
X106000000Y-156345000D03*
X106000000Y-157615000D03*
X106000000Y-158885000D03*
X106000000Y-160155000D03*
X106000000Y-161425000D03*
X106000000Y-162695000D03*
X106000000Y-163965000D03*
X96800000Y-163965000D03*
X96800000Y-162695000D03*
X96800000Y-161425000D03*
X96800000Y-160155000D03*
X96800000Y-158885000D03*
X96800000Y-157615000D03*
X96800000Y-156345000D03*
X96800000Y-155075000D03*
X96800000Y-153805000D03*
X96800000Y-152535000D03*
%TD*%
%TO.C,U6*%
X118450000Y-152465000D03*
X118450000Y-153735000D03*
X118450000Y-155005000D03*
X118450000Y-156275000D03*
X118450000Y-157545000D03*
X118450000Y-158815000D03*
X118450000Y-160085000D03*
X118450000Y-161355000D03*
X118450000Y-162625000D03*
X118450000Y-163895000D03*
X109250000Y-163895000D03*
X109250000Y-162625000D03*
X109250000Y-161355000D03*
X109250000Y-160085000D03*
X109250000Y-158815000D03*
X109250000Y-157545000D03*
X109250000Y-156275000D03*
X109250000Y-155005000D03*
X109250000Y-153735000D03*
X109250000Y-152465000D03*
%TD*%
%TO.C,U2*%
X70860000Y-152520000D03*
X70860000Y-153790000D03*
X70860000Y-155060000D03*
X70860000Y-156330000D03*
X70860000Y-157600000D03*
X70860000Y-158870000D03*
X70860000Y-160140000D03*
X70860000Y-161410000D03*
X70860000Y-162680000D03*
X70860000Y-163950000D03*
X61660000Y-163950000D03*
X61660000Y-162680000D03*
X61660000Y-161410000D03*
X61660000Y-160140000D03*
X61660000Y-158870000D03*
X61660000Y-157600000D03*
X61660000Y-156330000D03*
X61660000Y-155060000D03*
X61660000Y-153790000D03*
X61660000Y-152520000D03*
%TD*%
%TO.C,U17*%
X93320000Y-137210000D03*
X93320000Y-138480000D03*
X93320000Y-139750000D03*
X93320000Y-141020000D03*
X93320000Y-142290000D03*
X93320000Y-143560000D03*
X93320000Y-144830000D03*
X93320000Y-146100000D03*
X93320000Y-147370000D03*
X93320000Y-148640000D03*
X84120000Y-148640000D03*
X84120000Y-147370000D03*
X84120000Y-146100000D03*
X84120000Y-144830000D03*
X84120000Y-143560000D03*
X84120000Y-142290000D03*
X84120000Y-141020000D03*
X84120000Y-139750000D03*
X84120000Y-138480000D03*
X84120000Y-137210000D03*
%TD*%
%TO.C,U1*%
X85470000Y-152535000D03*
X85470000Y-153805000D03*
X85470000Y-155075000D03*
X85470000Y-156345000D03*
X85470000Y-157615000D03*
X85470000Y-158885000D03*
X85470000Y-160155000D03*
X85470000Y-161425000D03*
X85470000Y-162695000D03*
X85470000Y-163965000D03*
X76270000Y-163965000D03*
X76270000Y-162695000D03*
X76270000Y-161425000D03*
X76270000Y-160155000D03*
X76270000Y-158885000D03*
X76270000Y-157615000D03*
X76270000Y-156345000D03*
X76270000Y-155075000D03*
X76270000Y-153805000D03*
X76270000Y-152535000D03*
%TD*%
%TO.C,U22*%
X67850000Y-137210000D03*
X67850000Y-138480000D03*
X67850000Y-139750000D03*
X67850000Y-141020000D03*
X67850000Y-142290000D03*
X67850000Y-143560000D03*
X67850000Y-144830000D03*
X67850000Y-146100000D03*
X67850000Y-147370000D03*
X67850000Y-148640000D03*
X58650000Y-148640000D03*
X58650000Y-147370000D03*
X58650000Y-146100000D03*
X58650000Y-144830000D03*
X58650000Y-143560000D03*
X58650000Y-142290000D03*
X58650000Y-141020000D03*
X58650000Y-139750000D03*
X58650000Y-138480000D03*
X58650000Y-137210000D03*
%TD*%
M02*
