%TF.GenerationSoftware,KiCad,Pcbnew,8.0.8+dfsg-1*%
%TF.CreationDate,2025-07-24T04:48:21-04:00*%
%TF.ProjectId,VGA_SRAM_SHUIELD_DOUBLE_BUFFER,5647415f-5352-4414-9d5f-53485549454c,rev?*%
%TF.SameCoordinates,Original*%
%TF.FileFunction,Legend,Bot*%
%TF.FilePolarity,Positive*%
%FSLAX46Y46*%
G04 Gerber Fmt 4.6, Leading zero omitted, Abs format (unit mm)*
G04 Created by KiCad (PCBNEW 8.0.8+dfsg-1) date 2025-07-24 04:48:21*
%MOMM*%
%LPD*%
G01*
G04 APERTURE LIST*
%ADD10C,0.150000*%
%ADD11C,0.120000*%
G04 APERTURE END LIST*
D10*
X102161904Y-165674819D02*
X102161904Y-166484342D01*
X102161904Y-166484342D02*
X102114285Y-166579580D01*
X102114285Y-166579580D02*
X102066666Y-166627200D01*
X102066666Y-166627200D02*
X101971428Y-166674819D01*
X101971428Y-166674819D02*
X101780952Y-166674819D01*
X101780952Y-166674819D02*
X101685714Y-166627200D01*
X101685714Y-166627200D02*
X101638095Y-166579580D01*
X101638095Y-166579580D02*
X101590476Y-166484342D01*
X101590476Y-166484342D02*
X101590476Y-165674819D01*
X101066666Y-166674819D02*
X100876190Y-166674819D01*
X100876190Y-166674819D02*
X100780952Y-166627200D01*
X100780952Y-166627200D02*
X100733333Y-166579580D01*
X100733333Y-166579580D02*
X100638095Y-166436723D01*
X100638095Y-166436723D02*
X100590476Y-166246247D01*
X100590476Y-166246247D02*
X100590476Y-165865295D01*
X100590476Y-165865295D02*
X100638095Y-165770057D01*
X100638095Y-165770057D02*
X100685714Y-165722438D01*
X100685714Y-165722438D02*
X100780952Y-165674819D01*
X100780952Y-165674819D02*
X100971428Y-165674819D01*
X100971428Y-165674819D02*
X101066666Y-165722438D01*
X101066666Y-165722438D02*
X101114285Y-165770057D01*
X101114285Y-165770057D02*
X101161904Y-165865295D01*
X101161904Y-165865295D02*
X101161904Y-166103390D01*
X101161904Y-166103390D02*
X101114285Y-166198628D01*
X101114285Y-166198628D02*
X101066666Y-166246247D01*
X101066666Y-166246247D02*
X100971428Y-166293866D01*
X100971428Y-166293866D02*
X100780952Y-166293866D01*
X100780952Y-166293866D02*
X100685714Y-166246247D01*
X100685714Y-166246247D02*
X100638095Y-166198628D01*
X100638095Y-166198628D02*
X100590476Y-166103390D01*
X77138094Y-135029819D02*
X77138094Y-135839342D01*
X77138094Y-135839342D02*
X77090475Y-135934580D01*
X77090475Y-135934580D02*
X77042856Y-135982200D01*
X77042856Y-135982200D02*
X76947618Y-136029819D01*
X76947618Y-136029819D02*
X76757142Y-136029819D01*
X76757142Y-136029819D02*
X76661904Y-135982200D01*
X76661904Y-135982200D02*
X76614285Y-135934580D01*
X76614285Y-135934580D02*
X76566666Y-135839342D01*
X76566666Y-135839342D02*
X76566666Y-135029819D01*
X76138094Y-135125057D02*
X76090475Y-135077438D01*
X76090475Y-135077438D02*
X75995237Y-135029819D01*
X75995237Y-135029819D02*
X75757142Y-135029819D01*
X75757142Y-135029819D02*
X75661904Y-135077438D01*
X75661904Y-135077438D02*
X75614285Y-135125057D01*
X75614285Y-135125057D02*
X75566666Y-135220295D01*
X75566666Y-135220295D02*
X75566666Y-135315533D01*
X75566666Y-135315533D02*
X75614285Y-135458390D01*
X75614285Y-135458390D02*
X76185713Y-136029819D01*
X76185713Y-136029819D02*
X75566666Y-136029819D01*
X74614285Y-136029819D02*
X75185713Y-136029819D01*
X74899999Y-136029819D02*
X74899999Y-135029819D01*
X74899999Y-135029819D02*
X74995237Y-135172676D01*
X74995237Y-135172676D02*
X75090475Y-135267914D01*
X75090475Y-135267914D02*
X75185713Y-135315533D01*
X114998094Y-134959819D02*
X114998094Y-135769342D01*
X114998094Y-135769342D02*
X114950475Y-135864580D01*
X114950475Y-135864580D02*
X114902856Y-135912200D01*
X114902856Y-135912200D02*
X114807618Y-135959819D01*
X114807618Y-135959819D02*
X114617142Y-135959819D01*
X114617142Y-135959819D02*
X114521904Y-135912200D01*
X114521904Y-135912200D02*
X114474285Y-135864580D01*
X114474285Y-135864580D02*
X114426666Y-135769342D01*
X114426666Y-135769342D02*
X114426666Y-134959819D01*
X113426666Y-135959819D02*
X113998094Y-135959819D01*
X113712380Y-135959819D02*
X113712380Y-134959819D01*
X113712380Y-134959819D02*
X113807618Y-135102676D01*
X113807618Y-135102676D02*
X113902856Y-135197914D01*
X113902856Y-135197914D02*
X113998094Y-135245533D01*
X112855237Y-135388390D02*
X112950475Y-135340771D01*
X112950475Y-135340771D02*
X112998094Y-135293152D01*
X112998094Y-135293152D02*
X113045713Y-135197914D01*
X113045713Y-135197914D02*
X113045713Y-135150295D01*
X113045713Y-135150295D02*
X112998094Y-135055057D01*
X112998094Y-135055057D02*
X112950475Y-135007438D01*
X112950475Y-135007438D02*
X112855237Y-134959819D01*
X112855237Y-134959819D02*
X112664761Y-134959819D01*
X112664761Y-134959819D02*
X112569523Y-135007438D01*
X112569523Y-135007438D02*
X112521904Y-135055057D01*
X112521904Y-135055057D02*
X112474285Y-135150295D01*
X112474285Y-135150295D02*
X112474285Y-135197914D01*
X112474285Y-135197914D02*
X112521904Y-135293152D01*
X112521904Y-135293152D02*
X112569523Y-135340771D01*
X112569523Y-135340771D02*
X112664761Y-135388390D01*
X112664761Y-135388390D02*
X112855237Y-135388390D01*
X112855237Y-135388390D02*
X112950475Y-135436009D01*
X112950475Y-135436009D02*
X112998094Y-135483628D01*
X112998094Y-135483628D02*
X113045713Y-135578866D01*
X113045713Y-135578866D02*
X113045713Y-135769342D01*
X113045713Y-135769342D02*
X112998094Y-135864580D01*
X112998094Y-135864580D02*
X112950475Y-135912200D01*
X112950475Y-135912200D02*
X112855237Y-135959819D01*
X112855237Y-135959819D02*
X112664761Y-135959819D01*
X112664761Y-135959819D02*
X112569523Y-135912200D01*
X112569523Y-135912200D02*
X112521904Y-135864580D01*
X112521904Y-135864580D02*
X112474285Y-135769342D01*
X112474285Y-135769342D02*
X112474285Y-135578866D01*
X112474285Y-135578866D02*
X112521904Y-135483628D01*
X112521904Y-135483628D02*
X112569523Y-135436009D01*
X112569523Y-135436009D02*
X112664761Y-135388390D01*
X102558094Y-135144819D02*
X102558094Y-135954342D01*
X102558094Y-135954342D02*
X102510475Y-136049580D01*
X102510475Y-136049580D02*
X102462856Y-136097200D01*
X102462856Y-136097200D02*
X102367618Y-136144819D01*
X102367618Y-136144819D02*
X102177142Y-136144819D01*
X102177142Y-136144819D02*
X102081904Y-136097200D01*
X102081904Y-136097200D02*
X102034285Y-136049580D01*
X102034285Y-136049580D02*
X101986666Y-135954342D01*
X101986666Y-135954342D02*
X101986666Y-135144819D01*
X100986666Y-136144819D02*
X101558094Y-136144819D01*
X101272380Y-136144819D02*
X101272380Y-135144819D01*
X101272380Y-135144819D02*
X101367618Y-135287676D01*
X101367618Y-135287676D02*
X101462856Y-135382914D01*
X101462856Y-135382914D02*
X101558094Y-135430533D01*
X100129523Y-135144819D02*
X100319999Y-135144819D01*
X100319999Y-135144819D02*
X100415237Y-135192438D01*
X100415237Y-135192438D02*
X100462856Y-135240057D01*
X100462856Y-135240057D02*
X100558094Y-135382914D01*
X100558094Y-135382914D02*
X100605713Y-135573390D01*
X100605713Y-135573390D02*
X100605713Y-135954342D01*
X100605713Y-135954342D02*
X100558094Y-136049580D01*
X100558094Y-136049580D02*
X100510475Y-136097200D01*
X100510475Y-136097200D02*
X100415237Y-136144819D01*
X100415237Y-136144819D02*
X100224761Y-136144819D01*
X100224761Y-136144819D02*
X100129523Y-136097200D01*
X100129523Y-136097200D02*
X100081904Y-136049580D01*
X100081904Y-136049580D02*
X100034285Y-135954342D01*
X100034285Y-135954342D02*
X100034285Y-135716247D01*
X100034285Y-135716247D02*
X100081904Y-135621009D01*
X100081904Y-135621009D02*
X100129523Y-135573390D01*
X100129523Y-135573390D02*
X100224761Y-135525771D01*
X100224761Y-135525771D02*
X100415237Y-135525771D01*
X100415237Y-135525771D02*
X100510475Y-135573390D01*
X100510475Y-135573390D02*
X100558094Y-135621009D01*
X100558094Y-135621009D02*
X100605713Y-135716247D01*
X115088094Y-165604819D02*
X115088094Y-166414342D01*
X115088094Y-166414342D02*
X115040475Y-166509580D01*
X115040475Y-166509580D02*
X114992856Y-166557200D01*
X114992856Y-166557200D02*
X114897618Y-166604819D01*
X114897618Y-166604819D02*
X114707142Y-166604819D01*
X114707142Y-166604819D02*
X114611904Y-166557200D01*
X114611904Y-166557200D02*
X114564285Y-166509580D01*
X114564285Y-166509580D02*
X114516666Y-166414342D01*
X114516666Y-166414342D02*
X114516666Y-165604819D01*
X113516666Y-166604819D02*
X114088094Y-166604819D01*
X113802380Y-166604819D02*
X113802380Y-165604819D01*
X113802380Y-165604819D02*
X113897618Y-165747676D01*
X113897618Y-165747676D02*
X113992856Y-165842914D01*
X113992856Y-165842914D02*
X114088094Y-165890533D01*
X112897618Y-165604819D02*
X112802380Y-165604819D01*
X112802380Y-165604819D02*
X112707142Y-165652438D01*
X112707142Y-165652438D02*
X112659523Y-165700057D01*
X112659523Y-165700057D02*
X112611904Y-165795295D01*
X112611904Y-165795295D02*
X112564285Y-165985771D01*
X112564285Y-165985771D02*
X112564285Y-166223866D01*
X112564285Y-166223866D02*
X112611904Y-166414342D01*
X112611904Y-166414342D02*
X112659523Y-166509580D01*
X112659523Y-166509580D02*
X112707142Y-166557200D01*
X112707142Y-166557200D02*
X112802380Y-166604819D01*
X112802380Y-166604819D02*
X112897618Y-166604819D01*
X112897618Y-166604819D02*
X112992856Y-166557200D01*
X112992856Y-166557200D02*
X113040475Y-166509580D01*
X113040475Y-166509580D02*
X113088094Y-166414342D01*
X113088094Y-166414342D02*
X113135713Y-166223866D01*
X113135713Y-166223866D02*
X113135713Y-165985771D01*
X113135713Y-165985771D02*
X113088094Y-165795295D01*
X113088094Y-165795295D02*
X113040475Y-165700057D01*
X113040475Y-165700057D02*
X112992856Y-165652438D01*
X112992856Y-165652438D02*
X112897618Y-165604819D01*
X102161904Y-150354819D02*
X102161904Y-151164342D01*
X102161904Y-151164342D02*
X102114285Y-151259580D01*
X102114285Y-151259580D02*
X102066666Y-151307200D01*
X102066666Y-151307200D02*
X101971428Y-151354819D01*
X101971428Y-151354819D02*
X101780952Y-151354819D01*
X101780952Y-151354819D02*
X101685714Y-151307200D01*
X101685714Y-151307200D02*
X101638095Y-151259580D01*
X101638095Y-151259580D02*
X101590476Y-151164342D01*
X101590476Y-151164342D02*
X101590476Y-150354819D01*
X100638095Y-150354819D02*
X101114285Y-150354819D01*
X101114285Y-150354819D02*
X101161904Y-150831009D01*
X101161904Y-150831009D02*
X101114285Y-150783390D01*
X101114285Y-150783390D02*
X101019047Y-150735771D01*
X101019047Y-150735771D02*
X100780952Y-150735771D01*
X100780952Y-150735771D02*
X100685714Y-150783390D01*
X100685714Y-150783390D02*
X100638095Y-150831009D01*
X100638095Y-150831009D02*
X100590476Y-150926247D01*
X100590476Y-150926247D02*
X100590476Y-151164342D01*
X100590476Y-151164342D02*
X100638095Y-151259580D01*
X100638095Y-151259580D02*
X100685714Y-151307200D01*
X100685714Y-151307200D02*
X100780952Y-151354819D01*
X100780952Y-151354819D02*
X101019047Y-151354819D01*
X101019047Y-151354819D02*
X101114285Y-151307200D01*
X101114285Y-151307200D02*
X101161904Y-151259580D01*
X114611904Y-150284819D02*
X114611904Y-151094342D01*
X114611904Y-151094342D02*
X114564285Y-151189580D01*
X114564285Y-151189580D02*
X114516666Y-151237200D01*
X114516666Y-151237200D02*
X114421428Y-151284819D01*
X114421428Y-151284819D02*
X114230952Y-151284819D01*
X114230952Y-151284819D02*
X114135714Y-151237200D01*
X114135714Y-151237200D02*
X114088095Y-151189580D01*
X114088095Y-151189580D02*
X114040476Y-151094342D01*
X114040476Y-151094342D02*
X114040476Y-150284819D01*
X113135714Y-150284819D02*
X113326190Y-150284819D01*
X113326190Y-150284819D02*
X113421428Y-150332438D01*
X113421428Y-150332438D02*
X113469047Y-150380057D01*
X113469047Y-150380057D02*
X113564285Y-150522914D01*
X113564285Y-150522914D02*
X113611904Y-150713390D01*
X113611904Y-150713390D02*
X113611904Y-151094342D01*
X113611904Y-151094342D02*
X113564285Y-151189580D01*
X113564285Y-151189580D02*
X113516666Y-151237200D01*
X113516666Y-151237200D02*
X113421428Y-151284819D01*
X113421428Y-151284819D02*
X113230952Y-151284819D01*
X113230952Y-151284819D02*
X113135714Y-151237200D01*
X113135714Y-151237200D02*
X113088095Y-151189580D01*
X113088095Y-151189580D02*
X113040476Y-151094342D01*
X113040476Y-151094342D02*
X113040476Y-150856247D01*
X113040476Y-150856247D02*
X113088095Y-150761009D01*
X113088095Y-150761009D02*
X113135714Y-150713390D01*
X113135714Y-150713390D02*
X113230952Y-150665771D01*
X113230952Y-150665771D02*
X113421428Y-150665771D01*
X113421428Y-150665771D02*
X113516666Y-150713390D01*
X113516666Y-150713390D02*
X113564285Y-150761009D01*
X113564285Y-150761009D02*
X113611904Y-150856247D01*
X67021904Y-150339819D02*
X67021904Y-151149342D01*
X67021904Y-151149342D02*
X66974285Y-151244580D01*
X66974285Y-151244580D02*
X66926666Y-151292200D01*
X66926666Y-151292200D02*
X66831428Y-151339819D01*
X66831428Y-151339819D02*
X66640952Y-151339819D01*
X66640952Y-151339819D02*
X66545714Y-151292200D01*
X66545714Y-151292200D02*
X66498095Y-151244580D01*
X66498095Y-151244580D02*
X66450476Y-151149342D01*
X66450476Y-151149342D02*
X66450476Y-150339819D01*
X66021904Y-150435057D02*
X65974285Y-150387438D01*
X65974285Y-150387438D02*
X65879047Y-150339819D01*
X65879047Y-150339819D02*
X65640952Y-150339819D01*
X65640952Y-150339819D02*
X65545714Y-150387438D01*
X65545714Y-150387438D02*
X65498095Y-150435057D01*
X65498095Y-150435057D02*
X65450476Y-150530295D01*
X65450476Y-150530295D02*
X65450476Y-150625533D01*
X65450476Y-150625533D02*
X65498095Y-150768390D01*
X65498095Y-150768390D02*
X66069523Y-151339819D01*
X66069523Y-151339819D02*
X65450476Y-151339819D01*
X89918094Y-135184819D02*
X89918094Y-135994342D01*
X89918094Y-135994342D02*
X89870475Y-136089580D01*
X89870475Y-136089580D02*
X89822856Y-136137200D01*
X89822856Y-136137200D02*
X89727618Y-136184819D01*
X89727618Y-136184819D02*
X89537142Y-136184819D01*
X89537142Y-136184819D02*
X89441904Y-136137200D01*
X89441904Y-136137200D02*
X89394285Y-136089580D01*
X89394285Y-136089580D02*
X89346666Y-135994342D01*
X89346666Y-135994342D02*
X89346666Y-135184819D01*
X88346666Y-136184819D02*
X88918094Y-136184819D01*
X88632380Y-136184819D02*
X88632380Y-135184819D01*
X88632380Y-135184819D02*
X88727618Y-135327676D01*
X88727618Y-135327676D02*
X88822856Y-135422914D01*
X88822856Y-135422914D02*
X88918094Y-135470533D01*
X88013332Y-135184819D02*
X87346666Y-135184819D01*
X87346666Y-135184819D02*
X87775237Y-136184819D01*
X81631904Y-150354819D02*
X81631904Y-151164342D01*
X81631904Y-151164342D02*
X81584285Y-151259580D01*
X81584285Y-151259580D02*
X81536666Y-151307200D01*
X81536666Y-151307200D02*
X81441428Y-151354819D01*
X81441428Y-151354819D02*
X81250952Y-151354819D01*
X81250952Y-151354819D02*
X81155714Y-151307200D01*
X81155714Y-151307200D02*
X81108095Y-151259580D01*
X81108095Y-151259580D02*
X81060476Y-151164342D01*
X81060476Y-151164342D02*
X81060476Y-150354819D01*
X80060476Y-151354819D02*
X80631904Y-151354819D01*
X80346190Y-151354819D02*
X80346190Y-150354819D01*
X80346190Y-150354819D02*
X80441428Y-150497676D01*
X80441428Y-150497676D02*
X80536666Y-150592914D01*
X80536666Y-150592914D02*
X80631904Y-150640533D01*
X64488094Y-135029819D02*
X64488094Y-135839342D01*
X64488094Y-135839342D02*
X64440475Y-135934580D01*
X64440475Y-135934580D02*
X64392856Y-135982200D01*
X64392856Y-135982200D02*
X64297618Y-136029819D01*
X64297618Y-136029819D02*
X64107142Y-136029819D01*
X64107142Y-136029819D02*
X64011904Y-135982200D01*
X64011904Y-135982200D02*
X63964285Y-135934580D01*
X63964285Y-135934580D02*
X63916666Y-135839342D01*
X63916666Y-135839342D02*
X63916666Y-135029819D01*
X63488094Y-135125057D02*
X63440475Y-135077438D01*
X63440475Y-135077438D02*
X63345237Y-135029819D01*
X63345237Y-135029819D02*
X63107142Y-135029819D01*
X63107142Y-135029819D02*
X63011904Y-135077438D01*
X63011904Y-135077438D02*
X62964285Y-135125057D01*
X62964285Y-135125057D02*
X62916666Y-135220295D01*
X62916666Y-135220295D02*
X62916666Y-135315533D01*
X62916666Y-135315533D02*
X62964285Y-135458390D01*
X62964285Y-135458390D02*
X63535713Y-136029819D01*
X63535713Y-136029819D02*
X62916666Y-136029819D01*
X62535713Y-135125057D02*
X62488094Y-135077438D01*
X62488094Y-135077438D02*
X62392856Y-135029819D01*
X62392856Y-135029819D02*
X62154761Y-135029819D01*
X62154761Y-135029819D02*
X62059523Y-135077438D01*
X62059523Y-135077438D02*
X62011904Y-135125057D01*
X62011904Y-135125057D02*
X61964285Y-135220295D01*
X61964285Y-135220295D02*
X61964285Y-135315533D01*
X61964285Y-135315533D02*
X62011904Y-135458390D01*
X62011904Y-135458390D02*
X62583332Y-136029819D01*
X62583332Y-136029819D02*
X61964285Y-136029819D01*
X31764285Y-181669104D02*
X31288095Y-181669104D01*
X31859523Y-181954819D02*
X31526190Y-180954819D01*
X31526190Y-180954819D02*
X31192857Y-181954819D01*
X30335714Y-181954819D02*
X30907142Y-181954819D01*
X30621428Y-181954819D02*
X30621428Y-180954819D01*
X30621428Y-180954819D02*
X30716666Y-181097676D01*
X30716666Y-181097676D02*
X30811904Y-181192914D01*
X30811904Y-181192914D02*
X30907142Y-181240533D01*
X90119200Y-152886580D02*
X90166819Y-152934200D01*
X90166819Y-152934200D02*
X90119200Y-152981819D01*
X90119200Y-152981819D02*
X90071581Y-152934200D01*
X90071581Y-152934200D02*
X90119200Y-152886580D01*
X90119200Y-152886580D02*
X90119200Y-152981819D01*
X33238094Y-167454819D02*
X33238094Y-166454819D01*
X33238094Y-166454819D02*
X32999999Y-166454819D01*
X32999999Y-166454819D02*
X32857142Y-166502438D01*
X32857142Y-166502438D02*
X32761904Y-166597676D01*
X32761904Y-166597676D02*
X32714285Y-166692914D01*
X32714285Y-166692914D02*
X32666666Y-166883390D01*
X32666666Y-166883390D02*
X32666666Y-167026247D01*
X32666666Y-167026247D02*
X32714285Y-167216723D01*
X32714285Y-167216723D02*
X32761904Y-167311961D01*
X32761904Y-167311961D02*
X32857142Y-167407200D01*
X32857142Y-167407200D02*
X32999999Y-167454819D01*
X32999999Y-167454819D02*
X33238094Y-167454819D01*
X32047618Y-166454819D02*
X31952380Y-166454819D01*
X31952380Y-166454819D02*
X31857142Y-166502438D01*
X31857142Y-166502438D02*
X31809523Y-166550057D01*
X31809523Y-166550057D02*
X31761904Y-166645295D01*
X31761904Y-166645295D02*
X31714285Y-166835771D01*
X31714285Y-166835771D02*
X31714285Y-167073866D01*
X31714285Y-167073866D02*
X31761904Y-167264342D01*
X31761904Y-167264342D02*
X31809523Y-167359580D01*
X31809523Y-167359580D02*
X31857142Y-167407200D01*
X31857142Y-167407200D02*
X31952380Y-167454819D01*
X31952380Y-167454819D02*
X32047618Y-167454819D01*
X32047618Y-167454819D02*
X32142856Y-167407200D01*
X32142856Y-167407200D02*
X32190475Y-167359580D01*
X32190475Y-167359580D02*
X32238094Y-167264342D01*
X32238094Y-167264342D02*
X32285713Y-167073866D01*
X32285713Y-167073866D02*
X32285713Y-166835771D01*
X32285713Y-166835771D02*
X32238094Y-166645295D01*
X32238094Y-166645295D02*
X32190475Y-166550057D01*
X32190475Y-166550057D02*
X32142856Y-166502438D01*
X32142856Y-166502438D02*
X32047618Y-166454819D01*
D11*
%TO.C,U9*%
X97540000Y-167060000D02*
X101400000Y-167060000D01*
X97540000Y-167295000D02*
X97540000Y-167060000D01*
X97540000Y-179845000D02*
X97540000Y-180080000D01*
X97540000Y-180080000D02*
X101400000Y-180080000D01*
X105260000Y-167060000D02*
X101400000Y-167060000D01*
X105260000Y-167295000D02*
X105260000Y-167060000D01*
X105260000Y-179845000D02*
X105260000Y-180080000D01*
X105260000Y-180080000D02*
X101400000Y-180080000D01*
X106050000Y-167295000D02*
X105710000Y-166825000D01*
X106390000Y-166825000D01*
X106050000Y-167295000D01*
G36*
X106050000Y-167295000D02*
G01*
X105710000Y-166825000D01*
X106390000Y-166825000D01*
X106050000Y-167295000D01*
G37*
%TO.C,U21*%
X72040000Y-136415000D02*
X75900000Y-136415000D01*
X72040000Y-136650000D02*
X72040000Y-136415000D01*
X72040000Y-149200000D02*
X72040000Y-149435000D01*
X72040000Y-149435000D02*
X75900000Y-149435000D01*
X79760000Y-136415000D02*
X75900000Y-136415000D01*
X79760000Y-136650000D02*
X79760000Y-136415000D01*
X79760000Y-149200000D02*
X79760000Y-149435000D01*
X79760000Y-149435000D02*
X75900000Y-149435000D01*
X80550000Y-136650000D02*
X80210000Y-136180000D01*
X80890000Y-136180000D01*
X80550000Y-136650000D01*
G36*
X80550000Y-136650000D02*
G01*
X80210000Y-136180000D01*
X80890000Y-136180000D01*
X80550000Y-136650000D01*
G37*
%TO.C,U18*%
X109900000Y-136345000D02*
X113760000Y-136345000D01*
X109900000Y-136580000D02*
X109900000Y-136345000D01*
X109900000Y-149130000D02*
X109900000Y-149365000D01*
X109900000Y-149365000D02*
X113760000Y-149365000D01*
X117620000Y-136345000D02*
X113760000Y-136345000D01*
X117620000Y-136580000D02*
X117620000Y-136345000D01*
X117620000Y-149130000D02*
X117620000Y-149365000D01*
X117620000Y-149365000D02*
X113760000Y-149365000D01*
X118410000Y-136580000D02*
X118070000Y-136110000D01*
X118750000Y-136110000D01*
X118410000Y-136580000D01*
G36*
X118410000Y-136580000D02*
G01*
X118070000Y-136110000D01*
X118750000Y-136110000D01*
X118410000Y-136580000D01*
G37*
%TO.C,U16*%
X97450000Y-136415000D02*
X101310000Y-136415000D01*
X97450000Y-136650000D02*
X97450000Y-136415000D01*
X97450000Y-149200000D02*
X97450000Y-149435000D01*
X97450000Y-149435000D02*
X101310000Y-149435000D01*
X105170000Y-136415000D02*
X101310000Y-136415000D01*
X105170000Y-136650000D02*
X105170000Y-136415000D01*
X105170000Y-149200000D02*
X105170000Y-149435000D01*
X105170000Y-149435000D02*
X101310000Y-149435000D01*
X105960000Y-136650000D02*
X105620000Y-136180000D01*
X106300000Y-136180000D01*
X105960000Y-136650000D01*
G36*
X105960000Y-136650000D02*
G01*
X105620000Y-136180000D01*
X106300000Y-136180000D01*
X105960000Y-136650000D01*
G37*
%TO.C,U10*%
X118500000Y-167225000D02*
X118160000Y-166755000D01*
X118840000Y-166755000D01*
X118500000Y-167225000D01*
G36*
X118500000Y-167225000D02*
G01*
X118160000Y-166755000D01*
X118840000Y-166755000D01*
X118500000Y-167225000D01*
G37*
X117710000Y-180010000D02*
X113850000Y-180010000D01*
X117710000Y-179775000D02*
X117710000Y-180010000D01*
X117710000Y-167225000D02*
X117710000Y-166990000D01*
X117710000Y-166990000D02*
X113850000Y-166990000D01*
X109990000Y-180010000D02*
X113850000Y-180010000D01*
X109990000Y-179775000D02*
X109990000Y-180010000D01*
X109990000Y-167225000D02*
X109990000Y-166990000D01*
X109990000Y-166990000D02*
X113850000Y-166990000D01*
%TO.C,U5*%
X97540000Y-151740000D02*
X101400000Y-151740000D01*
X97540000Y-151975000D02*
X97540000Y-151740000D01*
X97540000Y-164525000D02*
X97540000Y-164760000D01*
X97540000Y-164760000D02*
X101400000Y-164760000D01*
X105260000Y-151740000D02*
X101400000Y-151740000D01*
X105260000Y-151975000D02*
X105260000Y-151740000D01*
X105260000Y-164525000D02*
X105260000Y-164760000D01*
X105260000Y-164760000D02*
X101400000Y-164760000D01*
X106050000Y-151975000D02*
X105710000Y-151505000D01*
X106390000Y-151505000D01*
X106050000Y-151975000D01*
G36*
X106050000Y-151975000D02*
G01*
X105710000Y-151505000D01*
X106390000Y-151505000D01*
X106050000Y-151975000D01*
G37*
%TO.C,J5*%
X129330000Y-149930000D02*
X129330000Y-147330000D01*
X129330000Y-152530000D02*
X129330000Y-151200000D01*
X130660000Y-152530000D02*
X129330000Y-152530000D01*
X131930000Y-149930000D02*
X129330000Y-149930000D01*
X131930000Y-152530000D02*
X131930000Y-149930000D01*
X142150000Y-147330000D02*
X129330000Y-147330000D01*
X142150000Y-152530000D02*
X131930000Y-152530000D01*
X142150000Y-152530000D02*
X142150000Y-147330000D01*
%TO.C,U6*%
X109990000Y-151670000D02*
X113850000Y-151670000D01*
X109990000Y-151905000D02*
X109990000Y-151670000D01*
X109990000Y-164455000D02*
X109990000Y-164690000D01*
X109990000Y-164690000D02*
X113850000Y-164690000D01*
X117710000Y-151670000D02*
X113850000Y-151670000D01*
X117710000Y-151905000D02*
X117710000Y-151670000D01*
X117710000Y-164455000D02*
X117710000Y-164690000D01*
X117710000Y-164690000D02*
X113850000Y-164690000D01*
X118500000Y-151905000D02*
X118160000Y-151435000D01*
X118840000Y-151435000D01*
X118500000Y-151905000D01*
G36*
X118500000Y-151905000D02*
G01*
X118160000Y-151435000D01*
X118840000Y-151435000D01*
X118500000Y-151905000D01*
G37*
%TO.C,U2*%
X62400000Y-151725000D02*
X66260000Y-151725000D01*
X62400000Y-151960000D02*
X62400000Y-151725000D01*
X62400000Y-164510000D02*
X62400000Y-164745000D01*
X62400000Y-164745000D02*
X66260000Y-164745000D01*
X70120000Y-151725000D02*
X66260000Y-151725000D01*
X70120000Y-151960000D02*
X70120000Y-151725000D01*
X70120000Y-164510000D02*
X70120000Y-164745000D01*
X70120000Y-164745000D02*
X66260000Y-164745000D01*
X70910000Y-151960000D02*
X70570000Y-151490000D01*
X71250000Y-151490000D01*
X70910000Y-151960000D01*
G36*
X70910000Y-151960000D02*
G01*
X70570000Y-151490000D01*
X71250000Y-151490000D01*
X70910000Y-151960000D01*
G37*
%TO.C,U17*%
X84860000Y-136415000D02*
X88720000Y-136415000D01*
X84860000Y-136650000D02*
X84860000Y-136415000D01*
X84860000Y-149200000D02*
X84860000Y-149435000D01*
X84860000Y-149435000D02*
X88720000Y-149435000D01*
X92580000Y-136415000D02*
X88720000Y-136415000D01*
X92580000Y-136650000D02*
X92580000Y-136415000D01*
X92580000Y-149200000D02*
X92580000Y-149435000D01*
X92580000Y-149435000D02*
X88720000Y-149435000D01*
X93370000Y-136650000D02*
X93030000Y-136180000D01*
X93710000Y-136180000D01*
X93370000Y-136650000D01*
G36*
X93370000Y-136650000D02*
G01*
X93030000Y-136180000D01*
X93710000Y-136180000D01*
X93370000Y-136650000D01*
G37*
%TO.C,U1*%
X77010000Y-151740000D02*
X80870000Y-151740000D01*
X77010000Y-151975000D02*
X77010000Y-151740000D01*
X77010000Y-164525000D02*
X77010000Y-164760000D01*
X77010000Y-164760000D02*
X80870000Y-164760000D01*
X84730000Y-151740000D02*
X80870000Y-151740000D01*
X84730000Y-151975000D02*
X84730000Y-151740000D01*
X84730000Y-164525000D02*
X84730000Y-164760000D01*
X84730000Y-164760000D02*
X80870000Y-164760000D01*
X85520000Y-151975000D02*
X85180000Y-151505000D01*
X85860000Y-151505000D01*
X85520000Y-151975000D01*
G36*
X85520000Y-151975000D02*
G01*
X85180000Y-151505000D01*
X85860000Y-151505000D01*
X85520000Y-151975000D01*
G37*
%TO.C,U22*%
X59390000Y-136415000D02*
X63250000Y-136415000D01*
X59390000Y-136650000D02*
X59390000Y-136415000D01*
X59390000Y-149200000D02*
X59390000Y-149435000D01*
X59390000Y-149435000D02*
X63250000Y-149435000D01*
X67110000Y-136415000D02*
X63250000Y-136415000D01*
X67110000Y-136650000D02*
X67110000Y-136415000D01*
X67110000Y-149200000D02*
X67110000Y-149435000D01*
X67110000Y-149435000D02*
X63250000Y-149435000D01*
X67900000Y-136650000D02*
X67560000Y-136180000D01*
X68240000Y-136180000D01*
X67900000Y-136650000D01*
G36*
X67900000Y-136650000D02*
G01*
X67560000Y-136180000D01*
X68240000Y-136180000D01*
X67900000Y-136650000D01*
G37*
D10*
%TO.C,A1*%
X27635200Y-131191000D02*
X27635200Y-184531000D01*
X27635200Y-131191000D02*
X125171200Y-131191000D01*
X27635200Y-184531000D02*
X126695200Y-184531000D01*
X125171200Y-131191000D02*
X126695200Y-132715000D01*
X126695200Y-143891000D02*
X126695200Y-132715000D01*
X126695200Y-183261000D02*
X129235200Y-180721000D01*
X126695200Y-184531000D02*
X126695200Y-183261000D01*
X129235200Y-146431000D02*
X126695200Y-143891000D01*
X129235200Y-180721000D02*
X129235200Y-146431000D01*
%TD*%
M02*
