M48
; DRILL file {KiCad 8.0.4+dfsg-1} date 2024-12-19T01:54:25-0500
; FORMAT={-:-/ absolute / inch / decimal}
; #@! TF.CreationDate,2024-12-19T01:54:25-05:00
; #@! TF.GenerationSoftware,Kicad,Pcbnew,8.0.4+dfsg-1
; #@! TF.FileFunction,Plated,1,4,PTH
FMAT,2
INCH
; #@! TA.AperFunction,Plated,PTH,ViaDrill
T1C0.0118
; #@! TA.AperFunction,Plated,PTH,ComponentDrill
T2C0.0315
; #@! TA.AperFunction,Plated,PTH,ComponentDrill
T3C0.0362
; #@! TA.AperFunction,Plated,PTH,ComponentDrill
T4C0.0394
; #@! TA.AperFunction,Plated,PTH,ComponentDrill
T5C0.0400
; #@! TA.AperFunction,Plated,PTH,ComponentDrill
T6C0.0906
; #@! TA.AperFunction,Plated,PTH,ComponentDrill
T7C0.1260
%
G90
G05
T1
X1.7145Y-5.6068
X1.7381Y-6.7158
X1.7511Y-5.8477
X1.7512Y-6.5344
X1.77Y-5.6552
X1.8634Y-6.5961
X1.8689Y-6.16
X1.8816Y-5.5182
X1.8977Y-5.6274
X1.9133Y-6.7393
X1.9213Y-5.7862
X1.9426Y-5.562
X1.9443Y-6.1939
X1.9632Y-5.2213
X1.973Y-5.1778
X1.9744Y-5.6525
X1.99Y-5.488
X2.0013Y-5.8949
X2.0069Y-6.1931
X2.0519Y-5.6523
X2.0668Y-6.7557
X2.0932Y-5.8355
X2.0948Y-5.7362
X2.1019Y-5.5742
X2.1021Y-5.4186
X2.1087Y-6.7629
X2.1296Y-5.7713
X2.1657Y-5.8678
X2.1692Y-6.4514
X2.2388Y-5.7589
X2.2472Y-5.7223
X2.2496Y-5.6396
X2.2585Y-5.536
X2.2928Y-5.3108
X2.3381Y-5.9304
X2.3386Y-5.3515
X2.3811Y-6.593
X2.3812Y-5.6996
X2.3817Y-5.4362
X2.3818Y-5.5292
X2.4031Y-6.6166
X2.4048Y-5.598
X2.4135Y-5.6651
X2.4735Y-5.5422
X2.4809Y-5.6212
X2.49Y-5.8605
X2.5158Y-5.6891
X2.5285Y-7.2057
X2.5386Y-5.3344
X2.5429Y-5.882
X2.5549Y-5.7391
X2.5725Y-5.5754
X2.5758Y-5.5438
X2.6837Y-6.3159
X2.7391Y-5.3523
X2.7408Y-5.455
X2.7453Y-5.912
X2.7566Y-5.6891
X2.7626Y-5.431
X2.7783Y-6.1131
X2.786Y-6.0302
X2.907Y-5.4764
X2.9186Y-5.6891
X2.925Y-5.4268
X2.9388Y-5.4781
X2.9825Y-5.353
X3.0369Y-6.2801
X3.058Y-6.1109
X3.0663Y-5.5823
X3.0685Y-5.4185
X3.0722Y-6.3718
X3.0783Y-5.4974
X3.0965Y-6.0621
X3.0987Y-5.4003
X3.1069Y-5.9224
X3.1153Y-5.5867
X3.1201Y-5.5224
X3.1263Y-5.6993
X3.1276Y-5.4842
X3.1426Y-6.6552
X3.1434Y-6.1704
X3.1475Y-5.9737
X3.1614Y-6.6864
X3.1847Y-6.1168
X3.1899Y-6.5807
X3.2022Y-6.4935
X3.2173Y-6.9813
X3.263Y-5.767
X3.2656Y-5.5183
X3.3294Y-6.8556
X3.3309Y-6.8875
X3.3418Y-6.5691
X3.3536Y-6.3331
X3.3619Y-6.6129
X3.3677Y-6.1092
X3.3724Y-6.4392
X3.3733Y-6.4738
X3.3834Y-6.7903
X3.3886Y-6.2281
X3.4051Y-5.9446
X3.4307Y-5.7391
X3.4308Y-5.4333
X3.4331Y-5.6761
X3.4336Y-5.7864
X3.4337Y-5.5278
X3.478Y-5.7138
X3.4854Y-6.396
X3.4923Y-5.5686
X3.4947Y-5.47
X3.4953Y-5.4215
X3.5027Y-5.6331
X3.5067Y-6.0248
X3.5139Y-6.3758
X3.5192Y-6.2597
X3.5198Y-5.8055
X3.5215Y-6.1638
X3.5216Y-5.8383
X3.5848Y-5.8336
X3.6095Y-5.8127
X3.6225Y-5.4176
X3.6256Y-5.4649
X3.6289Y-5.6058
X3.6329Y-5.8868
X3.6598Y-5.2332
X3.7407Y-5.8423
X3.7413Y-5.911
X3.7469Y-6.1858
X3.7509Y-6.0345
X3.7536Y-6.5274
X3.7705Y-5.4618
X3.8071Y-5.9235
X3.8507Y-5.8744
X3.8726Y-5.5617
X3.8822Y-5.8674
X3.9765Y-5.4805
X3.9977Y-5.5505
X4.0182Y-6.2488
X4.0237Y-5.4962
X4.0264Y-5.7045
X4.0278Y-5.5932
X4.0353Y-5.56
X4.0526Y-5.9235
X4.0555Y-6.2938
X4.066Y-6.0351
X4.0741Y-6.1181
X4.078Y-6.3583
X4.0809Y-6.426
X4.11Y-5.7951
X4.1154Y-5.3536
X4.1296Y-5.5626
X4.1315Y-5.5093
X4.2354Y-5.8587
X4.3087Y-6.9887
X4.3184Y-5.8689
X4.3625Y-6.6414
X4.3761Y-5.435
X4.3762Y-5.5418
X4.3821Y-7.0039
X4.3829Y-6.526
X4.3848Y-6.4245
X4.3855Y-6.098
X4.3871Y-5.9352
X4.3871Y-6.0191
X4.3876Y-6.164
X4.3911Y-6.4941
X4.3935Y-6.2786
X4.3952Y-6.3659
X4.3972Y-6.9528
X4.4354Y-6.6411
X4.4403Y-5.7947
X4.475Y-6.7577
X4.4822Y-6.6417
X4.4904Y-6.266
X4.5045Y-5.8826
X4.506Y-5.6185
X4.514Y-5.3862
X4.5152Y-5.4692
X4.5262Y-6.5281
X4.5302Y-5.6815
X4.5348Y-5.4947
X4.535Y-6.3506
X4.538Y-6.1379
X4.5414Y-7.0038
X4.5507Y-6.7621
X4.5509Y-6.4588
X4.5547Y-6.2338
X4.558Y-6.164
X4.569Y-5.5926
X4.5693Y-5.7776
X4.586Y-6.3424
X4.5887Y-5.4362
X4.5916Y-5.5303
X4.5991Y-5.9876
X4.5997Y-5.9246
X4.604Y-6.763
X4.6071Y-6.4766
X4.6071Y-6.2541
X4.6116Y-5.7863
X4.6699Y-5.8744
X4.6737Y-6.6415
X4.6801Y-6.7622
X4.7283Y-5.8627
X4.7329Y-6.5932
X4.7341Y-6.489
X4.7343Y-6.434
T2
X2.54Y-5.95
X2.54Y-6.05
X2.54Y-6.15
X2.54Y-6.25
X2.54Y-6.35
X2.54Y-6.45
X2.54Y-6.55
X2.54Y-6.65
X2.54Y-6.75
X2.54Y-6.85
X2.54Y-6.95
X2.54Y-7.05
X2.84Y-5.95
X2.84Y-6.05
X2.84Y-6.15
X2.84Y-6.25
X2.84Y-6.35
X2.84Y-6.45
X2.84Y-6.55
X2.84Y-6.65
X2.84Y-6.75
X2.84Y-6.85
X2.84Y-6.95
X2.84Y-7.05
X2.97Y-5.95
X2.97Y-6.05
X2.97Y-6.15
X2.97Y-6.25
X2.97Y-6.35
X2.97Y-6.45
X2.97Y-6.55
X2.97Y-6.65
X2.97Y-6.75
X2.97Y-6.85
X2.97Y-6.95
X2.97Y-7.05
X3.27Y-5.95
X3.27Y-6.05
X3.27Y-6.15
X3.27Y-6.25
X3.27Y-6.35
X3.27Y-6.45
X3.27Y-6.55
X3.27Y-6.65
X3.27Y-6.75
X3.27Y-6.85
X3.27Y-6.95
X3.27Y-7.05
X3.46Y-6.7
X3.46Y-7.0
X4.06Y-6.7
X4.06Y-7.0
T3
X1.5431Y-5.4922
X1.5431Y-5.5906
X1.5431Y-5.6694
X1.5431Y-5.7678
X1.6462Y-5.4922
X1.6462Y-5.5906
X1.6462Y-5.6694
X1.6462Y-5.7678
T4
X1.4933Y-6.4287
X1.4933Y-6.5188
X1.4933Y-6.609
X1.4933Y-6.6991
X1.4933Y-6.7893
X1.5713Y-6.4737
X1.5713Y-6.5639
X1.5713Y-6.6541
X1.5713Y-6.7442
X1.5713Y-6.8344
X1.6492Y-6.4287
X1.6492Y-6.5188
X1.6492Y-6.609
X1.6492Y-6.6991
X1.6492Y-6.7893
X1.8268Y-6.3236
X1.8268Y-6.4236
X1.8268Y-6.5236
X2.0Y-6.02
X2.0Y-6.12
X2.0Y-6.27
X2.0Y-6.37
X2.0002Y-6.52
X2.1Y-6.02
X2.1Y-6.12
X2.1Y-6.27
X2.1Y-6.37
X2.1002Y-6.52
X2.2Y-6.02
X2.2Y-6.12
X2.2Y-6.27
X2.2Y-6.37
X2.3Y-6.02
X2.3Y-6.12
X2.3Y-6.27
X2.3Y-6.37
X2.4Y-6.02
X2.4Y-6.12
X2.4Y-6.27
X2.4Y-6.37
X3.9097Y-6.0721
X3.9097Y-6.1721
X4.0097Y-6.0721
X4.0097Y-6.1721
T5
X2.128Y-5.265
X2.228Y-5.265
X2.328Y-5.265
X2.428Y-5.265
X2.488Y-7.165
X2.528Y-5.265
X2.588Y-7.165
X2.628Y-5.265
X2.688Y-7.165
X2.728Y-5.265
X2.788Y-7.165
X2.888Y-5.265
X2.888Y-7.165
X2.988Y-5.265
X3.088Y-5.265
X3.088Y-7.165
X3.188Y-5.265
X3.188Y-7.165
X3.288Y-5.265
X3.288Y-7.165
X3.388Y-5.265
X3.388Y-7.165
X3.488Y-5.265
X3.488Y-7.165
X3.588Y-5.265
X3.588Y-7.165
X3.593Y-6.065
X3.593Y-6.165
X3.593Y-6.265
X3.688Y-7.165
X3.693Y-6.065
X3.693Y-6.165
X3.693Y-6.265
X3.788Y-5.265
X3.788Y-7.165
X3.888Y-5.265
X3.988Y-5.265
X3.988Y-7.165
X4.088Y-5.265
X4.088Y-7.165
X4.188Y-5.265
X4.188Y-7.165
X4.288Y-5.265
X4.288Y-7.165
X4.388Y-5.265
X4.388Y-7.165
X4.488Y-5.265
X4.488Y-7.165
X4.588Y-7.165
X4.688Y-7.165
X4.788Y-5.265
X4.788Y-5.365
X4.788Y-5.465
X4.788Y-5.565
X4.788Y-5.665
X4.788Y-5.765
X4.788Y-5.865
X4.788Y-5.965
X4.788Y-6.065
X4.788Y-6.165
X4.788Y-6.265
X4.788Y-6.365
X4.788Y-6.465
X4.788Y-6.565
X4.788Y-6.665
X4.788Y-6.765
X4.788Y-6.865
X4.788Y-6.965
X4.888Y-5.265
X4.888Y-5.365
X4.888Y-5.465
X4.888Y-5.565
X4.888Y-5.665
X4.888Y-5.765
X4.888Y-5.865
X4.888Y-5.965
X4.888Y-6.065
X4.888Y-6.165
X4.888Y-6.265
X4.888Y-6.365
X4.888Y-6.465
X4.888Y-6.565
X4.888Y-6.665
X4.888Y-6.765
X4.888Y-6.865
X4.888Y-6.965
T6
X1.4364Y-5.3713
X1.4364Y-5.8887
X1.66Y-5.3713
X1.66Y-5.8887
T7
X1.5933Y-6.1273
X1.5933Y-7.1115
M30
