%TF.GenerationSoftware,KiCad,Pcbnew,8.0.4+dfsg-1*%
%TF.CreationDate,2024-12-19T01:54:21-05:00*%
%TF.ProjectId,VGA_SRAM_Shield,5647415f-5352-4414-9d5f-536869656c64,rev?*%
%TF.SameCoordinates,Original*%
%TF.FileFunction,Soldermask,Bot*%
%TF.FilePolarity,Negative*%
%FSLAX46Y46*%
G04 Gerber Fmt 4.6, Leading zero omitted, Abs format (unit mm)*
G04 Created by KiCad (PCBNEW 8.0.4+dfsg-1) date 2024-12-19 01:54:21*
%MOMM*%
%LPD*%
G01*
G04 APERTURE LIST*
G04 Aperture macros list*
%AMRoundRect*
0 Rectangle with rounded corners*
0 $1 Rounding radius*
0 $2 $3 $4 $5 $6 $7 $8 $9 X,Y pos of 4 corners*
0 Add a 4 corners polygon primitive as box body*
4,1,4,$2,$3,$4,$5,$6,$7,$8,$9,$2,$3,0*
0 Add four circle primitives for the rounded corners*
1,1,$1+$1,$2,$3*
1,1,$1+$1,$4,$5*
1,1,$1+$1,$6,$7*
1,1,$1+$1,$8,$9*
0 Add four rect primitives between the rounded corners*
20,1,$1+$1,$2,$3,$4,$5,0*
20,1,$1+$1,$4,$5,$6,$7,0*
20,1,$1+$1,$6,$7,$8,$9,0*
20,1,$1+$1,$8,$9,$2,$3,0*%
G04 Aperture macros list end*
%ADD10O,1.727200X1.727200*%
%ADD11R,1.727200X1.727200*%
%ADD12R,1.700000X1.700000*%
%ADD13O,1.700000X1.700000*%
%ADD14R,1.500000X1.500000*%
%ADD15C,1.500000*%
%ADD16C,3.500000*%
%ADD17C,4.000000*%
%ADD18R,1.600000X1.600000*%
%ADD19C,1.600000*%
%ADD20O,1.600000X1.600000*%
%ADD21C,0.900000*%
%ADD22RoundRect,0.150000X0.725000X0.150000X-0.725000X0.150000X-0.725000X-0.150000X0.725000X-0.150000X0*%
%ADD23RoundRect,0.250000X-0.250000X-0.475000X0.250000X-0.475000X0.250000X0.475000X-0.250000X0.475000X0*%
%ADD24RoundRect,0.250000X0.262500X0.450000X-0.262500X0.450000X-0.262500X-0.450000X0.262500X-0.450000X0*%
%ADD25RoundRect,0.250000X-0.262500X-0.450000X0.262500X-0.450000X0.262500X0.450000X-0.262500X0.450000X0*%
%ADD26RoundRect,0.150000X0.825000X0.150000X-0.825000X0.150000X-0.825000X-0.150000X0.825000X-0.150000X0*%
G04 APERTURE END LIST*
D10*
%TO.C,A1*%
X63195200Y-181991000D03*
X65735200Y-181991000D03*
X93802200Y-154051000D03*
X121615200Y-133731000D03*
X124155200Y-133731000D03*
X78435200Y-181991000D03*
X80975200Y-181991000D03*
X83515200Y-181991000D03*
X86055200Y-181991000D03*
X88595200Y-181991000D03*
X91135200Y-181991000D03*
X93675200Y-181991000D03*
X96215200Y-181991000D03*
X101295200Y-181991000D03*
X103835200Y-181991000D03*
X106375200Y-181991000D03*
X108915200Y-181991000D03*
X116535200Y-181991000D03*
X119075200Y-181991000D03*
X91135200Y-133731000D03*
X88595200Y-133731000D03*
X86055200Y-133731000D03*
X83515200Y-133731000D03*
X80975200Y-133731000D03*
X78435200Y-133731000D03*
X75895200Y-133731000D03*
X73355200Y-133731000D03*
X69291200Y-133731000D03*
X66751200Y-133731000D03*
X64211200Y-133731000D03*
X61671200Y-133731000D03*
X59131200Y-133731000D03*
X56591200Y-133731000D03*
X96215200Y-133731000D03*
X98755200Y-133731000D03*
X101295200Y-133731000D03*
X103835200Y-133731000D03*
X106375200Y-133731000D03*
X108915200Y-133731000D03*
X111455200Y-133731000D03*
X113995200Y-133731000D03*
X121615200Y-136271000D03*
X124155200Y-136271000D03*
X121615200Y-138811000D03*
X124155200Y-138811000D03*
X121615200Y-141351000D03*
X124155200Y-141351000D03*
X121615200Y-143891000D03*
X124155200Y-143891000D03*
X121615200Y-146431000D03*
X124155200Y-146431000D03*
X121615200Y-148971000D03*
X124155200Y-148971000D03*
X121615200Y-151511000D03*
X124155200Y-151511000D03*
X121615200Y-154051000D03*
X124155200Y-154051000D03*
X121615200Y-156591000D03*
X124155200Y-156591000D03*
X121615200Y-159131000D03*
X124155200Y-159131000D03*
X121615200Y-161671000D03*
X124155200Y-161671000D03*
X121615200Y-164211000D03*
X124155200Y-164211000D03*
X121615200Y-166751000D03*
X124155200Y-166751000D03*
X121615200Y-169291000D03*
X124155200Y-169291000D03*
X121615200Y-171831000D03*
X124155200Y-171831000D03*
X121615200Y-174371000D03*
X124155200Y-174371000D03*
X111455200Y-181991000D03*
X113995200Y-181991000D03*
D11*
X54051200Y-133731000D03*
X68275200Y-181991000D03*
X70815200Y-181991000D03*
X93802200Y-159131000D03*
X121615200Y-176911000D03*
X124155200Y-176911000D03*
D10*
X91262200Y-154051000D03*
X93802200Y-156591000D03*
X91262200Y-159131000D03*
X91262200Y-156591000D03*
X73355200Y-181991000D03*
%TD*%
D12*
%TO.C,J2*%
X101845500Y-154231800D03*
D13*
X99305500Y-154231800D03*
X101845500Y-156771800D03*
X99305500Y-156771800D03*
%TD*%
D12*
%TO.C,J6*%
X46400000Y-165700000D03*
D13*
X46400000Y-163160000D03*
X46400000Y-160620000D03*
%TD*%
D12*
%TO.C,J1*%
X50800000Y-159258000D03*
D13*
X50800000Y-161798000D03*
X53340000Y-159258000D03*
X53340000Y-161798000D03*
X55880000Y-159258000D03*
X55880000Y-161798000D03*
X58420000Y-159258000D03*
X58420000Y-161798000D03*
X60960000Y-159258000D03*
X60960000Y-161798000D03*
%TD*%
D14*
%TO.C,J5*%
X39194300Y-139502000D03*
D15*
X39194300Y-142002000D03*
X39194300Y-144002000D03*
X39194300Y-146502000D03*
X41814300Y-139502000D03*
X41814300Y-142002000D03*
X41814300Y-144002000D03*
X41814300Y-146502000D03*
D16*
X36484300Y-136432000D03*
X36484300Y-149572000D03*
X42164300Y-136432000D03*
X42164300Y-149572000D03*
%TD*%
D17*
%TO.C,J3*%
X40470000Y-155633000D03*
X40470000Y-180633000D03*
D18*
X41890000Y-172448000D03*
D19*
X41890000Y-170158000D03*
X41890000Y-167868000D03*
X41890000Y-165578000D03*
X41890000Y-163288000D03*
X39910000Y-173593000D03*
X39910000Y-171303000D03*
X39910000Y-169013000D03*
X39910000Y-166723000D03*
X39910000Y-164433000D03*
X37930000Y-172448000D03*
X37930000Y-170158000D03*
X37930000Y-167868000D03*
X37930000Y-165578000D03*
X37930000Y-163288000D03*
%TD*%
D18*
%TO.C,X1*%
X87884000Y-177800000D03*
D19*
X103124000Y-177800000D03*
X103124000Y-170180000D03*
X87884000Y-170180000D03*
%TD*%
D18*
%TO.C,U8*%
X72136000Y-179070000D03*
D20*
X72136000Y-176530000D03*
X72136000Y-173990000D03*
X72136000Y-171450000D03*
X72136000Y-168910000D03*
X72136000Y-166370000D03*
X72136000Y-163830000D03*
X72136000Y-161290000D03*
X72136000Y-158750000D03*
X72136000Y-156210000D03*
X72136000Y-153670000D03*
X72136000Y-151130000D03*
X64516000Y-151130000D03*
X64516000Y-153670000D03*
X64516000Y-156210000D03*
X64516000Y-158750000D03*
X64516000Y-161290000D03*
X64516000Y-163830000D03*
X64516000Y-166370000D03*
X64516000Y-168910000D03*
X64516000Y-171450000D03*
X64516000Y-173990000D03*
X64516000Y-176530000D03*
X64516000Y-179070000D03*
%TD*%
D12*
%TO.C,JP1*%
X53345000Y-165608000D03*
D13*
X50805000Y-165608000D03*
%TD*%
D18*
%TO.C,U9*%
X83058000Y-179070000D03*
D20*
X83058000Y-176530000D03*
X83058000Y-173990000D03*
X83058000Y-171450000D03*
X83058000Y-168910000D03*
X83058000Y-166370000D03*
X83058000Y-163830000D03*
X83058000Y-161290000D03*
X83058000Y-158750000D03*
X83058000Y-156210000D03*
X83058000Y-153670000D03*
X83058000Y-151130000D03*
X75438000Y-151130000D03*
X75438000Y-153670000D03*
X75438000Y-156210000D03*
X75438000Y-158750000D03*
X75438000Y-161290000D03*
X75438000Y-163830000D03*
X75438000Y-166370000D03*
X75438000Y-168910000D03*
X75438000Y-171450000D03*
X75438000Y-173990000D03*
X75438000Y-176530000D03*
X75438000Y-179070000D03*
%TD*%
D21*
%TO.C,J4*%
X56115032Y-180378145D03*
X48115032Y-180378145D03*
%TD*%
D12*
%TO.C,J7*%
X50800000Y-152908000D03*
D13*
X50800000Y-155448000D03*
X53340000Y-152908000D03*
X53340000Y-155448000D03*
X55880000Y-152908000D03*
X55880000Y-155448000D03*
X58420000Y-152908000D03*
X58420000Y-155448000D03*
X60960000Y-152908000D03*
X60960000Y-155448000D03*
%TD*%
D22*
%TO.C,U10*%
X118074000Y-136812600D03*
X118074000Y-138082600D03*
X118074000Y-139352600D03*
X118074000Y-140622600D03*
X118074000Y-141892600D03*
X118074000Y-143162600D03*
X118074000Y-144432600D03*
X118074000Y-145702600D03*
X112924000Y-145702600D03*
X112924000Y-144432600D03*
X112924000Y-143162600D03*
X112924000Y-141892600D03*
X112924000Y-140622600D03*
X112924000Y-139352600D03*
X112924000Y-138082600D03*
X112924000Y-136812600D03*
%TD*%
D23*
%TO.C,C8*%
X46482000Y-157632400D03*
X48382000Y-157632400D03*
%TD*%
D22*
%TO.C,U4*%
X99625200Y-136812600D03*
X99625200Y-138082600D03*
X99625200Y-139352600D03*
X99625200Y-140622600D03*
X99625200Y-141892600D03*
X99625200Y-143162600D03*
X99625200Y-144432600D03*
X99625200Y-145702600D03*
X94475200Y-145702600D03*
X94475200Y-144432600D03*
X94475200Y-143162600D03*
X94475200Y-141892600D03*
X94475200Y-140622600D03*
X94475200Y-139352600D03*
X94475200Y-138082600D03*
X94475200Y-136812600D03*
%TD*%
D24*
%TO.C,R1*%
X48260000Y-144780000D03*
X46435000Y-144780000D03*
%TD*%
D23*
%TO.C,C7*%
X46482000Y-155549600D03*
X48382000Y-155549600D03*
%TD*%
D25*
%TO.C,R8*%
X50546000Y-138176000D03*
X52371000Y-138176000D03*
%TD*%
D26*
%TO.C,U19*%
X109934800Y-150622000D03*
X109934800Y-151892000D03*
X109934800Y-153162000D03*
X109934800Y-154432000D03*
X109934800Y-155702000D03*
X109934800Y-156972000D03*
X109934800Y-158242000D03*
X104984800Y-158242000D03*
X104984800Y-156972000D03*
X104984800Y-155702000D03*
X104984800Y-154432000D03*
X104984800Y-153162000D03*
X104984800Y-151892000D03*
X104984800Y-150622000D03*
%TD*%
D22*
%TO.C,U5*%
X90400800Y-136812600D03*
X90400800Y-138082600D03*
X90400800Y-139352600D03*
X90400800Y-140622600D03*
X90400800Y-141892600D03*
X90400800Y-143162600D03*
X90400800Y-144432600D03*
X90400800Y-145702600D03*
X85250800Y-145702600D03*
X85250800Y-144432600D03*
X85250800Y-143162600D03*
X85250800Y-141892600D03*
X85250800Y-140622600D03*
X85250800Y-139352600D03*
X85250800Y-138082600D03*
X85250800Y-136812600D03*
%TD*%
D24*
%TO.C,R4*%
X56435000Y-138176000D03*
X54610000Y-138176000D03*
%TD*%
D26*
%TO.C,U16*%
X110039400Y-160045400D03*
X110039400Y-161315400D03*
X110039400Y-162585400D03*
X110039400Y-163855400D03*
X110039400Y-165125400D03*
X110039400Y-166395400D03*
X110039400Y-167665400D03*
X105089400Y-167665400D03*
X105089400Y-166395400D03*
X105089400Y-165125400D03*
X105089400Y-163855400D03*
X105089400Y-162585400D03*
X105089400Y-161315400D03*
X105089400Y-160045400D03*
%TD*%
D24*
%TO.C,R9*%
X58062500Y-148336000D03*
X56237500Y-148336000D03*
%TD*%
%TO.C,R2*%
X52324000Y-144780000D03*
X50499000Y-144780000D03*
%TD*%
D22*
%TO.C,U3*%
X108849600Y-136812600D03*
X108849600Y-138082600D03*
X108849600Y-139352600D03*
X108849600Y-140622600D03*
X108849600Y-141892600D03*
X108849600Y-143162600D03*
X108849600Y-144432600D03*
X108849600Y-145702600D03*
X103699600Y-145702600D03*
X103699600Y-144432600D03*
X103699600Y-143162600D03*
X103699600Y-141892600D03*
X103699600Y-140622600D03*
X103699600Y-139352600D03*
X103699600Y-138082600D03*
X103699600Y-136812600D03*
%TD*%
D23*
%TO.C,C5*%
X46482000Y-153466800D03*
X48382000Y-153466800D03*
%TD*%
D26*
%TO.C,U15*%
X118364000Y-160020000D03*
X118364000Y-161290000D03*
X118364000Y-162560000D03*
X118364000Y-163830000D03*
X118364000Y-165100000D03*
X118364000Y-166370000D03*
X118364000Y-167640000D03*
X113414000Y-167640000D03*
X113414000Y-166370000D03*
X113414000Y-165100000D03*
X113414000Y-163830000D03*
X113414000Y-162560000D03*
X113414000Y-161290000D03*
X113414000Y-160020000D03*
%TD*%
D22*
%TO.C,U6*%
X81176400Y-136812600D03*
X81176400Y-138082600D03*
X81176400Y-139352600D03*
X81176400Y-140622600D03*
X81176400Y-141892600D03*
X81176400Y-143162600D03*
X81176400Y-144432600D03*
X81176400Y-145702600D03*
X76026400Y-145702600D03*
X76026400Y-144432600D03*
X76026400Y-143162600D03*
X76026400Y-141892600D03*
X76026400Y-140622600D03*
X76026400Y-139352600D03*
X76026400Y-138082600D03*
X76026400Y-136812600D03*
%TD*%
D25*
%TO.C,R5*%
X46435000Y-141478000D03*
X48260000Y-141478000D03*
%TD*%
D24*
%TO.C,R10*%
X58062500Y-150368000D03*
X56237500Y-150368000D03*
%TD*%
D25*
%TO.C,R7*%
X46435000Y-138176000D03*
X48260000Y-138176000D03*
%TD*%
D23*
%TO.C,C3*%
X46482000Y-151409400D03*
X48382000Y-151409400D03*
%TD*%
D25*
%TO.C,R11*%
X60405000Y-150190200D03*
X62230000Y-150190200D03*
%TD*%
D26*
%TO.C,U17*%
X118316800Y-150622000D03*
X118316800Y-151892000D03*
X118316800Y-153162000D03*
X118316800Y-154432000D03*
X118316800Y-155702000D03*
X118316800Y-156972000D03*
X118316800Y-158242000D03*
X113366800Y-158242000D03*
X113366800Y-156972000D03*
X113366800Y-155702000D03*
X113366800Y-154432000D03*
X113366800Y-153162000D03*
X113366800Y-151892000D03*
X113366800Y-150622000D03*
%TD*%
D23*
%TO.C,C2*%
X46482000Y-149352000D03*
X48382000Y-149352000D03*
%TD*%
D24*
%TO.C,R6*%
X52371000Y-141478000D03*
X50546000Y-141478000D03*
%TD*%
D25*
%TO.C,R12*%
X60405000Y-148082000D03*
X62230000Y-148082000D03*
%TD*%
%TO.C,R3*%
X54610000Y-141478000D03*
X56435000Y-141478000D03*
%TD*%
D22*
%TO.C,U7*%
X71952000Y-136812600D03*
X71952000Y-138082600D03*
X71952000Y-139352600D03*
X71952000Y-140622600D03*
X71952000Y-141892600D03*
X71952000Y-143162600D03*
X71952000Y-144432600D03*
X71952000Y-145702600D03*
X66802000Y-145702600D03*
X66802000Y-144432600D03*
X66802000Y-143162600D03*
X66802000Y-141892600D03*
X66802000Y-140622600D03*
X66802000Y-139352600D03*
X66802000Y-138082600D03*
X66802000Y-136812600D03*
%TD*%
M02*
