%TF.GenerationSoftware,KiCad,Pcbnew,8.0.4+dfsg-1*%
%TF.CreationDate,2024-12-19T01:54:21-05:00*%
%TF.ProjectId,VGA_SRAM_Shield,5647415f-5352-4414-9d5f-536869656c64,rev?*%
%TF.SameCoordinates,Original*%
%TF.FileFunction,Copper,L2,Inr*%
%TF.FilePolarity,Positive*%
%FSLAX46Y46*%
G04 Gerber Fmt 4.6, Leading zero omitted, Abs format (unit mm)*
G04 Created by KiCad (PCBNEW 8.0.4+dfsg-1) date 2024-12-19 01:54:21*
%MOMM*%
%LPD*%
G01*
G04 APERTURE LIST*
%TA.AperFunction,ComponentPad*%
%ADD10O,1.727200X1.727200*%
%TD*%
%TA.AperFunction,ComponentPad*%
%ADD11R,1.727200X1.727200*%
%TD*%
%TA.AperFunction,ComponentPad*%
%ADD12R,1.700000X1.700000*%
%TD*%
%TA.AperFunction,ComponentPad*%
%ADD13O,1.700000X1.700000*%
%TD*%
%TA.AperFunction,ComponentPad*%
%ADD14R,1.500000X1.500000*%
%TD*%
%TA.AperFunction,ComponentPad*%
%ADD15C,1.500000*%
%TD*%
%TA.AperFunction,ComponentPad*%
%ADD16C,3.500000*%
%TD*%
%TA.AperFunction,ComponentPad*%
%ADD17C,4.000000*%
%TD*%
%TA.AperFunction,ComponentPad*%
%ADD18R,1.600000X1.600000*%
%TD*%
%TA.AperFunction,ComponentPad*%
%ADD19C,1.600000*%
%TD*%
%TA.AperFunction,ComponentPad*%
%ADD20O,1.600000X1.600000*%
%TD*%
%TA.AperFunction,ViaPad*%
%ADD21C,0.600000*%
%TD*%
%TA.AperFunction,Conductor*%
%ADD22C,0.200000*%
%TD*%
G04 APERTURE END LIST*
D10*
%TO.N,3.3V*%
%TO.C,A1*%
X63195200Y-181991000D03*
%TO.N,5V*%
X65735200Y-181991000D03*
%TO.N,N/C*%
X93802200Y-154051000D03*
%TO.N,5V*%
X121615200Y-133731000D03*
X124155200Y-133731000D03*
%TO.N,Net-(J1-Pin_2)*%
X78435200Y-181991000D03*
%TO.N,Net-(J1-Pin_3)*%
X80975200Y-181991000D03*
%TO.N,Net-(J1-Pin_4)*%
X83515200Y-181991000D03*
%TO.N,Net-(J1-Pin_5)*%
X86055200Y-181991000D03*
%TO.N,Net-(J1-Pin_9)*%
X88595200Y-181991000D03*
%TO.N,Net-(J1-Pin_8)*%
X91135200Y-181991000D03*
%TO.N,Net-(J1-Pin_7)*%
X93675200Y-181991000D03*
%TO.N,Net-(J1-Pin_6)*%
X96215200Y-181991000D03*
%TO.N,DATA11*%
X101295200Y-181991000D03*
%TO.N,DATA12*%
X103835200Y-181991000D03*
%TO.N,DATA13*%
X106375200Y-181991000D03*
%TO.N,DATA14*%
X108915200Y-181991000D03*
%TO.N,unconnected-(A1-CANRX-PadCANR)*%
X116535200Y-181991000D03*
%TO.N,unconnected-(A1-CANTX-PadCANT)*%
X119075200Y-181991000D03*
%TO.N,unconnected-(A1-D0{slash}RX0-PadD0)*%
X91135200Y-133731000D03*
%TO.N,unconnected-(A1-D1{slash}TX0-PadD1)*%
X88595200Y-133731000D03*
%TO.N,/MCU OE*%
X86055200Y-133731000D03*
%TO.N,/MCU CE*%
X83515200Y-133731000D03*
%TO.N,/MCU WE*%
X80975200Y-133731000D03*
%TO.N,RESOLUTION*%
X78435200Y-133731000D03*
%TO.N,Net-(A1-PadD6)*%
X75895200Y-133731000D03*
%TO.N,Net-(A1-PadD7)*%
X73355200Y-133731000D03*
%TO.N,D0*%
X69291200Y-133731000D03*
%TO.N,D1*%
X66751200Y-133731000D03*
%TO.N,SD_CS*%
X64211200Y-133731000D03*
%TO.N,MCUMEMADDR7*%
X61671200Y-133731000D03*
%TO.N,MCUMEMADDR8*%
X59131200Y-133731000D03*
%TO.N,D2*%
X56591200Y-133731000D03*
%TO.N,MCUMEMADDR4*%
X96215200Y-133731000D03*
%TO.N,MCUMEMADDR5*%
X98755200Y-133731000D03*
%TO.N,Net-(A1-D16{slash}TX2)*%
X101295200Y-133731000D03*
%TO.N,Net-(A1-D17{slash}RX2)*%
X103835200Y-133731000D03*
%TO.N,Net-(A1-D18{slash}TX1)*%
X106375200Y-133731000D03*
%TO.N,Net-(A1-D19{slash}RX1)*%
X108915200Y-133731000D03*
%TO.N,unconnected-(A1-D20{slash}SDA-PadD20)*%
X111455200Y-133731000D03*
%TO.N,unconnected-(A1-D21{slash}SCL-PadD21)*%
X113995200Y-133731000D03*
%TO.N,~{SCREEN_VISIBLE}*%
X121615200Y-136271000D03*
%TO.N,~{V_VISIBLE}*%
X124155200Y-136271000D03*
%TO.N,H_VISIBLE*%
X121615200Y-138811000D03*
%TO.N,MCUMEMADDR0*%
X124155200Y-138811000D03*
%TO.N,MCUMEMADDR1*%
X121615200Y-141351000D03*
%TO.N,MCUMEMADDR2*%
X124155200Y-141351000D03*
%TO.N,MCUMEMADDR3*%
X121615200Y-143891000D03*
%TO.N,MCUMEMADDR6*%
X124155200Y-143891000D03*
%TO.N,MCUMEMADDR9*%
X121615200Y-146431000D03*
%TO.N,D3*%
X124155200Y-146431000D03*
%TO.N,MCUMEMADDR10*%
X121615200Y-148971000D03*
%TO.N,MCUMEMADDR11*%
X124155200Y-148971000D03*
%TO.N,MCUMEMADDR12*%
X121615200Y-151511000D03*
%TO.N,MCUMEMADDR13*%
X124155200Y-151511000D03*
%TO.N,MCUMEMADDR14*%
X121615200Y-154051000D03*
%TO.N,MCUMEMADDR15*%
X124155200Y-154051000D03*
%TO.N,MCUMEMADDR16*%
X121615200Y-156591000D03*
%TO.N,MCUMEMADDR17*%
X124155200Y-156591000D03*
%TO.N,MCUMEMADDR18*%
X121615200Y-159131000D03*
%TO.N,MCUMEMADDR19*%
X124155200Y-159131000D03*
%TO.N,D4*%
X121615200Y-161671000D03*
%TO.N,D5*%
X124155200Y-161671000D03*
%TO.N,DATA7*%
X121615200Y-164211000D03*
%TO.N,DATA6*%
X124155200Y-164211000D03*
%TO.N,DATA5*%
X121615200Y-166751000D03*
%TO.N,DATA4*%
X124155200Y-166751000D03*
%TO.N,DATA3*%
X121615200Y-169291000D03*
%TO.N,DATA2*%
X124155200Y-169291000D03*
%TO.N,DATA1*%
X121615200Y-171831000D03*
%TO.N,DATA0*%
X124155200Y-171831000D03*
%TO.N,DATA15*%
X121615200Y-174371000D03*
%TO.N,DATA8*%
X124155200Y-174371000D03*
%TO.N,DATA9*%
X111455200Y-181991000D03*
%TO.N,DATA10*%
X113995200Y-181991000D03*
D11*
%TO.N,GND*%
X54051200Y-133731000D03*
X68275200Y-181991000D03*
X70815200Y-181991000D03*
%TO.N,N/C*%
X93802200Y-159131000D03*
%TO.N,GND*%
X121615200Y-176911000D03*
X124155200Y-176911000D03*
D10*
%TO.N,N/C*%
X91262200Y-154051000D03*
X93802200Y-156591000D03*
X91262200Y-159131000D03*
X91262200Y-156591000D03*
%TO.N,PWR*%
X73355200Y-181991000D03*
%TD*%
D12*
%TO.N,PWR*%
%TO.C,J2*%
X101845500Y-154231800D03*
D13*
X99305500Y-154231800D03*
%TO.N,GND*%
X101845500Y-156771800D03*
X99305500Y-156771800D03*
%TD*%
D12*
%TO.N,GND*%
%TO.C,J6*%
X46400000Y-165700000D03*
D13*
%TO.N,Net-(J6-Pin_2)*%
X46400000Y-163160000D03*
X46400000Y-160620000D03*
%TD*%
D12*
%TO.N,PWR*%
%TO.C,J1*%
X50800000Y-159258000D03*
D13*
%TO.N,Net-(J1-Pin_2)*%
X50800000Y-161798000D03*
%TO.N,Net-(J1-Pin_3)*%
X53340000Y-159258000D03*
%TO.N,Net-(J1-Pin_4)*%
X53340000Y-161798000D03*
%TO.N,Net-(J1-Pin_5)*%
X55880000Y-159258000D03*
%TO.N,Net-(J1-Pin_6)*%
X55880000Y-161798000D03*
%TO.N,Net-(J1-Pin_7)*%
X58420000Y-159258000D03*
%TO.N,Net-(J1-Pin_8)*%
X58420000Y-161798000D03*
%TO.N,Net-(J1-Pin_9)*%
X60960000Y-159258000D03*
%TO.N,GND*%
X60960000Y-161798000D03*
%TD*%
D14*
%TO.N,PWR*%
%TO.C,J5*%
X39194300Y-139502000D03*
D15*
%TO.N,Net-(A1-D18{slash}TX1)*%
X39194300Y-142002000D03*
%TO.N,Net-(A1-D19{slash}RX1)*%
X39194300Y-144002000D03*
%TO.N,GND*%
X39194300Y-146502000D03*
%TO.N,PWR*%
X41814300Y-139502000D03*
%TO.N,Net-(A1-D16{slash}TX2)*%
X41814300Y-142002000D03*
%TO.N,Net-(A1-D17{slash}RX2)*%
X41814300Y-144002000D03*
%TO.N,GND*%
X41814300Y-146502000D03*
D16*
X36484300Y-136432000D03*
X36484300Y-149572000D03*
X42164300Y-136432000D03*
X42164300Y-149572000D03*
%TD*%
D17*
%TO.N,N/C*%
%TO.C,J3*%
X40470000Y-155633000D03*
X40470000Y-180633000D03*
D18*
%TO.N,Net-(J3-Pad1)*%
X41890000Y-172448000D03*
D19*
%TO.N,Net-(J3-Pad2)*%
X41890000Y-170158000D03*
%TO.N,Net-(J3-Pad3)*%
X41890000Y-167868000D03*
%TO.N,unconnected-(J3-Pad4)*%
X41890000Y-165578000D03*
%TO.N,GND*%
X41890000Y-163288000D03*
X39910000Y-173593000D03*
X39910000Y-171303000D03*
X39910000Y-169013000D03*
%TO.N,unconnected-(J3-Pad9)*%
X39910000Y-166723000D03*
%TO.N,GND*%
X39910000Y-164433000D03*
%TO.N,unconnected-(J3-Pad11)*%
X37930000Y-172448000D03*
%TO.N,unconnected-(J3-Pad12)*%
X37930000Y-170158000D03*
%TO.N,Net-(J3-Pad13)*%
X37930000Y-167868000D03*
%TO.N,Net-(J3-Pad14)*%
X37930000Y-165578000D03*
%TO.N,unconnected-(J3-Pad15)*%
X37930000Y-163288000D03*
%TD*%
D18*
%TO.N,unconnected-(X1-NC-Pad1)*%
%TO.C,X1*%
X87884000Y-177800000D03*
D19*
%TO.N,GND*%
X103124000Y-177800000D03*
%TO.N,H_CLK*%
X103124000Y-170180000D03*
%TO.N,PWR*%
X87884000Y-170180000D03*
%TD*%
D18*
%TO.N,A0*%
%TO.C,U8*%
X72136000Y-179070000D03*
D20*
%TO.N,A1*%
X72136000Y-176530000D03*
%TO.N,A2*%
X72136000Y-173990000D03*
%TO.N,A3*%
X72136000Y-171450000D03*
%TO.N,A4*%
X72136000Y-168910000D03*
%TO.N,A5*%
X72136000Y-166370000D03*
%TO.N,A6*%
X72136000Y-163830000D03*
%TO.N,A7*%
X72136000Y-161290000D03*
%TO.N,A8*%
X72136000Y-158750000D03*
%TO.N,A9*%
X72136000Y-156210000D03*
%TO.N,unconnected-(U8-I11-Pad11)*%
X72136000Y-153670000D03*
%TO.N,GND*%
X72136000Y-151130000D03*
%TO.N,unconnected-(U8-I13-Pad13)*%
X64516000Y-151130000D03*
%TO.N,unconnected-(U8-IO14-Pad14)*%
X64516000Y-153670000D03*
%TO.N,unconnected-(U8-IO15-Pad15)*%
X64516000Y-156210000D03*
%TO.N,H_VISIBLE*%
X64516000Y-158750000D03*
%TO.N,unconnected-(U8-IO17-Pad17)*%
X64516000Y-161290000D03*
%TO.N,~{H_SYNC}*%
X64516000Y-163830000D03*
%TO.N,unconnected-(U8-IO19-Pad19)*%
X64516000Y-166370000D03*
%TO.N,Net-(U3-~{MR})*%
X64516000Y-168910000D03*
%TO.N,unconnected-(U8-IO21-Pad21)*%
X64516000Y-171450000D03*
%TO.N,unconnected-(U8-IO22-Pad22)*%
X64516000Y-173990000D03*
%TO.N,Net-(U8-IO23)*%
X64516000Y-176530000D03*
%TO.N,PWR*%
X64516000Y-179070000D03*
%TD*%
D12*
%TO.N,RESOLUTION*%
%TO.C,JP1*%
X53345000Y-165608000D03*
D13*
%TO.N,PWR*%
X50805000Y-165608000D03*
%TD*%
D18*
%TO.N,Net-(U5-Q0)*%
%TO.C,U9*%
X83058000Y-179070000D03*
D20*
%TO.N,A10*%
X83058000Y-176530000D03*
%TO.N,A11*%
X83058000Y-173990000D03*
%TO.N,A12*%
X83058000Y-171450000D03*
%TO.N,A13*%
X83058000Y-168910000D03*
%TO.N,A14*%
X83058000Y-166370000D03*
%TO.N,A15*%
X83058000Y-163830000D03*
%TO.N,A16*%
X83058000Y-161290000D03*
%TO.N,A17*%
X83058000Y-158750000D03*
%TO.N,A18*%
X83058000Y-156210000D03*
%TO.N,H_VISIBLE*%
X83058000Y-153670000D03*
%TO.N,GND*%
X83058000Y-151130000D03*
%TO.N,unconnected-(U9-I13-Pad13)*%
X75438000Y-151130000D03*
%TO.N,~{V_VISIBLE}*%
X75438000Y-153670000D03*
%TO.N,V_FRONT_PORCH*%
X75438000Y-156210000D03*
%TO.N,~{V_SYNC}*%
X75438000Y-158750000D03*
%TO.N,unconnected-(U9-IO17-Pad17)*%
X75438000Y-161290000D03*
%TO.N,unconnected-(U9-IO18-Pad18)*%
X75438000Y-163830000D03*
%TO.N,unconnected-(U9-IO19-Pad19)*%
X75438000Y-166370000D03*
%TO.N,~{V_RESET}*%
X75438000Y-168910000D03*
%TO.N,~{SCREEN_VISIBLE}*%
X75438000Y-171450000D03*
%TO.N,unconnected-(U9-IO22-Pad22)*%
X75438000Y-173990000D03*
%TO.N,Net-(U8-IO23)*%
X75438000Y-176530000D03*
%TO.N,PWR*%
X75438000Y-179070000D03*
%TD*%
D12*
%TO.N,5V*%
%TO.C,J7*%
X50800000Y-152908000D03*
D13*
%TO.N,3.3V*%
X50800000Y-155448000D03*
%TO.N,D0*%
X53340000Y-152908000D03*
%TO.N,D1*%
X53340000Y-155448000D03*
%TO.N,D2*%
X55880000Y-152908000D03*
%TO.N,D3*%
X55880000Y-155448000D03*
%TO.N,D4*%
X58420000Y-152908000D03*
%TO.N,D5*%
X58420000Y-155448000D03*
%TO.N,GND*%
X60960000Y-152908000D03*
X60960000Y-155448000D03*
%TD*%
D21*
%TO.N,PWR*%
X114055200Y-159155600D03*
X104530900Y-135981300D03*
X44476700Y-148532700D03*
X114654400Y-136810000D03*
X75756000Y-135966900D03*
%TO.N,Net-(U3-~{MR})*%
X74295400Y-137840300D03*
X77938700Y-137629300D03*
X88781100Y-137705700D03*
%TO.N,H_VISIBLE*%
X50832300Y-149730400D03*
%TO.N,~{H_SYNC}*%
X50975300Y-157305200D03*
%TO.N,~{V_RESET}*%
X78033700Y-161844200D03*
X47329200Y-167540000D03*
X78187800Y-139634000D03*
X47468800Y-156462800D03*
%TO.N,~{SCREEN_VISIBLE}*%
X120251800Y-163422900D03*
X49384100Y-157325300D03*
X53560100Y-171777500D03*
%TO.N,Net-(J1-Pin_2)*%
X55097300Y-163866100D03*
%TO.N,GND*%
X117021500Y-158853200D03*
X109686700Y-149069600D03*
%TO.N,~{V_VISIBLE}*%
X78706500Y-137167300D03*
%TO.N,Net-(A1-D19{slash}RX1)*%
X49866100Y-132620600D03*
%TO.N,SD_CS*%
X48598500Y-171178900D03*
%TO.N,Net-(J1-Pin_6)*%
X64225000Y-183025000D03*
%TO.N,Net-(J3-Pad2)*%
X49343200Y-141275600D03*
%TO.N,Net-(J3-Pad13)*%
X59386600Y-150633400D03*
%TO.N,Net-(J3-Pad1)*%
X48202500Y-142937100D03*
%TO.N,Net-(U2-B0)*%
X53167600Y-148220900D03*
%TO.N,Net-(U2-B1)*%
X111325700Y-165759600D03*
X110807800Y-168690500D03*
X44481100Y-165973700D03*
%TO.N,Net-(U2-B2)*%
X70763700Y-153166600D03*
X112658900Y-168683400D03*
X85392000Y-167966700D03*
%TO.N,Net-(U2-B3)*%
X113665000Y-171644800D03*
X102062300Y-158720300D03*
X77673000Y-155218000D03*
%TO.N,Net-(U2-B4)*%
X113848100Y-168699100D03*
X44957200Y-143642000D03*
%TO.N,Net-(U2-B5)*%
X50114000Y-131516200D03*
X116942600Y-171779900D03*
%TO.N,Net-(U2-B6)*%
X115588700Y-171756500D03*
X50546000Y-139394000D03*
X44146700Y-170580200D03*
%TO.N,Net-(U2-B7)*%
X43548900Y-142413200D03*
X118874900Y-171760900D03*
%TO.N,MEMADDR0*%
X85538500Y-155172600D03*
X89070500Y-153029400D03*
X88764300Y-138937600D03*
%TO.N,MEMADDR13*%
X79409100Y-144761400D03*
X85182700Y-160861400D03*
X115593100Y-164054100D03*
%TO.N,MEMADDR14*%
X69731100Y-150163700D03*
X120216700Y-167467800D03*
X80299800Y-169834100D03*
%TO.N,MEMADDR2*%
X87201400Y-144173600D03*
X61080900Y-142188300D03*
%TO.N,MEMADDR9*%
X111594100Y-159475600D03*
X70568100Y-155273900D03*
%TO.N,MEMADDR10*%
X82879200Y-146481300D03*
X86070700Y-158193000D03*
X115188500Y-161306300D03*
%TO.N,MEMADDR11*%
X117019700Y-164505800D03*
X85659400Y-163554600D03*
X79841900Y-156729100D03*
X79945800Y-151730900D03*
%TO.N,DATA6*%
X111687900Y-176601000D03*
X115690300Y-158339700D03*
%TO.N,MEMADDR5*%
X91681100Y-147642100D03*
X116832500Y-150484000D03*
X56865700Y-146277200D03*
%TO.N,MEMADDR4*%
X57080000Y-145345400D03*
X89403800Y-147460600D03*
%TO.N,/MCU CE*%
X103480900Y-155399400D03*
X95272500Y-153276200D03*
%TO.N,MEMADDR12*%
X120245700Y-164819500D03*
X95340900Y-165797100D03*
%TO.N,MEMADDR3*%
X87140800Y-145774000D03*
X57139600Y-143245800D03*
%TO.N,Net-(J1-Pin_3)*%
X52496700Y-171595000D03*
%TO.N,~{OE}*%
X111637200Y-161693800D03*
X111431700Y-152884000D03*
%TO.N,MEMADDR7*%
X116818400Y-152084000D03*
X92276300Y-149524500D03*
X55008800Y-149041600D03*
%TO.N,MEMADDR18*%
X111534700Y-164951400D03*
X116059200Y-146752200D03*
%TO.N,MEMADDR16*%
X104940300Y-139937300D03*
X103277600Y-153290400D03*
%TO.N,MEMADDR17*%
X103010100Y-159863300D03*
X117134000Y-146972600D03*
%TO.N,MEMADDR19*%
X111374600Y-163183500D03*
X112783100Y-147184400D03*
%TO.N,MEMADDR8*%
X118615000Y-149210900D03*
X70170400Y-137948000D03*
X69572600Y-135947500D03*
%TO.N,MEMADDR1*%
X98364600Y-141267800D03*
X57366600Y-140613900D03*
%TO.N,MEMADDR6*%
X98608400Y-149031800D03*
X54091800Y-146590900D03*
X111431700Y-150754300D03*
%TO.N,~{VGA_OUT}*%
X114965100Y-165813600D03*
%TO.N,A1*%
X116052600Y-142052900D03*
X101541400Y-140981700D03*
X84604700Y-174943000D03*
%TO.N,A2*%
X115066300Y-144309200D03*
X82945200Y-140164600D03*
X84567300Y-174131900D03*
X104394200Y-147195700D03*
%TO.N,A0*%
X87142500Y-138005600D03*
X114686500Y-138917400D03*
X85939400Y-172473600D03*
%TO.N,A3*%
X89445900Y-156561600D03*
X114452200Y-142708800D03*
X88340200Y-145129300D03*
%TO.N,H_CLK*%
X92172900Y-142386100D03*
X95028400Y-150138400D03*
%TO.N,A6*%
X87214100Y-146974300D03*
X88529200Y-162459400D03*
X104892500Y-141290000D03*
X81336500Y-164934200D03*
%TO.N,A4*%
X89388800Y-158996400D03*
X85681000Y-164433900D03*
X88968300Y-143079900D03*
%TO.N,A5*%
X77138400Y-159515600D03*
X102496300Y-141224500D03*
X79249700Y-140269500D03*
%TO.N,A7*%
X89448000Y-148293000D03*
X89252100Y-161944600D03*
X102271600Y-144894200D03*
%TO.N,A8*%
X92012300Y-137607300D03*
X73838500Y-139101400D03*
%TO.N,A9*%
X74644700Y-139143900D03*
X92090400Y-138807600D03*
%TO.N,Net-(U5-Q0)*%
X81718700Y-177324200D03*
X79128600Y-141902100D03*
%TO.N,Net-(A1-PadD6)*%
X61038700Y-168061800D03*
%TO.N,A10*%
X84880900Y-166855300D03*
X87214900Y-140406200D03*
X79439800Y-139298000D03*
%TO.N,A11*%
X65340800Y-141614800D03*
X88704600Y-141443200D03*
%TO.N,A12*%
X77883600Y-141791600D03*
X81024600Y-167150100D03*
X80891400Y-155367100D03*
%TO.N,A13*%
X79821000Y-169042000D03*
X70017500Y-144502800D03*
%TO.N,A15*%
X78915500Y-150427700D03*
%TO.N,A14*%
X74132500Y-144502800D03*
%TO.N,RESOLUTION*%
X68166500Y-160425100D03*
%TO.N,A16*%
X91052900Y-148173900D03*
X111152400Y-138048700D03*
%TO.N,A18*%
X95170200Y-157119400D03*
X111154900Y-140762300D03*
X78650600Y-153976600D03*
%TO.N,A17*%
X115183600Y-139564900D03*
X95015000Y-148394800D03*
X92958000Y-132923700D03*
%TO.N,/MCU WE*%
X111392300Y-154889200D03*
X86488500Y-150991600D03*
%TO.N,DATA7*%
X109441600Y-177513900D03*
X115265200Y-155903600D03*
%TO.N,~{TIMING ADDR}*%
X120098900Y-148912800D03*
X116553000Y-138080000D03*
%TO.N,Net-(U16-Pad8)*%
X111446100Y-156565600D03*
X115774300Y-156565600D03*
%TO.N,Net-(A1-PadD7)*%
X60480600Y-167461600D03*
%TO.N,DATA3*%
X118712300Y-168694400D03*
X116485100Y-161096000D03*
%TO.N,D2*%
X63014900Y-142777300D03*
%TO.N,DATA5*%
X111306200Y-177899100D03*
X103581500Y-161501700D03*
%TO.N,/MCU OE*%
X102935200Y-150456100D03*
X96700700Y-150456100D03*
%TO.N,MCUMEMADDR1*%
X62828100Y-140771700D03*
%TO.N,DATA2*%
X115351900Y-177895700D03*
%TO.N,MCUMEMADDR17*%
X95771300Y-138728800D03*
%TO.N,MCUMEMADDR10*%
X116626800Y-140470100D03*
X60497200Y-140441900D03*
%TO.N,Net-(U1-~{WE})*%
X103655900Y-163219500D03*
%TO.N,Net-(U11-CE)*%
X102202800Y-139604600D03*
X97808200Y-149209300D03*
X69616300Y-138556700D03*
%TO.N,MCUMEMADDR4*%
X50149400Y-143572700D03*
X58237400Y-134894800D03*
%TO.N,MCUMEMADDR7*%
X48800400Y-146970000D03*
%TO.N,MCUMEMADDR15*%
X64588600Y-149402100D03*
%TO.N,MCUMEMADDR18*%
X114413800Y-149417900D03*
%TO.N,MCUMEMADDR8*%
X60496300Y-138080000D03*
%TO.N,MCUMEMADDR6*%
X64481100Y-135494900D03*
X53207300Y-145700000D03*
%TO.N,MCUMEMADDR5*%
X59399800Y-135928700D03*
X52119500Y-143568200D03*
%TO.N,MCUMEMADDR9*%
X63901600Y-144502800D03*
%TO.N,MCUMEMADDR3*%
X53387300Y-141584300D03*
%TO.N,MCUMEMADDR11*%
X61302000Y-143893500D03*
%TO.N,MCUMEMADDR14*%
X63245500Y-148856200D03*
%TO.N,MCUMEMADDR0*%
X53393300Y-137632600D03*
%TO.N,MCUMEMADDR2*%
X47792200Y-140162300D03*
%TO.N,MCUMEMADDR16*%
X101002500Y-139204500D03*
%TO.N,MCUMEMADDR12*%
X60481600Y-144770500D03*
%TO.N,MCUMEMADDR19*%
X107578700Y-148811800D03*
%TO.N,MCUMEMADDR13*%
X64893600Y-145774100D03*
%TO.N,A19*%
X102305600Y-142068000D03*
X65425300Y-140812100D03*
%TD*%
D22*
%TO.N,Net-(U2-B7)*%
X36824700Y-172946800D02*
X47577900Y-183700000D01*
X101095500Y-179250300D02*
X111385500Y-179250300D01*
X47577900Y-183700000D02*
X96645800Y-183700000D01*
X36824700Y-152211600D02*
X36824700Y-172946800D01*
X39465900Y-149570400D02*
X36824700Y-152211600D01*
X40504300Y-148280200D02*
X39465900Y-149318600D01*
X40504300Y-146278800D02*
X40504300Y-148280200D01*
X43548900Y-142413200D02*
X43548900Y-143781000D01*
X41531100Y-145252000D02*
X40504300Y-146278800D01*
X43548900Y-143781000D02*
X42077900Y-145252000D01*
X42077900Y-145252000D02*
X41531100Y-145252000D01*
X39465900Y-149318600D02*
X39465900Y-149570400D01*
X96645800Y-183700000D02*
X101095500Y-179250300D01*
X111385500Y-179250300D02*
X118874900Y-171760900D01*
%TO.N,Net-(J1-Pin_4)*%
X52194800Y-164213000D02*
X52194800Y-168695300D01*
X61342100Y-178360100D02*
X64571600Y-181589600D01*
X52194800Y-168695300D02*
X61342100Y-177842600D01*
X64571600Y-181589600D02*
X64571600Y-182472979D01*
X53340000Y-161798000D02*
X53340000Y-163067800D01*
X61342100Y-177842600D02*
X61342100Y-178360100D01*
X82320700Y-183185500D02*
X83515200Y-181991000D01*
X53340000Y-163067800D02*
X52194800Y-164213000D01*
X65284121Y-183185500D02*
X82320700Y-183185500D01*
X64571600Y-182472979D02*
X65284121Y-183185500D01*
%TO.N,PWR*%
X87884000Y-170180000D02*
X98155400Y-159908600D01*
X51950100Y-161270600D02*
X51087600Y-160408100D01*
X75438000Y-179070000D02*
X75438000Y-180170100D01*
X50800000Y-159258000D02*
X50800000Y-160408100D01*
X73355200Y-181991000D02*
X74518900Y-181991000D01*
X99305500Y-154231800D02*
X99305500Y-155381900D01*
X99017900Y-155381900D02*
X99305500Y-155381900D01*
X50805000Y-164457900D02*
X51950100Y-163312800D01*
X98155400Y-159908600D02*
X98155400Y-156244400D01*
X50805000Y-165608000D02*
X50805000Y-164457900D01*
X75438000Y-180170100D02*
X74518900Y-181089200D01*
X98155400Y-156244400D02*
X99017900Y-155381900D01*
X41814300Y-139502000D02*
X39194300Y-139502000D01*
X44302300Y-141990000D02*
X41814300Y-139502000D01*
X44476700Y-148532700D02*
X44302300Y-148358300D01*
X44302300Y-148358300D02*
X44302300Y-141990000D01*
X51087600Y-160408100D02*
X50800000Y-160408100D01*
X51950100Y-163312800D02*
X51950100Y-161270600D01*
X74518900Y-181089200D02*
X74518900Y-181991000D01*
%TO.N,Net-(U3-~{MR})*%
X68683700Y-143336800D02*
X68683700Y-158769800D01*
X74180200Y-137840300D02*
X68683700Y-143336800D01*
X68766600Y-158852700D02*
X68766600Y-163787200D01*
X68683700Y-158769800D02*
X68766600Y-158852700D01*
X68766600Y-163787200D02*
X64743900Y-167809900D01*
X64516000Y-168910000D02*
X64516000Y-167809900D01*
X74295400Y-137840300D02*
X74180200Y-137840300D01*
X64743900Y-167809900D02*
X64516000Y-167809900D01*
%TO.N,H_VISIBLE*%
X63385200Y-156747100D02*
X64288000Y-157649900D01*
X64516000Y-158750000D02*
X64516000Y-157649900D01*
X74355700Y-135799800D02*
X65608700Y-144546800D01*
X120451500Y-138539800D02*
X114071400Y-132159700D01*
X65608700Y-147529500D02*
X63385200Y-149753000D01*
X120451500Y-138811000D02*
X120451500Y-138539800D01*
X64288000Y-157649900D02*
X64516000Y-157649900D01*
X63385200Y-149753000D02*
X63385200Y-156747100D01*
X65608700Y-144546800D02*
X65608700Y-147529500D01*
X75761300Y-132159700D02*
X74625200Y-133295800D01*
X74625200Y-135117500D02*
X74355700Y-135387000D01*
X74625200Y-133295800D02*
X74625200Y-135117500D01*
X121615200Y-138811000D02*
X120451500Y-138811000D01*
X114071400Y-132159700D02*
X75761300Y-132159700D01*
X74355700Y-135387000D02*
X74355700Y-135799800D01*
%TO.N,~{V_RESET}*%
X78273100Y-154969400D02*
X78033700Y-154730000D01*
X78033700Y-154730000D02*
X78033700Y-145340700D01*
X78273100Y-161604800D02*
X78273100Y-154969400D01*
X77245700Y-144552700D02*
X77245700Y-140576100D01*
X77245700Y-140576100D02*
X78187800Y-139634000D01*
X47550200Y-156544200D02*
X47468800Y-156462800D01*
X78033700Y-145340700D02*
X77245700Y-144552700D01*
X47329200Y-167540000D02*
X47550200Y-167319000D01*
X47550200Y-167319000D02*
X47550200Y-156544200D01*
X78033700Y-161844200D02*
X78273100Y-161604800D01*
%TO.N,~{SCREEN_VISIBLE}*%
X49198700Y-157510700D02*
X49198700Y-167416100D01*
X49384100Y-157325300D02*
X49198700Y-157510700D01*
X49198700Y-167416100D02*
X53560100Y-171777500D01*
%TO.N,Net-(J1-Pin_2)*%
X67437900Y-175260000D02*
X69977900Y-177800000D01*
X69977900Y-177800000D02*
X75775700Y-177800000D01*
X78435200Y-180459500D02*
X78435200Y-181991000D01*
X55097300Y-163866100D02*
X55097300Y-166137300D01*
X64220000Y-175260000D02*
X67437900Y-175260000D01*
X75775700Y-177800000D02*
X78435200Y-180459500D01*
X55097300Y-166137300D02*
X64220000Y-175260000D01*
%TO.N,GND*%
X36484300Y-149212000D02*
X36484300Y-149572000D01*
X101845500Y-157921900D02*
X101445400Y-158322000D01*
X39194300Y-146502000D02*
X36484300Y-149212000D01*
X42164300Y-136432000D02*
X50186500Y-136432000D01*
X41890000Y-163288000D02*
X42787200Y-162390800D01*
X41055000Y-163288000D02*
X39910000Y-164433000D01*
X50186500Y-136432000D02*
X52887500Y-133731000D01*
X42357800Y-169013000D02*
X39910000Y-169013000D01*
X62115000Y-157753100D02*
X62115000Y-159731200D01*
X42164300Y-146852000D02*
X42164300Y-149572000D01*
X101445400Y-158322000D02*
X101445400Y-176121400D01*
X60960000Y-161798000D02*
X60960000Y-160647900D01*
X41814300Y-146502000D02*
X42164300Y-146852000D01*
X42787200Y-162390800D02*
X42787200Y-150194900D01*
X41890000Y-163288000D02*
X41055000Y-163288000D01*
X54051200Y-133731000D02*
X52887500Y-133731000D01*
X60960000Y-156598100D02*
X62115000Y-157753100D01*
X39910000Y-171303000D02*
X39910000Y-169013000D01*
X101845500Y-156771800D02*
X101845500Y-157921900D01*
X42787200Y-150194900D02*
X42164300Y-149572000D01*
X43037200Y-168333600D02*
X42357800Y-169013000D01*
X39910000Y-173593000D02*
X39910000Y-171303000D01*
X101445400Y-176121400D02*
X103124000Y-177800000D01*
X61198300Y-160647900D02*
X60960000Y-160647900D01*
X43037200Y-164435200D02*
X43037200Y-168333600D01*
X41890000Y-163288000D02*
X43037200Y-164435200D01*
X60960000Y-155448000D02*
X60960000Y-156598100D01*
X62115000Y-159731200D02*
X61198300Y-160647900D01*
X60960000Y-152908000D02*
X60960000Y-155448000D01*
%TO.N,~{V_VISIBLE}*%
X73664500Y-144883700D02*
X73514400Y-144733600D01*
X78112500Y-138294800D02*
X78183300Y-138294800D01*
X73664500Y-150933900D02*
X73664500Y-144883700D01*
X75438000Y-153670000D02*
X75438000Y-152569900D01*
X75300500Y-152569900D02*
X73664500Y-150933900D01*
X73514400Y-142892900D02*
X78112500Y-138294800D01*
X78706500Y-137771600D02*
X78706500Y-137167300D01*
X73514400Y-144733600D02*
X73514400Y-142892900D01*
X78183300Y-138294800D02*
X78706500Y-137771600D01*
X75438000Y-152569900D02*
X75300500Y-152569900D01*
%TO.N,SD_CS*%
X64211200Y-133731000D02*
X63047500Y-133731000D01*
X59755000Y-139074200D02*
X59755000Y-137966200D01*
X59755000Y-137966200D02*
X63047500Y-134673700D01*
X48598500Y-149444400D02*
X56828900Y-141214000D01*
X56828900Y-141214000D02*
X57615200Y-141214000D01*
X63047500Y-134673700D02*
X63047500Y-133731000D01*
X48598500Y-171178900D02*
X48598500Y-149444400D01*
X57615200Y-141214000D02*
X59755000Y-139074200D01*
%TO.N,Net-(J3-Pad2)*%
X49343200Y-141275600D02*
X48416800Y-141275600D01*
X46291400Y-149804200D02*
X43573100Y-152522500D01*
X46291400Y-143401000D02*
X46291400Y-149804200D01*
X48416800Y-141275600D02*
X46291400Y-143401000D01*
X43573100Y-168474900D02*
X41890000Y-170158000D01*
X43573100Y-152522500D02*
X43573100Y-168474900D01*
%TO.N,Net-(J3-Pad1)*%
X48198300Y-167519600D02*
X48198300Y-142941300D01*
X43269900Y-172448000D02*
X48198300Y-167519600D01*
X48198300Y-142941300D02*
X48202500Y-142937100D01*
X41890000Y-172448000D02*
X42990100Y-172448000D01*
X42990100Y-172448000D02*
X43269900Y-172448000D01*
%TO.N,Net-(U2-B1)*%
X110807800Y-168690500D02*
X110807800Y-166277500D01*
X110807800Y-166277500D02*
X111325700Y-165759600D01*
%TO.N,Net-(U2-B2)*%
X71653000Y-157310200D02*
X71035000Y-156692200D01*
X85392000Y-167966700D02*
X84895500Y-167470200D01*
X74967900Y-160020000D02*
X72258100Y-157310200D01*
X71035000Y-156692200D02*
X71035000Y-155655700D01*
X70763700Y-154620800D02*
X70763700Y-153166600D01*
X76633400Y-161910300D02*
X76633400Y-160917100D01*
X82193300Y-167470200D02*
X76633400Y-161910300D01*
X76633400Y-160917100D02*
X75736300Y-160020000D01*
X84895500Y-167470200D02*
X82193300Y-167470200D01*
X71168200Y-155522500D02*
X71168200Y-155025300D01*
X71168200Y-155025300D02*
X70763700Y-154620800D01*
X72258100Y-157310200D02*
X71653000Y-157310200D01*
X71035000Y-155655700D02*
X71168200Y-155522500D01*
X75736300Y-160020000D02*
X74967900Y-160020000D01*
%TO.N,Net-(U2-B3)*%
X103717900Y-160749900D02*
X103042300Y-160749900D01*
X103042300Y-160749900D02*
X102062300Y-159769900D01*
X105521200Y-162553200D02*
X103717900Y-160749900D01*
X105521200Y-164323800D02*
X105521200Y-162553200D01*
X102062300Y-159769900D02*
X102062300Y-158720300D01*
X112842200Y-171644800D02*
X105521200Y-164323800D01*
X113665000Y-171644800D02*
X112842200Y-171644800D01*
%TO.N,Net-(U2-B6)*%
X48379700Y-141878500D02*
X49589100Y-141878500D01*
X44146700Y-170580200D02*
X45249800Y-169477100D01*
X45249800Y-152050900D02*
X47197500Y-150103200D01*
X45249800Y-169477100D02*
X45249800Y-152050900D01*
X50546000Y-140921600D02*
X50546000Y-139394000D01*
X47197500Y-143060700D02*
X48379700Y-141878500D01*
X47197500Y-150103200D02*
X47197500Y-143060700D01*
X49589100Y-141878500D02*
X50546000Y-140921600D01*
%TO.N,MEMADDR0*%
X86952900Y-144773700D02*
X86601300Y-144422100D01*
X87782400Y-138937600D02*
X88764300Y-138937600D01*
X89070500Y-149895600D02*
X87814200Y-148639300D01*
X89070500Y-153029400D02*
X89070500Y-149895600D01*
X86601300Y-144422100D02*
X86601300Y-140118700D01*
X87814200Y-145543500D02*
X87044400Y-144773700D01*
X87044400Y-144773700D02*
X86952900Y-144773700D01*
X87814200Y-148639300D02*
X87814200Y-145543500D01*
X86601300Y-140118700D02*
X87782400Y-138937600D01*
%TO.N,MEMADDR13*%
X84538300Y-160217000D02*
X85182700Y-160861400D01*
X82744800Y-152400000D02*
X83360000Y-152400000D01*
X79409100Y-144761400D02*
X79409100Y-149064300D01*
X83360000Y-152400000D02*
X84538300Y-153578300D01*
X84538300Y-153578300D02*
X84538300Y-160217000D01*
X79409100Y-149064300D02*
X82744800Y-152400000D01*
%TO.N,MEMADDR14*%
X71815400Y-160020000D02*
X69567800Y-157772400D01*
X80421100Y-169712800D02*
X80421100Y-167194500D01*
X75110200Y-162560000D02*
X72570200Y-160020000D01*
X69567800Y-157772400D02*
X69567800Y-150327000D01*
X80421100Y-167194500D02*
X75786600Y-162560000D01*
X75786600Y-162560000D02*
X75110200Y-162560000D01*
X80299800Y-169834100D02*
X80421100Y-169712800D01*
X72570200Y-160020000D02*
X71815400Y-160020000D01*
X69567800Y-150327000D02*
X69731100Y-150163700D01*
%TO.N,MEMADDR10*%
X86138600Y-152076000D02*
X86138600Y-158125100D01*
X86138600Y-158125100D02*
X86070700Y-158193000D01*
X82879200Y-146481300D02*
X82879200Y-148816600D01*
X82879200Y-148816600D02*
X86138600Y-152076000D01*
%TO.N,MEMADDR11*%
X85659400Y-162261000D02*
X85659400Y-163554600D01*
X83418400Y-160020000D02*
X85659400Y-162261000D01*
X79841900Y-156729100D02*
X79841900Y-157096300D01*
X79841900Y-157096300D02*
X82765600Y-160020000D01*
X82765600Y-160020000D02*
X83418400Y-160020000D01*
%TO.N,DATA6*%
X115690300Y-158425900D02*
X117771600Y-160507200D01*
X124155200Y-164211000D02*
X124155200Y-163047300D01*
X123883900Y-163047300D02*
X124155200Y-163047300D01*
X115690300Y-158339700D02*
X115690300Y-158425900D01*
X122142100Y-160507200D02*
X122885200Y-161250300D01*
X122885200Y-161250300D02*
X122885200Y-162048600D01*
X117771600Y-160507200D02*
X122142100Y-160507200D01*
X122885200Y-162048600D02*
X123883900Y-163047300D01*
%TO.N,/MCU CE*%
X90048100Y-148583600D02*
X90048100Y-138124000D01*
X83515200Y-133731000D02*
X84678900Y-133731000D01*
X95272500Y-153276200D02*
X94209900Y-152213600D01*
X90702800Y-149238300D02*
X90048100Y-148583600D01*
X90702800Y-149396800D02*
X90702800Y-149238300D01*
X85882700Y-135296500D02*
X84678900Y-134092700D01*
X90048100Y-138124000D02*
X87220600Y-135296500D01*
X93519600Y-152213600D02*
X90702800Y-149396800D01*
X94209900Y-152213600D02*
X93519600Y-152213600D01*
X84678900Y-134092700D02*
X84678900Y-133731000D01*
X87220600Y-135296500D02*
X85882700Y-135296500D01*
%TO.N,~{OE}*%
X112199400Y-161131600D02*
X112199400Y-153651700D01*
X112199400Y-153651700D02*
X111431700Y-152884000D01*
X111637200Y-161693800D02*
X112199400Y-161131600D01*
%TO.N,MEMADDR18*%
X110765600Y-148353300D02*
X110765600Y-164182300D01*
X110765600Y-164182300D02*
X111534700Y-164951400D01*
X112560700Y-146558200D02*
X110765600Y-148353300D01*
X116059200Y-146752200D02*
X115865200Y-146558200D01*
X115865200Y-146558200D02*
X112560700Y-146558200D01*
%TO.N,MEMADDR16*%
X104940300Y-139937300D02*
X105019700Y-139937300D01*
X105019700Y-139937300D02*
X105930100Y-140847700D01*
X105930100Y-150637900D02*
X103277600Y-153290400D01*
X105930100Y-140847700D02*
X105930100Y-150637900D01*
%TO.N,MEMADDR17*%
X116271200Y-146109800D02*
X112443300Y-146109800D01*
X110319500Y-148233600D02*
X110319500Y-152553900D01*
X117134000Y-146972600D02*
X116271200Y-146109800D01*
X112443300Y-146109800D02*
X110319500Y-148233600D01*
X110319500Y-152553900D02*
X103010100Y-159863300D01*
%TO.N,MEMADDR19*%
X112783100Y-147184400D02*
X112783100Y-161775000D01*
X112783100Y-161775000D02*
X111374600Y-163183500D01*
%TO.N,MEMADDR8*%
X69572600Y-137350200D02*
X69572600Y-135947500D01*
X70170400Y-137948000D02*
X69572600Y-137350200D01*
%TO.N,A1*%
X101541400Y-146996100D02*
X101541400Y-140981700D01*
X105511700Y-147031100D02*
X105511700Y-140995300D01*
X98724700Y-149812800D02*
X101541400Y-146996100D01*
X100455700Y-159396900D02*
X100455700Y-152087100D01*
X84909600Y-174943000D02*
X100455700Y-159396900D01*
X95129700Y-145794700D02*
X96286000Y-146951000D01*
X95129700Y-138485200D02*
X95129700Y-145794700D01*
X105126200Y-140609800D02*
X101913300Y-140609800D01*
X105511700Y-140995300D02*
X105126200Y-140609800D01*
X100455700Y-152087100D02*
X105511700Y-147031100D01*
X96286000Y-146951000D02*
X96286000Y-148535800D01*
X116052600Y-142052900D02*
X116052600Y-142576100D01*
X116052600Y-142576100D02*
X114919600Y-143709100D01*
X95509400Y-138105500D02*
X95129700Y-138485200D01*
X101913300Y-140609800D02*
X101541400Y-140981700D01*
X114919600Y-143709100D02*
X112374700Y-143709100D01*
X106771100Y-138105500D02*
X95509400Y-138105500D01*
X84604700Y-174943000D02*
X84909600Y-174943000D01*
X96286000Y-148535800D02*
X97563000Y-149812800D01*
X97563000Y-149812800D02*
X98724700Y-149812800D01*
X112374700Y-143709100D02*
X106771100Y-138105500D01*
%TO.N,A2*%
X87520100Y-150608500D02*
X85401000Y-148489400D01*
X85329400Y-173114000D02*
X85329400Y-172234700D01*
X85905900Y-171658200D02*
X85905900Y-169433400D01*
X86783900Y-169687100D02*
X86783900Y-172498400D01*
X85401000Y-148489400D02*
X85401000Y-142620400D01*
X97680700Y-158790300D02*
X86783900Y-169687100D01*
X86783900Y-172498400D02*
X86168300Y-173114000D01*
X86168300Y-173114000D02*
X85329400Y-173114000D01*
X97680700Y-153909200D02*
X97680700Y-158790300D01*
X87520100Y-167819200D02*
X87520100Y-150608500D01*
X84567300Y-173876100D02*
X84567300Y-174131900D01*
X85329400Y-172234700D02*
X85905900Y-171658200D01*
X85905900Y-169433400D02*
X87520100Y-167819200D01*
X104394200Y-147195700D02*
X97680700Y-153909200D01*
X85401000Y-142620400D02*
X82945200Y-140164600D01*
X85329400Y-173114000D02*
X84567300Y-173876100D01*
%TO.N,A0*%
X87920200Y-150442800D02*
X86149900Y-148672500D01*
X86149900Y-148672500D02*
X86149900Y-138998200D01*
X85939400Y-172473600D02*
X86306000Y-172107000D01*
X86306000Y-172107000D02*
X86306000Y-169599100D01*
X86306000Y-169599100D02*
X87920200Y-167984900D01*
X87920200Y-167984900D02*
X87920200Y-150442800D01*
X86149900Y-138998200D02*
X87142500Y-138005600D01*
%TO.N,A3*%
X89445900Y-156561600D02*
X89670600Y-156336900D01*
X89502500Y-149761900D02*
X88340200Y-148599600D01*
X89502500Y-150429400D02*
X89502500Y-149761900D01*
X89670600Y-150597500D02*
X89502500Y-150429400D01*
X89670600Y-156336900D02*
X89670600Y-150597500D01*
X88340200Y-148599600D02*
X88340200Y-145129300D01*
%TO.N,H_CLK*%
X92172900Y-147282900D02*
X95028400Y-150138400D01*
X92172900Y-142386100D02*
X92172900Y-147282900D01*
%TO.N,A6*%
X89003600Y-162544700D02*
X89500700Y-162544700D01*
X103529800Y-147347200D02*
X103529800Y-142652700D01*
X96922800Y-153954200D02*
X103529800Y-147347200D01*
X96922800Y-158249800D02*
X96922800Y-153954200D01*
X87214100Y-146974300D02*
X87214100Y-148605100D01*
X88723800Y-162264800D02*
X88529200Y-162459400D01*
X88470300Y-149861300D02*
X88470300Y-156434600D01*
X89500700Y-162544700D02*
X89885500Y-162159900D01*
X89885500Y-162159900D02*
X93012700Y-162159900D01*
X88723800Y-162264800D02*
X89003600Y-162544700D01*
X93012700Y-162159900D02*
X96922800Y-158249800D01*
X103529800Y-142652700D02*
X104892500Y-141290000D01*
X88652000Y-162193100D02*
X88723800Y-162264800D01*
X87214100Y-148605100D02*
X88470300Y-149861300D01*
X88470300Y-156434600D02*
X88652000Y-156616300D01*
X88652000Y-156616300D02*
X88652000Y-162193100D01*
%TO.N,A4*%
X90070700Y-157748700D02*
X89388800Y-158430600D01*
X88770800Y-145547400D02*
X88770800Y-148464300D01*
X88968300Y-143079900D02*
X88968300Y-145349900D01*
X89388800Y-158430600D02*
X89388800Y-158996400D01*
X89902600Y-150263700D02*
X90070700Y-150431800D01*
X88770800Y-148464300D02*
X89902600Y-149596100D01*
X88968300Y-145349900D02*
X88770800Y-145547400D01*
X89902600Y-149596100D02*
X89902600Y-150263700D01*
X90070700Y-150431800D02*
X90070700Y-157748700D01*
%TO.N,A5*%
X80039900Y-139017900D02*
X79717000Y-138695000D01*
X79317000Y-140269500D02*
X80039900Y-139546600D01*
X78278200Y-138695000D02*
X76845600Y-140127600D01*
X76845600Y-144718400D02*
X77072900Y-144945700D01*
X80039900Y-139546600D02*
X80039900Y-139017900D01*
X77072900Y-159450100D02*
X77138400Y-159515600D01*
X77072900Y-144945700D02*
X77072900Y-159450100D01*
X76845600Y-140127600D02*
X76845600Y-144718400D01*
X79717000Y-138695000D02*
X78278200Y-138695000D01*
X79249700Y-140269500D02*
X79317000Y-140269500D01*
%TO.N,A7*%
X90748500Y-157967200D02*
X90070700Y-158645000D01*
X90070700Y-158645000D02*
X90070700Y-161126000D01*
X90302700Y-150098000D02*
X90302700Y-149404100D01*
X93313900Y-157763800D02*
X92532200Y-156982100D01*
X102271600Y-147720400D02*
X96122600Y-153869400D01*
X92532200Y-156982100D02*
X92532200Y-152327500D01*
X95442000Y-157763800D02*
X93313900Y-157763800D01*
X96122600Y-153869400D02*
X96122600Y-157083200D01*
X102271600Y-144894200D02*
X102271600Y-147720400D01*
X92532200Y-156982100D02*
X91547100Y-157967200D01*
X90070700Y-161126000D02*
X89252100Y-161944600D01*
X90302700Y-149404100D02*
X89448000Y-148549400D01*
X89448000Y-148549400D02*
X89448000Y-148293000D01*
X96122600Y-157083200D02*
X95442000Y-157763800D01*
X91547100Y-157967200D02*
X90748500Y-157967200D01*
X92532200Y-152327500D02*
X90302700Y-150098000D01*
%TO.N,A8*%
X71909100Y-141030800D02*
X73838500Y-139101400D01*
X71909100Y-149575400D02*
X71909100Y-141030800D01*
X69967900Y-156581900D02*
X69967900Y-151516600D01*
X72136000Y-158750000D02*
X69967900Y-156581900D01*
X69967900Y-151516600D02*
X71909100Y-149575400D01*
%TO.N,A9*%
X73253300Y-154220500D02*
X72363900Y-155109900D01*
X73058700Y-150328100D02*
X73253300Y-150522700D01*
X74644700Y-139143900D02*
X73058700Y-140729900D01*
X87325400Y-134127000D02*
X87325400Y-133313200D01*
X79705200Y-133282400D02*
X79705200Y-134114100D01*
X72363900Y-155109900D02*
X72136000Y-155109900D01*
X72136000Y-156210000D02*
X72136000Y-155109900D01*
X87325400Y-133313200D02*
X86572000Y-132559800D01*
X79705200Y-134114100D02*
X74675400Y-139143900D01*
X73253300Y-150522700D02*
X73253300Y-154220500D01*
X74675400Y-139143900D02*
X74644700Y-139143900D01*
X92006000Y-138807600D02*
X87325400Y-134127000D01*
X80427800Y-132559800D02*
X79705200Y-133282400D01*
X92090400Y-138807600D02*
X92006000Y-138807600D01*
X73058700Y-140729900D02*
X73058700Y-150328100D01*
X86572000Y-132559800D02*
X80427800Y-132559800D01*
%TO.N,Net-(U5-Q0)*%
X83375600Y-172720000D02*
X84776300Y-171319300D01*
X81718700Y-173699700D02*
X82698400Y-172720000D01*
X81718700Y-177324200D02*
X81718700Y-173699700D01*
X83479300Y-148850900D02*
X83479300Y-146232800D01*
X86681200Y-152052800D02*
X83479300Y-148850900D01*
X83479300Y-146232800D02*
X79148600Y-141902100D01*
X86681200Y-167526200D02*
X86681200Y-152052800D01*
X84776300Y-171319300D02*
X84776300Y-169431100D01*
X79148600Y-141902100D02*
X79128600Y-141902100D01*
X82698400Y-172720000D02*
X83375600Y-172720000D01*
X84776300Y-169431100D02*
X86681200Y-167526200D01*
%TO.N,Net-(A1-PadD6)*%
X75413800Y-134894700D02*
X74755800Y-135552700D01*
X66408900Y-144312500D02*
X66408900Y-160957200D01*
X63051400Y-166049100D02*
X61038700Y-168061800D01*
X74755800Y-135552700D02*
X74755800Y-135965600D01*
X63051400Y-163684400D02*
X63051400Y-166049100D01*
X75895200Y-133731000D02*
X75895200Y-134894700D01*
X64175800Y-162560000D02*
X63051400Y-163684400D01*
X64806100Y-162560000D02*
X64175800Y-162560000D01*
X74755800Y-135965600D02*
X66408900Y-144312500D01*
X66408900Y-160957200D02*
X64806100Y-162560000D01*
X75895200Y-134894700D02*
X75413800Y-134894700D01*
%TO.N,A10*%
X84938400Y-159768400D02*
X86281100Y-161111100D01*
X78528500Y-142418400D02*
X82279100Y-146169000D01*
X82279100Y-146169000D02*
X82279100Y-148782300D01*
X82279100Y-148782300D02*
X84938400Y-151441600D01*
X84938400Y-151441600D02*
X84938400Y-159768400D01*
X86281100Y-165455100D02*
X84880900Y-166855300D01*
X86281100Y-161111100D02*
X86281100Y-165455100D01*
X78528500Y-140142100D02*
X78528500Y-142418400D01*
X79372600Y-139298000D02*
X78528500Y-140142100D01*
X79439800Y-139298000D02*
X79372600Y-139298000D01*
%TO.N,A11*%
X83058000Y-173740100D02*
X85305800Y-171492300D01*
X87616500Y-137389700D02*
X88532600Y-138305800D01*
X84279600Y-147933800D02*
X84279600Y-144450000D01*
X87101900Y-150756100D02*
X84279600Y-147933800D01*
X89378200Y-138586800D02*
X89378200Y-140769600D01*
X83058000Y-173990000D02*
X83058000Y-173740100D01*
X88532600Y-138305800D02*
X89097200Y-138305800D01*
X82295000Y-142465400D02*
X82295000Y-139917500D01*
X89378200Y-140769600D02*
X88704600Y-141443200D01*
X82295000Y-139917500D02*
X84822800Y-137389700D01*
X85305800Y-171492300D02*
X85305800Y-169467700D01*
X89097200Y-138305800D02*
X89378200Y-138586800D01*
X85305800Y-169467700D02*
X87101900Y-167671600D01*
X84822800Y-137389700D02*
X87616500Y-137389700D01*
X84279600Y-144450000D02*
X82295000Y-142465400D01*
X87101900Y-167671600D02*
X87101900Y-150756100D01*
%TO.N,A12*%
X80891400Y-151485800D02*
X80891400Y-155367100D01*
X82919000Y-170349900D02*
X81024600Y-168455500D01*
X83058000Y-170349900D02*
X82919000Y-170349900D01*
X77883600Y-142997700D02*
X78711700Y-143825800D01*
X77883600Y-141791600D02*
X77883600Y-142997700D01*
X78711700Y-143825800D02*
X78711700Y-149306100D01*
X81024600Y-168455500D02*
X81024600Y-167150100D01*
X78711700Y-149306100D02*
X80891400Y-151485800D01*
X83058000Y-171450000D02*
X83058000Y-170349900D01*
%TO.N,A13*%
X69115900Y-158602000D02*
X69115900Y-145404400D01*
X69115900Y-145404400D02*
X70017500Y-144502800D01*
X69331100Y-158817200D02*
X69115900Y-158602000D01*
X72536600Y-162560000D02*
X71786100Y-162560000D01*
X75879000Y-165100000D02*
X75076600Y-165100000D01*
X69331100Y-160105000D02*
X69331100Y-158817200D01*
X79821000Y-169042000D02*
X75879000Y-165100000D01*
X71786100Y-162560000D02*
X69331100Y-160105000D01*
X75076600Y-165100000D02*
X72536600Y-162560000D01*
%TO.N,A14*%
X77233500Y-160927600D02*
X76538300Y-160232400D01*
X81681000Y-166370000D02*
X77233500Y-161922500D01*
X77233500Y-161922500D02*
X77233500Y-160927600D01*
X76538300Y-160232400D02*
X76538300Y-146908600D01*
X83058000Y-166370000D02*
X81957900Y-166370000D01*
X81957900Y-166370000D02*
X81681000Y-166370000D01*
X76538300Y-146908600D02*
X74132500Y-144502800D01*
%TO.N,RESOLUTION*%
X68166500Y-143120700D02*
X68166500Y-160425100D01*
X75507500Y-135366800D02*
X75155900Y-135718400D01*
X77271500Y-134100100D02*
X76004800Y-135366800D01*
X75155900Y-135718400D02*
X75155900Y-136131400D01*
X75155800Y-136131400D02*
X68166500Y-143120700D01*
X77271500Y-133731000D02*
X77271500Y-134100100D01*
X78435200Y-133731000D02*
X77271500Y-133731000D01*
X76004800Y-135366800D02*
X75507500Y-135366800D01*
X75155900Y-136131400D02*
X75155800Y-136131400D01*
%TO.N,A16*%
X94989400Y-136864000D02*
X91052900Y-140800500D01*
X109967700Y-136864000D02*
X94989400Y-136864000D01*
X111152400Y-138048700D02*
X109967700Y-136864000D01*
X91052900Y-140800500D02*
X91052900Y-148173900D01*
%TO.N,A18*%
X94729600Y-138319500D02*
X94729600Y-146160600D01*
X95170200Y-154255900D02*
X95170200Y-157119400D01*
X97329600Y-150145300D02*
X97329600Y-152096500D01*
X108098000Y-137705400D02*
X95343700Y-137705400D01*
X83058000Y-156210000D02*
X81957900Y-156210000D01*
X95744700Y-147175700D02*
X95744700Y-148560400D01*
X111154900Y-140762300D02*
X108098000Y-137705400D01*
X81957900Y-156210000D02*
X80884000Y-156210000D01*
X94729600Y-146160600D02*
X95744700Y-147175700D01*
X97329600Y-152096500D02*
X95170200Y-154255900D01*
X95343700Y-137705400D02*
X94729600Y-138319500D01*
X80884000Y-156210000D02*
X78650600Y-153976600D01*
X95744700Y-148560400D02*
X97329600Y-150145300D01*
%TO.N,A17*%
X108547300Y-137305300D02*
X95178000Y-137305300D01*
X94329500Y-147709300D02*
X95015000Y-148394800D01*
X113845000Y-142956100D02*
X113845000Y-142603000D01*
X95406300Y-135372000D02*
X92958000Y-132923700D01*
X114197900Y-143309000D02*
X113845000Y-142956100D01*
X95178000Y-137305300D02*
X94329500Y-138153800D01*
X115052300Y-139564900D02*
X115183600Y-139564900D01*
X113845000Y-142603000D02*
X108547300Y-137305300D01*
X114750800Y-143309000D02*
X114197900Y-143309000D01*
X114485400Y-139564900D02*
X110292500Y-135372000D01*
X110292500Y-135372000D02*
X95406300Y-135372000D01*
X115052300Y-139564900D02*
X114485400Y-139564900D01*
X94329500Y-138153800D02*
X94329500Y-147709300D01*
X115052300Y-139564900D02*
X115052300Y-143007500D01*
X115052300Y-143007500D02*
X114750800Y-143309000D01*
%TO.N,/MCU WE*%
X80975200Y-143162900D02*
X83879400Y-146067100D01*
X80975200Y-133731000D02*
X80975200Y-134894700D01*
X83879400Y-148382500D02*
X86488500Y-150991600D01*
X80975200Y-134894700D02*
X80975200Y-143162900D01*
X83879400Y-146067100D02*
X83879400Y-148382500D01*
%TO.N,DATA7*%
X117155500Y-171156400D02*
X119353700Y-168958200D01*
X109441600Y-177513900D02*
X109441600Y-177055000D01*
X115082100Y-158800600D02*
X115082100Y-156086700D01*
X109441600Y-177055000D02*
X115340200Y-171156400D01*
X119353700Y-168958200D02*
X119353700Y-164211000D01*
X121615200Y-164211000D02*
X119353700Y-164211000D01*
X119353700Y-163072200D02*
X115082100Y-158800600D01*
X119353700Y-164211000D02*
X119353700Y-163072200D01*
X115082100Y-156086700D02*
X115265200Y-155903600D01*
X115340200Y-171156400D02*
X117155500Y-171156400D01*
%TO.N,5V*%
X68972500Y-135699000D02*
X68972500Y-135935600D01*
X54495200Y-158249100D02*
X54495200Y-166101000D01*
X54495200Y-166101000D02*
X61790600Y-173396400D01*
X61790600Y-173396400D02*
X61790600Y-177961200D01*
X54490200Y-152031200D02*
X54490200Y-155988000D01*
X68972500Y-135935600D02*
X62301800Y-142606300D01*
X51087600Y-154058100D02*
X51950100Y-154920600D01*
X69324100Y-135347400D02*
X68972500Y-135699000D01*
X53362200Y-157116000D02*
X54495200Y-158249100D01*
X51950100Y-155704000D02*
X53362200Y-157116000D01*
X51950100Y-154920600D02*
X51950100Y-155704000D01*
X50800000Y-154058100D02*
X51087600Y-154058100D01*
X69463200Y-135347400D02*
X69324100Y-135347400D01*
X64656700Y-180827300D02*
X65735200Y-180827300D01*
X62301800Y-142606300D02*
X62301800Y-144219600D01*
X54490200Y-155988000D02*
X53362200Y-157116000D01*
X61790600Y-177961200D02*
X64656700Y-180827300D01*
X120451500Y-133731000D02*
X118043700Y-131323200D01*
X121615200Y-133731000D02*
X120451500Y-133731000D01*
X118043700Y-131323200D02*
X73487400Y-131323200D01*
X62301800Y-144219600D02*
X54490200Y-152031200D01*
X50800000Y-152908000D02*
X50800000Y-154058100D01*
X65735200Y-181991000D02*
X65735200Y-180827300D01*
X73487400Y-131323200D02*
X69463200Y-135347400D01*
%TO.N,~{TIMING ADDR}*%
X116008900Y-138624100D02*
X116553000Y-138080000D01*
X117499000Y-145319400D02*
X117499000Y-142642100D01*
X120098900Y-148912800D02*
X120098900Y-147919300D01*
X117499000Y-142642100D02*
X116008900Y-141152000D01*
X116008900Y-141152000D02*
X116008900Y-138624100D01*
X120098900Y-147919300D02*
X117499000Y-145319400D01*
%TO.N,3.3V*%
X50800000Y-156598100D02*
X50254600Y-157143500D01*
X59618400Y-177250500D02*
X63195200Y-180827300D01*
X59618400Y-176684800D02*
X59618400Y-177250500D01*
X50254600Y-157496900D02*
X49626700Y-158124800D01*
X49626700Y-158124800D02*
X49626700Y-166693100D01*
X49626700Y-166693100D02*
X59618400Y-176684800D01*
X50254600Y-157143500D02*
X50254600Y-157496900D01*
X50800000Y-155448000D02*
X50800000Y-156598100D01*
X63195200Y-181991000D02*
X63195200Y-180827300D01*
%TO.N,Net-(A1-PadD7)*%
X60480600Y-167461600D02*
X62519300Y-165422900D01*
X62519300Y-165422900D02*
X62519300Y-147299600D01*
X64901800Y-144687700D02*
X73355200Y-136234300D01*
X73355200Y-136234300D02*
X73355200Y-133731000D01*
X64901800Y-144917100D02*
X64901800Y-144687700D01*
X62519300Y-147299600D02*
X64901800Y-144917100D01*
%TO.N,D3*%
X73655500Y-131723400D02*
X114611200Y-131723400D01*
X72182100Y-136841700D02*
X72182100Y-133196800D01*
X64501700Y-144522100D02*
X72182100Y-136841700D01*
X64501700Y-144751400D02*
X64501700Y-144522100D01*
X55880000Y-154297900D02*
X56167600Y-154297900D01*
X120535000Y-137647200D02*
X122150800Y-137647200D01*
X123883900Y-145267300D02*
X124155200Y-145267300D01*
X55880000Y-155448000D02*
X55880000Y-154297900D01*
X64150200Y-145102900D02*
X64501700Y-144751400D01*
X64035500Y-145102900D02*
X64150200Y-145102900D01*
X72182100Y-133196800D02*
X73655500Y-131723400D01*
X56167600Y-154297900D02*
X57030100Y-153435400D01*
X122150800Y-137647200D02*
X122779000Y-138275400D01*
X124155200Y-146431000D02*
X124155200Y-145267300D01*
X57030100Y-153435400D02*
X57030100Y-152108300D01*
X122779000Y-138275400D02*
X122779000Y-144162400D01*
X122779000Y-144162400D02*
X123883900Y-145267300D01*
X114611200Y-131723400D02*
X120535000Y-137647200D01*
X57030100Y-152108300D02*
X64035500Y-145102900D01*
%TO.N,D0*%
X53340000Y-151757900D02*
X59774600Y-145323300D01*
X53340000Y-152908000D02*
X53340000Y-151757900D01*
X68127500Y-134232200D02*
X68127500Y-133731000D01*
X69291200Y-133731000D02*
X68127500Y-133731000D01*
X59774600Y-142585100D02*
X68127500Y-134232200D01*
X59774600Y-145323300D02*
X59774600Y-142585100D01*
%TO.N,Net-(J1-Pin_5)*%
X64219300Y-172720000D02*
X65532000Y-172720000D01*
X55880000Y-160408100D02*
X56167600Y-160408100D01*
X57030100Y-165530800D02*
X64219300Y-172720000D01*
X75732100Y-175260000D02*
X80829200Y-180357100D01*
X83528800Y-180357100D02*
X84891500Y-181719800D01*
X55880000Y-159258000D02*
X55880000Y-160408100D01*
X57030100Y-161270600D02*
X57030100Y-165530800D01*
X80829200Y-180357100D02*
X83528800Y-180357100D01*
X65532000Y-172720000D02*
X68072000Y-175260000D01*
X68072000Y-175260000D02*
X75732100Y-175260000D01*
X86055200Y-181991000D02*
X84891500Y-181991000D01*
X84891500Y-181719800D02*
X84891500Y-181991000D01*
X56167600Y-160408100D02*
X57030100Y-161270600D01*
%TO.N,DATA3*%
X118712300Y-163323200D02*
X118712300Y-168694400D01*
X116485100Y-161096000D02*
X118712300Y-163323200D01*
%TO.N,D2*%
X55880000Y-151757900D02*
X63014900Y-144623000D01*
X55880000Y-152908000D02*
X55880000Y-151757900D01*
X63014900Y-144623000D02*
X63014900Y-142777300D01*
%TO.N,Net-(J1-Pin_8)*%
X58420000Y-166354800D02*
X62245200Y-170180000D01*
X72487600Y-170180000D02*
X75027600Y-172720000D01*
X89971500Y-181719800D02*
X89971500Y-181991000D01*
X62245200Y-170180000D02*
X72487600Y-170180000D01*
X86434500Y-179863700D02*
X88115400Y-179863700D01*
X75027600Y-172720000D02*
X75831500Y-172720000D01*
X58420000Y-161798000D02*
X58420000Y-166354800D01*
X75831500Y-172720000D02*
X81053000Y-177941500D01*
X81053000Y-177941500D02*
X84512300Y-177941500D01*
X88115400Y-179863700D02*
X89971500Y-181719800D01*
X91135200Y-181991000D02*
X89971500Y-181991000D01*
X84512300Y-177941500D02*
X86434500Y-179863700D01*
%TO.N,D1*%
X53340000Y-155448000D02*
X53340000Y-154297900D01*
X66751200Y-134894700D02*
X66751200Y-135036600D01*
X52149400Y-150098600D02*
X52149400Y-153394800D01*
X53052500Y-154297900D02*
X53340000Y-154297900D01*
X66751200Y-135036600D02*
X60745800Y-141042000D01*
X52149400Y-153394800D02*
X53052500Y-154297900D01*
X66751200Y-133731000D02*
X66751200Y-134894700D01*
X60745800Y-141042000D02*
X60516700Y-141042000D01*
X56064600Y-146183400D02*
X52149400Y-150098600D01*
X60516700Y-141042000D02*
X56064600Y-145494100D01*
X56064600Y-145494100D02*
X56064600Y-146183400D01*
%TO.N,DATA5*%
X121290600Y-167914700D02*
X121615200Y-167914700D01*
X117542700Y-172059000D02*
X117542700Y-171662600D01*
X111702600Y-177899100D02*
X117542700Y-172059000D01*
X117542700Y-171662600D02*
X121290600Y-167914700D01*
X109163300Y-178114100D02*
X104418000Y-173368800D01*
X111306200Y-177899100D02*
X111702600Y-177899100D01*
X121615200Y-166751000D02*
X121615200Y-167914700D01*
X111306200Y-177899100D02*
X111091200Y-178114100D01*
X104418000Y-173368800D02*
X104418000Y-162338200D01*
X111091200Y-178114100D02*
X109163300Y-178114100D01*
X104418000Y-162338200D02*
X103581500Y-161501700D01*
%TO.N,Net-(J6-Pin_2)*%
X46400000Y-163160000D02*
X46400000Y-160620000D01*
%TO.N,/MCU OE*%
X90448200Y-137958300D02*
X87384600Y-134894700D01*
X90448200Y-148418000D02*
X90448200Y-137958300D01*
X91102900Y-149072700D02*
X90448200Y-148418000D01*
X91102900Y-149215900D02*
X91102900Y-149072700D01*
X86055200Y-133731000D02*
X86055200Y-134894700D01*
X96700700Y-150456100D02*
X96400300Y-150756500D01*
X96400300Y-150756500D02*
X92643500Y-150756500D01*
X87384600Y-134894700D02*
X86055200Y-134894700D01*
X92643500Y-150756500D02*
X91102900Y-149215900D01*
%TO.N,DATA2*%
X122991500Y-169582000D02*
X122118800Y-170454700D01*
X121292800Y-170454700D02*
X115351900Y-176395600D01*
X122991500Y-169291000D02*
X122991500Y-169582000D01*
X124155200Y-169291000D02*
X122991500Y-169291000D01*
X122118800Y-170454700D02*
X121292800Y-170454700D01*
X115351900Y-176395600D02*
X115351900Y-177895700D01*
%TO.N,MCUMEMADDR17*%
X124155200Y-156591000D02*
X124155200Y-155427300D01*
X121997900Y-150245100D02*
X122991500Y-151238700D01*
X106690600Y-138604300D02*
X112995700Y-144909400D01*
X95895800Y-138604300D02*
X106690600Y-138604300D01*
X122991500Y-151238700D02*
X122991500Y-154554600D01*
X119498800Y-147885100D02*
X119498800Y-149193900D01*
X122991500Y-154554600D02*
X123864200Y-155427300D01*
X116523100Y-144909400D02*
X119498800Y-147885100D01*
X95771300Y-138728800D02*
X95895800Y-138604300D01*
X112995700Y-144909400D02*
X116523100Y-144909400D01*
X123864200Y-155427300D02*
X124155200Y-155427300D01*
X120550000Y-150245100D02*
X121997900Y-150245100D01*
X119498800Y-149193900D02*
X120550000Y-150245100D01*
%TO.N,MCUMEMADDR10*%
X121615200Y-147807300D02*
X121324200Y-147807300D01*
X120451500Y-146934600D02*
X120451500Y-144294800D01*
X121615200Y-148971000D02*
X121615200Y-147807300D01*
X121324200Y-147807300D02*
X120451500Y-146934600D01*
X120451500Y-144294800D02*
X116626800Y-140470100D01*
%TO.N,Net-(U11-CE)*%
X97808200Y-143799000D02*
X102002600Y-139604600D01*
X97808200Y-149209300D02*
X97808200Y-143799000D01*
X102002600Y-139604600D02*
X102202800Y-139604600D01*
%TO.N,MCUMEMADDR4*%
X50149400Y-143572700D02*
X58237400Y-135484700D01*
X58237400Y-135484700D02*
X58237400Y-134894800D01*
%TO.N,MCUMEMADDR7*%
X61671200Y-133731000D02*
X61671200Y-134894700D01*
X48800400Y-146970000D02*
X49595900Y-146970000D01*
X49595900Y-146970000D02*
X61671200Y-134894700D01*
%TO.N,MCUMEMADDR18*%
X114413800Y-149417900D02*
X114413800Y-151037200D01*
X114413800Y-151037200D02*
X121343900Y-157967300D01*
X121343900Y-157967300D02*
X121615200Y-157967300D01*
X121615200Y-159131000D02*
X121615200Y-157967300D01*
%TO.N,MCUMEMADDR6*%
X53207300Y-145700000D02*
X53836800Y-145700000D01*
X64041900Y-135494900D02*
X64481100Y-135494900D01*
X53836800Y-145700000D02*
X64041900Y-135494900D01*
%TO.N,MCUMEMADDR5*%
X52275600Y-143568200D02*
X59399800Y-136444000D01*
X59399800Y-136444000D02*
X59399800Y-135928700D01*
X52119500Y-143568200D02*
X52275600Y-143568200D01*
%TO.N,MCUMEMADDR16*%
X106524900Y-139004400D02*
X101202600Y-139004400D01*
X117944100Y-152047200D02*
X117944100Y-146925600D01*
X121615200Y-155427300D02*
X121324200Y-155427300D01*
X112940300Y-145419800D02*
X106524900Y-139004400D01*
X121615200Y-156591000D02*
X121615200Y-155427300D01*
X117944100Y-146925600D02*
X116438300Y-145419800D01*
X116438300Y-145419800D02*
X112940300Y-145419800D01*
X101202600Y-139004400D02*
X101002500Y-139204500D01*
X121324200Y-155427300D02*
X117944100Y-152047200D01*
%TD*%
%TA.AperFunction,Conductor*%
%TO.N,GND*%
G36*
X49272288Y-131220185D02*
G01*
X49318043Y-131272989D01*
X49328469Y-131338383D01*
X49308435Y-131516196D01*
X49308435Y-131516203D01*
X49328630Y-131695449D01*
X49328632Y-131695457D01*
X49388577Y-131866770D01*
X49392138Y-131936548D01*
X49359217Y-131995405D01*
X49236283Y-132118339D01*
X49140311Y-132271076D01*
X49080731Y-132441345D01*
X49080730Y-132441350D01*
X49060535Y-132620596D01*
X49060535Y-132620603D01*
X49080730Y-132799849D01*
X49080731Y-132799854D01*
X49140311Y-132970123D01*
X49209060Y-133079535D01*
X49236284Y-133122862D01*
X49363838Y-133250416D01*
X49516578Y-133346389D01*
X49686845Y-133405968D01*
X49686850Y-133405969D01*
X49866096Y-133426165D01*
X49866100Y-133426165D01*
X49866104Y-133426165D01*
X50045349Y-133405969D01*
X50045352Y-133405968D01*
X50045355Y-133405968D01*
X50215622Y-133346389D01*
X50368362Y-133250416D01*
X50495916Y-133122862D01*
X50591889Y-132970122D01*
X50651468Y-132799855D01*
X50651469Y-132799849D01*
X50671665Y-132620603D01*
X50671665Y-132620596D01*
X50651469Y-132441350D01*
X50651466Y-132441337D01*
X50591523Y-132270030D01*
X50587961Y-132200251D01*
X50620880Y-132141397D01*
X50743816Y-132018462D01*
X50839789Y-131865722D01*
X50899368Y-131695455D01*
X50919565Y-131516200D01*
X50919565Y-131516196D01*
X50899531Y-131338383D01*
X50911586Y-131269561D01*
X50958935Y-131218182D01*
X51022751Y-131200500D01*
X72461503Y-131200500D01*
X72528542Y-131220185D01*
X72574297Y-131272989D01*
X72584241Y-131342147D01*
X72555216Y-131405703D01*
X72549184Y-131412181D01*
X70741278Y-133220085D01*
X70679955Y-133253570D01*
X70610263Y-133248586D01*
X70554330Y-133206714D01*
X70540041Y-133182214D01*
X70495001Y-133079533D01*
X70411693Y-132952022D01*
X70371356Y-132890281D01*
X70371353Y-132890278D01*
X70371349Y-132890272D01*
X70218245Y-132723959D01*
X70091496Y-132625306D01*
X70039849Y-132585107D01*
X69936363Y-132529103D01*
X69841032Y-132477512D01*
X69841027Y-132477510D01*
X69627217Y-132404109D01*
X69445588Y-132373801D01*
X69404233Y-132366900D01*
X69178167Y-132366900D01*
X69136812Y-132373801D01*
X68955182Y-132404109D01*
X68741372Y-132477510D01*
X68741367Y-132477512D01*
X68542552Y-132585106D01*
X68364155Y-132723959D01*
X68211050Y-132890272D01*
X68211042Y-132890283D01*
X68125008Y-133021968D01*
X68071862Y-133067325D01*
X68002630Y-133076748D01*
X67939295Y-133047246D01*
X67917392Y-133021968D01*
X67854119Y-132925123D01*
X67831356Y-132890281D01*
X67831353Y-132890278D01*
X67831349Y-132890272D01*
X67678245Y-132723959D01*
X67551496Y-132625306D01*
X67499849Y-132585107D01*
X67396363Y-132529103D01*
X67301032Y-132477512D01*
X67301027Y-132477510D01*
X67087217Y-132404109D01*
X66905588Y-132373801D01*
X66864233Y-132366900D01*
X66638167Y-132366900D01*
X66596812Y-132373801D01*
X66415182Y-132404109D01*
X66201372Y-132477510D01*
X66201367Y-132477512D01*
X66002552Y-132585106D01*
X65824155Y-132723959D01*
X65671050Y-132890272D01*
X65671042Y-132890283D01*
X65585008Y-133021968D01*
X65531862Y-133067325D01*
X65462630Y-133076748D01*
X65399295Y-133047246D01*
X65377392Y-133021968D01*
X65314119Y-132925123D01*
X65291356Y-132890281D01*
X65291353Y-132890278D01*
X65291349Y-132890272D01*
X65138245Y-132723959D01*
X65011496Y-132625306D01*
X64959849Y-132585107D01*
X64856363Y-132529103D01*
X64761032Y-132477512D01*
X64761027Y-132477510D01*
X64547217Y-132404109D01*
X64365588Y-132373801D01*
X64324233Y-132366900D01*
X64098167Y-132366900D01*
X64056812Y-132373801D01*
X63875182Y-132404109D01*
X63661372Y-132477510D01*
X63661367Y-132477512D01*
X63462552Y-132585106D01*
X63284155Y-132723959D01*
X63131050Y-132890272D01*
X63131042Y-132890283D01*
X63045008Y-133021968D01*
X62991862Y-133067325D01*
X62922630Y-133076748D01*
X62859295Y-133047246D01*
X62837392Y-133021968D01*
X62774119Y-132925123D01*
X62751356Y-132890281D01*
X62751353Y-132890278D01*
X62751349Y-132890272D01*
X62598245Y-132723959D01*
X62471496Y-132625306D01*
X62419849Y-132585107D01*
X62316363Y-132529103D01*
X62221032Y-132477512D01*
X62221027Y-132477510D01*
X62007217Y-132404109D01*
X61825588Y-132373801D01*
X61784233Y-132366900D01*
X61558167Y-132366900D01*
X61516812Y-132373801D01*
X61335182Y-132404109D01*
X61121372Y-132477510D01*
X61121367Y-132477512D01*
X60922552Y-132585106D01*
X60744155Y-132723959D01*
X60591050Y-132890272D01*
X60591042Y-132890283D01*
X60505008Y-133021968D01*
X60451862Y-133067325D01*
X60382630Y-133076748D01*
X60319295Y-133047246D01*
X60297392Y-133021968D01*
X60234119Y-132925123D01*
X60211356Y-132890281D01*
X60211353Y-132890278D01*
X60211349Y-132890272D01*
X60058245Y-132723959D01*
X59931496Y-132625306D01*
X59879849Y-132585107D01*
X59776363Y-132529103D01*
X59681032Y-132477512D01*
X59681027Y-132477510D01*
X59467217Y-132404109D01*
X59285588Y-132373801D01*
X59244233Y-132366900D01*
X59018167Y-132366900D01*
X58976812Y-132373801D01*
X58795182Y-132404109D01*
X58581372Y-132477510D01*
X58581367Y-132477512D01*
X58382552Y-132585106D01*
X58204155Y-132723959D01*
X58051050Y-132890272D01*
X58051042Y-132890283D01*
X57965008Y-133021968D01*
X57911862Y-133067325D01*
X57842630Y-133076748D01*
X57779295Y-133047246D01*
X57757392Y-133021968D01*
X57694119Y-132925123D01*
X57671356Y-132890281D01*
X57671353Y-132890278D01*
X57671349Y-132890272D01*
X57518245Y-132723959D01*
X57391496Y-132625306D01*
X57339849Y-132585107D01*
X57236363Y-132529103D01*
X57141032Y-132477512D01*
X57141027Y-132477510D01*
X56927217Y-132404109D01*
X56745588Y-132373801D01*
X56704233Y-132366900D01*
X56478167Y-132366900D01*
X56436812Y-132373801D01*
X56255182Y-132404109D01*
X56041372Y-132477510D01*
X56041367Y-132477512D01*
X55842552Y-132585106D01*
X55664155Y-132723958D01*
X55609386Y-132783453D01*
X55549498Y-132819443D01*
X55479660Y-132817342D01*
X55422045Y-132777817D01*
X55401975Y-132742802D01*
X55358154Y-132625313D01*
X55358150Y-132625306D01*
X55271990Y-132510212D01*
X55271987Y-132510209D01*
X55156893Y-132424049D01*
X55156886Y-132424045D01*
X55022179Y-132373803D01*
X55022172Y-132373801D01*
X54962644Y-132367400D01*
X54301200Y-132367400D01*
X54301200Y-133288748D01*
X54247281Y-133257619D01*
X54118080Y-133223000D01*
X53984320Y-133223000D01*
X53855119Y-133257619D01*
X53801200Y-133288748D01*
X53801200Y-132367400D01*
X53139755Y-132367400D01*
X53080227Y-132373801D01*
X53080220Y-132373803D01*
X52945513Y-132424045D01*
X52945506Y-132424049D01*
X52830412Y-132510209D01*
X52830409Y-132510212D01*
X52744249Y-132625306D01*
X52744245Y-132625313D01*
X52694003Y-132760020D01*
X52694001Y-132760027D01*
X52687600Y-132819555D01*
X52687600Y-133481000D01*
X53608949Y-133481000D01*
X53577819Y-133534919D01*
X53543200Y-133664120D01*
X53543200Y-133797880D01*
X53577819Y-133927081D01*
X53608949Y-133981000D01*
X52687600Y-133981000D01*
X52687600Y-134642444D01*
X52694001Y-134701972D01*
X52694003Y-134701979D01*
X52744245Y-134836686D01*
X52744249Y-134836693D01*
X52830409Y-134951787D01*
X52830412Y-134951790D01*
X52945506Y-135037950D01*
X52945513Y-135037954D01*
X53080220Y-135088196D01*
X53080227Y-135088198D01*
X53139755Y-135094599D01*
X53139772Y-135094600D01*
X53801200Y-135094600D01*
X53801200Y-134173251D01*
X53855119Y-134204381D01*
X53984320Y-134239000D01*
X54118080Y-134239000D01*
X54247281Y-134204381D01*
X54301200Y-134173251D01*
X54301200Y-135094600D01*
X54962628Y-135094600D01*
X54962644Y-135094599D01*
X55022172Y-135088198D01*
X55022179Y-135088196D01*
X55156886Y-135037954D01*
X55156893Y-135037950D01*
X55271987Y-134951790D01*
X55271990Y-134951787D01*
X55358150Y-134836693D01*
X55358154Y-134836686D01*
X55401975Y-134719197D01*
X55443846Y-134663263D01*
X55509310Y-134638846D01*
X55577583Y-134653698D01*
X55609386Y-134678547D01*
X55657202Y-134730488D01*
X55664154Y-134738040D01*
X55842551Y-134876893D01*
X55997450Y-134960720D01*
X56030773Y-134978754D01*
X56041369Y-134984488D01*
X56041372Y-134984489D01*
X56255182Y-135057890D01*
X56255184Y-135057890D01*
X56255186Y-135057891D01*
X56478167Y-135095100D01*
X56478168Y-135095100D01*
X56704232Y-135095100D01*
X56704233Y-135095100D01*
X56927214Y-135057891D01*
X57141031Y-134984488D01*
X57262988Y-134918487D01*
X57331316Y-134903892D01*
X57396688Y-134928554D01*
X57438350Y-134984645D01*
X57445226Y-135013658D01*
X57452030Y-135074050D01*
X57452033Y-135074062D01*
X57513910Y-135250894D01*
X57512654Y-135251333D01*
X57522797Y-135312913D01*
X57495076Y-135377048D01*
X57487405Y-135385458D01*
X50130865Y-142741998D01*
X50069542Y-142775483D01*
X50057068Y-142777537D01*
X49970150Y-142787330D01*
X49799878Y-142846910D01*
X49647137Y-142942884D01*
X49519584Y-143070437D01*
X49423611Y-143223176D01*
X49364031Y-143393445D01*
X49364030Y-143393450D01*
X49343835Y-143572696D01*
X49343835Y-143572703D01*
X49364030Y-143751949D01*
X49364031Y-143751954D01*
X49423611Y-143922223D01*
X49502476Y-144047735D01*
X49519584Y-144074962D01*
X49647138Y-144202516D01*
X49723479Y-144250484D01*
X49794565Y-144295151D01*
X49799878Y-144298489D01*
X49934176Y-144345482D01*
X49970145Y-144358068D01*
X49970150Y-144358069D01*
X50149396Y-144378265D01*
X50149400Y-144378265D01*
X50149404Y-144378265D01*
X50328649Y-144358069D01*
X50328652Y-144358068D01*
X50328655Y-144358068D01*
X50498922Y-144298489D01*
X50651662Y-144202516D01*
X50779216Y-144074962D01*
X50875189Y-143922222D01*
X50934768Y-143751955D01*
X50944561Y-143665029D01*
X50971626Y-143600618D01*
X50980090Y-143591243D01*
X51102824Y-143468509D01*
X51164145Y-143435026D01*
X51233837Y-143440010D01*
X51289770Y-143481882D01*
X51314187Y-143547346D01*
X51313904Y-143561236D01*
X51313935Y-143561236D01*
X51313935Y-143568203D01*
X51334130Y-143747449D01*
X51334131Y-143747454D01*
X51393711Y-143917723D01*
X51489686Y-144070465D01*
X51490037Y-144070905D01*
X51490174Y-144071242D01*
X51493389Y-144076358D01*
X51492492Y-144076921D01*
X51516443Y-144135592D01*
X51503684Y-144204287D01*
X51480768Y-144235895D01*
X49417919Y-146298745D01*
X49356596Y-146332230D01*
X49286904Y-146327246D01*
X49264266Y-146316058D01*
X49149923Y-146244211D01*
X48979654Y-146184631D01*
X48979650Y-146184630D01*
X48908916Y-146176661D01*
X48844502Y-146149594D01*
X48804947Y-146092000D01*
X48798800Y-146053441D01*
X48798800Y-143524240D01*
X48818485Y-143457201D01*
X48828278Y-143445047D01*
X48827975Y-143444805D01*
X48832311Y-143439366D01*
X48832316Y-143439362D01*
X48928289Y-143286622D01*
X48987868Y-143116355D01*
X48989112Y-143105316D01*
X49008065Y-142937103D01*
X49008065Y-142937096D01*
X48987869Y-142757850D01*
X48987866Y-142757837D01*
X48948017Y-142643955D01*
X48944455Y-142574176D01*
X48979183Y-142513549D01*
X49041177Y-142481321D01*
X49065058Y-142479000D01*
X49502431Y-142479000D01*
X49502447Y-142479001D01*
X49510043Y-142479001D01*
X49668154Y-142479001D01*
X49668157Y-142479001D01*
X49820885Y-142438077D01*
X49851563Y-142420365D01*
X49874688Y-142407014D01*
X49874699Y-142407006D01*
X49874711Y-142407000D01*
X49957816Y-142359020D01*
X50069620Y-142247216D01*
X50069620Y-142247214D01*
X50079824Y-142237011D01*
X50079828Y-142237006D01*
X50904506Y-141412328D01*
X50904511Y-141412324D01*
X50914714Y-141402120D01*
X50914716Y-141402120D01*
X51026520Y-141290316D01*
X51092173Y-141176601D01*
X51105577Y-141153385D01*
X51146501Y-141000657D01*
X51146501Y-140842543D01*
X51146501Y-140834948D01*
X51146500Y-140834930D01*
X51146500Y-139976412D01*
X51166185Y-139909373D01*
X51173555Y-139899097D01*
X51175810Y-139896267D01*
X51175816Y-139896262D01*
X51271789Y-139743522D01*
X51331368Y-139573255D01*
X51332281Y-139565155D01*
X51351565Y-139394003D01*
X51351565Y-139393996D01*
X51331369Y-139214750D01*
X51331368Y-139214745D01*
X51298832Y-139121762D01*
X51271789Y-139044478D01*
X51270728Y-139042790D01*
X51195449Y-138922984D01*
X51175816Y-138891738D01*
X51048262Y-138764184D01*
X51003336Y-138735955D01*
X50895523Y-138668211D01*
X50725254Y-138608631D01*
X50725249Y-138608630D01*
X50546004Y-138588435D01*
X50545996Y-138588435D01*
X50366750Y-138608630D01*
X50366745Y-138608631D01*
X50196476Y-138668211D01*
X50043737Y-138764184D01*
X49916184Y-138891737D01*
X49820211Y-139044476D01*
X49760631Y-139214745D01*
X49760630Y-139214750D01*
X49740435Y-139393996D01*
X49740435Y-139394003D01*
X49760630Y-139573249D01*
X49760631Y-139573254D01*
X49820211Y-139743523D01*
X49871192Y-139824658D01*
X49911062Y-139888111D01*
X49916185Y-139896263D01*
X49918445Y-139899097D01*
X49919334Y-139901275D01*
X49919889Y-139902158D01*
X49919734Y-139902255D01*
X49944855Y-139963783D01*
X49945500Y-139976412D01*
X49945500Y-140484280D01*
X49925815Y-140551319D01*
X49873011Y-140597074D01*
X49803853Y-140607018D01*
X49755528Y-140589274D01*
X49692723Y-140549811D01*
X49522454Y-140490231D01*
X49522449Y-140490230D01*
X49343204Y-140470035D01*
X49343196Y-140470035D01*
X49163950Y-140490230D01*
X49163945Y-140490231D01*
X48993676Y-140549811D01*
X48840936Y-140645785D01*
X48838103Y-140648045D01*
X48835924Y-140648934D01*
X48835042Y-140649489D01*
X48834944Y-140649334D01*
X48773417Y-140674455D01*
X48760788Y-140675100D01*
X48635618Y-140675100D01*
X48568579Y-140655415D01*
X48522824Y-140602611D01*
X48512880Y-140533453D01*
X48518576Y-140510146D01*
X48559021Y-140394560D01*
X48577568Y-140341555D01*
X48577569Y-140341549D01*
X48597765Y-140162303D01*
X48597765Y-140162296D01*
X48577569Y-139983050D01*
X48577568Y-139983045D01*
X48561214Y-139936308D01*
X48517989Y-139812778D01*
X48499815Y-139783855D01*
X48474968Y-139744311D01*
X48422016Y-139660038D01*
X48294462Y-139532484D01*
X48265312Y-139514168D01*
X48141723Y-139436511D01*
X47971454Y-139376931D01*
X47971449Y-139376930D01*
X47792204Y-139356735D01*
X47792196Y-139356735D01*
X47612950Y-139376930D01*
X47612945Y-139376931D01*
X47442676Y-139436511D01*
X47289937Y-139532484D01*
X47162384Y-139660037D01*
X47066411Y-139812776D01*
X47006831Y-139983045D01*
X47006830Y-139983050D01*
X46986635Y-140162296D01*
X46986635Y-140162303D01*
X47006830Y-140341549D01*
X47006831Y-140341554D01*
X47066411Y-140511823D01*
X47162384Y-140664562D01*
X47289938Y-140792116D01*
X47342010Y-140824835D01*
X47432145Y-140881471D01*
X47442678Y-140888089D01*
X47568097Y-140931975D01*
X47612945Y-140947668D01*
X47619732Y-140949217D01*
X47619336Y-140950948D01*
X47675427Y-140974517D01*
X47714982Y-141032112D01*
X47717120Y-141101949D01*
X47684811Y-141158352D01*
X45922686Y-142920478D01*
X45810881Y-143032282D01*
X45810875Y-143032290D01*
X45770409Y-143102381D01*
X45719843Y-143150597D01*
X45651236Y-143163821D01*
X45586371Y-143137853D01*
X45575341Y-143128063D01*
X45459462Y-143012184D01*
X45306723Y-142916211D01*
X45136454Y-142856631D01*
X45136450Y-142856630D01*
X45012916Y-142842712D01*
X44948503Y-142815646D01*
X44908947Y-142758051D01*
X44902800Y-142719492D01*
X44902800Y-141910945D01*
X44902798Y-141910935D01*
X44901850Y-141907396D01*
X44901847Y-141907389D01*
X44890463Y-141864899D01*
X44861877Y-141758216D01*
X44853401Y-141743535D01*
X44782824Y-141621290D01*
X44782821Y-141621286D01*
X44782820Y-141621284D01*
X44671016Y-141509480D01*
X44671015Y-141509479D01*
X44666685Y-141505149D01*
X44666674Y-141505139D01*
X43065417Y-139903882D01*
X43031932Y-139842559D01*
X43033323Y-139784107D01*
X43033392Y-139783849D01*
X43050507Y-139719977D01*
X43068512Y-139514169D01*
X43069577Y-139502002D01*
X43069577Y-139501997D01*
X43063888Y-139436978D01*
X43050507Y-139284023D01*
X42993875Y-139072670D01*
X42901402Y-138874362D01*
X42901400Y-138874359D01*
X42901399Y-138874357D01*
X42817173Y-138754070D01*
X42794846Y-138687864D01*
X42811856Y-138620097D01*
X42862804Y-138572284D01*
X42878890Y-138565528D01*
X43027186Y-138515188D01*
X43291706Y-138384741D01*
X43291719Y-138384734D01*
X43536948Y-138220877D01*
X43570339Y-138191593D01*
X42782833Y-137404086D01*
X42913475Y-137309171D01*
X43041471Y-137181175D01*
X43136386Y-137050533D01*
X43923893Y-137838039D01*
X43953177Y-137804648D01*
X44068139Y-137632596D01*
X52587735Y-137632596D01*
X52587735Y-137632603D01*
X52607930Y-137811849D01*
X52607931Y-137811854D01*
X52667511Y-137982123D01*
X52747587Y-138109562D01*
X52763484Y-138134862D01*
X52891038Y-138262416D01*
X52942327Y-138294643D01*
X53010189Y-138337284D01*
X53043778Y-138358389D01*
X53140733Y-138392315D01*
X53214045Y-138417968D01*
X53214050Y-138417969D01*
X53393296Y-138438165D01*
X53393300Y-138438165D01*
X53393304Y-138438165D01*
X53572549Y-138417969D01*
X53572552Y-138417968D01*
X53572555Y-138417968D01*
X53742822Y-138358389D01*
X53895562Y-138262416D01*
X54023116Y-138134862D01*
X54119089Y-137982122D01*
X54178668Y-137811855D01*
X54179040Y-137808554D01*
X54198865Y-137632603D01*
X54198865Y-137632596D01*
X54178669Y-137453350D01*
X54178668Y-137453345D01*
X54144552Y-137355847D01*
X54119089Y-137283078D01*
X54116202Y-137278484D01*
X54048949Y-137171451D01*
X54023116Y-137130338D01*
X53895562Y-137002784D01*
X53859351Y-136980031D01*
X53742823Y-136906811D01*
X53572554Y-136847231D01*
X53572549Y-136847230D01*
X53393304Y-136827035D01*
X53393296Y-136827035D01*
X53214050Y-136847230D01*
X53214045Y-136847231D01*
X53043776Y-136906811D01*
X52891037Y-137002784D01*
X52763484Y-137130337D01*
X52667511Y-137283076D01*
X52607931Y-137453345D01*
X52607930Y-137453350D01*
X52587735Y-137632596D01*
X44068139Y-137632596D01*
X44117034Y-137559419D01*
X44117041Y-137559406D01*
X44247487Y-137294888D01*
X44342294Y-137015599D01*
X44342298Y-137015584D01*
X44399835Y-136726324D01*
X44399837Y-136726312D01*
X44419127Y-136432000D01*
X44399837Y-136137687D01*
X44399835Y-136137675D01*
X44342298Y-135848415D01*
X44342294Y-135848400D01*
X44247487Y-135569111D01*
X44117041Y-135304593D01*
X44117034Y-135304580D01*
X43953176Y-135059350D01*
X43923893Y-135025958D01*
X43136386Y-135813465D01*
X43041471Y-135682825D01*
X42913475Y-135554829D01*
X42782833Y-135459912D01*
X43570340Y-134672405D01*
X43536949Y-134643123D01*
X43291719Y-134479265D01*
X43291706Y-134479258D01*
X43027188Y-134348812D01*
X42747899Y-134254005D01*
X42747884Y-134254001D01*
X42458624Y-134196464D01*
X42458612Y-134196462D01*
X42164300Y-134177172D01*
X41869987Y-134196462D01*
X41869975Y-134196464D01*
X41580715Y-134254001D01*
X41580700Y-134254005D01*
X41301411Y-134348812D01*
X41036893Y-134479258D01*
X41036880Y-134479265D01*
X40791646Y-134643126D01*
X40791639Y-134643131D01*
X40758259Y-134672403D01*
X40758259Y-134672405D01*
X41545766Y-135459912D01*
X41415125Y-135554829D01*
X41287129Y-135682825D01*
X41192212Y-135813466D01*
X40404705Y-135025959D01*
X40404703Y-135025959D01*
X40375431Y-135059339D01*
X40375426Y-135059346D01*
X40211565Y-135304580D01*
X40211558Y-135304593D01*
X40081112Y-135569111D01*
X39986305Y-135848400D01*
X39986301Y-135848415D01*
X39928764Y-136137675D01*
X39928762Y-136137687D01*
X39909472Y-136432000D01*
X39928762Y-136726312D01*
X39928764Y-136726324D01*
X39986301Y-137015584D01*
X39986305Y-137015599D01*
X40081112Y-137294888D01*
X40211558Y-137559406D01*
X40211565Y-137559419D01*
X40375423Y-137804649D01*
X40404705Y-137838040D01*
X41192212Y-137050532D01*
X41287129Y-137181175D01*
X41415125Y-137309171D01*
X41545765Y-137404086D01*
X40758258Y-138191593D01*
X40791651Y-138220877D01*
X40791656Y-138220881D01*
X40986907Y-138351343D01*
X41031713Y-138404955D01*
X41040420Y-138474280D01*
X41010266Y-138537307D01*
X41005698Y-138542126D01*
X40852702Y-138695121D01*
X40745220Y-138848623D01*
X40690643Y-138892248D01*
X40643645Y-138901500D01*
X40568799Y-138901500D01*
X40501760Y-138881815D01*
X40456005Y-138829011D01*
X40444799Y-138777500D01*
X40444799Y-138704129D01*
X40444798Y-138704123D01*
X40444797Y-138704116D01*
X40438391Y-138644517D01*
X40432783Y-138629482D01*
X40388097Y-138509671D01*
X40388093Y-138509664D01*
X40301847Y-138394455D01*
X40301844Y-138394452D01*
X40186635Y-138308206D01*
X40186628Y-138308202D01*
X40051782Y-138257908D01*
X40051783Y-138257908D01*
X39992183Y-138251501D01*
X39992181Y-138251500D01*
X39992173Y-138251500D01*
X39992164Y-138251500D01*
X38396429Y-138251500D01*
X38396423Y-138251501D01*
X38336816Y-138257908D01*
X38201971Y-138308202D01*
X38201964Y-138308206D01*
X38086755Y-138394452D01*
X38086752Y-138394455D01*
X38000506Y-138509664D01*
X38000502Y-138509671D01*
X37950208Y-138644517D01*
X37943801Y-138704116D01*
X37943801Y-138704123D01*
X37943800Y-138704135D01*
X37943800Y-140299870D01*
X37943801Y-140299876D01*
X37950208Y-140359483D01*
X38000502Y-140494328D01*
X38000506Y-140494335D01*
X38086752Y-140609544D01*
X38086755Y-140609547D01*
X38201964Y-140695793D01*
X38201971Y-140695797D01*
X38219927Y-140702494D01*
X38336817Y-140746091D01*
X38396427Y-140752500D01*
X38405305Y-140752499D01*
X38472343Y-140772178D01*
X38518102Y-140824978D01*
X38528051Y-140894136D01*
X38499032Y-140957694D01*
X38476436Y-140978073D01*
X38387422Y-141040401D01*
X38232702Y-141195121D01*
X38107200Y-141374357D01*
X38107198Y-141374361D01*
X38014726Y-141572668D01*
X38014722Y-141572677D01*
X37958093Y-141784020D01*
X37958093Y-141784024D01*
X37939023Y-142001997D01*
X37939023Y-142002002D01*
X37943914Y-142057907D01*
X37957837Y-142217055D01*
X37958093Y-142219975D01*
X37958093Y-142219979D01*
X38014722Y-142431322D01*
X38014724Y-142431326D01*
X38014725Y-142431330D01*
X38052316Y-142511945D01*
X38107197Y-142629638D01*
X38118259Y-142645436D01*
X38232702Y-142808877D01*
X38232706Y-142808881D01*
X38338143Y-142914318D01*
X38371628Y-142975641D01*
X38366644Y-143045333D01*
X38338144Y-143089680D01*
X38232700Y-143195124D01*
X38107200Y-143374357D01*
X38107198Y-143374361D01*
X38014726Y-143572668D01*
X38014722Y-143572677D01*
X37958093Y-143784020D01*
X37958093Y-143784024D01*
X37939023Y-144001997D01*
X37939023Y-144002002D01*
X37941653Y-144032058D01*
X37956565Y-144202516D01*
X37958093Y-144219975D01*
X37958093Y-144219979D01*
X38014722Y-144431322D01*
X38014724Y-144431326D01*
X38014725Y-144431330D01*
X38050111Y-144507216D01*
X38107197Y-144629638D01*
X38113990Y-144639339D01*
X38232702Y-144808877D01*
X38387423Y-144963598D01*
X38563746Y-145087061D01*
X38566661Y-145089102D01*
X38675585Y-145139894D01*
X38728024Y-145186066D01*
X38747176Y-145253260D01*
X38726960Y-145320141D01*
X38675585Y-145364658D01*
X38566913Y-145415333D01*
X38504728Y-145458874D01*
X39097551Y-146051697D01*
X39016747Y-146073349D01*
X38911854Y-146133909D01*
X38826209Y-146219554D01*
X38765649Y-146324447D01*
X38743997Y-146405251D01*
X38151174Y-145812428D01*
X38107633Y-145874613D01*
X38015198Y-146072840D01*
X38015194Y-146072849D01*
X37958589Y-146284105D01*
X37958587Y-146284115D01*
X37939525Y-146501999D01*
X37939525Y-146502000D01*
X37958587Y-146719884D01*
X37958589Y-146719894D01*
X38015194Y-146931150D01*
X38015198Y-146931159D01*
X38107633Y-147129387D01*
X38151174Y-147191571D01*
X38743997Y-146598748D01*
X38765649Y-146679553D01*
X38826209Y-146784446D01*
X38911854Y-146870091D01*
X39016747Y-146930651D01*
X39097550Y-146952302D01*
X38504727Y-147545124D01*
X38566912Y-147588666D01*
X38765140Y-147681101D01*
X38765149Y-147681105D01*
X38976405Y-147737710D01*
X38976415Y-147737712D01*
X39194299Y-147756775D01*
X39194301Y-147756775D01*
X39412184Y-147737712D01*
X39412194Y-147737710D01*
X39623450Y-147681105D01*
X39623459Y-147681101D01*
X39727395Y-147632636D01*
X39796473Y-147622144D01*
X39860257Y-147650664D01*
X39898496Y-147709140D01*
X39903800Y-147745018D01*
X39903800Y-147980102D01*
X39884115Y-148047141D01*
X39867481Y-148067783D01*
X38985381Y-148949882D01*
X38985377Y-148949887D01*
X38938176Y-149031644D01*
X38904115Y-149090639D01*
X38853548Y-149138855D01*
X38784941Y-149152077D01*
X38720076Y-149126109D01*
X38679548Y-149069195D01*
X38675110Y-149052830D01*
X38662294Y-148988400D01*
X38567487Y-148709111D01*
X38437041Y-148444593D01*
X38437034Y-148444580D01*
X38273176Y-148199350D01*
X38243893Y-148165958D01*
X37456386Y-148953465D01*
X37361471Y-148822825D01*
X37233475Y-148694829D01*
X37102833Y-148599912D01*
X37890340Y-147812405D01*
X37856949Y-147783123D01*
X37611719Y-147619265D01*
X37611706Y-147619258D01*
X37347188Y-147488812D01*
X37067899Y-147394005D01*
X37067884Y-147394001D01*
X36778624Y-147336464D01*
X36778612Y-147336462D01*
X36484300Y-147317172D01*
X36189987Y-147336462D01*
X36189975Y-147336464D01*
X35900715Y-147394001D01*
X35900700Y-147394005D01*
X35621411Y-147488812D01*
X35356893Y-147619258D01*
X35356880Y-147619265D01*
X35111646Y-147783126D01*
X35111639Y-147783131D01*
X35078259Y-147812403D01*
X35078259Y-147812405D01*
X35865766Y-148599912D01*
X35735125Y-148694829D01*
X35607129Y-148822825D01*
X35512212Y-148953466D01*
X34724705Y-148165959D01*
X34724703Y-148165959D01*
X34695431Y-148199339D01*
X34695426Y-148199346D01*
X34531565Y-148444580D01*
X34531558Y-148444593D01*
X34401112Y-148709111D01*
X34306305Y-148988400D01*
X34306301Y-148988415D01*
X34248764Y-149277675D01*
X34248762Y-149277687D01*
X34229472Y-149572000D01*
X34248762Y-149866312D01*
X34248764Y-149866324D01*
X34306301Y-150155584D01*
X34306305Y-150155599D01*
X34401112Y-150434888D01*
X34531558Y-150699406D01*
X34531565Y-150699419D01*
X34695423Y-150944649D01*
X34724705Y-150978040D01*
X35512212Y-150190532D01*
X35607129Y-150321175D01*
X35735125Y-150449171D01*
X35865765Y-150544086D01*
X35078258Y-151331593D01*
X35111650Y-151360876D01*
X35356880Y-151524734D01*
X35356893Y-151524741D01*
X35621411Y-151655187D01*
X35900700Y-151749994D01*
X35900715Y-151749998D01*
X36177139Y-151804982D01*
X36239050Y-151837367D01*
X36273624Y-151898082D01*
X36269885Y-151967852D01*
X36267512Y-151974044D01*
X36265125Y-151979806D01*
X36249821Y-152036922D01*
X36224199Y-152132543D01*
X36224199Y-152132545D01*
X36224199Y-152300646D01*
X36224200Y-152300659D01*
X36224200Y-172860130D01*
X36224199Y-172860148D01*
X36224199Y-173025854D01*
X36224198Y-173025854D01*
X36264145Y-173174937D01*
X36265123Y-173178585D01*
X36288561Y-173219180D01*
X36291983Y-173225107D01*
X36344179Y-173315514D01*
X36344181Y-173315517D01*
X36463049Y-173434385D01*
X36463055Y-173434390D01*
X40982261Y-177953596D01*
X41015746Y-178014919D01*
X41010762Y-178084611D01*
X40968890Y-178140544D01*
X40903426Y-178164961D01*
X40879039Y-178164299D01*
X40627329Y-178132500D01*
X40627318Y-178132500D01*
X40312682Y-178132500D01*
X40312670Y-178132500D01*
X40000536Y-178171932D01*
X40000523Y-178171934D01*
X39695774Y-178250180D01*
X39695771Y-178250181D01*
X39403242Y-178366001D01*
X39403241Y-178366002D01*
X39127516Y-178517584D01*
X39127504Y-178517591D01*
X38872978Y-178702515D01*
X38872968Y-178702523D01*
X38643608Y-178917907D01*
X38643606Y-178917909D01*
X38443054Y-179160334D01*
X38443051Y-179160338D01*
X38274464Y-179425990D01*
X38274461Y-179425996D01*
X38140499Y-179710678D01*
X38140497Y-179710683D01*
X38043270Y-180009916D01*
X37984311Y-180318988D01*
X37984310Y-180318995D01*
X37964556Y-180632994D01*
X37964556Y-180633005D01*
X37984310Y-180947004D01*
X37984311Y-180947011D01*
X38043270Y-181256083D01*
X38140497Y-181555316D01*
X38140499Y-181555321D01*
X38274461Y-181840003D01*
X38274464Y-181840009D01*
X38443051Y-182105661D01*
X38443054Y-182105665D01*
X38643606Y-182348090D01*
X38643608Y-182348092D01*
X38643610Y-182348094D01*
X38643979Y-182348440D01*
X38872968Y-182563476D01*
X38872978Y-182563484D01*
X39127504Y-182748408D01*
X39127509Y-182748410D01*
X39127516Y-182748416D01*
X39403234Y-182899994D01*
X39403239Y-182899996D01*
X39403241Y-182899997D01*
X39403242Y-182899998D01*
X39695771Y-183015818D01*
X39695774Y-183015819D01*
X39936992Y-183077753D01*
X40000527Y-183094066D01*
X40043099Y-183099444D01*
X40312670Y-183133499D01*
X40312679Y-183133499D01*
X40312682Y-183133500D01*
X40312684Y-183133500D01*
X40627316Y-183133500D01*
X40627318Y-183133500D01*
X40627321Y-183133499D01*
X40627329Y-183133499D01*
X40813593Y-183109968D01*
X40939473Y-183094066D01*
X41244225Y-183015819D01*
X41289140Y-182998036D01*
X41536757Y-182899998D01*
X41536758Y-182899997D01*
X41536756Y-182899997D01*
X41536766Y-182899994D01*
X41812484Y-182748416D01*
X42067030Y-182563478D01*
X42296390Y-182348094D01*
X42496947Y-182105663D01*
X42665537Y-181840007D01*
X42799503Y-181555315D01*
X42896731Y-181256079D01*
X42955688Y-180947015D01*
X42955689Y-180947004D01*
X42975444Y-180633005D01*
X42975444Y-180632994D01*
X42955689Y-180318995D01*
X42955688Y-180318988D01*
X42955688Y-180318985D01*
X42938819Y-180230554D01*
X42945592Y-180161015D01*
X42988887Y-180106175D01*
X43054957Y-180083448D01*
X43122826Y-180100050D01*
X43148303Y-180119638D01*
X46625871Y-183597206D01*
X46659356Y-183658529D01*
X46654372Y-183728221D01*
X46612500Y-183784154D01*
X46547036Y-183808571D01*
X46538116Y-183808887D01*
X31045598Y-183799653D01*
X30978570Y-183779928D01*
X30958149Y-183763492D01*
X29599477Y-182409703D01*
X29565881Y-182348440D01*
X29563000Y-182321864D01*
X29563000Y-136774201D01*
X29582685Y-136707162D01*
X29635489Y-136661407D01*
X29686936Y-136650201D01*
X32876722Y-136648683D01*
X32882999Y-136649073D01*
X32887411Y-136649045D01*
X32887417Y-136649047D01*
X32951681Y-136648647D01*
X32951813Y-136648646D01*
X33016340Y-136648617D01*
X33016342Y-136648616D01*
X33021189Y-136648614D01*
X33026733Y-136648233D01*
X33078073Y-136647950D01*
X33324889Y-136611231D01*
X33564060Y-136540073D01*
X33790807Y-136435898D01*
X34000596Y-136300787D01*
X34028048Y-136277015D01*
X34091613Y-136248011D01*
X34160768Y-136257977D01*
X34213557Y-136303749D01*
X34233220Y-136370795D01*
X34232955Y-136378865D01*
X34229472Y-136431999D01*
X34248762Y-136726312D01*
X34248764Y-136726324D01*
X34306301Y-137015584D01*
X34306305Y-137015599D01*
X34401112Y-137294888D01*
X34531558Y-137559406D01*
X34531565Y-137559419D01*
X34695423Y-137804649D01*
X34724705Y-137838040D01*
X35512212Y-137050532D01*
X35607129Y-137181175D01*
X35735125Y-137309171D01*
X35865765Y-137404086D01*
X35078258Y-138191593D01*
X35111650Y-138220876D01*
X35356880Y-138384734D01*
X35356893Y-138384741D01*
X35621411Y-138515187D01*
X35900700Y-138609994D01*
X35900715Y-138609998D01*
X36189975Y-138667535D01*
X36189987Y-138667537D01*
X36484300Y-138686827D01*
X36778612Y-138667537D01*
X36778624Y-138667535D01*
X37067884Y-138609998D01*
X37067899Y-138609994D01*
X37347188Y-138515187D01*
X37611706Y-138384741D01*
X37611719Y-138384734D01*
X37856948Y-138220877D01*
X37890339Y-138191593D01*
X37102833Y-137404086D01*
X37233475Y-137309171D01*
X37361471Y-137181175D01*
X37456386Y-137050533D01*
X38243893Y-137838039D01*
X38273177Y-137804648D01*
X38437034Y-137559419D01*
X38437041Y-137559406D01*
X38567487Y-137294888D01*
X38662294Y-137015599D01*
X38662298Y-137015584D01*
X38719835Y-136726324D01*
X38719837Y-136726312D01*
X38739127Y-136432000D01*
X38719837Y-136137687D01*
X38719835Y-136137675D01*
X38662298Y-135848415D01*
X38662294Y-135848400D01*
X38567487Y-135569111D01*
X38437041Y-135304593D01*
X38437034Y-135304580D01*
X38273176Y-135059350D01*
X38243893Y-135025958D01*
X37456386Y-135813465D01*
X37361471Y-135682825D01*
X37233475Y-135554829D01*
X37102833Y-135459912D01*
X37890340Y-134672405D01*
X37856949Y-134643123D01*
X37611719Y-134479265D01*
X37611706Y-134479258D01*
X37347188Y-134348812D01*
X37067899Y-134254005D01*
X37067884Y-134254001D01*
X36778624Y-134196464D01*
X36778612Y-134196462D01*
X36484300Y-134177172D01*
X36189987Y-134196462D01*
X36189975Y-134196464D01*
X35900715Y-134254001D01*
X35900700Y-134254005D01*
X35621411Y-134348812D01*
X35356893Y-134479258D01*
X35356880Y-134479265D01*
X35111646Y-134643126D01*
X35111639Y-134643131D01*
X35078259Y-134672403D01*
X35078259Y-134672405D01*
X35865766Y-135459912D01*
X35735125Y-135554829D01*
X35607129Y-135682825D01*
X35512212Y-135813466D01*
X34738823Y-135040077D01*
X34705338Y-134978754D01*
X34702508Y-134951464D01*
X34702876Y-134902526D01*
X34702883Y-134902526D01*
X34702875Y-134902448D01*
X34703414Y-134836637D01*
X34703413Y-134836633D01*
X34702419Y-134828571D01*
X34702912Y-134828510D01*
X34700500Y-134809586D01*
X34700500Y-131324500D01*
X34720185Y-131257461D01*
X34772989Y-131211706D01*
X34824500Y-131200500D01*
X49205249Y-131200500D01*
X49272288Y-131220185D01*
G37*
%TD.AperFunction*%
%TA.AperFunction,Conductor*%
G36*
X49404203Y-168471284D02*
G01*
X49410681Y-168477316D01*
X51859166Y-170925801D01*
X51892651Y-170987124D01*
X51887667Y-171056816D01*
X51868443Y-171090781D01*
X51866889Y-171092729D01*
X51770911Y-171245476D01*
X51711331Y-171415745D01*
X51711330Y-171415750D01*
X51691135Y-171594996D01*
X51691135Y-171595003D01*
X51711330Y-171774249D01*
X51711331Y-171774254D01*
X51770911Y-171944523D01*
X51866884Y-172097262D01*
X51994438Y-172224816D01*
X52027038Y-172245300D01*
X52133976Y-172312494D01*
X52147178Y-172320789D01*
X52261869Y-172360921D01*
X52317445Y-172380368D01*
X52317450Y-172380369D01*
X52496696Y-172400565D01*
X52496700Y-172400565D01*
X52496704Y-172400565D01*
X52675949Y-172380369D01*
X52675952Y-172380368D01*
X52675955Y-172380368D01*
X52846222Y-172320789D01*
X52846228Y-172320785D01*
X52851364Y-172318311D01*
X52920304Y-172306948D01*
X52984443Y-172334661D01*
X52992864Y-172342342D01*
X53057838Y-172407316D01*
X53115439Y-172443509D01*
X53186016Y-172487856D01*
X53210578Y-172503289D01*
X53378550Y-172562065D01*
X53380845Y-172562868D01*
X53380850Y-172562869D01*
X53560096Y-172583065D01*
X53560100Y-172583065D01*
X53560104Y-172583065D01*
X53739349Y-172562869D01*
X53739352Y-172562868D01*
X53739355Y-172562868D01*
X53909622Y-172503289D01*
X54062362Y-172407316D01*
X54189343Y-172280334D01*
X54250662Y-172246852D01*
X54320354Y-172251836D01*
X54364702Y-172280337D01*
X58981581Y-176897216D01*
X59015066Y-176958539D01*
X59017900Y-176984897D01*
X59017900Y-177163830D01*
X59017899Y-177163848D01*
X59017899Y-177329554D01*
X59017898Y-177329554D01*
X59058823Y-177482285D01*
X59071046Y-177503455D01*
X59071047Y-177503458D01*
X59137875Y-177619209D01*
X59137881Y-177619217D01*
X59256749Y-177738085D01*
X59256755Y-177738090D01*
X62300713Y-180782048D01*
X62334198Y-180843371D01*
X62329214Y-180913063D01*
X62289197Y-180967580D01*
X62268159Y-180983955D01*
X62268150Y-180983963D01*
X62115050Y-181150272D01*
X62115042Y-181150283D01*
X61991398Y-181339533D01*
X61900588Y-181546560D01*
X61845092Y-181765710D01*
X61826425Y-181990993D01*
X61826425Y-181991006D01*
X61845092Y-182216289D01*
X61900588Y-182435439D01*
X61991398Y-182642466D01*
X62115042Y-182831716D01*
X62115044Y-182831719D01*
X62170092Y-182891517D01*
X62201015Y-182954171D01*
X62193155Y-183023597D01*
X62149008Y-183077753D01*
X62082591Y-183099444D01*
X62078863Y-183099500D01*
X47877997Y-183099500D01*
X47810958Y-183079815D01*
X47790316Y-183063181D01*
X45174275Y-180447140D01*
X47414531Y-180447140D01*
X47441450Y-180582467D01*
X47441453Y-180582477D01*
X47494253Y-180709949D01*
X47494260Y-180709962D01*
X47570917Y-180824686D01*
X47570920Y-180824690D01*
X47668486Y-180922256D01*
X47668490Y-180922259D01*
X47783214Y-180998916D01*
X47783227Y-180998923D01*
X47902042Y-181048137D01*
X47910704Y-181051725D01*
X47910708Y-181051725D01*
X47910709Y-181051726D01*
X48046036Y-181078645D01*
X48046039Y-181078645D01*
X48184027Y-181078645D01*
X48275073Y-181060534D01*
X48319360Y-181051725D01*
X48446843Y-180998920D01*
X48561574Y-180922259D01*
X48659146Y-180824687D01*
X48735807Y-180709956D01*
X48788612Y-180582473D01*
X48813254Y-180458590D01*
X48815532Y-180447140D01*
X55414531Y-180447140D01*
X55441450Y-180582467D01*
X55441453Y-180582477D01*
X55494253Y-180709949D01*
X55494260Y-180709962D01*
X55570917Y-180824686D01*
X55570920Y-180824690D01*
X55668486Y-180922256D01*
X55668490Y-180922259D01*
X55783214Y-180998916D01*
X55783227Y-180998923D01*
X55902042Y-181048137D01*
X55910704Y-181051725D01*
X55910708Y-181051725D01*
X55910709Y-181051726D01*
X56046036Y-181078645D01*
X56046039Y-181078645D01*
X56184027Y-181078645D01*
X56275073Y-181060534D01*
X56319360Y-181051725D01*
X56446843Y-180998920D01*
X56561574Y-180922259D01*
X56659146Y-180824687D01*
X56735807Y-180709956D01*
X56788612Y-180582473D01*
X56813254Y-180458590D01*
X56815532Y-180447140D01*
X56815532Y-180309149D01*
X56788613Y-180173822D01*
X56788612Y-180173821D01*
X56788612Y-180173817D01*
X56782209Y-180158359D01*
X56735810Y-180046340D01*
X56735803Y-180046327D01*
X56659146Y-179931603D01*
X56659143Y-179931599D01*
X56561577Y-179834033D01*
X56561573Y-179834030D01*
X56446849Y-179757373D01*
X56446836Y-179757366D01*
X56319364Y-179704566D01*
X56319354Y-179704563D01*
X56184027Y-179677645D01*
X56184025Y-179677645D01*
X56046039Y-179677645D01*
X56046037Y-179677645D01*
X55910709Y-179704563D01*
X55910699Y-179704566D01*
X55783227Y-179757366D01*
X55783214Y-179757373D01*
X55668490Y-179834030D01*
X55668486Y-179834033D01*
X55570920Y-179931599D01*
X55570917Y-179931603D01*
X55494260Y-180046327D01*
X55494253Y-180046340D01*
X55441453Y-180173812D01*
X55441450Y-180173822D01*
X55414532Y-180309149D01*
X55414532Y-180309152D01*
X55414532Y-180447138D01*
X55414532Y-180447140D01*
X55414531Y-180447140D01*
X48815532Y-180447140D01*
X48815532Y-180309149D01*
X48788613Y-180173822D01*
X48788612Y-180173821D01*
X48788612Y-180173817D01*
X48782209Y-180158359D01*
X48735810Y-180046340D01*
X48735803Y-180046327D01*
X48659146Y-179931603D01*
X48659143Y-179931599D01*
X48561577Y-179834033D01*
X48561573Y-179834030D01*
X48446849Y-179757373D01*
X48446836Y-179757366D01*
X48319364Y-179704566D01*
X48319354Y-179704563D01*
X48184027Y-179677645D01*
X48184025Y-179677645D01*
X48046039Y-179677645D01*
X48046037Y-179677645D01*
X47910709Y-179704563D01*
X47910699Y-179704566D01*
X47783227Y-179757366D01*
X47783214Y-179757373D01*
X47668490Y-179834030D01*
X47668486Y-179834033D01*
X47570920Y-179931599D01*
X47570917Y-179931603D01*
X47494260Y-180046327D01*
X47494253Y-180046340D01*
X47441453Y-180173812D01*
X47441450Y-180173822D01*
X47414532Y-180309149D01*
X47414532Y-180309152D01*
X47414532Y-180447138D01*
X47414532Y-180447140D01*
X47414531Y-180447140D01*
X45174275Y-180447140D01*
X39836054Y-175108919D01*
X39802569Y-175047596D01*
X39807553Y-174977904D01*
X39849425Y-174921971D01*
X39912928Y-174897710D01*
X40136599Y-174878141D01*
X40136610Y-174878139D01*
X40356317Y-174819269D01*
X40356331Y-174819264D01*
X40562478Y-174723136D01*
X40635471Y-174672024D01*
X40039409Y-174075962D01*
X40102993Y-174058925D01*
X40217007Y-173993099D01*
X40310099Y-173900007D01*
X40375925Y-173785993D01*
X40392962Y-173722409D01*
X40989024Y-174318471D01*
X41040136Y-174245478D01*
X41136264Y-174039331D01*
X41136269Y-174039317D01*
X41189567Y-173840406D01*
X41225932Y-173780745D01*
X41288779Y-173750216D01*
X41309331Y-173748499D01*
X42737872Y-173748499D01*
X42797483Y-173742091D01*
X42932331Y-173691796D01*
X43047546Y-173605546D01*
X43133796Y-173490331D01*
X43184091Y-173355483D01*
X43190500Y-173295873D01*
X43190500Y-173172501D01*
X43210185Y-173105462D01*
X43262989Y-173059707D01*
X43314500Y-173048501D01*
X43348954Y-173048501D01*
X43348957Y-173048501D01*
X43501685Y-173007577D01*
X43528760Y-172991945D01*
X43556593Y-172975876D01*
X43556604Y-172975868D01*
X43556616Y-172975862D01*
X43638616Y-172928520D01*
X43750420Y-172816716D01*
X43750420Y-172816714D01*
X43760624Y-172806511D01*
X43760627Y-172806506D01*
X47786321Y-168780813D01*
X47847642Y-168747330D01*
X47917334Y-168752314D01*
X47973267Y-168794186D01*
X47997684Y-168859650D01*
X47998000Y-168868496D01*
X47998000Y-170596487D01*
X47978315Y-170663526D01*
X47970950Y-170673796D01*
X47968686Y-170676634D01*
X47872711Y-170829376D01*
X47813131Y-170999645D01*
X47813130Y-170999650D01*
X47792935Y-171178896D01*
X47792935Y-171178903D01*
X47813130Y-171358149D01*
X47813131Y-171358154D01*
X47872711Y-171528423D01*
X47917766Y-171600127D01*
X47968684Y-171681162D01*
X48096238Y-171808716D01*
X48186580Y-171865482D01*
X48235940Y-171896497D01*
X48248978Y-171904689D01*
X48362814Y-171944522D01*
X48419245Y-171964268D01*
X48419250Y-171964269D01*
X48598496Y-171984465D01*
X48598500Y-171984465D01*
X48598504Y-171984465D01*
X48777749Y-171964269D01*
X48777752Y-171964268D01*
X48777755Y-171964268D01*
X48948022Y-171904689D01*
X49100762Y-171808716D01*
X49228316Y-171681162D01*
X49324289Y-171528422D01*
X49383868Y-171358155D01*
X49385746Y-171341489D01*
X49404065Y-171178903D01*
X49404065Y-171178896D01*
X49383869Y-170999650D01*
X49383868Y-170999645D01*
X49350016Y-170902901D01*
X49324289Y-170829378D01*
X49320937Y-170824044D01*
X49233637Y-170685107D01*
X49228316Y-170676638D01*
X49228314Y-170676636D01*
X49228313Y-170676634D01*
X49226050Y-170673796D01*
X49225159Y-170671615D01*
X49224611Y-170670742D01*
X49224764Y-170670645D01*
X49199644Y-170609109D01*
X49199000Y-170596487D01*
X49199000Y-168564997D01*
X49218685Y-168497958D01*
X49271489Y-168452203D01*
X49340647Y-168442259D01*
X49404203Y-168471284D01*
G37*
%TD.AperFunction*%
%TA.AperFunction,Conductor*%
G36*
X70341819Y-181794919D02*
G01*
X70307200Y-181924120D01*
X70307200Y-182057880D01*
X70341819Y-182187081D01*
X70372949Y-182241000D01*
X68717451Y-182241000D01*
X68748581Y-182187081D01*
X68783200Y-182057880D01*
X68783200Y-181924120D01*
X68748581Y-181794919D01*
X68717451Y-181741000D01*
X70372949Y-181741000D01*
X70341819Y-181794919D01*
G37*
%TD.AperFunction*%
%TA.AperFunction,Conductor*%
G36*
X101261403Y-158904839D02*
G01*
X101297242Y-158957598D01*
X101336510Y-159069821D01*
X101355093Y-159099395D01*
X101429465Y-159217758D01*
X101432485Y-159222563D01*
X101434745Y-159225397D01*
X101435634Y-159227575D01*
X101436189Y-159228458D01*
X101436034Y-159228555D01*
X101461155Y-159290083D01*
X101461800Y-159302712D01*
X101461800Y-159683230D01*
X101461799Y-159683248D01*
X101461799Y-159848954D01*
X101461798Y-159848954D01*
X101502723Y-160001685D01*
X101516023Y-160024721D01*
X101581777Y-160138612D01*
X101581781Y-160138617D01*
X101700649Y-160257485D01*
X101700655Y-160257490D01*
X102557439Y-161114274D01*
X102557449Y-161114285D01*
X102561779Y-161118615D01*
X102561780Y-161118616D01*
X102673584Y-161230420D01*
X102699317Y-161245277D01*
X102728070Y-161261877D01*
X102776286Y-161312444D01*
X102789510Y-161381051D01*
X102789291Y-161383147D01*
X102775935Y-161501694D01*
X102775935Y-161501703D01*
X102796130Y-161680949D01*
X102796131Y-161680954D01*
X102855711Y-161851223D01*
X102913212Y-161942734D01*
X102951684Y-162003962D01*
X103079238Y-162131516D01*
X103231978Y-162227489D01*
X103315099Y-162256574D01*
X103371875Y-162297296D01*
X103397623Y-162362248D01*
X103384167Y-162430810D01*
X103335780Y-162481213D01*
X103315107Y-162490655D01*
X103306380Y-162493709D01*
X103153637Y-162589684D01*
X103026084Y-162717237D01*
X102930111Y-162869976D01*
X102870531Y-163040245D01*
X102870530Y-163040250D01*
X102850335Y-163219496D01*
X102850335Y-163219503D01*
X102870530Y-163398749D01*
X102870531Y-163398754D01*
X102930111Y-163569023D01*
X103017524Y-163708139D01*
X103026084Y-163721762D01*
X103153638Y-163849316D01*
X103194267Y-163874845D01*
X103299128Y-163940734D01*
X103306378Y-163945289D01*
X103421886Y-163985707D01*
X103476645Y-164004868D01*
X103476650Y-164004869D01*
X103655896Y-164025065D01*
X103655900Y-164025065D01*
X103655902Y-164025065D01*
X103679616Y-164022393D01*
X103748438Y-164034447D01*
X103799817Y-164081796D01*
X103817500Y-164145613D01*
X103817500Y-168873800D01*
X103797815Y-168940839D01*
X103745011Y-168986594D01*
X103675853Y-168996538D01*
X103641095Y-168986182D01*
X103632513Y-168982180D01*
X103570496Y-168953261D01*
X103570492Y-168953260D01*
X103570488Y-168953258D01*
X103350697Y-168894366D01*
X103350693Y-168894365D01*
X103350692Y-168894365D01*
X103350691Y-168894364D01*
X103350686Y-168894364D01*
X103124002Y-168874532D01*
X103123998Y-168874532D01*
X102897313Y-168894364D01*
X102897302Y-168894366D01*
X102677511Y-168953258D01*
X102677502Y-168953261D01*
X102471267Y-169049431D01*
X102471265Y-169049432D01*
X102284858Y-169179954D01*
X102123954Y-169340858D01*
X101993432Y-169527265D01*
X101993431Y-169527267D01*
X101897261Y-169733502D01*
X101897258Y-169733511D01*
X101838366Y-169953302D01*
X101838364Y-169953313D01*
X101818532Y-170179998D01*
X101818532Y-170180001D01*
X101838364Y-170406686D01*
X101838366Y-170406697D01*
X101897258Y-170626488D01*
X101897261Y-170626497D01*
X101993431Y-170832732D01*
X101993432Y-170832734D01*
X102123954Y-171019141D01*
X102284858Y-171180045D01*
X102284861Y-171180047D01*
X102471266Y-171310568D01*
X102677504Y-171406739D01*
X102897308Y-171465635D01*
X103059230Y-171479801D01*
X103123998Y-171485468D01*
X103124000Y-171485468D01*
X103124002Y-171485468D01*
X103180673Y-171480509D01*
X103350692Y-171465635D01*
X103570496Y-171406739D01*
X103641098Y-171373816D01*
X103710171Y-171363325D01*
X103773956Y-171391844D01*
X103812196Y-171450320D01*
X103817500Y-171486199D01*
X103817500Y-173282130D01*
X103817499Y-173282148D01*
X103817499Y-173447854D01*
X103817498Y-173447854D01*
X103858423Y-173600585D01*
X103870004Y-173620643D01*
X103870005Y-173620646D01*
X103937475Y-173737509D01*
X103937481Y-173737517D01*
X104056349Y-173856385D01*
X104056355Y-173856390D01*
X108638083Y-178438119D01*
X108671568Y-178499442D01*
X108666584Y-178569134D01*
X108624712Y-178625067D01*
X108559248Y-178649484D01*
X108550402Y-178649800D01*
X104354173Y-178649800D01*
X104287134Y-178630115D01*
X104241379Y-178577311D01*
X104231435Y-178508153D01*
X104251574Y-178457261D01*
X104251425Y-178457175D01*
X104252010Y-178456161D01*
X104252598Y-178454676D01*
X104254133Y-178452482D01*
X104350265Y-178246326D01*
X104350269Y-178246317D01*
X104409139Y-178026610D01*
X104409141Y-178026599D01*
X104428966Y-177800002D01*
X104428966Y-177799997D01*
X104409141Y-177573400D01*
X104409139Y-177573389D01*
X104350269Y-177353682D01*
X104350264Y-177353668D01*
X104254136Y-177147521D01*
X104254132Y-177147513D01*
X104203025Y-177074526D01*
X103524000Y-177753551D01*
X103524000Y-177747339D01*
X103496741Y-177645606D01*
X103444080Y-177554394D01*
X103369606Y-177479920D01*
X103278394Y-177427259D01*
X103176661Y-177400000D01*
X103170448Y-177400000D01*
X103849472Y-176720974D01*
X103776478Y-176669863D01*
X103570331Y-176573735D01*
X103570317Y-176573730D01*
X103350610Y-176514860D01*
X103350599Y-176514858D01*
X103124002Y-176495034D01*
X103123998Y-176495034D01*
X102897400Y-176514858D01*
X102897389Y-176514860D01*
X102677682Y-176573730D01*
X102677673Y-176573734D01*
X102471516Y-176669866D01*
X102471512Y-176669868D01*
X102398526Y-176720973D01*
X102398526Y-176720974D01*
X103077553Y-177400000D01*
X103071339Y-177400000D01*
X102969606Y-177427259D01*
X102878394Y-177479920D01*
X102803920Y-177554394D01*
X102751259Y-177645606D01*
X102724000Y-177747339D01*
X102724000Y-177753552D01*
X102044974Y-177074526D01*
X102044973Y-177074526D01*
X101993868Y-177147512D01*
X101993866Y-177147516D01*
X101897734Y-177353673D01*
X101897730Y-177353682D01*
X101838860Y-177573389D01*
X101838858Y-177573400D01*
X101819034Y-177799997D01*
X101819034Y-177800002D01*
X101838858Y-178026599D01*
X101838860Y-178026610D01*
X101897730Y-178246317D01*
X101897734Y-178246326D01*
X101993866Y-178452482D01*
X101995402Y-178454676D01*
X101995780Y-178455799D01*
X101996575Y-178457175D01*
X101996298Y-178457334D01*
X102017729Y-178520882D01*
X102000719Y-178588650D01*
X101949771Y-178636463D01*
X101893827Y-178649800D01*
X101174557Y-178649800D01*
X101016443Y-178649800D01*
X100863715Y-178690723D01*
X100863714Y-178690723D01*
X100863712Y-178690724D01*
X100863709Y-178690725D01*
X100822360Y-178714599D01*
X100822358Y-178714600D01*
X100726790Y-178769775D01*
X100726782Y-178769781D01*
X100614978Y-178881586D01*
X97753072Y-181743491D01*
X97691749Y-181776976D01*
X97622057Y-181771992D01*
X97566124Y-181730120D01*
X97545186Y-181686253D01*
X97509811Y-181546559D01*
X97419002Y-181339535D01*
X97407714Y-181322258D01*
X97295357Y-181150283D01*
X97295349Y-181150272D01*
X97142249Y-180983963D01*
X97142248Y-180983962D01*
X97142246Y-180983960D01*
X96963849Y-180845107D01*
X96867869Y-180793165D01*
X96765032Y-180737512D01*
X96765027Y-180737510D01*
X96551217Y-180664109D01*
X96364752Y-180632994D01*
X96328233Y-180626900D01*
X96102167Y-180626900D01*
X96065648Y-180632994D01*
X95879182Y-180664109D01*
X95665372Y-180737510D01*
X95665367Y-180737512D01*
X95466552Y-180845106D01*
X95288155Y-180983959D01*
X95288150Y-180983963D01*
X95135050Y-181150272D01*
X95135042Y-181150283D01*
X95049008Y-181281968D01*
X94995862Y-181327325D01*
X94926630Y-181336748D01*
X94863295Y-181307246D01*
X94841392Y-181281968D01*
X94755357Y-181150283D01*
X94755349Y-181150272D01*
X94602249Y-180983963D01*
X94602248Y-180983962D01*
X94602246Y-180983960D01*
X94423849Y-180845107D01*
X94327869Y-180793165D01*
X94225032Y-180737512D01*
X94225027Y-180737510D01*
X94011217Y-180664109D01*
X93824752Y-180632994D01*
X93788233Y-180626900D01*
X93562167Y-180626900D01*
X93525648Y-180632994D01*
X93339182Y-180664109D01*
X93125372Y-180737510D01*
X93125367Y-180737512D01*
X92926552Y-180845106D01*
X92748155Y-180983959D01*
X92748150Y-180983963D01*
X92595050Y-181150272D01*
X92595042Y-181150283D01*
X92509008Y-181281968D01*
X92455862Y-181327325D01*
X92386630Y-181336748D01*
X92323295Y-181307246D01*
X92301392Y-181281968D01*
X92215357Y-181150283D01*
X92215349Y-181150272D01*
X92062249Y-180983963D01*
X92062248Y-180983962D01*
X92062246Y-180983960D01*
X91883849Y-180845107D01*
X91787869Y-180793165D01*
X91685032Y-180737512D01*
X91685027Y-180737510D01*
X91471217Y-180664109D01*
X91284752Y-180632994D01*
X91248233Y-180626900D01*
X91022167Y-180626900D01*
X90985648Y-180632994D01*
X90799182Y-180664109D01*
X90585372Y-180737510D01*
X90585367Y-180737512D01*
X90386553Y-180845105D01*
X90225255Y-180970649D01*
X90160261Y-180996291D01*
X90091721Y-180982724D01*
X90061412Y-180960476D01*
X88602990Y-179502055D01*
X88602988Y-179502052D01*
X88484117Y-179383181D01*
X88484116Y-179383180D01*
X88395270Y-179331885D01*
X88347056Y-179281320D01*
X88333832Y-179212713D01*
X88359800Y-179147848D01*
X88416714Y-179107319D01*
X88457270Y-179100499D01*
X88731872Y-179100499D01*
X88791483Y-179094091D01*
X88926331Y-179043796D01*
X89041546Y-178957546D01*
X89127796Y-178842331D01*
X89178091Y-178707483D01*
X89184500Y-178647873D01*
X89184499Y-176952128D01*
X89178091Y-176892517D01*
X89159012Y-176841364D01*
X89127797Y-176757671D01*
X89127793Y-176757664D01*
X89041547Y-176642455D01*
X89041544Y-176642452D01*
X88926335Y-176556206D01*
X88926328Y-176556202D01*
X88791482Y-176505908D01*
X88791483Y-176505908D01*
X88731883Y-176499501D01*
X88731881Y-176499500D01*
X88731873Y-176499500D01*
X88731864Y-176499500D01*
X87036129Y-176499500D01*
X87036123Y-176499501D01*
X86976516Y-176505908D01*
X86841671Y-176556202D01*
X86841664Y-176556206D01*
X86726455Y-176642452D01*
X86726452Y-176642455D01*
X86640206Y-176757664D01*
X86640202Y-176757671D01*
X86589908Y-176892517D01*
X86583672Y-176950525D01*
X86583501Y-176952123D01*
X86583500Y-176952135D01*
X86583500Y-178647870D01*
X86583501Y-178647876D01*
X86589908Y-178707483D01*
X86640202Y-178842328D01*
X86640206Y-178842335D01*
X86726256Y-178957282D01*
X86750674Y-179022746D01*
X86735823Y-179091019D01*
X86686418Y-179140425D01*
X86618145Y-179155277D01*
X86552680Y-179130861D01*
X86539309Y-179119274D01*
X84999890Y-177579855D01*
X84999888Y-177579852D01*
X84881017Y-177460981D01*
X84881009Y-177460975D01*
X84764030Y-177393438D01*
X84764030Y-177393437D01*
X84764025Y-177393436D01*
X84753649Y-177387445D01*
X84744086Y-177381923D01*
X84705903Y-177371692D01*
X84591357Y-177340999D01*
X84433243Y-177340999D01*
X84425647Y-177340999D01*
X84425631Y-177341000D01*
X84309408Y-177341000D01*
X84242369Y-177321315D01*
X84196614Y-177268511D01*
X84186670Y-177199353D01*
X84197026Y-177164595D01*
X84284739Y-176976496D01*
X84343635Y-176756692D01*
X84363468Y-176530000D01*
X84362143Y-176514860D01*
X84343635Y-176303313D01*
X84343635Y-176303308D01*
X84284739Y-176083504D01*
X84188568Y-175877266D01*
X84188561Y-175877256D01*
X84187968Y-175876228D01*
X84187842Y-175875710D01*
X84186280Y-175872360D01*
X84186953Y-175872046D01*
X84171489Y-175808330D01*
X84194335Y-175742301D01*
X84249252Y-175699105D01*
X84318804Y-175692457D01*
X84336304Y-175697177D01*
X84425437Y-175728366D01*
X84425443Y-175728367D01*
X84425445Y-175728368D01*
X84425446Y-175728368D01*
X84425450Y-175728369D01*
X84604696Y-175748565D01*
X84604700Y-175748565D01*
X84604704Y-175748565D01*
X84783949Y-175728369D01*
X84783952Y-175728368D01*
X84783955Y-175728368D01*
X84954222Y-175668789D01*
X85106962Y-175572816D01*
X85214585Y-175465191D01*
X85240265Y-175445488D01*
X85278316Y-175423520D01*
X85390120Y-175311716D01*
X85390120Y-175311714D01*
X85400324Y-175301511D01*
X85400328Y-175301506D01*
X94482050Y-166219783D01*
X94543371Y-166186300D01*
X94613063Y-166191284D01*
X94668996Y-166233156D01*
X94674722Y-166241494D01*
X94711079Y-166299356D01*
X94711084Y-166299362D01*
X94838638Y-166426916D01*
X94991378Y-166522889D01*
X95085598Y-166555858D01*
X95161645Y-166582468D01*
X95161650Y-166582469D01*
X95340896Y-166602665D01*
X95340900Y-166602665D01*
X95340904Y-166602665D01*
X95520149Y-166582469D01*
X95520152Y-166582468D01*
X95520155Y-166582468D01*
X95690422Y-166522889D01*
X95843162Y-166426916D01*
X95970716Y-166299362D01*
X96066689Y-166146622D01*
X96126268Y-165976355D01*
X96127249Y-165967647D01*
X96146465Y-165797103D01*
X96146465Y-165797096D01*
X96126269Y-165617850D01*
X96126268Y-165617845D01*
X96121808Y-165605100D01*
X96066689Y-165447578D01*
X96064522Y-165444130D01*
X96018786Y-165371341D01*
X95970716Y-165294838D01*
X95843162Y-165167284D01*
X95843156Y-165167279D01*
X95785294Y-165130922D01*
X95739003Y-165078588D01*
X95728355Y-165009534D01*
X95756730Y-164945686D01*
X95763573Y-164938260D01*
X100814206Y-159887628D01*
X100814211Y-159887624D01*
X100824414Y-159877420D01*
X100824416Y-159877420D01*
X100936220Y-159765616D01*
X101015277Y-159628684D01*
X101056200Y-159475957D01*
X101056200Y-158998552D01*
X101075885Y-158931513D01*
X101128689Y-158885758D01*
X101197847Y-158875814D01*
X101261403Y-158904839D01*
G37*
%TD.AperFunction*%
%TA.AperFunction,Conductor*%
G36*
X67204842Y-175880185D02*
G01*
X67225484Y-175896819D01*
X69493039Y-178164374D01*
X69493049Y-178164385D01*
X69497379Y-178168715D01*
X69497380Y-178168716D01*
X69609184Y-178280520D01*
X69609186Y-178280521D01*
X69609190Y-178280524D01*
X69660614Y-178310213D01*
X69746116Y-178359577D01*
X69857919Y-178389534D01*
X69898842Y-178400500D01*
X69898843Y-178400500D01*
X70711500Y-178400500D01*
X70778539Y-178420185D01*
X70824294Y-178472989D01*
X70835500Y-178524500D01*
X70835500Y-179917870D01*
X70835501Y-179917876D01*
X70841908Y-179977483D01*
X70892202Y-180112328D01*
X70892206Y-180112335D01*
X70978452Y-180227544D01*
X70978455Y-180227547D01*
X71093664Y-180313793D01*
X71093671Y-180313797D01*
X71228517Y-180364091D01*
X71228516Y-180364091D01*
X71235444Y-180364835D01*
X71288127Y-180370500D01*
X72983872Y-180370499D01*
X73043483Y-180364091D01*
X73178331Y-180313796D01*
X73293546Y-180227546D01*
X73379796Y-180112331D01*
X73430091Y-179977483D01*
X73436500Y-179917873D01*
X73436499Y-178524499D01*
X73456184Y-178457461D01*
X73508987Y-178411706D01*
X73560499Y-178400500D01*
X74120609Y-178400500D01*
X74187648Y-178420185D01*
X74233403Y-178472989D01*
X74243347Y-178542147D01*
X74232991Y-178576902D01*
X74227514Y-178588650D01*
X74211261Y-178623502D01*
X74211258Y-178623511D01*
X74152366Y-178843302D01*
X74152364Y-178843313D01*
X74132532Y-179069998D01*
X74132532Y-179070001D01*
X74152364Y-179296686D01*
X74152366Y-179296697D01*
X74211258Y-179516488D01*
X74211261Y-179516497D01*
X74307431Y-179722732D01*
X74307432Y-179722734D01*
X74437954Y-179909141D01*
X74556157Y-180027344D01*
X74589642Y-180088667D01*
X74584658Y-180158359D01*
X74556157Y-180202706D01*
X74335587Y-180423277D01*
X74150186Y-180608678D01*
X74150184Y-180608680D01*
X74094755Y-180664109D01*
X74045792Y-180713072D01*
X73984469Y-180746556D01*
X73914777Y-180741572D01*
X73908309Y-180738949D01*
X73905037Y-180737514D01*
X73691217Y-180664109D01*
X73504752Y-180632994D01*
X73468233Y-180626900D01*
X73242167Y-180626900D01*
X73205648Y-180632994D01*
X73019182Y-180664109D01*
X72805372Y-180737510D01*
X72805367Y-180737512D01*
X72606552Y-180845106D01*
X72428155Y-180983958D01*
X72373386Y-181043453D01*
X72313498Y-181079443D01*
X72243660Y-181077342D01*
X72186045Y-181037817D01*
X72165975Y-181002802D01*
X72122154Y-180885313D01*
X72122150Y-180885306D01*
X72035990Y-180770212D01*
X72035987Y-180770209D01*
X71920893Y-180684049D01*
X71920886Y-180684045D01*
X71786179Y-180633803D01*
X71786172Y-180633801D01*
X71726644Y-180627400D01*
X71065200Y-180627400D01*
X71065200Y-181548748D01*
X71011281Y-181517619D01*
X70882080Y-181483000D01*
X70748320Y-181483000D01*
X70619119Y-181517619D01*
X70565200Y-181548748D01*
X70565200Y-180627400D01*
X69903755Y-180627400D01*
X69844227Y-180633801D01*
X69844220Y-180633803D01*
X69709513Y-180684045D01*
X69709511Y-180684047D01*
X69619511Y-180751421D01*
X69554047Y-180775838D01*
X69485774Y-180760987D01*
X69470889Y-180751421D01*
X69380888Y-180684047D01*
X69380886Y-180684045D01*
X69246179Y-180633803D01*
X69246172Y-180633801D01*
X69186644Y-180627400D01*
X68525200Y-180627400D01*
X68525200Y-181548748D01*
X68471281Y-181517619D01*
X68342080Y-181483000D01*
X68208320Y-181483000D01*
X68079119Y-181517619D01*
X68025200Y-181548748D01*
X68025200Y-180627400D01*
X67363755Y-180627400D01*
X67304227Y-180633801D01*
X67304220Y-180633803D01*
X67169513Y-180684045D01*
X67169506Y-180684049D01*
X67054412Y-180770209D01*
X67054409Y-180770212D01*
X66968249Y-180885306D01*
X66968246Y-180885312D01*
X66924424Y-181002803D01*
X66882552Y-181058736D01*
X66817087Y-181083153D01*
X66748815Y-181068301D01*
X66717013Y-181043452D01*
X66662249Y-180983963D01*
X66662244Y-180983958D01*
X66530397Y-180881337D01*
X66483849Y-180845107D01*
X66483846Y-180845105D01*
X66483841Y-180845102D01*
X66387871Y-180793165D01*
X66338281Y-180743946D01*
X66327117Y-180716212D01*
X66294777Y-180595516D01*
X66287243Y-180582467D01*
X66215724Y-180458590D01*
X66215718Y-180458582D01*
X66103917Y-180346781D01*
X66103909Y-180346775D01*
X65966990Y-180267726D01*
X65966986Y-180267724D01*
X65966984Y-180267723D01*
X65814257Y-180226800D01*
X65814256Y-180226800D01*
X65497749Y-180226800D01*
X65430710Y-180207115D01*
X65384955Y-180154311D01*
X65375011Y-180085153D01*
X65404036Y-180021597D01*
X65410068Y-180015119D01*
X65516045Y-179909141D01*
X65516047Y-179909139D01*
X65646568Y-179722734D01*
X65742739Y-179516496D01*
X65801635Y-179296692D01*
X65821468Y-179070000D01*
X65819175Y-179043796D01*
X65811923Y-178960900D01*
X65801635Y-178843308D01*
X65746211Y-178636463D01*
X65742741Y-178623511D01*
X65742738Y-178623502D01*
X65697046Y-178525516D01*
X65646568Y-178417266D01*
X65516047Y-178230861D01*
X65516045Y-178230858D01*
X65355141Y-178069954D01*
X65168734Y-177939432D01*
X65168728Y-177939429D01*
X65110725Y-177912382D01*
X65058285Y-177866210D01*
X65039133Y-177799017D01*
X65059348Y-177732135D01*
X65110725Y-177687618D01*
X65111062Y-177687461D01*
X65168734Y-177660568D01*
X65355139Y-177530047D01*
X65516047Y-177369139D01*
X65646568Y-177182734D01*
X65742739Y-176976496D01*
X65801635Y-176756692D01*
X65821468Y-176530000D01*
X65820143Y-176514860D01*
X65801635Y-176303313D01*
X65801635Y-176303308D01*
X65742739Y-176083504D01*
X65721008Y-176036903D01*
X65710517Y-175967828D01*
X65739036Y-175904044D01*
X65797513Y-175865804D01*
X65833391Y-175860500D01*
X67137803Y-175860500D01*
X67204842Y-175880185D01*
G37*
%TD.AperFunction*%
%TA.AperFunction,Conductor*%
G36*
X120323485Y-172375762D02*
G01*
X120379418Y-172417634D01*
X120393707Y-172442134D01*
X120411398Y-172482466D01*
X120535042Y-172671716D01*
X120535050Y-172671727D01*
X120682945Y-172832382D01*
X120688154Y-172838040D01*
X120866551Y-172976893D01*
X120876016Y-172982015D01*
X120894365Y-172991945D01*
X120943955Y-173041165D01*
X120959063Y-173109382D01*
X120934892Y-173174937D01*
X120894365Y-173210055D01*
X120866552Y-173225106D01*
X120688155Y-173363959D01*
X120688150Y-173363963D01*
X120535050Y-173530272D01*
X120535042Y-173530283D01*
X120411398Y-173719533D01*
X120320588Y-173926560D01*
X120265092Y-174145710D01*
X120246425Y-174370993D01*
X120246425Y-174371006D01*
X120265092Y-174596289D01*
X120320588Y-174815439D01*
X120411398Y-175022466D01*
X120467881Y-175108919D01*
X120535044Y-175211719D01*
X120672445Y-175360976D01*
X120703367Y-175423629D01*
X120695507Y-175493055D01*
X120651360Y-175547211D01*
X120624549Y-175561140D01*
X120509511Y-175604046D01*
X120509506Y-175604049D01*
X120394412Y-175690209D01*
X120394409Y-175690212D01*
X120308249Y-175805306D01*
X120308245Y-175805313D01*
X120258003Y-175940020D01*
X120258001Y-175940027D01*
X120251600Y-175999555D01*
X120251600Y-176661000D01*
X121172949Y-176661000D01*
X121141819Y-176714919D01*
X121107200Y-176844120D01*
X121107200Y-176977880D01*
X121141819Y-177107081D01*
X121172949Y-177161000D01*
X120251600Y-177161000D01*
X120251600Y-177822444D01*
X120258001Y-177881972D01*
X120258003Y-177881979D01*
X120308245Y-178016686D01*
X120308249Y-178016693D01*
X120394409Y-178131787D01*
X120394412Y-178131790D01*
X120509506Y-178217950D01*
X120509513Y-178217954D01*
X120644220Y-178268196D01*
X120644227Y-178268198D01*
X120703755Y-178274599D01*
X120703772Y-178274600D01*
X121428824Y-178274600D01*
X121495863Y-178294285D01*
X121541618Y-178347089D01*
X121551562Y-178416247D01*
X121522537Y-178479803D01*
X121516505Y-178486281D01*
X120224102Y-179778683D01*
X120224100Y-179778686D01*
X120158208Y-179892812D01*
X120124100Y-180020108D01*
X120124100Y-180825156D01*
X120104415Y-180892195D01*
X120051611Y-180937950D01*
X119982453Y-180947894D01*
X119923938Y-180923010D01*
X119870397Y-180881337D01*
X119823849Y-180845107D01*
X119823847Y-180845106D01*
X119823846Y-180845105D01*
X119625032Y-180737512D01*
X119625027Y-180737510D01*
X119411217Y-180664109D01*
X119224752Y-180632994D01*
X119188233Y-180626900D01*
X118962167Y-180626900D01*
X118925648Y-180632994D01*
X118739182Y-180664109D01*
X118525372Y-180737510D01*
X118525367Y-180737512D01*
X118326552Y-180845106D01*
X118148155Y-180983959D01*
X118148150Y-180983963D01*
X117995050Y-181150272D01*
X117995042Y-181150283D01*
X117909008Y-181281968D01*
X117855862Y-181327325D01*
X117786630Y-181336748D01*
X117723295Y-181307246D01*
X117701392Y-181281968D01*
X117615357Y-181150283D01*
X117615349Y-181150272D01*
X117462249Y-180983963D01*
X117462248Y-180983962D01*
X117462246Y-180983960D01*
X117283849Y-180845107D01*
X117187869Y-180793165D01*
X117085032Y-180737512D01*
X117085027Y-180737510D01*
X116871217Y-180664109D01*
X116684752Y-180632994D01*
X116648233Y-180626900D01*
X116422167Y-180626900D01*
X116385648Y-180632994D01*
X116199182Y-180664109D01*
X115985372Y-180737510D01*
X115985367Y-180737512D01*
X115786552Y-180845106D01*
X115608155Y-180983959D01*
X115608150Y-180983963D01*
X115455050Y-181150272D01*
X115455042Y-181150283D01*
X115369008Y-181281968D01*
X115315862Y-181327325D01*
X115246630Y-181336748D01*
X115183295Y-181307246D01*
X115161392Y-181281968D01*
X115075357Y-181150283D01*
X115075349Y-181150272D01*
X114922249Y-180983963D01*
X114922248Y-180983962D01*
X114922246Y-180983960D01*
X114743849Y-180845107D01*
X114647869Y-180793165D01*
X114545032Y-180737512D01*
X114545027Y-180737510D01*
X114331217Y-180664109D01*
X114144752Y-180632994D01*
X114108233Y-180626900D01*
X113882167Y-180626900D01*
X113845648Y-180632994D01*
X113659182Y-180664109D01*
X113445372Y-180737510D01*
X113445367Y-180737512D01*
X113246552Y-180845106D01*
X113068155Y-180983959D01*
X113068150Y-180983963D01*
X112915050Y-181150272D01*
X112915042Y-181150283D01*
X112829008Y-181281968D01*
X112775862Y-181327325D01*
X112706630Y-181336748D01*
X112643295Y-181307246D01*
X112621392Y-181281968D01*
X112535357Y-181150283D01*
X112535349Y-181150272D01*
X112382249Y-180983963D01*
X112382248Y-180983962D01*
X112382246Y-180983960D01*
X112203849Y-180845107D01*
X112107869Y-180793165D01*
X112005032Y-180737512D01*
X112005027Y-180737510D01*
X111791217Y-180664109D01*
X111604752Y-180632994D01*
X111568233Y-180626900D01*
X111342167Y-180626900D01*
X111305648Y-180632994D01*
X111119182Y-180664109D01*
X110905372Y-180737510D01*
X110905367Y-180737512D01*
X110706552Y-180845106D01*
X110528155Y-180983959D01*
X110528150Y-180983963D01*
X110375050Y-181150272D01*
X110375042Y-181150283D01*
X110289008Y-181281968D01*
X110235862Y-181327325D01*
X110166630Y-181336748D01*
X110103295Y-181307246D01*
X110081392Y-181281968D01*
X109995357Y-181150283D01*
X109995349Y-181150272D01*
X109842249Y-180983963D01*
X109842248Y-180983962D01*
X109842246Y-180983960D01*
X109663849Y-180845107D01*
X109567869Y-180793165D01*
X109465032Y-180737512D01*
X109465027Y-180737510D01*
X109251217Y-180664109D01*
X109064752Y-180632994D01*
X109028233Y-180626900D01*
X108802167Y-180626900D01*
X108765648Y-180632994D01*
X108579182Y-180664109D01*
X108365372Y-180737510D01*
X108365367Y-180737512D01*
X108166552Y-180845106D01*
X107988155Y-180983959D01*
X107988150Y-180983963D01*
X107835050Y-181150272D01*
X107835042Y-181150283D01*
X107749008Y-181281968D01*
X107695862Y-181327325D01*
X107626630Y-181336748D01*
X107563295Y-181307246D01*
X107541392Y-181281968D01*
X107455357Y-181150283D01*
X107455349Y-181150272D01*
X107302249Y-180983963D01*
X107302248Y-180983962D01*
X107302246Y-180983960D01*
X107123849Y-180845107D01*
X107027869Y-180793165D01*
X106925032Y-180737512D01*
X106925027Y-180737510D01*
X106711217Y-180664109D01*
X106524752Y-180632994D01*
X106488233Y-180626900D01*
X106262167Y-180626900D01*
X106225648Y-180632994D01*
X106039182Y-180664109D01*
X105825372Y-180737510D01*
X105825367Y-180737512D01*
X105626552Y-180845106D01*
X105448155Y-180983959D01*
X105448150Y-180983963D01*
X105295050Y-181150272D01*
X105295042Y-181150283D01*
X105209008Y-181281968D01*
X105155862Y-181327325D01*
X105086630Y-181336748D01*
X105023295Y-181307246D01*
X105001392Y-181281968D01*
X104915357Y-181150283D01*
X104915349Y-181150272D01*
X104762249Y-180983963D01*
X104762248Y-180983962D01*
X104762246Y-180983960D01*
X104583849Y-180845107D01*
X104487869Y-180793165D01*
X104385032Y-180737512D01*
X104385027Y-180737510D01*
X104171217Y-180664109D01*
X103984752Y-180632994D01*
X103948233Y-180626900D01*
X103722167Y-180626900D01*
X103685648Y-180632994D01*
X103499182Y-180664109D01*
X103285372Y-180737510D01*
X103285367Y-180737512D01*
X103086552Y-180845106D01*
X102908155Y-180983959D01*
X102908150Y-180983963D01*
X102755050Y-181150272D01*
X102755042Y-181150283D01*
X102669008Y-181281968D01*
X102615862Y-181327325D01*
X102546630Y-181336748D01*
X102483295Y-181307246D01*
X102461392Y-181281968D01*
X102375357Y-181150283D01*
X102375349Y-181150272D01*
X102222249Y-180983963D01*
X102222248Y-180983962D01*
X102222246Y-180983960D01*
X102043849Y-180845107D01*
X101947869Y-180793165D01*
X101845032Y-180737512D01*
X101845027Y-180737510D01*
X101631217Y-180664109D01*
X101444752Y-180632994D01*
X101408233Y-180626900D01*
X101182167Y-180626900D01*
X101145648Y-180632994D01*
X100959182Y-180664109D01*
X100813984Y-180713956D01*
X100744185Y-180717106D01*
X100683764Y-180682020D01*
X100651903Y-180619837D01*
X100658719Y-180550300D01*
X100686038Y-180508996D01*
X101307916Y-179887119D01*
X101369239Y-179853634D01*
X101395597Y-179850800D01*
X111298831Y-179850800D01*
X111298847Y-179850801D01*
X111306443Y-179850801D01*
X111464554Y-179850801D01*
X111464557Y-179850801D01*
X111617285Y-179809877D01*
X111687282Y-179769464D01*
X111754216Y-179730820D01*
X111866020Y-179619016D01*
X111866020Y-179619014D01*
X111876224Y-179608811D01*
X111876227Y-179608806D01*
X114539721Y-176945313D01*
X114601042Y-176911830D01*
X114670734Y-176916814D01*
X114726667Y-176958686D01*
X114751084Y-177024150D01*
X114751400Y-177032996D01*
X114751400Y-177313287D01*
X114731715Y-177380326D01*
X114724350Y-177390596D01*
X114722086Y-177393434D01*
X114626111Y-177546176D01*
X114566531Y-177716445D01*
X114566530Y-177716450D01*
X114546335Y-177895696D01*
X114546335Y-177895703D01*
X114566530Y-178074949D01*
X114566531Y-178074954D01*
X114626111Y-178245223D01*
X114702002Y-178366002D01*
X114722084Y-178397962D01*
X114849638Y-178525516D01*
X114876106Y-178542147D01*
X114991606Y-178614721D01*
X115002378Y-178621489D01*
X115094106Y-178653586D01*
X115172645Y-178681068D01*
X115172650Y-178681069D01*
X115351896Y-178701265D01*
X115351900Y-178701265D01*
X115351904Y-178701265D01*
X115531149Y-178681069D01*
X115531152Y-178681068D01*
X115531155Y-178681068D01*
X115701422Y-178621489D01*
X115854162Y-178525516D01*
X115981716Y-178397962D01*
X116077689Y-178245222D01*
X116137268Y-178074955D01*
X116137269Y-178074949D01*
X116157465Y-177895703D01*
X116157465Y-177895696D01*
X116137269Y-177716450D01*
X116137268Y-177716445D01*
X116103246Y-177619216D01*
X116077689Y-177546178D01*
X115981716Y-177393438D01*
X115981714Y-177393436D01*
X115981713Y-177393434D01*
X115979450Y-177390596D01*
X115978559Y-177388415D01*
X115978011Y-177387542D01*
X115978164Y-177387445D01*
X115953044Y-177325909D01*
X115952400Y-177313287D01*
X115952400Y-176695696D01*
X115972085Y-176628657D01*
X115988714Y-176608020D01*
X120192472Y-172404261D01*
X120253793Y-172370778D01*
X120323485Y-172375762D01*
G37*
%TD.AperFunction*%
%TA.AperFunction,Conductor*%
G36*
X124258363Y-131220185D02*
G01*
X124279005Y-131236819D01*
X126363181Y-133320994D01*
X126396666Y-133382317D01*
X126399500Y-133408675D01*
X126399500Y-177835900D01*
X126379815Y-177902939D01*
X126327011Y-177948694D01*
X126275500Y-177959900D01*
X125642067Y-177959900D01*
X125575028Y-177940215D01*
X125529273Y-177887411D01*
X125519283Y-177825788D01*
X125518622Y-177825753D01*
X125518784Y-177822710D01*
X125518776Y-177822656D01*
X125518799Y-177822437D01*
X125518800Y-177822427D01*
X125518800Y-177161000D01*
X124597451Y-177161000D01*
X124628581Y-177107081D01*
X124663200Y-176977880D01*
X124663200Y-176844120D01*
X124628581Y-176714919D01*
X124597451Y-176661000D01*
X125518800Y-176661000D01*
X125518800Y-175999572D01*
X125518799Y-175999555D01*
X125512398Y-175940027D01*
X125512396Y-175940020D01*
X125462154Y-175805313D01*
X125462150Y-175805306D01*
X125375990Y-175690212D01*
X125375987Y-175690209D01*
X125260893Y-175604049D01*
X125260886Y-175604045D01*
X125145851Y-175561140D01*
X125089917Y-175519269D01*
X125065500Y-175453804D01*
X125080352Y-175385531D01*
X125097949Y-175360981D01*
X125235356Y-175211719D01*
X125359002Y-175022465D01*
X125449811Y-174815441D01*
X125505307Y-174596293D01*
X125513104Y-174502199D01*
X125523975Y-174371006D01*
X125523975Y-174370993D01*
X125505307Y-174145710D01*
X125505307Y-174145707D01*
X125449811Y-173926559D01*
X125359002Y-173719535D01*
X125333617Y-173680681D01*
X125281288Y-173600585D01*
X125235356Y-173530281D01*
X125235353Y-173530278D01*
X125235349Y-173530272D01*
X125082249Y-173363963D01*
X125082248Y-173363962D01*
X125082246Y-173363960D01*
X124903849Y-173225107D01*
X124903847Y-173225106D01*
X124903846Y-173225105D01*
X124903839Y-173225100D01*
X124876036Y-173210055D01*
X124826444Y-173160837D01*
X124811335Y-173092620D01*
X124835506Y-173027064D01*
X124876036Y-172991945D01*
X124903839Y-172976899D01*
X124903842Y-172976896D01*
X124903849Y-172976893D01*
X125082246Y-172838040D01*
X125235356Y-172671719D01*
X125359002Y-172482465D01*
X125449811Y-172275441D01*
X125505307Y-172056293D01*
X125514568Y-171944523D01*
X125523975Y-171831006D01*
X125523975Y-171830993D01*
X125510907Y-171673294D01*
X125505307Y-171605707D01*
X125449811Y-171386559D01*
X125359002Y-171179535D01*
X125338187Y-171147676D01*
X125295581Y-171082462D01*
X125235356Y-170990281D01*
X125235353Y-170990278D01*
X125235349Y-170990272D01*
X125082249Y-170823963D01*
X125082248Y-170823962D01*
X125082246Y-170823960D01*
X124903849Y-170685107D01*
X124903847Y-170685106D01*
X124903846Y-170685105D01*
X124903839Y-170685100D01*
X124876036Y-170670055D01*
X124826444Y-170620837D01*
X124811335Y-170552620D01*
X124835506Y-170487064D01*
X124876036Y-170451945D01*
X124903839Y-170436899D01*
X124903842Y-170436896D01*
X124903849Y-170436893D01*
X125082246Y-170298040D01*
X125191815Y-170179017D01*
X125235349Y-170131727D01*
X125235350Y-170131725D01*
X125235356Y-170131719D01*
X125359002Y-169942465D01*
X125449811Y-169735441D01*
X125505307Y-169516293D01*
X125515646Y-169391521D01*
X125523975Y-169291006D01*
X125523975Y-169290993D01*
X125509960Y-169121856D01*
X125505307Y-169065707D01*
X125449811Y-168846559D01*
X125359002Y-168639535D01*
X125331414Y-168597309D01*
X125247561Y-168468962D01*
X125235356Y-168450281D01*
X125235353Y-168450278D01*
X125235349Y-168450272D01*
X125082249Y-168283963D01*
X125082248Y-168283962D01*
X125082246Y-168283960D01*
X124903849Y-168145107D01*
X124903847Y-168145106D01*
X124903846Y-168145105D01*
X124903839Y-168145100D01*
X124876036Y-168130055D01*
X124826444Y-168080837D01*
X124811335Y-168012620D01*
X124835506Y-167947064D01*
X124876036Y-167911945D01*
X124903839Y-167896899D01*
X124903842Y-167896896D01*
X124903849Y-167896893D01*
X125082246Y-167758040D01*
X125235356Y-167591719D01*
X125359002Y-167402465D01*
X125449811Y-167195441D01*
X125505307Y-166976293D01*
X125518549Y-166816488D01*
X125523975Y-166751006D01*
X125523975Y-166750993D01*
X125507805Y-166555858D01*
X125505307Y-166525707D01*
X125449811Y-166306559D01*
X125359002Y-166099535D01*
X125339661Y-166069932D01*
X125254024Y-165938855D01*
X125235356Y-165910281D01*
X125235353Y-165910278D01*
X125235349Y-165910272D01*
X125082249Y-165743963D01*
X125082248Y-165743962D01*
X125082246Y-165743960D01*
X124903849Y-165605107D01*
X124903847Y-165605106D01*
X124903846Y-165605105D01*
X124903839Y-165605100D01*
X124876036Y-165590055D01*
X124826444Y-165540837D01*
X124811335Y-165472620D01*
X124835506Y-165407064D01*
X124876036Y-165371945D01*
X124903839Y-165356899D01*
X124903842Y-165356896D01*
X124903849Y-165356893D01*
X125082246Y-165218040D01*
X125217320Y-165071311D01*
X125235349Y-165051727D01*
X125235351Y-165051724D01*
X125235356Y-165051719D01*
X125359002Y-164862465D01*
X125449811Y-164655441D01*
X125505307Y-164436293D01*
X125516237Y-164304383D01*
X125523975Y-164211006D01*
X125523975Y-164210993D01*
X125509346Y-164034447D01*
X125505307Y-163985707D01*
X125449811Y-163766559D01*
X125359002Y-163559535D01*
X125353973Y-163551838D01*
X125297179Y-163464908D01*
X125235356Y-163370281D01*
X125235353Y-163370278D01*
X125235349Y-163370272D01*
X125082249Y-163203963D01*
X125082244Y-163203958D01*
X124942264Y-163095007D01*
X124903849Y-163065107D01*
X124903848Y-163065106D01*
X124903845Y-163065104D01*
X124876033Y-163050053D01*
X124826443Y-163000833D01*
X124811336Y-162932616D01*
X124835507Y-162867061D01*
X124876033Y-162831945D01*
X124903849Y-162816893D01*
X125082246Y-162678040D01*
X125191815Y-162559017D01*
X125235349Y-162511727D01*
X125235350Y-162511725D01*
X125235356Y-162511719D01*
X125359002Y-162322465D01*
X125449811Y-162115441D01*
X125505307Y-161896293D01*
X125513452Y-161798000D01*
X125523975Y-161671006D01*
X125523975Y-161670993D01*
X125505491Y-161447932D01*
X125505307Y-161445707D01*
X125449811Y-161226559D01*
X125359002Y-161019535D01*
X125339859Y-160990235D01*
X125266052Y-160877265D01*
X125235356Y-160830281D01*
X125235353Y-160830278D01*
X125235349Y-160830272D01*
X125082249Y-160663963D01*
X125082248Y-160663962D01*
X125082246Y-160663960D01*
X124903849Y-160525107D01*
X124903847Y-160525106D01*
X124903846Y-160525105D01*
X124903839Y-160525100D01*
X124876036Y-160510055D01*
X124826444Y-160460837D01*
X124811335Y-160392620D01*
X124835506Y-160327064D01*
X124876036Y-160291945D01*
X124903839Y-160276899D01*
X124903842Y-160276896D01*
X124903849Y-160276893D01*
X125082246Y-160138040D01*
X125235356Y-159971719D01*
X125359002Y-159782465D01*
X125449811Y-159575441D01*
X125505307Y-159356293D01*
X125514729Y-159242583D01*
X125523975Y-159131006D01*
X125523975Y-159130993D01*
X125509915Y-158961314D01*
X125505307Y-158905707D01*
X125449811Y-158686559D01*
X125359002Y-158479535D01*
X125345051Y-158458182D01*
X125273711Y-158348988D01*
X125235356Y-158290281D01*
X125235353Y-158290278D01*
X125235349Y-158290272D01*
X125082249Y-158123963D01*
X125082248Y-158123962D01*
X125082246Y-158123960D01*
X124903849Y-157985107D01*
X124903847Y-157985106D01*
X124903846Y-157985105D01*
X124903839Y-157985100D01*
X124876036Y-157970055D01*
X124826444Y-157920837D01*
X124811335Y-157852620D01*
X124835506Y-157787064D01*
X124876036Y-157751945D01*
X124903839Y-157736899D01*
X124903842Y-157736896D01*
X124903849Y-157736893D01*
X125082246Y-157598040D01*
X125235356Y-157431719D01*
X125359002Y-157242465D01*
X125449811Y-157035441D01*
X125505307Y-156816293D01*
X125515607Y-156691990D01*
X125523975Y-156591006D01*
X125523975Y-156590993D01*
X125508369Y-156402666D01*
X125505307Y-156365707D01*
X125449811Y-156146559D01*
X125359002Y-155939535D01*
X125356551Y-155935784D01*
X125247617Y-155769048D01*
X125235356Y-155750281D01*
X125235353Y-155750278D01*
X125235349Y-155750272D01*
X125082249Y-155583963D01*
X125082244Y-155583958D01*
X124939682Y-155472997D01*
X124903849Y-155445107D01*
X124903848Y-155445106D01*
X124903845Y-155445104D01*
X124876033Y-155430053D01*
X124826443Y-155380833D01*
X124811336Y-155312616D01*
X124835507Y-155247061D01*
X124876033Y-155211945D01*
X124903849Y-155196893D01*
X125082246Y-155058040D01*
X125191815Y-154939017D01*
X125235349Y-154891727D01*
X125235350Y-154891725D01*
X125235356Y-154891719D01*
X125359002Y-154702465D01*
X125449811Y-154495441D01*
X125505307Y-154276293D01*
X125514915Y-154160337D01*
X125523975Y-154051006D01*
X125523975Y-154050993D01*
X125505307Y-153825710D01*
X125505307Y-153825707D01*
X125449811Y-153606559D01*
X125359002Y-153399535D01*
X125340792Y-153371663D01*
X125297179Y-153304908D01*
X125235356Y-153210281D01*
X125235353Y-153210278D01*
X125235349Y-153210272D01*
X125082249Y-153043963D01*
X125082248Y-153043962D01*
X125082246Y-153043960D01*
X124903849Y-152905107D01*
X124903847Y-152905106D01*
X124903846Y-152905105D01*
X124903839Y-152905100D01*
X124876036Y-152890055D01*
X124826444Y-152840837D01*
X124811335Y-152772620D01*
X124835506Y-152707064D01*
X124876036Y-152671945D01*
X124903839Y-152656899D01*
X124903842Y-152656896D01*
X124903849Y-152656893D01*
X125082246Y-152518040D01*
X125205303Y-152384365D01*
X125235349Y-152351727D01*
X125235350Y-152351725D01*
X125235356Y-152351719D01*
X125359002Y-152162465D01*
X125449811Y-151955441D01*
X125505307Y-151736293D01*
X125513871Y-151632940D01*
X125523975Y-151511006D01*
X125523975Y-151510993D01*
X125509109Y-151331593D01*
X125505307Y-151285707D01*
X125449811Y-151066559D01*
X125359002Y-150859535D01*
X125355217Y-150853742D01*
X125269146Y-150722000D01*
X125235356Y-150670281D01*
X125235353Y-150670278D01*
X125235349Y-150670272D01*
X125082249Y-150503963D01*
X125082248Y-150503962D01*
X125082246Y-150503960D01*
X124903849Y-150365107D01*
X124903847Y-150365106D01*
X124903846Y-150365105D01*
X124903839Y-150365100D01*
X124876036Y-150350055D01*
X124826444Y-150300837D01*
X124811335Y-150232620D01*
X124835506Y-150167064D01*
X124876036Y-150131945D01*
X124903839Y-150116899D01*
X124903842Y-150116896D01*
X124903849Y-150116893D01*
X125082246Y-149978040D01*
X125229142Y-149818469D01*
X125235349Y-149811727D01*
X125235353Y-149811722D01*
X125235356Y-149811719D01*
X125359002Y-149622465D01*
X125449811Y-149415441D01*
X125505307Y-149196293D01*
X125514062Y-149090639D01*
X125523975Y-148971006D01*
X125523975Y-148970993D01*
X125507250Y-148769157D01*
X125505307Y-148745707D01*
X125449811Y-148526559D01*
X125359002Y-148319535D01*
X125354510Y-148312660D01*
X125285646Y-148207256D01*
X125235356Y-148130281D01*
X125235353Y-148130278D01*
X125235349Y-148130272D01*
X125082249Y-147963963D01*
X125082248Y-147963962D01*
X125082246Y-147963960D01*
X124903849Y-147825107D01*
X124903847Y-147825106D01*
X124903846Y-147825105D01*
X124903839Y-147825100D01*
X124876036Y-147810055D01*
X124826444Y-147760837D01*
X124811335Y-147692620D01*
X124835506Y-147627064D01*
X124876036Y-147591945D01*
X124903839Y-147576899D01*
X124903842Y-147576896D01*
X124903849Y-147576893D01*
X125082246Y-147438040D01*
X125235356Y-147271719D01*
X125359002Y-147082465D01*
X125449811Y-146875441D01*
X125505307Y-146656293D01*
X125517391Y-146510462D01*
X125523975Y-146431006D01*
X125523975Y-146430993D01*
X125505307Y-146205710D01*
X125505307Y-146205707D01*
X125449811Y-145986559D01*
X125359002Y-145779535D01*
X125309976Y-145704496D01*
X125254284Y-145619252D01*
X125235356Y-145590281D01*
X125235353Y-145590278D01*
X125235349Y-145590272D01*
X125082249Y-145423963D01*
X125082244Y-145423958D01*
X124926605Y-145302819D01*
X124903849Y-145285107D01*
X124903848Y-145285106D01*
X124903845Y-145285104D01*
X124876033Y-145270053D01*
X124826443Y-145220833D01*
X124811336Y-145152616D01*
X124835507Y-145087061D01*
X124876033Y-145051945D01*
X124903849Y-145036893D01*
X125082246Y-144898040D01*
X125235356Y-144731719D01*
X125359002Y-144542465D01*
X125449811Y-144335441D01*
X125505307Y-144116293D01*
X125514777Y-144002002D01*
X125523975Y-143891006D01*
X125523975Y-143890993D01*
X125505835Y-143672076D01*
X125505307Y-143665707D01*
X125449811Y-143446559D01*
X125359002Y-143239535D01*
X125357567Y-143237339D01*
X125269395Y-143102381D01*
X125235356Y-143050281D01*
X125235353Y-143050278D01*
X125235349Y-143050272D01*
X125082249Y-142883963D01*
X125082248Y-142883962D01*
X125082246Y-142883960D01*
X124903849Y-142745107D01*
X124903847Y-142745106D01*
X124903846Y-142745105D01*
X124903839Y-142745100D01*
X124876036Y-142730055D01*
X124826444Y-142680837D01*
X124811335Y-142612620D01*
X124835506Y-142547064D01*
X124876036Y-142511945D01*
X124903839Y-142496899D01*
X124903842Y-142496896D01*
X124903849Y-142496893D01*
X125082246Y-142358040D01*
X125209343Y-142219977D01*
X125235349Y-142191727D01*
X125235350Y-142191725D01*
X125235356Y-142191719D01*
X125359002Y-142002465D01*
X125449811Y-141795441D01*
X125505307Y-141576293D01*
X125518025Y-141422812D01*
X125523975Y-141351006D01*
X125523975Y-141350993D01*
X125508012Y-141158352D01*
X125505307Y-141125707D01*
X125449811Y-140906559D01*
X125359002Y-140699535D01*
X125356557Y-140695793D01*
X125284466Y-140585449D01*
X125235356Y-140510281D01*
X125235353Y-140510278D01*
X125235349Y-140510272D01*
X125082249Y-140343963D01*
X125082248Y-140343962D01*
X125082246Y-140343960D01*
X124903849Y-140205107D01*
X124903847Y-140205106D01*
X124903846Y-140205105D01*
X124903839Y-140205100D01*
X124876036Y-140190055D01*
X124826444Y-140140837D01*
X124811335Y-140072620D01*
X124835506Y-140007064D01*
X124876036Y-139971945D01*
X124903839Y-139956899D01*
X124903842Y-139956896D01*
X124903849Y-139956893D01*
X125082246Y-139818040D01*
X125213942Y-139674981D01*
X125235349Y-139651727D01*
X125235350Y-139651725D01*
X125235356Y-139651719D01*
X125359002Y-139462465D01*
X125449811Y-139255441D01*
X125505307Y-139036293D01*
X125517424Y-138890057D01*
X125523975Y-138811006D01*
X125523975Y-138810993D01*
X125508934Y-138629482D01*
X125505307Y-138585707D01*
X125449811Y-138366559D01*
X125359002Y-138159535D01*
X125357410Y-138157099D01*
X125269153Y-138022011D01*
X125235356Y-137970281D01*
X125235353Y-137970278D01*
X125235349Y-137970272D01*
X125082249Y-137803963D01*
X125082248Y-137803962D01*
X125082246Y-137803960D01*
X124903849Y-137665107D01*
X124903847Y-137665106D01*
X124903846Y-137665105D01*
X124903839Y-137665100D01*
X124876036Y-137650055D01*
X124826444Y-137600837D01*
X124811335Y-137532620D01*
X124835506Y-137467064D01*
X124876036Y-137431945D01*
X124903839Y-137416899D01*
X124903842Y-137416896D01*
X124903849Y-137416893D01*
X125082246Y-137278040D01*
X125201975Y-137147980D01*
X125235349Y-137111727D01*
X125235353Y-137111722D01*
X125235356Y-137111719D01*
X125359002Y-136922465D01*
X125449811Y-136715441D01*
X125505307Y-136496293D01*
X125518134Y-136341493D01*
X125523975Y-136271006D01*
X125523975Y-136270993D01*
X125505307Y-136045710D01*
X125505307Y-136045707D01*
X125449811Y-135826559D01*
X125359002Y-135619535D01*
X125332635Y-135579178D01*
X125259486Y-135467215D01*
X125235356Y-135430281D01*
X125235353Y-135430278D01*
X125235349Y-135430272D01*
X125082249Y-135263963D01*
X125082248Y-135263962D01*
X125082246Y-135263960D01*
X124903849Y-135125107D01*
X124903847Y-135125106D01*
X124903846Y-135125105D01*
X124903839Y-135125100D01*
X124876036Y-135110055D01*
X124826444Y-135060837D01*
X124811335Y-134992620D01*
X124835506Y-134927064D01*
X124876036Y-134891945D01*
X124903839Y-134876899D01*
X124903845Y-134876895D01*
X124903849Y-134876893D01*
X125082246Y-134738040D01*
X125235356Y-134571719D01*
X125359002Y-134382465D01*
X125449811Y-134175441D01*
X125505307Y-133956293D01*
X125512774Y-133866175D01*
X125523975Y-133731006D01*
X125523975Y-133730993D01*
X125510907Y-133573294D01*
X125505307Y-133505707D01*
X125449811Y-133286559D01*
X125359002Y-133079535D01*
X125235356Y-132890281D01*
X125235353Y-132890278D01*
X125235349Y-132890272D01*
X125082245Y-132723959D01*
X124955496Y-132625306D01*
X124903849Y-132585107D01*
X124800363Y-132529103D01*
X124705032Y-132477512D01*
X124705027Y-132477510D01*
X124491217Y-132404109D01*
X124309588Y-132373801D01*
X124268233Y-132366900D01*
X124042167Y-132366900D01*
X124000812Y-132373801D01*
X123819182Y-132404109D01*
X123605372Y-132477510D01*
X123605367Y-132477512D01*
X123406552Y-132585106D01*
X123228155Y-132723959D01*
X123075050Y-132890272D01*
X123075042Y-132890283D01*
X122989008Y-133021968D01*
X122935862Y-133067325D01*
X122866630Y-133076748D01*
X122803295Y-133047246D01*
X122781392Y-133021968D01*
X122718119Y-132925123D01*
X122695356Y-132890281D01*
X122695353Y-132890278D01*
X122695349Y-132890272D01*
X122542245Y-132723959D01*
X122415496Y-132625306D01*
X122363849Y-132585107D01*
X122260363Y-132529103D01*
X122165032Y-132477512D01*
X122165027Y-132477510D01*
X121951217Y-132404109D01*
X121769588Y-132373801D01*
X121728233Y-132366900D01*
X121502167Y-132366900D01*
X121460812Y-132373801D01*
X121279182Y-132404109D01*
X121065372Y-132477510D01*
X121065367Y-132477512D01*
X120866552Y-132585106D01*
X120688155Y-132723959D01*
X120586609Y-132834266D01*
X120526722Y-132870257D01*
X120456884Y-132868156D01*
X120407699Y-132837964D01*
X118981916Y-131412181D01*
X118948431Y-131350858D01*
X118953415Y-131281166D01*
X118995287Y-131225233D01*
X119060751Y-131200816D01*
X119069597Y-131200500D01*
X124191324Y-131200500D01*
X124258363Y-131220185D01*
G37*
%TD.AperFunction*%
%TA.AperFunction,Conductor*%
G36*
X123681819Y-176714919D02*
G01*
X123647200Y-176844120D01*
X123647200Y-176977880D01*
X123681819Y-177107081D01*
X123712949Y-177161000D01*
X122057451Y-177161000D01*
X122088581Y-177107081D01*
X122123200Y-176977880D01*
X122123200Y-176844120D01*
X122088581Y-176714919D01*
X122057451Y-176661000D01*
X123712949Y-176661000D01*
X123681819Y-176714919D01*
G37*
%TD.AperFunction*%
%TA.AperFunction,Conductor*%
G36*
X46650000Y-167080607D02*
G01*
X46630994Y-167146579D01*
X46603411Y-167190477D01*
X46603409Y-167190481D01*
X46543833Y-167360737D01*
X46543830Y-167360750D01*
X46523635Y-167539996D01*
X46523635Y-167540003D01*
X46543830Y-167719249D01*
X46543831Y-167719254D01*
X46603411Y-167889523D01*
X46648427Y-167961165D01*
X46676471Y-168005797D01*
X46695787Y-168036537D01*
X46714787Y-168103773D01*
X46694419Y-168170609D01*
X46678474Y-168190190D01*
X46061981Y-168806683D01*
X46000658Y-168840168D01*
X45930966Y-168835184D01*
X45875033Y-168793312D01*
X45850616Y-168727848D01*
X45850300Y-168719002D01*
X45850300Y-167174000D01*
X45869985Y-167106961D01*
X45922789Y-167061206D01*
X45974300Y-167050000D01*
X46150000Y-167050000D01*
X46150000Y-166133012D01*
X46207007Y-166165925D01*
X46334174Y-166200000D01*
X46465826Y-166200000D01*
X46592993Y-166165925D01*
X46650000Y-166133012D01*
X46650000Y-167080607D01*
G37*
%TD.AperFunction*%
%TA.AperFunction,Conductor*%
G36*
X61210000Y-163128633D02*
G01*
X61423483Y-163071433D01*
X61423492Y-163071429D01*
X61637579Y-162971599D01*
X61637585Y-162971595D01*
X61723676Y-162911314D01*
X61789882Y-162888986D01*
X61857649Y-162905996D01*
X61905463Y-162956943D01*
X61918800Y-163012888D01*
X61918800Y-165122802D01*
X61899115Y-165189841D01*
X61882481Y-165210483D01*
X60462065Y-166630898D01*
X60400742Y-166664383D01*
X60388268Y-166666437D01*
X60301350Y-166676230D01*
X60131078Y-166735810D01*
X59978336Y-166831785D01*
X59949956Y-166860164D01*
X59888631Y-166893647D01*
X59818940Y-166888660D01*
X59774596Y-166860161D01*
X59440149Y-166525714D01*
X59056819Y-166142383D01*
X59023334Y-166081060D01*
X59020500Y-166054702D01*
X59020500Y-163087090D01*
X59040185Y-163020051D01*
X59092101Y-162974706D01*
X59097830Y-162972035D01*
X59291401Y-162836495D01*
X59458495Y-162669401D01*
X59588730Y-162483405D01*
X59643307Y-162439781D01*
X59712805Y-162432587D01*
X59775160Y-162464110D01*
X59791879Y-162483405D01*
X59921890Y-162669078D01*
X60088917Y-162836105D01*
X60282421Y-162971600D01*
X60496507Y-163071429D01*
X60496516Y-163071433D01*
X60710000Y-163128634D01*
X60710000Y-162231012D01*
X60767007Y-162263925D01*
X60894174Y-162298000D01*
X61025826Y-162298000D01*
X61152993Y-162263925D01*
X61210000Y-162231012D01*
X61210000Y-163128633D01*
G37*
%TD.AperFunction*%
%TA.AperFunction,Conductor*%
G36*
X42936281Y-163980729D02*
G01*
X42969766Y-164042052D01*
X42972600Y-164068410D01*
X42972600Y-164522051D01*
X42952915Y-164589090D01*
X42900111Y-164634845D01*
X42830953Y-164644789D01*
X42767397Y-164615764D01*
X42760919Y-164609732D01*
X42729142Y-164577955D01*
X42702261Y-164559133D01*
X42663289Y-164531844D01*
X42619664Y-164477269D01*
X42610884Y-164419463D01*
X42615471Y-164367024D01*
X42019409Y-163770962D01*
X42082993Y-163753925D01*
X42197007Y-163688099D01*
X42290099Y-163595007D01*
X42355925Y-163480993D01*
X42372962Y-163417410D01*
X42936281Y-163980729D01*
G37*
%TD.AperFunction*%
%TA.AperFunction,Conductor*%
G36*
X39911346Y-150076701D02*
G01*
X39967279Y-150118573D01*
X39985431Y-150153024D01*
X40081112Y-150434888D01*
X40211558Y-150699406D01*
X40211565Y-150699419D01*
X40375422Y-150944649D01*
X40404705Y-150978039D01*
X40404706Y-150978039D01*
X41192212Y-150190532D01*
X41287129Y-150321175D01*
X41415125Y-150449171D01*
X41545765Y-150544085D01*
X40758258Y-151331593D01*
X40791650Y-151360876D01*
X41036880Y-151524734D01*
X41036893Y-151524741D01*
X41301411Y-151655187D01*
X41580700Y-151749994D01*
X41580715Y-151749998D01*
X41869975Y-151807535D01*
X41869987Y-151807537D01*
X42164300Y-151826827D01*
X42458612Y-151807537D01*
X42458624Y-151807535D01*
X42747884Y-151749998D01*
X42747899Y-151749994D01*
X43027188Y-151655187D01*
X43291706Y-151524741D01*
X43291719Y-151524734D01*
X43540327Y-151358620D01*
X43541460Y-151360316D01*
X43598907Y-151337969D01*
X43667381Y-151351863D01*
X43717473Y-151400572D01*
X43733280Y-151468630D01*
X43709782Y-151534430D01*
X43697165Y-151549198D01*
X43204386Y-152041978D01*
X43092582Y-152153781D01*
X43092580Y-152153783D01*
X43092580Y-152153784D01*
X43048478Y-152230171D01*
X43048477Y-152230171D01*
X43013524Y-152290712D01*
X43013523Y-152290713D01*
X42993743Y-152364532D01*
X42972599Y-152443443D01*
X42972599Y-152443445D01*
X42972599Y-152611546D01*
X42972600Y-152611559D01*
X42972600Y-154523790D01*
X42952915Y-154590829D01*
X42900111Y-154636584D01*
X42830953Y-154646528D01*
X42767397Y-154617503D01*
X42736402Y-154576587D01*
X42665539Y-154425996D01*
X42665535Y-154425990D01*
X42496948Y-154160338D01*
X42496945Y-154160334D01*
X42296393Y-153917909D01*
X42296391Y-153917907D01*
X42293823Y-153915495D01*
X42067030Y-153702522D01*
X42067027Y-153702520D01*
X42067021Y-153702515D01*
X41812495Y-153517591D01*
X41812488Y-153517586D01*
X41812484Y-153517584D01*
X41536766Y-153366006D01*
X41536763Y-153366004D01*
X41536758Y-153366002D01*
X41536757Y-153366001D01*
X41244228Y-153250181D01*
X41244225Y-153250180D01*
X40939476Y-153171934D01*
X40939463Y-153171932D01*
X40627329Y-153132500D01*
X40627318Y-153132500D01*
X40312682Y-153132500D01*
X40312670Y-153132500D01*
X40000536Y-153171932D01*
X40000523Y-153171934D01*
X39695774Y-153250180D01*
X39695771Y-153250181D01*
X39403242Y-153366001D01*
X39403241Y-153366002D01*
X39127516Y-153517584D01*
X39127504Y-153517591D01*
X38872978Y-153702515D01*
X38872968Y-153702523D01*
X38643608Y-153917907D01*
X38643606Y-153917909D01*
X38443054Y-154160334D01*
X38443051Y-154160338D01*
X38274464Y-154425990D01*
X38274461Y-154425996D01*
X38140499Y-154710678D01*
X38140497Y-154710683D01*
X38043270Y-155009916D01*
X37984311Y-155318988D01*
X37984310Y-155318995D01*
X37964556Y-155632994D01*
X37964556Y-155633005D01*
X37984310Y-155947004D01*
X37984311Y-155947011D01*
X38006502Y-156063337D01*
X38035638Y-156216078D01*
X38043270Y-156256083D01*
X38140497Y-156555316D01*
X38140499Y-156555321D01*
X38274461Y-156840003D01*
X38274464Y-156840009D01*
X38443051Y-157105661D01*
X38443054Y-157105665D01*
X38643606Y-157348090D01*
X38643608Y-157348092D01*
X38643610Y-157348094D01*
X38851873Y-157543666D01*
X38872968Y-157563476D01*
X38872978Y-157563484D01*
X39127504Y-157748408D01*
X39127509Y-157748410D01*
X39127516Y-157748416D01*
X39403234Y-157899994D01*
X39403239Y-157899996D01*
X39403241Y-157899997D01*
X39403242Y-157899998D01*
X39695771Y-158015818D01*
X39695774Y-158015819D01*
X40000523Y-158094065D01*
X40000527Y-158094066D01*
X40025858Y-158097266D01*
X40312670Y-158133499D01*
X40312679Y-158133499D01*
X40312682Y-158133500D01*
X40312684Y-158133500D01*
X40627316Y-158133500D01*
X40627318Y-158133500D01*
X40627321Y-158133499D01*
X40627329Y-158133499D01*
X40813593Y-158109968D01*
X40939473Y-158094066D01*
X41244225Y-158015819D01*
X41244228Y-158015818D01*
X41536757Y-157899998D01*
X41536758Y-157899997D01*
X41536756Y-157899997D01*
X41536766Y-157899994D01*
X41812484Y-157748416D01*
X42067030Y-157563478D01*
X42296390Y-157348094D01*
X42496947Y-157105663D01*
X42665537Y-156840007D01*
X42736402Y-156689410D01*
X42782757Y-156637134D01*
X42850017Y-156618217D01*
X42916827Y-156638666D01*
X42961976Y-156691990D01*
X42972600Y-156742209D01*
X42972600Y-162507589D01*
X42952915Y-162574628D01*
X42936281Y-162595270D01*
X42372962Y-163158589D01*
X42355925Y-163095007D01*
X42290099Y-162980993D01*
X42197007Y-162887901D01*
X42082993Y-162822075D01*
X42019410Y-162805037D01*
X42615472Y-162208974D01*
X42542478Y-162157863D01*
X42336331Y-162061735D01*
X42336317Y-162061730D01*
X42116610Y-162002860D01*
X42116599Y-162002858D01*
X41890002Y-161983034D01*
X41889998Y-161983034D01*
X41663400Y-162002858D01*
X41663389Y-162002860D01*
X41443682Y-162061730D01*
X41443673Y-162061734D01*
X41237516Y-162157866D01*
X41237512Y-162157868D01*
X41164526Y-162208973D01*
X41164526Y-162208974D01*
X41760590Y-162805037D01*
X41697007Y-162822075D01*
X41582993Y-162887901D01*
X41489901Y-162980993D01*
X41424075Y-163095007D01*
X41407037Y-163158590D01*
X40810974Y-162562526D01*
X40810973Y-162562526D01*
X40759868Y-162635512D01*
X40759866Y-162635516D01*
X40663734Y-162841673D01*
X40663730Y-162841682D01*
X40604860Y-163061389D01*
X40604858Y-163061399D01*
X40598334Y-163135971D01*
X40572881Y-163201040D01*
X40516290Y-163242018D01*
X40446528Y-163245896D01*
X40422401Y-163237545D01*
X40356326Y-163206734D01*
X40356317Y-163206730D01*
X40136610Y-163147860D01*
X40136599Y-163147858D01*
X39910002Y-163128034D01*
X39909998Y-163128034D01*
X39683400Y-163147858D01*
X39683389Y-163147860D01*
X39463682Y-163206730D01*
X39463677Y-163206732D01*
X39398079Y-163237321D01*
X39329001Y-163247812D01*
X39265218Y-163219292D01*
X39226979Y-163160815D01*
X39222147Y-163135745D01*
X39215635Y-163061308D01*
X39156739Y-162841504D01*
X39060568Y-162635266D01*
X38948931Y-162475830D01*
X38930045Y-162448858D01*
X38769141Y-162287954D01*
X38582734Y-162157432D01*
X38582732Y-162157431D01*
X38376497Y-162061261D01*
X38376488Y-162061258D01*
X38156697Y-162002366D01*
X38156693Y-162002365D01*
X38156692Y-162002365D01*
X38156691Y-162002364D01*
X38156686Y-162002364D01*
X37930002Y-161982532D01*
X37929998Y-161982532D01*
X37703313Y-162002364D01*
X37703302Y-162002366D01*
X37581293Y-162035058D01*
X37511443Y-162033395D01*
X37453581Y-161994232D01*
X37426077Y-161930003D01*
X37425200Y-161915283D01*
X37425200Y-152511696D01*
X37444885Y-152444657D01*
X37461514Y-152424020D01*
X39780333Y-150105200D01*
X39841654Y-150071717D01*
X39911346Y-150076701D01*
G37*
%TD.AperFunction*%
%TA.AperFunction,Conductor*%
G36*
X99555500Y-158102433D02*
G01*
X99699107Y-158063956D01*
X99768957Y-158065619D01*
X99826819Y-158104782D01*
X99854323Y-158169010D01*
X99855200Y-158183731D01*
X99855200Y-159096802D01*
X99835515Y-159163841D01*
X99818881Y-159184483D01*
X98967581Y-160035783D01*
X98906258Y-160069268D01*
X98836566Y-160064284D01*
X98780633Y-160022412D01*
X98756216Y-159956948D01*
X98755900Y-159948102D01*
X98755900Y-158183758D01*
X98775585Y-158116719D01*
X98828389Y-158070964D01*
X98897547Y-158061020D01*
X98911993Y-158063983D01*
X99055500Y-158102434D01*
X99055500Y-157204812D01*
X99112507Y-157237725D01*
X99239674Y-157271800D01*
X99371326Y-157271800D01*
X99498493Y-157237725D01*
X99555500Y-157204812D01*
X99555500Y-158102433D01*
G37*
%TD.AperFunction*%
%TA.AperFunction,Conductor*%
G36*
X113588803Y-149531295D02*
G01*
X113626577Y-149590073D01*
X113628397Y-149597056D01*
X113688011Y-149767423D01*
X113736358Y-149844366D01*
X113778514Y-149911457D01*
X113783985Y-149920163D01*
X113786245Y-149922997D01*
X113787134Y-149925175D01*
X113787689Y-149926058D01*
X113787534Y-149926155D01*
X113812655Y-149987683D01*
X113813300Y-150000312D01*
X113813300Y-150950530D01*
X113813299Y-150950548D01*
X113813299Y-151116254D01*
X113813298Y-151116254D01*
X113813879Y-151118421D01*
X113854223Y-151268985D01*
X113856707Y-151273287D01*
X113870033Y-151296370D01*
X113870034Y-151296371D01*
X113933275Y-151405909D01*
X113933281Y-151405917D01*
X114052149Y-151524785D01*
X114052155Y-151524790D01*
X120586371Y-158059006D01*
X120619856Y-158120329D01*
X120614872Y-158190021D01*
X120589920Y-158230670D01*
X120535045Y-158290279D01*
X120535042Y-158290283D01*
X120411398Y-158479533D01*
X120320588Y-158686560D01*
X120265092Y-158905710D01*
X120246425Y-159130993D01*
X120246425Y-159131006D01*
X120265092Y-159356289D01*
X120320588Y-159575439D01*
X120389652Y-159732890D01*
X120398555Y-159802190D01*
X120368577Y-159865303D01*
X120309238Y-159902189D01*
X120276096Y-159906700D01*
X118071698Y-159906700D01*
X118004659Y-159887015D01*
X117984017Y-159870381D01*
X116531946Y-158418311D01*
X116498461Y-158356988D01*
X116496407Y-158344513D01*
X116494255Y-158325416D01*
X116483683Y-158231583D01*
X116475669Y-158160450D01*
X116475668Y-158160445D01*
X116469611Y-158143136D01*
X116416089Y-157990178D01*
X116412903Y-157985108D01*
X116359424Y-157899997D01*
X116320116Y-157837438D01*
X116192562Y-157709884D01*
X116039819Y-157613909D01*
X115955451Y-157584387D01*
X115898675Y-157543666D01*
X115872928Y-157478713D01*
X115886384Y-157410151D01*
X115934772Y-157359748D01*
X115955450Y-157350304D01*
X116123822Y-157291389D01*
X116276562Y-157195416D01*
X116404116Y-157067862D01*
X116500089Y-156915122D01*
X116559668Y-156744855D01*
X116562254Y-156721903D01*
X116579865Y-156565603D01*
X116579865Y-156565596D01*
X116559669Y-156386350D01*
X116559668Y-156386345D01*
X116554544Y-156371701D01*
X116500089Y-156216078D01*
X116490206Y-156200350D01*
X116443382Y-156125830D01*
X116404116Y-156063338D01*
X116276562Y-155935784D01*
X116241774Y-155913925D01*
X116123823Y-155839811D01*
X116121870Y-155838871D01*
X116120825Y-155837927D01*
X116117926Y-155836106D01*
X116118245Y-155835598D01*
X116070009Y-155792050D01*
X116052448Y-155741030D01*
X116050568Y-155724345D01*
X115990989Y-155554078D01*
X115986136Y-155546355D01*
X115949985Y-155488820D01*
X115895016Y-155401338D01*
X115767462Y-155273784D01*
X115706379Y-155235403D01*
X115614723Y-155177811D01*
X115444454Y-155118231D01*
X115444449Y-155118230D01*
X115265204Y-155098035D01*
X115265196Y-155098035D01*
X115085950Y-155118230D01*
X115085945Y-155118231D01*
X114915676Y-155177811D01*
X114762937Y-155273784D01*
X114635384Y-155401337D01*
X114539411Y-155554076D01*
X114479831Y-155724345D01*
X114479830Y-155724350D01*
X114459635Y-155903596D01*
X114459635Y-155903602D01*
X114480612Y-156089776D01*
X114479939Y-156089851D01*
X114481599Y-156104566D01*
X114481599Y-156175746D01*
X114481600Y-156175759D01*
X114481600Y-158281949D01*
X114461915Y-158348988D01*
X114409111Y-158394743D01*
X114339953Y-158404687D01*
X114316646Y-158398991D01*
X114234457Y-158370232D01*
X114234449Y-158370230D01*
X114055204Y-158350035D01*
X114055196Y-158350035D01*
X113875950Y-158370230D01*
X113875945Y-158370231D01*
X113705676Y-158429811D01*
X113573572Y-158512818D01*
X113506335Y-158531818D01*
X113439500Y-158511450D01*
X113394286Y-158458182D01*
X113383600Y-158407824D01*
X113383600Y-149625008D01*
X113403285Y-149557969D01*
X113456089Y-149512214D01*
X113525247Y-149502270D01*
X113588803Y-149531295D01*
G37*
%TD.AperFunction*%
%TA.AperFunction,Conductor*%
G36*
X106291842Y-139624585D02*
G01*
X106312484Y-139641219D01*
X112103568Y-145432304D01*
X112137053Y-145493627D01*
X112132069Y-145563319D01*
X112090197Y-145619252D01*
X112077892Y-145627369D01*
X112074590Y-145629275D01*
X112074582Y-145629281D01*
X109838981Y-147864882D01*
X109838977Y-147864887D01*
X109803328Y-147926635D01*
X109794986Y-147941084D01*
X109759923Y-148001815D01*
X109718999Y-148154543D01*
X109718999Y-148154545D01*
X109718999Y-148322646D01*
X109719000Y-148322659D01*
X109719000Y-152253802D01*
X109699315Y-152320841D01*
X109682681Y-152341483D01*
X103063080Y-158961083D01*
X103001757Y-158994568D01*
X102932065Y-158989584D01*
X102876132Y-158947712D01*
X102851715Y-158882248D01*
X102852179Y-158859518D01*
X102867865Y-158720302D01*
X102867865Y-158720296D01*
X102847669Y-158541050D01*
X102847668Y-158541045D01*
X102825648Y-158478116D01*
X102788089Y-158370778D01*
X102787745Y-158370231D01*
X102717073Y-158257757D01*
X102692116Y-158218038D01*
X102566638Y-158092560D01*
X102533153Y-158031237D01*
X102538137Y-157961545D01*
X102580009Y-157905612D01*
X102583196Y-157903304D01*
X102716579Y-157809908D01*
X102883605Y-157642882D01*
X103019100Y-157449378D01*
X103118929Y-157235292D01*
X103118932Y-157235286D01*
X103176136Y-157021800D01*
X102278512Y-157021800D01*
X102311425Y-156964793D01*
X102345500Y-156837626D01*
X102345500Y-156705974D01*
X102311425Y-156578807D01*
X102278512Y-156521800D01*
X103176136Y-156521800D01*
X103176135Y-156521799D01*
X103124224Y-156328063D01*
X103125887Y-156258213D01*
X103165049Y-156200350D01*
X103229278Y-156172846D01*
X103284954Y-156178927D01*
X103301645Y-156184768D01*
X103301648Y-156184768D01*
X103301650Y-156184769D01*
X103480896Y-156204965D01*
X103480900Y-156204965D01*
X103480904Y-156204965D01*
X103660149Y-156184769D01*
X103660152Y-156184768D01*
X103660155Y-156184768D01*
X103830422Y-156125189D01*
X103983162Y-156029216D01*
X104110716Y-155901662D01*
X104206689Y-155748922D01*
X104266268Y-155578655D01*
X104268678Y-155557265D01*
X104286465Y-155399403D01*
X104286465Y-155399396D01*
X104266269Y-155220150D01*
X104266268Y-155220145D01*
X104258132Y-155196893D01*
X104206689Y-155049878D01*
X104180290Y-155007865D01*
X104164831Y-154983261D01*
X104110716Y-154897138D01*
X103983162Y-154769584D01*
X103972039Y-154762595D01*
X103830423Y-154673611D01*
X103660154Y-154614031D01*
X103660149Y-154614030D01*
X103480904Y-154593835D01*
X103480896Y-154593835D01*
X103333882Y-154610399D01*
X103265060Y-154598344D01*
X103213681Y-154550995D01*
X103195999Y-154487179D01*
X103195999Y-154215972D01*
X103215684Y-154148933D01*
X103268488Y-154103178D01*
X103306116Y-154092752D01*
X103456849Y-154075769D01*
X103456852Y-154075768D01*
X103456855Y-154075768D01*
X103627122Y-154016189D01*
X103779862Y-153920216D01*
X103907416Y-153792662D01*
X104003389Y-153639922D01*
X104062968Y-153469655D01*
X104072761Y-153382729D01*
X104099826Y-153318318D01*
X104108290Y-153308943D01*
X106288606Y-151128628D01*
X106288611Y-151128624D01*
X106298814Y-151118420D01*
X106298816Y-151118420D01*
X106410620Y-151006616D01*
X106489677Y-150869684D01*
X106520594Y-150754300D01*
X106530600Y-150716958D01*
X106530600Y-150558843D01*
X106530600Y-148867268D01*
X106546897Y-148811766D01*
X106760360Y-148811766D01*
X106773577Y-148832333D01*
X106777820Y-148853385D01*
X106793330Y-148991049D01*
X106793331Y-148991054D01*
X106852911Y-149161323D01*
X106939647Y-149299362D01*
X106948884Y-149314062D01*
X107076438Y-149441616D01*
X107139902Y-149481493D01*
X107228754Y-149537323D01*
X107229178Y-149537589D01*
X107354237Y-149581349D01*
X107399445Y-149597168D01*
X107399450Y-149597169D01*
X107578696Y-149617365D01*
X107578700Y-149617365D01*
X107578704Y-149617365D01*
X107757949Y-149597169D01*
X107757952Y-149597168D01*
X107757955Y-149597168D01*
X107928222Y-149537589D01*
X108080962Y-149441616D01*
X108208516Y-149314062D01*
X108304489Y-149161322D01*
X108364068Y-148991055D01*
X108364069Y-148991049D01*
X108384265Y-148811803D01*
X108384265Y-148811796D01*
X108364069Y-148632550D01*
X108364068Y-148632545D01*
X108346648Y-148582762D01*
X108304489Y-148462278D01*
X108304275Y-148461938D01*
X108245180Y-148367889D01*
X108208516Y-148309538D01*
X108080962Y-148181984D01*
X108061594Y-148169814D01*
X107928223Y-148086011D01*
X107757954Y-148026431D01*
X107757949Y-148026430D01*
X107578704Y-148006235D01*
X107578696Y-148006235D01*
X107399450Y-148026430D01*
X107399445Y-148026431D01*
X107229176Y-148086011D01*
X107076437Y-148181984D01*
X106948884Y-148309537D01*
X106852911Y-148462276D01*
X106793331Y-148632545D01*
X106793330Y-148632550D01*
X106777820Y-148770214D01*
X106760360Y-148811766D01*
X106546897Y-148811766D01*
X106547786Y-148808738D01*
X106532460Y-148777725D01*
X106530600Y-148756331D01*
X106530600Y-140936759D01*
X106530601Y-140936746D01*
X106530601Y-140768645D01*
X106530601Y-140768643D01*
X106489677Y-140615915D01*
X106472087Y-140585449D01*
X106451618Y-140549995D01*
X106451617Y-140549994D01*
X106417113Y-140490230D01*
X106410620Y-140478984D01*
X106298816Y-140367180D01*
X106298815Y-140367179D01*
X106294485Y-140362849D01*
X106294474Y-140362839D01*
X105760919Y-139829284D01*
X105727434Y-139767961D01*
X105726146Y-139760140D01*
X105725313Y-139756489D01*
X105725376Y-139755456D01*
X105724888Y-139751120D01*
X105725647Y-139751034D01*
X105729588Y-139686751D01*
X105770889Y-139630394D01*
X105836101Y-139605312D01*
X105846205Y-139604900D01*
X106224803Y-139604900D01*
X106291842Y-139624585D01*
G37*
%TD.AperFunction*%
%TA.AperFunction,Conductor*%
G36*
X61210000Y-156778633D02*
G01*
X61423483Y-156721433D01*
X61423492Y-156721429D01*
X61637579Y-156621599D01*
X61637585Y-156621595D01*
X61723676Y-156561314D01*
X61789882Y-156538986D01*
X61857649Y-156555996D01*
X61905463Y-156606943D01*
X61918800Y-156662888D01*
X61918800Y-158042500D01*
X61899115Y-158109539D01*
X61846311Y-158155294D01*
X61777153Y-158165238D01*
X61723677Y-158144075D01*
X61637834Y-158083967D01*
X61637830Y-158083965D01*
X61598487Y-158065619D01*
X61423663Y-157984097D01*
X61423659Y-157984096D01*
X61423655Y-157984094D01*
X61195413Y-157922938D01*
X61195403Y-157922936D01*
X60960001Y-157902341D01*
X60959999Y-157902341D01*
X60724596Y-157922936D01*
X60724586Y-157922938D01*
X60496344Y-157984094D01*
X60496337Y-157984096D01*
X60496337Y-157984097D01*
X60494175Y-157985105D01*
X60282171Y-158083964D01*
X60282169Y-158083965D01*
X60088597Y-158219505D01*
X59921505Y-158386597D01*
X59791575Y-158572158D01*
X59736998Y-158615783D01*
X59667500Y-158622977D01*
X59605145Y-158591454D01*
X59588425Y-158572158D01*
X59458494Y-158386597D01*
X59291402Y-158219506D01*
X59291395Y-158219501D01*
X59097834Y-158083967D01*
X59097830Y-158083965D01*
X59058487Y-158065619D01*
X58883663Y-157984097D01*
X58883659Y-157984096D01*
X58883655Y-157984094D01*
X58655413Y-157922938D01*
X58655403Y-157922936D01*
X58420001Y-157902341D01*
X58419999Y-157902341D01*
X58184596Y-157922936D01*
X58184586Y-157922938D01*
X57956344Y-157984094D01*
X57956337Y-157984096D01*
X57956337Y-157984097D01*
X57954175Y-157985105D01*
X57742171Y-158083964D01*
X57742169Y-158083965D01*
X57548597Y-158219505D01*
X57381505Y-158386597D01*
X57251575Y-158572158D01*
X57196998Y-158615783D01*
X57127500Y-158622977D01*
X57065145Y-158591454D01*
X57048425Y-158572158D01*
X56918494Y-158386597D01*
X56751402Y-158219506D01*
X56751395Y-158219501D01*
X56557834Y-158083967D01*
X56557830Y-158083965D01*
X56518487Y-158065619D01*
X56343663Y-157984097D01*
X56343659Y-157984096D01*
X56343655Y-157984094D01*
X56115413Y-157922938D01*
X56115403Y-157922936D01*
X55880001Y-157902341D01*
X55879999Y-157902341D01*
X55644596Y-157922936D01*
X55644586Y-157922938D01*
X55416344Y-157984094D01*
X55416330Y-157984099D01*
X55219225Y-158076011D01*
X55150148Y-158086503D01*
X55086364Y-158057983D01*
X55061512Y-158023479D01*
X55059130Y-158024856D01*
X55058800Y-158024285D01*
X55058585Y-158023850D01*
X55055244Y-158018122D01*
X55054967Y-158017645D01*
X55007213Y-157934932D01*
X55007210Y-157934927D01*
X54999074Y-157920833D01*
X54975736Y-157880406D01*
X54975734Y-157880404D01*
X54975733Y-157880402D01*
X54975721Y-157880386D01*
X54975720Y-157880384D01*
X54902798Y-157807462D01*
X54711309Y-157615956D01*
X54299089Y-157203698D01*
X54265607Y-157142374D01*
X54270594Y-157072682D01*
X54299091Y-157028342D01*
X54837092Y-156490341D01*
X54898413Y-156456858D01*
X54968105Y-156461842D01*
X55004488Y-156483044D01*
X55008593Y-156486489D01*
X55008599Y-156486495D01*
X55008605Y-156486499D01*
X55008606Y-156486500D01*
X55202165Y-156622032D01*
X55202167Y-156622033D01*
X55202170Y-156622035D01*
X55416337Y-156721903D01*
X55644592Y-156783063D01*
X55832918Y-156799539D01*
X55879999Y-156803659D01*
X55880000Y-156803659D01*
X55880001Y-156803659D01*
X55919234Y-156800226D01*
X56115408Y-156783063D01*
X56343663Y-156721903D01*
X56557830Y-156622035D01*
X56751401Y-156486495D01*
X56918495Y-156319401D01*
X57048425Y-156133842D01*
X57103002Y-156090217D01*
X57172500Y-156083023D01*
X57234855Y-156114546D01*
X57251575Y-156133842D01*
X57381500Y-156319395D01*
X57381505Y-156319401D01*
X57548599Y-156486495D01*
X57639072Y-156549845D01*
X57742165Y-156622032D01*
X57742167Y-156622033D01*
X57742170Y-156622035D01*
X57956337Y-156721903D01*
X58184592Y-156783063D01*
X58372918Y-156799539D01*
X58419999Y-156803659D01*
X58420000Y-156803659D01*
X58420001Y-156803659D01*
X58459234Y-156800226D01*
X58655408Y-156783063D01*
X58883663Y-156721903D01*
X59097830Y-156622035D01*
X59291401Y-156486495D01*
X59458495Y-156319401D01*
X59588730Y-156133405D01*
X59643307Y-156089781D01*
X59712805Y-156082587D01*
X59775160Y-156114110D01*
X59791879Y-156133405D01*
X59921890Y-156319078D01*
X60088917Y-156486105D01*
X60282421Y-156621600D01*
X60496507Y-156721429D01*
X60496516Y-156721433D01*
X60710000Y-156778634D01*
X60710000Y-155881012D01*
X60767007Y-155913925D01*
X60894174Y-155948000D01*
X61025826Y-155948000D01*
X61152993Y-155913925D01*
X61210000Y-155881012D01*
X61210000Y-156778633D01*
G37*
%TD.AperFunction*%
%TA.AperFunction,Conductor*%
G36*
X101232605Y-157975562D02*
G01*
X101377678Y-158043211D01*
X101430117Y-158089383D01*
X101449269Y-158156577D01*
X101430267Y-158221565D01*
X101336509Y-158370780D01*
X101297241Y-158483002D01*
X101256520Y-158539778D01*
X101191567Y-158565525D01*
X101123005Y-158552069D01*
X101072603Y-158503681D01*
X101056200Y-158442047D01*
X101056200Y-158087944D01*
X101075885Y-158020905D01*
X101128689Y-157975150D01*
X101197847Y-157965206D01*
X101232605Y-157975562D01*
G37*
%TD.AperFunction*%
%TA.AperFunction,Conductor*%
G36*
X101379575Y-156578807D02*
G01*
X101345500Y-156705974D01*
X101345500Y-156837626D01*
X101379575Y-156964793D01*
X101412488Y-157021800D01*
X101180200Y-157021800D01*
X101113161Y-157002115D01*
X101067406Y-156949311D01*
X101056200Y-156897800D01*
X101056200Y-156645800D01*
X101075885Y-156578761D01*
X101128689Y-156533006D01*
X101180200Y-156521800D01*
X101412488Y-156521800D01*
X101379575Y-156578807D01*
G37*
%TD.AperFunction*%
%TA.AperFunction,Conductor*%
G36*
X99798239Y-156541485D02*
G01*
X99843994Y-156594289D01*
X99855200Y-156645800D01*
X99855200Y-156897800D01*
X99835515Y-156964839D01*
X99782711Y-157010594D01*
X99739562Y-157019980D01*
X99771425Y-156964793D01*
X99805500Y-156837626D01*
X99805500Y-156705974D01*
X99771425Y-156578807D01*
X99740004Y-156524385D01*
X99798239Y-156541485D01*
G37*
%TD.AperFunction*%
%TA.AperFunction,Conductor*%
G36*
X61210000Y-155014988D02*
G01*
X61152993Y-154982075D01*
X61025826Y-154948000D01*
X60894174Y-154948000D01*
X60767007Y-154982075D01*
X60710000Y-155014988D01*
X60710000Y-153341012D01*
X60767007Y-153373925D01*
X60894174Y-153408000D01*
X61025826Y-153408000D01*
X61152993Y-153373925D01*
X61210000Y-153341012D01*
X61210000Y-155014988D01*
G37*
%TD.AperFunction*%
%TA.AperFunction,Conductor*%
G36*
X61838134Y-148252014D02*
G01*
X61894067Y-148293886D01*
X61918484Y-148359350D01*
X61918800Y-148368196D01*
X61918800Y-151693111D01*
X61899115Y-151760150D01*
X61846311Y-151805905D01*
X61777153Y-151815849D01*
X61723677Y-151794686D01*
X61637583Y-151734402D01*
X61637579Y-151734400D01*
X61423492Y-151634570D01*
X61423486Y-151634567D01*
X61210000Y-151577364D01*
X61210000Y-152474988D01*
X61152993Y-152442075D01*
X61025826Y-152408000D01*
X60894174Y-152408000D01*
X60767007Y-152442075D01*
X60710000Y-152474988D01*
X60710000Y-151577364D01*
X60709999Y-151577364D01*
X60496513Y-151634567D01*
X60496507Y-151634570D01*
X60282422Y-151734399D01*
X60282420Y-151734400D01*
X60088926Y-151869886D01*
X60088920Y-151869891D01*
X59921891Y-152036920D01*
X59921890Y-152036922D01*
X59791880Y-152222595D01*
X59737303Y-152266219D01*
X59667804Y-152273412D01*
X59605450Y-152241890D01*
X59588730Y-152222594D01*
X59458494Y-152036597D01*
X59291402Y-151869506D01*
X59291395Y-151869501D01*
X59282740Y-151863441D01*
X59215982Y-151816696D01*
X59097834Y-151733967D01*
X59097830Y-151733965D01*
X59091257Y-151730900D01*
X58883663Y-151634097D01*
X58883659Y-151634096D01*
X58883655Y-151634094D01*
X58673021Y-151577656D01*
X58613360Y-151541291D01*
X58582831Y-151478444D01*
X58591126Y-151409069D01*
X58617430Y-151370203D01*
X58717014Y-151270619D01*
X58778335Y-151237136D01*
X58848027Y-151242120D01*
X58882014Y-151261361D01*
X58884329Y-151263207D01*
X58884338Y-151263216D01*
X58975613Y-151320568D01*
X59035521Y-151358211D01*
X59037078Y-151359189D01*
X59109596Y-151384564D01*
X59207345Y-151418768D01*
X59207350Y-151418769D01*
X59386596Y-151438965D01*
X59386600Y-151438965D01*
X59386604Y-151438965D01*
X59565849Y-151418769D01*
X59565852Y-151418768D01*
X59565855Y-151418768D01*
X59736122Y-151359189D01*
X59888862Y-151263216D01*
X60016416Y-151135662D01*
X60112389Y-150982922D01*
X60171968Y-150812655D01*
X60172276Y-150809920D01*
X60192165Y-150633403D01*
X60192165Y-150633396D01*
X60171969Y-150454150D01*
X60171968Y-150454145D01*
X60154694Y-150404778D01*
X60112389Y-150283878D01*
X60016416Y-150131138D01*
X60016407Y-150131129D01*
X60014561Y-150128814D01*
X60013828Y-150127021D01*
X60012711Y-150125242D01*
X60013022Y-150125046D01*
X59988148Y-150064129D01*
X60000898Y-149995433D01*
X60023818Y-149963815D01*
X61707120Y-148280513D01*
X61768442Y-148247030D01*
X61838134Y-148252014D01*
G37*
%TD.AperFunction*%
%TA.AperFunction,Conductor*%
G36*
X43621134Y-144660514D02*
G01*
X43677067Y-144702386D01*
X43701484Y-144767850D01*
X43701800Y-144776696D01*
X43701800Y-147661285D01*
X43682115Y-147728324D01*
X43629311Y-147774079D01*
X43560153Y-147784023D01*
X43508909Y-147764387D01*
X43291719Y-147619265D01*
X43291706Y-147619258D01*
X43027188Y-147488812D01*
X42878396Y-147438303D01*
X42821242Y-147398114D01*
X42794889Y-147333404D01*
X42807704Y-147264720D01*
X42816681Y-147249760D01*
X42900962Y-147129394D01*
X42900966Y-147129388D01*
X42993401Y-146931159D01*
X42993405Y-146931150D01*
X43050010Y-146719894D01*
X43050012Y-146719884D01*
X43069075Y-146502000D01*
X43069075Y-146501999D01*
X43050012Y-146284115D01*
X43050010Y-146284105D01*
X42993405Y-146072849D01*
X42993401Y-146072840D01*
X42900967Y-145874614D01*
X42900966Y-145874612D01*
X42857424Y-145812428D01*
X42857424Y-145812427D01*
X42264602Y-146405248D01*
X42242951Y-146324447D01*
X42182391Y-146219554D01*
X42096746Y-146133909D01*
X41991853Y-146073349D01*
X41911048Y-146051696D01*
X42073926Y-145888820D01*
X42135249Y-145855335D01*
X42148936Y-145853863D01*
X42148897Y-145853562D01*
X42156954Y-145852501D01*
X42156957Y-145852501D01*
X42309685Y-145811577D01*
X42373145Y-145774938D01*
X42446616Y-145732520D01*
X42558420Y-145620716D01*
X42558420Y-145620714D01*
X42568624Y-145610511D01*
X42568627Y-145610506D01*
X43490120Y-144689014D01*
X43551442Y-144655530D01*
X43621134Y-144660514D01*
G37*
%TD.AperFunction*%
%TA.AperFunction,Conductor*%
G36*
X40553112Y-144309688D02*
G01*
X40606990Y-144354173D01*
X40624075Y-144391584D01*
X40634722Y-144431322D01*
X40634724Y-144431326D01*
X40634725Y-144431330D01*
X40670111Y-144507216D01*
X40727197Y-144629638D01*
X40733990Y-144639339D01*
X40852702Y-144808877D01*
X40852706Y-144808881D01*
X40901163Y-144857338D01*
X40934648Y-144918661D01*
X40929664Y-144988353D01*
X40901163Y-145032700D01*
X40135586Y-145798278D01*
X40023781Y-145910082D01*
X40023775Y-145910090D01*
X39984451Y-145978203D01*
X39984451Y-145978204D01*
X39979627Y-145986560D01*
X39944722Y-146047015D01*
X39944722Y-146047016D01*
X39932049Y-146094310D01*
X39899956Y-146149895D01*
X39644602Y-146405249D01*
X39622951Y-146324447D01*
X39562391Y-146219554D01*
X39476746Y-146133909D01*
X39371853Y-146073349D01*
X39291049Y-146051697D01*
X39883871Y-145458874D01*
X39821686Y-145415332D01*
X39821684Y-145415331D01*
X39713015Y-145364658D01*
X39660575Y-145318486D01*
X39641423Y-145251292D01*
X39661639Y-145184411D01*
X39713015Y-145139894D01*
X39718679Y-145137253D01*
X39821939Y-145089102D01*
X40001177Y-144963598D01*
X40155898Y-144808877D01*
X40281402Y-144629639D01*
X40373875Y-144431330D01*
X40384525Y-144391584D01*
X40420890Y-144331924D01*
X40483736Y-144301394D01*
X40553112Y-144309688D01*
G37*
%TD.AperFunction*%
%TD*%
M02*
