M48
; DRILL file {KiCad 8.0.8+dfsg-1} date 2025-07-24T05:24:13-0400
; FORMAT={-:-/ absolute / inch / decimal}
; #@! TF.CreationDate,2025-07-24T05:24:13-04:00
; #@! TF.GenerationSoftware,Kicad,Pcbnew,8.0.8+dfsg-1
; #@! TF.FileFunction,Plated,1,6,PTH
FMAT,2
INCH
; #@! TA.AperFunction,Plated,PTH,ViaDrill
T1C0.0118
; #@! TA.AperFunction,Plated,PTH,ComponentDrill
T2C0.0315
; #@! TA.AperFunction,Plated,PTH,ComponentDrill
T3C0.0350
; #@! TA.AperFunction,Plated,PTH,ComponentDrill
T4C0.0362
; #@! TA.AperFunction,Plated,PTH,ComponentDrill
T5C0.0394
; #@! TA.AperFunction,Plated,PTH,ComponentDrill
T6C0.0400
; #@! TA.AperFunction,Plated,PTH,ComponentDrill
T7C0.0902
; #@! TA.AperFunction,Plated,PTH,ComponentDrill
T8C0.0906
; #@! TA.AperFunction,Plated,PTH,ComponentDrill
T9C0.1260
%
G90
G05
T1
X1.5315Y-1.4422
X1.6145Y-1.5457
X1.6543Y-1.5461
X1.7558Y-1.6131
X1.7804Y-1.5455
X1.9291Y-1.9449
X1.9547Y-1.6359
X1.9983Y-1.701
X2.0313Y-1.6892
X2.0472Y-2.1496
X2.2918Y-1.7159
X2.4254Y-1.4543
X2.4331Y-1.5906
X2.4497Y-2.0968
X2.4763Y-1.4051
X2.504Y-1.4519
X2.5532Y-1.6571
X2.5607Y-1.2281
X2.5685Y-1.6022
X2.5909Y-1.443
X2.6108Y-1.2497
X2.6215Y-1.9842
X2.6422Y-1.5957
X2.6422Y-1.6378
X2.6422Y-1.769
X2.6438Y-1.4259
X2.6952Y-2.351
X2.6989Y-1.182
X2.7083Y-1.9973
X2.7322Y-1.4103
X2.7327Y-2.391
X2.7367Y-1.596
X2.7367Y-1.6343
X2.7798Y-1.2366
X2.8455Y-1.6098
X2.8455Y-1.5232
X2.8934Y-1.586
X2.9031Y-1.2182
X2.9047Y-1.2497
X2.9058Y-1.3409
X2.9068Y-1.2812
X2.914Y-1.4384
X2.9237Y-1.8569
X2.951Y-1.1413
X2.9523Y-1.415
X2.9568Y-1.3522
X2.9667Y-1.3841
X2.9709Y-1.4953
X2.972Y-1.2355
X3.0643Y-2.6825
X3.092Y-1.2937
X3.0946Y-1.3252
X3.0946Y-1.1139
X3.0957Y-1.2142
X3.0957Y-1.4758
X3.1033Y-1.6076
X3.1102Y-2.2835
X3.1289Y-1.4235
X3.1339Y-2.3543
X3.1372Y-1.165
X3.1375Y-1.1022
X3.1384Y-1.3732
X3.139Y-2.4171
X3.1697Y-1.3645
X3.1821Y-1.2681
X3.1887Y-1.478
X3.1914Y-1.1555
X3.193Y-1.614
X3.1958Y-1.2361
X3.1983Y-2.5183
X3.257Y-2.4461
X3.2595Y-1.851
X3.2777Y-1.5147
X3.3074Y-1.2433
X3.3166Y-1.7384
X3.3202Y-1.1665
X3.3236Y-1.104
X3.3281Y-2.2447
X3.3298Y-1.822
X3.337Y-1.4249
X3.3376Y-1.357
X3.3398Y-1.5483
X3.3433Y-1.6929
X3.351Y-1.2302
X3.3566Y-1.1596
X3.3638Y-2.1045
X3.3711Y-1.3572
X3.3821Y-1.2523
X3.3866Y-1.4059
X3.458Y-2.4709
X3.4586Y-1.857
X3.4619Y-2.5986
X3.4651Y-1.9422
X3.4656Y-1.7823
X3.4755Y-2.016
X3.4813Y-1.5246
X3.4875Y-1.6781
X3.4994Y-1.7819
X3.5049Y-1.5679
X3.5077Y-1.7025
X3.5089Y-1.415
X3.5091Y-1.27
X3.5178Y-1.1571
X3.5191Y-1.8568
X3.5375Y-1.6878
X3.5383Y-1.5344
X3.5431Y-1.9186
X3.5485Y-1.2423
X3.5513Y-2.1855
X3.5625Y-1.425
X3.5628Y-1.2955
X3.5794Y-1.1599
X3.6063Y-1.1184
X3.6063Y-1.2578
X3.6308Y-1.4977
X3.66Y-1.9951
X3.6716Y-1.8496
X3.6793Y-1.698
X3.6883Y-1.59
X3.7146Y-1.5476
X3.7251Y-1.2712
X3.7374Y-1.5259
X3.7385Y-1.6709
X3.7499Y-1.1406
X3.7644Y-1.6079
X3.7699Y-1.5607
X3.774Y-1.4289
X3.7749Y-1.1601
X3.775Y-1.2793
X3.7767Y-2.2255
X3.7773Y-1.6712
X3.8031Y-1.2053
X3.8094Y-1.0541
X3.8217Y-1.7227
X3.8294Y-1.5907
X3.8456Y-2.137
X3.8716Y-1.5406
X3.8833Y-2.4826
X3.8834Y-2.5349
X3.8924Y-1.6912
X3.9098Y-1.5701
X3.9164Y-2.1947
X3.9185Y-1.2929
X3.9239Y-1.6758
X3.9324Y-1.4902
X3.939Y-1.2293
X3.9679Y-1.4904
X3.9691Y-1.2143
X3.9692Y-1.7537
X3.9722Y-1.3014
X4.0013Y-1.212
X4.0037Y-1.2922
X4.0037Y-1.3644
X4.0055Y-1.3959
X4.0068Y-2.1209
X4.0079Y-2.4643
X4.0105Y-1.9251
X4.016Y-2.3974
X4.019Y-2.0565
X4.0193Y-2.5869
X4.044Y-1.1433
X4.0457Y-2.1598
X4.0459Y-1.545
X4.0485Y-1.2063
X4.0499Y-1.2379
X4.0509Y-1.369
X4.0509Y-1.3152
X4.053Y-2.6692
X4.0593Y-1.6301
X4.0761Y-2.0311
X4.0841Y-2.0839
X4.0851Y-2.4713
X4.1178Y-1.5244
X4.1406Y-2.2028
X4.1432Y-2.2756
X4.1481Y-2.5852
X4.1635Y-2.5343
X4.1696Y-1.3109
X4.1756Y-1.1963
X4.1803Y-2.635
X4.1856Y-1.456
X4.1878Y-2.1984
X4.196Y-2.4245
X4.2016Y-1.7779
X4.2024Y-1.5232
X4.2041Y-1.3693
X4.2059Y-1.2988
X4.2162Y-2.0073
X4.2314Y-2.7784
X4.236Y-2.4851
X4.2363Y-2.1969
X4.2439Y-1.4525
X4.2452Y-2.7003
X4.2452Y-2.3959
X4.2453Y-2.635
X4.2459Y-2.5343
X4.2459Y-2.5852
X4.2469Y-1.2031
X4.2477Y-1.302
X4.2535Y-1.7819
X4.2552Y-2.3057
X4.2863Y-1.0608
X4.3235Y-1.778
X4.3333Y-1.5313
X4.3397Y-1.8326
X4.3474Y-1.6363
X4.3556Y-1.9048
X4.3593Y-2.0688
X4.3594Y-2.2026
X4.3603Y-1.4371
X4.3675Y-2.4339
X4.3713Y-2.2705
X4.3744Y-2.6971
X4.3754Y-2.5299
X4.3758Y-2.3836
X4.3762Y-1.0625
X4.3781Y-2.6002
X4.3832Y-1.4809
X4.3836Y-1.9585
X4.3849Y-2.3335
X4.3936Y-2.2402
X4.3961Y-1.2035
X4.4072Y-1.9364
X4.4073Y-2.0834
X4.4101Y-1.3109
X4.4108Y-1.6428
X4.4179Y-2.1949
X4.4212Y-1.7801
X4.4261Y-1.9626
X4.4309Y-1.2095
X4.4596Y-1.5012
X4.5049Y-2.6144
X4.5064Y-2.5338
X4.5074Y-2.6857
X4.5076Y-1.5248
X4.5335Y-2.2523
X4.5399Y-1.8924
X4.5434Y-1.7658
X4.5582Y-1.235
X4.5637Y-1.2823
X4.5649Y-1.6411
X4.5668Y-1.4647
X4.5778Y-2.0901
X4.5822Y-1.2556
X4.5835Y-2.6357
X4.5843Y-2.252
X4.5851Y-1.0726
X4.5943Y-1.2097
X4.6008Y-2.393
X4.6026Y-2.5199
X4.6222Y-1.3587
X4.6262Y-2.3698
X4.628Y-1.2276
X4.6379Y-1.767
X4.6437Y-1.5154
X4.6517Y-2.603
X4.6609Y-2.3287
X4.6683Y-2.685
X4.6702Y-1.764
X4.6711Y-2.485
X4.6721Y-1.0727
X4.6752Y-1.6403
X4.6752Y-1.5206
X4.6837Y-2.4197
X4.6857Y-2.0412
X4.6876Y-2.6593
X4.6892Y-2.5638
X4.6927Y-2.3248
X4.6993Y-1.6607
X4.7019Y-2.2656
X4.7087Y-2.1006
X4.709Y-1.9415
X4.7107Y-2.4472
X4.7111Y-1.0768
X4.7178Y-2.5797
X4.7355Y-1.491
X4.7402Y-2.2016
X4.7463Y-1.3605
X4.7471Y-2.3446
X4.7471Y-2.6844
X4.7487Y-2.7538
X4.7499Y-2.5047
X4.7652Y-2.0998
X4.766Y-1.8681
X4.7696Y-1.2034
X4.7734Y-1.1397
X4.7735Y-1.5695
X4.7769Y-1.6388
X4.7788Y-1.7149
X4.7953Y-1.8225
X4.8121Y-1.1001
X4.8411Y-1.4647
X4.8456Y-2.2517
X4.848Y-1.6499
X4.8599Y-1.5443
X4.9053Y-2.5749
X4.9795Y-1.8945
T2
X1.952Y-1.8697
X1.952Y-2.1697
X2.552Y-1.8697
X2.552Y-2.1697
X2.8134Y-2.1461
X2.8134Y-2.2461
X2.8134Y-2.3461
X2.8134Y-2.4461
X2.8134Y-2.5461
X2.8134Y-2.6461
X2.9134Y-2.0461
X2.9134Y-2.1461
X2.9134Y-2.2461
X2.9134Y-2.3461
X2.9134Y-2.4461
X2.9134Y-2.5461
X2.9134Y-2.6461
X2.9134Y-2.7461
X3.0134Y-2.0461
X3.0134Y-2.1461
X3.0134Y-2.6461
X3.0134Y-2.7461
X3.1134Y-2.0461
X3.1134Y-2.1461
X3.1134Y-2.6461
X3.1134Y-2.7461
X3.2134Y-2.0461
X3.2134Y-2.1461
X3.2134Y-2.6461
X3.2134Y-2.7461
X3.3134Y-2.0461
X3.3134Y-2.1461
X3.3134Y-2.6461
X3.3134Y-2.7461
X3.4134Y-2.0461
X3.4134Y-2.1461
X3.4134Y-2.2461
X3.4134Y-2.3461
X3.4134Y-2.4461
X3.4134Y-2.5461
X3.4134Y-2.6461
X3.4134Y-2.7461
X3.5134Y-2.1461
X3.5134Y-2.2461
X3.5134Y-2.3461
X3.5134Y-2.4461
X3.5134Y-2.5461
X3.5134Y-2.6461
T3
X2.0591Y-1.4225
X2.0591Y-1.5205
X2.1398Y-1.4225
X2.2422Y-1.4225
X2.3229Y-1.4225
X2.3229Y-1.5205
T4
X2.0473Y-2.389
X2.0473Y-2.4922
X2.1457Y-2.389
X2.1457Y-2.4922
X2.2245Y-2.389
X2.2245Y-2.4922
X2.3229Y-2.389
X2.3229Y-2.4922
T5
X1.3398Y-1.5961
X1.3398Y-1.6961
X1.4398Y-1.5961
X1.4398Y-1.6961
X1.5749Y-2.2087
X1.5749Y-2.2989
X1.5749Y-2.389
X1.5749Y-2.4792
X1.5749Y-2.5693
X1.5882Y-1.6847
X1.6528Y-2.2538
X1.6528Y-2.3439
X1.6528Y-2.4341
X1.6528Y-2.5242
X1.6528Y-2.6144
X1.6882Y-1.6847
X1.7308Y-2.2087
X1.7308Y-2.2989
X1.7308Y-2.389
X1.7308Y-2.4792
X1.7308Y-2.5693
X1.7882Y-1.6847
X2.8441Y-1.6973
X2.8441Y-1.7973
X2.9441Y-1.6973
X2.9441Y-1.7973
X3.0441Y-1.6973
X3.0441Y-1.7973
X3.1441Y-1.6973
X3.1441Y-1.7973
X3.2441Y-1.6973
X3.2441Y-1.7973
X3.7229Y-2.3992
X3.7229Y-2.4992
X3.7229Y-2.5992
X3.7229Y-2.6992
X3.7229Y-2.7992
X3.8229Y-2.3992
X3.8229Y-2.4992
X3.8229Y-2.5992
X3.8229Y-2.6992
X3.8229Y-2.7992
T6
X2.3737Y-1.0249
X2.4737Y-1.0249
X2.5737Y-1.0249
X2.6337Y-2.9249
X2.6737Y-1.0249
X2.7337Y-2.9249
X2.7737Y-1.0249
X2.8337Y-2.9249
X2.8737Y-1.0249
X2.9337Y-2.9249
X3.0337Y-1.0249
X3.0337Y-2.9249
X3.1337Y-1.0249
X3.2337Y-1.0249
X3.2337Y-2.9249
X3.3337Y-1.0249
X3.3337Y-2.9249
X3.4337Y-1.0249
X3.4337Y-2.9249
X3.5337Y-1.0249
X3.5337Y-2.9249
X3.6337Y-1.0249
X3.6337Y-2.9249
X3.7337Y-1.0249
X3.7337Y-2.9249
X3.7387Y-1.8249
X3.7387Y-1.9249
X3.7387Y-2.0249
X3.8337Y-2.9249
X3.8387Y-1.8249
X3.8387Y-1.9249
X3.8387Y-2.0249
X3.9337Y-1.0249
X3.9337Y-2.9249
X4.0337Y-1.0249
X4.1337Y-1.0249
X4.1337Y-2.9249
X4.2337Y-1.0249
X4.2337Y-2.9249
X4.3337Y-1.0249
X4.3337Y-2.9249
X4.4337Y-1.0249
X4.4337Y-2.9249
X4.5337Y-1.0249
X4.5337Y-2.9249
X4.6337Y-1.0249
X4.6337Y-2.9249
X4.7337Y-2.9249
X4.8337Y-2.9249
X4.9337Y-1.0249
X4.9337Y-1.1249
X4.9337Y-1.2249
X4.9337Y-1.3249
X4.9337Y-1.4249
X4.9337Y-1.5249
X4.9337Y-1.6249
X4.9337Y-1.7249
X4.9337Y-1.8249
X4.9337Y-1.9249
X4.9337Y-2.0249
X4.9337Y-2.1249
X4.9337Y-2.2249
X4.9337Y-2.3249
X4.9337Y-2.4249
X4.9337Y-2.5249
X4.9337Y-2.6249
X4.9337Y-2.7249
X5.0337Y-1.0249
X5.0337Y-1.1249
X5.0337Y-1.2249
X5.0337Y-1.3249
X5.0337Y-1.4249
X5.0337Y-1.5249
X5.0337Y-1.6249
X5.0337Y-1.7249
X5.0337Y-1.8249
X5.0337Y-1.9249
X5.0337Y-2.0249
X5.0337Y-2.1249
X5.0337Y-2.2249
X5.0337Y-2.3249
X5.0337Y-2.4249
X5.0337Y-2.5249
X5.0337Y-2.6249
X5.0337Y-2.7249
T7
X1.9249Y-1.3044
X2.191Y-1.2725
X2.4571Y-1.3044
T8
X1.9264Y-2.3752
X1.9264Y-2.5989
X2.4437Y-2.3752
X2.4437Y-2.5989
T9
X1.6749Y-1.9073
X1.6749Y-2.8916
M30
