%TF.GenerationSoftware,KiCad,Pcbnew,8.0.8+dfsg-1*%
%TF.CreationDate,2025-07-24T05:24:11-04:00*%
%TF.ProjectId,VGA_SRAM_SHIELD_DB_MULTIPLEX,5647415f-5352-4414-9d5f-534849454c44,rev?*%
%TF.SameCoordinates,Original*%
%TF.FileFunction,Soldermask,Top*%
%TF.FilePolarity,Negative*%
%FSLAX46Y46*%
G04 Gerber Fmt 4.6, Leading zero omitted, Abs format (unit mm)*
G04 Created by KiCad (PCBNEW 8.0.8+dfsg-1) date 2025-07-24 05:24:11*
%MOMM*%
%LPD*%
G01*
G04 APERTURE LIST*
G04 Aperture macros list*
%AMRoundRect*
0 Rectangle with rounded corners*
0 $1 Rounding radius*
0 $2 $3 $4 $5 $6 $7 $8 $9 X,Y pos of 4 corners*
0 Add a 4 corners polygon primitive as box body*
4,1,4,$2,$3,$4,$5,$6,$7,$8,$9,$2,$3,0*
0 Add four circle primitives for the rounded corners*
1,1,$1+$1,$2,$3*
1,1,$1+$1,$4,$5*
1,1,$1+$1,$6,$7*
1,1,$1+$1,$8,$9*
0 Add four rect primitives between the rounded corners*
20,1,$1+$1,$2,$3,$4,$5,0*
20,1,$1+$1,$4,$5,$6,$7,0*
20,1,$1+$1,$6,$7,$8,$9,0*
20,1,$1+$1,$8,$9,$2,$3,0*%
G04 Aperture macros list end*
%ADD10R,1.700000X1.700000*%
%ADD11O,1.700000X1.700000*%
%ADD12R,1.500000X1.500000*%
%ADD13C,1.500000*%
%ADD14C,3.500000*%
%ADD15C,4.000000*%
%ADD16R,1.600000X1.600000*%
%ADD17C,1.600000*%
%ADD18RoundRect,0.250000X0.450000X-0.262500X0.450000X0.262500X-0.450000X0.262500X-0.450000X-0.262500X0*%
%ADD19R,1.422400X1.422400*%
%ADD20C,1.422400*%
%ADD21O,1.727200X1.727200*%
%ADD22R,1.727200X1.727200*%
%ADD23RoundRect,0.150000X-0.800000X-0.150000X0.800000X-0.150000X0.800000X0.150000X-0.800000X0.150000X0*%
%ADD24C,2.990000*%
%ADD25RoundRect,0.250000X-0.262500X-0.450000X0.262500X-0.450000X0.262500X0.450000X-0.262500X0.450000X0*%
%ADD26RoundRect,0.150000X-0.850000X-0.150000X0.850000X-0.150000X0.850000X0.150000X-0.850000X0.150000X0*%
%ADD27RoundRect,0.137500X0.137500X-0.625000X0.137500X0.625000X-0.137500X0.625000X-0.137500X-0.625000X0*%
%ADD28RoundRect,0.250000X0.475000X-0.250000X0.475000X0.250000X-0.475000X0.250000X-0.475000X-0.250000X0*%
%ADD29C,0.900000*%
%ADD30R,0.700000X1.600000*%
%ADD31R,1.200000X2.200000*%
%ADD32R,1.600000X1.400000*%
%ADD33R,1.200000X1.400000*%
G04 APERTURE END LIST*
D10*
%TO.C,J8*%
X40341200Y-42790800D03*
D11*
X42881200Y-42790800D03*
X45421200Y-42790800D03*
%TD*%
D12*
%TO.C,J1*%
X52001200Y-63300800D03*
D13*
X54501200Y-63300800D03*
X56501200Y-63300800D03*
X59001200Y-63300800D03*
X52001200Y-60680800D03*
X54501200Y-60680800D03*
X56501200Y-60680800D03*
X59001200Y-60680800D03*
D14*
X48931200Y-66010800D03*
X62071200Y-66010800D03*
X48931200Y-60330800D03*
X62071200Y-60330800D03*
%TD*%
D15*
%TO.C,J7*%
X42541200Y-48445800D03*
X42541200Y-73445800D03*
D16*
X43961200Y-65260800D03*
D17*
X43961200Y-62970800D03*
X43961200Y-60680800D03*
X43961200Y-58390800D03*
X43961200Y-56100800D03*
X41981200Y-66405800D03*
X41981200Y-64115800D03*
X41981200Y-61825800D03*
X41981200Y-59535800D03*
X41981200Y-57245800D03*
X40001200Y-65260800D03*
X40001200Y-62970800D03*
X40001200Y-60680800D03*
X40001200Y-58390800D03*
X40001200Y-56100800D03*
%TD*%
D18*
%TO.C,R3*%
X69511200Y-39500800D03*
X69511200Y-37675800D03*
%TD*%
D19*
%TO.C,U4*%
X81621200Y-54510800D03*
D20*
X79081200Y-51970800D03*
X79081200Y-54510800D03*
X76541200Y-51970800D03*
X76541200Y-54510800D03*
X74001200Y-51970800D03*
X71461200Y-54510800D03*
X74001200Y-54510800D03*
X71461200Y-57050800D03*
X74001200Y-57050800D03*
X71461200Y-59590800D03*
X74001200Y-59590800D03*
X71461200Y-62130800D03*
X74001200Y-62130800D03*
X71461200Y-64670800D03*
X74001200Y-64670800D03*
X71461200Y-67210800D03*
X74001200Y-69750800D03*
X74001200Y-67210800D03*
X76541200Y-69750800D03*
X76541200Y-67210800D03*
X79081200Y-69750800D03*
X79081200Y-67210800D03*
X81621200Y-69750800D03*
X81621200Y-67210800D03*
X84161200Y-69750800D03*
X84161200Y-67210800D03*
X86701200Y-69750800D03*
X89241200Y-67210800D03*
X86701200Y-67210800D03*
X89241200Y-64670800D03*
X86701200Y-64670800D03*
X89241200Y-62130800D03*
X86701200Y-62130800D03*
X89241200Y-59590800D03*
X86701200Y-59590800D03*
X89241200Y-57050800D03*
X86701200Y-57050800D03*
X89241200Y-54510800D03*
X86701200Y-51970800D03*
X86701200Y-54510800D03*
X84161200Y-51970800D03*
X84161200Y-54510800D03*
X81621200Y-51970800D03*
%TD*%
D21*
%TO.C,A1*%
X66896400Y-74291800D03*
X69436400Y-74291800D03*
X97503400Y-46351800D03*
X125316400Y-26031800D03*
X127856400Y-26031800D03*
X82136400Y-74291800D03*
X84676400Y-74291800D03*
X87216400Y-74291800D03*
X89756400Y-74291800D03*
X92296400Y-74291800D03*
X94836400Y-74291800D03*
X97376400Y-74291800D03*
X99916400Y-74291800D03*
X104996400Y-74291800D03*
X107536400Y-74291800D03*
X110076400Y-74291800D03*
X112616400Y-74291800D03*
X120236400Y-74291800D03*
X122776400Y-74291800D03*
X94836400Y-26031800D03*
X92296400Y-26031800D03*
X89756400Y-26031800D03*
X87216400Y-26031800D03*
X84676400Y-26031800D03*
X82136400Y-26031800D03*
X79596400Y-26031800D03*
X77056400Y-26031800D03*
X72992400Y-26031800D03*
X70452400Y-26031800D03*
X67912400Y-26031800D03*
X65372400Y-26031800D03*
X62832400Y-26031800D03*
X60292400Y-26031800D03*
X99916400Y-26031800D03*
X102456400Y-26031800D03*
X104996400Y-26031800D03*
X107536400Y-26031800D03*
X110076400Y-26031800D03*
X112616400Y-26031800D03*
X115156400Y-26031800D03*
X117696400Y-26031800D03*
X125316400Y-28571800D03*
X127856400Y-28571800D03*
X125316400Y-31111800D03*
X127856400Y-31111800D03*
X125316400Y-33651800D03*
X127856400Y-33651800D03*
X125316400Y-36191800D03*
X127856400Y-36191800D03*
X125316400Y-38731800D03*
X127856400Y-38731800D03*
X125316400Y-41271800D03*
X127856400Y-41271800D03*
X125316400Y-43811800D03*
X127856400Y-43811800D03*
X125316400Y-46351800D03*
X127856400Y-46351800D03*
X125316400Y-48891800D03*
X127856400Y-48891800D03*
X125316400Y-51431800D03*
X127856400Y-51431800D03*
X125316400Y-53971800D03*
X127856400Y-53971800D03*
X125316400Y-56511800D03*
X127856400Y-56511800D03*
X125316400Y-59051800D03*
X127856400Y-59051800D03*
X125316400Y-61591800D03*
X127856400Y-61591800D03*
X125316400Y-64131800D03*
X127856400Y-64131800D03*
X125316400Y-66671800D03*
X127856400Y-66671800D03*
X115156400Y-74291800D03*
X117696400Y-74291800D03*
D22*
X71976400Y-74291800D03*
X74516400Y-74291800D03*
X97503400Y-51431800D03*
X125316400Y-69211800D03*
X127856400Y-69211800D03*
D21*
X94963400Y-46351800D03*
X97503400Y-48891800D03*
X94963400Y-51431800D03*
X94963400Y-48891800D03*
X77056400Y-74291800D03*
%TD*%
D23*
%TO.C,U14*%
X100101200Y-58055800D03*
X100101200Y-59325800D03*
X100101200Y-60595800D03*
X100101200Y-61865800D03*
X100101200Y-63135800D03*
X100101200Y-64405800D03*
X100101200Y-65675800D03*
X100101200Y-66945800D03*
X100101200Y-68215800D03*
X100101200Y-69485800D03*
X109301200Y-69485800D03*
X109301200Y-68215800D03*
X109301200Y-66945800D03*
X109301200Y-65675800D03*
X109301200Y-64405800D03*
X109301200Y-63135800D03*
X109301200Y-61865800D03*
X109301200Y-60595800D03*
X109301200Y-59325800D03*
X109301200Y-58055800D03*
%TD*%
D17*
%TO.C,J3*%
X56951200Y-36130800D03*
X54351200Y-36130800D03*
X59001200Y-36130800D03*
X52301200Y-36130800D03*
X59001200Y-38620800D03*
X52301200Y-38620800D03*
D24*
X48891200Y-33130800D03*
X55651200Y-32320800D03*
X62411200Y-33130800D03*
%TD*%
D25*
%TO.C,R2*%
X61211200Y-42050800D03*
X63036200Y-42050800D03*
%TD*%
D16*
%TO.C,X1*%
X64821200Y-47490800D03*
D17*
X49581200Y-47490800D03*
X49581200Y-55110800D03*
X64821200Y-55110800D03*
%TD*%
D18*
%TO.C,R9*%
X65041200Y-34800800D03*
X65041200Y-32975800D03*
%TD*%
D26*
%TO.C,U28*%
X93101200Y-28320800D03*
X93101200Y-29590800D03*
X93101200Y-30860800D03*
X93101200Y-32130800D03*
X93101200Y-33400800D03*
X93101200Y-34670800D03*
X93101200Y-35940800D03*
X93101200Y-37210800D03*
X98101200Y-37210800D03*
X98101200Y-35940800D03*
X98101200Y-34670800D03*
X98101200Y-33400800D03*
X98101200Y-32130800D03*
X98101200Y-30860800D03*
X98101200Y-29590800D03*
X98101200Y-28320800D03*
%TD*%
D27*
%TO.C,U20*%
X103601200Y-54645800D03*
X104401200Y-54645800D03*
X105201200Y-54645800D03*
X106001200Y-54645800D03*
X106801200Y-54645800D03*
X107601200Y-54645800D03*
X108401200Y-54645800D03*
X109201200Y-54645800D03*
X110001200Y-54645800D03*
X110801200Y-54645800D03*
X111601200Y-54645800D03*
X112401200Y-54645800D03*
X113201200Y-54645800D03*
X114001200Y-54645800D03*
X114801200Y-54645800D03*
X115601200Y-54645800D03*
X116401200Y-54645800D03*
X117201200Y-54645800D03*
X118001200Y-54645800D03*
X118801200Y-54645800D03*
X119601200Y-54645800D03*
X120401200Y-54645800D03*
X120401200Y-43470800D03*
X119601200Y-43470800D03*
X118801200Y-43470800D03*
X118001200Y-43470800D03*
X117201200Y-43470800D03*
X116401200Y-43470800D03*
X115601200Y-43470800D03*
X114801200Y-43470800D03*
X114001200Y-43470800D03*
X113201200Y-43470800D03*
X112401200Y-43470800D03*
X111601200Y-43470800D03*
X110801200Y-43470800D03*
X110001200Y-43470800D03*
X109201200Y-43470800D03*
X108401200Y-43470800D03*
X107601200Y-43470800D03*
X106801200Y-43470800D03*
X106001200Y-43470800D03*
X105201200Y-43470800D03*
X104401200Y-43470800D03*
X103601200Y-43470800D03*
%TD*%
D18*
%TO.C,R7*%
X67326200Y-30150800D03*
X67326200Y-28325800D03*
%TD*%
D26*
%TO.C,U23*%
X72101200Y-28320800D03*
X72101200Y-29590800D03*
X72101200Y-30860800D03*
X72101200Y-32130800D03*
X72101200Y-33400800D03*
X72101200Y-34670800D03*
X72101200Y-35940800D03*
X72101200Y-37210800D03*
X77101200Y-37210800D03*
X77101200Y-35940800D03*
X77101200Y-34670800D03*
X77101200Y-33400800D03*
X77101200Y-32130800D03*
X77101200Y-30860800D03*
X77101200Y-29590800D03*
X77101200Y-28320800D03*
%TD*%
D27*
%TO.C,U19*%
X103661200Y-40288300D03*
X104461200Y-40288300D03*
X105261200Y-40288300D03*
X106061200Y-40288300D03*
X106861200Y-40288300D03*
X107661200Y-40288300D03*
X108461200Y-40288300D03*
X109261200Y-40288300D03*
X110061200Y-40288300D03*
X110861200Y-40288300D03*
X111661200Y-40288300D03*
X112461200Y-40288300D03*
X113261200Y-40288300D03*
X114061200Y-40288300D03*
X114861200Y-40288300D03*
X115661200Y-40288300D03*
X116461200Y-40288300D03*
X117261200Y-40288300D03*
X118061200Y-40288300D03*
X118861200Y-40288300D03*
X119661200Y-40288300D03*
X120461200Y-40288300D03*
X120461200Y-29113300D03*
X119661200Y-29113300D03*
X118861200Y-29113300D03*
X118061200Y-29113300D03*
X117261200Y-29113300D03*
X116461200Y-29113300D03*
X115661200Y-29113300D03*
X114861200Y-29113300D03*
X114061200Y-29113300D03*
X113261200Y-29113300D03*
X112461200Y-29113300D03*
X111661200Y-29113300D03*
X110861200Y-29113300D03*
X110061200Y-29113300D03*
X109261200Y-29113300D03*
X108461200Y-29113300D03*
X107661200Y-29113300D03*
X106861200Y-29113300D03*
X106061200Y-29113300D03*
X105261200Y-29113300D03*
X104461200Y-29113300D03*
X103661200Y-29113300D03*
%TD*%
D25*
%TO.C,R1*%
X57726200Y-42050800D03*
X59551200Y-42050800D03*
%TD*%
D26*
%TO.C,U24*%
X82601200Y-28320800D03*
X82601200Y-29590800D03*
X82601200Y-30860800D03*
X82601200Y-32130800D03*
X82601200Y-33400800D03*
X82601200Y-34670800D03*
X82601200Y-35940800D03*
X82601200Y-37210800D03*
X87601200Y-37210800D03*
X87601200Y-35940800D03*
X87601200Y-34670800D03*
X87601200Y-33400800D03*
X87601200Y-32130800D03*
X87601200Y-30860800D03*
X87601200Y-29590800D03*
X87601200Y-28320800D03*
%TD*%
D18*
%TO.C,R8*%
X65051200Y-39500800D03*
X65051200Y-37675800D03*
%TD*%
%TO.C,R10*%
X65041200Y-30150800D03*
X65041200Y-28325800D03*
%TD*%
D28*
%TO.C,C1*%
X48411200Y-43680800D03*
X48411200Y-41780800D03*
%TD*%
D25*
%TO.C,R20*%
X54216200Y-42010800D03*
X56041200Y-42010800D03*
%TD*%
D10*
%TO.C,J2*%
X94561200Y-71100800D03*
D11*
X97101200Y-71100800D03*
X94561200Y-68560800D03*
X97101200Y-68560800D03*
X94561200Y-66020800D03*
X97101200Y-66020800D03*
X94561200Y-63480800D03*
X97101200Y-63480800D03*
X94561200Y-60940800D03*
X97101200Y-60940800D03*
%TD*%
D18*
%TO.C,R4*%
X69501200Y-34800800D03*
X69501200Y-32975800D03*
%TD*%
D25*
%TO.C,R19*%
X50676200Y-42000800D03*
X52501200Y-42000800D03*
%TD*%
D10*
%TO.C,J4*%
X36571200Y-40540800D03*
D11*
X34031200Y-40540800D03*
X36571200Y-43080800D03*
X34031200Y-43080800D03*
%TD*%
D18*
%TO.C,R5*%
X67336200Y-39500800D03*
X67336200Y-37675800D03*
%TD*%
D23*
%TO.C,U15*%
X112841200Y-58055800D03*
X112841200Y-59325800D03*
X112841200Y-60595800D03*
X112841200Y-61865800D03*
X112841200Y-63135800D03*
X112841200Y-64405800D03*
X112841200Y-65675800D03*
X112841200Y-66945800D03*
X112841200Y-68215800D03*
X112841200Y-69485800D03*
X122041200Y-69485800D03*
X122041200Y-68215800D03*
X122041200Y-66945800D03*
X122041200Y-65675800D03*
X122041200Y-64405800D03*
X122041200Y-63135800D03*
X122041200Y-61865800D03*
X122041200Y-60595800D03*
X122041200Y-59325800D03*
X122041200Y-58055800D03*
%TD*%
D26*
%TO.C,U29*%
X86511200Y-38926800D03*
X86511200Y-40196800D03*
X86511200Y-41466800D03*
X86511200Y-42736800D03*
X86511200Y-44006800D03*
X86511200Y-45276800D03*
X86511200Y-46546800D03*
X86511200Y-47816800D03*
X91511200Y-47816800D03*
X91511200Y-46546800D03*
X91511200Y-45276800D03*
X91511200Y-44006800D03*
X91511200Y-42736800D03*
X91511200Y-41466800D03*
X91511200Y-40196800D03*
X91511200Y-38926800D03*
%TD*%
D29*
%TO.C,J6*%
X37001968Y-27450855D03*
X45001968Y-27450855D03*
D30*
X37801968Y-37950855D03*
X38901968Y-37950855D03*
X40001968Y-37950855D03*
X41101968Y-37950855D03*
X42201968Y-37950855D03*
X43301968Y-37950855D03*
X44401968Y-37950855D03*
X45501968Y-37950855D03*
X46601968Y-37950855D03*
D31*
X32301968Y-27850855D03*
D32*
X33201968Y-37450855D03*
D31*
X47801968Y-27850855D03*
D33*
X47801968Y-37450855D03*
%TD*%
D18*
%TO.C,R6*%
X67326200Y-34800800D03*
X67326200Y-32975800D03*
%TD*%
D10*
%TO.C,J5*%
X72241200Y-45650800D03*
D11*
X72241200Y-43110800D03*
X74781200Y-45650800D03*
X74781200Y-43110800D03*
X77321200Y-45650800D03*
X77321200Y-43110800D03*
X79861200Y-45650800D03*
X79861200Y-43110800D03*
X82401200Y-45650800D03*
X82401200Y-43110800D03*
%TD*%
M02*
