%TF.GenerationSoftware,KiCad,Pcbnew,8.0.4+dfsg-1*%
%TF.CreationDate,2024-11-13T23:12:42-05:00*%
%TF.ProjectId,VGA_SRAM_Shield,5647415f-5352-4414-9d5f-536869656c64,rev?*%
%TF.SameCoordinates,Original*%
%TF.FileFunction,Soldermask,Bot*%
%TF.FilePolarity,Negative*%
%FSLAX46Y46*%
G04 Gerber Fmt 4.6, Leading zero omitted, Abs format (unit mm)*
G04 Created by KiCad (PCBNEW 8.0.4+dfsg-1) date 2024-11-13 23:12:42*
%MOMM*%
%LPD*%
G01*
G04 APERTURE LIST*
G04 Aperture macros list*
%AMRoundRect*
0 Rectangle with rounded corners*
0 $1 Rounding radius*
0 $2 $3 $4 $5 $6 $7 $8 $9 X,Y pos of 4 corners*
0 Add a 4 corners polygon primitive as box body*
4,1,4,$2,$3,$4,$5,$6,$7,$8,$9,$2,$3,0*
0 Add four circle primitives for the rounded corners*
1,1,$1+$1,$2,$3*
1,1,$1+$1,$4,$5*
1,1,$1+$1,$6,$7*
1,1,$1+$1,$8,$9*
0 Add four rect primitives between the rounded corners*
20,1,$1+$1,$2,$3,$4,$5,0*
20,1,$1+$1,$4,$5,$6,$7,0*
20,1,$1+$1,$6,$7,$8,$9,0*
20,1,$1+$1,$8,$9,$2,$3,0*%
G04 Aperture macros list end*
%ADD10R,1.700000X1.700000*%
%ADD11O,1.700000X1.700000*%
%ADD12R,1.600000X1.500000*%
%ADD13C,1.600000*%
%ADD14C,3.000000*%
%ADD15C,4.000000*%
%ADD16R,1.600000X1.600000*%
%ADD17O,1.600000X1.600000*%
%ADD18O,1.727200X1.727200*%
%ADD19R,1.727200X1.727200*%
%ADD20RoundRect,0.250000X-0.475000X0.250000X-0.475000X-0.250000X0.475000X-0.250000X0.475000X0.250000X0*%
%ADD21RoundRect,0.150000X0.800000X0.150000X-0.800000X0.150000X-0.800000X-0.150000X0.800000X-0.150000X0*%
%ADD22RoundRect,0.150000X0.725000X0.150000X-0.725000X0.150000X-0.725000X-0.150000X0.725000X-0.150000X0*%
%ADD23RoundRect,0.250000X-0.262500X-0.450000X0.262500X-0.450000X0.262500X0.450000X-0.262500X0.450000X0*%
%ADD24RoundRect,0.250000X0.262500X0.450000X-0.262500X0.450000X-0.262500X-0.450000X0.262500X-0.450000X0*%
%ADD25RoundRect,0.249999X1.500001X-1.025001X1.500001X1.025001X-1.500001X1.025001X-1.500001X-1.025001X0*%
%ADD26RoundRect,0.137500X0.625000X0.137500X-0.625000X0.137500X-0.625000X-0.137500X0.625000X-0.137500X0*%
G04 APERTURE END LIST*
D10*
%TO.C,J2*%
X41700000Y-133625000D03*
D11*
X39160000Y-133625000D03*
X41700000Y-136165000D03*
X39160000Y-136165000D03*
%TD*%
D12*
%TO.C,J5*%
X35355000Y-174390000D03*
D13*
X37855000Y-174390000D03*
X39855000Y-174390000D03*
X42355000Y-174390000D03*
D14*
X32285000Y-177100000D03*
X45425000Y-177100000D03*
%TD*%
D15*
%TO.C,J3*%
X40040000Y-142920000D03*
X40040000Y-167920000D03*
D16*
X41460000Y-159735000D03*
D13*
X41460000Y-157445000D03*
X41460000Y-155155000D03*
X41460000Y-152865000D03*
X41460000Y-150575000D03*
X39480000Y-160880000D03*
X39480000Y-158590000D03*
X39480000Y-156300000D03*
X39480000Y-154010000D03*
X39480000Y-151720000D03*
X37500000Y-159735000D03*
X37500000Y-157445000D03*
X37500000Y-155155000D03*
X37500000Y-152865000D03*
X37500000Y-150575000D03*
%TD*%
D16*
%TO.C,X1*%
X84836000Y-176657000D03*
D13*
X100076000Y-176657000D03*
X100076000Y-169037000D03*
X84836000Y-169037000D03*
%TD*%
D16*
%TO.C,U8*%
X49885600Y-164109400D03*
D17*
X52425600Y-164109400D03*
X54965600Y-164109400D03*
X57505600Y-164109400D03*
X60045600Y-164109400D03*
X62585600Y-164109400D03*
X65125600Y-164109400D03*
X67665600Y-164109400D03*
X70205600Y-164109400D03*
X72745600Y-164109400D03*
X75285600Y-164109400D03*
X77825600Y-164109400D03*
X77825600Y-153949400D03*
X75285600Y-153949400D03*
X72745600Y-153949400D03*
X70205600Y-153949400D03*
X67665600Y-153949400D03*
X65125600Y-153949400D03*
X62585600Y-153949400D03*
X60045600Y-153949400D03*
X57505600Y-153949400D03*
X54965600Y-153949400D03*
X52425600Y-153949400D03*
X49885600Y-153949400D03*
%TD*%
D18*
%TO.C,A1*%
X54864000Y-181864000D03*
X62484000Y-181864000D03*
X65024000Y-181864000D03*
X120904000Y-133604000D03*
X123444000Y-133604000D03*
X77724000Y-181864000D03*
X80264000Y-181864000D03*
X82804000Y-181864000D03*
X85344000Y-181864000D03*
X87884000Y-181864000D03*
X90424000Y-181864000D03*
X92964000Y-181864000D03*
X95504000Y-181864000D03*
X100584000Y-181864000D03*
X103124000Y-181864000D03*
X105664000Y-181864000D03*
X108204000Y-181864000D03*
X50800000Y-133604000D03*
X115824000Y-181864000D03*
X118364000Y-181864000D03*
X90424000Y-133604000D03*
X87884000Y-133604000D03*
X85344000Y-133604000D03*
X82804000Y-133604000D03*
X80264000Y-133604000D03*
X77724000Y-133604000D03*
X75184000Y-133604000D03*
X72644000Y-133604000D03*
X68580000Y-133604000D03*
X66040000Y-133604000D03*
X63500000Y-133604000D03*
X60960000Y-133604000D03*
X58420000Y-133604000D03*
X55880000Y-133604000D03*
X95504000Y-133604000D03*
X98044000Y-133604000D03*
X100584000Y-133604000D03*
X103124000Y-133604000D03*
X105664000Y-133604000D03*
X108204000Y-133604000D03*
X110744000Y-133604000D03*
X113284000Y-133604000D03*
X120904000Y-136144000D03*
X123444000Y-136144000D03*
X120904000Y-138684000D03*
X123444000Y-138684000D03*
X120904000Y-141224000D03*
X123444000Y-141224000D03*
X120904000Y-143764000D03*
X123444000Y-143764000D03*
X120904000Y-146304000D03*
X123444000Y-146304000D03*
X120904000Y-148844000D03*
X123444000Y-148844000D03*
X120904000Y-151384000D03*
X123444000Y-151384000D03*
X120904000Y-153924000D03*
X123444000Y-153924000D03*
X120904000Y-156464000D03*
X123444000Y-156464000D03*
X120904000Y-159004000D03*
X123444000Y-159004000D03*
X120904000Y-161544000D03*
X123444000Y-161544000D03*
X120904000Y-164084000D03*
X123444000Y-164084000D03*
X120904000Y-166624000D03*
X123444000Y-166624000D03*
X120904000Y-169164000D03*
X123444000Y-169164000D03*
X120904000Y-171704000D03*
X123444000Y-171704000D03*
X120904000Y-174244000D03*
X123444000Y-174244000D03*
X110744000Y-181864000D03*
X113284000Y-181864000D03*
D19*
X53340000Y-133604000D03*
X67564000Y-181864000D03*
X70104000Y-181864000D03*
X120904000Y-176784000D03*
X123444000Y-176784000D03*
D18*
X57404000Y-181864000D03*
X59944000Y-181864000D03*
X45720000Y-133604000D03*
X48260000Y-133604000D03*
X72644000Y-181864000D03*
%TD*%
D10*
%TO.C,J1*%
X103124000Y-138328400D03*
D11*
X100584000Y-138328400D03*
X103124000Y-140868400D03*
X100584000Y-140868400D03*
X103124000Y-143408400D03*
X100584000Y-143408400D03*
X103124000Y-145948400D03*
X100584000Y-145948400D03*
%TD*%
D16*
%TO.C,U9*%
X49885600Y-177927000D03*
D17*
X52425600Y-177927000D03*
X54965600Y-177927000D03*
X57505600Y-177927000D03*
X60045600Y-177927000D03*
X62585600Y-177927000D03*
X65125600Y-177927000D03*
X67665600Y-177927000D03*
X70205600Y-177927000D03*
X72745600Y-177927000D03*
X75285600Y-177927000D03*
X77825600Y-177927000D03*
X77825600Y-167767000D03*
X75285600Y-167767000D03*
X72745600Y-167767000D03*
X70205600Y-167767000D03*
X67665600Y-167767000D03*
X65125600Y-167767000D03*
X62585600Y-167767000D03*
X60045600Y-167767000D03*
X57505600Y-167767000D03*
X54965600Y-167767000D03*
X52425600Y-167767000D03*
X49885600Y-167767000D03*
%TD*%
D20*
%TO.C,C4*%
X64605000Y-171516000D03*
X64605000Y-173416000D03*
%TD*%
D21*
%TO.C,U14*%
X94657300Y-136855200D03*
X94657300Y-138125200D03*
X94657300Y-139395200D03*
X94657300Y-140665200D03*
X94657300Y-141935200D03*
X94657300Y-143205200D03*
X94657300Y-144475200D03*
X94657300Y-145745200D03*
X94657300Y-147015200D03*
X94657300Y-148285200D03*
X85457300Y-148285200D03*
X85457300Y-147015200D03*
X85457300Y-145745200D03*
X85457300Y-144475200D03*
X85457300Y-143205200D03*
X85457300Y-141935200D03*
X85457300Y-140665200D03*
X85457300Y-139395200D03*
X85457300Y-138125200D03*
X85457300Y-136855200D03*
%TD*%
D20*
%TO.C,C8*%
X73635000Y-171516000D03*
X73635000Y-173416000D03*
%TD*%
D22*
%TO.C,U4*%
X88681000Y-152984200D03*
X88681000Y-154254200D03*
X88681000Y-155524200D03*
X88681000Y-156794200D03*
X88681000Y-158064200D03*
X88681000Y-159334200D03*
X88681000Y-160604200D03*
X88681000Y-161874200D03*
X83531000Y-161874200D03*
X83531000Y-160604200D03*
X83531000Y-159334200D03*
X83531000Y-158064200D03*
X83531000Y-156794200D03*
X83531000Y-155524200D03*
X83531000Y-154254200D03*
X83531000Y-152984200D03*
%TD*%
D23*
%TO.C,R1*%
X45124200Y-161986000D03*
X46949200Y-161986000D03*
%TD*%
D20*
%TO.C,C7*%
X70625000Y-171516000D03*
X70625000Y-173416000D03*
%TD*%
D21*
%TO.C,U12*%
X68072000Y-136855200D03*
X68072000Y-138125200D03*
X68072000Y-139395200D03*
X68072000Y-140665200D03*
X68072000Y-141935200D03*
X68072000Y-143205200D03*
X68072000Y-144475200D03*
X68072000Y-145745200D03*
X68072000Y-147015200D03*
X68072000Y-148285200D03*
X58872000Y-148285200D03*
X58872000Y-147015200D03*
X58872000Y-145745200D03*
X58872000Y-144475200D03*
X58872000Y-143205200D03*
X58872000Y-141935200D03*
X58872000Y-140665200D03*
X58872000Y-139395200D03*
X58872000Y-138125200D03*
X58872000Y-136855200D03*
%TD*%
D23*
%TO.C,R8*%
X45124200Y-159700000D03*
X46949200Y-159700000D03*
%TD*%
%TO.C,R4*%
X45124200Y-164272000D03*
X46949200Y-164272000D03*
%TD*%
D24*
%TO.C,R2*%
X46949200Y-157414000D03*
X45124200Y-157414000D03*
%TD*%
D25*
%TO.C,C9*%
X33350200Y-147536000D03*
X33350200Y-141986000D03*
%TD*%
%TO.C,C6*%
X107772200Y-176136400D03*
X107772200Y-170586400D03*
%TD*%
D22*
%TO.C,U3*%
X99237800Y-152755600D03*
X99237800Y-154025600D03*
X99237800Y-155295600D03*
X99237800Y-156565600D03*
X99237800Y-157835600D03*
X99237800Y-159105600D03*
X99237800Y-160375600D03*
X99237800Y-161645600D03*
X94087800Y-161645600D03*
X94087800Y-160375600D03*
X94087800Y-159105600D03*
X94087800Y-157835600D03*
X94087800Y-156565600D03*
X94087800Y-155295600D03*
X94087800Y-154025600D03*
X94087800Y-152755600D03*
%TD*%
D20*
%TO.C,C5*%
X67615000Y-171516000D03*
X67615000Y-173416000D03*
%TD*%
%TO.C,C1*%
X55575000Y-171516000D03*
X55575000Y-173416000D03*
%TD*%
D26*
%TO.C,U1*%
X116484400Y-149264800D03*
X116484400Y-150064800D03*
X116484400Y-150864800D03*
X116484400Y-151664800D03*
X116484400Y-152464800D03*
X116484400Y-153264800D03*
X116484400Y-154064800D03*
X116484400Y-154864800D03*
X116484400Y-155664800D03*
X116484400Y-156464800D03*
X116484400Y-157264800D03*
X116484400Y-158064800D03*
X116484400Y-158864800D03*
X116484400Y-159664800D03*
X116484400Y-160464800D03*
X116484400Y-161264800D03*
X116484400Y-162064800D03*
X116484400Y-162864800D03*
X116484400Y-163664800D03*
X116484400Y-164464800D03*
X116484400Y-165264800D03*
X116484400Y-166064800D03*
X105309400Y-166064800D03*
X105309400Y-165264800D03*
X105309400Y-164464800D03*
X105309400Y-163664800D03*
X105309400Y-162864800D03*
X105309400Y-162064800D03*
X105309400Y-161264800D03*
X105309400Y-160464800D03*
X105309400Y-159664800D03*
X105309400Y-158864800D03*
X105309400Y-158064800D03*
X105309400Y-157264800D03*
X105309400Y-156464800D03*
X105309400Y-155664800D03*
X105309400Y-154864800D03*
X105309400Y-154064800D03*
X105309400Y-153264800D03*
X105309400Y-152464800D03*
X105309400Y-151664800D03*
X105309400Y-150864800D03*
X105309400Y-150064800D03*
X105309400Y-149264800D03*
%TD*%
D24*
%TO.C,R5*%
X46949200Y-155128000D03*
X45124200Y-155128000D03*
%TD*%
%TO.C,R7*%
X46949200Y-166558000D03*
X45124200Y-166558000D03*
%TD*%
D20*
%TO.C,C3*%
X61595000Y-171516000D03*
X61595000Y-173416000D03*
%TD*%
D23*
%TO.C,R11*%
X32500000Y-151650000D03*
X34325000Y-151650000D03*
%TD*%
D21*
%TO.C,U13*%
X81364700Y-136855200D03*
X81364700Y-138125200D03*
X81364700Y-139395200D03*
X81364700Y-140665200D03*
X81364700Y-141935200D03*
X81364700Y-143205200D03*
X81364700Y-144475200D03*
X81364700Y-145745200D03*
X81364700Y-147015200D03*
X81364700Y-148285200D03*
X72164700Y-148285200D03*
X72164700Y-147015200D03*
X72164700Y-145745200D03*
X72164700Y-144475200D03*
X72164700Y-143205200D03*
X72164700Y-141935200D03*
X72164700Y-140665200D03*
X72164700Y-139395200D03*
X72164700Y-138125200D03*
X72164700Y-136855200D03*
%TD*%
%TO.C,U11*%
X54779300Y-136855200D03*
X54779300Y-138125200D03*
X54779300Y-139395200D03*
X54779300Y-140665200D03*
X54779300Y-141935200D03*
X54779300Y-143205200D03*
X54779300Y-144475200D03*
X54779300Y-145745200D03*
X54779300Y-147015200D03*
X54779300Y-148285200D03*
X45579300Y-148285200D03*
X45579300Y-147015200D03*
X45579300Y-145745200D03*
X45579300Y-144475200D03*
X45579300Y-143205200D03*
X45579300Y-141935200D03*
X45579300Y-140665200D03*
X45579300Y-139395200D03*
X45579300Y-138125200D03*
X45579300Y-136855200D03*
%TD*%
D20*
%TO.C,C2*%
X58585000Y-171516000D03*
X58585000Y-173416000D03*
%TD*%
D24*
%TO.C,R6*%
X46949200Y-150606800D03*
X45124200Y-150606800D03*
%TD*%
D23*
%TO.C,R12*%
X32500000Y-154444000D03*
X34325000Y-154444000D03*
%TD*%
%TO.C,R10*%
X100925000Y-148250000D03*
X102750000Y-148250000D03*
%TD*%
D24*
%TO.C,R3*%
X46949200Y-152892800D03*
X45124200Y-152892800D03*
%TD*%
M02*
