%TF.GenerationSoftware,KiCad,Pcbnew,8.0.4+dfsg-1*%
%TF.CreationDate,2024-11-13T23:12:42-05:00*%
%TF.ProjectId,VGA_SRAM_Shield,5647415f-5352-4414-9d5f-536869656c64,rev?*%
%TF.SameCoordinates,Original*%
%TF.FileFunction,Legend,Top*%
%TF.FilePolarity,Positive*%
%FSLAX46Y46*%
G04 Gerber Fmt 4.6, Leading zero omitted, Abs format (unit mm)*
G04 Created by KiCad (PCBNEW 8.0.4+dfsg-1) date 2024-11-13 23:12:42*
%MOMM*%
%LPD*%
G01*
G04 APERTURE LIST*
%ADD10C,0.100000*%
%ADD11C,0.250000*%
%ADD12C,0.320000*%
%ADD13C,0.300000*%
%ADD14C,0.150000*%
%ADD15C,0.010000*%
%ADD16C,0.120000*%
G04 APERTURE END LIST*
D10*
X35550000Y-132475000D02*
X35625000Y-132475000D01*
X35625000Y-134725000D01*
X35550000Y-134725000D01*
X35550000Y-132475000D01*
X35600000Y-132150000D02*
X43650000Y-132150000D01*
X43650000Y-132225000D01*
X35600000Y-132225000D01*
X35600000Y-132150000D01*
X35425000Y-132100000D02*
X35500000Y-132100000D01*
X35500000Y-135025000D01*
X35425000Y-135025000D01*
X35425000Y-132100000D01*
X35861800Y-133650000D02*
X37487400Y-133650000D01*
X35500000Y-132100000D02*
X43725000Y-132100000D01*
X43725000Y-135025000D01*
X35500000Y-135025000D01*
X35500000Y-132100000D01*
X35600000Y-132225000D02*
X43650000Y-132225000D01*
X43650000Y-132300000D01*
X35600000Y-132300000D01*
X35600000Y-132225000D01*
X35575000Y-134900000D02*
X43675000Y-134900000D01*
X43675000Y-134975000D01*
X35575000Y-134975000D01*
X35575000Y-134900000D01*
X35550000Y-134775000D02*
X43675000Y-134775000D01*
X43675000Y-134825000D01*
X35550000Y-134825000D01*
X35550000Y-134775000D01*
X35887200Y-136250000D02*
X37512800Y-136250000D01*
X35550000Y-132350000D02*
X43650000Y-132350000D01*
X43650000Y-132425000D01*
X35550000Y-132425000D01*
X35550000Y-132350000D01*
X36700000Y-134437400D02*
X36700000Y-132811800D01*
D11*
X77761368Y-142625780D02*
X77132796Y-142625780D01*
X77447082Y-142625780D02*
X77447082Y-141525780D01*
X77447082Y-141525780D02*
X77342320Y-141682923D01*
X77342320Y-141682923D02*
X77237558Y-141787685D01*
X77237558Y-141787685D02*
X77132796Y-141840066D01*
X78232796Y-142625780D02*
X78232796Y-141525780D01*
X78232796Y-141525780D02*
X78599463Y-142311495D01*
X78599463Y-142311495D02*
X78966130Y-141525780D01*
X78966130Y-141525780D02*
X78966130Y-142625780D01*
X79489939Y-142625780D02*
X79489939Y-141525780D01*
X79489939Y-141944828D02*
X79594701Y-141892447D01*
X79594701Y-141892447D02*
X79804225Y-141892447D01*
X79804225Y-141892447D02*
X79908987Y-141944828D01*
X79908987Y-141944828D02*
X79961368Y-141997209D01*
X79961368Y-141997209D02*
X80013749Y-142101971D01*
X80013749Y-142101971D02*
X80013749Y-142416257D01*
X80013749Y-142416257D02*
X79961368Y-142521019D01*
X79961368Y-142521019D02*
X79908987Y-142573400D01*
X79908987Y-142573400D02*
X79804225Y-142625780D01*
X79804225Y-142625780D02*
X79594701Y-142625780D01*
X79594701Y-142625780D02*
X79489939Y-142573400D01*
X80380415Y-142625780D02*
X80956606Y-141892447D01*
X80380415Y-141892447D02*
X80956606Y-142625780D01*
X81532796Y-141997209D02*
X81428034Y-141944828D01*
X81428034Y-141944828D02*
X81375653Y-141892447D01*
X81375653Y-141892447D02*
X81323272Y-141787685D01*
X81323272Y-141787685D02*
X81323272Y-141735304D01*
X81323272Y-141735304D02*
X81375653Y-141630542D01*
X81375653Y-141630542D02*
X81428034Y-141578161D01*
X81428034Y-141578161D02*
X81532796Y-141525780D01*
X81532796Y-141525780D02*
X81742320Y-141525780D01*
X81742320Y-141525780D02*
X81847082Y-141578161D01*
X81847082Y-141578161D02*
X81899463Y-141630542D01*
X81899463Y-141630542D02*
X81951844Y-141735304D01*
X81951844Y-141735304D02*
X81951844Y-141787685D01*
X81951844Y-141787685D02*
X81899463Y-141892447D01*
X81899463Y-141892447D02*
X81847082Y-141944828D01*
X81847082Y-141944828D02*
X81742320Y-141997209D01*
X81742320Y-141997209D02*
X81532796Y-141997209D01*
X81532796Y-141997209D02*
X81428034Y-142049590D01*
X81428034Y-142049590D02*
X81375653Y-142101971D01*
X81375653Y-142101971D02*
X81323272Y-142206733D01*
X81323272Y-142206733D02*
X81323272Y-142416257D01*
X81323272Y-142416257D02*
X81375653Y-142521019D01*
X81375653Y-142521019D02*
X81428034Y-142573400D01*
X81428034Y-142573400D02*
X81532796Y-142625780D01*
X81532796Y-142625780D02*
X81742320Y-142625780D01*
X81742320Y-142625780D02*
X81847082Y-142573400D01*
X81847082Y-142573400D02*
X81899463Y-142521019D01*
X81899463Y-142521019D02*
X81951844Y-142416257D01*
X81951844Y-142416257D02*
X81951844Y-142206733D01*
X81951844Y-142206733D02*
X81899463Y-142101971D01*
X81899463Y-142101971D02*
X81847082Y-142049590D01*
X81847082Y-142049590D02*
X81742320Y-141997209D01*
X83208986Y-142573400D02*
X83366129Y-142625780D01*
X83366129Y-142625780D02*
X83628034Y-142625780D01*
X83628034Y-142625780D02*
X83732796Y-142573400D01*
X83732796Y-142573400D02*
X83785177Y-142521019D01*
X83785177Y-142521019D02*
X83837558Y-142416257D01*
X83837558Y-142416257D02*
X83837558Y-142311495D01*
X83837558Y-142311495D02*
X83785177Y-142206733D01*
X83785177Y-142206733D02*
X83732796Y-142154352D01*
X83732796Y-142154352D02*
X83628034Y-142101971D01*
X83628034Y-142101971D02*
X83418510Y-142049590D01*
X83418510Y-142049590D02*
X83313748Y-141997209D01*
X83313748Y-141997209D02*
X83261367Y-141944828D01*
X83261367Y-141944828D02*
X83208986Y-141840066D01*
X83208986Y-141840066D02*
X83208986Y-141735304D01*
X83208986Y-141735304D02*
X83261367Y-141630542D01*
X83261367Y-141630542D02*
X83313748Y-141578161D01*
X83313748Y-141578161D02*
X83418510Y-141525780D01*
X83418510Y-141525780D02*
X83680415Y-141525780D01*
X83680415Y-141525780D02*
X83837558Y-141578161D01*
X84937558Y-142625780D02*
X84570891Y-142101971D01*
X84308986Y-142625780D02*
X84308986Y-141525780D01*
X84308986Y-141525780D02*
X84728034Y-141525780D01*
X84728034Y-141525780D02*
X84832796Y-141578161D01*
X84832796Y-141578161D02*
X84885177Y-141630542D01*
X84885177Y-141630542D02*
X84937558Y-141735304D01*
X84937558Y-141735304D02*
X84937558Y-141892447D01*
X84937558Y-141892447D02*
X84885177Y-141997209D01*
X84885177Y-141997209D02*
X84832796Y-142049590D01*
X84832796Y-142049590D02*
X84728034Y-142101971D01*
X84728034Y-142101971D02*
X84308986Y-142101971D01*
X85356605Y-142311495D02*
X85880415Y-142311495D01*
X85251843Y-142625780D02*
X85618510Y-141525780D01*
X85618510Y-141525780D02*
X85985177Y-142625780D01*
X86351843Y-142625780D02*
X86351843Y-141525780D01*
X86351843Y-141525780D02*
X86718510Y-142311495D01*
X86718510Y-142311495D02*
X87085177Y-141525780D01*
X87085177Y-141525780D02*
X87085177Y-142625780D01*
D12*
X51774068Y-159972188D02*
X51774068Y-158472188D01*
X51774068Y-159186474D02*
X52631211Y-159186474D01*
X52631211Y-159972188D02*
X52631211Y-158472188D01*
X53559783Y-159972188D02*
X53416926Y-159900760D01*
X53416926Y-159900760D02*
X53345497Y-159829331D01*
X53345497Y-159829331D02*
X53274069Y-159686474D01*
X53274069Y-159686474D02*
X53274069Y-159257902D01*
X53274069Y-159257902D02*
X53345497Y-159115045D01*
X53345497Y-159115045D02*
X53416926Y-159043617D01*
X53416926Y-159043617D02*
X53559783Y-158972188D01*
X53559783Y-158972188D02*
X53774069Y-158972188D01*
X53774069Y-158972188D02*
X53916926Y-159043617D01*
X53916926Y-159043617D02*
X53988355Y-159115045D01*
X53988355Y-159115045D02*
X54059783Y-159257902D01*
X54059783Y-159257902D02*
X54059783Y-159686474D01*
X54059783Y-159686474D02*
X53988355Y-159829331D01*
X53988355Y-159829331D02*
X53916926Y-159900760D01*
X53916926Y-159900760D02*
X53774069Y-159972188D01*
X53774069Y-159972188D02*
X53559783Y-159972188D01*
X54702640Y-159972188D02*
X54702640Y-158972188D01*
X54702640Y-159257902D02*
X54774069Y-159115045D01*
X54774069Y-159115045D02*
X54845498Y-159043617D01*
X54845498Y-159043617D02*
X54988355Y-158972188D01*
X54988355Y-158972188D02*
X55131212Y-158972188D01*
X55631211Y-159972188D02*
X55631211Y-158972188D01*
X55631211Y-158472188D02*
X55559783Y-158543617D01*
X55559783Y-158543617D02*
X55631211Y-158615045D01*
X55631211Y-158615045D02*
X55702640Y-158543617D01*
X55702640Y-158543617D02*
X55631211Y-158472188D01*
X55631211Y-158472188D02*
X55631211Y-158615045D01*
X56202640Y-158972188D02*
X56988355Y-158972188D01*
X56988355Y-158972188D02*
X56202640Y-159972188D01*
X56202640Y-159972188D02*
X56988355Y-159972188D01*
X57774069Y-159972188D02*
X57631212Y-159900760D01*
X57631212Y-159900760D02*
X57559783Y-159829331D01*
X57559783Y-159829331D02*
X57488355Y-159686474D01*
X57488355Y-159686474D02*
X57488355Y-159257902D01*
X57488355Y-159257902D02*
X57559783Y-159115045D01*
X57559783Y-159115045D02*
X57631212Y-159043617D01*
X57631212Y-159043617D02*
X57774069Y-158972188D01*
X57774069Y-158972188D02*
X57988355Y-158972188D01*
X57988355Y-158972188D02*
X58131212Y-159043617D01*
X58131212Y-159043617D02*
X58202641Y-159115045D01*
X58202641Y-159115045D02*
X58274069Y-159257902D01*
X58274069Y-159257902D02*
X58274069Y-159686474D01*
X58274069Y-159686474D02*
X58202641Y-159829331D01*
X58202641Y-159829331D02*
X58131212Y-159900760D01*
X58131212Y-159900760D02*
X57988355Y-159972188D01*
X57988355Y-159972188D02*
X57774069Y-159972188D01*
X58916926Y-158972188D02*
X58916926Y-159972188D01*
X58916926Y-159115045D02*
X58988355Y-159043617D01*
X58988355Y-159043617D02*
X59131212Y-158972188D01*
X59131212Y-158972188D02*
X59345498Y-158972188D01*
X59345498Y-158972188D02*
X59488355Y-159043617D01*
X59488355Y-159043617D02*
X59559784Y-159186474D01*
X59559784Y-159186474D02*
X59559784Y-159972188D01*
X60059784Y-158972188D02*
X60631212Y-158972188D01*
X60274069Y-158472188D02*
X60274069Y-159757902D01*
X60274069Y-159757902D02*
X60345498Y-159900760D01*
X60345498Y-159900760D02*
X60488355Y-159972188D01*
X60488355Y-159972188D02*
X60631212Y-159972188D01*
X61774070Y-159972188D02*
X61774070Y-159186474D01*
X61774070Y-159186474D02*
X61702641Y-159043617D01*
X61702641Y-159043617D02*
X61559784Y-158972188D01*
X61559784Y-158972188D02*
X61274070Y-158972188D01*
X61274070Y-158972188D02*
X61131212Y-159043617D01*
X61774070Y-159900760D02*
X61631212Y-159972188D01*
X61631212Y-159972188D02*
X61274070Y-159972188D01*
X61274070Y-159972188D02*
X61131212Y-159900760D01*
X61131212Y-159900760D02*
X61059784Y-159757902D01*
X61059784Y-159757902D02*
X61059784Y-159615045D01*
X61059784Y-159615045D02*
X61131212Y-159472188D01*
X61131212Y-159472188D02*
X61274070Y-159400760D01*
X61274070Y-159400760D02*
X61631212Y-159400760D01*
X61631212Y-159400760D02*
X61774070Y-159329331D01*
X62702641Y-159972188D02*
X62559784Y-159900760D01*
X62559784Y-159900760D02*
X62488355Y-159757902D01*
X62488355Y-159757902D02*
X62488355Y-158472188D01*
X64202641Y-158472188D02*
X65059784Y-158472188D01*
X64631212Y-159972188D02*
X64631212Y-158472188D01*
X65559783Y-159972188D02*
X65559783Y-158972188D01*
X65559783Y-158472188D02*
X65488355Y-158543617D01*
X65488355Y-158543617D02*
X65559783Y-158615045D01*
X65559783Y-158615045D02*
X65631212Y-158543617D01*
X65631212Y-158543617D02*
X65559783Y-158472188D01*
X65559783Y-158472188D02*
X65559783Y-158615045D01*
X66274069Y-159972188D02*
X66274069Y-158972188D01*
X66274069Y-159115045D02*
X66345498Y-159043617D01*
X66345498Y-159043617D02*
X66488355Y-158972188D01*
X66488355Y-158972188D02*
X66702641Y-158972188D01*
X66702641Y-158972188D02*
X66845498Y-159043617D01*
X66845498Y-159043617D02*
X66916927Y-159186474D01*
X66916927Y-159186474D02*
X66916927Y-159972188D01*
X66916927Y-159186474D02*
X66988355Y-159043617D01*
X66988355Y-159043617D02*
X67131212Y-158972188D01*
X67131212Y-158972188D02*
X67345498Y-158972188D01*
X67345498Y-158972188D02*
X67488355Y-159043617D01*
X67488355Y-159043617D02*
X67559784Y-159186474D01*
X67559784Y-159186474D02*
X67559784Y-159972188D01*
X68274069Y-159972188D02*
X68274069Y-158972188D01*
X68274069Y-158472188D02*
X68202641Y-158543617D01*
X68202641Y-158543617D02*
X68274069Y-158615045D01*
X68274069Y-158615045D02*
X68345498Y-158543617D01*
X68345498Y-158543617D02*
X68274069Y-158472188D01*
X68274069Y-158472188D02*
X68274069Y-158615045D01*
X68988355Y-158972188D02*
X68988355Y-159972188D01*
X68988355Y-159115045D02*
X69059784Y-159043617D01*
X69059784Y-159043617D02*
X69202641Y-158972188D01*
X69202641Y-158972188D02*
X69416927Y-158972188D01*
X69416927Y-158972188D02*
X69559784Y-159043617D01*
X69559784Y-159043617D02*
X69631213Y-159186474D01*
X69631213Y-159186474D02*
X69631213Y-159972188D01*
X70988356Y-158972188D02*
X70988356Y-160186474D01*
X70988356Y-160186474D02*
X70916927Y-160329331D01*
X70916927Y-160329331D02*
X70845498Y-160400760D01*
X70845498Y-160400760D02*
X70702641Y-160472188D01*
X70702641Y-160472188D02*
X70488356Y-160472188D01*
X70488356Y-160472188D02*
X70345498Y-160400760D01*
X70988356Y-159900760D02*
X70845498Y-159972188D01*
X70845498Y-159972188D02*
X70559784Y-159972188D01*
X70559784Y-159972188D02*
X70416927Y-159900760D01*
X70416927Y-159900760D02*
X70345498Y-159829331D01*
X70345498Y-159829331D02*
X70274070Y-159686474D01*
X70274070Y-159686474D02*
X70274070Y-159257902D01*
X70274070Y-159257902D02*
X70345498Y-159115045D01*
X70345498Y-159115045D02*
X70416927Y-159043617D01*
X70416927Y-159043617D02*
X70559784Y-158972188D01*
X70559784Y-158972188D02*
X70845498Y-158972188D01*
X70845498Y-158972188D02*
X70988356Y-159043617D01*
X72845498Y-159972188D02*
X72845498Y-158472188D01*
X72845498Y-158472188D02*
X73416927Y-158472188D01*
X73416927Y-158472188D02*
X73559784Y-158543617D01*
X73559784Y-158543617D02*
X73631213Y-158615045D01*
X73631213Y-158615045D02*
X73702641Y-158757902D01*
X73702641Y-158757902D02*
X73702641Y-158972188D01*
X73702641Y-158972188D02*
X73631213Y-159115045D01*
X73631213Y-159115045D02*
X73559784Y-159186474D01*
X73559784Y-159186474D02*
X73416927Y-159257902D01*
X73416927Y-159257902D02*
X72845498Y-159257902D01*
X75059784Y-159972188D02*
X74345498Y-159972188D01*
X74345498Y-159972188D02*
X74345498Y-158472188D01*
X75559784Y-159972188D02*
X75559784Y-158472188D01*
X75559784Y-158472188D02*
X75916927Y-158472188D01*
X75916927Y-158472188D02*
X76131213Y-158543617D01*
X76131213Y-158543617D02*
X76274070Y-158686474D01*
X76274070Y-158686474D02*
X76345499Y-158829331D01*
X76345499Y-158829331D02*
X76416927Y-159115045D01*
X76416927Y-159115045D02*
X76416927Y-159329331D01*
X76416927Y-159329331D02*
X76345499Y-159615045D01*
X76345499Y-159615045D02*
X76274070Y-159757902D01*
X76274070Y-159757902D02*
X76131213Y-159900760D01*
X76131213Y-159900760D02*
X75916927Y-159972188D01*
X75916927Y-159972188D02*
X75559784Y-159972188D01*
D13*
X77246653Y-144292028D02*
X77603796Y-145292028D01*
X77603796Y-145292028D02*
X77960939Y-144292028D01*
X79318082Y-145292028D02*
X78460939Y-145292028D01*
X78889510Y-145292028D02*
X78889510Y-143792028D01*
X78889510Y-143792028D02*
X78746653Y-144006314D01*
X78746653Y-144006314D02*
X78603796Y-144149171D01*
X78603796Y-144149171D02*
X78460939Y-144220600D01*
X79960938Y-145149171D02*
X80032367Y-145220600D01*
X80032367Y-145220600D02*
X79960938Y-145292028D01*
X79960938Y-145292028D02*
X79889510Y-145220600D01*
X79889510Y-145220600D02*
X79960938Y-145149171D01*
X79960938Y-145149171D02*
X79960938Y-145292028D01*
X80960939Y-143792028D02*
X81103796Y-143792028D01*
X81103796Y-143792028D02*
X81246653Y-143863457D01*
X81246653Y-143863457D02*
X81318082Y-143934885D01*
X81318082Y-143934885D02*
X81389510Y-144077742D01*
X81389510Y-144077742D02*
X81460939Y-144363457D01*
X81460939Y-144363457D02*
X81460939Y-144720600D01*
X81460939Y-144720600D02*
X81389510Y-145006314D01*
X81389510Y-145006314D02*
X81318082Y-145149171D01*
X81318082Y-145149171D02*
X81246653Y-145220600D01*
X81246653Y-145220600D02*
X81103796Y-145292028D01*
X81103796Y-145292028D02*
X80960939Y-145292028D01*
X80960939Y-145292028D02*
X80818082Y-145220600D01*
X80818082Y-145220600D02*
X80746653Y-145149171D01*
X80746653Y-145149171D02*
X80675224Y-145006314D01*
X80675224Y-145006314D02*
X80603796Y-144720600D01*
X80603796Y-144720600D02*
X80603796Y-144363457D01*
X80603796Y-144363457D02*
X80675224Y-144077742D01*
X80675224Y-144077742D02*
X80746653Y-143934885D01*
X80746653Y-143934885D02*
X80818082Y-143863457D01*
X80818082Y-143863457D02*
X80960939Y-143792028D01*
G36*
X77433276Y-135871687D02*
G01*
X77471378Y-135878282D01*
X77495924Y-135892936D01*
X77509846Y-135916384D01*
X77957177Y-137145902D01*
X77966703Y-137187668D01*
X77955345Y-137215145D01*
X77922372Y-137227601D01*
X77868883Y-137229800D01*
X77816493Y-137228334D01*
X77783887Y-137222472D01*
X77765569Y-137209649D01*
X77754944Y-137190965D01*
X77643203Y-136878090D01*
X77105746Y-136878090D01*
X76998768Y-137186202D01*
X76988510Y-137205986D01*
X76969825Y-137219908D01*
X76938684Y-137227601D01*
X76889958Y-137229800D01*
X76838301Y-137226869D01*
X76805694Y-137214046D01*
X76795070Y-137186569D01*
X76804961Y-137144803D01*
X76961632Y-136713959D01*
X77158137Y-136713959D01*
X77588615Y-136713959D01*
X77371914Y-136072261D01*
X77158137Y-136713959D01*
X76961632Y-136713959D01*
X77251926Y-135915651D01*
X77265481Y-135892570D01*
X77288929Y-135878282D01*
X77325199Y-135871687D01*
X77377589Y-135869855D01*
X77433276Y-135871687D01*
G37*
G36*
X78696866Y-136319384D02*
G01*
X78695767Y-136359684D01*
X78690638Y-136387162D01*
X78679647Y-136405114D01*
X78659497Y-136412441D01*
X78636050Y-136407312D01*
X78608939Y-136397786D01*
X78576699Y-136389726D01*
X78538597Y-136385696D01*
X78492435Y-136395222D01*
X78443709Y-136428194D01*
X78393553Y-136483268D01*
X78388021Y-136490476D01*
X78345470Y-136551147D01*
X78324640Y-136583533D01*
X78324640Y-137186202D01*
X78318412Y-137206719D01*
X78300827Y-137220274D01*
X78271518Y-137227601D01*
X78227554Y-137229800D01*
X78184323Y-137227601D01*
X78154647Y-137220274D01*
X78136696Y-137206719D01*
X78131200Y-137186202D01*
X78131200Y-136265162D01*
X78135963Y-136245379D01*
X78152449Y-136231090D01*
X78179927Y-136223397D01*
X78220227Y-136221565D01*
X78259794Y-136223397D01*
X78286539Y-136231090D01*
X78302659Y-136245012D01*
X78308154Y-136265162D01*
X78308154Y-136360051D01*
X78355252Y-136301254D01*
X78359445Y-136296670D01*
X78413230Y-136246103D01*
X78425024Y-136237319D01*
X78487306Y-136206910D01*
X78549954Y-136198118D01*
X78581828Y-136199950D01*
X78618465Y-136205811D01*
X78654002Y-136216070D01*
X78678182Y-136228526D01*
X78689173Y-136241715D01*
X78693936Y-136256736D01*
X78696134Y-136280183D01*
X78696866Y-136319384D01*
G37*
G36*
X79598489Y-135778997D02*
G01*
X79627798Y-135786324D01*
X79646116Y-135800246D01*
X79652711Y-135820763D01*
X79652711Y-137186202D01*
X79647215Y-137207085D01*
X79630363Y-137221007D01*
X79603618Y-137227601D01*
X79566615Y-137229800D01*
X79528513Y-137227601D01*
X79501769Y-137221373D01*
X79483817Y-137208550D01*
X79477589Y-137187668D01*
X79477589Y-137101572D01*
X79420879Y-137154316D01*
X79357346Y-137198314D01*
X79342400Y-137207085D01*
X79274015Y-137236973D01*
X79200430Y-137251624D01*
X79164714Y-137253247D01*
X79090353Y-137247425D01*
X79019331Y-137227979D01*
X78985195Y-137211848D01*
X78921327Y-137166413D01*
X78869855Y-137108421D01*
X78863929Y-137099740D01*
X78828376Y-137033703D01*
X78804027Y-136964346D01*
X78796884Y-136935609D01*
X78783363Y-136857535D01*
X78777000Y-136782677D01*
X78776001Y-136737772D01*
X78776673Y-136718355D01*
X78975670Y-136718355D01*
X78978668Y-136793227D01*
X78986294Y-136857573D01*
X79004206Y-136932070D01*
X79022564Y-136976642D01*
X79065273Y-137037627D01*
X79089609Y-137058707D01*
X79160814Y-137086710D01*
X79194756Y-137089116D01*
X79256671Y-137079957D01*
X79317854Y-137048816D01*
X79376438Y-136999969D01*
X79385265Y-136991296D01*
X79434995Y-136936025D01*
X79458171Y-136906666D01*
X79458171Y-136539203D01*
X79409451Y-136480573D01*
X79353782Y-136426497D01*
X79330310Y-136408044D01*
X79263284Y-136372311D01*
X79202083Y-136362249D01*
X79129669Y-136375187D01*
X79098035Y-136392291D01*
X79044704Y-136445886D01*
X79028060Y-136472525D01*
X78999581Y-136540531D01*
X78988126Y-136586830D01*
X78978054Y-136660182D01*
X78975670Y-136718355D01*
X78776673Y-136718355D01*
X78778577Y-136663355D01*
X78787361Y-136586784D01*
X78802379Y-136515756D01*
X78825718Y-136445311D01*
X78859025Y-136378065D01*
X78880415Y-136345763D01*
X78930774Y-136289883D01*
X78990811Y-136246627D01*
X79009742Y-136236586D01*
X79081799Y-136210289D01*
X79156622Y-136199057D01*
X79187428Y-136198118D01*
X79263469Y-136206248D01*
X79332908Y-136230640D01*
X79341668Y-136235121D01*
X79405598Y-136275329D01*
X79458171Y-136321949D01*
X79458171Y-135820396D01*
X79463667Y-135800246D01*
X79481985Y-135785958D01*
X79511661Y-135778997D01*
X79554525Y-135776066D01*
X79598489Y-135778997D01*
G37*
G36*
X80756200Y-137186202D02*
G01*
X80750705Y-137206719D01*
X80733485Y-137220274D01*
X80705642Y-137227601D01*
X80667174Y-137229800D01*
X80626507Y-137227601D01*
X80599030Y-137220274D01*
X80582910Y-137206352D01*
X80578147Y-137186202D01*
X80578147Y-137096077D01*
X80525887Y-137148578D01*
X80462575Y-137195381D01*
X80438196Y-137209649D01*
X80368142Y-137239452D01*
X80291994Y-137252864D01*
X80276629Y-137253247D01*
X80198891Y-137247076D01*
X80128051Y-137226768D01*
X80115429Y-137221007D01*
X80052393Y-137180238D01*
X80008451Y-137133446D01*
X79971757Y-137069807D01*
X79950199Y-137005585D01*
X79937839Y-136930714D01*
X79933249Y-136855278D01*
X79932980Y-136830096D01*
X79932980Y-136265162D01*
X79938475Y-136245379D01*
X79956793Y-136230724D01*
X79987201Y-136223397D01*
X80030066Y-136221565D01*
X80073297Y-136223397D01*
X80102973Y-136230724D01*
X80121291Y-136244646D01*
X80127519Y-136265529D01*
X80127519Y-136811412D01*
X80130724Y-136887847D01*
X80138876Y-136940005D01*
X80166485Y-137009944D01*
X80173315Y-137020606D01*
X80228326Y-137070027D01*
X80230467Y-137071164D01*
X80302816Y-137088958D01*
X80311434Y-137089116D01*
X80383171Y-137072454D01*
X80432700Y-137041855D01*
X80487498Y-136992367D01*
X80536476Y-136937000D01*
X80561661Y-136904834D01*
X80561661Y-136265162D01*
X80567156Y-136245012D01*
X80585474Y-136230724D01*
X80615516Y-136223397D01*
X80658747Y-136221565D01*
X80701978Y-136223397D01*
X80731287Y-136230724D01*
X80749239Y-136244280D01*
X80756200Y-136265162D01*
X80756200Y-137186202D01*
G37*
G36*
X81235038Y-137186202D02*
G01*
X81228810Y-137206719D01*
X81211224Y-137220274D01*
X81181915Y-137227601D01*
X81137952Y-137229800D01*
X81094721Y-137227601D01*
X81065045Y-137220274D01*
X81047093Y-137206719D01*
X81041598Y-137186202D01*
X81041598Y-136265162D01*
X81047093Y-136245745D01*
X81064679Y-136231457D01*
X81094721Y-136223763D01*
X81137952Y-136221565D01*
X81181915Y-136223763D01*
X81211591Y-136231457D01*
X81229176Y-136245379D01*
X81235038Y-136265162D01*
X81235038Y-137186202D01*
G37*
G36*
X81254822Y-135939098D02*
G01*
X81242354Y-136011560D01*
X81228444Y-136031788D01*
X81156380Y-136056808D01*
X81136853Y-136057434D01*
X81064224Y-136044375D01*
X81046727Y-136032155D01*
X81021708Y-135960806D01*
X81021081Y-135941296D01*
X81033376Y-135869008D01*
X81047093Y-135848973D01*
X81119514Y-135823596D01*
X81139051Y-135822961D01*
X81211679Y-135836020D01*
X81229176Y-135848240D01*
X81254196Y-135919589D01*
X81254822Y-135939098D01*
G37*
G36*
X82344389Y-137186202D02*
G01*
X82338161Y-137206719D01*
X82320575Y-137220274D01*
X82291266Y-137227601D01*
X82248035Y-137229800D01*
X82203705Y-137227601D01*
X82174396Y-137220274D01*
X82156811Y-137206719D01*
X82150949Y-137185836D01*
X82150949Y-136637022D01*
X82147537Y-136562223D01*
X82138859Y-136510993D01*
X82111154Y-136441151D01*
X82104421Y-136430393D01*
X82049453Y-136380926D01*
X82047268Y-136379834D01*
X81974556Y-136362403D01*
X81965935Y-136362249D01*
X81893634Y-136377877D01*
X81843569Y-136406579D01*
X81784820Y-136456650D01*
X81732212Y-136514370D01*
X81715708Y-136534806D01*
X81715708Y-137185836D01*
X81709480Y-137206719D01*
X81691894Y-137220274D01*
X81662585Y-137227601D01*
X81618622Y-137229800D01*
X81575391Y-137227601D01*
X81545715Y-137220274D01*
X81527763Y-137206719D01*
X81522268Y-137186202D01*
X81522268Y-136265162D01*
X81527030Y-136245379D01*
X81543517Y-136231090D01*
X81570994Y-136223397D01*
X81611294Y-136221565D01*
X81650862Y-136223397D01*
X81677606Y-136231090D01*
X81693726Y-136245012D01*
X81699222Y-136265162D01*
X81699222Y-136354922D01*
X81754900Y-136299423D01*
X81818714Y-136253462D01*
X81838440Y-136242081D01*
X81908995Y-136212028D01*
X81985368Y-136198504D01*
X82000739Y-136198118D01*
X82078658Y-136204429D01*
X82149380Y-136225198D01*
X82161940Y-136231090D01*
X82224872Y-136272042D01*
X82268552Y-136318652D01*
X82307179Y-136385743D01*
X82326804Y-136445780D01*
X82339426Y-136519985D01*
X82344114Y-136594323D01*
X82344389Y-136619070D01*
X82344389Y-137186202D01*
G37*
G36*
X83122243Y-136202317D02*
G01*
X83197944Y-136216476D01*
X83249309Y-136233655D01*
X83315615Y-136267613D01*
X83376203Y-136316219D01*
X83395122Y-136336603D01*
X83437852Y-136396328D01*
X83470786Y-136465365D01*
X83482683Y-136500368D01*
X83500320Y-136575484D01*
X83509336Y-136650315D01*
X83511626Y-136715790D01*
X83508033Y-136793766D01*
X83497253Y-136867498D01*
X83481218Y-136930846D01*
X83454084Y-137000999D01*
X83414921Y-137068510D01*
X83389626Y-137101206D01*
X83335134Y-137154112D01*
X83270484Y-137196739D01*
X83237219Y-137212947D01*
X83164730Y-137237505D01*
X83091132Y-137250059D01*
X83025827Y-137253247D01*
X82949150Y-137249091D01*
X82873304Y-137235077D01*
X82821762Y-137218076D01*
X82755632Y-137183881D01*
X82694965Y-137135154D01*
X82675949Y-137114761D01*
X82630658Y-137050126D01*
X82598775Y-136980564D01*
X82589121Y-136951363D01*
X82571930Y-136875869D01*
X82563142Y-136800511D01*
X82560910Y-136734475D01*
X82561404Y-136723484D01*
X82762777Y-136723484D01*
X82766166Y-136797948D01*
X82776333Y-136867465D01*
X82798629Y-136940446D01*
X82821029Y-136983236D01*
X82870737Y-137038512D01*
X82903827Y-137060539D01*
X82974905Y-137084399D01*
X83034253Y-137089116D01*
X83108480Y-137080885D01*
X83157718Y-137063104D01*
X83217952Y-137019489D01*
X83243081Y-136989465D01*
X83278343Y-136922803D01*
X83292906Y-136875525D01*
X83305484Y-136800465D01*
X83309026Y-136727880D01*
X83305637Y-136654333D01*
X83295471Y-136585365D01*
X83273303Y-136511949D01*
X83251141Y-136468861D01*
X83201921Y-136412939D01*
X83168709Y-136390825D01*
X83097937Y-136366965D01*
X83038649Y-136362249D01*
X82963649Y-136370595D01*
X82914452Y-136388627D01*
X82854706Y-136432235D01*
X82829455Y-136462633D01*
X82794222Y-136529752D01*
X82779264Y-136577305D01*
X82766400Y-136651769D01*
X82762777Y-136723484D01*
X82561404Y-136723484D01*
X82564417Y-136656500D01*
X82574937Y-136582767D01*
X82590586Y-136519419D01*
X82617445Y-136449318D01*
X82656310Y-136381979D01*
X82681444Y-136349426D01*
X82736053Y-136296404D01*
X82800457Y-136254023D01*
X82833485Y-136238051D01*
X82905905Y-136213717D01*
X82979803Y-136201277D01*
X83045610Y-136198118D01*
X83122243Y-136202317D01*
G37*
G36*
X84680379Y-135872047D02*
G01*
X84758746Y-135879918D01*
X84838918Y-135895615D01*
X84903077Y-135915651D01*
X84975463Y-135948209D01*
X85040120Y-135988637D01*
X85097050Y-136036937D01*
X85107509Y-136047542D01*
X85155322Y-136104858D01*
X85195264Y-136169186D01*
X85227335Y-136240527D01*
X85232805Y-136255637D01*
X85253349Y-136326667D01*
X85267169Y-136402507D01*
X85274266Y-136483159D01*
X85275303Y-136530044D01*
X85273147Y-136604734D01*
X85265402Y-136684985D01*
X85252024Y-136759786D01*
X85230241Y-136837423D01*
X85201560Y-136908077D01*
X85161875Y-136978287D01*
X85113962Y-137039767D01*
X85097983Y-137056509D01*
X85039887Y-137106713D01*
X84974135Y-137148329D01*
X84900726Y-137181359D01*
X84885125Y-137186935D01*
X84810702Y-137207656D01*
X84738270Y-137220381D01*
X84659931Y-137227748D01*
X84586539Y-137229800D01*
X84304438Y-137229800D01*
X84251682Y-137211115D01*
X84226769Y-137145902D01*
X84226769Y-137065668D01*
X84427536Y-137065668D01*
X84598262Y-137065668D01*
X84672637Y-137062591D01*
X84745358Y-137052099D01*
X84808555Y-137034161D01*
X84877778Y-137000211D01*
X84936061Y-136953498D01*
X84950705Y-136937807D01*
X84995244Y-136874294D01*
X85026806Y-136803765D01*
X85036434Y-136773676D01*
X85052912Y-136701002D01*
X85061957Y-136627271D01*
X85065348Y-136546242D01*
X85065377Y-136537737D01*
X85061667Y-136458620D01*
X85050539Y-136383933D01*
X85038998Y-136336603D01*
X85012966Y-136265288D01*
X84973977Y-136198089D01*
X84957299Y-136176502D01*
X84903143Y-136123448D01*
X84837487Y-136081614D01*
X84816615Y-136071722D01*
X84745758Y-136048727D01*
X84668314Y-136036971D01*
X84596064Y-136033987D01*
X84427536Y-136033987D01*
X84427536Y-137065668D01*
X84226769Y-137065668D01*
X84226769Y-135953753D01*
X84251682Y-135888906D01*
X84304438Y-135869855D01*
X84606322Y-135869855D01*
X84680379Y-135872047D01*
G37*
G36*
X86316144Y-137186202D02*
G01*
X86310649Y-137206719D01*
X86293430Y-137220274D01*
X86265586Y-137227601D01*
X86227118Y-137229800D01*
X86186451Y-137227601D01*
X86158974Y-137220274D01*
X86142854Y-137206352D01*
X86138091Y-137186202D01*
X86138091Y-137096077D01*
X86085831Y-137148578D01*
X86022519Y-137195381D01*
X85998140Y-137209649D01*
X85928086Y-137239452D01*
X85851938Y-137252864D01*
X85836573Y-137253247D01*
X85758835Y-137247076D01*
X85687996Y-137226768D01*
X85675373Y-137221007D01*
X85612337Y-137180238D01*
X85568395Y-137133446D01*
X85531701Y-137069807D01*
X85510143Y-137005585D01*
X85497783Y-136930714D01*
X85493193Y-136855278D01*
X85492924Y-136830096D01*
X85492924Y-136265162D01*
X85498419Y-136245379D01*
X85516737Y-136230724D01*
X85547146Y-136223397D01*
X85590010Y-136221565D01*
X85633241Y-136223397D01*
X85662917Y-136230724D01*
X85681235Y-136244646D01*
X85687463Y-136265529D01*
X85687463Y-136811412D01*
X85690668Y-136887847D01*
X85698820Y-136940005D01*
X85726429Y-137009944D01*
X85733259Y-137020606D01*
X85788271Y-137070027D01*
X85790412Y-137071164D01*
X85862760Y-137088958D01*
X85871378Y-137089116D01*
X85943115Y-137072454D01*
X85992645Y-137041855D01*
X86047442Y-136992367D01*
X86096420Y-136937000D01*
X86121605Y-136904834D01*
X86121605Y-136265162D01*
X86127100Y-136245012D01*
X86145418Y-136230724D01*
X86175460Y-136223397D01*
X86218691Y-136221565D01*
X86261922Y-136223397D01*
X86291231Y-136230724D01*
X86309183Y-136244280D01*
X86316144Y-136265162D01*
X86316144Y-137186202D01*
G37*
G36*
X87076070Y-136203167D02*
G01*
X87151543Y-136220032D01*
X87187725Y-136234021D01*
X87251568Y-136270206D01*
X87307988Y-136319557D01*
X87317784Y-136330742D01*
X87359569Y-136391922D01*
X87389440Y-136462118D01*
X87392522Y-136472158D01*
X87408801Y-136545108D01*
X87415964Y-136622264D01*
X87416336Y-136645082D01*
X87416336Y-136675490D01*
X87392522Y-136741070D01*
X87338667Y-136760853D01*
X86742592Y-136760853D01*
X86747345Y-136835184D01*
X86757613Y-136890913D01*
X86783831Y-136962067D01*
X86806706Y-136997891D01*
X86863929Y-137048817D01*
X86896465Y-137065668D01*
X86971200Y-137085246D01*
X87032753Y-137089116D01*
X87108086Y-137084965D01*
X87147791Y-137078491D01*
X87221000Y-137059533D01*
X87235352Y-137054677D01*
X87297268Y-137030131D01*
X87337568Y-137018774D01*
X87356985Y-137024269D01*
X87369808Y-137039656D01*
X87375303Y-137063836D01*
X87377135Y-137097542D01*
X87376036Y-137122821D01*
X87373105Y-137142238D01*
X87366877Y-137159091D01*
X87355520Y-137173746D01*
X87319250Y-137194629D01*
X87248045Y-137219861D01*
X87245244Y-137220640D01*
X87173274Y-137237222D01*
X87141197Y-137242989D01*
X87068311Y-137251554D01*
X87015167Y-137253247D01*
X86938404Y-137249307D01*
X86862266Y-137236024D01*
X86810370Y-137219908D01*
X86743403Y-137187499D01*
X86681293Y-137140696D01*
X86661626Y-137120989D01*
X86617408Y-137062385D01*
X86582985Y-136993140D01*
X86570401Y-136957591D01*
X86551871Y-136879624D01*
X86542398Y-136800551D01*
X86539993Y-136730445D01*
X86543070Y-136656099D01*
X86551232Y-136596722D01*
X86742959Y-136596722D01*
X87222163Y-136596722D01*
X87214265Y-136518416D01*
X87182770Y-136448692D01*
X87165743Y-136427462D01*
X87102982Y-136382883D01*
X87031438Y-136364542D01*
X86989522Y-136362249D01*
X86913676Y-136371773D01*
X86884009Y-136382399D01*
X86820456Y-136424091D01*
X86808538Y-136436254D01*
X86768073Y-136498524D01*
X86761277Y-136515023D01*
X86743646Y-136587351D01*
X86742959Y-136596722D01*
X86551232Y-136596722D01*
X86553562Y-136579773D01*
X86571500Y-136509161D01*
X86599321Y-136439369D01*
X86638297Y-136373062D01*
X86663091Y-136341366D01*
X86720112Y-136286950D01*
X86786670Y-136244875D01*
X86807439Y-136235121D01*
X86879526Y-136211163D01*
X86951972Y-136199888D01*
X86996849Y-136198118D01*
X87076070Y-136203167D01*
G37*
G36*
X77497756Y-139705103D02*
G01*
X77483102Y-139728184D01*
X77459288Y-139742106D01*
X77423384Y-139748334D01*
X77372460Y-139749800D01*
X77331793Y-139749433D01*
X77301385Y-139746502D01*
X77278304Y-139741373D01*
X77260352Y-139733313D01*
X77247896Y-139720857D01*
X77239836Y-139704370D01*
X76803862Y-138474119D01*
X76794337Y-138432354D01*
X76806793Y-138404510D01*
X76841964Y-138392054D01*
X76900216Y-138389855D01*
X76947843Y-138391687D01*
X76977885Y-138398282D01*
X76995471Y-138412204D01*
X77006095Y-138432354D01*
X77378321Y-139549765D01*
X77377589Y-139549765D01*
X77739190Y-138435284D01*
X77747983Y-138413303D01*
X77766668Y-138398282D01*
X77799274Y-138391321D01*
X77850565Y-138389855D01*
X77904054Y-138392786D01*
X77935195Y-138406342D01*
X77943255Y-138434185D01*
X77932631Y-138475218D01*
X77497756Y-139705103D01*
G37*
G36*
X79126245Y-138561314D02*
G01*
X79124047Y-138596485D01*
X79116354Y-138624328D01*
X79102065Y-138641914D01*
X79082648Y-138647776D01*
X79036853Y-138628725D01*
X78970896Y-138593422D01*
X78959183Y-138588058D01*
X78888626Y-138561266D01*
X78845244Y-138548491D01*
X78772887Y-138535027D01*
X78699056Y-138530609D01*
X78687707Y-138530539D01*
X78610067Y-138536103D01*
X78538712Y-138552796D01*
X78494633Y-138570107D01*
X78429806Y-138607334D01*
X78373444Y-138654720D01*
X78350286Y-138680016D01*
X78306598Y-138741583D01*
X78271980Y-138811977D01*
X78259061Y-138847444D01*
X78239861Y-138922629D01*
X78230046Y-138995712D01*
X78227554Y-139058470D01*
X78230953Y-139135292D01*
X78242543Y-139213185D01*
X78262358Y-139284151D01*
X78292171Y-139353411D01*
X78332841Y-139418559D01*
X78358346Y-139449381D01*
X78416369Y-139501874D01*
X78483368Y-139542025D01*
X78504159Y-139551230D01*
X78575763Y-139573527D01*
X78653050Y-139584458D01*
X78690638Y-139585668D01*
X78766773Y-139580087D01*
X78813004Y-139571380D01*
X78884846Y-139548769D01*
X78922181Y-139531080D01*
X78922181Y-139163617D01*
X78625059Y-139163617D01*
X78589155Y-139142368D01*
X78578164Y-139081917D01*
X78580363Y-139047479D01*
X78588423Y-139021834D01*
X78603077Y-139005347D01*
X78625059Y-138999485D01*
X79048210Y-138999485D01*
X79074954Y-139004615D01*
X79099501Y-139019269D01*
X79116720Y-139046014D01*
X79122948Y-139083383D01*
X79122948Y-139592996D01*
X79111957Y-139645386D01*
X79069459Y-139684220D01*
X79001338Y-139713472D01*
X78989592Y-139717926D01*
X78918897Y-139740745D01*
X78890307Y-139748334D01*
X78816346Y-139763023D01*
X78786992Y-139767019D01*
X78712587Y-139772754D01*
X78683677Y-139773247D01*
X78607336Y-139770179D01*
X78526379Y-139759392D01*
X78450638Y-139740838D01*
X78403042Y-139724154D01*
X78336401Y-139693029D01*
X78269425Y-139650697D01*
X78209891Y-139600208D01*
X78193482Y-139583470D01*
X78143873Y-139522984D01*
X78102206Y-139455557D01*
X78071497Y-139388939D01*
X78062690Y-139365483D01*
X78040907Y-139291684D01*
X78026252Y-139213306D01*
X78019211Y-139139793D01*
X78017627Y-139082284D01*
X78020673Y-139003035D01*
X78029809Y-138927586D01*
X78047367Y-138847251D01*
X78066354Y-138788093D01*
X78096921Y-138716770D01*
X78133806Y-138651591D01*
X78182199Y-138586375D01*
X78203740Y-138562413D01*
X78262659Y-138508138D01*
X78328590Y-138462092D01*
X78393924Y-138427686D01*
X78416964Y-138417699D01*
X78489089Y-138392905D01*
X78565329Y-138376225D01*
X78645684Y-138367660D01*
X78692104Y-138366408D01*
X78767025Y-138369431D01*
X78837184Y-138378498D01*
X78908977Y-138393374D01*
X78958084Y-138406708D01*
X79028151Y-138432949D01*
X79047477Y-138442612D01*
X79099134Y-138475585D01*
X79120384Y-138508191D01*
X79126245Y-138561314D01*
G37*
G36*
X79923088Y-138391687D02*
G01*
X79961190Y-138398282D01*
X79985736Y-138412936D01*
X79999658Y-138436384D01*
X80446989Y-139665902D01*
X80456514Y-139707668D01*
X80445157Y-139735145D01*
X80412184Y-139747601D01*
X80358695Y-139749800D01*
X80306305Y-139748334D01*
X80273698Y-139742472D01*
X80255380Y-139729649D01*
X80244756Y-139710965D01*
X80133014Y-139398090D01*
X79595558Y-139398090D01*
X79488580Y-139706202D01*
X79478321Y-139725986D01*
X79459637Y-139739908D01*
X79428496Y-139747601D01*
X79379769Y-139749800D01*
X79328112Y-139746869D01*
X79295506Y-139734046D01*
X79284881Y-139706569D01*
X79294773Y-139664803D01*
X79451443Y-139233959D01*
X79647948Y-139233959D01*
X80078426Y-139233959D01*
X79861725Y-138592261D01*
X79647948Y-139233959D01*
X79451443Y-139233959D01*
X79741737Y-138435651D01*
X79755293Y-138412570D01*
X79778740Y-138398282D01*
X79815010Y-138391687D01*
X79867400Y-138389855D01*
X79923088Y-138391687D01*
G37*
G36*
X82099291Y-139705469D02*
G01*
X82092697Y-139726352D01*
X82074012Y-139739908D01*
X82043238Y-139747235D01*
X82000007Y-139749800D01*
X81954944Y-139747235D01*
X81924902Y-139740274D01*
X81905851Y-139726719D01*
X81899623Y-139705836D01*
X81899623Y-139140169D01*
X81316371Y-139140169D01*
X81316371Y-139705836D01*
X81309776Y-139726719D01*
X81291092Y-139740274D01*
X81260317Y-139747235D01*
X81215987Y-139749800D01*
X81171657Y-139747235D01*
X81140883Y-139739908D01*
X81121832Y-139726352D01*
X81115603Y-139705469D01*
X81115603Y-138434185D01*
X81121832Y-138413303D01*
X81140883Y-138399747D01*
X81171657Y-138392786D01*
X81215987Y-138389855D01*
X81260317Y-138392786D01*
X81291092Y-138399747D01*
X81309776Y-138413303D01*
X81316371Y-138434185D01*
X81316371Y-138952591D01*
X81899623Y-138952591D01*
X81899623Y-138434185D01*
X81905851Y-138413303D01*
X81924902Y-138399747D01*
X81954944Y-138392786D01*
X82000007Y-138389855D01*
X82043238Y-138392786D01*
X82074012Y-138399747D01*
X82092697Y-138413303D01*
X82099291Y-138434185D01*
X82099291Y-139705469D01*
G37*
G36*
X82825611Y-138721987D02*
G01*
X82898500Y-138734810D01*
X82921779Y-138741565D01*
X82990812Y-138772888D01*
X83039016Y-138811174D01*
X83084051Y-138873177D01*
X83104595Y-138924381D01*
X83119982Y-138996829D01*
X83125091Y-139074565D01*
X83125111Y-139080086D01*
X83125111Y-139706935D01*
X83113388Y-139734046D01*
X83085544Y-139746502D01*
X83040481Y-139749800D01*
X82993953Y-139746502D01*
X82965743Y-139734046D01*
X82955485Y-139706935D01*
X82955485Y-139643920D01*
X82897370Y-139693689D01*
X82836783Y-139731115D01*
X82767640Y-139759916D01*
X82694851Y-139772589D01*
X82673384Y-139773247D01*
X82597697Y-139767457D01*
X82537097Y-139752730D01*
X82467488Y-139720244D01*
X82432317Y-139693746D01*
X82383457Y-139634879D01*
X82364539Y-139598125D01*
X82344350Y-139525701D01*
X82340359Y-139469897D01*
X82340723Y-139466234D01*
X82537830Y-139466234D01*
X82554287Y-139537760D01*
X82579961Y-139570647D01*
X82646651Y-139603706D01*
X82700129Y-139609116D01*
X82772729Y-139597879D01*
X82818831Y-139577242D01*
X82878540Y-139534095D01*
X82932770Y-139481254D01*
X82932770Y-139304301D01*
X82799047Y-139304301D01*
X82724279Y-139308304D01*
X82680712Y-139315658D01*
X82611596Y-139340290D01*
X82599012Y-139347898D01*
X82552484Y-139398456D01*
X82537830Y-139466234D01*
X82340723Y-139466234D01*
X82347685Y-139396256D01*
X82373698Y-139324084D01*
X82417186Y-139264010D01*
X82468953Y-139221136D01*
X82537372Y-139185415D01*
X82607907Y-139162875D01*
X82618796Y-139160319D01*
X82694042Y-139147273D01*
X82769724Y-139141134D01*
X82816633Y-139140169D01*
X82932770Y-139140169D01*
X82932770Y-139081917D01*
X82925514Y-139008579D01*
X82921779Y-138993990D01*
X82887707Y-138932074D01*
X82826891Y-138895072D01*
X82752994Y-138882700D01*
X82732369Y-138882249D01*
X82657431Y-138888402D01*
X82622460Y-138896537D01*
X82551019Y-138921690D01*
X82536730Y-138928044D01*
X82473349Y-138960651D01*
X82431584Y-138976038D01*
X82411067Y-138970543D01*
X82396047Y-138955155D01*
X82387987Y-138931342D01*
X82385788Y-138901666D01*
X82389818Y-138859534D01*
X82409968Y-138828393D01*
X82460527Y-138793955D01*
X82526562Y-138762203D01*
X82540394Y-138756952D01*
X82613072Y-138734970D01*
X82639312Y-138729109D01*
X82713710Y-138719191D01*
X82747756Y-138718118D01*
X82825611Y-138721987D01*
G37*
G36*
X83895209Y-139653812D02*
G01*
X83890446Y-139703638D01*
X83875425Y-139732580D01*
X83847215Y-139750166D01*
X83807282Y-139762622D01*
X83761120Y-139770316D01*
X83712393Y-139773247D01*
X83639163Y-139767560D01*
X83584166Y-139753097D01*
X83519119Y-139715347D01*
X83495506Y-139691548D01*
X83458029Y-139628376D01*
X83444947Y-139588233D01*
X83432505Y-139511674D01*
X83429560Y-139443153D01*
X83429560Y-138905696D01*
X83311591Y-138905696D01*
X83277519Y-138884813D01*
X83265795Y-138823997D01*
X83268360Y-138788826D01*
X83276786Y-138763181D01*
X83291807Y-138747060D01*
X83312690Y-138741565D01*
X83429560Y-138741565D01*
X83429560Y-138529074D01*
X83434689Y-138509656D01*
X83452275Y-138494269D01*
X83482317Y-138485843D01*
X83525914Y-138483645D01*
X83569878Y-138485843D01*
X83599553Y-138493903D01*
X83617139Y-138509290D01*
X83623000Y-138529074D01*
X83623000Y-138741565D01*
X83849414Y-138741565D01*
X83869930Y-138747060D01*
X83884585Y-138763181D01*
X83893011Y-138789192D01*
X83895209Y-138823997D01*
X83883485Y-138884813D01*
X83849414Y-138905696D01*
X83623000Y-138905696D01*
X83623000Y-139422636D01*
X83627979Y-139496517D01*
X83649012Y-139563686D01*
X83710699Y-139606276D01*
X83741336Y-139609116D01*
X83780903Y-139604719D01*
X83812411Y-139595560D01*
X83837690Y-139585302D01*
X83859672Y-139580173D01*
X83875792Y-139584936D01*
X83887149Y-139599224D01*
X83893011Y-139621938D01*
X83895209Y-139653812D01*
G37*
D12*
X51559783Y-171654788D02*
X52059783Y-173154788D01*
X52059783Y-173154788D02*
X52559783Y-171654788D01*
X53631211Y-173083360D02*
X53488354Y-173154788D01*
X53488354Y-173154788D02*
X53202640Y-173154788D01*
X53202640Y-173154788D02*
X53059782Y-173083360D01*
X53059782Y-173083360D02*
X52988354Y-172940502D01*
X52988354Y-172940502D02*
X52988354Y-172369074D01*
X52988354Y-172369074D02*
X53059782Y-172226217D01*
X53059782Y-172226217D02*
X53202640Y-172154788D01*
X53202640Y-172154788D02*
X53488354Y-172154788D01*
X53488354Y-172154788D02*
X53631211Y-172226217D01*
X53631211Y-172226217D02*
X53702640Y-172369074D01*
X53702640Y-172369074D02*
X53702640Y-172511931D01*
X53702640Y-172511931D02*
X52988354Y-172654788D01*
X54345496Y-173154788D02*
X54345496Y-172154788D01*
X54345496Y-172440502D02*
X54416925Y-172297645D01*
X54416925Y-172297645D02*
X54488354Y-172226217D01*
X54488354Y-172226217D02*
X54631211Y-172154788D01*
X54631211Y-172154788D02*
X54774068Y-172154788D01*
X55059782Y-172154788D02*
X55631210Y-172154788D01*
X55274067Y-171654788D02*
X55274067Y-172940502D01*
X55274067Y-172940502D02*
X55345496Y-173083360D01*
X55345496Y-173083360D02*
X55488353Y-173154788D01*
X55488353Y-173154788D02*
X55631210Y-173154788D01*
X56131210Y-173154788D02*
X56131210Y-172154788D01*
X56131210Y-171654788D02*
X56059782Y-171726217D01*
X56059782Y-171726217D02*
X56131210Y-171797645D01*
X56131210Y-171797645D02*
X56202639Y-171726217D01*
X56202639Y-171726217D02*
X56131210Y-171654788D01*
X56131210Y-171654788D02*
X56131210Y-171797645D01*
X57488354Y-173083360D02*
X57345496Y-173154788D01*
X57345496Y-173154788D02*
X57059782Y-173154788D01*
X57059782Y-173154788D02*
X56916925Y-173083360D01*
X56916925Y-173083360D02*
X56845496Y-173011931D01*
X56845496Y-173011931D02*
X56774068Y-172869074D01*
X56774068Y-172869074D02*
X56774068Y-172440502D01*
X56774068Y-172440502D02*
X56845496Y-172297645D01*
X56845496Y-172297645D02*
X56916925Y-172226217D01*
X56916925Y-172226217D02*
X57059782Y-172154788D01*
X57059782Y-172154788D02*
X57345496Y-172154788D01*
X57345496Y-172154788D02*
X57488354Y-172226217D01*
X58774068Y-173154788D02*
X58774068Y-172369074D01*
X58774068Y-172369074D02*
X58702639Y-172226217D01*
X58702639Y-172226217D02*
X58559782Y-172154788D01*
X58559782Y-172154788D02*
X58274068Y-172154788D01*
X58274068Y-172154788D02*
X58131210Y-172226217D01*
X58774068Y-173083360D02*
X58631210Y-173154788D01*
X58631210Y-173154788D02*
X58274068Y-173154788D01*
X58274068Y-173154788D02*
X58131210Y-173083360D01*
X58131210Y-173083360D02*
X58059782Y-172940502D01*
X58059782Y-172940502D02*
X58059782Y-172797645D01*
X58059782Y-172797645D02*
X58131210Y-172654788D01*
X58131210Y-172654788D02*
X58274068Y-172583360D01*
X58274068Y-172583360D02*
X58631210Y-172583360D01*
X58631210Y-172583360D02*
X58774068Y-172511931D01*
X59702639Y-173154788D02*
X59559782Y-173083360D01*
X59559782Y-173083360D02*
X59488353Y-172940502D01*
X59488353Y-172940502D02*
X59488353Y-171654788D01*
X61202639Y-171654788D02*
X62059782Y-171654788D01*
X61631210Y-173154788D02*
X61631210Y-171654788D01*
X62559781Y-173154788D02*
X62559781Y-172154788D01*
X62559781Y-171654788D02*
X62488353Y-171726217D01*
X62488353Y-171726217D02*
X62559781Y-171797645D01*
X62559781Y-171797645D02*
X62631210Y-171726217D01*
X62631210Y-171726217D02*
X62559781Y-171654788D01*
X62559781Y-171654788D02*
X62559781Y-171797645D01*
X63274067Y-173154788D02*
X63274067Y-172154788D01*
X63274067Y-172297645D02*
X63345496Y-172226217D01*
X63345496Y-172226217D02*
X63488353Y-172154788D01*
X63488353Y-172154788D02*
X63702639Y-172154788D01*
X63702639Y-172154788D02*
X63845496Y-172226217D01*
X63845496Y-172226217D02*
X63916925Y-172369074D01*
X63916925Y-172369074D02*
X63916925Y-173154788D01*
X63916925Y-172369074D02*
X63988353Y-172226217D01*
X63988353Y-172226217D02*
X64131210Y-172154788D01*
X64131210Y-172154788D02*
X64345496Y-172154788D01*
X64345496Y-172154788D02*
X64488353Y-172226217D01*
X64488353Y-172226217D02*
X64559782Y-172369074D01*
X64559782Y-172369074D02*
X64559782Y-173154788D01*
X65274067Y-173154788D02*
X65274067Y-172154788D01*
X65274067Y-171654788D02*
X65202639Y-171726217D01*
X65202639Y-171726217D02*
X65274067Y-171797645D01*
X65274067Y-171797645D02*
X65345496Y-171726217D01*
X65345496Y-171726217D02*
X65274067Y-171654788D01*
X65274067Y-171654788D02*
X65274067Y-171797645D01*
X65988353Y-172154788D02*
X65988353Y-173154788D01*
X65988353Y-172297645D02*
X66059782Y-172226217D01*
X66059782Y-172226217D02*
X66202639Y-172154788D01*
X66202639Y-172154788D02*
X66416925Y-172154788D01*
X66416925Y-172154788D02*
X66559782Y-172226217D01*
X66559782Y-172226217D02*
X66631211Y-172369074D01*
X66631211Y-172369074D02*
X66631211Y-173154788D01*
X67988354Y-172154788D02*
X67988354Y-173369074D01*
X67988354Y-173369074D02*
X67916925Y-173511931D01*
X67916925Y-173511931D02*
X67845496Y-173583360D01*
X67845496Y-173583360D02*
X67702639Y-173654788D01*
X67702639Y-173654788D02*
X67488354Y-173654788D01*
X67488354Y-173654788D02*
X67345496Y-173583360D01*
X67988354Y-173083360D02*
X67845496Y-173154788D01*
X67845496Y-173154788D02*
X67559782Y-173154788D01*
X67559782Y-173154788D02*
X67416925Y-173083360D01*
X67416925Y-173083360D02*
X67345496Y-173011931D01*
X67345496Y-173011931D02*
X67274068Y-172869074D01*
X67274068Y-172869074D02*
X67274068Y-172440502D01*
X67274068Y-172440502D02*
X67345496Y-172297645D01*
X67345496Y-172297645D02*
X67416925Y-172226217D01*
X67416925Y-172226217D02*
X67559782Y-172154788D01*
X67559782Y-172154788D02*
X67845496Y-172154788D01*
X67845496Y-172154788D02*
X67988354Y-172226217D01*
X69845496Y-173154788D02*
X69845496Y-171654788D01*
X69845496Y-171654788D02*
X70416925Y-171654788D01*
X70416925Y-171654788D02*
X70559782Y-171726217D01*
X70559782Y-171726217D02*
X70631211Y-171797645D01*
X70631211Y-171797645D02*
X70702639Y-171940502D01*
X70702639Y-171940502D02*
X70702639Y-172154788D01*
X70702639Y-172154788D02*
X70631211Y-172297645D01*
X70631211Y-172297645D02*
X70559782Y-172369074D01*
X70559782Y-172369074D02*
X70416925Y-172440502D01*
X70416925Y-172440502D02*
X69845496Y-172440502D01*
X72059782Y-173154788D02*
X71345496Y-173154788D01*
X71345496Y-173154788D02*
X71345496Y-171654788D01*
X72559782Y-173154788D02*
X72559782Y-171654788D01*
X72559782Y-171654788D02*
X72916925Y-171654788D01*
X72916925Y-171654788D02*
X73131211Y-171726217D01*
X73131211Y-171726217D02*
X73274068Y-171869074D01*
X73274068Y-171869074D02*
X73345497Y-172011931D01*
X73345497Y-172011931D02*
X73416925Y-172297645D01*
X73416925Y-172297645D02*
X73416925Y-172511931D01*
X73416925Y-172511931D02*
X73345497Y-172797645D01*
X73345497Y-172797645D02*
X73274068Y-172940502D01*
X73274068Y-172940502D02*
X73131211Y-173083360D01*
X73131211Y-173083360D02*
X72916925Y-173154788D01*
X72916925Y-173154788D02*
X72559782Y-173154788D01*
D14*
X102484819Y-160071904D02*
X103294342Y-160071904D01*
X103294342Y-160071904D02*
X103389580Y-160024285D01*
X103389580Y-160024285D02*
X103437200Y-159976666D01*
X103437200Y-159976666D02*
X103484819Y-159881428D01*
X103484819Y-159881428D02*
X103484819Y-159690952D01*
X103484819Y-159690952D02*
X103437200Y-159595714D01*
X103437200Y-159595714D02*
X103389580Y-159548095D01*
X103389580Y-159548095D02*
X103294342Y-159500476D01*
X103294342Y-159500476D02*
X102484819Y-159500476D01*
X102484819Y-159119523D02*
X102484819Y-158452857D01*
X102484819Y-158452857D02*
X103484819Y-158881428D01*
X33886666Y-132044819D02*
X33886666Y-132759104D01*
X33886666Y-132759104D02*
X33839047Y-132901961D01*
X33839047Y-132901961D02*
X33743809Y-132997200D01*
X33743809Y-132997200D02*
X33600952Y-133044819D01*
X33600952Y-133044819D02*
X33505714Y-133044819D01*
X34315238Y-132140057D02*
X34362857Y-132092438D01*
X34362857Y-132092438D02*
X34458095Y-132044819D01*
X34458095Y-132044819D02*
X34696190Y-132044819D01*
X34696190Y-132044819D02*
X34791428Y-132092438D01*
X34791428Y-132092438D02*
X34839047Y-132140057D01*
X34839047Y-132140057D02*
X34886666Y-132235295D01*
X34886666Y-132235295D02*
X34886666Y-132330533D01*
X34886666Y-132330533D02*
X34839047Y-132473390D01*
X34839047Y-132473390D02*
X34267619Y-133044819D01*
X34267619Y-133044819D02*
X34886666Y-133044819D01*
X46802066Y-182608419D02*
X46802066Y-183322704D01*
X46802066Y-183322704D02*
X46754447Y-183465561D01*
X46754447Y-183465561D02*
X46659209Y-183560800D01*
X46659209Y-183560800D02*
X46516352Y-183608419D01*
X46516352Y-183608419D02*
X46421114Y-183608419D01*
X47754447Y-182608419D02*
X47278257Y-182608419D01*
X47278257Y-182608419D02*
X47230638Y-183084609D01*
X47230638Y-183084609D02*
X47278257Y-183036990D01*
X47278257Y-183036990D02*
X47373495Y-182989371D01*
X47373495Y-182989371D02*
X47611590Y-182989371D01*
X47611590Y-182989371D02*
X47706828Y-183036990D01*
X47706828Y-183036990D02*
X47754447Y-183084609D01*
X47754447Y-183084609D02*
X47802066Y-183179847D01*
X47802066Y-183179847D02*
X47802066Y-183417942D01*
X47802066Y-183417942D02*
X47754447Y-183513180D01*
X47754447Y-183513180D02*
X47706828Y-183560800D01*
X47706828Y-183560800D02*
X47611590Y-183608419D01*
X47611590Y-183608419D02*
X47373495Y-183608419D01*
X47373495Y-183608419D02*
X47278257Y-183560800D01*
X47278257Y-183560800D02*
X47230638Y-183513180D01*
X102154819Y-154013094D02*
X102964342Y-154013094D01*
X102964342Y-154013094D02*
X103059580Y-153965475D01*
X103059580Y-153965475D02*
X103107200Y-153917856D01*
X103107200Y-153917856D02*
X103154819Y-153822618D01*
X103154819Y-153822618D02*
X103154819Y-153632142D01*
X103154819Y-153632142D02*
X103107200Y-153536904D01*
X103107200Y-153536904D02*
X103059580Y-153489285D01*
X103059580Y-153489285D02*
X102964342Y-153441666D01*
X102964342Y-153441666D02*
X102154819Y-153441666D01*
X103154819Y-152441666D02*
X103154819Y-153013094D01*
X103154819Y-152727380D02*
X102154819Y-152727380D01*
X102154819Y-152727380D02*
X102297676Y-152822618D01*
X102297676Y-152822618D02*
X102392914Y-152917856D01*
X102392914Y-152917856D02*
X102440533Y-153013094D01*
X102154819Y-151822618D02*
X102154819Y-151727380D01*
X102154819Y-151727380D02*
X102202438Y-151632142D01*
X102202438Y-151632142D02*
X102250057Y-151584523D01*
X102250057Y-151584523D02*
X102345295Y-151536904D01*
X102345295Y-151536904D02*
X102535771Y-151489285D01*
X102535771Y-151489285D02*
X102773866Y-151489285D01*
X102773866Y-151489285D02*
X102964342Y-151536904D01*
X102964342Y-151536904D02*
X103059580Y-151584523D01*
X103059580Y-151584523D02*
X103107200Y-151632142D01*
X103107200Y-151632142D02*
X103154819Y-151727380D01*
X103154819Y-151727380D02*
X103154819Y-151822618D01*
X103154819Y-151822618D02*
X103107200Y-151917856D01*
X103107200Y-151917856D02*
X103059580Y-151965475D01*
X103059580Y-151965475D02*
X102964342Y-152013094D01*
X102964342Y-152013094D02*
X102773866Y-152060713D01*
X102773866Y-152060713D02*
X102535771Y-152060713D01*
X102535771Y-152060713D02*
X102345295Y-152013094D01*
X102345295Y-152013094D02*
X102250057Y-151965475D01*
X102250057Y-151965475D02*
X102202438Y-151917856D01*
X102202438Y-151917856D02*
X102154819Y-151822618D01*
X44360119Y-140872133D02*
X45074404Y-140872133D01*
X45074404Y-140872133D02*
X45217261Y-140919752D01*
X45217261Y-140919752D02*
X45312500Y-141014990D01*
X45312500Y-141014990D02*
X45360119Y-141157847D01*
X45360119Y-141157847D02*
X45360119Y-141253085D01*
X44360119Y-140491180D02*
X44360119Y-139872133D01*
X44360119Y-139872133D02*
X44741071Y-140205466D01*
X44741071Y-140205466D02*
X44741071Y-140062609D01*
X44741071Y-140062609D02*
X44788690Y-139967371D01*
X44788690Y-139967371D02*
X44836309Y-139919752D01*
X44836309Y-139919752D02*
X44931547Y-139872133D01*
X44931547Y-139872133D02*
X45169642Y-139872133D01*
X45169642Y-139872133D02*
X45264880Y-139919752D01*
X45264880Y-139919752D02*
X45312500Y-139967371D01*
X45312500Y-139967371D02*
X45360119Y-140062609D01*
X45360119Y-140062609D02*
X45360119Y-140348323D01*
X45360119Y-140348323D02*
X45312500Y-140443561D01*
X45312500Y-140443561D02*
X45264880Y-140491180D01*
X79860876Y-177432619D02*
X80527542Y-178432619D01*
X80527542Y-177432619D02*
X79860876Y-178432619D01*
X81432304Y-178432619D02*
X80860876Y-178432619D01*
X81146590Y-178432619D02*
X81146590Y-177432619D01*
X81146590Y-177432619D02*
X81051352Y-177575476D01*
X81051352Y-177575476D02*
X80956114Y-177670714D01*
X80956114Y-177670714D02*
X80860876Y-177718333D01*
X47010419Y-159791304D02*
X47819942Y-159791304D01*
X47819942Y-159791304D02*
X47915180Y-159743685D01*
X47915180Y-159743685D02*
X47962800Y-159696066D01*
X47962800Y-159696066D02*
X48010419Y-159600828D01*
X48010419Y-159600828D02*
X48010419Y-159410352D01*
X48010419Y-159410352D02*
X47962800Y-159315114D01*
X47962800Y-159315114D02*
X47915180Y-159267495D01*
X47915180Y-159267495D02*
X47819942Y-159219876D01*
X47819942Y-159219876D02*
X47010419Y-159219876D01*
X47438990Y-158600828D02*
X47391371Y-158696066D01*
X47391371Y-158696066D02*
X47343752Y-158743685D01*
X47343752Y-158743685D02*
X47248514Y-158791304D01*
X47248514Y-158791304D02*
X47200895Y-158791304D01*
X47200895Y-158791304D02*
X47105657Y-158743685D01*
X47105657Y-158743685D02*
X47058038Y-158696066D01*
X47058038Y-158696066D02*
X47010419Y-158600828D01*
X47010419Y-158600828D02*
X47010419Y-158410352D01*
X47010419Y-158410352D02*
X47058038Y-158315114D01*
X47058038Y-158315114D02*
X47105657Y-158267495D01*
X47105657Y-158267495D02*
X47200895Y-158219876D01*
X47200895Y-158219876D02*
X47248514Y-158219876D01*
X47248514Y-158219876D02*
X47343752Y-158267495D01*
X47343752Y-158267495D02*
X47391371Y-158315114D01*
X47391371Y-158315114D02*
X47438990Y-158410352D01*
X47438990Y-158410352D02*
X47438990Y-158600828D01*
X47438990Y-158600828D02*
X47486609Y-158696066D01*
X47486609Y-158696066D02*
X47534228Y-158743685D01*
X47534228Y-158743685D02*
X47629466Y-158791304D01*
X47629466Y-158791304D02*
X47819942Y-158791304D01*
X47819942Y-158791304D02*
X47915180Y-158743685D01*
X47915180Y-158743685D02*
X47962800Y-158696066D01*
X47962800Y-158696066D02*
X48010419Y-158600828D01*
X48010419Y-158600828D02*
X48010419Y-158410352D01*
X48010419Y-158410352D02*
X47962800Y-158315114D01*
X47962800Y-158315114D02*
X47915180Y-158267495D01*
X47915180Y-158267495D02*
X47819942Y-158219876D01*
X47819942Y-158219876D02*
X47629466Y-158219876D01*
X47629466Y-158219876D02*
X47534228Y-158267495D01*
X47534228Y-158267495D02*
X47486609Y-158315114D01*
X47486609Y-158315114D02*
X47438990Y-158410352D01*
X26998705Y-183665019D02*
X26998705Y-182665019D01*
X26998705Y-182665019D02*
X27236800Y-182665019D01*
X27236800Y-182665019D02*
X27379657Y-182712638D01*
X27379657Y-182712638D02*
X27474895Y-182807876D01*
X27474895Y-182807876D02*
X27522514Y-182903114D01*
X27522514Y-182903114D02*
X27570133Y-183093590D01*
X27570133Y-183093590D02*
X27570133Y-183236447D01*
X27570133Y-183236447D02*
X27522514Y-183426923D01*
X27522514Y-183426923D02*
X27474895Y-183522161D01*
X27474895Y-183522161D02*
X27379657Y-183617400D01*
X27379657Y-183617400D02*
X27236800Y-183665019D01*
X27236800Y-183665019D02*
X26998705Y-183665019D01*
X28189181Y-182665019D02*
X28284419Y-182665019D01*
X28284419Y-182665019D02*
X28379657Y-182712638D01*
X28379657Y-182712638D02*
X28427276Y-182760257D01*
X28427276Y-182760257D02*
X28474895Y-182855495D01*
X28474895Y-182855495D02*
X28522514Y-183045971D01*
X28522514Y-183045971D02*
X28522514Y-183284066D01*
X28522514Y-183284066D02*
X28474895Y-183474542D01*
X28474895Y-183474542D02*
X28427276Y-183569780D01*
X28427276Y-183569780D02*
X28379657Y-183617400D01*
X28379657Y-183617400D02*
X28284419Y-183665019D01*
X28284419Y-183665019D02*
X28189181Y-183665019D01*
X28189181Y-183665019D02*
X28093943Y-183617400D01*
X28093943Y-183617400D02*
X28046324Y-183569780D01*
X28046324Y-183569780D02*
X27998705Y-183474542D01*
X27998705Y-183474542D02*
X27951086Y-183284066D01*
X27951086Y-183284066D02*
X27951086Y-183045971D01*
X27951086Y-183045971D02*
X27998705Y-182855495D01*
X27998705Y-182855495D02*
X28046324Y-182760257D01*
X28046324Y-182760257D02*
X28093943Y-182712638D01*
X28093943Y-182712638D02*
X28189181Y-182665019D01*
X103280619Y-174215904D02*
X104090142Y-174215904D01*
X104090142Y-174215904D02*
X104185380Y-174168285D01*
X104185380Y-174168285D02*
X104233000Y-174120666D01*
X104233000Y-174120666D02*
X104280619Y-174025428D01*
X104280619Y-174025428D02*
X104280619Y-173834952D01*
X104280619Y-173834952D02*
X104233000Y-173739714D01*
X104233000Y-173739714D02*
X104185380Y-173692095D01*
X104185380Y-173692095D02*
X104090142Y-173644476D01*
X104090142Y-173644476D02*
X103280619Y-173644476D01*
X103375857Y-173215904D02*
X103328238Y-173168285D01*
X103328238Y-173168285D02*
X103280619Y-173073047D01*
X103280619Y-173073047D02*
X103280619Y-172834952D01*
X103280619Y-172834952D02*
X103328238Y-172739714D01*
X103328238Y-172739714D02*
X103375857Y-172692095D01*
X103375857Y-172692095D02*
X103471095Y-172644476D01*
X103471095Y-172644476D02*
X103566333Y-172644476D01*
X103566333Y-172644476D02*
X103709190Y-172692095D01*
X103709190Y-172692095D02*
X104280619Y-173263523D01*
X104280619Y-173263523D02*
X104280619Y-172644476D01*
X92070305Y-135271819D02*
X92070305Y-136081342D01*
X92070305Y-136081342D02*
X92117924Y-136176580D01*
X92117924Y-136176580D02*
X92165543Y-136224200D01*
X92165543Y-136224200D02*
X92260781Y-136271819D01*
X92260781Y-136271819D02*
X92451257Y-136271819D01*
X92451257Y-136271819D02*
X92546495Y-136224200D01*
X92546495Y-136224200D02*
X92594114Y-136176580D01*
X92594114Y-136176580D02*
X92641733Y-136081342D01*
X92641733Y-136081342D02*
X92641733Y-135271819D01*
X93641733Y-136271819D02*
X93070305Y-136271819D01*
X93356019Y-136271819D02*
X93356019Y-135271819D01*
X93356019Y-135271819D02*
X93260781Y-135414676D01*
X93260781Y-135414676D02*
X93165543Y-135509914D01*
X93165543Y-135509914D02*
X93070305Y-135557533D01*
X94117924Y-136271819D02*
X94308400Y-136271819D01*
X94308400Y-136271819D02*
X94403638Y-136224200D01*
X94403638Y-136224200D02*
X94451257Y-136176580D01*
X94451257Y-136176580D02*
X94546495Y-136033723D01*
X94546495Y-136033723D02*
X94594114Y-135843247D01*
X94594114Y-135843247D02*
X94594114Y-135462295D01*
X94594114Y-135462295D02*
X94546495Y-135367057D01*
X94546495Y-135367057D02*
X94498876Y-135319438D01*
X94498876Y-135319438D02*
X94403638Y-135271819D01*
X94403638Y-135271819D02*
X94213162Y-135271819D01*
X94213162Y-135271819D02*
X94117924Y-135319438D01*
X94117924Y-135319438D02*
X94070305Y-135367057D01*
X94070305Y-135367057D02*
X94022686Y-135462295D01*
X94022686Y-135462295D02*
X94022686Y-135700390D01*
X94022686Y-135700390D02*
X94070305Y-135795628D01*
X94070305Y-135795628D02*
X94117924Y-135843247D01*
X94117924Y-135843247D02*
X94213162Y-135890866D01*
X94213162Y-135890866D02*
X94403638Y-135890866D01*
X94403638Y-135890866D02*
X94498876Y-135843247D01*
X94498876Y-135843247D02*
X94546495Y-135795628D01*
X94546495Y-135795628D02*
X94594114Y-135700390D01*
X80582419Y-148640704D02*
X81391942Y-148640704D01*
X81391942Y-148640704D02*
X81487180Y-148593085D01*
X81487180Y-148593085D02*
X81534800Y-148545466D01*
X81534800Y-148545466D02*
X81582419Y-148450228D01*
X81582419Y-148450228D02*
X81582419Y-148259752D01*
X81582419Y-148259752D02*
X81534800Y-148164514D01*
X81534800Y-148164514D02*
X81487180Y-148116895D01*
X81487180Y-148116895D02*
X81391942Y-148069276D01*
X81391942Y-148069276D02*
X80582419Y-148069276D01*
X80582419Y-147116895D02*
X80582419Y-147593085D01*
X80582419Y-147593085D02*
X81058609Y-147640704D01*
X81058609Y-147640704D02*
X81010990Y-147593085D01*
X81010990Y-147593085D02*
X80963371Y-147497847D01*
X80963371Y-147497847D02*
X80963371Y-147259752D01*
X80963371Y-147259752D02*
X81010990Y-147164514D01*
X81010990Y-147164514D02*
X81058609Y-147116895D01*
X81058609Y-147116895D02*
X81153847Y-147069276D01*
X81153847Y-147069276D02*
X81391942Y-147069276D01*
X81391942Y-147069276D02*
X81487180Y-147116895D01*
X81487180Y-147116895D02*
X81534800Y-147164514D01*
X81534800Y-147164514D02*
X81582419Y-147259752D01*
X81582419Y-147259752D02*
X81582419Y-147497847D01*
X81582419Y-147497847D02*
X81534800Y-147593085D01*
X81534800Y-147593085D02*
X81487180Y-147640704D01*
X106036419Y-152052094D02*
X106845942Y-152052094D01*
X106845942Y-152052094D02*
X106941180Y-152004475D01*
X106941180Y-152004475D02*
X106988800Y-151956856D01*
X106988800Y-151956856D02*
X107036419Y-151861618D01*
X107036419Y-151861618D02*
X107036419Y-151671142D01*
X107036419Y-151671142D02*
X106988800Y-151575904D01*
X106988800Y-151575904D02*
X106941180Y-151528285D01*
X106941180Y-151528285D02*
X106845942Y-151480666D01*
X106845942Y-151480666D02*
X106036419Y-151480666D01*
X107036419Y-150480666D02*
X107036419Y-151052094D01*
X107036419Y-150766380D02*
X106036419Y-150766380D01*
X106036419Y-150766380D02*
X106179276Y-150861618D01*
X106179276Y-150861618D02*
X106274514Y-150956856D01*
X106274514Y-150956856D02*
X106322133Y-151052094D01*
X106036419Y-149623523D02*
X106036419Y-149813999D01*
X106036419Y-149813999D02*
X106084038Y-149909237D01*
X106084038Y-149909237D02*
X106131657Y-149956856D01*
X106131657Y-149956856D02*
X106274514Y-150052094D01*
X106274514Y-150052094D02*
X106464990Y-150099713D01*
X106464990Y-150099713D02*
X106845942Y-150099713D01*
X106845942Y-150099713D02*
X106941180Y-150052094D01*
X106941180Y-150052094D02*
X106988800Y-150004475D01*
X106988800Y-150004475D02*
X107036419Y-149909237D01*
X107036419Y-149909237D02*
X107036419Y-149718761D01*
X107036419Y-149718761D02*
X106988800Y-149623523D01*
X106988800Y-149623523D02*
X106941180Y-149575904D01*
X106941180Y-149575904D02*
X106845942Y-149528285D01*
X106845942Y-149528285D02*
X106607847Y-149528285D01*
X106607847Y-149528285D02*
X106512609Y-149575904D01*
X106512609Y-149575904D02*
X106464990Y-149623523D01*
X106464990Y-149623523D02*
X106417371Y-149718761D01*
X106417371Y-149718761D02*
X106417371Y-149909237D01*
X106417371Y-149909237D02*
X106464990Y-150004475D01*
X106464990Y-150004475D02*
X106512609Y-150052094D01*
X106512609Y-150052094D02*
X106607847Y-150099713D01*
X106036419Y-161729494D02*
X106845942Y-161729494D01*
X106845942Y-161729494D02*
X106941180Y-161681875D01*
X106941180Y-161681875D02*
X106988800Y-161634256D01*
X106988800Y-161634256D02*
X107036419Y-161539018D01*
X107036419Y-161539018D02*
X107036419Y-161348542D01*
X107036419Y-161348542D02*
X106988800Y-161253304D01*
X106988800Y-161253304D02*
X106941180Y-161205685D01*
X106941180Y-161205685D02*
X106845942Y-161158066D01*
X106845942Y-161158066D02*
X106036419Y-161158066D01*
X107036419Y-160158066D02*
X107036419Y-160729494D01*
X107036419Y-160443780D02*
X106036419Y-160443780D01*
X106036419Y-160443780D02*
X106179276Y-160539018D01*
X106179276Y-160539018D02*
X106274514Y-160634256D01*
X106274514Y-160634256D02*
X106322133Y-160729494D01*
X106036419Y-159253304D02*
X106036419Y-159729494D01*
X106036419Y-159729494D02*
X106512609Y-159777113D01*
X106512609Y-159777113D02*
X106464990Y-159729494D01*
X106464990Y-159729494D02*
X106417371Y-159634256D01*
X106417371Y-159634256D02*
X106417371Y-159396161D01*
X106417371Y-159396161D02*
X106464990Y-159300923D01*
X106464990Y-159300923D02*
X106512609Y-159253304D01*
X106512609Y-159253304D02*
X106607847Y-159205685D01*
X106607847Y-159205685D02*
X106845942Y-159205685D01*
X106845942Y-159205685D02*
X106941180Y-159253304D01*
X106941180Y-159253304D02*
X106988800Y-159300923D01*
X106988800Y-159300923D02*
X107036419Y-159396161D01*
X107036419Y-159396161D02*
X107036419Y-159634256D01*
X107036419Y-159634256D02*
X106988800Y-159729494D01*
X106988800Y-159729494D02*
X106941180Y-159777113D01*
X101520666Y-135013219D02*
X101520666Y-135727504D01*
X101520666Y-135727504D02*
X101473047Y-135870361D01*
X101473047Y-135870361D02*
X101377809Y-135965600D01*
X101377809Y-135965600D02*
X101234952Y-136013219D01*
X101234952Y-136013219D02*
X101139714Y-136013219D01*
X102520666Y-136013219D02*
X101949238Y-136013219D01*
X102234952Y-136013219D02*
X102234952Y-135013219D01*
X102234952Y-135013219D02*
X102139714Y-135156076D01*
X102139714Y-135156076D02*
X102044476Y-135251314D01*
X102044476Y-135251314D02*
X101949238Y-135298933D01*
X80430019Y-167233504D02*
X81239542Y-167233504D01*
X81239542Y-167233504D02*
X81334780Y-167185885D01*
X81334780Y-167185885D02*
X81382400Y-167138266D01*
X81382400Y-167138266D02*
X81430019Y-167043028D01*
X81430019Y-167043028D02*
X81430019Y-166852552D01*
X81430019Y-166852552D02*
X81382400Y-166757314D01*
X81382400Y-166757314D02*
X81334780Y-166709695D01*
X81334780Y-166709695D02*
X81239542Y-166662076D01*
X81239542Y-166662076D02*
X80430019Y-166662076D01*
X80430019Y-165757314D02*
X80430019Y-165947790D01*
X80430019Y-165947790D02*
X80477638Y-166043028D01*
X80477638Y-166043028D02*
X80525257Y-166090647D01*
X80525257Y-166090647D02*
X80668114Y-166185885D01*
X80668114Y-166185885D02*
X80858590Y-166233504D01*
X80858590Y-166233504D02*
X81239542Y-166233504D01*
X81239542Y-166233504D02*
X81334780Y-166185885D01*
X81334780Y-166185885D02*
X81382400Y-166138266D01*
X81382400Y-166138266D02*
X81430019Y-166043028D01*
X81430019Y-166043028D02*
X81430019Y-165852552D01*
X81430019Y-165852552D02*
X81382400Y-165757314D01*
X81382400Y-165757314D02*
X81334780Y-165709695D01*
X81334780Y-165709695D02*
X81239542Y-165662076D01*
X81239542Y-165662076D02*
X81001447Y-165662076D01*
X81001447Y-165662076D02*
X80906209Y-165709695D01*
X80906209Y-165709695D02*
X80858590Y-165757314D01*
X80858590Y-165757314D02*
X80810971Y-165852552D01*
X80810971Y-165852552D02*
X80810971Y-166043028D01*
X80810971Y-166043028D02*
X80858590Y-166138266D01*
X80858590Y-166138266D02*
X80906209Y-166185885D01*
X80906209Y-166185885D02*
X81001447Y-166233504D01*
X47010419Y-173608904D02*
X47819942Y-173608904D01*
X47819942Y-173608904D02*
X47915180Y-173561285D01*
X47915180Y-173561285D02*
X47962800Y-173513666D01*
X47962800Y-173513666D02*
X48010419Y-173418428D01*
X48010419Y-173418428D02*
X48010419Y-173227952D01*
X48010419Y-173227952D02*
X47962800Y-173132714D01*
X47962800Y-173132714D02*
X47915180Y-173085095D01*
X47915180Y-173085095D02*
X47819942Y-173037476D01*
X47819942Y-173037476D02*
X47010419Y-173037476D01*
X48010419Y-172513666D02*
X48010419Y-172323190D01*
X48010419Y-172323190D02*
X47962800Y-172227952D01*
X47962800Y-172227952D02*
X47915180Y-172180333D01*
X47915180Y-172180333D02*
X47772323Y-172085095D01*
X47772323Y-172085095D02*
X47581847Y-172037476D01*
X47581847Y-172037476D02*
X47200895Y-172037476D01*
X47200895Y-172037476D02*
X47105657Y-172085095D01*
X47105657Y-172085095D02*
X47058038Y-172132714D01*
X47058038Y-172132714D02*
X47010419Y-172227952D01*
X47010419Y-172227952D02*
X47010419Y-172418428D01*
X47010419Y-172418428D02*
X47058038Y-172513666D01*
X47058038Y-172513666D02*
X47105657Y-172561285D01*
X47105657Y-172561285D02*
X47200895Y-172608904D01*
X47200895Y-172608904D02*
X47438990Y-172608904D01*
X47438990Y-172608904D02*
X47534228Y-172561285D01*
X47534228Y-172561285D02*
X47581847Y-172513666D01*
X47581847Y-172513666D02*
X47629466Y-172418428D01*
X47629466Y-172418428D02*
X47629466Y-172227952D01*
X47629466Y-172227952D02*
X47581847Y-172132714D01*
X47581847Y-172132714D02*
X47534228Y-172085095D01*
X47534228Y-172085095D02*
X47438990Y-172037476D01*
X67265705Y-149391019D02*
X67265705Y-150200542D01*
X67265705Y-150200542D02*
X67313324Y-150295780D01*
X67313324Y-150295780D02*
X67360943Y-150343400D01*
X67360943Y-150343400D02*
X67456181Y-150391019D01*
X67456181Y-150391019D02*
X67646657Y-150391019D01*
X67646657Y-150391019D02*
X67741895Y-150343400D01*
X67741895Y-150343400D02*
X67789514Y-150295780D01*
X67789514Y-150295780D02*
X67837133Y-150200542D01*
X67837133Y-150200542D02*
X67837133Y-149391019D01*
X68837133Y-150391019D02*
X68265705Y-150391019D01*
X68551419Y-150391019D02*
X68551419Y-149391019D01*
X68551419Y-149391019D02*
X68456181Y-149533876D01*
X68456181Y-149533876D02*
X68360943Y-149629114D01*
X68360943Y-149629114D02*
X68265705Y-149676733D01*
X69408562Y-149819590D02*
X69313324Y-149771971D01*
X69313324Y-149771971D02*
X69265705Y-149724352D01*
X69265705Y-149724352D02*
X69218086Y-149629114D01*
X69218086Y-149629114D02*
X69218086Y-149581495D01*
X69218086Y-149581495D02*
X69265705Y-149486257D01*
X69265705Y-149486257D02*
X69313324Y-149438638D01*
X69313324Y-149438638D02*
X69408562Y-149391019D01*
X69408562Y-149391019D02*
X69599038Y-149391019D01*
X69599038Y-149391019D02*
X69694276Y-149438638D01*
X69694276Y-149438638D02*
X69741895Y-149486257D01*
X69741895Y-149486257D02*
X69789514Y-149581495D01*
X69789514Y-149581495D02*
X69789514Y-149629114D01*
X69789514Y-149629114D02*
X69741895Y-149724352D01*
X69741895Y-149724352D02*
X69694276Y-149771971D01*
X69694276Y-149771971D02*
X69599038Y-149819590D01*
X69599038Y-149819590D02*
X69408562Y-149819590D01*
X69408562Y-149819590D02*
X69313324Y-149867209D01*
X69313324Y-149867209D02*
X69265705Y-149914828D01*
X69265705Y-149914828D02*
X69218086Y-150010066D01*
X69218086Y-150010066D02*
X69218086Y-150200542D01*
X69218086Y-150200542D02*
X69265705Y-150295780D01*
X69265705Y-150295780D02*
X69313324Y-150343400D01*
X69313324Y-150343400D02*
X69408562Y-150391019D01*
X69408562Y-150391019D02*
X69599038Y-150391019D01*
X69599038Y-150391019D02*
X69694276Y-150343400D01*
X69694276Y-150343400D02*
X69741895Y-150295780D01*
X69741895Y-150295780D02*
X69789514Y-150200542D01*
X69789514Y-150200542D02*
X69789514Y-150010066D01*
X69789514Y-150010066D02*
X69741895Y-149914828D01*
X69741895Y-149914828D02*
X69694276Y-149867209D01*
X69694276Y-149867209D02*
X69599038Y-149819590D01*
X106036419Y-142374694D02*
X106845942Y-142374694D01*
X106845942Y-142374694D02*
X106941180Y-142327075D01*
X106941180Y-142327075D02*
X106988800Y-142279456D01*
X106988800Y-142279456D02*
X107036419Y-142184218D01*
X107036419Y-142184218D02*
X107036419Y-141993742D01*
X107036419Y-141993742D02*
X106988800Y-141898504D01*
X106988800Y-141898504D02*
X106941180Y-141850885D01*
X106941180Y-141850885D02*
X106845942Y-141803266D01*
X106845942Y-141803266D02*
X106036419Y-141803266D01*
X107036419Y-140803266D02*
X107036419Y-141374694D01*
X107036419Y-141088980D02*
X106036419Y-141088980D01*
X106036419Y-141088980D02*
X106179276Y-141184218D01*
X106179276Y-141184218D02*
X106274514Y-141279456D01*
X106274514Y-141279456D02*
X106322133Y-141374694D01*
X106036419Y-140469932D02*
X106036419Y-139803266D01*
X106036419Y-139803266D02*
X107036419Y-140231837D01*
X50908105Y-149314819D02*
X50908105Y-150124342D01*
X50908105Y-150124342D02*
X50955724Y-150219580D01*
X50955724Y-150219580D02*
X51003343Y-150267200D01*
X51003343Y-150267200D02*
X51098581Y-150314819D01*
X51098581Y-150314819D02*
X51289057Y-150314819D01*
X51289057Y-150314819D02*
X51384295Y-150267200D01*
X51384295Y-150267200D02*
X51431914Y-150219580D01*
X51431914Y-150219580D02*
X51479533Y-150124342D01*
X51479533Y-150124342D02*
X51479533Y-149314819D01*
X51908105Y-149410057D02*
X51955724Y-149362438D01*
X51955724Y-149362438D02*
X52050962Y-149314819D01*
X52050962Y-149314819D02*
X52289057Y-149314819D01*
X52289057Y-149314819D02*
X52384295Y-149362438D01*
X52384295Y-149362438D02*
X52431914Y-149410057D01*
X52431914Y-149410057D02*
X52479533Y-149505295D01*
X52479533Y-149505295D02*
X52479533Y-149600533D01*
X52479533Y-149600533D02*
X52431914Y-149743390D01*
X52431914Y-149743390D02*
X51860486Y-150314819D01*
X51860486Y-150314819D02*
X52479533Y-150314819D01*
X53098581Y-149314819D02*
X53193819Y-149314819D01*
X53193819Y-149314819D02*
X53289057Y-149362438D01*
X53289057Y-149362438D02*
X53336676Y-149410057D01*
X53336676Y-149410057D02*
X53384295Y-149505295D01*
X53384295Y-149505295D02*
X53431914Y-149695771D01*
X53431914Y-149695771D02*
X53431914Y-149933866D01*
X53431914Y-149933866D02*
X53384295Y-150124342D01*
X53384295Y-150124342D02*
X53336676Y-150219580D01*
X53336676Y-150219580D02*
X53289057Y-150267200D01*
X53289057Y-150267200D02*
X53193819Y-150314819D01*
X53193819Y-150314819D02*
X53098581Y-150314819D01*
X53098581Y-150314819D02*
X53003343Y-150267200D01*
X53003343Y-150267200D02*
X52955724Y-150219580D01*
X52955724Y-150219580D02*
X52908105Y-150124342D01*
X52908105Y-150124342D02*
X52860486Y-149933866D01*
X52860486Y-149933866D02*
X52860486Y-149695771D01*
X52860486Y-149695771D02*
X52908105Y-149505295D01*
X52908105Y-149505295D02*
X52955724Y-149410057D01*
X52955724Y-149410057D02*
X53003343Y-149362438D01*
X53003343Y-149362438D02*
X53098581Y-149314819D01*
D15*
%TO.C,REF\u002A\u002A*%
X35792600Y-138588752D02*
X35809948Y-138596334D01*
X35851356Y-138629128D01*
X35886765Y-138676547D01*
X35908664Y-138727151D01*
X35912229Y-138752098D01*
X35900279Y-138786927D01*
X35874067Y-138805357D01*
X35845964Y-138816516D01*
X35833095Y-138818572D01*
X35826829Y-138803649D01*
X35814456Y-138771175D01*
X35809028Y-138756502D01*
X35778590Y-138705744D01*
X35734520Y-138680427D01*
X35678010Y-138681206D01*
X35673825Y-138682203D01*
X35643655Y-138696507D01*
X35621476Y-138724393D01*
X35606327Y-138769287D01*
X35597250Y-138834615D01*
X35593286Y-138923804D01*
X35592914Y-138971261D01*
X35592730Y-139046071D01*
X35591522Y-139097069D01*
X35588309Y-139129471D01*
X35582109Y-139148495D01*
X35571940Y-139159356D01*
X35556819Y-139167272D01*
X35555946Y-139167670D01*
X35526828Y-139179981D01*
X35512403Y-139184514D01*
X35510186Y-139170809D01*
X35508289Y-139132925D01*
X35506847Y-139075715D01*
X35505998Y-139004027D01*
X35505829Y-138951565D01*
X35506692Y-138850047D01*
X35510070Y-138773032D01*
X35517142Y-138716023D01*
X35529088Y-138674526D01*
X35547090Y-138644043D01*
X35572327Y-138620080D01*
X35597247Y-138603355D01*
X35657171Y-138581097D01*
X35726911Y-138576076D01*
X35792600Y-138588752D01*
G36*
X35792600Y-138588752D02*
G01*
X35809948Y-138596334D01*
X35851356Y-138629128D01*
X35886765Y-138676547D01*
X35908664Y-138727151D01*
X35912229Y-138752098D01*
X35900279Y-138786927D01*
X35874067Y-138805357D01*
X35845964Y-138816516D01*
X35833095Y-138818572D01*
X35826829Y-138803649D01*
X35814456Y-138771175D01*
X35809028Y-138756502D01*
X35778590Y-138705744D01*
X35734520Y-138680427D01*
X35678010Y-138681206D01*
X35673825Y-138682203D01*
X35643655Y-138696507D01*
X35621476Y-138724393D01*
X35606327Y-138769287D01*
X35597250Y-138834615D01*
X35593286Y-138923804D01*
X35592914Y-138971261D01*
X35592730Y-139046071D01*
X35591522Y-139097069D01*
X35588309Y-139129471D01*
X35582109Y-139148495D01*
X35571940Y-139159356D01*
X35556819Y-139167272D01*
X35555946Y-139167670D01*
X35526828Y-139179981D01*
X35512403Y-139184514D01*
X35510186Y-139170809D01*
X35508289Y-139132925D01*
X35506847Y-139075715D01*
X35505998Y-139004027D01*
X35505829Y-138951565D01*
X35506692Y-138850047D01*
X35510070Y-138773032D01*
X35517142Y-138716023D01*
X35529088Y-138674526D01*
X35547090Y-138644043D01*
X35572327Y-138620080D01*
X35597247Y-138603355D01*
X35657171Y-138581097D01*
X35726911Y-138576076D01*
X35792600Y-138588752D01*
G37*
X31856093Y-138557780D02*
X31902672Y-138584723D01*
X31935057Y-138611466D01*
X31958742Y-138639484D01*
X31975059Y-138673748D01*
X31985339Y-138719227D01*
X31990914Y-138780892D01*
X31993116Y-138863711D01*
X31993371Y-138923246D01*
X31993371Y-139142391D01*
X31931686Y-139170044D01*
X31870000Y-139197697D01*
X31862743Y-138957670D01*
X31859744Y-138868028D01*
X31856598Y-138802962D01*
X31852701Y-138758026D01*
X31847447Y-138728770D01*
X31840231Y-138710748D01*
X31830450Y-138699511D01*
X31827312Y-138697079D01*
X31779761Y-138678083D01*
X31731697Y-138685600D01*
X31703086Y-138705543D01*
X31691447Y-138719675D01*
X31683391Y-138738220D01*
X31678271Y-138766334D01*
X31675441Y-138809173D01*
X31674256Y-138871895D01*
X31674057Y-138937261D01*
X31674018Y-139019268D01*
X31672614Y-139077316D01*
X31667914Y-139116465D01*
X31657987Y-139141780D01*
X31640903Y-139158323D01*
X31614732Y-139171156D01*
X31579775Y-139184491D01*
X31541596Y-139199007D01*
X31546141Y-138941389D01*
X31547971Y-138848519D01*
X31550112Y-138779889D01*
X31553181Y-138730711D01*
X31557794Y-138696198D01*
X31564568Y-138671562D01*
X31574119Y-138652016D01*
X31585634Y-138634770D01*
X31641190Y-138579680D01*
X31708980Y-138547822D01*
X31782713Y-138540191D01*
X31856093Y-138557780D01*
G36*
X31856093Y-138557780D02*
G01*
X31902672Y-138584723D01*
X31935057Y-138611466D01*
X31958742Y-138639484D01*
X31975059Y-138673748D01*
X31985339Y-138719227D01*
X31990914Y-138780892D01*
X31993116Y-138863711D01*
X31993371Y-138923246D01*
X31993371Y-139142391D01*
X31931686Y-139170044D01*
X31870000Y-139197697D01*
X31862743Y-138957670D01*
X31859744Y-138868028D01*
X31856598Y-138802962D01*
X31852701Y-138758026D01*
X31847447Y-138728770D01*
X31840231Y-138710748D01*
X31830450Y-138699511D01*
X31827312Y-138697079D01*
X31779761Y-138678083D01*
X31731697Y-138685600D01*
X31703086Y-138705543D01*
X31691447Y-138719675D01*
X31683391Y-138738220D01*
X31678271Y-138766334D01*
X31675441Y-138809173D01*
X31674256Y-138871895D01*
X31674057Y-138937261D01*
X31674018Y-139019268D01*
X31672614Y-139077316D01*
X31667914Y-139116465D01*
X31657987Y-139141780D01*
X31640903Y-139158323D01*
X31614732Y-139171156D01*
X31579775Y-139184491D01*
X31541596Y-139199007D01*
X31546141Y-138941389D01*
X31547971Y-138848519D01*
X31550112Y-138779889D01*
X31553181Y-138730711D01*
X31557794Y-138696198D01*
X31564568Y-138671562D01*
X31574119Y-138652016D01*
X31585634Y-138634770D01*
X31641190Y-138579680D01*
X31708980Y-138547822D01*
X31782713Y-138540191D01*
X31856093Y-138557780D01*
G37*
X33669926Y-138579755D02*
X33735858Y-138604084D01*
X33789273Y-138647117D01*
X33810164Y-138677409D01*
X33832939Y-138732994D01*
X33832466Y-138773186D01*
X33808562Y-138800217D01*
X33799717Y-138804813D01*
X33761530Y-138819144D01*
X33742028Y-138815472D01*
X33735422Y-138791407D01*
X33735086Y-138778114D01*
X33722992Y-138729210D01*
X33691471Y-138694999D01*
X33647659Y-138678476D01*
X33598695Y-138682634D01*
X33558894Y-138704227D01*
X33545450Y-138716544D01*
X33535921Y-138731487D01*
X33529485Y-138754075D01*
X33525317Y-138789328D01*
X33522597Y-138842266D01*
X33520502Y-138917907D01*
X33519960Y-138941857D01*
X33517981Y-139023790D01*
X33515731Y-139081455D01*
X33512357Y-139119608D01*
X33507006Y-139143004D01*
X33498824Y-139156398D01*
X33486959Y-139164545D01*
X33479362Y-139168144D01*
X33447102Y-139180452D01*
X33428111Y-139184514D01*
X33421836Y-139170948D01*
X33418006Y-139129934D01*
X33416600Y-139060999D01*
X33417598Y-138963669D01*
X33417908Y-138948657D01*
X33420101Y-138859859D01*
X33422693Y-138795019D01*
X33426382Y-138749067D01*
X33431864Y-138716935D01*
X33439835Y-138693553D01*
X33450993Y-138673852D01*
X33456830Y-138665410D01*
X33490296Y-138628057D01*
X33527727Y-138599003D01*
X33532309Y-138596467D01*
X33599426Y-138576443D01*
X33669926Y-138579755D01*
G36*
X33669926Y-138579755D02*
G01*
X33735858Y-138604084D01*
X33789273Y-138647117D01*
X33810164Y-138677409D01*
X33832939Y-138732994D01*
X33832466Y-138773186D01*
X33808562Y-138800217D01*
X33799717Y-138804813D01*
X33761530Y-138819144D01*
X33742028Y-138815472D01*
X33735422Y-138791407D01*
X33735086Y-138778114D01*
X33722992Y-138729210D01*
X33691471Y-138694999D01*
X33647659Y-138678476D01*
X33598695Y-138682634D01*
X33558894Y-138704227D01*
X33545450Y-138716544D01*
X33535921Y-138731487D01*
X33529485Y-138754075D01*
X33525317Y-138789328D01*
X33522597Y-138842266D01*
X33520502Y-138917907D01*
X33519960Y-138941857D01*
X33517981Y-139023790D01*
X33515731Y-139081455D01*
X33512357Y-139119608D01*
X33507006Y-139143004D01*
X33498824Y-139156398D01*
X33486959Y-139164545D01*
X33479362Y-139168144D01*
X33447102Y-139180452D01*
X33428111Y-139184514D01*
X33421836Y-139170948D01*
X33418006Y-139129934D01*
X33416600Y-139060999D01*
X33417598Y-138963669D01*
X33417908Y-138948657D01*
X33420101Y-138859859D01*
X33422693Y-138795019D01*
X33426382Y-138749067D01*
X33431864Y-138716935D01*
X33439835Y-138693553D01*
X33450993Y-138673852D01*
X33456830Y-138665410D01*
X33490296Y-138628057D01*
X33527727Y-138599003D01*
X33532309Y-138596467D01*
X33599426Y-138576443D01*
X33669926Y-138579755D01*
G37*
X32515886Y-138481289D02*
X32520139Y-138540613D01*
X32525025Y-138575572D01*
X32531795Y-138590820D01*
X32541702Y-138591015D01*
X32544914Y-138589195D01*
X32587644Y-138576015D01*
X32643227Y-138576785D01*
X32699737Y-138590333D01*
X32735082Y-138607861D01*
X32771321Y-138635861D01*
X32797813Y-138667549D01*
X32815999Y-138707813D01*
X32827322Y-138761543D01*
X32833222Y-138833626D01*
X32835143Y-138928951D01*
X32835177Y-138947237D01*
X32835200Y-139152646D01*
X32789491Y-139168580D01*
X32757027Y-139179420D01*
X32739215Y-139184468D01*
X32738691Y-139184514D01*
X32736937Y-139170828D01*
X32735444Y-139133076D01*
X32734326Y-139076224D01*
X32733697Y-139005234D01*
X32733600Y-138962073D01*
X32733398Y-138876973D01*
X32732358Y-138815981D01*
X32729831Y-138774177D01*
X32725164Y-138746642D01*
X32717707Y-138728456D01*
X32706811Y-138714698D01*
X32700007Y-138708073D01*
X32653272Y-138681375D01*
X32602272Y-138679375D01*
X32556001Y-138701955D01*
X32547444Y-138710107D01*
X32534893Y-138725436D01*
X32526188Y-138743618D01*
X32520631Y-138769909D01*
X32517526Y-138809562D01*
X32516176Y-138867832D01*
X32515886Y-138948173D01*
X32515886Y-139152646D01*
X32470177Y-139168580D01*
X32437713Y-139179420D01*
X32419901Y-139184468D01*
X32419377Y-139184514D01*
X32418037Y-139170623D01*
X32416828Y-139131439D01*
X32415801Y-139070700D01*
X32415002Y-138992141D01*
X32414481Y-138899498D01*
X32414286Y-138796509D01*
X32414286Y-138399342D01*
X32461457Y-138379444D01*
X32508629Y-138359547D01*
X32515886Y-138481289D01*
G36*
X32515886Y-138481289D02*
G01*
X32520139Y-138540613D01*
X32525025Y-138575572D01*
X32531795Y-138590820D01*
X32541702Y-138591015D01*
X32544914Y-138589195D01*
X32587644Y-138576015D01*
X32643227Y-138576785D01*
X32699737Y-138590333D01*
X32735082Y-138607861D01*
X32771321Y-138635861D01*
X32797813Y-138667549D01*
X32815999Y-138707813D01*
X32827322Y-138761543D01*
X32833222Y-138833626D01*
X32835143Y-138928951D01*
X32835177Y-138947237D01*
X32835200Y-139152646D01*
X32789491Y-139168580D01*
X32757027Y-139179420D01*
X32739215Y-139184468D01*
X32738691Y-139184514D01*
X32736937Y-139170828D01*
X32735444Y-139133076D01*
X32734326Y-139076224D01*
X32733697Y-139005234D01*
X32733600Y-138962073D01*
X32733398Y-138876973D01*
X32732358Y-138815981D01*
X32729831Y-138774177D01*
X32725164Y-138746642D01*
X32717707Y-138728456D01*
X32706811Y-138714698D01*
X32700007Y-138708073D01*
X32653272Y-138681375D01*
X32602272Y-138679375D01*
X32556001Y-138701955D01*
X32547444Y-138710107D01*
X32534893Y-138725436D01*
X32526188Y-138743618D01*
X32520631Y-138769909D01*
X32517526Y-138809562D01*
X32516176Y-138867832D01*
X32515886Y-138948173D01*
X32515886Y-139152646D01*
X32470177Y-139168580D01*
X32437713Y-139179420D01*
X32419901Y-139184468D01*
X32419377Y-139184514D01*
X32418037Y-139170623D01*
X32416828Y-139131439D01*
X32415801Y-139070700D01*
X32415002Y-138992141D01*
X32414481Y-138899498D01*
X32414286Y-138796509D01*
X32414286Y-138399342D01*
X32461457Y-138379444D01*
X32508629Y-138359547D01*
X32515886Y-138481289D01*
G37*
X34919833Y-138588663D02*
X34922048Y-138626850D01*
X34923784Y-138684886D01*
X34924899Y-138758180D01*
X34925257Y-138835055D01*
X34925257Y-139095196D01*
X34879326Y-139141127D01*
X34847675Y-139169429D01*
X34819890Y-139180893D01*
X34781915Y-139180168D01*
X34766840Y-139178321D01*
X34719726Y-139172948D01*
X34680756Y-139169869D01*
X34671257Y-139169585D01*
X34639233Y-139171445D01*
X34593432Y-139176114D01*
X34575674Y-139178321D01*
X34532057Y-139181735D01*
X34502745Y-139174320D01*
X34473680Y-139151427D01*
X34463188Y-139141127D01*
X34417257Y-139095196D01*
X34417257Y-138608602D01*
X34454226Y-138591758D01*
X34486059Y-138579282D01*
X34504683Y-138574914D01*
X34509458Y-138588718D01*
X34513921Y-138627286D01*
X34517775Y-138686356D01*
X34520722Y-138761663D01*
X34522143Y-138825286D01*
X34526114Y-139075657D01*
X34560759Y-139080556D01*
X34592268Y-139077131D01*
X34607708Y-139066041D01*
X34612023Y-139045308D01*
X34615708Y-139001145D01*
X34618469Y-138939146D01*
X34620012Y-138864909D01*
X34620235Y-138826706D01*
X34620457Y-138606783D01*
X34666166Y-138590849D01*
X34698518Y-138580015D01*
X34716115Y-138574962D01*
X34716623Y-138574914D01*
X34718388Y-138588648D01*
X34720329Y-138626730D01*
X34722282Y-138684482D01*
X34724084Y-138757227D01*
X34725343Y-138825286D01*
X34729314Y-139075657D01*
X34816400Y-139075657D01*
X34820396Y-138847240D01*
X34824392Y-138618822D01*
X34866847Y-138596868D01*
X34898192Y-138581793D01*
X34916744Y-138574951D01*
X34917279Y-138574914D01*
X34919833Y-138588663D01*
G36*
X34919833Y-138588663D02*
G01*
X34922048Y-138626850D01*
X34923784Y-138684886D01*
X34924899Y-138758180D01*
X34925257Y-138835055D01*
X34925257Y-139095196D01*
X34879326Y-139141127D01*
X34847675Y-139169429D01*
X34819890Y-139180893D01*
X34781915Y-139180168D01*
X34766840Y-139178321D01*
X34719726Y-139172948D01*
X34680756Y-139169869D01*
X34671257Y-139169585D01*
X34639233Y-139171445D01*
X34593432Y-139176114D01*
X34575674Y-139178321D01*
X34532057Y-139181735D01*
X34502745Y-139174320D01*
X34473680Y-139151427D01*
X34463188Y-139141127D01*
X34417257Y-139095196D01*
X34417257Y-138608602D01*
X34454226Y-138591758D01*
X34486059Y-138579282D01*
X34504683Y-138574914D01*
X34509458Y-138588718D01*
X34513921Y-138627286D01*
X34517775Y-138686356D01*
X34520722Y-138761663D01*
X34522143Y-138825286D01*
X34526114Y-139075657D01*
X34560759Y-139080556D01*
X34592268Y-139077131D01*
X34607708Y-139066041D01*
X34612023Y-139045308D01*
X34615708Y-139001145D01*
X34618469Y-138939146D01*
X34620012Y-138864909D01*
X34620235Y-138826706D01*
X34620457Y-138606783D01*
X34666166Y-138590849D01*
X34698518Y-138580015D01*
X34716115Y-138574962D01*
X34716623Y-138574914D01*
X34718388Y-138588648D01*
X34720329Y-138626730D01*
X34722282Y-138684482D01*
X34724084Y-138757227D01*
X34725343Y-138825286D01*
X34729314Y-139075657D01*
X34816400Y-139075657D01*
X34820396Y-138847240D01*
X34824392Y-138618822D01*
X34866847Y-138596868D01*
X34898192Y-138581793D01*
X34916744Y-138574951D01*
X34917279Y-138574914D01*
X34919833Y-138588663D01*
G37*
X30181115Y-138551962D02*
X30249145Y-138587733D01*
X30299351Y-138645301D01*
X30317185Y-138682312D01*
X30331063Y-138737882D01*
X30338167Y-138808096D01*
X30338840Y-138884727D01*
X30333427Y-138959552D01*
X30322270Y-139024342D01*
X30305714Y-139070873D01*
X30300626Y-139078887D01*
X30240355Y-139138707D01*
X30168769Y-139174535D01*
X30091092Y-139185020D01*
X30012548Y-139168810D01*
X29990689Y-139159092D01*
X29948122Y-139129143D01*
X29910763Y-139089433D01*
X29907232Y-139084397D01*
X29892881Y-139060124D01*
X29883394Y-139034178D01*
X29877790Y-139000022D01*
X29875086Y-138951119D01*
X29874299Y-138880935D01*
X29874286Y-138865200D01*
X29874322Y-138860192D01*
X30019429Y-138860192D01*
X30020273Y-138926430D01*
X30023596Y-138970386D01*
X30030583Y-138998779D01*
X30042416Y-139018325D01*
X30048457Y-139024857D01*
X30083186Y-139049680D01*
X30116903Y-139048548D01*
X30150995Y-139027016D01*
X30171329Y-139004029D01*
X30183371Y-138970478D01*
X30190134Y-138917569D01*
X30190598Y-138911399D01*
X30191752Y-138815513D01*
X30179688Y-138744299D01*
X30154570Y-138698194D01*
X30116560Y-138677635D01*
X30102992Y-138676514D01*
X30067364Y-138682152D01*
X30042994Y-138701686D01*
X30028093Y-138739042D01*
X30020875Y-138798150D01*
X30019429Y-138860192D01*
X29874322Y-138860192D01*
X29874826Y-138790413D01*
X29877096Y-138738159D01*
X29882068Y-138701949D01*
X29890713Y-138675299D01*
X29904005Y-138651722D01*
X29906943Y-138647338D01*
X29956313Y-138588249D01*
X30010109Y-138553947D01*
X30075602Y-138540331D01*
X30097842Y-138539665D01*
X30181115Y-138551962D01*
G36*
X30181115Y-138551962D02*
G01*
X30249145Y-138587733D01*
X30299351Y-138645301D01*
X30317185Y-138682312D01*
X30331063Y-138737882D01*
X30338167Y-138808096D01*
X30338840Y-138884727D01*
X30333427Y-138959552D01*
X30322270Y-139024342D01*
X30305714Y-139070873D01*
X30300626Y-139078887D01*
X30240355Y-139138707D01*
X30168769Y-139174535D01*
X30091092Y-139185020D01*
X30012548Y-139168810D01*
X29990689Y-139159092D01*
X29948122Y-139129143D01*
X29910763Y-139089433D01*
X29907232Y-139084397D01*
X29892881Y-139060124D01*
X29883394Y-139034178D01*
X29877790Y-139000022D01*
X29875086Y-138951119D01*
X29874299Y-138880935D01*
X29874286Y-138865200D01*
X29874322Y-138860192D01*
X30019429Y-138860192D01*
X30020273Y-138926430D01*
X30023596Y-138970386D01*
X30030583Y-138998779D01*
X30042416Y-139018325D01*
X30048457Y-139024857D01*
X30083186Y-139049680D01*
X30116903Y-139048548D01*
X30150995Y-139027016D01*
X30171329Y-139004029D01*
X30183371Y-138970478D01*
X30190134Y-138917569D01*
X30190598Y-138911399D01*
X30191752Y-138815513D01*
X30179688Y-138744299D01*
X30154570Y-138698194D01*
X30116560Y-138677635D01*
X30102992Y-138676514D01*
X30067364Y-138682152D01*
X30042994Y-138701686D01*
X30028093Y-138739042D01*
X30020875Y-138798150D01*
X30019429Y-138860192D01*
X29874322Y-138860192D01*
X29874826Y-138790413D01*
X29877096Y-138738159D01*
X29882068Y-138701949D01*
X29890713Y-138675299D01*
X29904005Y-138651722D01*
X29906943Y-138647338D01*
X29956313Y-138588249D01*
X30010109Y-138553947D01*
X30075602Y-138540331D01*
X30097842Y-138539665D01*
X30181115Y-138551962D01*
G37*
X36293595Y-138596966D02*
X36351021Y-138634497D01*
X36378719Y-138668096D01*
X36400662Y-138729064D01*
X36402405Y-138777308D01*
X36398457Y-138841816D01*
X36249686Y-138906934D01*
X36177349Y-138940202D01*
X36130084Y-138966964D01*
X36105507Y-138990144D01*
X36101237Y-139012667D01*
X36114889Y-139037455D01*
X36129943Y-139053886D01*
X36173746Y-139080235D01*
X36221389Y-139082081D01*
X36265145Y-139061546D01*
X36297289Y-139020752D01*
X36303038Y-139006347D01*
X36330576Y-138961356D01*
X36362258Y-138942182D01*
X36405714Y-138925779D01*
X36405714Y-138987966D01*
X36401872Y-139030283D01*
X36386823Y-139065969D01*
X36355280Y-139106943D01*
X36350592Y-139112267D01*
X36315506Y-139148720D01*
X36285347Y-139168283D01*
X36247615Y-139177283D01*
X36216335Y-139180230D01*
X36160385Y-139180965D01*
X36120555Y-139171660D01*
X36095708Y-139157846D01*
X36056656Y-139127467D01*
X36029625Y-139094613D01*
X36012517Y-139053294D01*
X36003238Y-138997521D01*
X35999693Y-138921305D01*
X35999410Y-138882622D01*
X36000372Y-138836247D01*
X36088007Y-138836247D01*
X36089023Y-138861126D01*
X36091556Y-138865200D01*
X36108274Y-138859665D01*
X36144249Y-138845017D01*
X36192331Y-138824190D01*
X36202386Y-138819714D01*
X36263152Y-138788814D01*
X36296632Y-138761657D01*
X36303990Y-138736220D01*
X36286391Y-138710481D01*
X36271856Y-138699109D01*
X36219410Y-138676364D01*
X36170322Y-138680122D01*
X36129227Y-138707884D01*
X36100758Y-138757152D01*
X36091631Y-138796257D01*
X36088007Y-138836247D01*
X36000372Y-138836247D01*
X36001285Y-138792249D01*
X36008196Y-138725384D01*
X36021884Y-138676695D01*
X36044096Y-138640849D01*
X36076574Y-138612513D01*
X36090733Y-138603355D01*
X36155053Y-138579507D01*
X36225473Y-138578006D01*
X36293595Y-138596966D01*
G36*
X36293595Y-138596966D02*
G01*
X36351021Y-138634497D01*
X36378719Y-138668096D01*
X36400662Y-138729064D01*
X36402405Y-138777308D01*
X36398457Y-138841816D01*
X36249686Y-138906934D01*
X36177349Y-138940202D01*
X36130084Y-138966964D01*
X36105507Y-138990144D01*
X36101237Y-139012667D01*
X36114889Y-139037455D01*
X36129943Y-139053886D01*
X36173746Y-139080235D01*
X36221389Y-139082081D01*
X36265145Y-139061546D01*
X36297289Y-139020752D01*
X36303038Y-139006347D01*
X36330576Y-138961356D01*
X36362258Y-138942182D01*
X36405714Y-138925779D01*
X36405714Y-138987966D01*
X36401872Y-139030283D01*
X36386823Y-139065969D01*
X36355280Y-139106943D01*
X36350592Y-139112267D01*
X36315506Y-139148720D01*
X36285347Y-139168283D01*
X36247615Y-139177283D01*
X36216335Y-139180230D01*
X36160385Y-139180965D01*
X36120555Y-139171660D01*
X36095708Y-139157846D01*
X36056656Y-139127467D01*
X36029625Y-139094613D01*
X36012517Y-139053294D01*
X36003238Y-138997521D01*
X35999693Y-138921305D01*
X35999410Y-138882622D01*
X36000372Y-138836247D01*
X36088007Y-138836247D01*
X36089023Y-138861126D01*
X36091556Y-138865200D01*
X36108274Y-138859665D01*
X36144249Y-138845017D01*
X36192331Y-138824190D01*
X36202386Y-138819714D01*
X36263152Y-138788814D01*
X36296632Y-138761657D01*
X36303990Y-138736220D01*
X36286391Y-138710481D01*
X36271856Y-138699109D01*
X36219410Y-138676364D01*
X36170322Y-138680122D01*
X36129227Y-138707884D01*
X36100758Y-138757152D01*
X36091631Y-138796257D01*
X36088007Y-138836247D01*
X36000372Y-138836247D01*
X36001285Y-138792249D01*
X36008196Y-138725384D01*
X36021884Y-138676695D01*
X36044096Y-138640849D01*
X36076574Y-138612513D01*
X36090733Y-138603355D01*
X36155053Y-138579507D01*
X36225473Y-138578006D01*
X36293595Y-138596966D01*
G37*
X34330117Y-138695358D02*
X34329933Y-138803837D01*
X34329219Y-138887287D01*
X34327675Y-138949704D01*
X34325001Y-138995085D01*
X34320894Y-139027429D01*
X34315055Y-139050733D01*
X34307182Y-139068995D01*
X34301221Y-139079418D01*
X34251855Y-139135945D01*
X34189264Y-139171377D01*
X34120013Y-139184090D01*
X34050668Y-139172463D01*
X34009375Y-139151568D01*
X33966025Y-139115422D01*
X33936481Y-139071276D01*
X33918655Y-139013462D01*
X33910463Y-138936313D01*
X33909302Y-138879714D01*
X33909458Y-138875647D01*
X34010857Y-138875647D01*
X34011476Y-138940550D01*
X34014314Y-138983514D01*
X34020840Y-139011622D01*
X34032523Y-139031953D01*
X34046483Y-139047288D01*
X34093365Y-139076890D01*
X34143701Y-139079419D01*
X34191276Y-139054705D01*
X34194979Y-139051356D01*
X34210783Y-139033935D01*
X34220693Y-139013209D01*
X34226058Y-138982362D01*
X34228228Y-138934577D01*
X34228571Y-138881748D01*
X34227827Y-138815381D01*
X34224748Y-138771106D01*
X34218061Y-138742009D01*
X34206496Y-138721173D01*
X34197013Y-138710107D01*
X34152960Y-138682198D01*
X34102224Y-138678843D01*
X34053796Y-138700159D01*
X34044450Y-138708073D01*
X34028540Y-138725647D01*
X34018610Y-138746587D01*
X34013278Y-138777782D01*
X34011163Y-138826122D01*
X34010857Y-138875647D01*
X33909458Y-138875647D01*
X33912810Y-138788568D01*
X33924726Y-138720086D01*
X33947135Y-138668600D01*
X33982124Y-138628443D01*
X34009375Y-138607861D01*
X34058907Y-138585625D01*
X34116316Y-138575304D01*
X34169682Y-138578067D01*
X34199543Y-138589212D01*
X34211261Y-138592383D01*
X34219037Y-138580557D01*
X34224465Y-138548866D01*
X34228571Y-138500593D01*
X34233067Y-138446829D01*
X34239313Y-138414482D01*
X34250676Y-138395985D01*
X34270528Y-138383770D01*
X34283000Y-138378362D01*
X34330171Y-138358601D01*
X34330117Y-138695358D01*
G36*
X34330117Y-138695358D02*
G01*
X34329933Y-138803837D01*
X34329219Y-138887287D01*
X34327675Y-138949704D01*
X34325001Y-138995085D01*
X34320894Y-139027429D01*
X34315055Y-139050733D01*
X34307182Y-139068995D01*
X34301221Y-139079418D01*
X34251855Y-139135945D01*
X34189264Y-139171377D01*
X34120013Y-139184090D01*
X34050668Y-139172463D01*
X34009375Y-139151568D01*
X33966025Y-139115422D01*
X33936481Y-139071276D01*
X33918655Y-139013462D01*
X33910463Y-138936313D01*
X33909302Y-138879714D01*
X33909458Y-138875647D01*
X34010857Y-138875647D01*
X34011476Y-138940550D01*
X34014314Y-138983514D01*
X34020840Y-139011622D01*
X34032523Y-139031953D01*
X34046483Y-139047288D01*
X34093365Y-139076890D01*
X34143701Y-139079419D01*
X34191276Y-139054705D01*
X34194979Y-139051356D01*
X34210783Y-139033935D01*
X34220693Y-139013209D01*
X34226058Y-138982362D01*
X34228228Y-138934577D01*
X34228571Y-138881748D01*
X34227827Y-138815381D01*
X34224748Y-138771106D01*
X34218061Y-138742009D01*
X34206496Y-138721173D01*
X34197013Y-138710107D01*
X34152960Y-138682198D01*
X34102224Y-138678843D01*
X34053796Y-138700159D01*
X34044450Y-138708073D01*
X34028540Y-138725647D01*
X34018610Y-138746587D01*
X34013278Y-138777782D01*
X34011163Y-138826122D01*
X34010857Y-138875647D01*
X33909458Y-138875647D01*
X33912810Y-138788568D01*
X33924726Y-138720086D01*
X33947135Y-138668600D01*
X33982124Y-138628443D01*
X34009375Y-138607861D01*
X34058907Y-138585625D01*
X34116316Y-138575304D01*
X34169682Y-138578067D01*
X34199543Y-138589212D01*
X34211261Y-138592383D01*
X34219037Y-138580557D01*
X34224465Y-138548866D01*
X34228571Y-138500593D01*
X34233067Y-138446829D01*
X34239313Y-138414482D01*
X34250676Y-138395985D01*
X34270528Y-138383770D01*
X34283000Y-138378362D01*
X34330171Y-138358601D01*
X34330117Y-138695358D01*
G37*
X31308303Y-138561239D02*
X31365527Y-138599735D01*
X31409749Y-138655335D01*
X31436167Y-138726086D01*
X31441510Y-138778162D01*
X31440903Y-138799893D01*
X31435822Y-138816531D01*
X31421855Y-138831437D01*
X31394589Y-138847973D01*
X31349612Y-138869498D01*
X31282511Y-138899374D01*
X31282171Y-138899524D01*
X31220407Y-138927813D01*
X31169759Y-138952933D01*
X31135404Y-138972179D01*
X31122518Y-138982848D01*
X31122514Y-138982934D01*
X31133872Y-139006166D01*
X31160431Y-139031774D01*
X31190923Y-139050221D01*
X31206370Y-139053886D01*
X31248515Y-139041212D01*
X31284808Y-139009471D01*
X31302517Y-138974572D01*
X31319552Y-138948845D01*
X31352922Y-138919546D01*
X31392149Y-138894235D01*
X31426756Y-138880471D01*
X31433993Y-138879714D01*
X31442139Y-138892160D01*
X31442630Y-138923972D01*
X31436643Y-138966866D01*
X31425357Y-139012558D01*
X31409950Y-139052761D01*
X31409171Y-139054322D01*
X31362804Y-139119062D01*
X31302711Y-139163097D01*
X31234465Y-139184711D01*
X31163638Y-139182185D01*
X31095804Y-139153804D01*
X31092788Y-139151808D01*
X31039427Y-139103448D01*
X31004340Y-139040352D01*
X30984922Y-138957387D01*
X30982316Y-138934078D01*
X30977701Y-138824055D01*
X30983233Y-138772748D01*
X31122514Y-138772748D01*
X31124324Y-138804753D01*
X31134222Y-138814093D01*
X31158898Y-138807105D01*
X31197795Y-138790587D01*
X31241275Y-138769881D01*
X31242356Y-138769333D01*
X31279209Y-138749949D01*
X31294000Y-138737013D01*
X31290353Y-138723451D01*
X31274995Y-138705632D01*
X31235923Y-138679845D01*
X31193846Y-138677950D01*
X31156103Y-138696717D01*
X31130034Y-138732915D01*
X31122514Y-138772748D01*
X30983233Y-138772748D01*
X30987194Y-138736027D01*
X31011550Y-138666212D01*
X31045456Y-138617302D01*
X31106653Y-138567878D01*
X31174063Y-138543359D01*
X31242880Y-138541797D01*
X31308303Y-138561239D01*
G36*
X31308303Y-138561239D02*
G01*
X31365527Y-138599735D01*
X31409749Y-138655335D01*
X31436167Y-138726086D01*
X31441510Y-138778162D01*
X31440903Y-138799893D01*
X31435822Y-138816531D01*
X31421855Y-138831437D01*
X31394589Y-138847973D01*
X31349612Y-138869498D01*
X31282511Y-138899374D01*
X31282171Y-138899524D01*
X31220407Y-138927813D01*
X31169759Y-138952933D01*
X31135404Y-138972179D01*
X31122518Y-138982848D01*
X31122514Y-138982934D01*
X31133872Y-139006166D01*
X31160431Y-139031774D01*
X31190923Y-139050221D01*
X31206370Y-139053886D01*
X31248515Y-139041212D01*
X31284808Y-139009471D01*
X31302517Y-138974572D01*
X31319552Y-138948845D01*
X31352922Y-138919546D01*
X31392149Y-138894235D01*
X31426756Y-138880471D01*
X31433993Y-138879714D01*
X31442139Y-138892160D01*
X31442630Y-138923972D01*
X31436643Y-138966866D01*
X31425357Y-139012558D01*
X31409950Y-139052761D01*
X31409171Y-139054322D01*
X31362804Y-139119062D01*
X31302711Y-139163097D01*
X31234465Y-139184711D01*
X31163638Y-139182185D01*
X31095804Y-139153804D01*
X31092788Y-139151808D01*
X31039427Y-139103448D01*
X31004340Y-139040352D01*
X30984922Y-138957387D01*
X30982316Y-138934078D01*
X30977701Y-138824055D01*
X30983233Y-138772748D01*
X31122514Y-138772748D01*
X31124324Y-138804753D01*
X31134222Y-138814093D01*
X31158898Y-138807105D01*
X31197795Y-138790587D01*
X31241275Y-138769881D01*
X31242356Y-138769333D01*
X31279209Y-138749949D01*
X31294000Y-138737013D01*
X31290353Y-138723451D01*
X31274995Y-138705632D01*
X31235923Y-138679845D01*
X31193846Y-138677950D01*
X31156103Y-138696717D01*
X31130034Y-138732915D01*
X31122514Y-138772748D01*
X30983233Y-138772748D01*
X30987194Y-138736027D01*
X31011550Y-138666212D01*
X31045456Y-138617302D01*
X31106653Y-138567878D01*
X31174063Y-138543359D01*
X31242880Y-138541797D01*
X31308303Y-138561239D01*
G37*
X33179744Y-138580968D02*
X33236616Y-138602087D01*
X33237267Y-138602493D01*
X33272440Y-138628380D01*
X33298407Y-138658633D01*
X33316670Y-138698058D01*
X33328732Y-138751462D01*
X33336096Y-138823651D01*
X33340264Y-138919432D01*
X33340629Y-138933078D01*
X33345876Y-139138842D01*
X33301716Y-139161678D01*
X33269763Y-139177110D01*
X33250470Y-139184423D01*
X33249578Y-139184514D01*
X33246239Y-139171022D01*
X33243587Y-139134626D01*
X33241956Y-139081452D01*
X33241600Y-139038393D01*
X33241592Y-138968641D01*
X33238403Y-138924837D01*
X33227288Y-138903944D01*
X33203501Y-138902925D01*
X33162296Y-138918741D01*
X33100086Y-138947815D01*
X33054341Y-138971963D01*
X33030813Y-138992913D01*
X33023896Y-139015747D01*
X33023886Y-139016877D01*
X33035299Y-139056212D01*
X33069092Y-139077462D01*
X33120809Y-139080539D01*
X33158061Y-139080006D01*
X33177703Y-139090735D01*
X33189952Y-139116505D01*
X33197002Y-139149337D01*
X33186842Y-139167966D01*
X33183017Y-139170632D01*
X33147001Y-139181340D01*
X33096566Y-139182856D01*
X33044626Y-139175759D01*
X33007822Y-139162788D01*
X32956938Y-139119585D01*
X32928014Y-139059446D01*
X32922286Y-139012462D01*
X32926657Y-138970082D01*
X32942475Y-138935488D01*
X32973797Y-138904763D01*
X33024678Y-138873990D01*
X33099176Y-138839252D01*
X33103714Y-138837288D01*
X33170821Y-138806287D01*
X33212232Y-138780862D01*
X33229981Y-138758014D01*
X33226107Y-138734745D01*
X33202643Y-138708056D01*
X33195627Y-138701914D01*
X33148630Y-138678100D01*
X33099933Y-138679103D01*
X33057522Y-138702451D01*
X33029384Y-138745675D01*
X33026769Y-138754160D01*
X33001308Y-138795308D01*
X32969001Y-138815128D01*
X32922286Y-138834770D01*
X32922286Y-138783950D01*
X32936496Y-138710082D01*
X32978675Y-138642327D01*
X33000624Y-138619661D01*
X33050517Y-138590569D01*
X33113967Y-138577400D01*
X33179744Y-138580968D01*
G36*
X33179744Y-138580968D02*
G01*
X33236616Y-138602087D01*
X33237267Y-138602493D01*
X33272440Y-138628380D01*
X33298407Y-138658633D01*
X33316670Y-138698058D01*
X33328732Y-138751462D01*
X33336096Y-138823651D01*
X33340264Y-138919432D01*
X33340629Y-138933078D01*
X33345876Y-139138842D01*
X33301716Y-139161678D01*
X33269763Y-139177110D01*
X33250470Y-139184423D01*
X33249578Y-139184514D01*
X33246239Y-139171022D01*
X33243587Y-139134626D01*
X33241956Y-139081452D01*
X33241600Y-139038393D01*
X33241592Y-138968641D01*
X33238403Y-138924837D01*
X33227288Y-138903944D01*
X33203501Y-138902925D01*
X33162296Y-138918741D01*
X33100086Y-138947815D01*
X33054341Y-138971963D01*
X33030813Y-138992913D01*
X33023896Y-139015747D01*
X33023886Y-139016877D01*
X33035299Y-139056212D01*
X33069092Y-139077462D01*
X33120809Y-139080539D01*
X33158061Y-139080006D01*
X33177703Y-139090735D01*
X33189952Y-139116505D01*
X33197002Y-139149337D01*
X33186842Y-139167966D01*
X33183017Y-139170632D01*
X33147001Y-139181340D01*
X33096566Y-139182856D01*
X33044626Y-139175759D01*
X33007822Y-139162788D01*
X32956938Y-139119585D01*
X32928014Y-139059446D01*
X32922286Y-139012462D01*
X32926657Y-138970082D01*
X32942475Y-138935488D01*
X32973797Y-138904763D01*
X33024678Y-138873990D01*
X33099176Y-138839252D01*
X33103714Y-138837288D01*
X33170821Y-138806287D01*
X33212232Y-138780862D01*
X33229981Y-138758014D01*
X33226107Y-138734745D01*
X33202643Y-138708056D01*
X33195627Y-138701914D01*
X33148630Y-138678100D01*
X33099933Y-138679103D01*
X33057522Y-138702451D01*
X33029384Y-138745675D01*
X33026769Y-138754160D01*
X33001308Y-138795308D01*
X32969001Y-138815128D01*
X32922286Y-138834770D01*
X32922286Y-138783950D01*
X32936496Y-138710082D01*
X32978675Y-138642327D01*
X33000624Y-138619661D01*
X33050517Y-138590569D01*
X33113967Y-138577400D01*
X33179744Y-138580968D01*
G37*
X30739744Y-138549918D02*
X30795201Y-138577568D01*
X30844148Y-138628480D01*
X30857629Y-138647338D01*
X30872314Y-138672015D01*
X30881842Y-138698816D01*
X30887293Y-138734587D01*
X30889747Y-138786169D01*
X30890286Y-138854267D01*
X30887852Y-138947588D01*
X30879394Y-139017657D01*
X30863174Y-139069931D01*
X30837454Y-139109869D01*
X30800497Y-139142929D01*
X30797782Y-139144886D01*
X30761360Y-139164908D01*
X30717502Y-139174815D01*
X30661724Y-139177257D01*
X30571048Y-139177257D01*
X30571010Y-139265283D01*
X30570166Y-139314308D01*
X30565024Y-139343065D01*
X30551587Y-139360311D01*
X30525858Y-139374808D01*
X30519679Y-139377769D01*
X30490764Y-139391648D01*
X30468376Y-139400414D01*
X30451729Y-139401171D01*
X30440036Y-139391023D01*
X30432510Y-139367073D01*
X30428366Y-139326426D01*
X30426815Y-139266186D01*
X30427071Y-139183455D01*
X30428349Y-139075339D01*
X30428748Y-139043000D01*
X30430185Y-138931524D01*
X30431472Y-138858603D01*
X30570971Y-138858603D01*
X30571755Y-138920499D01*
X30575240Y-138960997D01*
X30583124Y-138987708D01*
X30597105Y-139008244D01*
X30606597Y-139018260D01*
X30645404Y-139047567D01*
X30679763Y-139049952D01*
X30715216Y-139025750D01*
X30716114Y-139024857D01*
X30730539Y-139006153D01*
X30739313Y-138980732D01*
X30743739Y-138941584D01*
X30745118Y-138881697D01*
X30745143Y-138868430D01*
X30741812Y-138785901D01*
X30730969Y-138728691D01*
X30711340Y-138693766D01*
X30681650Y-138678094D01*
X30664491Y-138676514D01*
X30623766Y-138683926D01*
X30595832Y-138708330D01*
X30579017Y-138752980D01*
X30571650Y-138821130D01*
X30570971Y-138858603D01*
X30431472Y-138858603D01*
X30431708Y-138845245D01*
X30433677Y-138780333D01*
X30436450Y-138732958D01*
X30440388Y-138699290D01*
X30445849Y-138675498D01*
X30453192Y-138657753D01*
X30462777Y-138642224D01*
X30466887Y-138636381D01*
X30521405Y-138581185D01*
X30590336Y-138549890D01*
X30670072Y-138541165D01*
X30739744Y-138549918D01*
G36*
X30739744Y-138549918D02*
G01*
X30795201Y-138577568D01*
X30844148Y-138628480D01*
X30857629Y-138647338D01*
X30872314Y-138672015D01*
X30881842Y-138698816D01*
X30887293Y-138734587D01*
X30889747Y-138786169D01*
X30890286Y-138854267D01*
X30887852Y-138947588D01*
X30879394Y-139017657D01*
X30863174Y-139069931D01*
X30837454Y-139109869D01*
X30800497Y-139142929D01*
X30797782Y-139144886D01*
X30761360Y-139164908D01*
X30717502Y-139174815D01*
X30661724Y-139177257D01*
X30571048Y-139177257D01*
X30571010Y-139265283D01*
X30570166Y-139314308D01*
X30565024Y-139343065D01*
X30551587Y-139360311D01*
X30525858Y-139374808D01*
X30519679Y-139377769D01*
X30490764Y-139391648D01*
X30468376Y-139400414D01*
X30451729Y-139401171D01*
X30440036Y-139391023D01*
X30432510Y-139367073D01*
X30428366Y-139326426D01*
X30426815Y-139266186D01*
X30427071Y-139183455D01*
X30428349Y-139075339D01*
X30428748Y-139043000D01*
X30430185Y-138931524D01*
X30431472Y-138858603D01*
X30570971Y-138858603D01*
X30571755Y-138920499D01*
X30575240Y-138960997D01*
X30583124Y-138987708D01*
X30597105Y-139008244D01*
X30606597Y-139018260D01*
X30645404Y-139047567D01*
X30679763Y-139049952D01*
X30715216Y-139025750D01*
X30716114Y-139024857D01*
X30730539Y-139006153D01*
X30739313Y-138980732D01*
X30743739Y-138941584D01*
X30745118Y-138881697D01*
X30745143Y-138868430D01*
X30741812Y-138785901D01*
X30730969Y-138728691D01*
X30711340Y-138693766D01*
X30681650Y-138678094D01*
X30664491Y-138676514D01*
X30623766Y-138683926D01*
X30595832Y-138708330D01*
X30579017Y-138752980D01*
X30571650Y-138821130D01*
X30570971Y-138858603D01*
X30431472Y-138858603D01*
X30431708Y-138845245D01*
X30433677Y-138780333D01*
X30436450Y-138732958D01*
X30440388Y-138699290D01*
X30445849Y-138675498D01*
X30453192Y-138657753D01*
X30462777Y-138642224D01*
X30466887Y-138636381D01*
X30521405Y-138581185D01*
X30590336Y-138549890D01*
X30670072Y-138541165D01*
X30739744Y-138549918D01*
G37*
X35284876Y-138586335D02*
X35326667Y-138605344D01*
X35359469Y-138628378D01*
X35383503Y-138654133D01*
X35400097Y-138687358D01*
X35410577Y-138732800D01*
X35416271Y-138795207D01*
X35418507Y-138879327D01*
X35418743Y-138934721D01*
X35418743Y-139150826D01*
X35381774Y-139167670D01*
X35352656Y-139179981D01*
X35338231Y-139184514D01*
X35335472Y-139171025D01*
X35333282Y-139134653D01*
X35331942Y-139081542D01*
X35331657Y-139039372D01*
X35330434Y-138978447D01*
X35327136Y-138930115D01*
X35322321Y-138900518D01*
X35318496Y-138894229D01*
X35292783Y-138900652D01*
X35252418Y-138917125D01*
X35205679Y-138939458D01*
X35160845Y-138963457D01*
X35126193Y-138984930D01*
X35110002Y-138999685D01*
X35109938Y-138999845D01*
X35111330Y-139027152D01*
X35123818Y-139053219D01*
X35145743Y-139074392D01*
X35177743Y-139081474D01*
X35205092Y-139080649D01*
X35243826Y-139080042D01*
X35264158Y-139089116D01*
X35276369Y-139113092D01*
X35277909Y-139117613D01*
X35283203Y-139151806D01*
X35269047Y-139172568D01*
X35232148Y-139182462D01*
X35192289Y-139184292D01*
X35120562Y-139170727D01*
X35083432Y-139151355D01*
X35037576Y-139105845D01*
X35013256Y-139049983D01*
X35011073Y-138990957D01*
X35031629Y-138935953D01*
X35062549Y-138901486D01*
X35093420Y-138882189D01*
X35141942Y-138857759D01*
X35198485Y-138832985D01*
X35207910Y-138829199D01*
X35270019Y-138801791D01*
X35305822Y-138777634D01*
X35317337Y-138753619D01*
X35306580Y-138726635D01*
X35288114Y-138705543D01*
X35244469Y-138679572D01*
X35196446Y-138677624D01*
X35152406Y-138697637D01*
X35120709Y-138737551D01*
X35116549Y-138747848D01*
X35092327Y-138785724D01*
X35056965Y-138813842D01*
X35012343Y-138836917D01*
X35012343Y-138771485D01*
X35014969Y-138731506D01*
X35026230Y-138699997D01*
X35051199Y-138666378D01*
X35075169Y-138640484D01*
X35112441Y-138603817D01*
X35141401Y-138584121D01*
X35172505Y-138576220D01*
X35207713Y-138574914D01*
X35284876Y-138586335D01*
G36*
X35284876Y-138586335D02*
G01*
X35326667Y-138605344D01*
X35359469Y-138628378D01*
X35383503Y-138654133D01*
X35400097Y-138687358D01*
X35410577Y-138732800D01*
X35416271Y-138795207D01*
X35418507Y-138879327D01*
X35418743Y-138934721D01*
X35418743Y-139150826D01*
X35381774Y-139167670D01*
X35352656Y-139179981D01*
X35338231Y-139184514D01*
X35335472Y-139171025D01*
X35333282Y-139134653D01*
X35331942Y-139081542D01*
X35331657Y-139039372D01*
X35330434Y-138978447D01*
X35327136Y-138930115D01*
X35322321Y-138900518D01*
X35318496Y-138894229D01*
X35292783Y-138900652D01*
X35252418Y-138917125D01*
X35205679Y-138939458D01*
X35160845Y-138963457D01*
X35126193Y-138984930D01*
X35110002Y-138999685D01*
X35109938Y-138999845D01*
X35111330Y-139027152D01*
X35123818Y-139053219D01*
X35145743Y-139074392D01*
X35177743Y-139081474D01*
X35205092Y-139080649D01*
X35243826Y-139080042D01*
X35264158Y-139089116D01*
X35276369Y-139113092D01*
X35277909Y-139117613D01*
X35283203Y-139151806D01*
X35269047Y-139172568D01*
X35232148Y-139182462D01*
X35192289Y-139184292D01*
X35120562Y-139170727D01*
X35083432Y-139151355D01*
X35037576Y-139105845D01*
X35013256Y-139049983D01*
X35011073Y-138990957D01*
X35031629Y-138935953D01*
X35062549Y-138901486D01*
X35093420Y-138882189D01*
X35141942Y-138857759D01*
X35198485Y-138832985D01*
X35207910Y-138829199D01*
X35270019Y-138801791D01*
X35305822Y-138777634D01*
X35317337Y-138753619D01*
X35306580Y-138726635D01*
X35288114Y-138705543D01*
X35244469Y-138679572D01*
X35196446Y-138677624D01*
X35152406Y-138697637D01*
X35120709Y-138737551D01*
X35116549Y-138747848D01*
X35092327Y-138785724D01*
X35056965Y-138813842D01*
X35012343Y-138836917D01*
X35012343Y-138771485D01*
X35014969Y-138731506D01*
X35026230Y-138699997D01*
X35051199Y-138666378D01*
X35075169Y-138640484D01*
X35112441Y-138603817D01*
X35141401Y-138584121D01*
X35172505Y-138576220D01*
X35207713Y-138574914D01*
X35284876Y-138586335D01*
G37*
X33243910Y-133872348D02*
X33322454Y-133872778D01*
X33379298Y-133873942D01*
X33418105Y-133876207D01*
X33442538Y-133879940D01*
X33456262Y-133885506D01*
X33462940Y-133893273D01*
X33466236Y-133903605D01*
X33466556Y-133904943D01*
X33471562Y-133929079D01*
X33480829Y-133976701D01*
X33493392Y-134042741D01*
X33508287Y-134122128D01*
X33524551Y-134209796D01*
X33525119Y-134212875D01*
X33541410Y-134298789D01*
X33556652Y-134374696D01*
X33569861Y-134436045D01*
X33580054Y-134478282D01*
X33586248Y-134496855D01*
X33586543Y-134497184D01*
X33604788Y-134506253D01*
X33642405Y-134521367D01*
X33691271Y-134539262D01*
X33691543Y-134539358D01*
X33753093Y-134562493D01*
X33825657Y-134591965D01*
X33894057Y-134621597D01*
X33897294Y-134623062D01*
X34008702Y-134673626D01*
X34255399Y-134505160D01*
X34331077Y-134453803D01*
X34399631Y-134407889D01*
X34457088Y-134370030D01*
X34499476Y-134342837D01*
X34522825Y-134328921D01*
X34525042Y-134327889D01*
X34542010Y-134332484D01*
X34573701Y-134354655D01*
X34621352Y-134395447D01*
X34686198Y-134455905D01*
X34752397Y-134520227D01*
X34816214Y-134583612D01*
X34873329Y-134641451D01*
X34920305Y-134690175D01*
X34953703Y-134726210D01*
X34970085Y-134745984D01*
X34970694Y-134747002D01*
X34972505Y-134760572D01*
X34965683Y-134782733D01*
X34948540Y-134816478D01*
X34919393Y-134864800D01*
X34876555Y-134930692D01*
X34819448Y-135015517D01*
X34768766Y-135090177D01*
X34723461Y-135157140D01*
X34686150Y-135212516D01*
X34659452Y-135252420D01*
X34645985Y-135272962D01*
X34645137Y-135274356D01*
X34646781Y-135294038D01*
X34659245Y-135332293D01*
X34680048Y-135381889D01*
X34687462Y-135397728D01*
X34719814Y-135468290D01*
X34754328Y-135548353D01*
X34782365Y-135617629D01*
X34802568Y-135669045D01*
X34818615Y-135708119D01*
X34827888Y-135728541D01*
X34829041Y-135730114D01*
X34846096Y-135732721D01*
X34886298Y-135739863D01*
X34944302Y-135750523D01*
X35014763Y-135763685D01*
X35092335Y-135778333D01*
X35171672Y-135793449D01*
X35247431Y-135808018D01*
X35314264Y-135821022D01*
X35366828Y-135831445D01*
X35399776Y-135838270D01*
X35407857Y-135840199D01*
X35416205Y-135844962D01*
X35422506Y-135855718D01*
X35427045Y-135876098D01*
X35430104Y-135909734D01*
X35431967Y-135960255D01*
X35432918Y-136031292D01*
X35433240Y-136126476D01*
X35433257Y-136165492D01*
X35433257Y-136482799D01*
X35357057Y-136497839D01*
X35314663Y-136505995D01*
X35251400Y-136517899D01*
X35174962Y-136532116D01*
X35093043Y-136547210D01*
X35070400Y-136551355D01*
X34994806Y-136566053D01*
X34928953Y-136580505D01*
X34878366Y-136593375D01*
X34848574Y-136603322D01*
X34843612Y-136606287D01*
X34831426Y-136627283D01*
X34813953Y-136667967D01*
X34794577Y-136720322D01*
X34790734Y-136731600D01*
X34765339Y-136801523D01*
X34733817Y-136880418D01*
X34702969Y-136951266D01*
X34702817Y-136951595D01*
X34651447Y-137062733D01*
X34820399Y-137311253D01*
X34989352Y-137559772D01*
X34772429Y-137777058D01*
X34706819Y-137841726D01*
X34646979Y-137898733D01*
X34596267Y-137945033D01*
X34558046Y-137977584D01*
X34535675Y-137993343D01*
X34532466Y-137994343D01*
X34513626Y-137986469D01*
X34475180Y-137964578D01*
X34421330Y-137931267D01*
X34356276Y-137889131D01*
X34285940Y-137841943D01*
X34214555Y-137793810D01*
X34150908Y-137751928D01*
X34099041Y-137718871D01*
X34062995Y-137697218D01*
X34046867Y-137689543D01*
X34027189Y-137696037D01*
X33989875Y-137713150D01*
X33942621Y-137737326D01*
X33937612Y-137740013D01*
X33873977Y-137771927D01*
X33830341Y-137787579D01*
X33803202Y-137787745D01*
X33789057Y-137773204D01*
X33788975Y-137773000D01*
X33781905Y-137755779D01*
X33765042Y-137714899D01*
X33739695Y-137653525D01*
X33707171Y-137574819D01*
X33668778Y-137481947D01*
X33625822Y-137378072D01*
X33584222Y-137277502D01*
X33538504Y-137166516D01*
X33496526Y-137063703D01*
X33459548Y-136972215D01*
X33428827Y-136895201D01*
X33405622Y-136835815D01*
X33391190Y-136797209D01*
X33386743Y-136782800D01*
X33397896Y-136766272D01*
X33427069Y-136739930D01*
X33465971Y-136710887D01*
X33576757Y-136619039D01*
X33663351Y-136513759D01*
X33724716Y-136397266D01*
X33759815Y-136271776D01*
X33767608Y-136139507D01*
X33761943Y-136078457D01*
X33731078Y-135951795D01*
X33677920Y-135839941D01*
X33605767Y-135744001D01*
X33517917Y-135665076D01*
X33417665Y-135604270D01*
X33308310Y-135562687D01*
X33193147Y-135541428D01*
X33075475Y-135541599D01*
X32958590Y-135564301D01*
X32845789Y-135610638D01*
X32740369Y-135681713D01*
X32696368Y-135721911D01*
X32611979Y-135825129D01*
X32553222Y-135937925D01*
X32519704Y-136057010D01*
X32511035Y-136179095D01*
X32526823Y-136300893D01*
X32566678Y-136419116D01*
X32630207Y-136530475D01*
X32717021Y-136631684D01*
X32814029Y-136710887D01*
X32854437Y-136741162D01*
X32882982Y-136767219D01*
X32893257Y-136782825D01*
X32887877Y-136799843D01*
X32872575Y-136840500D01*
X32848612Y-136901642D01*
X32817244Y-136980119D01*
X32779732Y-137072780D01*
X32737333Y-137176472D01*
X32695663Y-137277526D01*
X32649690Y-137388607D01*
X32607107Y-137491541D01*
X32569221Y-137583165D01*
X32537340Y-137660316D01*
X32512771Y-137719831D01*
X32496820Y-137758544D01*
X32490910Y-137773000D01*
X32476948Y-137787685D01*
X32449940Y-137787642D01*
X32406413Y-137772099D01*
X32342890Y-137740284D01*
X32342388Y-137740013D01*
X32294560Y-137715323D01*
X32255897Y-137697338D01*
X32234095Y-137689614D01*
X32233133Y-137689543D01*
X32216721Y-137697378D01*
X32180487Y-137719165D01*
X32128474Y-137752328D01*
X32064725Y-137794291D01*
X31994060Y-137841943D01*
X31922116Y-137890191D01*
X31857274Y-137932151D01*
X31803735Y-137965227D01*
X31765697Y-137986821D01*
X31747533Y-137994343D01*
X31730808Y-137984457D01*
X31697180Y-137956826D01*
X31650010Y-137914495D01*
X31592658Y-137860505D01*
X31528484Y-137797899D01*
X31507497Y-137776983D01*
X31290499Y-137559623D01*
X31455668Y-137317220D01*
X31505864Y-137242781D01*
X31549919Y-137175972D01*
X31585362Y-137120665D01*
X31609719Y-137080729D01*
X31620522Y-137060036D01*
X31620838Y-137058563D01*
X31615143Y-137039058D01*
X31599826Y-136999822D01*
X31577537Y-136947430D01*
X31561893Y-136912355D01*
X31532641Y-136845201D01*
X31505094Y-136777358D01*
X31483737Y-136720034D01*
X31477935Y-136702572D01*
X31461452Y-136655938D01*
X31445340Y-136619905D01*
X31436490Y-136606287D01*
X31416960Y-136597952D01*
X31374334Y-136586137D01*
X31314145Y-136572181D01*
X31241922Y-136557422D01*
X31209600Y-136551355D01*
X31127522Y-136536273D01*
X31048795Y-136521669D01*
X30981109Y-136508980D01*
X30932160Y-136499642D01*
X30922943Y-136497839D01*
X30846743Y-136482799D01*
X30846743Y-136165492D01*
X30846914Y-136061154D01*
X30847616Y-135982213D01*
X30849134Y-135925038D01*
X30851749Y-135885999D01*
X30855746Y-135861465D01*
X30861409Y-135847805D01*
X30869020Y-135841389D01*
X30872143Y-135840199D01*
X30890978Y-135835980D01*
X30932588Y-135827562D01*
X30991630Y-135815961D01*
X31062757Y-135802195D01*
X31140625Y-135787280D01*
X31219887Y-135772232D01*
X31295198Y-135758069D01*
X31361213Y-135745806D01*
X31412587Y-135736461D01*
X31443975Y-135731050D01*
X31450959Y-135730114D01*
X31457285Y-135717596D01*
X31471290Y-135684246D01*
X31490355Y-135636377D01*
X31497634Y-135617629D01*
X31526996Y-135545195D01*
X31561571Y-135465170D01*
X31592537Y-135397728D01*
X31615323Y-135346159D01*
X31630482Y-135303785D01*
X31635542Y-135277834D01*
X31634736Y-135274356D01*
X31624041Y-135257936D01*
X31599620Y-135221417D01*
X31564095Y-135168687D01*
X31520087Y-135103635D01*
X31470217Y-135030151D01*
X31460356Y-135015645D01*
X31402492Y-134929704D01*
X31359956Y-134864261D01*
X31331054Y-134816304D01*
X31314090Y-134782820D01*
X31307367Y-134760795D01*
X31309190Y-134747217D01*
X31309236Y-134747131D01*
X31323586Y-134729297D01*
X31355323Y-134694817D01*
X31401010Y-134647268D01*
X31457204Y-134590222D01*
X31520468Y-134527255D01*
X31527602Y-134520227D01*
X31607330Y-134443020D01*
X31668857Y-134386330D01*
X31713421Y-134349110D01*
X31742257Y-134330315D01*
X31754958Y-134327889D01*
X31773494Y-134338471D01*
X31811961Y-134362916D01*
X31866386Y-134398612D01*
X31932798Y-134442947D01*
X32007225Y-134493311D01*
X32024601Y-134505160D01*
X32271297Y-134673626D01*
X32382706Y-134623062D01*
X32450457Y-134593595D01*
X32523183Y-134563959D01*
X32585703Y-134540330D01*
X32588457Y-134539358D01*
X32637360Y-134521457D01*
X32675057Y-134506320D01*
X32693425Y-134497210D01*
X32693456Y-134497184D01*
X32699285Y-134480717D01*
X32709192Y-134440219D01*
X32722195Y-134380242D01*
X32737309Y-134305340D01*
X32753552Y-134220064D01*
X32754881Y-134212875D01*
X32771175Y-134125014D01*
X32786133Y-134045260D01*
X32798791Y-133978681D01*
X32808186Y-133930347D01*
X32813354Y-133905325D01*
X32813444Y-133904943D01*
X32816589Y-133894299D01*
X32822704Y-133886262D01*
X32835453Y-133880467D01*
X32858500Y-133876547D01*
X32895509Y-133874135D01*
X32950144Y-133872865D01*
X33026067Y-133872371D01*
X33126944Y-133872286D01*
X33140000Y-133872286D01*
X33243910Y-133872348D01*
G36*
X33243910Y-133872348D02*
G01*
X33322454Y-133872778D01*
X33379298Y-133873942D01*
X33418105Y-133876207D01*
X33442538Y-133879940D01*
X33456262Y-133885506D01*
X33462940Y-133893273D01*
X33466236Y-133903605D01*
X33466556Y-133904943D01*
X33471562Y-133929079D01*
X33480829Y-133976701D01*
X33493392Y-134042741D01*
X33508287Y-134122128D01*
X33524551Y-134209796D01*
X33525119Y-134212875D01*
X33541410Y-134298789D01*
X33556652Y-134374696D01*
X33569861Y-134436045D01*
X33580054Y-134478282D01*
X33586248Y-134496855D01*
X33586543Y-134497184D01*
X33604788Y-134506253D01*
X33642405Y-134521367D01*
X33691271Y-134539262D01*
X33691543Y-134539358D01*
X33753093Y-134562493D01*
X33825657Y-134591965D01*
X33894057Y-134621597D01*
X33897294Y-134623062D01*
X34008702Y-134673626D01*
X34255399Y-134505160D01*
X34331077Y-134453803D01*
X34399631Y-134407889D01*
X34457088Y-134370030D01*
X34499476Y-134342837D01*
X34522825Y-134328921D01*
X34525042Y-134327889D01*
X34542010Y-134332484D01*
X34573701Y-134354655D01*
X34621352Y-134395447D01*
X34686198Y-134455905D01*
X34752397Y-134520227D01*
X34816214Y-134583612D01*
X34873329Y-134641451D01*
X34920305Y-134690175D01*
X34953703Y-134726210D01*
X34970085Y-134745984D01*
X34970694Y-134747002D01*
X34972505Y-134760572D01*
X34965683Y-134782733D01*
X34948540Y-134816478D01*
X34919393Y-134864800D01*
X34876555Y-134930692D01*
X34819448Y-135015517D01*
X34768766Y-135090177D01*
X34723461Y-135157140D01*
X34686150Y-135212516D01*
X34659452Y-135252420D01*
X34645985Y-135272962D01*
X34645137Y-135274356D01*
X34646781Y-135294038D01*
X34659245Y-135332293D01*
X34680048Y-135381889D01*
X34687462Y-135397728D01*
X34719814Y-135468290D01*
X34754328Y-135548353D01*
X34782365Y-135617629D01*
X34802568Y-135669045D01*
X34818615Y-135708119D01*
X34827888Y-135728541D01*
X34829041Y-135730114D01*
X34846096Y-135732721D01*
X34886298Y-135739863D01*
X34944302Y-135750523D01*
X35014763Y-135763685D01*
X35092335Y-135778333D01*
X35171672Y-135793449D01*
X35247431Y-135808018D01*
X35314264Y-135821022D01*
X35366828Y-135831445D01*
X35399776Y-135838270D01*
X35407857Y-135840199D01*
X35416205Y-135844962D01*
X35422506Y-135855718D01*
X35427045Y-135876098D01*
X35430104Y-135909734D01*
X35431967Y-135960255D01*
X35432918Y-136031292D01*
X35433240Y-136126476D01*
X35433257Y-136165492D01*
X35433257Y-136482799D01*
X35357057Y-136497839D01*
X35314663Y-136505995D01*
X35251400Y-136517899D01*
X35174962Y-136532116D01*
X35093043Y-136547210D01*
X35070400Y-136551355D01*
X34994806Y-136566053D01*
X34928953Y-136580505D01*
X34878366Y-136593375D01*
X34848574Y-136603322D01*
X34843612Y-136606287D01*
X34831426Y-136627283D01*
X34813953Y-136667967D01*
X34794577Y-136720322D01*
X34790734Y-136731600D01*
X34765339Y-136801523D01*
X34733817Y-136880418D01*
X34702969Y-136951266D01*
X34702817Y-136951595D01*
X34651447Y-137062733D01*
X34820399Y-137311253D01*
X34989352Y-137559772D01*
X34772429Y-137777058D01*
X34706819Y-137841726D01*
X34646979Y-137898733D01*
X34596267Y-137945033D01*
X34558046Y-137977584D01*
X34535675Y-137993343D01*
X34532466Y-137994343D01*
X34513626Y-137986469D01*
X34475180Y-137964578D01*
X34421330Y-137931267D01*
X34356276Y-137889131D01*
X34285940Y-137841943D01*
X34214555Y-137793810D01*
X34150908Y-137751928D01*
X34099041Y-137718871D01*
X34062995Y-137697218D01*
X34046867Y-137689543D01*
X34027189Y-137696037D01*
X33989875Y-137713150D01*
X33942621Y-137737326D01*
X33937612Y-137740013D01*
X33873977Y-137771927D01*
X33830341Y-137787579D01*
X33803202Y-137787745D01*
X33789057Y-137773204D01*
X33788975Y-137773000D01*
X33781905Y-137755779D01*
X33765042Y-137714899D01*
X33739695Y-137653525D01*
X33707171Y-137574819D01*
X33668778Y-137481947D01*
X33625822Y-137378072D01*
X33584222Y-137277502D01*
X33538504Y-137166516D01*
X33496526Y-137063703D01*
X33459548Y-136972215D01*
X33428827Y-136895201D01*
X33405622Y-136835815D01*
X33391190Y-136797209D01*
X33386743Y-136782800D01*
X33397896Y-136766272D01*
X33427069Y-136739930D01*
X33465971Y-136710887D01*
X33576757Y-136619039D01*
X33663351Y-136513759D01*
X33724716Y-136397266D01*
X33759815Y-136271776D01*
X33767608Y-136139507D01*
X33761943Y-136078457D01*
X33731078Y-135951795D01*
X33677920Y-135839941D01*
X33605767Y-135744001D01*
X33517917Y-135665076D01*
X33417665Y-135604270D01*
X33308310Y-135562687D01*
X33193147Y-135541428D01*
X33075475Y-135541599D01*
X32958590Y-135564301D01*
X32845789Y-135610638D01*
X32740369Y-135681713D01*
X32696368Y-135721911D01*
X32611979Y-135825129D01*
X32553222Y-135937925D01*
X32519704Y-136057010D01*
X32511035Y-136179095D01*
X32526823Y-136300893D01*
X32566678Y-136419116D01*
X32630207Y-136530475D01*
X32717021Y-136631684D01*
X32814029Y-136710887D01*
X32854437Y-136741162D01*
X32882982Y-136767219D01*
X32893257Y-136782825D01*
X32887877Y-136799843D01*
X32872575Y-136840500D01*
X32848612Y-136901642D01*
X32817244Y-136980119D01*
X32779732Y-137072780D01*
X32737333Y-137176472D01*
X32695663Y-137277526D01*
X32649690Y-137388607D01*
X32607107Y-137491541D01*
X32569221Y-137583165D01*
X32537340Y-137660316D01*
X32512771Y-137719831D01*
X32496820Y-137758544D01*
X32490910Y-137773000D01*
X32476948Y-137787685D01*
X32449940Y-137787642D01*
X32406413Y-137772099D01*
X32342890Y-137740284D01*
X32342388Y-137740013D01*
X32294560Y-137715323D01*
X32255897Y-137697338D01*
X32234095Y-137689614D01*
X32233133Y-137689543D01*
X32216721Y-137697378D01*
X32180487Y-137719165D01*
X32128474Y-137752328D01*
X32064725Y-137794291D01*
X31994060Y-137841943D01*
X31922116Y-137890191D01*
X31857274Y-137932151D01*
X31803735Y-137965227D01*
X31765697Y-137986821D01*
X31747533Y-137994343D01*
X31730808Y-137984457D01*
X31697180Y-137956826D01*
X31650010Y-137914495D01*
X31592658Y-137860505D01*
X31528484Y-137797899D01*
X31507497Y-137776983D01*
X31290499Y-137559623D01*
X31455668Y-137317220D01*
X31505864Y-137242781D01*
X31549919Y-137175972D01*
X31585362Y-137120665D01*
X31609719Y-137080729D01*
X31620522Y-137060036D01*
X31620838Y-137058563D01*
X31615143Y-137039058D01*
X31599826Y-136999822D01*
X31577537Y-136947430D01*
X31561893Y-136912355D01*
X31532641Y-136845201D01*
X31505094Y-136777358D01*
X31483737Y-136720034D01*
X31477935Y-136702572D01*
X31461452Y-136655938D01*
X31445340Y-136619905D01*
X31436490Y-136606287D01*
X31416960Y-136597952D01*
X31374334Y-136586137D01*
X31314145Y-136572181D01*
X31241922Y-136557422D01*
X31209600Y-136551355D01*
X31127522Y-136536273D01*
X31048795Y-136521669D01*
X30981109Y-136508980D01*
X30932160Y-136499642D01*
X30922943Y-136497839D01*
X30846743Y-136482799D01*
X30846743Y-136165492D01*
X30846914Y-136061154D01*
X30847616Y-135982213D01*
X30849134Y-135925038D01*
X30851749Y-135885999D01*
X30855746Y-135861465D01*
X30861409Y-135847805D01*
X30869020Y-135841389D01*
X30872143Y-135840199D01*
X30890978Y-135835980D01*
X30932588Y-135827562D01*
X30991630Y-135815961D01*
X31062757Y-135802195D01*
X31140625Y-135787280D01*
X31219887Y-135772232D01*
X31295198Y-135758069D01*
X31361213Y-135745806D01*
X31412587Y-135736461D01*
X31443975Y-135731050D01*
X31450959Y-135730114D01*
X31457285Y-135717596D01*
X31471290Y-135684246D01*
X31490355Y-135636377D01*
X31497634Y-135617629D01*
X31526996Y-135545195D01*
X31561571Y-135465170D01*
X31592537Y-135397728D01*
X31615323Y-135346159D01*
X31630482Y-135303785D01*
X31635542Y-135277834D01*
X31634736Y-135274356D01*
X31624041Y-135257936D01*
X31599620Y-135221417D01*
X31564095Y-135168687D01*
X31520087Y-135103635D01*
X31470217Y-135030151D01*
X31460356Y-135015645D01*
X31402492Y-134929704D01*
X31359956Y-134864261D01*
X31331054Y-134816304D01*
X31314090Y-134782820D01*
X31307367Y-134760795D01*
X31309190Y-134747217D01*
X31309236Y-134747131D01*
X31323586Y-134729297D01*
X31355323Y-134694817D01*
X31401010Y-134647268D01*
X31457204Y-134590222D01*
X31520468Y-134527255D01*
X31527602Y-134520227D01*
X31607330Y-134443020D01*
X31668857Y-134386330D01*
X31713421Y-134349110D01*
X31742257Y-134330315D01*
X31754958Y-134327889D01*
X31773494Y-134338471D01*
X31811961Y-134362916D01*
X31866386Y-134398612D01*
X31932798Y-134442947D01*
X32007225Y-134493311D01*
X32024601Y-134505160D01*
X32271297Y-134673626D01*
X32382706Y-134623062D01*
X32450457Y-134593595D01*
X32523183Y-134563959D01*
X32585703Y-134540330D01*
X32588457Y-134539358D01*
X32637360Y-134521457D01*
X32675057Y-134506320D01*
X32693425Y-134497210D01*
X32693456Y-134497184D01*
X32699285Y-134480717D01*
X32709192Y-134440219D01*
X32722195Y-134380242D01*
X32737309Y-134305340D01*
X32753552Y-134220064D01*
X32754881Y-134212875D01*
X32771175Y-134125014D01*
X32786133Y-134045260D01*
X32798791Y-133978681D01*
X32808186Y-133930347D01*
X32813354Y-133905325D01*
X32813444Y-133904943D01*
X32816589Y-133894299D01*
X32822704Y-133886262D01*
X32835453Y-133880467D01*
X32858500Y-133876547D01*
X32895509Y-133874135D01*
X32950144Y-133872865D01*
X33026067Y-133872371D01*
X33126944Y-133872286D01*
X33140000Y-133872286D01*
X33243910Y-133872348D01*
G37*
D16*
%TO.C,U7*%
X91755000Y-161565000D02*
X91755000Y-163515000D01*
X91755000Y-161565000D02*
X91755000Y-159615000D01*
X101875000Y-161565000D02*
X101875000Y-163515000D01*
X101875000Y-161565000D02*
X101875000Y-159615000D01*
X91810000Y-164265000D02*
X91480000Y-164505000D01*
X91480000Y-164025000D01*
X91810000Y-164265000D01*
G36*
X91810000Y-164265000D02*
G01*
X91480000Y-164505000D01*
X91480000Y-164025000D01*
X91810000Y-164265000D01*
G37*
%TO.C,J2*%
X37830000Y-132295000D02*
X37830000Y-137495000D01*
X37830000Y-132295000D02*
X40430000Y-132295000D01*
X37830000Y-137495000D02*
X43030000Y-137495000D01*
X40430000Y-132295000D02*
X40430000Y-134895000D01*
X40430000Y-134895000D02*
X43030000Y-134895000D01*
X41700000Y-132295000D02*
X43030000Y-132295000D01*
X43030000Y-132295000D02*
X43030000Y-133625000D01*
X43030000Y-134895000D02*
X43030000Y-137495000D01*
%TO.C,J5*%
X31545000Y-186970000D02*
X31545000Y-187490000D01*
X31545000Y-187490000D02*
X46165000Y-187490000D01*
X32195000Y-172010000D02*
X32195000Y-175340000D01*
X32195000Y-172010000D02*
X45515000Y-172010000D01*
X32195000Y-186970000D02*
X31545000Y-186970000D01*
X32195000Y-186970000D02*
X32195000Y-178860000D01*
X34455000Y-171790000D02*
X36255000Y-171790000D01*
X45515000Y-172010000D02*
X45515000Y-175340000D01*
X45515000Y-178860000D02*
X45515000Y-186970000D01*
X46165000Y-186970000D02*
X45515000Y-186970000D01*
X46165000Y-187490000D02*
X46165000Y-186970000D01*
%TO.C,U10*%
X91739400Y-152892200D02*
X91739400Y-150942200D01*
X91739400Y-152892200D02*
X91739400Y-154842200D01*
X101859400Y-152892200D02*
X101859400Y-150942200D01*
X101859400Y-152892200D02*
X101859400Y-154842200D01*
X91794400Y-155592200D02*
X91464400Y-155832200D01*
X91464400Y-155352200D01*
X91794400Y-155592200D01*
G36*
X91794400Y-155592200D02*
G01*
X91464400Y-155832200D01*
X91464400Y-155352200D01*
X91794400Y-155592200D01*
G37*
%TO.C,J3*%
X29210000Y-139935000D02*
X43100000Y-139935000D01*
X43100000Y-139935000D02*
X43100000Y-170905000D01*
X43100000Y-170905000D02*
X29210000Y-170905000D01*
X43561325Y-159735000D02*
X43994338Y-159485000D01*
X43994338Y-159485000D02*
X43994338Y-159985000D01*
X43994338Y-159985000D02*
X43561325Y-159735000D01*
%TO.C,X1*%
X82006000Y-167147000D02*
X82006000Y-179297000D01*
X82006000Y-179297000D02*
X102156000Y-179297000D01*
X102156000Y-166397000D02*
X82756000Y-166397000D01*
X102906000Y-178547000D02*
X102906000Y-167147000D01*
X82006000Y-167147000D02*
G75*
G02*
X82756000Y-166397000I750000J0D01*
G01*
X102156000Y-166397000D02*
G75*
G02*
X102906000Y-167147000I0J-750000D01*
G01*
X102906000Y-178547000D02*
G75*
G02*
X102156000Y-179297000I-750000J0D01*
G01*
%TO.C,U8*%
X48495600Y-152619400D02*
X48495600Y-165439400D01*
X48495600Y-165439400D02*
X79215600Y-165439400D01*
X48555600Y-155109400D02*
X48555600Y-158029400D01*
X48555600Y-160029400D02*
X48555600Y-162949400D01*
X48555600Y-162949400D02*
X79155600Y-162949400D01*
X79155600Y-155109400D02*
X48555600Y-155109400D01*
X79155600Y-162949400D02*
X79155600Y-155109400D01*
X79215600Y-152619400D02*
X48495600Y-152619400D01*
X79215600Y-165439400D02*
X79215600Y-152619400D01*
X48555600Y-158029400D02*
G75*
G02*
X48555600Y-160029400I0J-1000000D01*
G01*
%TO.C,U2*%
X104665800Y-169594000D02*
X104900800Y-169594000D01*
X104665800Y-173454000D02*
X104665800Y-169594000D01*
X104665800Y-173454000D02*
X104665800Y-177314000D01*
X104665800Y-177314000D02*
X104900800Y-177314000D01*
X117685800Y-169594000D02*
X117450800Y-169594000D01*
X117685800Y-173454000D02*
X117685800Y-169594000D01*
X117685800Y-173454000D02*
X117685800Y-177314000D01*
X117685800Y-177314000D02*
X117450800Y-177314000D01*
X104900800Y-178104000D02*
X104430800Y-178444000D01*
X104430800Y-177764000D01*
X104900800Y-178104000D01*
G36*
X104900800Y-178104000D02*
G01*
X104430800Y-178444000D01*
X104430800Y-177764000D01*
X104900800Y-178104000D01*
G37*
%TO.C,U19*%
X93308400Y-136662000D02*
X91358400Y-136662000D01*
X93308400Y-136662000D02*
X95258400Y-136662000D01*
X93308400Y-145532000D02*
X91358400Y-145532000D01*
X93308400Y-145532000D02*
X95258400Y-145532000D01*
X90608400Y-136727000D02*
X90368400Y-136397000D01*
X90848400Y-136397000D01*
X90608400Y-136727000D01*
G36*
X90608400Y-136727000D02*
G01*
X90368400Y-136397000D01*
X90848400Y-136397000D01*
X90608400Y-136727000D01*
G37*
%TO.C,U5*%
X80614200Y-152866800D02*
X80614200Y-150916800D01*
X80614200Y-152866800D02*
X80614200Y-154816800D01*
X90734200Y-152866800D02*
X90734200Y-150916800D01*
X90734200Y-152866800D02*
X90734200Y-154816800D01*
X80669200Y-155566800D02*
X80339200Y-155806800D01*
X80339200Y-155326800D01*
X80669200Y-155566800D01*
G36*
X80669200Y-155566800D02*
G01*
X80339200Y-155806800D01*
X80339200Y-155326800D01*
X80669200Y-155566800D01*
G37*
%TO.C,U16*%
X107426600Y-150814000D02*
X107426600Y-148864000D01*
X107426600Y-150814000D02*
X107426600Y-152764000D01*
X116296600Y-150814000D02*
X116296600Y-148864000D01*
X116296600Y-150814000D02*
X116296600Y-152764000D01*
X107491600Y-153514000D02*
X107161600Y-153754000D01*
X107161600Y-153274000D01*
X107491600Y-153514000D01*
G36*
X107491600Y-153514000D02*
G01*
X107161600Y-153754000D01*
X107161600Y-153274000D01*
X107491600Y-153514000D01*
G37*
%TO.C,U15*%
X107426600Y-160491400D02*
X107426600Y-158541400D01*
X107426600Y-160491400D02*
X107426600Y-162441400D01*
X116296600Y-160491400D02*
X116296600Y-158541400D01*
X116296600Y-160491400D02*
X116296600Y-162441400D01*
X107491600Y-163191400D02*
X107161600Y-163431400D01*
X107161600Y-162951400D01*
X107491600Y-163191400D01*
G36*
X107491600Y-163191400D02*
G01*
X107161600Y-163431400D01*
X107161600Y-162951400D01*
X107491600Y-163191400D01*
G37*
%TO.C,J1*%
X99254000Y-136998400D02*
X99254000Y-147278400D01*
X99254000Y-136998400D02*
X101854000Y-136998400D01*
X99254000Y-147278400D02*
X104454000Y-147278400D01*
X101854000Y-136998400D02*
X101854000Y-139598400D01*
X101854000Y-139598400D02*
X104454000Y-139598400D01*
X103124000Y-136998400D02*
X104454000Y-136998400D01*
X104454000Y-136998400D02*
X104454000Y-138328400D01*
X104454000Y-139598400D02*
X104454000Y-147278400D01*
%TO.C,U6*%
X80715800Y-161553600D02*
X80715800Y-159603600D01*
X80715800Y-161553600D02*
X80715800Y-163503600D01*
X90835800Y-161553600D02*
X90835800Y-159603600D01*
X90835800Y-161553600D02*
X90835800Y-163503600D01*
X80770800Y-164253600D02*
X80440800Y-164493600D01*
X80440800Y-164013600D01*
X80770800Y-164253600D01*
G36*
X80770800Y-164253600D02*
G01*
X80440800Y-164493600D01*
X80440800Y-164013600D01*
X80770800Y-164253600D01*
G37*
%TO.C,U9*%
X48495600Y-166437000D02*
X48495600Y-179257000D01*
X48495600Y-179257000D02*
X79215600Y-179257000D01*
X48555600Y-168927000D02*
X48555600Y-171847000D01*
X48555600Y-173847000D02*
X48555600Y-176767000D01*
X48555600Y-176767000D02*
X79155600Y-176767000D01*
X79155600Y-168927000D02*
X48555600Y-168927000D01*
X79155600Y-176767000D02*
X79155600Y-168927000D01*
X79215600Y-166437000D02*
X48495600Y-166437000D01*
X79215600Y-179257000D02*
X79215600Y-166437000D01*
X48555600Y-171847000D02*
G75*
G02*
X48555600Y-173847000I0J-1000000D01*
G01*
%TO.C,U18*%
X65073000Y-135820400D02*
X65073000Y-136055400D01*
X65073000Y-148840400D02*
X65073000Y-148605400D01*
X68933000Y-135820400D02*
X65073000Y-135820400D01*
X68933000Y-135820400D02*
X72793000Y-135820400D01*
X68933000Y-148840400D02*
X65073000Y-148840400D01*
X68933000Y-148840400D02*
X72793000Y-148840400D01*
X72793000Y-135820400D02*
X72793000Y-136055400D01*
X72793000Y-148840400D02*
X72793000Y-148605400D01*
X64283000Y-136055400D02*
X63943000Y-135585400D01*
X64623000Y-135585400D01*
X64283000Y-136055400D01*
G36*
X64283000Y-136055400D02*
G01*
X63943000Y-135585400D01*
X64623000Y-135585400D01*
X64283000Y-136055400D01*
G37*
%TO.C,U17*%
X107426600Y-141136600D02*
X107426600Y-139186600D01*
X107426600Y-141136600D02*
X107426600Y-143086600D01*
X116296600Y-141136600D02*
X116296600Y-139186600D01*
X116296600Y-141136600D02*
X116296600Y-143086600D01*
X107491600Y-143836600D02*
X107161600Y-144076600D01*
X107161600Y-143596600D01*
X107491600Y-143836600D01*
G36*
X107491600Y-143836600D02*
G01*
X107161600Y-144076600D01*
X107161600Y-143596600D01*
X107491600Y-143836600D01*
G37*
%TO.C,U20*%
X48464000Y-135820400D02*
X48464000Y-136055400D01*
X48464000Y-148840400D02*
X48464000Y-148605400D01*
X52324000Y-135820400D02*
X48464000Y-135820400D01*
X52324000Y-135820400D02*
X56184000Y-135820400D01*
X52324000Y-148840400D02*
X48464000Y-148840400D01*
X52324000Y-148840400D02*
X56184000Y-148840400D01*
X56184000Y-135820400D02*
X56184000Y-136055400D01*
X56184000Y-148840400D02*
X56184000Y-148605400D01*
X47674000Y-136055400D02*
X47334000Y-135585400D01*
X48014000Y-135585400D01*
X47674000Y-136055400D01*
G36*
X47674000Y-136055400D02*
G01*
X47334000Y-135585400D01*
X48014000Y-135585400D01*
X47674000Y-136055400D01*
G37*
%TD*%
M02*
