%TF.GenerationSoftware,KiCad,Pcbnew,8.0.4+dfsg-1*%
%TF.CreationDate,2024-11-13T23:12:42-05:00*%
%TF.ProjectId,VGA_SRAM_Shield,5647415f-5352-4414-9d5f-536869656c64,rev?*%
%TF.SameCoordinates,Original*%
%TF.FileFunction,Legend,Bot*%
%TF.FilePolarity,Positive*%
%FSLAX46Y46*%
G04 Gerber Fmt 4.6, Leading zero omitted, Abs format (unit mm)*
G04 Created by KiCad (PCBNEW 8.0.4+dfsg-1) date 2024-11-13 23:12:42*
%MOMM*%
%LPD*%
G01*
G04 APERTURE LIST*
%ADD10C,0.150000*%
%ADD11C,0.010000*%
%ADD12C,0.120000*%
G04 APERTURE END LIST*
D10*
X119028935Y-141448200D02*
X118914649Y-141505342D01*
X118914649Y-141505342D02*
X118724173Y-141505342D01*
X118724173Y-141505342D02*
X118647982Y-141448200D01*
X118647982Y-141448200D02*
X118609887Y-141391057D01*
X118609887Y-141391057D02*
X118571792Y-141276771D01*
X118571792Y-141276771D02*
X118571792Y-141162485D01*
X118571792Y-141162485D02*
X118609887Y-141048200D01*
X118609887Y-141048200D02*
X118647982Y-140991057D01*
X118647982Y-140991057D02*
X118724173Y-140933914D01*
X118724173Y-140933914D02*
X118876554Y-140876771D01*
X118876554Y-140876771D02*
X118952744Y-140819628D01*
X118952744Y-140819628D02*
X118990839Y-140762485D01*
X118990839Y-140762485D02*
X119028935Y-140648200D01*
X119028935Y-140648200D02*
X119028935Y-140533914D01*
X119028935Y-140533914D02*
X118990839Y-140419628D01*
X118990839Y-140419628D02*
X118952744Y-140362485D01*
X118952744Y-140362485D02*
X118876554Y-140305342D01*
X118876554Y-140305342D02*
X118686077Y-140305342D01*
X118686077Y-140305342D02*
X118571792Y-140362485D01*
X117771791Y-141391057D02*
X117809887Y-141448200D01*
X117809887Y-141448200D02*
X117924172Y-141505342D01*
X117924172Y-141505342D02*
X118000363Y-141505342D01*
X118000363Y-141505342D02*
X118114649Y-141448200D01*
X118114649Y-141448200D02*
X118190839Y-141333914D01*
X118190839Y-141333914D02*
X118228934Y-141219628D01*
X118228934Y-141219628D02*
X118267030Y-140991057D01*
X118267030Y-140991057D02*
X118267030Y-140819628D01*
X118267030Y-140819628D02*
X118228934Y-140591057D01*
X118228934Y-140591057D02*
X118190839Y-140476771D01*
X118190839Y-140476771D02*
X118114649Y-140362485D01*
X118114649Y-140362485D02*
X118000363Y-140305342D01*
X118000363Y-140305342D02*
X117924172Y-140305342D01*
X117924172Y-140305342D02*
X117809887Y-140362485D01*
X117809887Y-140362485D02*
X117771791Y-140419628D01*
X116971791Y-141505342D02*
X117238458Y-140933914D01*
X117428934Y-141505342D02*
X117428934Y-140305342D01*
X117428934Y-140305342D02*
X117124172Y-140305342D01*
X117124172Y-140305342D02*
X117047982Y-140362485D01*
X117047982Y-140362485D02*
X117009887Y-140419628D01*
X117009887Y-140419628D02*
X116971791Y-140533914D01*
X116971791Y-140533914D02*
X116971791Y-140705342D01*
X116971791Y-140705342D02*
X117009887Y-140819628D01*
X117009887Y-140819628D02*
X117047982Y-140876771D01*
X117047982Y-140876771D02*
X117124172Y-140933914D01*
X117124172Y-140933914D02*
X117428934Y-140933914D01*
X116628934Y-140876771D02*
X116362268Y-140876771D01*
X116247982Y-141505342D02*
X116628934Y-141505342D01*
X116628934Y-141505342D02*
X116628934Y-140305342D01*
X116628934Y-140305342D02*
X116247982Y-140305342D01*
X115905124Y-140876771D02*
X115638458Y-140876771D01*
X115524172Y-141505342D02*
X115905124Y-141505342D01*
X115905124Y-141505342D02*
X115905124Y-140305342D01*
X115905124Y-140305342D02*
X115524172Y-140305342D01*
X115181314Y-141505342D02*
X115181314Y-140305342D01*
X115181314Y-140305342D02*
X114724171Y-141505342D01*
X114724171Y-141505342D02*
X114724171Y-140305342D01*
X114533696Y-141619628D02*
X113924172Y-141619628D01*
X113847981Y-140305342D02*
X113581314Y-141505342D01*
X113581314Y-141505342D02*
X113314648Y-140305342D01*
X113047981Y-141505342D02*
X113047981Y-140305342D01*
X112705125Y-141448200D02*
X112590839Y-141505342D01*
X112590839Y-141505342D02*
X112400363Y-141505342D01*
X112400363Y-141505342D02*
X112324172Y-141448200D01*
X112324172Y-141448200D02*
X112286077Y-141391057D01*
X112286077Y-141391057D02*
X112247982Y-141276771D01*
X112247982Y-141276771D02*
X112247982Y-141162485D01*
X112247982Y-141162485D02*
X112286077Y-141048200D01*
X112286077Y-141048200D02*
X112324172Y-140991057D01*
X112324172Y-140991057D02*
X112400363Y-140933914D01*
X112400363Y-140933914D02*
X112552744Y-140876771D01*
X112552744Y-140876771D02*
X112628934Y-140819628D01*
X112628934Y-140819628D02*
X112667029Y-140762485D01*
X112667029Y-140762485D02*
X112705125Y-140648200D01*
X112705125Y-140648200D02*
X112705125Y-140533914D01*
X112705125Y-140533914D02*
X112667029Y-140419628D01*
X112667029Y-140419628D02*
X112628934Y-140362485D01*
X112628934Y-140362485D02*
X112552744Y-140305342D01*
X112552744Y-140305342D02*
X112362267Y-140305342D01*
X112362267Y-140305342D02*
X112247982Y-140362485D01*
X111638458Y-140876771D02*
X111524172Y-140933914D01*
X111524172Y-140933914D02*
X111486077Y-140991057D01*
X111486077Y-140991057D02*
X111447981Y-141105342D01*
X111447981Y-141105342D02*
X111447981Y-141276771D01*
X111447981Y-141276771D02*
X111486077Y-141391057D01*
X111486077Y-141391057D02*
X111524172Y-141448200D01*
X111524172Y-141448200D02*
X111600362Y-141505342D01*
X111600362Y-141505342D02*
X111905124Y-141505342D01*
X111905124Y-141505342D02*
X111905124Y-140305342D01*
X111905124Y-140305342D02*
X111638458Y-140305342D01*
X111638458Y-140305342D02*
X111562267Y-140362485D01*
X111562267Y-140362485D02*
X111524172Y-140419628D01*
X111524172Y-140419628D02*
X111486077Y-140533914D01*
X111486077Y-140533914D02*
X111486077Y-140648200D01*
X111486077Y-140648200D02*
X111524172Y-140762485D01*
X111524172Y-140762485D02*
X111562267Y-140819628D01*
X111562267Y-140819628D02*
X111638458Y-140876771D01*
X111638458Y-140876771D02*
X111905124Y-140876771D01*
X110724172Y-141505342D02*
X111105124Y-141505342D01*
X111105124Y-141505342D02*
X111105124Y-140305342D01*
X110457505Y-140876771D02*
X110190839Y-140876771D01*
X110076553Y-141505342D02*
X110457505Y-141505342D01*
X110457505Y-141505342D02*
X110457505Y-140305342D01*
X110457505Y-140305342D02*
X110076553Y-140305342D01*
X119101316Y-139972200D02*
X110004172Y-139972200D01*
X109238457Y-140305342D02*
X108971790Y-141505342D01*
X108971790Y-141505342D02*
X108705124Y-140305342D01*
X108628934Y-141619628D02*
X108019410Y-141619628D01*
X107371790Y-141505342D02*
X107638457Y-140933914D01*
X107828933Y-141505342D02*
X107828933Y-140305342D01*
X107828933Y-140305342D02*
X107524171Y-140305342D01*
X107524171Y-140305342D02*
X107447981Y-140362485D01*
X107447981Y-140362485D02*
X107409886Y-140419628D01*
X107409886Y-140419628D02*
X107371790Y-140533914D01*
X107371790Y-140533914D02*
X107371790Y-140705342D01*
X107371790Y-140705342D02*
X107409886Y-140819628D01*
X107409886Y-140819628D02*
X107447981Y-140876771D01*
X107447981Y-140876771D02*
X107524171Y-140933914D01*
X107524171Y-140933914D02*
X107828933Y-140933914D01*
X107028933Y-140876771D02*
X106762267Y-140876771D01*
X106647981Y-141505342D02*
X107028933Y-141505342D01*
X107028933Y-141505342D02*
X107028933Y-140305342D01*
X107028933Y-140305342D02*
X106647981Y-140305342D01*
X106343219Y-141448200D02*
X106228933Y-141505342D01*
X106228933Y-141505342D02*
X106038457Y-141505342D01*
X106038457Y-141505342D02*
X105962266Y-141448200D01*
X105962266Y-141448200D02*
X105924171Y-141391057D01*
X105924171Y-141391057D02*
X105886076Y-141276771D01*
X105886076Y-141276771D02*
X105886076Y-141162485D01*
X105886076Y-141162485D02*
X105924171Y-141048200D01*
X105924171Y-141048200D02*
X105962266Y-140991057D01*
X105962266Y-140991057D02*
X106038457Y-140933914D01*
X106038457Y-140933914D02*
X106190838Y-140876771D01*
X106190838Y-140876771D02*
X106267028Y-140819628D01*
X106267028Y-140819628D02*
X106305123Y-140762485D01*
X106305123Y-140762485D02*
X106343219Y-140648200D01*
X106343219Y-140648200D02*
X106343219Y-140533914D01*
X106343219Y-140533914D02*
X106305123Y-140419628D01*
X106305123Y-140419628D02*
X106267028Y-140362485D01*
X106267028Y-140362485D02*
X106190838Y-140305342D01*
X106190838Y-140305342D02*
X106000361Y-140305342D01*
X106000361Y-140305342D02*
X105886076Y-140362485D01*
X105543218Y-140876771D02*
X105276552Y-140876771D01*
X105162266Y-141505342D02*
X105543218Y-141505342D01*
X105543218Y-141505342D02*
X105543218Y-140305342D01*
X105543218Y-140305342D02*
X105162266Y-140305342D01*
X104933694Y-140305342D02*
X104476551Y-140305342D01*
X104705123Y-141505342D02*
X104705123Y-140305342D01*
X109234648Y-139972200D02*
X104480361Y-139972200D01*
X118878458Y-145873914D02*
X118878458Y-146445342D01*
X119145125Y-145245342D02*
X118878458Y-145873914D01*
X118878458Y-145873914D02*
X118611792Y-145245342D01*
X118535602Y-146559628D02*
X117926078Y-146559628D01*
X117468935Y-145816771D02*
X117735601Y-145816771D01*
X117735601Y-146445342D02*
X117735601Y-145245342D01*
X117735601Y-145245342D02*
X117354649Y-145245342D01*
X116592744Y-146445342D02*
X116859411Y-145873914D01*
X117049887Y-146445342D02*
X117049887Y-145245342D01*
X117049887Y-145245342D02*
X116745125Y-145245342D01*
X116745125Y-145245342D02*
X116668935Y-145302485D01*
X116668935Y-145302485D02*
X116630840Y-145359628D01*
X116630840Y-145359628D02*
X116592744Y-145473914D01*
X116592744Y-145473914D02*
X116592744Y-145645342D01*
X116592744Y-145645342D02*
X116630840Y-145759628D01*
X116630840Y-145759628D02*
X116668935Y-145816771D01*
X116668935Y-145816771D02*
X116745125Y-145873914D01*
X116745125Y-145873914D02*
X117049887Y-145873914D01*
X116249887Y-146445342D02*
X116249887Y-145245342D01*
X116249887Y-145245342D02*
X115792744Y-146445342D01*
X115792744Y-146445342D02*
X115792744Y-145245342D01*
X115526078Y-145245342D02*
X115068935Y-145245342D01*
X115297507Y-146445342D02*
X115297507Y-145245342D01*
X114992745Y-146559628D02*
X114383221Y-146559628D01*
X114192744Y-146445342D02*
X114192744Y-145245342D01*
X114192744Y-145245342D02*
X113887982Y-145245342D01*
X113887982Y-145245342D02*
X113811792Y-145302485D01*
X113811792Y-145302485D02*
X113773697Y-145359628D01*
X113773697Y-145359628D02*
X113735601Y-145473914D01*
X113735601Y-145473914D02*
X113735601Y-145645342D01*
X113735601Y-145645342D02*
X113773697Y-145759628D01*
X113773697Y-145759628D02*
X113811792Y-145816771D01*
X113811792Y-145816771D02*
X113887982Y-145873914D01*
X113887982Y-145873914D02*
X114192744Y-145873914D01*
X112935601Y-146445342D02*
X113202268Y-145873914D01*
X113392744Y-146445342D02*
X113392744Y-145245342D01*
X113392744Y-145245342D02*
X113087982Y-145245342D01*
X113087982Y-145245342D02*
X113011792Y-145302485D01*
X113011792Y-145302485D02*
X112973697Y-145359628D01*
X112973697Y-145359628D02*
X112935601Y-145473914D01*
X112935601Y-145473914D02*
X112935601Y-145645342D01*
X112935601Y-145645342D02*
X112973697Y-145759628D01*
X112973697Y-145759628D02*
X113011792Y-145816771D01*
X113011792Y-145816771D02*
X113087982Y-145873914D01*
X113087982Y-145873914D02*
X113392744Y-145873914D01*
X112135601Y-146331057D02*
X112173697Y-146388200D01*
X112173697Y-146388200D02*
X112287982Y-146445342D01*
X112287982Y-146445342D02*
X112364173Y-146445342D01*
X112364173Y-146445342D02*
X112478459Y-146388200D01*
X112478459Y-146388200D02*
X112554649Y-146273914D01*
X112554649Y-146273914D02*
X112592744Y-146159628D01*
X112592744Y-146159628D02*
X112630840Y-145931057D01*
X112630840Y-145931057D02*
X112630840Y-145759628D01*
X112630840Y-145759628D02*
X112592744Y-145531057D01*
X112592744Y-145531057D02*
X112554649Y-145416771D01*
X112554649Y-145416771D02*
X112478459Y-145302485D01*
X112478459Y-145302485D02*
X112364173Y-145245342D01*
X112364173Y-145245342D02*
X112287982Y-145245342D01*
X112287982Y-145245342D02*
X112173697Y-145302485D01*
X112173697Y-145302485D02*
X112135601Y-145359628D01*
X111792744Y-146445342D02*
X111792744Y-145245342D01*
X111792744Y-145816771D02*
X111335601Y-145816771D01*
X111335601Y-146445342D02*
X111335601Y-145245342D01*
X109849887Y-145245342D02*
X109583220Y-146445342D01*
X109583220Y-146445342D02*
X109316554Y-145245342D01*
X109240364Y-146559628D02*
X108630840Y-146559628D01*
X108554649Y-145245342D02*
X108287982Y-146445342D01*
X108287982Y-146445342D02*
X108021316Y-145245342D01*
X107754649Y-146445342D02*
X107754649Y-145245342D01*
X107411793Y-146388200D02*
X107297507Y-146445342D01*
X107297507Y-146445342D02*
X107107031Y-146445342D01*
X107107031Y-146445342D02*
X107030840Y-146388200D01*
X107030840Y-146388200D02*
X106992745Y-146331057D01*
X106992745Y-146331057D02*
X106954650Y-146216771D01*
X106954650Y-146216771D02*
X106954650Y-146102485D01*
X106954650Y-146102485D02*
X106992745Y-145988200D01*
X106992745Y-145988200D02*
X107030840Y-145931057D01*
X107030840Y-145931057D02*
X107107031Y-145873914D01*
X107107031Y-145873914D02*
X107259412Y-145816771D01*
X107259412Y-145816771D02*
X107335602Y-145759628D01*
X107335602Y-145759628D02*
X107373697Y-145702485D01*
X107373697Y-145702485D02*
X107411793Y-145588200D01*
X107411793Y-145588200D02*
X107411793Y-145473914D01*
X107411793Y-145473914D02*
X107373697Y-145359628D01*
X107373697Y-145359628D02*
X107335602Y-145302485D01*
X107335602Y-145302485D02*
X107259412Y-145245342D01*
X107259412Y-145245342D02*
X107068935Y-145245342D01*
X107068935Y-145245342D02*
X106954650Y-145302485D01*
X106611792Y-146445342D02*
X106611792Y-145245342D01*
X105964174Y-145816771D02*
X105849888Y-145873914D01*
X105849888Y-145873914D02*
X105811793Y-145931057D01*
X105811793Y-145931057D02*
X105773697Y-146045342D01*
X105773697Y-146045342D02*
X105773697Y-146216771D01*
X105773697Y-146216771D02*
X105811793Y-146331057D01*
X105811793Y-146331057D02*
X105849888Y-146388200D01*
X105849888Y-146388200D02*
X105926078Y-146445342D01*
X105926078Y-146445342D02*
X106230840Y-146445342D01*
X106230840Y-146445342D02*
X106230840Y-145245342D01*
X106230840Y-145245342D02*
X105964174Y-145245342D01*
X105964174Y-145245342D02*
X105887983Y-145302485D01*
X105887983Y-145302485D02*
X105849888Y-145359628D01*
X105849888Y-145359628D02*
X105811793Y-145473914D01*
X105811793Y-145473914D02*
X105811793Y-145588200D01*
X105811793Y-145588200D02*
X105849888Y-145702485D01*
X105849888Y-145702485D02*
X105887983Y-145759628D01*
X105887983Y-145759628D02*
X105964174Y-145816771D01*
X105964174Y-145816771D02*
X106230840Y-145816771D01*
X105049888Y-146445342D02*
X105430840Y-146445342D01*
X105430840Y-146445342D02*
X105430840Y-145245342D01*
X104783221Y-145816771D02*
X104516555Y-145816771D01*
X104402269Y-146445342D02*
X104783221Y-146445342D01*
X104783221Y-146445342D02*
X104783221Y-145245342D01*
X104783221Y-145245342D02*
X104402269Y-145245342D01*
X109846078Y-144912200D02*
X104329888Y-144912200D01*
X119235125Y-142765342D02*
X118968458Y-143965342D01*
X118968458Y-143965342D02*
X118701792Y-142765342D01*
X118625602Y-144079628D02*
X118016078Y-144079628D01*
X117863697Y-143908200D02*
X117749411Y-143965342D01*
X117749411Y-143965342D02*
X117558935Y-143965342D01*
X117558935Y-143965342D02*
X117482744Y-143908200D01*
X117482744Y-143908200D02*
X117444649Y-143851057D01*
X117444649Y-143851057D02*
X117406554Y-143736771D01*
X117406554Y-143736771D02*
X117406554Y-143622485D01*
X117406554Y-143622485D02*
X117444649Y-143508200D01*
X117444649Y-143508200D02*
X117482744Y-143451057D01*
X117482744Y-143451057D02*
X117558935Y-143393914D01*
X117558935Y-143393914D02*
X117711316Y-143336771D01*
X117711316Y-143336771D02*
X117787506Y-143279628D01*
X117787506Y-143279628D02*
X117825601Y-143222485D01*
X117825601Y-143222485D02*
X117863697Y-143108200D01*
X117863697Y-143108200D02*
X117863697Y-142993914D01*
X117863697Y-142993914D02*
X117825601Y-142879628D01*
X117825601Y-142879628D02*
X117787506Y-142822485D01*
X117787506Y-142822485D02*
X117711316Y-142765342D01*
X117711316Y-142765342D02*
X117520839Y-142765342D01*
X117520839Y-142765342D02*
X117406554Y-142822485D01*
X116911315Y-143393914D02*
X116911315Y-143965342D01*
X117177982Y-142765342D02*
X116911315Y-143393914D01*
X116911315Y-143393914D02*
X116644649Y-142765342D01*
X116377982Y-143965342D02*
X116377982Y-142765342D01*
X116377982Y-142765342D02*
X115920839Y-143965342D01*
X115920839Y-143965342D02*
X115920839Y-142765342D01*
X115082744Y-143851057D02*
X115120840Y-143908200D01*
X115120840Y-143908200D02*
X115235125Y-143965342D01*
X115235125Y-143965342D02*
X115311316Y-143965342D01*
X115311316Y-143965342D02*
X115425602Y-143908200D01*
X115425602Y-143908200D02*
X115501792Y-143793914D01*
X115501792Y-143793914D02*
X115539887Y-143679628D01*
X115539887Y-143679628D02*
X115577983Y-143451057D01*
X115577983Y-143451057D02*
X115577983Y-143279628D01*
X115577983Y-143279628D02*
X115539887Y-143051057D01*
X115539887Y-143051057D02*
X115501792Y-142936771D01*
X115501792Y-142936771D02*
X115425602Y-142822485D01*
X115425602Y-142822485D02*
X115311316Y-142765342D01*
X115311316Y-142765342D02*
X115235125Y-142765342D01*
X115235125Y-142765342D02*
X115120840Y-142822485D01*
X115120840Y-142822485D02*
X115082744Y-142879628D01*
X119231316Y-142432200D02*
X115010364Y-142432200D01*
X106397028Y-142822485D02*
X106473218Y-142765342D01*
X106473218Y-142765342D02*
X106587504Y-142765342D01*
X106587504Y-142765342D02*
X106701790Y-142822485D01*
X106701790Y-142822485D02*
X106777980Y-142936771D01*
X106777980Y-142936771D02*
X106816075Y-143051057D01*
X106816075Y-143051057D02*
X106854171Y-143279628D01*
X106854171Y-143279628D02*
X106854171Y-143451057D01*
X106854171Y-143451057D02*
X106816075Y-143679628D01*
X106816075Y-143679628D02*
X106777980Y-143793914D01*
X106777980Y-143793914D02*
X106701790Y-143908200D01*
X106701790Y-143908200D02*
X106587504Y-143965342D01*
X106587504Y-143965342D02*
X106511313Y-143965342D01*
X106511313Y-143965342D02*
X106397028Y-143908200D01*
X106397028Y-143908200D02*
X106358932Y-143851057D01*
X106358932Y-143851057D02*
X106358932Y-143451057D01*
X106358932Y-143451057D02*
X106511313Y-143451057D01*
X106016075Y-143965342D02*
X106016075Y-142765342D01*
X106016075Y-142765342D02*
X105558932Y-143965342D01*
X105558932Y-143965342D02*
X105558932Y-142765342D01*
X105177980Y-143965342D02*
X105177980Y-142765342D01*
X105177980Y-142765342D02*
X104987504Y-142765342D01*
X104987504Y-142765342D02*
X104873218Y-142822485D01*
X104873218Y-142822485D02*
X104797028Y-142936771D01*
X104797028Y-142936771D02*
X104758933Y-143051057D01*
X104758933Y-143051057D02*
X104720837Y-143279628D01*
X104720837Y-143279628D02*
X104720837Y-143451057D01*
X104720837Y-143451057D02*
X104758933Y-143679628D01*
X104758933Y-143679628D02*
X104797028Y-143793914D01*
X104797028Y-143793914D02*
X104873218Y-143908200D01*
X104873218Y-143908200D02*
X104987504Y-143965342D01*
X104987504Y-143965342D02*
X105177980Y-143965342D01*
X118760839Y-138965342D02*
X118760839Y-137765342D01*
X118760839Y-138336771D02*
X118303696Y-138336771D01*
X118303696Y-138965342D02*
X118303696Y-137765342D01*
X118113221Y-139079628D02*
X117503697Y-139079628D01*
X117351316Y-138908200D02*
X117237030Y-138965342D01*
X117237030Y-138965342D02*
X117046554Y-138965342D01*
X117046554Y-138965342D02*
X116970363Y-138908200D01*
X116970363Y-138908200D02*
X116932268Y-138851057D01*
X116932268Y-138851057D02*
X116894173Y-138736771D01*
X116894173Y-138736771D02*
X116894173Y-138622485D01*
X116894173Y-138622485D02*
X116932268Y-138508200D01*
X116932268Y-138508200D02*
X116970363Y-138451057D01*
X116970363Y-138451057D02*
X117046554Y-138393914D01*
X117046554Y-138393914D02*
X117198935Y-138336771D01*
X117198935Y-138336771D02*
X117275125Y-138279628D01*
X117275125Y-138279628D02*
X117313220Y-138222485D01*
X117313220Y-138222485D02*
X117351316Y-138108200D01*
X117351316Y-138108200D02*
X117351316Y-137993914D01*
X117351316Y-137993914D02*
X117313220Y-137879628D01*
X117313220Y-137879628D02*
X117275125Y-137822485D01*
X117275125Y-137822485D02*
X117198935Y-137765342D01*
X117198935Y-137765342D02*
X117008458Y-137765342D01*
X117008458Y-137765342D02*
X116894173Y-137822485D01*
X116398934Y-138393914D02*
X116398934Y-138965342D01*
X116665601Y-137765342D02*
X116398934Y-138393914D01*
X116398934Y-138393914D02*
X116132268Y-137765342D01*
X115865601Y-138965342D02*
X115865601Y-137765342D01*
X115865601Y-137765342D02*
X115408458Y-138965342D01*
X115408458Y-138965342D02*
X115408458Y-137765342D01*
X114570363Y-138851057D02*
X114608459Y-138908200D01*
X114608459Y-138908200D02*
X114722744Y-138965342D01*
X114722744Y-138965342D02*
X114798935Y-138965342D01*
X114798935Y-138965342D02*
X114913221Y-138908200D01*
X114913221Y-138908200D02*
X114989411Y-138793914D01*
X114989411Y-138793914D02*
X115027506Y-138679628D01*
X115027506Y-138679628D02*
X115065602Y-138451057D01*
X115065602Y-138451057D02*
X115065602Y-138279628D01*
X115065602Y-138279628D02*
X115027506Y-138051057D01*
X115027506Y-138051057D02*
X114989411Y-137936771D01*
X114989411Y-137936771D02*
X114913221Y-137822485D01*
X114913221Y-137822485D02*
X114798935Y-137765342D01*
X114798935Y-137765342D02*
X114722744Y-137765342D01*
X114722744Y-137765342D02*
X114608459Y-137822485D01*
X114608459Y-137822485D02*
X114570363Y-137879628D01*
X118871316Y-137432200D02*
X114497983Y-137432200D01*
X109960838Y-138965342D02*
X109960838Y-137765342D01*
X109960838Y-138336771D02*
X109503695Y-138336771D01*
X109503695Y-138965342D02*
X109503695Y-137765342D01*
X109313220Y-139079628D02*
X108703696Y-139079628D01*
X108627505Y-137765342D02*
X108360838Y-138965342D01*
X108360838Y-138965342D02*
X108094172Y-137765342D01*
X107827505Y-138965342D02*
X107827505Y-137765342D01*
X107484649Y-138908200D02*
X107370363Y-138965342D01*
X107370363Y-138965342D02*
X107179887Y-138965342D01*
X107179887Y-138965342D02*
X107103696Y-138908200D01*
X107103696Y-138908200D02*
X107065601Y-138851057D01*
X107065601Y-138851057D02*
X107027506Y-138736771D01*
X107027506Y-138736771D02*
X107027506Y-138622485D01*
X107027506Y-138622485D02*
X107065601Y-138508200D01*
X107065601Y-138508200D02*
X107103696Y-138451057D01*
X107103696Y-138451057D02*
X107179887Y-138393914D01*
X107179887Y-138393914D02*
X107332268Y-138336771D01*
X107332268Y-138336771D02*
X107408458Y-138279628D01*
X107408458Y-138279628D02*
X107446553Y-138222485D01*
X107446553Y-138222485D02*
X107484649Y-138108200D01*
X107484649Y-138108200D02*
X107484649Y-137993914D01*
X107484649Y-137993914D02*
X107446553Y-137879628D01*
X107446553Y-137879628D02*
X107408458Y-137822485D01*
X107408458Y-137822485D02*
X107332268Y-137765342D01*
X107332268Y-137765342D02*
X107141791Y-137765342D01*
X107141791Y-137765342D02*
X107027506Y-137822485D01*
X106684648Y-138965342D02*
X106684648Y-137765342D01*
X106037030Y-138336771D02*
X105922744Y-138393914D01*
X105922744Y-138393914D02*
X105884649Y-138451057D01*
X105884649Y-138451057D02*
X105846553Y-138565342D01*
X105846553Y-138565342D02*
X105846553Y-138736771D01*
X105846553Y-138736771D02*
X105884649Y-138851057D01*
X105884649Y-138851057D02*
X105922744Y-138908200D01*
X105922744Y-138908200D02*
X105998934Y-138965342D01*
X105998934Y-138965342D02*
X106303696Y-138965342D01*
X106303696Y-138965342D02*
X106303696Y-137765342D01*
X106303696Y-137765342D02*
X106037030Y-137765342D01*
X106037030Y-137765342D02*
X105960839Y-137822485D01*
X105960839Y-137822485D02*
X105922744Y-137879628D01*
X105922744Y-137879628D02*
X105884649Y-137993914D01*
X105884649Y-137993914D02*
X105884649Y-138108200D01*
X105884649Y-138108200D02*
X105922744Y-138222485D01*
X105922744Y-138222485D02*
X105960839Y-138279628D01*
X105960839Y-138279628D02*
X106037030Y-138336771D01*
X106037030Y-138336771D02*
X106303696Y-138336771D01*
X105122744Y-138965342D02*
X105503696Y-138965342D01*
X105503696Y-138965342D02*
X105503696Y-137765342D01*
X104856077Y-138336771D02*
X104589411Y-138336771D01*
X104475125Y-138965342D02*
X104856077Y-138965342D01*
X104856077Y-138965342D02*
X104856077Y-137765342D01*
X104856077Y-137765342D02*
X104475125Y-137765342D01*
X30178285Y-130217104D02*
X29702095Y-130217104D01*
X30273523Y-130502819D02*
X29940190Y-129502819D01*
X29940190Y-129502819D02*
X29606857Y-130502819D01*
X28749714Y-130502819D02*
X29321142Y-130502819D01*
X29035428Y-130502819D02*
X29035428Y-129502819D01*
X29035428Y-129502819D02*
X29130666Y-129645676D01*
X29130666Y-129645676D02*
X29225904Y-129740914D01*
X29225904Y-129740914D02*
X29321142Y-129788533D01*
X28728894Y-183665019D02*
X28728894Y-182665019D01*
X28728894Y-182665019D02*
X28490799Y-182665019D01*
X28490799Y-182665019D02*
X28347942Y-182712638D01*
X28347942Y-182712638D02*
X28252704Y-182807876D01*
X28252704Y-182807876D02*
X28205085Y-182903114D01*
X28205085Y-182903114D02*
X28157466Y-183093590D01*
X28157466Y-183093590D02*
X28157466Y-183236447D01*
X28157466Y-183236447D02*
X28205085Y-183426923D01*
X28205085Y-183426923D02*
X28252704Y-183522161D01*
X28252704Y-183522161D02*
X28347942Y-183617400D01*
X28347942Y-183617400D02*
X28490799Y-183665019D01*
X28490799Y-183665019D02*
X28728894Y-183665019D01*
X27538418Y-182665019D02*
X27443180Y-182665019D01*
X27443180Y-182665019D02*
X27347942Y-182712638D01*
X27347942Y-182712638D02*
X27300323Y-182760257D01*
X27300323Y-182760257D02*
X27252704Y-182855495D01*
X27252704Y-182855495D02*
X27205085Y-183045971D01*
X27205085Y-183045971D02*
X27205085Y-183284066D01*
X27205085Y-183284066D02*
X27252704Y-183474542D01*
X27252704Y-183474542D02*
X27300323Y-183569780D01*
X27300323Y-183569780D02*
X27347942Y-183617400D01*
X27347942Y-183617400D02*
X27443180Y-183665019D01*
X27443180Y-183665019D02*
X27538418Y-183665019D01*
X27538418Y-183665019D02*
X27633656Y-183617400D01*
X27633656Y-183617400D02*
X27681275Y-183569780D01*
X27681275Y-183569780D02*
X27728894Y-183474542D01*
X27728894Y-183474542D02*
X27776513Y-183284066D01*
X27776513Y-183284066D02*
X27776513Y-183045971D01*
X27776513Y-183045971D02*
X27728894Y-182855495D01*
X27728894Y-182855495D02*
X27681275Y-182760257D01*
X27681275Y-182760257D02*
X27633656Y-182712638D01*
X27633656Y-182712638D02*
X27538418Y-182665019D01*
X64951780Y-175321933D02*
X64999400Y-175274314D01*
X64999400Y-175274314D02*
X65047019Y-175131457D01*
X65047019Y-175131457D02*
X65047019Y-175036219D01*
X65047019Y-175036219D02*
X64999400Y-174893362D01*
X64999400Y-174893362D02*
X64904161Y-174798124D01*
X64904161Y-174798124D02*
X64808923Y-174750505D01*
X64808923Y-174750505D02*
X64618447Y-174702886D01*
X64618447Y-174702886D02*
X64475590Y-174702886D01*
X64475590Y-174702886D02*
X64285114Y-174750505D01*
X64285114Y-174750505D02*
X64189876Y-174798124D01*
X64189876Y-174798124D02*
X64094638Y-174893362D01*
X64094638Y-174893362D02*
X64047019Y-175036219D01*
X64047019Y-175036219D02*
X64047019Y-175131457D01*
X64047019Y-175131457D02*
X64094638Y-175274314D01*
X64094638Y-175274314D02*
X64142257Y-175321933D01*
X64380352Y-176179076D02*
X65047019Y-176179076D01*
X63999400Y-175940981D02*
X64713685Y-175702886D01*
X64713685Y-175702886D02*
X64713685Y-176321933D01*
X91295394Y-134675019D02*
X91295394Y-135484542D01*
X91295394Y-135484542D02*
X91247775Y-135579780D01*
X91247775Y-135579780D02*
X91200156Y-135627400D01*
X91200156Y-135627400D02*
X91104918Y-135675019D01*
X91104918Y-135675019D02*
X90914442Y-135675019D01*
X90914442Y-135675019D02*
X90819204Y-135627400D01*
X90819204Y-135627400D02*
X90771585Y-135579780D01*
X90771585Y-135579780D02*
X90723966Y-135484542D01*
X90723966Y-135484542D02*
X90723966Y-134675019D01*
X89723966Y-135675019D02*
X90295394Y-135675019D01*
X90009680Y-135675019D02*
X90009680Y-134675019D01*
X90009680Y-134675019D02*
X90104918Y-134817876D01*
X90104918Y-134817876D02*
X90200156Y-134913114D01*
X90200156Y-134913114D02*
X90295394Y-134960733D01*
X88866823Y-135008352D02*
X88866823Y-135675019D01*
X89104918Y-134627400D02*
X89343013Y-135341685D01*
X89343013Y-135341685D02*
X88723966Y-135341685D01*
X73994180Y-175321933D02*
X74041800Y-175274314D01*
X74041800Y-175274314D02*
X74089419Y-175131457D01*
X74089419Y-175131457D02*
X74089419Y-175036219D01*
X74089419Y-175036219D02*
X74041800Y-174893362D01*
X74041800Y-174893362D02*
X73946561Y-174798124D01*
X73946561Y-174798124D02*
X73851323Y-174750505D01*
X73851323Y-174750505D02*
X73660847Y-174702886D01*
X73660847Y-174702886D02*
X73517990Y-174702886D01*
X73517990Y-174702886D02*
X73327514Y-174750505D01*
X73327514Y-174750505D02*
X73232276Y-174798124D01*
X73232276Y-174798124D02*
X73137038Y-174893362D01*
X73137038Y-174893362D02*
X73089419Y-175036219D01*
X73089419Y-175036219D02*
X73089419Y-175131457D01*
X73089419Y-175131457D02*
X73137038Y-175274314D01*
X73137038Y-175274314D02*
X73184657Y-175321933D01*
X73517990Y-175893362D02*
X73470371Y-175798124D01*
X73470371Y-175798124D02*
X73422752Y-175750505D01*
X73422752Y-175750505D02*
X73327514Y-175702886D01*
X73327514Y-175702886D02*
X73279895Y-175702886D01*
X73279895Y-175702886D02*
X73184657Y-175750505D01*
X73184657Y-175750505D02*
X73137038Y-175798124D01*
X73137038Y-175798124D02*
X73089419Y-175893362D01*
X73089419Y-175893362D02*
X73089419Y-176083838D01*
X73089419Y-176083838D02*
X73137038Y-176179076D01*
X73137038Y-176179076D02*
X73184657Y-176226695D01*
X73184657Y-176226695D02*
X73279895Y-176274314D01*
X73279895Y-176274314D02*
X73327514Y-176274314D01*
X73327514Y-176274314D02*
X73422752Y-176226695D01*
X73422752Y-176226695D02*
X73470371Y-176179076D01*
X73470371Y-176179076D02*
X73517990Y-176083838D01*
X73517990Y-176083838D02*
X73517990Y-175893362D01*
X73517990Y-175893362D02*
X73565609Y-175798124D01*
X73565609Y-175798124D02*
X73613228Y-175750505D01*
X73613228Y-175750505D02*
X73708466Y-175702886D01*
X73708466Y-175702886D02*
X73898942Y-175702886D01*
X73898942Y-175702886D02*
X73994180Y-175750505D01*
X73994180Y-175750505D02*
X74041800Y-175798124D01*
X74041800Y-175798124D02*
X74089419Y-175893362D01*
X74089419Y-175893362D02*
X74089419Y-176083838D01*
X74089419Y-176083838D02*
X74041800Y-176179076D01*
X74041800Y-176179076D02*
X73994180Y-176226695D01*
X73994180Y-176226695D02*
X73898942Y-176274314D01*
X73898942Y-176274314D02*
X73708466Y-176274314D01*
X73708466Y-176274314D02*
X73613228Y-176226695D01*
X73613228Y-176226695D02*
X73565609Y-176179076D01*
X73565609Y-176179076D02*
X73517990Y-176083838D01*
X86867904Y-150984019D02*
X86867904Y-151793542D01*
X86867904Y-151793542D02*
X86820285Y-151888780D01*
X86820285Y-151888780D02*
X86772666Y-151936400D01*
X86772666Y-151936400D02*
X86677428Y-151984019D01*
X86677428Y-151984019D02*
X86486952Y-151984019D01*
X86486952Y-151984019D02*
X86391714Y-151936400D01*
X86391714Y-151936400D02*
X86344095Y-151888780D01*
X86344095Y-151888780D02*
X86296476Y-151793542D01*
X86296476Y-151793542D02*
X86296476Y-150984019D01*
X85391714Y-151317352D02*
X85391714Y-151984019D01*
X85629809Y-150936400D02*
X85867904Y-151650685D01*
X85867904Y-151650685D02*
X85248857Y-151650685D01*
X43491666Y-162429819D02*
X43824999Y-161953628D01*
X44063094Y-162429819D02*
X44063094Y-161429819D01*
X44063094Y-161429819D02*
X43682142Y-161429819D01*
X43682142Y-161429819D02*
X43586904Y-161477438D01*
X43586904Y-161477438D02*
X43539285Y-161525057D01*
X43539285Y-161525057D02*
X43491666Y-161620295D01*
X43491666Y-161620295D02*
X43491666Y-161763152D01*
X43491666Y-161763152D02*
X43539285Y-161858390D01*
X43539285Y-161858390D02*
X43586904Y-161906009D01*
X43586904Y-161906009D02*
X43682142Y-161953628D01*
X43682142Y-161953628D02*
X44063094Y-161953628D01*
X42539285Y-162429819D02*
X43110713Y-162429819D01*
X42824999Y-162429819D02*
X42824999Y-161429819D01*
X42824999Y-161429819D02*
X42920237Y-161572676D01*
X42920237Y-161572676D02*
X43015475Y-161667914D01*
X43015475Y-161667914D02*
X43110713Y-161715533D01*
X70996980Y-175321933D02*
X71044600Y-175274314D01*
X71044600Y-175274314D02*
X71092219Y-175131457D01*
X71092219Y-175131457D02*
X71092219Y-175036219D01*
X71092219Y-175036219D02*
X71044600Y-174893362D01*
X71044600Y-174893362D02*
X70949361Y-174798124D01*
X70949361Y-174798124D02*
X70854123Y-174750505D01*
X70854123Y-174750505D02*
X70663647Y-174702886D01*
X70663647Y-174702886D02*
X70520790Y-174702886D01*
X70520790Y-174702886D02*
X70330314Y-174750505D01*
X70330314Y-174750505D02*
X70235076Y-174798124D01*
X70235076Y-174798124D02*
X70139838Y-174893362D01*
X70139838Y-174893362D02*
X70092219Y-175036219D01*
X70092219Y-175036219D02*
X70092219Y-175131457D01*
X70092219Y-175131457D02*
X70139838Y-175274314D01*
X70139838Y-175274314D02*
X70187457Y-175321933D01*
X70092219Y-175655267D02*
X70092219Y-176321933D01*
X70092219Y-176321933D02*
X71092219Y-175893362D01*
X64710094Y-134675019D02*
X64710094Y-135484542D01*
X64710094Y-135484542D02*
X64662475Y-135579780D01*
X64662475Y-135579780D02*
X64614856Y-135627400D01*
X64614856Y-135627400D02*
X64519618Y-135675019D01*
X64519618Y-135675019D02*
X64329142Y-135675019D01*
X64329142Y-135675019D02*
X64233904Y-135627400D01*
X64233904Y-135627400D02*
X64186285Y-135579780D01*
X64186285Y-135579780D02*
X64138666Y-135484542D01*
X64138666Y-135484542D02*
X64138666Y-134675019D01*
X63138666Y-135675019D02*
X63710094Y-135675019D01*
X63424380Y-135675019D02*
X63424380Y-134675019D01*
X63424380Y-134675019D02*
X63519618Y-134817876D01*
X63519618Y-134817876D02*
X63614856Y-134913114D01*
X63614856Y-134913114D02*
X63710094Y-134960733D01*
X62757713Y-134770257D02*
X62710094Y-134722638D01*
X62710094Y-134722638D02*
X62614856Y-134675019D01*
X62614856Y-134675019D02*
X62376761Y-134675019D01*
X62376761Y-134675019D02*
X62281523Y-134722638D01*
X62281523Y-134722638D02*
X62233904Y-134770257D01*
X62233904Y-134770257D02*
X62186285Y-134865495D01*
X62186285Y-134865495D02*
X62186285Y-134960733D01*
X62186285Y-134960733D02*
X62233904Y-135103590D01*
X62233904Y-135103590D02*
X62805332Y-135675019D01*
X62805332Y-135675019D02*
X62186285Y-135675019D01*
X43466666Y-160154819D02*
X43799999Y-159678628D01*
X44038094Y-160154819D02*
X44038094Y-159154819D01*
X44038094Y-159154819D02*
X43657142Y-159154819D01*
X43657142Y-159154819D02*
X43561904Y-159202438D01*
X43561904Y-159202438D02*
X43514285Y-159250057D01*
X43514285Y-159250057D02*
X43466666Y-159345295D01*
X43466666Y-159345295D02*
X43466666Y-159488152D01*
X43466666Y-159488152D02*
X43514285Y-159583390D01*
X43514285Y-159583390D02*
X43561904Y-159631009D01*
X43561904Y-159631009D02*
X43657142Y-159678628D01*
X43657142Y-159678628D02*
X44038094Y-159678628D01*
X42895237Y-159583390D02*
X42990475Y-159535771D01*
X42990475Y-159535771D02*
X43038094Y-159488152D01*
X43038094Y-159488152D02*
X43085713Y-159392914D01*
X43085713Y-159392914D02*
X43085713Y-159345295D01*
X43085713Y-159345295D02*
X43038094Y-159250057D01*
X43038094Y-159250057D02*
X42990475Y-159202438D01*
X42990475Y-159202438D02*
X42895237Y-159154819D01*
X42895237Y-159154819D02*
X42704761Y-159154819D01*
X42704761Y-159154819D02*
X42609523Y-159202438D01*
X42609523Y-159202438D02*
X42561904Y-159250057D01*
X42561904Y-159250057D02*
X42514285Y-159345295D01*
X42514285Y-159345295D02*
X42514285Y-159392914D01*
X42514285Y-159392914D02*
X42561904Y-159488152D01*
X42561904Y-159488152D02*
X42609523Y-159535771D01*
X42609523Y-159535771D02*
X42704761Y-159583390D01*
X42704761Y-159583390D02*
X42895237Y-159583390D01*
X42895237Y-159583390D02*
X42990475Y-159631009D01*
X42990475Y-159631009D02*
X43038094Y-159678628D01*
X43038094Y-159678628D02*
X43085713Y-159773866D01*
X43085713Y-159773866D02*
X43085713Y-159964342D01*
X43085713Y-159964342D02*
X43038094Y-160059580D01*
X43038094Y-160059580D02*
X42990475Y-160107200D01*
X42990475Y-160107200D02*
X42895237Y-160154819D01*
X42895237Y-160154819D02*
X42704761Y-160154819D01*
X42704761Y-160154819D02*
X42609523Y-160107200D01*
X42609523Y-160107200D02*
X42561904Y-160059580D01*
X42561904Y-160059580D02*
X42514285Y-159964342D01*
X42514285Y-159964342D02*
X42514285Y-159773866D01*
X42514285Y-159773866D02*
X42561904Y-159678628D01*
X42561904Y-159678628D02*
X42609523Y-159631009D01*
X42609523Y-159631009D02*
X42704761Y-159583390D01*
X43491666Y-164729819D02*
X43824999Y-164253628D01*
X44063094Y-164729819D02*
X44063094Y-163729819D01*
X44063094Y-163729819D02*
X43682142Y-163729819D01*
X43682142Y-163729819D02*
X43586904Y-163777438D01*
X43586904Y-163777438D02*
X43539285Y-163825057D01*
X43539285Y-163825057D02*
X43491666Y-163920295D01*
X43491666Y-163920295D02*
X43491666Y-164063152D01*
X43491666Y-164063152D02*
X43539285Y-164158390D01*
X43539285Y-164158390D02*
X43586904Y-164206009D01*
X43586904Y-164206009D02*
X43682142Y-164253628D01*
X43682142Y-164253628D02*
X44063094Y-164253628D01*
X42634523Y-164063152D02*
X42634523Y-164729819D01*
X42872618Y-163682200D02*
X43110713Y-164396485D01*
X43110713Y-164396485D02*
X42491666Y-164396485D01*
X43466666Y-157879819D02*
X43799999Y-157403628D01*
X44038094Y-157879819D02*
X44038094Y-156879819D01*
X44038094Y-156879819D02*
X43657142Y-156879819D01*
X43657142Y-156879819D02*
X43561904Y-156927438D01*
X43561904Y-156927438D02*
X43514285Y-156975057D01*
X43514285Y-156975057D02*
X43466666Y-157070295D01*
X43466666Y-157070295D02*
X43466666Y-157213152D01*
X43466666Y-157213152D02*
X43514285Y-157308390D01*
X43514285Y-157308390D02*
X43561904Y-157356009D01*
X43561904Y-157356009D02*
X43657142Y-157403628D01*
X43657142Y-157403628D02*
X44038094Y-157403628D01*
X43085713Y-156975057D02*
X43038094Y-156927438D01*
X43038094Y-156927438D02*
X42942856Y-156879819D01*
X42942856Y-156879819D02*
X42704761Y-156879819D01*
X42704761Y-156879819D02*
X42609523Y-156927438D01*
X42609523Y-156927438D02*
X42561904Y-156975057D01*
X42561904Y-156975057D02*
X42514285Y-157070295D01*
X42514285Y-157070295D02*
X42514285Y-157165533D01*
X42514285Y-157165533D02*
X42561904Y-157308390D01*
X42561904Y-157308390D02*
X43133332Y-157879819D01*
X43133332Y-157879819D02*
X42514285Y-157879819D01*
X36409780Y-144594333D02*
X36457400Y-144546714D01*
X36457400Y-144546714D02*
X36505019Y-144403857D01*
X36505019Y-144403857D02*
X36505019Y-144308619D01*
X36505019Y-144308619D02*
X36457400Y-144165762D01*
X36457400Y-144165762D02*
X36362161Y-144070524D01*
X36362161Y-144070524D02*
X36266923Y-144022905D01*
X36266923Y-144022905D02*
X36076447Y-143975286D01*
X36076447Y-143975286D02*
X35933590Y-143975286D01*
X35933590Y-143975286D02*
X35743114Y-144022905D01*
X35743114Y-144022905D02*
X35647876Y-144070524D01*
X35647876Y-144070524D02*
X35552638Y-144165762D01*
X35552638Y-144165762D02*
X35505019Y-144308619D01*
X35505019Y-144308619D02*
X35505019Y-144403857D01*
X35505019Y-144403857D02*
X35552638Y-144546714D01*
X35552638Y-144546714D02*
X35600257Y-144594333D01*
X36505019Y-145070524D02*
X36505019Y-145261000D01*
X36505019Y-145261000D02*
X36457400Y-145356238D01*
X36457400Y-145356238D02*
X36409780Y-145403857D01*
X36409780Y-145403857D02*
X36266923Y-145499095D01*
X36266923Y-145499095D02*
X36076447Y-145546714D01*
X36076447Y-145546714D02*
X35695495Y-145546714D01*
X35695495Y-145546714D02*
X35600257Y-145499095D01*
X35600257Y-145499095D02*
X35552638Y-145451476D01*
X35552638Y-145451476D02*
X35505019Y-145356238D01*
X35505019Y-145356238D02*
X35505019Y-145165762D01*
X35505019Y-145165762D02*
X35552638Y-145070524D01*
X35552638Y-145070524D02*
X35600257Y-145022905D01*
X35600257Y-145022905D02*
X35695495Y-144975286D01*
X35695495Y-144975286D02*
X35933590Y-144975286D01*
X35933590Y-144975286D02*
X36028828Y-145022905D01*
X36028828Y-145022905D02*
X36076447Y-145070524D01*
X36076447Y-145070524D02*
X36124066Y-145165762D01*
X36124066Y-145165762D02*
X36124066Y-145356238D01*
X36124066Y-145356238D02*
X36076447Y-145451476D01*
X36076447Y-145451476D02*
X36028828Y-145499095D01*
X36028828Y-145499095D02*
X35933590Y-145546714D01*
X110831780Y-173194733D02*
X110879400Y-173147114D01*
X110879400Y-173147114D02*
X110927019Y-173004257D01*
X110927019Y-173004257D02*
X110927019Y-172909019D01*
X110927019Y-172909019D02*
X110879400Y-172766162D01*
X110879400Y-172766162D02*
X110784161Y-172670924D01*
X110784161Y-172670924D02*
X110688923Y-172623305D01*
X110688923Y-172623305D02*
X110498447Y-172575686D01*
X110498447Y-172575686D02*
X110355590Y-172575686D01*
X110355590Y-172575686D02*
X110165114Y-172623305D01*
X110165114Y-172623305D02*
X110069876Y-172670924D01*
X110069876Y-172670924D02*
X109974638Y-172766162D01*
X109974638Y-172766162D02*
X109927019Y-172909019D01*
X109927019Y-172909019D02*
X109927019Y-173004257D01*
X109927019Y-173004257D02*
X109974638Y-173147114D01*
X109974638Y-173147114D02*
X110022257Y-173194733D01*
X109927019Y-174051876D02*
X109927019Y-173861400D01*
X109927019Y-173861400D02*
X109974638Y-173766162D01*
X109974638Y-173766162D02*
X110022257Y-173718543D01*
X110022257Y-173718543D02*
X110165114Y-173623305D01*
X110165114Y-173623305D02*
X110355590Y-173575686D01*
X110355590Y-173575686D02*
X110736542Y-173575686D01*
X110736542Y-173575686D02*
X110831780Y-173623305D01*
X110831780Y-173623305D02*
X110879400Y-173670924D01*
X110879400Y-173670924D02*
X110927019Y-173766162D01*
X110927019Y-173766162D02*
X110927019Y-173956638D01*
X110927019Y-173956638D02*
X110879400Y-174051876D01*
X110879400Y-174051876D02*
X110831780Y-174099495D01*
X110831780Y-174099495D02*
X110736542Y-174147114D01*
X110736542Y-174147114D02*
X110498447Y-174147114D01*
X110498447Y-174147114D02*
X110403209Y-174099495D01*
X110403209Y-174099495D02*
X110355590Y-174051876D01*
X110355590Y-174051876D02*
X110307971Y-173956638D01*
X110307971Y-173956638D02*
X110307971Y-173766162D01*
X110307971Y-173766162D02*
X110355590Y-173670924D01*
X110355590Y-173670924D02*
X110403209Y-173623305D01*
X110403209Y-173623305D02*
X110498447Y-173575686D01*
X97424704Y-150755419D02*
X97424704Y-151564942D01*
X97424704Y-151564942D02*
X97377085Y-151660180D01*
X97377085Y-151660180D02*
X97329466Y-151707800D01*
X97329466Y-151707800D02*
X97234228Y-151755419D01*
X97234228Y-151755419D02*
X97043752Y-151755419D01*
X97043752Y-151755419D02*
X96948514Y-151707800D01*
X96948514Y-151707800D02*
X96900895Y-151660180D01*
X96900895Y-151660180D02*
X96853276Y-151564942D01*
X96853276Y-151564942D02*
X96853276Y-150755419D01*
X96472323Y-150755419D02*
X95853276Y-150755419D01*
X95853276Y-150755419D02*
X96186609Y-151136371D01*
X96186609Y-151136371D02*
X96043752Y-151136371D01*
X96043752Y-151136371D02*
X95948514Y-151183990D01*
X95948514Y-151183990D02*
X95900895Y-151231609D01*
X95900895Y-151231609D02*
X95853276Y-151326847D01*
X95853276Y-151326847D02*
X95853276Y-151564942D01*
X95853276Y-151564942D02*
X95900895Y-151660180D01*
X95900895Y-151660180D02*
X95948514Y-151707800D01*
X95948514Y-151707800D02*
X96043752Y-151755419D01*
X96043752Y-151755419D02*
X96329466Y-151755419D01*
X96329466Y-151755419D02*
X96424704Y-151707800D01*
X96424704Y-151707800D02*
X96472323Y-151660180D01*
X67974380Y-175321933D02*
X68022000Y-175274314D01*
X68022000Y-175274314D02*
X68069619Y-175131457D01*
X68069619Y-175131457D02*
X68069619Y-175036219D01*
X68069619Y-175036219D02*
X68022000Y-174893362D01*
X68022000Y-174893362D02*
X67926761Y-174798124D01*
X67926761Y-174798124D02*
X67831523Y-174750505D01*
X67831523Y-174750505D02*
X67641047Y-174702886D01*
X67641047Y-174702886D02*
X67498190Y-174702886D01*
X67498190Y-174702886D02*
X67307714Y-174750505D01*
X67307714Y-174750505D02*
X67212476Y-174798124D01*
X67212476Y-174798124D02*
X67117238Y-174893362D01*
X67117238Y-174893362D02*
X67069619Y-175036219D01*
X67069619Y-175036219D02*
X67069619Y-175131457D01*
X67069619Y-175131457D02*
X67117238Y-175274314D01*
X67117238Y-175274314D02*
X67164857Y-175321933D01*
X67069619Y-176226695D02*
X67069619Y-175750505D01*
X67069619Y-175750505D02*
X67545809Y-175702886D01*
X67545809Y-175702886D02*
X67498190Y-175750505D01*
X67498190Y-175750505D02*
X67450571Y-175845743D01*
X67450571Y-175845743D02*
X67450571Y-176083838D01*
X67450571Y-176083838D02*
X67498190Y-176179076D01*
X67498190Y-176179076D02*
X67545809Y-176226695D01*
X67545809Y-176226695D02*
X67641047Y-176274314D01*
X67641047Y-176274314D02*
X67879142Y-176274314D01*
X67879142Y-176274314D02*
X67974380Y-176226695D01*
X67974380Y-176226695D02*
X68022000Y-176179076D01*
X68022000Y-176179076D02*
X68069619Y-176083838D01*
X68069619Y-176083838D02*
X68069619Y-175845743D01*
X68069619Y-175845743D02*
X68022000Y-175750505D01*
X68022000Y-175750505D02*
X67974380Y-175702886D01*
X55909380Y-175321933D02*
X55957000Y-175274314D01*
X55957000Y-175274314D02*
X56004619Y-175131457D01*
X56004619Y-175131457D02*
X56004619Y-175036219D01*
X56004619Y-175036219D02*
X55957000Y-174893362D01*
X55957000Y-174893362D02*
X55861761Y-174798124D01*
X55861761Y-174798124D02*
X55766523Y-174750505D01*
X55766523Y-174750505D02*
X55576047Y-174702886D01*
X55576047Y-174702886D02*
X55433190Y-174702886D01*
X55433190Y-174702886D02*
X55242714Y-174750505D01*
X55242714Y-174750505D02*
X55147476Y-174798124D01*
X55147476Y-174798124D02*
X55052238Y-174893362D01*
X55052238Y-174893362D02*
X55004619Y-175036219D01*
X55004619Y-175036219D02*
X55004619Y-175131457D01*
X55004619Y-175131457D02*
X55052238Y-175274314D01*
X55052238Y-175274314D02*
X55099857Y-175321933D01*
X56004619Y-176274314D02*
X56004619Y-175702886D01*
X56004619Y-175988600D02*
X55004619Y-175988600D01*
X55004619Y-175988600D02*
X55147476Y-175893362D01*
X55147476Y-175893362D02*
X55242714Y-175798124D01*
X55242714Y-175798124D02*
X55290333Y-175702886D01*
X103761904Y-165954819D02*
X103761904Y-166764342D01*
X103761904Y-166764342D02*
X103714285Y-166859580D01*
X103714285Y-166859580D02*
X103666666Y-166907200D01*
X103666666Y-166907200D02*
X103571428Y-166954819D01*
X103571428Y-166954819D02*
X103380952Y-166954819D01*
X103380952Y-166954819D02*
X103285714Y-166907200D01*
X103285714Y-166907200D02*
X103238095Y-166859580D01*
X103238095Y-166859580D02*
X103190476Y-166764342D01*
X103190476Y-166764342D02*
X103190476Y-165954819D01*
X102190476Y-166954819D02*
X102761904Y-166954819D01*
X102476190Y-166954819D02*
X102476190Y-165954819D01*
X102476190Y-165954819D02*
X102571428Y-166097676D01*
X102571428Y-166097676D02*
X102666666Y-166192914D01*
X102666666Y-166192914D02*
X102761904Y-166240533D01*
X43491666Y-155579819D02*
X43824999Y-155103628D01*
X44063094Y-155579819D02*
X44063094Y-154579819D01*
X44063094Y-154579819D02*
X43682142Y-154579819D01*
X43682142Y-154579819D02*
X43586904Y-154627438D01*
X43586904Y-154627438D02*
X43539285Y-154675057D01*
X43539285Y-154675057D02*
X43491666Y-154770295D01*
X43491666Y-154770295D02*
X43491666Y-154913152D01*
X43491666Y-154913152D02*
X43539285Y-155008390D01*
X43539285Y-155008390D02*
X43586904Y-155056009D01*
X43586904Y-155056009D02*
X43682142Y-155103628D01*
X43682142Y-155103628D02*
X44063094Y-155103628D01*
X42586904Y-154579819D02*
X43063094Y-154579819D01*
X43063094Y-154579819D02*
X43110713Y-155056009D01*
X43110713Y-155056009D02*
X43063094Y-155008390D01*
X43063094Y-155008390D02*
X42967856Y-154960771D01*
X42967856Y-154960771D02*
X42729761Y-154960771D01*
X42729761Y-154960771D02*
X42634523Y-155008390D01*
X42634523Y-155008390D02*
X42586904Y-155056009D01*
X42586904Y-155056009D02*
X42539285Y-155151247D01*
X42539285Y-155151247D02*
X42539285Y-155389342D01*
X42539285Y-155389342D02*
X42586904Y-155484580D01*
X42586904Y-155484580D02*
X42634523Y-155532200D01*
X42634523Y-155532200D02*
X42729761Y-155579819D01*
X42729761Y-155579819D02*
X42967856Y-155579819D01*
X42967856Y-155579819D02*
X43063094Y-155532200D01*
X43063094Y-155532200D02*
X43110713Y-155484580D01*
X43491666Y-166979819D02*
X43824999Y-166503628D01*
X44063094Y-166979819D02*
X44063094Y-165979819D01*
X44063094Y-165979819D02*
X43682142Y-165979819D01*
X43682142Y-165979819D02*
X43586904Y-166027438D01*
X43586904Y-166027438D02*
X43539285Y-166075057D01*
X43539285Y-166075057D02*
X43491666Y-166170295D01*
X43491666Y-166170295D02*
X43491666Y-166313152D01*
X43491666Y-166313152D02*
X43539285Y-166408390D01*
X43539285Y-166408390D02*
X43586904Y-166456009D01*
X43586904Y-166456009D02*
X43682142Y-166503628D01*
X43682142Y-166503628D02*
X44063094Y-166503628D01*
X43158332Y-165979819D02*
X42491666Y-165979819D01*
X42491666Y-165979819D02*
X42920237Y-166979819D01*
X61954580Y-175321933D02*
X62002200Y-175274314D01*
X62002200Y-175274314D02*
X62049819Y-175131457D01*
X62049819Y-175131457D02*
X62049819Y-175036219D01*
X62049819Y-175036219D02*
X62002200Y-174893362D01*
X62002200Y-174893362D02*
X61906961Y-174798124D01*
X61906961Y-174798124D02*
X61811723Y-174750505D01*
X61811723Y-174750505D02*
X61621247Y-174702886D01*
X61621247Y-174702886D02*
X61478390Y-174702886D01*
X61478390Y-174702886D02*
X61287914Y-174750505D01*
X61287914Y-174750505D02*
X61192676Y-174798124D01*
X61192676Y-174798124D02*
X61097438Y-174893362D01*
X61097438Y-174893362D02*
X61049819Y-175036219D01*
X61049819Y-175036219D02*
X61049819Y-175131457D01*
X61049819Y-175131457D02*
X61097438Y-175274314D01*
X61097438Y-175274314D02*
X61145057Y-175321933D01*
X61049819Y-175655267D02*
X61049819Y-176274314D01*
X61049819Y-176274314D02*
X61430771Y-175940981D01*
X61430771Y-175940981D02*
X61430771Y-176083838D01*
X61430771Y-176083838D02*
X61478390Y-176179076D01*
X61478390Y-176179076D02*
X61526009Y-176226695D01*
X61526009Y-176226695D02*
X61621247Y-176274314D01*
X61621247Y-176274314D02*
X61859342Y-176274314D01*
X61859342Y-176274314D02*
X61954580Y-176226695D01*
X61954580Y-176226695D02*
X62002200Y-176179076D01*
X62002200Y-176179076D02*
X62049819Y-176083838D01*
X62049819Y-176083838D02*
X62049819Y-175798124D01*
X62049819Y-175798124D02*
X62002200Y-175702886D01*
X62002200Y-175702886D02*
X61954580Y-175655267D01*
X34062857Y-150494819D02*
X34396190Y-150018628D01*
X34634285Y-150494819D02*
X34634285Y-149494819D01*
X34634285Y-149494819D02*
X34253333Y-149494819D01*
X34253333Y-149494819D02*
X34158095Y-149542438D01*
X34158095Y-149542438D02*
X34110476Y-149590057D01*
X34110476Y-149590057D02*
X34062857Y-149685295D01*
X34062857Y-149685295D02*
X34062857Y-149828152D01*
X34062857Y-149828152D02*
X34110476Y-149923390D01*
X34110476Y-149923390D02*
X34158095Y-149971009D01*
X34158095Y-149971009D02*
X34253333Y-150018628D01*
X34253333Y-150018628D02*
X34634285Y-150018628D01*
X33110476Y-150494819D02*
X33681904Y-150494819D01*
X33396190Y-150494819D02*
X33396190Y-149494819D01*
X33396190Y-149494819D02*
X33491428Y-149637676D01*
X33491428Y-149637676D02*
X33586666Y-149732914D01*
X33586666Y-149732914D02*
X33681904Y-149780533D01*
X32158095Y-150494819D02*
X32729523Y-150494819D01*
X32443809Y-150494819D02*
X32443809Y-149494819D01*
X32443809Y-149494819D02*
X32539047Y-149637676D01*
X32539047Y-149637676D02*
X32634285Y-149732914D01*
X32634285Y-149732914D02*
X32729523Y-149780533D01*
X78002794Y-134675019D02*
X78002794Y-135484542D01*
X78002794Y-135484542D02*
X77955175Y-135579780D01*
X77955175Y-135579780D02*
X77907556Y-135627400D01*
X77907556Y-135627400D02*
X77812318Y-135675019D01*
X77812318Y-135675019D02*
X77621842Y-135675019D01*
X77621842Y-135675019D02*
X77526604Y-135627400D01*
X77526604Y-135627400D02*
X77478985Y-135579780D01*
X77478985Y-135579780D02*
X77431366Y-135484542D01*
X77431366Y-135484542D02*
X77431366Y-134675019D01*
X76431366Y-135675019D02*
X77002794Y-135675019D01*
X76717080Y-135675019D02*
X76717080Y-134675019D01*
X76717080Y-134675019D02*
X76812318Y-134817876D01*
X76812318Y-134817876D02*
X76907556Y-134913114D01*
X76907556Y-134913114D02*
X77002794Y-134960733D01*
X76098032Y-134675019D02*
X75478985Y-134675019D01*
X75478985Y-134675019D02*
X75812318Y-135055971D01*
X75812318Y-135055971D02*
X75669461Y-135055971D01*
X75669461Y-135055971D02*
X75574223Y-135103590D01*
X75574223Y-135103590D02*
X75526604Y-135151209D01*
X75526604Y-135151209D02*
X75478985Y-135246447D01*
X75478985Y-135246447D02*
X75478985Y-135484542D01*
X75478985Y-135484542D02*
X75526604Y-135579780D01*
X75526604Y-135579780D02*
X75574223Y-135627400D01*
X75574223Y-135627400D02*
X75669461Y-135675019D01*
X75669461Y-135675019D02*
X75955175Y-135675019D01*
X75955175Y-135675019D02*
X76050413Y-135627400D01*
X76050413Y-135627400D02*
X76098032Y-135579780D01*
X51417394Y-134675019D02*
X51417394Y-135484542D01*
X51417394Y-135484542D02*
X51369775Y-135579780D01*
X51369775Y-135579780D02*
X51322156Y-135627400D01*
X51322156Y-135627400D02*
X51226918Y-135675019D01*
X51226918Y-135675019D02*
X51036442Y-135675019D01*
X51036442Y-135675019D02*
X50941204Y-135627400D01*
X50941204Y-135627400D02*
X50893585Y-135579780D01*
X50893585Y-135579780D02*
X50845966Y-135484542D01*
X50845966Y-135484542D02*
X50845966Y-134675019D01*
X49845966Y-135675019D02*
X50417394Y-135675019D01*
X50131680Y-135675019D02*
X50131680Y-134675019D01*
X50131680Y-134675019D02*
X50226918Y-134817876D01*
X50226918Y-134817876D02*
X50322156Y-134913114D01*
X50322156Y-134913114D02*
X50417394Y-134960733D01*
X48893585Y-135675019D02*
X49465013Y-135675019D01*
X49179299Y-135675019D02*
X49179299Y-134675019D01*
X49179299Y-134675019D02*
X49274537Y-134817876D01*
X49274537Y-134817876D02*
X49369775Y-134913114D01*
X49369775Y-134913114D02*
X49465013Y-134960733D01*
X58957380Y-175321933D02*
X59005000Y-175274314D01*
X59005000Y-175274314D02*
X59052619Y-175131457D01*
X59052619Y-175131457D02*
X59052619Y-175036219D01*
X59052619Y-175036219D02*
X59005000Y-174893362D01*
X59005000Y-174893362D02*
X58909761Y-174798124D01*
X58909761Y-174798124D02*
X58814523Y-174750505D01*
X58814523Y-174750505D02*
X58624047Y-174702886D01*
X58624047Y-174702886D02*
X58481190Y-174702886D01*
X58481190Y-174702886D02*
X58290714Y-174750505D01*
X58290714Y-174750505D02*
X58195476Y-174798124D01*
X58195476Y-174798124D02*
X58100238Y-174893362D01*
X58100238Y-174893362D02*
X58052619Y-175036219D01*
X58052619Y-175036219D02*
X58052619Y-175131457D01*
X58052619Y-175131457D02*
X58100238Y-175274314D01*
X58100238Y-175274314D02*
X58147857Y-175321933D01*
X58147857Y-175702886D02*
X58100238Y-175750505D01*
X58100238Y-175750505D02*
X58052619Y-175845743D01*
X58052619Y-175845743D02*
X58052619Y-176083838D01*
X58052619Y-176083838D02*
X58100238Y-176179076D01*
X58100238Y-176179076D02*
X58147857Y-176226695D01*
X58147857Y-176226695D02*
X58243095Y-176274314D01*
X58243095Y-176274314D02*
X58338333Y-176274314D01*
X58338333Y-176274314D02*
X58481190Y-176226695D01*
X58481190Y-176226695D02*
X59052619Y-175655267D01*
X59052619Y-175655267D02*
X59052619Y-176274314D01*
X43466666Y-151054819D02*
X43799999Y-150578628D01*
X44038094Y-151054819D02*
X44038094Y-150054819D01*
X44038094Y-150054819D02*
X43657142Y-150054819D01*
X43657142Y-150054819D02*
X43561904Y-150102438D01*
X43561904Y-150102438D02*
X43514285Y-150150057D01*
X43514285Y-150150057D02*
X43466666Y-150245295D01*
X43466666Y-150245295D02*
X43466666Y-150388152D01*
X43466666Y-150388152D02*
X43514285Y-150483390D01*
X43514285Y-150483390D02*
X43561904Y-150531009D01*
X43561904Y-150531009D02*
X43657142Y-150578628D01*
X43657142Y-150578628D02*
X44038094Y-150578628D01*
X42609523Y-150054819D02*
X42799999Y-150054819D01*
X42799999Y-150054819D02*
X42895237Y-150102438D01*
X42895237Y-150102438D02*
X42942856Y-150150057D01*
X42942856Y-150150057D02*
X43038094Y-150292914D01*
X43038094Y-150292914D02*
X43085713Y-150483390D01*
X43085713Y-150483390D02*
X43085713Y-150864342D01*
X43085713Y-150864342D02*
X43038094Y-150959580D01*
X43038094Y-150959580D02*
X42990475Y-151007200D01*
X42990475Y-151007200D02*
X42895237Y-151054819D01*
X42895237Y-151054819D02*
X42704761Y-151054819D01*
X42704761Y-151054819D02*
X42609523Y-151007200D01*
X42609523Y-151007200D02*
X42561904Y-150959580D01*
X42561904Y-150959580D02*
X42514285Y-150864342D01*
X42514285Y-150864342D02*
X42514285Y-150626247D01*
X42514285Y-150626247D02*
X42561904Y-150531009D01*
X42561904Y-150531009D02*
X42609523Y-150483390D01*
X42609523Y-150483390D02*
X42704761Y-150435771D01*
X42704761Y-150435771D02*
X42895237Y-150435771D01*
X42895237Y-150435771D02*
X42990475Y-150483390D01*
X42990475Y-150483390D02*
X43038094Y-150531009D01*
X43038094Y-150531009D02*
X43085713Y-150626247D01*
X34062857Y-156674819D02*
X34396190Y-156198628D01*
X34634285Y-156674819D02*
X34634285Y-155674819D01*
X34634285Y-155674819D02*
X34253333Y-155674819D01*
X34253333Y-155674819D02*
X34158095Y-155722438D01*
X34158095Y-155722438D02*
X34110476Y-155770057D01*
X34110476Y-155770057D02*
X34062857Y-155865295D01*
X34062857Y-155865295D02*
X34062857Y-156008152D01*
X34062857Y-156008152D02*
X34110476Y-156103390D01*
X34110476Y-156103390D02*
X34158095Y-156151009D01*
X34158095Y-156151009D02*
X34253333Y-156198628D01*
X34253333Y-156198628D02*
X34634285Y-156198628D01*
X33110476Y-156674819D02*
X33681904Y-156674819D01*
X33396190Y-156674819D02*
X33396190Y-155674819D01*
X33396190Y-155674819D02*
X33491428Y-155817676D01*
X33491428Y-155817676D02*
X33586666Y-155912914D01*
X33586666Y-155912914D02*
X33681904Y-155960533D01*
X32729523Y-155770057D02*
X32681904Y-155722438D01*
X32681904Y-155722438D02*
X32586666Y-155674819D01*
X32586666Y-155674819D02*
X32348571Y-155674819D01*
X32348571Y-155674819D02*
X32253333Y-155722438D01*
X32253333Y-155722438D02*
X32205714Y-155770057D01*
X32205714Y-155770057D02*
X32158095Y-155865295D01*
X32158095Y-155865295D02*
X32158095Y-155960533D01*
X32158095Y-155960533D02*
X32205714Y-156103390D01*
X32205714Y-156103390D02*
X32777142Y-156674819D01*
X32777142Y-156674819D02*
X32158095Y-156674819D01*
X102480357Y-150354819D02*
X102813690Y-149878628D01*
X103051785Y-150354819D02*
X103051785Y-149354819D01*
X103051785Y-149354819D02*
X102670833Y-149354819D01*
X102670833Y-149354819D02*
X102575595Y-149402438D01*
X102575595Y-149402438D02*
X102527976Y-149450057D01*
X102527976Y-149450057D02*
X102480357Y-149545295D01*
X102480357Y-149545295D02*
X102480357Y-149688152D01*
X102480357Y-149688152D02*
X102527976Y-149783390D01*
X102527976Y-149783390D02*
X102575595Y-149831009D01*
X102575595Y-149831009D02*
X102670833Y-149878628D01*
X102670833Y-149878628D02*
X103051785Y-149878628D01*
X101527976Y-150354819D02*
X102099404Y-150354819D01*
X101813690Y-150354819D02*
X101813690Y-149354819D01*
X101813690Y-149354819D02*
X101908928Y-149497676D01*
X101908928Y-149497676D02*
X102004166Y-149592914D01*
X102004166Y-149592914D02*
X102099404Y-149640533D01*
X100908928Y-149354819D02*
X100813690Y-149354819D01*
X100813690Y-149354819D02*
X100718452Y-149402438D01*
X100718452Y-149402438D02*
X100670833Y-149450057D01*
X100670833Y-149450057D02*
X100623214Y-149545295D01*
X100623214Y-149545295D02*
X100575595Y-149735771D01*
X100575595Y-149735771D02*
X100575595Y-149973866D01*
X100575595Y-149973866D02*
X100623214Y-150164342D01*
X100623214Y-150164342D02*
X100670833Y-150259580D01*
X100670833Y-150259580D02*
X100718452Y-150307200D01*
X100718452Y-150307200D02*
X100813690Y-150354819D01*
X100813690Y-150354819D02*
X100908928Y-150354819D01*
X100908928Y-150354819D02*
X101004166Y-150307200D01*
X101004166Y-150307200D02*
X101051785Y-150259580D01*
X101051785Y-150259580D02*
X101099404Y-150164342D01*
X101099404Y-150164342D02*
X101147023Y-149973866D01*
X101147023Y-149973866D02*
X101147023Y-149735771D01*
X101147023Y-149735771D02*
X101099404Y-149545295D01*
X101099404Y-149545295D02*
X101051785Y-149450057D01*
X101051785Y-149450057D02*
X101004166Y-149402438D01*
X101004166Y-149402438D02*
X100908928Y-149354819D01*
X43491666Y-153354819D02*
X43824999Y-152878628D01*
X44063094Y-153354819D02*
X44063094Y-152354819D01*
X44063094Y-152354819D02*
X43682142Y-152354819D01*
X43682142Y-152354819D02*
X43586904Y-152402438D01*
X43586904Y-152402438D02*
X43539285Y-152450057D01*
X43539285Y-152450057D02*
X43491666Y-152545295D01*
X43491666Y-152545295D02*
X43491666Y-152688152D01*
X43491666Y-152688152D02*
X43539285Y-152783390D01*
X43539285Y-152783390D02*
X43586904Y-152831009D01*
X43586904Y-152831009D02*
X43682142Y-152878628D01*
X43682142Y-152878628D02*
X44063094Y-152878628D01*
X43158332Y-152354819D02*
X42539285Y-152354819D01*
X42539285Y-152354819D02*
X42872618Y-152735771D01*
X42872618Y-152735771D02*
X42729761Y-152735771D01*
X42729761Y-152735771D02*
X42634523Y-152783390D01*
X42634523Y-152783390D02*
X42586904Y-152831009D01*
X42586904Y-152831009D02*
X42539285Y-152926247D01*
X42539285Y-152926247D02*
X42539285Y-153164342D01*
X42539285Y-153164342D02*
X42586904Y-153259580D01*
X42586904Y-153259580D02*
X42634523Y-153307200D01*
X42634523Y-153307200D02*
X42729761Y-153354819D01*
X42729761Y-153354819D02*
X43015475Y-153354819D01*
X43015475Y-153354819D02*
X43110713Y-153307200D01*
X43110713Y-153307200D02*
X43158332Y-153259580D01*
D11*
%TO.C,REF\u002A\u002A*%
X33905406Y-183424949D02*
X33931127Y-183440647D01*
X33957778Y-183462227D01*
X33957778Y-184109684D01*
X33931127Y-184131264D01*
X33899767Y-184148739D01*
X33863966Y-184149575D01*
X33832528Y-184129082D01*
X33828652Y-184124416D01*
X33823186Y-184114949D01*
X33818979Y-184101267D01*
X33815867Y-184080748D01*
X33813687Y-184050768D01*
X33812276Y-184008704D01*
X33811471Y-183951932D01*
X33811107Y-183877830D01*
X33811022Y-183783773D01*
X33811022Y-183462227D01*
X33837673Y-183440647D01*
X33861386Y-183425877D01*
X33884400Y-183419067D01*
X33905406Y-183424949D01*
G36*
X33905406Y-183424949D02*
G01*
X33931127Y-183440647D01*
X33957778Y-183462227D01*
X33957778Y-184109684D01*
X33931127Y-184131264D01*
X33899767Y-184148739D01*
X33863966Y-184149575D01*
X33832528Y-184129082D01*
X33828652Y-184124416D01*
X33823186Y-184114949D01*
X33818979Y-184101267D01*
X33815867Y-184080748D01*
X33813687Y-184050768D01*
X33812276Y-184008704D01*
X33811471Y-183951932D01*
X33811107Y-183877830D01*
X33811022Y-183783773D01*
X33811022Y-183462227D01*
X33837673Y-183440647D01*
X33861386Y-183425877D01*
X33884400Y-183419067D01*
X33905406Y-183424949D01*
G37*
X41036137Y-183423463D02*
X41070291Y-183446776D01*
X41098000Y-183474485D01*
X41098000Y-183787537D01*
X41097959Y-183871567D01*
X41097701Y-183945789D01*
X41097030Y-184002541D01*
X41095752Y-184044512D01*
X41093673Y-184074389D01*
X41090599Y-184094861D01*
X41086334Y-184108614D01*
X41080684Y-184118337D01*
X41073455Y-184126717D01*
X41041991Y-184148181D01*
X41006826Y-184149947D01*
X40973822Y-184130267D01*
X40968516Y-184124398D01*
X40963066Y-184115314D01*
X40958900Y-184101973D01*
X40955846Y-184081757D01*
X40953732Y-184052049D01*
X40952386Y-184010232D01*
X40951638Y-183953689D01*
X40951314Y-183879802D01*
X40951245Y-183785956D01*
X40951284Y-183710294D01*
X40951539Y-183632385D01*
X40952183Y-183572375D01*
X40953387Y-183527648D01*
X40955324Y-183495585D01*
X40958164Y-183473571D01*
X40962079Y-183458987D01*
X40967242Y-183449218D01*
X40973822Y-183441645D01*
X41003006Y-183422623D01*
X41036137Y-183423463D01*
G36*
X41036137Y-183423463D02*
G01*
X41070291Y-183446776D01*
X41098000Y-183474485D01*
X41098000Y-183787537D01*
X41097959Y-183871567D01*
X41097701Y-183945789D01*
X41097030Y-184002541D01*
X41095752Y-184044512D01*
X41093673Y-184074389D01*
X41090599Y-184094861D01*
X41086334Y-184108614D01*
X41080684Y-184118337D01*
X41073455Y-184126717D01*
X41041991Y-184148181D01*
X41006826Y-184149947D01*
X40973822Y-184130267D01*
X40968516Y-184124398D01*
X40963066Y-184115314D01*
X40958900Y-184101973D01*
X40955846Y-184081757D01*
X40953732Y-184052049D01*
X40952386Y-184010232D01*
X40951638Y-183953689D01*
X40951314Y-183879802D01*
X40951245Y-183785956D01*
X40951284Y-183710294D01*
X40951539Y-183632385D01*
X40952183Y-183572375D01*
X40953387Y-183527648D01*
X40955324Y-183495585D01*
X40958164Y-183473571D01*
X40962079Y-183458987D01*
X40967242Y-183449218D01*
X40973822Y-183441645D01*
X41003006Y-183422623D01*
X41036137Y-183423463D01*
G37*
X40504562Y-178182850D02*
X40587313Y-178210053D01*
X40662406Y-178255484D01*
X40734298Y-178321302D01*
X40772846Y-178365567D01*
X40812256Y-178423961D01*
X40837446Y-178484586D01*
X40850861Y-178553865D01*
X40854948Y-178638222D01*
X40854669Y-178684307D01*
X40852460Y-178725450D01*
X40846894Y-178757582D01*
X40836586Y-178788122D01*
X40820148Y-178824489D01*
X40806200Y-178851728D01*
X40747665Y-178937429D01*
X40675619Y-179006617D01*
X40591947Y-179057741D01*
X40498531Y-179089250D01*
X40465434Y-179096225D01*
X40424960Y-179103094D01*
X40391999Y-179104919D01*
X40357698Y-179101947D01*
X40313200Y-179094426D01*
X40261934Y-179082002D01*
X40171434Y-179044112D01*
X40092345Y-178989836D01*
X40026528Y-178921770D01*
X39975840Y-178842511D01*
X39942140Y-178754654D01*
X39927286Y-178660795D01*
X39933136Y-178563530D01*
X39959399Y-178467220D01*
X40004418Y-178378494D01*
X40065373Y-178303419D01*
X40140184Y-178243641D01*
X40226768Y-178200809D01*
X40323043Y-178176571D01*
X40426928Y-178172576D01*
X40504562Y-178182850D01*
G36*
X40504562Y-178182850D02*
G01*
X40587313Y-178210053D01*
X40662406Y-178255484D01*
X40734298Y-178321302D01*
X40772846Y-178365567D01*
X40812256Y-178423961D01*
X40837446Y-178484586D01*
X40850861Y-178553865D01*
X40854948Y-178638222D01*
X40854669Y-178684307D01*
X40852460Y-178725450D01*
X40846894Y-178757582D01*
X40836586Y-178788122D01*
X40820148Y-178824489D01*
X40806200Y-178851728D01*
X40747665Y-178937429D01*
X40675619Y-179006617D01*
X40591947Y-179057741D01*
X40498531Y-179089250D01*
X40465434Y-179096225D01*
X40424960Y-179103094D01*
X40391999Y-179104919D01*
X40357698Y-179101947D01*
X40313200Y-179094426D01*
X40261934Y-179082002D01*
X40171434Y-179044112D01*
X40092345Y-178989836D01*
X40026528Y-178921770D01*
X39975840Y-178842511D01*
X39942140Y-178754654D01*
X39927286Y-178660795D01*
X39933136Y-178563530D01*
X39959399Y-178467220D01*
X40004418Y-178378494D01*
X40065373Y-178303419D01*
X40140184Y-178243641D01*
X40226768Y-178200809D01*
X40323043Y-178176571D01*
X40426928Y-178172576D01*
X40504562Y-178182850D01*
G37*
X33205767Y-183419068D02*
X33299890Y-183419158D01*
X33374405Y-183419498D01*
X33431811Y-183420239D01*
X33474611Y-183421535D01*
X33505304Y-183423537D01*
X33526391Y-183426396D01*
X33540373Y-183430266D01*
X33549750Y-183435298D01*
X33557022Y-183441645D01*
X33575828Y-183474362D01*
X33577275Y-183511939D01*
X33560917Y-183545178D01*
X33559557Y-183546631D01*
X33548354Y-183554992D01*
X33531252Y-183560547D01*
X33504082Y-183563840D01*
X33462678Y-183565418D01*
X33402873Y-183565822D01*
X33263511Y-183565822D01*
X33263511Y-183829589D01*
X33263436Y-183905417D01*
X33263028Y-183972083D01*
X33262046Y-184021867D01*
X33260250Y-184057784D01*
X33257399Y-184082850D01*
X33253253Y-184100081D01*
X33247571Y-184112492D01*
X33240114Y-184123100D01*
X33237824Y-184125906D01*
X33206646Y-184148548D01*
X33172266Y-184150112D01*
X33139334Y-184130267D01*
X33132355Y-184122191D01*
X33126883Y-184111593D01*
X33122863Y-184095749D01*
X33120072Y-184071773D01*
X33118288Y-184036774D01*
X33117289Y-183987864D01*
X33116852Y-183922154D01*
X33116756Y-183836756D01*
X33116756Y-183565822D01*
X32970820Y-183565822D01*
X32959720Y-183565821D01*
X32903202Y-183565596D01*
X32864358Y-183564457D01*
X32838965Y-183561657D01*
X32822804Y-183556450D01*
X32811652Y-183548089D01*
X32801289Y-183535826D01*
X32785441Y-183505138D01*
X32788543Y-183471358D01*
X32814187Y-183438822D01*
X32819129Y-183435105D01*
X32829338Y-183430269D01*
X32844764Y-183426506D01*
X32867886Y-183423683D01*
X32901183Y-183421670D01*
X32947137Y-183420333D01*
X33008228Y-183419542D01*
X33086935Y-183419163D01*
X33185740Y-183419067D01*
X33205767Y-183419068D01*
G36*
X33205767Y-183419068D02*
G01*
X33299890Y-183419158D01*
X33374405Y-183419498D01*
X33431811Y-183420239D01*
X33474611Y-183421535D01*
X33505304Y-183423537D01*
X33526391Y-183426396D01*
X33540373Y-183430266D01*
X33549750Y-183435298D01*
X33557022Y-183441645D01*
X33575828Y-183474362D01*
X33577275Y-183511939D01*
X33560917Y-183545178D01*
X33559557Y-183546631D01*
X33548354Y-183554992D01*
X33531252Y-183560547D01*
X33504082Y-183563840D01*
X33462678Y-183565418D01*
X33402873Y-183565822D01*
X33263511Y-183565822D01*
X33263511Y-183829589D01*
X33263436Y-183905417D01*
X33263028Y-183972083D01*
X33262046Y-184021867D01*
X33260250Y-184057784D01*
X33257399Y-184082850D01*
X33253253Y-184100081D01*
X33247571Y-184112492D01*
X33240114Y-184123100D01*
X33237824Y-184125906D01*
X33206646Y-184148548D01*
X33172266Y-184150112D01*
X33139334Y-184130267D01*
X33132355Y-184122191D01*
X33126883Y-184111593D01*
X33122863Y-184095749D01*
X33120072Y-184071773D01*
X33118288Y-184036774D01*
X33117289Y-183987864D01*
X33116852Y-183922154D01*
X33116756Y-183836756D01*
X33116756Y-183565822D01*
X32970820Y-183565822D01*
X32959720Y-183565821D01*
X32903202Y-183565596D01*
X32864358Y-183564457D01*
X32838965Y-183561657D01*
X32822804Y-183556450D01*
X32811652Y-183548089D01*
X32801289Y-183535826D01*
X32785441Y-183505138D01*
X32788543Y-183471358D01*
X32814187Y-183438822D01*
X32819129Y-183435105D01*
X32829338Y-183430269D01*
X32844764Y-183426506D01*
X32867886Y-183423683D01*
X32901183Y-183421670D01*
X32947137Y-183420333D01*
X33008228Y-183419542D01*
X33086935Y-183419163D01*
X33185740Y-183419067D01*
X33205767Y-183419068D01*
G37*
X32529734Y-183441645D02*
X32535366Y-183447835D01*
X32540456Y-183456041D01*
X32544543Y-183467817D01*
X32547721Y-183485276D01*
X32550087Y-183510530D01*
X32551738Y-183545690D01*
X32552769Y-183592869D01*
X32553277Y-183654177D01*
X32553359Y-183731727D01*
X32553109Y-183827631D01*
X32552625Y-183944000D01*
X32552557Y-183958175D01*
X32551971Y-184019937D01*
X32550648Y-184063620D01*
X32548103Y-184093001D01*
X32543848Y-184111855D01*
X32537396Y-184123959D01*
X32528262Y-184133089D01*
X32494804Y-184150506D01*
X32459856Y-184147604D01*
X32428953Y-184123100D01*
X32419944Y-184109897D01*
X32412492Y-184091361D01*
X32408124Y-184065333D01*
X32406069Y-184026787D01*
X32405556Y-183970700D01*
X32405556Y-183848045D01*
X31908845Y-183848045D01*
X31908845Y-183982871D01*
X31908772Y-184018662D01*
X31908009Y-184064992D01*
X31905833Y-184095526D01*
X31901536Y-184114557D01*
X31894412Y-184126374D01*
X31883755Y-184135271D01*
X31851504Y-184150341D01*
X31816217Y-184147673D01*
X31785486Y-184123100D01*
X31780831Y-184116845D01*
X31774895Y-184106321D01*
X31770364Y-184092391D01*
X31767048Y-184072317D01*
X31764759Y-184043360D01*
X31763308Y-184002780D01*
X31762505Y-183947840D01*
X31762162Y-183875799D01*
X31762089Y-183783920D01*
X31762089Y-183474485D01*
X31789798Y-183446776D01*
X31821177Y-183424533D01*
X31854406Y-183421844D01*
X31886267Y-183441645D01*
X31894553Y-183451415D01*
X31901965Y-183467307D01*
X31906302Y-183491275D01*
X31908338Y-183528148D01*
X31908845Y-183582756D01*
X31908845Y-183701289D01*
X32405556Y-183701289D01*
X32405556Y-183585776D01*
X32405994Y-183534078D01*
X32407958Y-183499554D01*
X32412474Y-183476978D01*
X32420567Y-183461126D01*
X32433265Y-183446776D01*
X32464643Y-183424533D01*
X32497872Y-183421844D01*
X32529734Y-183441645D01*
G36*
X32529734Y-183441645D02*
G01*
X32535366Y-183447835D01*
X32540456Y-183456041D01*
X32544543Y-183467817D01*
X32547721Y-183485276D01*
X32550087Y-183510530D01*
X32551738Y-183545690D01*
X32552769Y-183592869D01*
X32553277Y-183654177D01*
X32553359Y-183731727D01*
X32553109Y-183827631D01*
X32552625Y-183944000D01*
X32552557Y-183958175D01*
X32551971Y-184019937D01*
X32550648Y-184063620D01*
X32548103Y-184093001D01*
X32543848Y-184111855D01*
X32537396Y-184123959D01*
X32528262Y-184133089D01*
X32494804Y-184150506D01*
X32459856Y-184147604D01*
X32428953Y-184123100D01*
X32419944Y-184109897D01*
X32412492Y-184091361D01*
X32408124Y-184065333D01*
X32406069Y-184026787D01*
X32405556Y-183970700D01*
X32405556Y-183848045D01*
X31908845Y-183848045D01*
X31908845Y-183982871D01*
X31908772Y-184018662D01*
X31908009Y-184064992D01*
X31905833Y-184095526D01*
X31901536Y-184114557D01*
X31894412Y-184126374D01*
X31883755Y-184135271D01*
X31851504Y-184150341D01*
X31816217Y-184147673D01*
X31785486Y-184123100D01*
X31780831Y-184116845D01*
X31774895Y-184106321D01*
X31770364Y-184092391D01*
X31767048Y-184072317D01*
X31764759Y-184043360D01*
X31763308Y-184002780D01*
X31762505Y-183947840D01*
X31762162Y-183875799D01*
X31762089Y-183783920D01*
X31762089Y-183474485D01*
X31789798Y-183446776D01*
X31821177Y-183424533D01*
X31854406Y-183421844D01*
X31886267Y-183441645D01*
X31894553Y-183451415D01*
X31901965Y-183467307D01*
X31906302Y-183491275D01*
X31908338Y-183528148D01*
X31908845Y-183582756D01*
X31908845Y-183701289D01*
X32405556Y-183701289D01*
X32405556Y-183585776D01*
X32405994Y-183534078D01*
X32407958Y-183499554D01*
X32412474Y-183476978D01*
X32420567Y-183461126D01*
X32433265Y-183446776D01*
X32464643Y-183424533D01*
X32497872Y-183421844D01*
X32529734Y-183441645D01*
G37*
X37235133Y-184030396D02*
X37233163Y-184063175D01*
X37230235Y-184086095D01*
X37226158Y-184101897D01*
X37220743Y-184113319D01*
X37213803Y-184123100D01*
X37190406Y-184152845D01*
X37024714Y-184152251D01*
X36989918Y-184151953D01*
X36891435Y-184148522D01*
X36810473Y-184140839D01*
X36743379Y-184128282D01*
X36686496Y-184110227D01*
X36636169Y-184086052D01*
X36632810Y-184084135D01*
X36574998Y-184047417D01*
X36532644Y-184010451D01*
X36499828Y-183966966D01*
X36470628Y-183910689D01*
X36466346Y-183901073D01*
X36443769Y-183837887D01*
X36438034Y-183792333D01*
X36587279Y-183792333D01*
X36592892Y-183817061D01*
X36598618Y-183832939D01*
X36631548Y-183892847D01*
X36678886Y-183938600D01*
X36742652Y-183971736D01*
X36824861Y-183993790D01*
X36827655Y-183994292D01*
X36873940Y-184000255D01*
X36930336Y-184004483D01*
X36985274Y-184006089D01*
X37079156Y-184006089D01*
X37079156Y-183565822D01*
X36991667Y-183566270D01*
X36924747Y-183568746D01*
X36832349Y-183579998D01*
X36753034Y-183599537D01*
X36691060Y-183626511D01*
X36660120Y-183647240D01*
X36632000Y-183677006D01*
X36608660Y-183719434D01*
X36601533Y-183735400D01*
X36589709Y-183767902D01*
X36587279Y-183792333D01*
X36438034Y-183792333D01*
X36436797Y-183782509D01*
X36445399Y-183727483D01*
X36469541Y-183665351D01*
X36470337Y-183663658D01*
X36510788Y-183594236D01*
X36561473Y-183537638D01*
X36624198Y-183493070D01*
X36700774Y-183459741D01*
X36793009Y-183436861D01*
X36902712Y-183423636D01*
X37031691Y-183419275D01*
X37035263Y-183419270D01*
X37095283Y-183419410D01*
X37137214Y-183420446D01*
X37165328Y-183423040D01*
X37183897Y-183427853D01*
X37197194Y-183435544D01*
X37209491Y-183446776D01*
X37237200Y-183474485D01*
X37237200Y-183783920D01*
X37237175Y-183845526D01*
X37236950Y-183924311D01*
X37236332Y-183985021D01*
X37235775Y-184006089D01*
X37235133Y-184030396D01*
G36*
X37235133Y-184030396D02*
G01*
X37233163Y-184063175D01*
X37230235Y-184086095D01*
X37226158Y-184101897D01*
X37220743Y-184113319D01*
X37213803Y-184123100D01*
X37190406Y-184152845D01*
X37024714Y-184152251D01*
X36989918Y-184151953D01*
X36891435Y-184148522D01*
X36810473Y-184140839D01*
X36743379Y-184128282D01*
X36686496Y-184110227D01*
X36636169Y-184086052D01*
X36632810Y-184084135D01*
X36574998Y-184047417D01*
X36532644Y-184010451D01*
X36499828Y-183966966D01*
X36470628Y-183910689D01*
X36466346Y-183901073D01*
X36443769Y-183837887D01*
X36438034Y-183792333D01*
X36587279Y-183792333D01*
X36592892Y-183817061D01*
X36598618Y-183832939D01*
X36631548Y-183892847D01*
X36678886Y-183938600D01*
X36742652Y-183971736D01*
X36824861Y-183993790D01*
X36827655Y-183994292D01*
X36873940Y-184000255D01*
X36930336Y-184004483D01*
X36985274Y-184006089D01*
X37079156Y-184006089D01*
X37079156Y-183565822D01*
X36991667Y-183566270D01*
X36924747Y-183568746D01*
X36832349Y-183579998D01*
X36753034Y-183599537D01*
X36691060Y-183626511D01*
X36660120Y-183647240D01*
X36632000Y-183677006D01*
X36608660Y-183719434D01*
X36601533Y-183735400D01*
X36589709Y-183767902D01*
X36587279Y-183792333D01*
X36438034Y-183792333D01*
X36436797Y-183782509D01*
X36445399Y-183727483D01*
X36469541Y-183665351D01*
X36470337Y-183663658D01*
X36510788Y-183594236D01*
X36561473Y-183537638D01*
X36624198Y-183493070D01*
X36700774Y-183459741D01*
X36793009Y-183436861D01*
X36902712Y-183423636D01*
X37031691Y-183419275D01*
X37035263Y-183419270D01*
X37095283Y-183419410D01*
X37137214Y-183420446D01*
X37165328Y-183423040D01*
X37183897Y-183427853D01*
X37197194Y-183435544D01*
X37209491Y-183446776D01*
X37237200Y-183474485D01*
X37237200Y-183783920D01*
X37237175Y-183845526D01*
X37236950Y-183924311D01*
X37236332Y-183985021D01*
X37235775Y-184006089D01*
X37235133Y-184030396D01*
G37*
X44326817Y-183604427D02*
X44326870Y-183685041D01*
X44326622Y-183785956D01*
X44326583Y-183861617D01*
X44326328Y-183939526D01*
X44325684Y-183999536D01*
X44324480Y-184044264D01*
X44322543Y-184076326D01*
X44319703Y-184098340D01*
X44315788Y-184112924D01*
X44310626Y-184122694D01*
X44304045Y-184130267D01*
X44297077Y-184136501D01*
X44284079Y-184143801D01*
X44264931Y-184148554D01*
X44235528Y-184151292D01*
X44191762Y-184152545D01*
X44129528Y-184152845D01*
X44080582Y-184152469D01*
X43973722Y-184148041D01*
X43884494Y-184137953D01*
X43809696Y-184121365D01*
X43746125Y-184097435D01*
X43690579Y-184065321D01*
X43639854Y-184024182D01*
X43633866Y-184018330D01*
X43596999Y-183969821D01*
X43565899Y-183909013D01*
X43544417Y-183844769D01*
X43539136Y-183806026D01*
X43686353Y-183806026D01*
X43704635Y-183856961D01*
X43734305Y-183902878D01*
X43781002Y-183945287D01*
X43842392Y-183975090D01*
X43921538Y-183994226D01*
X43923028Y-183994464D01*
X43971999Y-184000256D01*
X44030693Y-184004396D01*
X44086734Y-184006004D01*
X44179867Y-184006089D01*
X44179867Y-183565822D01*
X44103667Y-183565808D01*
X44100639Y-183565817D01*
X44049519Y-183567782D01*
X43989416Y-183572507D01*
X43932708Y-183579035D01*
X43882750Y-183588331D01*
X43807998Y-183614600D01*
X43750489Y-183653899D01*
X43708988Y-183706933D01*
X43687771Y-183758200D01*
X43686353Y-183806026D01*
X43539136Y-183806026D01*
X43536400Y-183785956D01*
X43537679Y-183764739D01*
X43549991Y-183707323D01*
X43572520Y-183647413D01*
X43601750Y-183593363D01*
X43634167Y-183553532D01*
X43653708Y-183536510D01*
X43708420Y-183497322D01*
X43768723Y-183467193D01*
X43837919Y-183445232D01*
X43919311Y-183430550D01*
X44016200Y-183422259D01*
X44131889Y-183419467D01*
X44171371Y-183419066D01*
X44217082Y-183418653D01*
X44252883Y-183420457D01*
X44279974Y-183426739D01*
X44299556Y-183439759D01*
X44312830Y-183461778D01*
X44320998Y-183495055D01*
X44325260Y-183541851D01*
X44325857Y-183565822D01*
X44326817Y-183604427D01*
G36*
X44326817Y-183604427D02*
G01*
X44326870Y-183685041D01*
X44326622Y-183785956D01*
X44326583Y-183861617D01*
X44326328Y-183939526D01*
X44325684Y-183999536D01*
X44324480Y-184044264D01*
X44322543Y-184076326D01*
X44319703Y-184098340D01*
X44315788Y-184112924D01*
X44310626Y-184122694D01*
X44304045Y-184130267D01*
X44297077Y-184136501D01*
X44284079Y-184143801D01*
X44264931Y-184148554D01*
X44235528Y-184151292D01*
X44191762Y-184152545D01*
X44129528Y-184152845D01*
X44080582Y-184152469D01*
X43973722Y-184148041D01*
X43884494Y-184137953D01*
X43809696Y-184121365D01*
X43746125Y-184097435D01*
X43690579Y-184065321D01*
X43639854Y-184024182D01*
X43633866Y-184018330D01*
X43596999Y-183969821D01*
X43565899Y-183909013D01*
X43544417Y-183844769D01*
X43539136Y-183806026D01*
X43686353Y-183806026D01*
X43704635Y-183856961D01*
X43734305Y-183902878D01*
X43781002Y-183945287D01*
X43842392Y-183975090D01*
X43921538Y-183994226D01*
X43923028Y-183994464D01*
X43971999Y-184000256D01*
X44030693Y-184004396D01*
X44086734Y-184006004D01*
X44179867Y-184006089D01*
X44179867Y-183565822D01*
X44103667Y-183565808D01*
X44100639Y-183565817D01*
X44049519Y-183567782D01*
X43989416Y-183572507D01*
X43932708Y-183579035D01*
X43882750Y-183588331D01*
X43807998Y-183614600D01*
X43750489Y-183653899D01*
X43708988Y-183706933D01*
X43687771Y-183758200D01*
X43686353Y-183806026D01*
X43539136Y-183806026D01*
X43536400Y-183785956D01*
X43537679Y-183764739D01*
X43549991Y-183707323D01*
X43572520Y-183647413D01*
X43601750Y-183593363D01*
X43634167Y-183553532D01*
X43653708Y-183536510D01*
X43708420Y-183497322D01*
X43768723Y-183467193D01*
X43837919Y-183445232D01*
X43919311Y-183430550D01*
X44016200Y-183422259D01*
X44131889Y-183419467D01*
X44171371Y-183419066D01*
X44217082Y-183418653D01*
X44252883Y-183420457D01*
X44279974Y-183426739D01*
X44299556Y-183439759D01*
X44312830Y-183461778D01*
X44320998Y-183495055D01*
X44325260Y-183541851D01*
X44325857Y-183565822D01*
X44326817Y-183604427D01*
G37*
X39381893Y-183417892D02*
X39393301Y-183424029D01*
X39403850Y-183434691D01*
X39415136Y-183448811D01*
X39419589Y-183454772D01*
X39425588Y-183465268D01*
X39430167Y-183479093D01*
X39433519Y-183498998D01*
X39435833Y-183527732D01*
X39437301Y-183568045D01*
X39438113Y-183622687D01*
X39438460Y-183694407D01*
X39438534Y-183785956D01*
X39438511Y-183844486D01*
X39438292Y-183923573D01*
X39437683Y-183984516D01*
X39436492Y-184030062D01*
X39434529Y-184062963D01*
X39431603Y-184085968D01*
X39427523Y-184101826D01*
X39422097Y-184113286D01*
X39415136Y-184123100D01*
X39384708Y-184147493D01*
X39349765Y-184150372D01*
X39312784Y-184131282D01*
X39308600Y-184127807D01*
X39300424Y-184119279D01*
X39294364Y-184107728D01*
X39289981Y-184089896D01*
X39286839Y-184062524D01*
X39284502Y-184022354D01*
X39282531Y-183966128D01*
X39280489Y-183890589D01*
X39274845Y-183671458D01*
X39009556Y-183912099D01*
X38935722Y-183978875D01*
X38870542Y-184036991D01*
X38818348Y-184081949D01*
X38777273Y-184114871D01*
X38745455Y-184136879D01*
X38721026Y-184149094D01*
X38702124Y-184152639D01*
X38686883Y-184148636D01*
X38673439Y-184138207D01*
X38659927Y-184122474D01*
X38653682Y-184113991D01*
X38648050Y-184103413D01*
X38643839Y-184089255D01*
X38640887Y-184068803D01*
X38639032Y-184039342D01*
X38638113Y-183998161D01*
X38637968Y-183942544D01*
X38638435Y-183869779D01*
X38639352Y-183777151D01*
X38642667Y-183462199D01*
X38669318Y-183440633D01*
X38695383Y-183424441D01*
X38728241Y-183421670D01*
X38762772Y-183440623D01*
X38767084Y-183444208D01*
X38775216Y-183452737D01*
X38781245Y-183464329D01*
X38785606Y-183482235D01*
X38788734Y-183509706D01*
X38791063Y-183549994D01*
X38793029Y-183606351D01*
X38795067Y-183682029D01*
X38800711Y-183901878D01*
X38981334Y-183738084D01*
X39068072Y-183659451D01*
X39143843Y-183591058D01*
X39205980Y-183535708D01*
X39256078Y-183492338D01*
X39295735Y-183459881D01*
X39326548Y-183437273D01*
X39350114Y-183423448D01*
X39368030Y-183417343D01*
X39381893Y-183417892D01*
G36*
X39381893Y-183417892D02*
G01*
X39393301Y-183424029D01*
X39403850Y-183434691D01*
X39415136Y-183448811D01*
X39419589Y-183454772D01*
X39425588Y-183465268D01*
X39430167Y-183479093D01*
X39433519Y-183498998D01*
X39435833Y-183527732D01*
X39437301Y-183568045D01*
X39438113Y-183622687D01*
X39438460Y-183694407D01*
X39438534Y-183785956D01*
X39438511Y-183844486D01*
X39438292Y-183923573D01*
X39437683Y-183984516D01*
X39436492Y-184030062D01*
X39434529Y-184062963D01*
X39431603Y-184085968D01*
X39427523Y-184101826D01*
X39422097Y-184113286D01*
X39415136Y-184123100D01*
X39384708Y-184147493D01*
X39349765Y-184150372D01*
X39312784Y-184131282D01*
X39308600Y-184127807D01*
X39300424Y-184119279D01*
X39294364Y-184107728D01*
X39289981Y-184089896D01*
X39286839Y-184062524D01*
X39284502Y-184022354D01*
X39282531Y-183966128D01*
X39280489Y-183890589D01*
X39274845Y-183671458D01*
X39009556Y-183912099D01*
X38935722Y-183978875D01*
X38870542Y-184036991D01*
X38818348Y-184081949D01*
X38777273Y-184114871D01*
X38745455Y-184136879D01*
X38721026Y-184149094D01*
X38702124Y-184152639D01*
X38686883Y-184148636D01*
X38673439Y-184138207D01*
X38659927Y-184122474D01*
X38653682Y-184113991D01*
X38648050Y-184103413D01*
X38643839Y-184089255D01*
X38640887Y-184068803D01*
X38639032Y-184039342D01*
X38638113Y-183998161D01*
X38637968Y-183942544D01*
X38638435Y-183869779D01*
X38639352Y-183777151D01*
X38642667Y-183462199D01*
X38669318Y-183440633D01*
X38695383Y-183424441D01*
X38728241Y-183421670D01*
X38762772Y-183440623D01*
X38767084Y-183444208D01*
X38775216Y-183452737D01*
X38781245Y-183464329D01*
X38785606Y-183482235D01*
X38788734Y-183509706D01*
X38791063Y-183549994D01*
X38793029Y-183606351D01*
X38795067Y-183682029D01*
X38800711Y-183901878D01*
X38981334Y-183738084D01*
X39068072Y-183659451D01*
X39143843Y-183591058D01*
X39205980Y-183535708D01*
X39256078Y-183492338D01*
X39295735Y-183459881D01*
X39326548Y-183437273D01*
X39350114Y-183423448D01*
X39368030Y-183417343D01*
X39381893Y-183417892D01*
G37*
X40179150Y-183424179D02*
X40285157Y-183440494D01*
X40378969Y-183468545D01*
X40457765Y-183507452D01*
X40518719Y-183556334D01*
X40544789Y-183589195D01*
X40574297Y-183638394D01*
X40599568Y-183692252D01*
X40617218Y-183743419D01*
X40623858Y-183784544D01*
X40622298Y-183804259D01*
X40609357Y-183855592D01*
X40586194Y-183912118D01*
X40556302Y-183966035D01*
X40523173Y-184009539D01*
X40512977Y-184019887D01*
X40445892Y-184071662D01*
X40365766Y-184111554D01*
X40279556Y-184135956D01*
X40224592Y-184144068D01*
X40131139Y-184150673D01*
X40041358Y-184148586D01*
X39958869Y-184138340D01*
X39887286Y-184120470D01*
X39830228Y-184095508D01*
X39791311Y-184063988D01*
X39789936Y-184062012D01*
X39782848Y-184036786D01*
X39778609Y-183989535D01*
X39777200Y-183920071D01*
X39778060Y-183857838D01*
X39782780Y-183810456D01*
X39794470Y-183778353D01*
X39816239Y-183758800D01*
X39851198Y-183749070D01*
X39902456Y-183746433D01*
X39973123Y-183748161D01*
X40021743Y-183751173D01*
X40071939Y-183759366D01*
X40104433Y-183773419D01*
X40121892Y-183794654D01*
X40126983Y-183824394D01*
X40126877Y-183828936D01*
X40118175Y-183863730D01*
X40094165Y-183887147D01*
X40052900Y-183900347D01*
X39992431Y-183904489D01*
X39923956Y-183904489D01*
X39923956Y-183942841D01*
X39924006Y-183951976D01*
X39926227Y-183969227D01*
X39935494Y-183979521D01*
X39956875Y-183986459D01*
X39995436Y-183993641D01*
X40000910Y-183994575D01*
X40097860Y-184004478D01*
X40187852Y-184001559D01*
X40268760Y-183986829D01*
X40338459Y-183961299D01*
X40394824Y-183925978D01*
X40435729Y-183881879D01*
X40459051Y-183830012D01*
X40462663Y-183771388D01*
X40457145Y-183742494D01*
X40430461Y-183686604D01*
X40384273Y-183640945D01*
X40319291Y-183606108D01*
X40236229Y-183582690D01*
X40211555Y-183578241D01*
X40122226Y-183567742D01*
X40042419Y-183568971D01*
X39964326Y-183581906D01*
X39929183Y-183588696D01*
X39883745Y-183589713D01*
X39852430Y-183577182D01*
X39832277Y-183550395D01*
X39825893Y-183522148D01*
X39835379Y-183490924D01*
X39844708Y-183477499D01*
X39878943Y-183453967D01*
X39931565Y-183436095D01*
X40000081Y-183424599D01*
X40082000Y-183420192D01*
X40179150Y-183424179D01*
G36*
X40179150Y-183424179D02*
G01*
X40285157Y-183440494D01*
X40378969Y-183468545D01*
X40457765Y-183507452D01*
X40518719Y-183556334D01*
X40544789Y-183589195D01*
X40574297Y-183638394D01*
X40599568Y-183692252D01*
X40617218Y-183743419D01*
X40623858Y-183784544D01*
X40622298Y-183804259D01*
X40609357Y-183855592D01*
X40586194Y-183912118D01*
X40556302Y-183966035D01*
X40523173Y-184009539D01*
X40512977Y-184019887D01*
X40445892Y-184071662D01*
X40365766Y-184111554D01*
X40279556Y-184135956D01*
X40224592Y-184144068D01*
X40131139Y-184150673D01*
X40041358Y-184148586D01*
X39958869Y-184138340D01*
X39887286Y-184120470D01*
X39830228Y-184095508D01*
X39791311Y-184063988D01*
X39789936Y-184062012D01*
X39782848Y-184036786D01*
X39778609Y-183989535D01*
X39777200Y-183920071D01*
X39778060Y-183857838D01*
X39782780Y-183810456D01*
X39794470Y-183778353D01*
X39816239Y-183758800D01*
X39851198Y-183749070D01*
X39902456Y-183746433D01*
X39973123Y-183748161D01*
X40021743Y-183751173D01*
X40071939Y-183759366D01*
X40104433Y-183773419D01*
X40121892Y-183794654D01*
X40126983Y-183824394D01*
X40126877Y-183828936D01*
X40118175Y-183863730D01*
X40094165Y-183887147D01*
X40052900Y-183900347D01*
X39992431Y-183904489D01*
X39923956Y-183904489D01*
X39923956Y-183942841D01*
X39924006Y-183951976D01*
X39926227Y-183969227D01*
X39935494Y-183979521D01*
X39956875Y-183986459D01*
X39995436Y-183993641D01*
X40000910Y-183994575D01*
X40097860Y-184004478D01*
X40187852Y-184001559D01*
X40268760Y-183986829D01*
X40338459Y-183961299D01*
X40394824Y-183925978D01*
X40435729Y-183881879D01*
X40459051Y-183830012D01*
X40462663Y-183771388D01*
X40457145Y-183742494D01*
X40430461Y-183686604D01*
X40384273Y-183640945D01*
X40319291Y-183606108D01*
X40236229Y-183582690D01*
X40211555Y-183578241D01*
X40122226Y-183567742D01*
X40042419Y-183568971D01*
X39964326Y-183581906D01*
X39929183Y-183588696D01*
X39883745Y-183589713D01*
X39852430Y-183577182D01*
X39832277Y-183550395D01*
X39825893Y-183522148D01*
X39835379Y-183490924D01*
X39844708Y-183477499D01*
X39878943Y-183453967D01*
X39931565Y-183436095D01*
X40000081Y-183424599D01*
X40082000Y-183420192D01*
X40179150Y-183424179D01*
G37*
X38229803Y-183448811D02*
X38234752Y-183455495D01*
X38240596Y-183466066D01*
X38245057Y-183480153D01*
X38248321Y-183500478D01*
X38250574Y-183529765D01*
X38252002Y-183570737D01*
X38252792Y-183626117D01*
X38253129Y-183698628D01*
X38253200Y-183790994D01*
X38253171Y-183856911D01*
X38252939Y-183935228D01*
X38252319Y-183995496D01*
X38251126Y-184040393D01*
X38249179Y-184072602D01*
X38246294Y-184094800D01*
X38242288Y-184109669D01*
X38236979Y-184119889D01*
X38230183Y-184128138D01*
X38225668Y-184132795D01*
X38217438Y-184139282D01*
X38206078Y-184144194D01*
X38188810Y-184147749D01*
X38162855Y-184150167D01*
X38125436Y-184151667D01*
X38073773Y-184152467D01*
X38005089Y-184152787D01*
X37916606Y-184152845D01*
X37896931Y-184152838D01*
X37809906Y-184152572D01*
X37742254Y-184151806D01*
X37691299Y-184150392D01*
X37654367Y-184148180D01*
X37628783Y-184145022D01*
X37611871Y-184140769D01*
X37600957Y-184135271D01*
X37590464Y-184125285D01*
X37577203Y-184094168D01*
X37578386Y-184058280D01*
X37594550Y-184026733D01*
X37596739Y-184024457D01*
X37605427Y-184018189D01*
X37618769Y-184013523D01*
X37639752Y-184010227D01*
X37671363Y-184008068D01*
X37716590Y-184006814D01*
X37778420Y-184006231D01*
X37859839Y-184006089D01*
X38106445Y-184006089D01*
X38106445Y-183848045D01*
X37944006Y-183848045D01*
X37908338Y-183847964D01*
X37852568Y-183847167D01*
X37813430Y-183845162D01*
X37786976Y-183841521D01*
X37769259Y-183835812D01*
X37756329Y-183827607D01*
X37752686Y-183824423D01*
X37734278Y-183793448D01*
X37733644Y-183757112D01*
X37751183Y-183723493D01*
X37751245Y-183723424D01*
X37760916Y-183714798D01*
X37774209Y-183708742D01*
X37794917Y-183704811D01*
X37826828Y-183702556D01*
X37873734Y-183701531D01*
X37939424Y-183701289D01*
X38107571Y-183701289D01*
X38104186Y-183636378D01*
X38100800Y-183571467D01*
X37858723Y-183568414D01*
X37833707Y-183568086D01*
X37752087Y-183566606D01*
X37689768Y-183564222D01*
X37644154Y-183560227D01*
X37612652Y-183553913D01*
X37592667Y-183544574D01*
X37581604Y-183531503D01*
X37576869Y-183513992D01*
X37575867Y-183491335D01*
X37575873Y-183488970D01*
X37577027Y-183468939D01*
X37581824Y-183453146D01*
X37592632Y-183441090D01*
X37611817Y-183432267D01*
X37641745Y-183426175D01*
X37684783Y-183422311D01*
X37743299Y-183420174D01*
X37819657Y-183419260D01*
X37916226Y-183419067D01*
X38206406Y-183419067D01*
X38229803Y-183448811D01*
G36*
X38229803Y-183448811D02*
G01*
X38234752Y-183455495D01*
X38240596Y-183466066D01*
X38245057Y-183480153D01*
X38248321Y-183500478D01*
X38250574Y-183529765D01*
X38252002Y-183570737D01*
X38252792Y-183626117D01*
X38253129Y-183698628D01*
X38253200Y-183790994D01*
X38253171Y-183856911D01*
X38252939Y-183935228D01*
X38252319Y-183995496D01*
X38251126Y-184040393D01*
X38249179Y-184072602D01*
X38246294Y-184094800D01*
X38242288Y-184109669D01*
X38236979Y-184119889D01*
X38230183Y-184128138D01*
X38225668Y-184132795D01*
X38217438Y-184139282D01*
X38206078Y-184144194D01*
X38188810Y-184147749D01*
X38162855Y-184150167D01*
X38125436Y-184151667D01*
X38073773Y-184152467D01*
X38005089Y-184152787D01*
X37916606Y-184152845D01*
X37896931Y-184152838D01*
X37809906Y-184152572D01*
X37742254Y-184151806D01*
X37691299Y-184150392D01*
X37654367Y-184148180D01*
X37628783Y-184145022D01*
X37611871Y-184140769D01*
X37600957Y-184135271D01*
X37590464Y-184125285D01*
X37577203Y-184094168D01*
X37578386Y-184058280D01*
X37594550Y-184026733D01*
X37596739Y-184024457D01*
X37605427Y-184018189D01*
X37618769Y-184013523D01*
X37639752Y-184010227D01*
X37671363Y-184008068D01*
X37716590Y-184006814D01*
X37778420Y-184006231D01*
X37859839Y-184006089D01*
X38106445Y-184006089D01*
X38106445Y-183848045D01*
X37944006Y-183848045D01*
X37908338Y-183847964D01*
X37852568Y-183847167D01*
X37813430Y-183845162D01*
X37786976Y-183841521D01*
X37769259Y-183835812D01*
X37756329Y-183827607D01*
X37752686Y-183824423D01*
X37734278Y-183793448D01*
X37733644Y-183757112D01*
X37751183Y-183723493D01*
X37751245Y-183723424D01*
X37760916Y-183714798D01*
X37774209Y-183708742D01*
X37794917Y-183704811D01*
X37826828Y-183702556D01*
X37873734Y-183701531D01*
X37939424Y-183701289D01*
X38107571Y-183701289D01*
X38104186Y-183636378D01*
X38100800Y-183571467D01*
X37858723Y-183568414D01*
X37833707Y-183568086D01*
X37752087Y-183566606D01*
X37689768Y-183564222D01*
X37644154Y-183560227D01*
X37612652Y-183553913D01*
X37592667Y-183544574D01*
X37581604Y-183531503D01*
X37576869Y-183513992D01*
X37575867Y-183491335D01*
X37575873Y-183488970D01*
X37577027Y-183468939D01*
X37581824Y-183453146D01*
X37592632Y-183441090D01*
X37611817Y-183432267D01*
X37641745Y-183426175D01*
X37684783Y-183422311D01*
X37743299Y-183420174D01*
X37819657Y-183419260D01*
X37916226Y-183419067D01*
X38206406Y-183419067D01*
X38229803Y-183448811D01*
G37*
X42906734Y-183419083D02*
X42983831Y-183419275D01*
X43042777Y-183419860D01*
X43086364Y-183421051D01*
X43117383Y-183423064D01*
X43138625Y-183426112D01*
X43152882Y-183430409D01*
X43162945Y-183436172D01*
X43171606Y-183443612D01*
X43173391Y-183445293D01*
X43180635Y-183452832D01*
X43186277Y-183461850D01*
X43190517Y-183474984D01*
X43193556Y-183494872D01*
X43195594Y-183524151D01*
X43196830Y-183565458D01*
X43197465Y-183621431D01*
X43197700Y-183694707D01*
X43197734Y-183787923D01*
X43197697Y-183860713D01*
X43197448Y-183938889D01*
X43196812Y-183999103D01*
X43195615Y-184043982D01*
X43193684Y-184076152D01*
X43190846Y-184098239D01*
X43186927Y-184112870D01*
X43181755Y-184122670D01*
X43175156Y-184130267D01*
X43171822Y-184133444D01*
X43163300Y-184139554D01*
X43151298Y-184144229D01*
X43133087Y-184147659D01*
X43105940Y-184150036D01*
X43067129Y-184151552D01*
X43013924Y-184152398D01*
X42943598Y-184152765D01*
X42853422Y-184152845D01*
X42811314Y-184152833D01*
X42730167Y-184152651D01*
X42667675Y-184152098D01*
X42621109Y-184150982D01*
X42587741Y-184149113D01*
X42564844Y-184146298D01*
X42549688Y-184142346D01*
X42539546Y-184137066D01*
X42531689Y-184130267D01*
X42516963Y-184108667D01*
X42509111Y-184079467D01*
X42514610Y-184055560D01*
X42531689Y-184028667D01*
X42536668Y-184024059D01*
X42546443Y-184017772D01*
X42560559Y-184013146D01*
X42582054Y-184009930D01*
X42613968Y-184007870D01*
X42659342Y-184006712D01*
X42721213Y-184006202D01*
X42802622Y-184006089D01*
X43050978Y-184006089D01*
X43050978Y-183848045D01*
X42889801Y-183848045D01*
X42853983Y-183847899D01*
X42788359Y-183846176D01*
X42741118Y-183841741D01*
X42709383Y-183833637D01*
X42690277Y-183820906D01*
X42680923Y-183802592D01*
X42678445Y-183777738D01*
X42679242Y-183757482D01*
X42684494Y-183735656D01*
X42697288Y-183720304D01*
X42720628Y-183710309D01*
X42757517Y-183704553D01*
X42810959Y-183701919D01*
X42883958Y-183701289D01*
X43052105Y-183701289D01*
X43048719Y-183636378D01*
X43045334Y-183571467D01*
X42797617Y-183568418D01*
X42735026Y-183567539D01*
X42666565Y-183566095D01*
X42615661Y-183564164D01*
X42579408Y-183561514D01*
X42554901Y-183557910D01*
X42539235Y-183553121D01*
X42529506Y-183546913D01*
X42523491Y-183540510D01*
X42510482Y-183508828D01*
X42514043Y-183473142D01*
X42533818Y-183442084D01*
X42537069Y-183439161D01*
X42546049Y-183432810D01*
X42558153Y-183427957D01*
X42576159Y-183424403D01*
X42602847Y-183421946D01*
X42640997Y-183420385D01*
X42693386Y-183419518D01*
X42762794Y-183419146D01*
X42852001Y-183419067D01*
X42906734Y-183419083D01*
G36*
X42906734Y-183419083D02*
G01*
X42983831Y-183419275D01*
X43042777Y-183419860D01*
X43086364Y-183421051D01*
X43117383Y-183423064D01*
X43138625Y-183426112D01*
X43152882Y-183430409D01*
X43162945Y-183436172D01*
X43171606Y-183443612D01*
X43173391Y-183445293D01*
X43180635Y-183452832D01*
X43186277Y-183461850D01*
X43190517Y-183474984D01*
X43193556Y-183494872D01*
X43195594Y-183524151D01*
X43196830Y-183565458D01*
X43197465Y-183621431D01*
X43197700Y-183694707D01*
X43197734Y-183787923D01*
X43197697Y-183860713D01*
X43197448Y-183938889D01*
X43196812Y-183999103D01*
X43195615Y-184043982D01*
X43193684Y-184076152D01*
X43190846Y-184098239D01*
X43186927Y-184112870D01*
X43181755Y-184122670D01*
X43175156Y-184130267D01*
X43171822Y-184133444D01*
X43163300Y-184139554D01*
X43151298Y-184144229D01*
X43133087Y-184147659D01*
X43105940Y-184150036D01*
X43067129Y-184151552D01*
X43013924Y-184152398D01*
X42943598Y-184152765D01*
X42853422Y-184152845D01*
X42811314Y-184152833D01*
X42730167Y-184152651D01*
X42667675Y-184152098D01*
X42621109Y-184150982D01*
X42587741Y-184149113D01*
X42564844Y-184146298D01*
X42549688Y-184142346D01*
X42539546Y-184137066D01*
X42531689Y-184130267D01*
X42516963Y-184108667D01*
X42509111Y-184079467D01*
X42514610Y-184055560D01*
X42531689Y-184028667D01*
X42536668Y-184024059D01*
X42546443Y-184017772D01*
X42560559Y-184013146D01*
X42582054Y-184009930D01*
X42613968Y-184007870D01*
X42659342Y-184006712D01*
X42721213Y-184006202D01*
X42802622Y-184006089D01*
X43050978Y-184006089D01*
X43050978Y-183848045D01*
X42889801Y-183848045D01*
X42853983Y-183847899D01*
X42788359Y-183846176D01*
X42741118Y-183841741D01*
X42709383Y-183833637D01*
X42690277Y-183820906D01*
X42680923Y-183802592D01*
X42678445Y-183777738D01*
X42679242Y-183757482D01*
X42684494Y-183735656D01*
X42697288Y-183720304D01*
X42720628Y-183710309D01*
X42757517Y-183704553D01*
X42810959Y-183701919D01*
X42883958Y-183701289D01*
X43052105Y-183701289D01*
X43048719Y-183636378D01*
X43045334Y-183571467D01*
X42797617Y-183568418D01*
X42735026Y-183567539D01*
X42666565Y-183566095D01*
X42615661Y-183564164D01*
X42579408Y-183561514D01*
X42554901Y-183557910D01*
X42539235Y-183553121D01*
X42529506Y-183546913D01*
X42523491Y-183540510D01*
X42510482Y-183508828D01*
X42514043Y-183473142D01*
X42533818Y-183442084D01*
X42537069Y-183439161D01*
X42546049Y-183432810D01*
X42558153Y-183427957D01*
X42576159Y-183424403D01*
X42602847Y-183421946D01*
X42640997Y-183420385D01*
X42693386Y-183419518D01*
X42762794Y-183419146D01*
X42852001Y-183419067D01*
X42906734Y-183419083D01*
G37*
X34339702Y-183428478D02*
X34357663Y-183446989D01*
X34378263Y-183478071D01*
X34403095Y-183523756D01*
X34433750Y-183586078D01*
X34471820Y-183667071D01*
X34486454Y-183698454D01*
X34516203Y-183761638D01*
X34542297Y-183816244D01*
X34563292Y-183859290D01*
X34577739Y-183887793D01*
X34584191Y-183898770D01*
X34585550Y-183898189D01*
X34595542Y-183884242D01*
X34612833Y-183854704D01*
X34635430Y-183813087D01*
X34661338Y-183762903D01*
X34677311Y-183731414D01*
X34706261Y-183676061D01*
X34728749Y-183637044D01*
X34746965Y-183611566D01*
X34763096Y-183596831D01*
X34779330Y-183590042D01*
X34797857Y-183588400D01*
X34808360Y-183588875D01*
X34824476Y-183593082D01*
X34839790Y-183603946D01*
X34856388Y-183624219D01*
X34876357Y-183656654D01*
X34901783Y-183704004D01*
X34934752Y-183769022D01*
X34944485Y-183788277D01*
X34968943Y-183834946D01*
X34989178Y-183871109D01*
X35003311Y-183893497D01*
X35009460Y-183898845D01*
X35010827Y-183895573D01*
X35020202Y-183874664D01*
X35037062Y-183837725D01*
X35059979Y-183787874D01*
X35087520Y-183728226D01*
X35118255Y-183661898D01*
X35144970Y-183604677D01*
X35174593Y-183542688D01*
X35197664Y-183496949D01*
X35215643Y-183464908D01*
X35229990Y-183444014D01*
X35242166Y-183431718D01*
X35253632Y-183425466D01*
X35263042Y-183422574D01*
X35288147Y-183422425D01*
X35315290Y-183437768D01*
X35316590Y-183438753D01*
X35338674Y-183461388D01*
X35349723Y-183483613D01*
X35349769Y-183484253D01*
X35345228Y-183501915D01*
X35332364Y-183536481D01*
X35312605Y-183584826D01*
X35287381Y-183643825D01*
X35258119Y-183710355D01*
X35226250Y-183781291D01*
X35193201Y-183853507D01*
X35160401Y-183923880D01*
X35129280Y-183989285D01*
X35101265Y-184046597D01*
X35077786Y-184092692D01*
X35060272Y-184124446D01*
X35050151Y-184138733D01*
X35015743Y-184152102D01*
X34974046Y-184145741D01*
X34968681Y-184141044D01*
X34952852Y-184118893D01*
X34930650Y-184082132D01*
X34904233Y-184034415D01*
X34875760Y-183979393D01*
X34795986Y-183820150D01*
X34722799Y-183966742D01*
X34713103Y-183986032D01*
X34686125Y-184038380D01*
X34662096Y-184083170D01*
X34643332Y-184116154D01*
X34632146Y-184133089D01*
X34631000Y-184134332D01*
X34602879Y-184149619D01*
X34567817Y-184151302D01*
X34536776Y-184138733D01*
X34534350Y-184135884D01*
X34522090Y-184115259D01*
X34502352Y-184077708D01*
X34476448Y-184025880D01*
X34445685Y-183962423D01*
X34411375Y-183889985D01*
X34374825Y-183811216D01*
X34354585Y-183767093D01*
X34317812Y-183686365D01*
X34289355Y-183622687D01*
X34268331Y-183573752D01*
X34253854Y-183537257D01*
X34245039Y-183510895D01*
X34241004Y-183492361D01*
X34240862Y-183479352D01*
X34243730Y-183469561D01*
X34258387Y-183448678D01*
X34284990Y-183428377D01*
X34285745Y-183428035D01*
X34305335Y-183421034D01*
X34322790Y-183420504D01*
X34339702Y-183428478D01*
G36*
X34339702Y-183428478D02*
G01*
X34357663Y-183446989D01*
X34378263Y-183478071D01*
X34403095Y-183523756D01*
X34433750Y-183586078D01*
X34471820Y-183667071D01*
X34486454Y-183698454D01*
X34516203Y-183761638D01*
X34542297Y-183816244D01*
X34563292Y-183859290D01*
X34577739Y-183887793D01*
X34584191Y-183898770D01*
X34585550Y-183898189D01*
X34595542Y-183884242D01*
X34612833Y-183854704D01*
X34635430Y-183813087D01*
X34661338Y-183762903D01*
X34677311Y-183731414D01*
X34706261Y-183676061D01*
X34728749Y-183637044D01*
X34746965Y-183611566D01*
X34763096Y-183596831D01*
X34779330Y-183590042D01*
X34797857Y-183588400D01*
X34808360Y-183588875D01*
X34824476Y-183593082D01*
X34839790Y-183603946D01*
X34856388Y-183624219D01*
X34876357Y-183656654D01*
X34901783Y-183704004D01*
X34934752Y-183769022D01*
X34944485Y-183788277D01*
X34968943Y-183834946D01*
X34989178Y-183871109D01*
X35003311Y-183893497D01*
X35009460Y-183898845D01*
X35010827Y-183895573D01*
X35020202Y-183874664D01*
X35037062Y-183837725D01*
X35059979Y-183787874D01*
X35087520Y-183728226D01*
X35118255Y-183661898D01*
X35144970Y-183604677D01*
X35174593Y-183542688D01*
X35197664Y-183496949D01*
X35215643Y-183464908D01*
X35229990Y-183444014D01*
X35242166Y-183431718D01*
X35253632Y-183425466D01*
X35263042Y-183422574D01*
X35288147Y-183422425D01*
X35315290Y-183437768D01*
X35316590Y-183438753D01*
X35338674Y-183461388D01*
X35349723Y-183483613D01*
X35349769Y-183484253D01*
X35345228Y-183501915D01*
X35332364Y-183536481D01*
X35312605Y-183584826D01*
X35287381Y-183643825D01*
X35258119Y-183710355D01*
X35226250Y-183781291D01*
X35193201Y-183853507D01*
X35160401Y-183923880D01*
X35129280Y-183989285D01*
X35101265Y-184046597D01*
X35077786Y-184092692D01*
X35060272Y-184124446D01*
X35050151Y-184138733D01*
X35015743Y-184152102D01*
X34974046Y-184145741D01*
X34968681Y-184141044D01*
X34952852Y-184118893D01*
X34930650Y-184082132D01*
X34904233Y-184034415D01*
X34875760Y-183979393D01*
X34795986Y-183820150D01*
X34722799Y-183966742D01*
X34713103Y-183986032D01*
X34686125Y-184038380D01*
X34662096Y-184083170D01*
X34643332Y-184116154D01*
X34632146Y-184133089D01*
X34631000Y-184134332D01*
X34602879Y-184149619D01*
X34567817Y-184151302D01*
X34536776Y-184138733D01*
X34534350Y-184135884D01*
X34522090Y-184115259D01*
X34502352Y-184077708D01*
X34476448Y-184025880D01*
X34445685Y-183962423D01*
X34411375Y-183889985D01*
X34374825Y-183811216D01*
X34354585Y-183767093D01*
X34317812Y-183686365D01*
X34289355Y-183622687D01*
X34268331Y-183573752D01*
X34253854Y-183537257D01*
X34245039Y-183510895D01*
X34241004Y-183492361D01*
X34240862Y-183479352D01*
X34243730Y-183469561D01*
X34258387Y-183448678D01*
X34284990Y-183428377D01*
X34285745Y-183428035D01*
X34305335Y-183421034D01*
X34322790Y-183420504D01*
X34339702Y-183428478D01*
G37*
X41890853Y-183419936D02*
X41957100Y-183425366D01*
X42012400Y-183434964D01*
X42063283Y-183449825D01*
X42134595Y-183482958D01*
X42185752Y-183525640D01*
X42216575Y-183577705D01*
X42226889Y-183638983D01*
X42225952Y-183670232D01*
X42220160Y-183695029D01*
X42205353Y-183716699D01*
X42177380Y-183744049D01*
X42169402Y-183751378D01*
X42145692Y-183772281D01*
X42123298Y-183789251D01*
X42099265Y-183803205D01*
X42070637Y-183815056D01*
X42034460Y-183825720D01*
X41987780Y-183836111D01*
X41927641Y-183847146D01*
X41851090Y-183859738D01*
X41755171Y-183874804D01*
X41736808Y-183877838D01*
X41674478Y-183891458D01*
X41629260Y-183907192D01*
X41602976Y-183924263D01*
X41597447Y-183941897D01*
X41600068Y-183946168D01*
X41618000Y-183961233D01*
X41646126Y-183977867D01*
X41658926Y-183983857D01*
X41680224Y-183991050D01*
X41706610Y-183995827D01*
X41742454Y-183998646D01*
X41792128Y-183999964D01*
X41860000Y-184000237D01*
X41877785Y-184000164D01*
X41945406Y-183999053D01*
X42010345Y-183996828D01*
X42065970Y-183993762D01*
X42105651Y-183990127D01*
X42141162Y-183986059D01*
X42170415Y-183985276D01*
X42189315Y-183989876D01*
X42204429Y-184000551D01*
X42208085Y-184004144D01*
X42224427Y-184035918D01*
X42223107Y-184071572D01*
X42204150Y-184102190D01*
X42183780Y-184113796D01*
X42147796Y-184126491D01*
X42105372Y-184136541D01*
X42101922Y-184137140D01*
X42059252Y-184142356D01*
X42001866Y-184146730D01*
X41936849Y-184149818D01*
X41871289Y-184151177D01*
X41855057Y-184151218D01*
X41756744Y-184148741D01*
X41676692Y-184140735D01*
X41611513Y-184126203D01*
X41557817Y-184104149D01*
X41512216Y-184073576D01*
X41471323Y-184033486D01*
X41451202Y-184007259D01*
X41439576Y-183977712D01*
X41436667Y-183937995D01*
X41436808Y-183926026D01*
X41440681Y-183893345D01*
X41453065Y-183866819D01*
X41478230Y-183835971D01*
X41499442Y-183813831D01*
X41525838Y-183791285D01*
X41555555Y-183772917D01*
X41591785Y-183757661D01*
X41637717Y-183744449D01*
X41696544Y-183732214D01*
X41771456Y-183719889D01*
X41865645Y-183706406D01*
X41910957Y-183699396D01*
X41978911Y-183684837D01*
X42028047Y-183668337D01*
X42057614Y-183650439D01*
X42066864Y-183631685D01*
X42055048Y-183612615D01*
X42021416Y-183593771D01*
X42018370Y-183592557D01*
X41972011Y-183580479D01*
X41909361Y-183572279D01*
X41835927Y-183568119D01*
X41757217Y-183568161D01*
X41678739Y-183572569D01*
X41606000Y-183581505D01*
X41602073Y-183582154D01*
X41553257Y-183589861D01*
X41521005Y-183593473D01*
X41500008Y-183592876D01*
X41484954Y-183587954D01*
X41470534Y-183578596D01*
X41469364Y-183577725D01*
X41444847Y-183547351D01*
X41440054Y-183511850D01*
X41455860Y-183477269D01*
X41460406Y-183472813D01*
X41490020Y-183457673D01*
X41537002Y-183444550D01*
X41597306Y-183433750D01*
X41666888Y-183425581D01*
X41741703Y-183420351D01*
X41817706Y-183418367D01*
X41890853Y-183419936D01*
G36*
X41890853Y-183419936D02*
G01*
X41957100Y-183425366D01*
X42012400Y-183434964D01*
X42063283Y-183449825D01*
X42134595Y-183482958D01*
X42185752Y-183525640D01*
X42216575Y-183577705D01*
X42226889Y-183638983D01*
X42225952Y-183670232D01*
X42220160Y-183695029D01*
X42205353Y-183716699D01*
X42177380Y-183744049D01*
X42169402Y-183751378D01*
X42145692Y-183772281D01*
X42123298Y-183789251D01*
X42099265Y-183803205D01*
X42070637Y-183815056D01*
X42034460Y-183825720D01*
X41987780Y-183836111D01*
X41927641Y-183847146D01*
X41851090Y-183859738D01*
X41755171Y-183874804D01*
X41736808Y-183877838D01*
X41674478Y-183891458D01*
X41629260Y-183907192D01*
X41602976Y-183924263D01*
X41597447Y-183941897D01*
X41600068Y-183946168D01*
X41618000Y-183961233D01*
X41646126Y-183977867D01*
X41658926Y-183983857D01*
X41680224Y-183991050D01*
X41706610Y-183995827D01*
X41742454Y-183998646D01*
X41792128Y-183999964D01*
X41860000Y-184000237D01*
X41877785Y-184000164D01*
X41945406Y-183999053D01*
X42010345Y-183996828D01*
X42065970Y-183993762D01*
X42105651Y-183990127D01*
X42141162Y-183986059D01*
X42170415Y-183985276D01*
X42189315Y-183989876D01*
X42204429Y-184000551D01*
X42208085Y-184004144D01*
X42224427Y-184035918D01*
X42223107Y-184071572D01*
X42204150Y-184102190D01*
X42183780Y-184113796D01*
X42147796Y-184126491D01*
X42105372Y-184136541D01*
X42101922Y-184137140D01*
X42059252Y-184142356D01*
X42001866Y-184146730D01*
X41936849Y-184149818D01*
X41871289Y-184151177D01*
X41855057Y-184151218D01*
X41756744Y-184148741D01*
X41676692Y-184140735D01*
X41611513Y-184126203D01*
X41557817Y-184104149D01*
X41512216Y-184073576D01*
X41471323Y-184033486D01*
X41451202Y-184007259D01*
X41439576Y-183977712D01*
X41436667Y-183937995D01*
X41436808Y-183926026D01*
X41440681Y-183893345D01*
X41453065Y-183866819D01*
X41478230Y-183835971D01*
X41499442Y-183813831D01*
X41525838Y-183791285D01*
X41555555Y-183772917D01*
X41591785Y-183757661D01*
X41637717Y-183744449D01*
X41696544Y-183732214D01*
X41771456Y-183719889D01*
X41865645Y-183706406D01*
X41910957Y-183699396D01*
X41978911Y-183684837D01*
X42028047Y-183668337D01*
X42057614Y-183650439D01*
X42066864Y-183631685D01*
X42055048Y-183612615D01*
X42021416Y-183593771D01*
X42018370Y-183592557D01*
X41972011Y-183580479D01*
X41909361Y-183572279D01*
X41835927Y-183568119D01*
X41757217Y-183568161D01*
X41678739Y-183572569D01*
X41606000Y-183581505D01*
X41602073Y-183582154D01*
X41553257Y-183589861D01*
X41521005Y-183593473D01*
X41500008Y-183592876D01*
X41484954Y-183587954D01*
X41470534Y-183578596D01*
X41469364Y-183577725D01*
X41444847Y-183547351D01*
X41440054Y-183511850D01*
X41455860Y-183477269D01*
X41460406Y-183472813D01*
X41490020Y-183457673D01*
X41537002Y-183444550D01*
X41597306Y-183433750D01*
X41666888Y-183425581D01*
X41741703Y-183420351D01*
X41817706Y-183418367D01*
X41890853Y-183419936D01*
G37*
X38038711Y-179112033D02*
X38134268Y-179129523D01*
X38298558Y-179174564D01*
X38452589Y-179237656D01*
X38598509Y-179319915D01*
X38738466Y-179422457D01*
X38874608Y-179546399D01*
X38918473Y-179591661D01*
X39030758Y-179723865D01*
X39123972Y-179861832D01*
X39200719Y-180009750D01*
X39263603Y-180171803D01*
X39267420Y-180183391D01*
X39317507Y-180369392D01*
X39350899Y-180565521D01*
X39367584Y-180767568D01*
X39367551Y-180971325D01*
X39350791Y-181172581D01*
X39317292Y-181367128D01*
X39267044Y-181550756D01*
X39223190Y-181668053D01*
X39145348Y-181830951D01*
X39051828Y-181984866D01*
X38944822Y-182126671D01*
X38826519Y-182253239D01*
X38699111Y-182361441D01*
X38621606Y-182414120D01*
X38494725Y-182483750D01*
X38357243Y-182542468D01*
X38215716Y-182587587D01*
X38076702Y-182616422D01*
X38062597Y-182618106D01*
X38019153Y-182621434D01*
X37961723Y-182624275D01*
X37896122Y-182626373D01*
X37828167Y-182627468D01*
X37701378Y-182625140D01*
X37553673Y-182612136D01*
X37415779Y-182587133D01*
X37282014Y-182549318D01*
X37258562Y-182540889D01*
X37210612Y-182521408D01*
X37154140Y-182496473D01*
X37092379Y-182467722D01*
X37028563Y-182436790D01*
X36965926Y-182405315D01*
X36907703Y-182374934D01*
X36857127Y-182347283D01*
X36817433Y-182323999D01*
X36791854Y-182306718D01*
X36783625Y-182297079D01*
X36785076Y-182293984D01*
X36796250Y-182274079D01*
X36817134Y-182238420D01*
X36846265Y-182189459D01*
X36882181Y-182129646D01*
X36923420Y-182061433D01*
X36968517Y-181987271D01*
X37149785Y-181690008D01*
X37196315Y-181734539D01*
X37287723Y-181812865D01*
X37401334Y-181887439D01*
X37519122Y-181941474D01*
X37639559Y-181974290D01*
X37761117Y-181985211D01*
X37802585Y-181983868D01*
X37920080Y-181965612D01*
X38030089Y-181926617D01*
X38131430Y-181867670D01*
X38222921Y-181789557D01*
X38303380Y-181693064D01*
X38371627Y-181578978D01*
X38387908Y-181544724D01*
X38433982Y-181421240D01*
X38469106Y-181282918D01*
X38493197Y-181133561D01*
X38506173Y-180976973D01*
X38507949Y-180816956D01*
X38498443Y-180657314D01*
X38477572Y-180501850D01*
X38445252Y-180354366D01*
X38401399Y-180218667D01*
X38363982Y-180132076D01*
X38299185Y-180018688D01*
X38223772Y-179925070D01*
X38137418Y-179850959D01*
X38039795Y-179796094D01*
X37930577Y-179760212D01*
X37809439Y-179743051D01*
X37740038Y-179741880D01*
X37617168Y-179756141D01*
X37501664Y-179791241D01*
X37394953Y-179846682D01*
X37298464Y-179921964D01*
X37282720Y-179936440D01*
X37252150Y-179962962D01*
X37229809Y-179980138D01*
X37219691Y-179984787D01*
X37217706Y-179982597D01*
X37203241Y-179963721D01*
X37179400Y-179930397D01*
X37148029Y-179885380D01*
X37110974Y-179831425D01*
X37070083Y-179771285D01*
X37027202Y-179707718D01*
X36984178Y-179643476D01*
X36942857Y-179581315D01*
X36905086Y-179523991D01*
X36872712Y-179474257D01*
X36847582Y-179434868D01*
X36831542Y-179408580D01*
X36826439Y-179398147D01*
X36831050Y-179393941D01*
X36850267Y-179388933D01*
X36859838Y-179386386D01*
X36887809Y-179375249D01*
X36929448Y-179356802D01*
X36980995Y-179332725D01*
X37038690Y-179304699D01*
X37049957Y-179299154D01*
X37227687Y-179219889D01*
X37397490Y-179160385D01*
X37561430Y-179120245D01*
X37721571Y-179099071D01*
X37879977Y-179096466D01*
X38038711Y-179112033D01*
G36*
X38038711Y-179112033D02*
G01*
X38134268Y-179129523D01*
X38298558Y-179174564D01*
X38452589Y-179237656D01*
X38598509Y-179319915D01*
X38738466Y-179422457D01*
X38874608Y-179546399D01*
X38918473Y-179591661D01*
X39030758Y-179723865D01*
X39123972Y-179861832D01*
X39200719Y-180009750D01*
X39263603Y-180171803D01*
X39267420Y-180183391D01*
X39317507Y-180369392D01*
X39350899Y-180565521D01*
X39367584Y-180767568D01*
X39367551Y-180971325D01*
X39350791Y-181172581D01*
X39317292Y-181367128D01*
X39267044Y-181550756D01*
X39223190Y-181668053D01*
X39145348Y-181830951D01*
X39051828Y-181984866D01*
X38944822Y-182126671D01*
X38826519Y-182253239D01*
X38699111Y-182361441D01*
X38621606Y-182414120D01*
X38494725Y-182483750D01*
X38357243Y-182542468D01*
X38215716Y-182587587D01*
X38076702Y-182616422D01*
X38062597Y-182618106D01*
X38019153Y-182621434D01*
X37961723Y-182624275D01*
X37896122Y-182626373D01*
X37828167Y-182627468D01*
X37701378Y-182625140D01*
X37553673Y-182612136D01*
X37415779Y-182587133D01*
X37282014Y-182549318D01*
X37258562Y-182540889D01*
X37210612Y-182521408D01*
X37154140Y-182496473D01*
X37092379Y-182467722D01*
X37028563Y-182436790D01*
X36965926Y-182405315D01*
X36907703Y-182374934D01*
X36857127Y-182347283D01*
X36817433Y-182323999D01*
X36791854Y-182306718D01*
X36783625Y-182297079D01*
X36785076Y-182293984D01*
X36796250Y-182274079D01*
X36817134Y-182238420D01*
X36846265Y-182189459D01*
X36882181Y-182129646D01*
X36923420Y-182061433D01*
X36968517Y-181987271D01*
X37149785Y-181690008D01*
X37196315Y-181734539D01*
X37287723Y-181812865D01*
X37401334Y-181887439D01*
X37519122Y-181941474D01*
X37639559Y-181974290D01*
X37761117Y-181985211D01*
X37802585Y-181983868D01*
X37920080Y-181965612D01*
X38030089Y-181926617D01*
X38131430Y-181867670D01*
X38222921Y-181789557D01*
X38303380Y-181693064D01*
X38371627Y-181578978D01*
X38387908Y-181544724D01*
X38433982Y-181421240D01*
X38469106Y-181282918D01*
X38493197Y-181133561D01*
X38506173Y-180976973D01*
X38507949Y-180816956D01*
X38498443Y-180657314D01*
X38477572Y-180501850D01*
X38445252Y-180354366D01*
X38401399Y-180218667D01*
X38363982Y-180132076D01*
X38299185Y-180018688D01*
X38223772Y-179925070D01*
X38137418Y-179850959D01*
X38039795Y-179796094D01*
X37930577Y-179760212D01*
X37809439Y-179743051D01*
X37740038Y-179741880D01*
X37617168Y-179756141D01*
X37501664Y-179791241D01*
X37394953Y-179846682D01*
X37298464Y-179921964D01*
X37282720Y-179936440D01*
X37252150Y-179962962D01*
X37229809Y-179980138D01*
X37219691Y-179984787D01*
X37217706Y-179982597D01*
X37203241Y-179963721D01*
X37179400Y-179930397D01*
X37148029Y-179885380D01*
X37110974Y-179831425D01*
X37070083Y-179771285D01*
X37027202Y-179707718D01*
X36984178Y-179643476D01*
X36942857Y-179581315D01*
X36905086Y-179523991D01*
X36872712Y-179474257D01*
X36847582Y-179434868D01*
X36831542Y-179408580D01*
X36826439Y-179398147D01*
X36831050Y-179393941D01*
X36850267Y-179388933D01*
X36859838Y-179386386D01*
X36887809Y-179375249D01*
X36929448Y-179356802D01*
X36980995Y-179332725D01*
X37038690Y-179304699D01*
X37049957Y-179299154D01*
X37227687Y-179219889D01*
X37397490Y-179160385D01*
X37561430Y-179120245D01*
X37721571Y-179099071D01*
X37879977Y-179096466D01*
X38038711Y-179112033D01*
G37*
X34235994Y-181392711D02*
X34235268Y-181470158D01*
X34226689Y-181621594D01*
X34207833Y-181758283D01*
X34177837Y-181884276D01*
X34135836Y-182003625D01*
X34080969Y-182120381D01*
X34014167Y-182231179D01*
X33923363Y-182344739D01*
X33819708Y-182440211D01*
X33703887Y-182517073D01*
X33576586Y-182574797D01*
X33438489Y-182612858D01*
X33400793Y-182618666D01*
X33321752Y-182624396D01*
X33233629Y-182624583D01*
X33144236Y-182619539D01*
X33061384Y-182609578D01*
X32992887Y-182595012D01*
X32962035Y-182585364D01*
X32884730Y-182555123D01*
X32807679Y-182517617D01*
X32738200Y-182476614D01*
X32683615Y-182435879D01*
X32660916Y-182416505D01*
X32638201Y-182398662D01*
X32626779Y-182391778D01*
X32625537Y-182393424D01*
X32622728Y-182411205D01*
X32620776Y-182444370D01*
X32620045Y-182487733D01*
X32620045Y-182583689D01*
X31761896Y-182583689D01*
X31796161Y-182522974D01*
X31801355Y-182513868D01*
X31809715Y-182499249D01*
X31817288Y-182485173D01*
X31824112Y-182470540D01*
X31830227Y-182454249D01*
X31835673Y-182435198D01*
X31840487Y-182412286D01*
X31844708Y-182384413D01*
X31848377Y-182350478D01*
X31851531Y-182309379D01*
X31854211Y-182260015D01*
X31856454Y-182201286D01*
X31858299Y-182132090D01*
X31859787Y-182051326D01*
X31860955Y-181957894D01*
X31861844Y-181850692D01*
X31862491Y-181728620D01*
X31862936Y-181590576D01*
X31863218Y-181435459D01*
X31863375Y-181262168D01*
X31863448Y-181069603D01*
X31863474Y-180856662D01*
X31863485Y-180720530D01*
X32665200Y-180720530D01*
X32665200Y-181870721D01*
X32735756Y-181917089D01*
X32776417Y-181940791D01*
X32830546Y-181966639D01*
X32879689Y-181984829D01*
X32943165Y-182000551D01*
X33039331Y-182011541D01*
X33123900Y-182003365D01*
X33197219Y-181975805D01*
X33259637Y-181928642D01*
X33311502Y-181861658D01*
X33353160Y-181774633D01*
X33384962Y-181667350D01*
X33387545Y-181655009D01*
X33396000Y-181593772D01*
X33401663Y-181516692D01*
X33404576Y-181429002D01*
X33404783Y-181335934D01*
X33402330Y-181242720D01*
X33397261Y-181154594D01*
X33389619Y-181076788D01*
X33379448Y-181014533D01*
X33378167Y-181008666D01*
X33349126Y-180898121D01*
X33314610Y-180807575D01*
X33273456Y-180734953D01*
X33224499Y-180678181D01*
X33166574Y-180635184D01*
X33134620Y-180619615D01*
X33061784Y-180600722D01*
X32980443Y-180597465D01*
X32895319Y-180609389D01*
X32811133Y-180636040D01*
X32732608Y-180676962D01*
X32665200Y-180720530D01*
X31863485Y-180720530D01*
X31863493Y-180622245D01*
X31863689Y-178937378D01*
X32769017Y-178937378D01*
X32744585Y-178974067D01*
X32738318Y-178983647D01*
X32712208Y-179029981D01*
X32694469Y-179077102D01*
X32682908Y-179132251D01*
X32675331Y-179202667D01*
X32674839Y-179209650D01*
X32673062Y-179247641D01*
X32671444Y-179301576D01*
X32669999Y-179368703D01*
X32668740Y-179446271D01*
X32667680Y-179531528D01*
X32666829Y-179621724D01*
X32666203Y-179714107D01*
X32665812Y-179805925D01*
X32665670Y-179894427D01*
X32665790Y-179976862D01*
X32666183Y-180050479D01*
X32666862Y-180112526D01*
X32667841Y-180160251D01*
X32669132Y-180190904D01*
X32670747Y-180201733D01*
X32678957Y-180197333D01*
X32700647Y-180182362D01*
X32730014Y-180160448D01*
X32778879Y-180126236D01*
X32867125Y-180079714D01*
X32965916Y-180046046D01*
X33078510Y-180024231D01*
X33208164Y-180013265D01*
X33300670Y-180012219D01*
X33422011Y-180022014D01*
X33532099Y-180046174D01*
X33635389Y-180085785D01*
X33736338Y-180141932D01*
X33781503Y-180172883D01*
X33886911Y-180264115D01*
X33978538Y-180373106D01*
X34056332Y-180499726D01*
X34120241Y-180643845D01*
X34170214Y-180805332D01*
X34206198Y-180984059D01*
X34228143Y-181179895D01*
X34233900Y-181335934D01*
X34235994Y-181392711D01*
G36*
X34235994Y-181392711D02*
G01*
X34235268Y-181470158D01*
X34226689Y-181621594D01*
X34207833Y-181758283D01*
X34177837Y-181884276D01*
X34135836Y-182003625D01*
X34080969Y-182120381D01*
X34014167Y-182231179D01*
X33923363Y-182344739D01*
X33819708Y-182440211D01*
X33703887Y-182517073D01*
X33576586Y-182574797D01*
X33438489Y-182612858D01*
X33400793Y-182618666D01*
X33321752Y-182624396D01*
X33233629Y-182624583D01*
X33144236Y-182619539D01*
X33061384Y-182609578D01*
X32992887Y-182595012D01*
X32962035Y-182585364D01*
X32884730Y-182555123D01*
X32807679Y-182517617D01*
X32738200Y-182476614D01*
X32683615Y-182435879D01*
X32660916Y-182416505D01*
X32638201Y-182398662D01*
X32626779Y-182391778D01*
X32625537Y-182393424D01*
X32622728Y-182411205D01*
X32620776Y-182444370D01*
X32620045Y-182487733D01*
X32620045Y-182583689D01*
X31761896Y-182583689D01*
X31796161Y-182522974D01*
X31801355Y-182513868D01*
X31809715Y-182499249D01*
X31817288Y-182485173D01*
X31824112Y-182470540D01*
X31830227Y-182454249D01*
X31835673Y-182435198D01*
X31840487Y-182412286D01*
X31844708Y-182384413D01*
X31848377Y-182350478D01*
X31851531Y-182309379D01*
X31854211Y-182260015D01*
X31856454Y-182201286D01*
X31858299Y-182132090D01*
X31859787Y-182051326D01*
X31860955Y-181957894D01*
X31861844Y-181850692D01*
X31862491Y-181728620D01*
X31862936Y-181590576D01*
X31863218Y-181435459D01*
X31863375Y-181262168D01*
X31863448Y-181069603D01*
X31863474Y-180856662D01*
X31863485Y-180720530D01*
X32665200Y-180720530D01*
X32665200Y-181870721D01*
X32735756Y-181917089D01*
X32776417Y-181940791D01*
X32830546Y-181966639D01*
X32879689Y-181984829D01*
X32943165Y-182000551D01*
X33039331Y-182011541D01*
X33123900Y-182003365D01*
X33197219Y-181975805D01*
X33259637Y-181928642D01*
X33311502Y-181861658D01*
X33353160Y-181774633D01*
X33384962Y-181667350D01*
X33387545Y-181655009D01*
X33396000Y-181593772D01*
X33401663Y-181516692D01*
X33404576Y-181429002D01*
X33404783Y-181335934D01*
X33402330Y-181242720D01*
X33397261Y-181154594D01*
X33389619Y-181076788D01*
X33379448Y-181014533D01*
X33378167Y-181008666D01*
X33349126Y-180898121D01*
X33314610Y-180807575D01*
X33273456Y-180734953D01*
X33224499Y-180678181D01*
X33166574Y-180635184D01*
X33134620Y-180619615D01*
X33061784Y-180600722D01*
X32980443Y-180597465D01*
X32895319Y-180609389D01*
X32811133Y-180636040D01*
X32732608Y-180676962D01*
X32665200Y-180720530D01*
X31863485Y-180720530D01*
X31863493Y-180622245D01*
X31863689Y-178937378D01*
X32769017Y-178937378D01*
X32744585Y-178974067D01*
X32738318Y-178983647D01*
X32712208Y-179029981D01*
X32694469Y-179077102D01*
X32682908Y-179132251D01*
X32675331Y-179202667D01*
X32674839Y-179209650D01*
X32673062Y-179247641D01*
X32671444Y-179301576D01*
X32669999Y-179368703D01*
X32668740Y-179446271D01*
X32667680Y-179531528D01*
X32666829Y-179621724D01*
X32666203Y-179714107D01*
X32665812Y-179805925D01*
X32665670Y-179894427D01*
X32665790Y-179976862D01*
X32666183Y-180050479D01*
X32666862Y-180112526D01*
X32667841Y-180160251D01*
X32669132Y-180190904D01*
X32670747Y-180201733D01*
X32678957Y-180197333D01*
X32700647Y-180182362D01*
X32730014Y-180160448D01*
X32778879Y-180126236D01*
X32867125Y-180079714D01*
X32965916Y-180046046D01*
X33078510Y-180024231D01*
X33208164Y-180013265D01*
X33300670Y-180012219D01*
X33422011Y-180022014D01*
X33532099Y-180046174D01*
X33635389Y-180085785D01*
X33736338Y-180141932D01*
X33781503Y-180172883D01*
X33886911Y-180264115D01*
X33978538Y-180373106D01*
X34056332Y-180499726D01*
X34120241Y-180643845D01*
X34170214Y-180805332D01*
X34206198Y-180984059D01*
X34228143Y-181179895D01*
X34233900Y-181335934D01*
X34235994Y-181392711D01*
G37*
X36777755Y-181793467D02*
X36777261Y-181827363D01*
X36773632Y-181902202D01*
X36766022Y-181964401D01*
X36753688Y-182020984D01*
X36709313Y-182147076D01*
X36646400Y-182261679D01*
X36566238Y-182362568D01*
X36469740Y-182448924D01*
X36357822Y-182519932D01*
X36231397Y-182574776D01*
X36091378Y-182612638D01*
X36055149Y-182618351D01*
X35976155Y-182624313D01*
X35887841Y-182624646D01*
X35798075Y-182619659D01*
X35714722Y-182609666D01*
X35645651Y-182594978D01*
X35559187Y-182564749D01*
X35449286Y-182510057D01*
X35351956Y-182442543D01*
X35289867Y-182391556D01*
X35286605Y-182487622D01*
X35283343Y-182583689D01*
X34860450Y-182583689D01*
X34849543Y-182583686D01*
X34755056Y-182583380D01*
X34668331Y-182582616D01*
X34591837Y-182581451D01*
X34528043Y-182579942D01*
X34479418Y-182578147D01*
X34448433Y-182576121D01*
X34437556Y-182573922D01*
X34437578Y-182573463D01*
X34444614Y-182557910D01*
X34460434Y-182535071D01*
X34464734Y-182529638D01*
X34475777Y-182515606D01*
X34485311Y-182502186D01*
X34493461Y-182487722D01*
X34500352Y-182470556D01*
X34506111Y-182449034D01*
X34510862Y-182421498D01*
X34514731Y-182386292D01*
X34517844Y-182341760D01*
X34520325Y-182286246D01*
X34522300Y-182218093D01*
X34523894Y-182135645D01*
X34525234Y-182037246D01*
X34526444Y-181921239D01*
X34527649Y-181785968D01*
X34528595Y-181674586D01*
X35329378Y-181674586D01*
X35329378Y-181870462D01*
X35374048Y-181926973D01*
X35386785Y-181942212D01*
X35433604Y-181984844D01*
X35494255Y-182020672D01*
X35504897Y-182025850D01*
X35543676Y-182042745D01*
X35578692Y-182052909D01*
X35618722Y-182058325D01*
X35672541Y-182060978D01*
X35690648Y-182061383D01*
X35766011Y-182058540D01*
X35826743Y-182046620D01*
X35878452Y-182024037D01*
X35926746Y-181989211D01*
X35931803Y-181984798D01*
X35980272Y-181929160D01*
X36008459Y-181865333D01*
X36017752Y-181790282D01*
X36010520Y-181718693D01*
X35985796Y-181655645D01*
X35941249Y-181597758D01*
X35886319Y-181550808D01*
X35813894Y-181510961D01*
X35727340Y-181483263D01*
X35624670Y-181467096D01*
X35503894Y-181461842D01*
X35495007Y-181461857D01*
X35439660Y-181462655D01*
X35392736Y-181464488D01*
X35358953Y-181467111D01*
X35343028Y-181470274D01*
X35338943Y-181476741D01*
X35334572Y-181498875D01*
X35331604Y-181537988D01*
X35329914Y-181595939D01*
X35329378Y-181674586D01*
X34528595Y-181674586D01*
X34528975Y-181629778D01*
X34530228Y-181487012D01*
X34531651Y-181341942D01*
X34533176Y-181216027D01*
X34534933Y-181107436D01*
X34537051Y-181014334D01*
X34539660Y-180934891D01*
X34542890Y-180867273D01*
X34546869Y-180809649D01*
X34551728Y-180760185D01*
X34557597Y-180717050D01*
X34564604Y-180678410D01*
X34572880Y-180642434D01*
X34582554Y-180607289D01*
X34593756Y-180571142D01*
X34606616Y-180532161D01*
X34622090Y-180489091D01*
X34664994Y-180396871D01*
X34718735Y-180317099D01*
X34787576Y-180242965D01*
X34865185Y-180179405D01*
X34969761Y-180117725D01*
X35089244Y-180070202D01*
X35224508Y-180036567D01*
X35376426Y-180016552D01*
X35545872Y-180009889D01*
X35603890Y-180010287D01*
X35669398Y-180012335D01*
X35730693Y-180016704D01*
X35792097Y-180024035D01*
X35857932Y-180034969D01*
X35932520Y-180050147D01*
X36020184Y-180070209D01*
X36125245Y-180095797D01*
X36153806Y-180102820D01*
X36229054Y-180120776D01*
X36299388Y-180136820D01*
X36360567Y-180150028D01*
X36408354Y-180159474D01*
X36438511Y-180164231D01*
X36466783Y-180167910D01*
X36493060Y-180173187D01*
X36503059Y-180177942D01*
X36499952Y-180186781D01*
X36489194Y-180214072D01*
X36471864Y-180256906D01*
X36449126Y-180312425D01*
X36422147Y-180377772D01*
X36392090Y-180450089D01*
X36385493Y-180465879D01*
X36346907Y-180556484D01*
X36315768Y-180626217D01*
X36291917Y-180675405D01*
X36275198Y-180704374D01*
X36265454Y-180713452D01*
X36257766Y-180711405D01*
X36231415Y-180701760D01*
X36192982Y-180686190D01*
X36147822Y-180666815D01*
X36053293Y-180628814D01*
X35916480Y-180587780D01*
X35775289Y-180562612D01*
X35737314Y-180558611D01*
X35634059Y-180556447D01*
X35546952Y-180569622D01*
X35475129Y-180598756D01*
X35417731Y-180644466D01*
X35373896Y-180707372D01*
X35342762Y-180788092D01*
X35323470Y-180887245D01*
X35316050Y-180946224D01*
X35477936Y-180939445D01*
X35604495Y-180937813D01*
X35755951Y-180944194D01*
X35904396Y-180958777D01*
X36040578Y-180980882D01*
X36105245Y-180995821D01*
X36237490Y-181038741D01*
X36359762Y-181095340D01*
X36469685Y-181164017D01*
X36564883Y-181243170D01*
X36642980Y-181331196D01*
X36701599Y-181426493D01*
X36725595Y-181478864D01*
X36751232Y-181549590D01*
X36767478Y-181620812D01*
X36775822Y-181699712D01*
X36777690Y-181790282D01*
X36777755Y-181793467D01*
G36*
X36777755Y-181793467D02*
G01*
X36777261Y-181827363D01*
X36773632Y-181902202D01*
X36766022Y-181964401D01*
X36753688Y-182020984D01*
X36709313Y-182147076D01*
X36646400Y-182261679D01*
X36566238Y-182362568D01*
X36469740Y-182448924D01*
X36357822Y-182519932D01*
X36231397Y-182574776D01*
X36091378Y-182612638D01*
X36055149Y-182618351D01*
X35976155Y-182624313D01*
X35887841Y-182624646D01*
X35798075Y-182619659D01*
X35714722Y-182609666D01*
X35645651Y-182594978D01*
X35559187Y-182564749D01*
X35449286Y-182510057D01*
X35351956Y-182442543D01*
X35289867Y-182391556D01*
X35286605Y-182487622D01*
X35283343Y-182583689D01*
X34860450Y-182583689D01*
X34849543Y-182583686D01*
X34755056Y-182583380D01*
X34668331Y-182582616D01*
X34591837Y-182581451D01*
X34528043Y-182579942D01*
X34479418Y-182578147D01*
X34448433Y-182576121D01*
X34437556Y-182573922D01*
X34437578Y-182573463D01*
X34444614Y-182557910D01*
X34460434Y-182535071D01*
X34464734Y-182529638D01*
X34475777Y-182515606D01*
X34485311Y-182502186D01*
X34493461Y-182487722D01*
X34500352Y-182470556D01*
X34506111Y-182449034D01*
X34510862Y-182421498D01*
X34514731Y-182386292D01*
X34517844Y-182341760D01*
X34520325Y-182286246D01*
X34522300Y-182218093D01*
X34523894Y-182135645D01*
X34525234Y-182037246D01*
X34526444Y-181921239D01*
X34527649Y-181785968D01*
X34528595Y-181674586D01*
X35329378Y-181674586D01*
X35329378Y-181870462D01*
X35374048Y-181926973D01*
X35386785Y-181942212D01*
X35433604Y-181984844D01*
X35494255Y-182020672D01*
X35504897Y-182025850D01*
X35543676Y-182042745D01*
X35578692Y-182052909D01*
X35618722Y-182058325D01*
X35672541Y-182060978D01*
X35690648Y-182061383D01*
X35766011Y-182058540D01*
X35826743Y-182046620D01*
X35878452Y-182024037D01*
X35926746Y-181989211D01*
X35931803Y-181984798D01*
X35980272Y-181929160D01*
X36008459Y-181865333D01*
X36017752Y-181790282D01*
X36010520Y-181718693D01*
X35985796Y-181655645D01*
X35941249Y-181597758D01*
X35886319Y-181550808D01*
X35813894Y-181510961D01*
X35727340Y-181483263D01*
X35624670Y-181467096D01*
X35503894Y-181461842D01*
X35495007Y-181461857D01*
X35439660Y-181462655D01*
X35392736Y-181464488D01*
X35358953Y-181467111D01*
X35343028Y-181470274D01*
X35338943Y-181476741D01*
X35334572Y-181498875D01*
X35331604Y-181537988D01*
X35329914Y-181595939D01*
X35329378Y-181674586D01*
X34528595Y-181674586D01*
X34528975Y-181629778D01*
X34530228Y-181487012D01*
X34531651Y-181341942D01*
X34533176Y-181216027D01*
X34534933Y-181107436D01*
X34537051Y-181014334D01*
X34539660Y-180934891D01*
X34542890Y-180867273D01*
X34546869Y-180809649D01*
X34551728Y-180760185D01*
X34557597Y-180717050D01*
X34564604Y-180678410D01*
X34572880Y-180642434D01*
X34582554Y-180607289D01*
X34593756Y-180571142D01*
X34606616Y-180532161D01*
X34622090Y-180489091D01*
X34664994Y-180396871D01*
X34718735Y-180317099D01*
X34787576Y-180242965D01*
X34865185Y-180179405D01*
X34969761Y-180117725D01*
X35089244Y-180070202D01*
X35224508Y-180036567D01*
X35376426Y-180016552D01*
X35545872Y-180009889D01*
X35603890Y-180010287D01*
X35669398Y-180012335D01*
X35730693Y-180016704D01*
X35792097Y-180024035D01*
X35857932Y-180034969D01*
X35932520Y-180050147D01*
X36020184Y-180070209D01*
X36125245Y-180095797D01*
X36153806Y-180102820D01*
X36229054Y-180120776D01*
X36299388Y-180136820D01*
X36360567Y-180150028D01*
X36408354Y-180159474D01*
X36438511Y-180164231D01*
X36466783Y-180167910D01*
X36493060Y-180173187D01*
X36503059Y-180177942D01*
X36499952Y-180186781D01*
X36489194Y-180214072D01*
X36471864Y-180256906D01*
X36449126Y-180312425D01*
X36422147Y-180377772D01*
X36392090Y-180450089D01*
X36385493Y-180465879D01*
X36346907Y-180556484D01*
X36315768Y-180626217D01*
X36291917Y-180675405D01*
X36275198Y-180704374D01*
X36265454Y-180713452D01*
X36257766Y-180711405D01*
X36231415Y-180701760D01*
X36192982Y-180686190D01*
X36147822Y-180666815D01*
X36053293Y-180628814D01*
X35916480Y-180587780D01*
X35775289Y-180562612D01*
X35737314Y-180558611D01*
X35634059Y-180556447D01*
X35546952Y-180569622D01*
X35475129Y-180598756D01*
X35417731Y-180644466D01*
X35373896Y-180707372D01*
X35342762Y-180788092D01*
X35323470Y-180887245D01*
X35316050Y-180946224D01*
X35477936Y-180939445D01*
X35604495Y-180937813D01*
X35755951Y-180944194D01*
X35904396Y-180958777D01*
X36040578Y-180980882D01*
X36105245Y-180995821D01*
X36237490Y-181038741D01*
X36359762Y-181095340D01*
X36469685Y-181164017D01*
X36564883Y-181243170D01*
X36642980Y-181331196D01*
X36701599Y-181426493D01*
X36725595Y-181478864D01*
X36751232Y-181549590D01*
X36767478Y-181620812D01*
X36775822Y-181699712D01*
X36777690Y-181790282D01*
X36777755Y-181793467D01*
G37*
X44325614Y-179261792D02*
X44326059Y-179393011D01*
X44326362Y-179540216D01*
X44326548Y-179704349D01*
X44326642Y-179886352D01*
X44326671Y-180087165D01*
X44326661Y-180307732D01*
X44326636Y-180548992D01*
X44326622Y-180811889D01*
X44326622Y-180854040D01*
X44326646Y-181114668D01*
X44326685Y-181353796D01*
X44326708Y-181572360D01*
X44326687Y-181771295D01*
X44326593Y-181951535D01*
X44326395Y-182114015D01*
X44326063Y-182259670D01*
X44325569Y-182389434D01*
X44324883Y-182504243D01*
X44323976Y-182605030D01*
X44322817Y-182692730D01*
X44321378Y-182768279D01*
X44319629Y-182832611D01*
X44317540Y-182886661D01*
X44315083Y-182931363D01*
X44312227Y-182967652D01*
X44308943Y-182996463D01*
X44305202Y-183018731D01*
X44300974Y-183035390D01*
X44296229Y-183047375D01*
X44290939Y-183055621D01*
X44285073Y-183061062D01*
X44278602Y-183064634D01*
X44271497Y-183067270D01*
X44263728Y-183069906D01*
X44255266Y-183073477D01*
X44250908Y-183075145D01*
X44242395Y-183077111D01*
X44229694Y-183078911D01*
X44211885Y-183080555D01*
X44188049Y-183082047D01*
X44157266Y-183083397D01*
X44118617Y-183084611D01*
X44071182Y-183085697D01*
X44014043Y-183086661D01*
X43946279Y-183087511D01*
X43866971Y-183088253D01*
X43775199Y-183088897D01*
X43670044Y-183089447D01*
X43550587Y-183089913D01*
X43415908Y-183090300D01*
X43265088Y-183090616D01*
X43097206Y-183090869D01*
X42911345Y-183091066D01*
X42706583Y-183091213D01*
X42482002Y-183091318D01*
X42236682Y-183091389D01*
X41969704Y-183091432D01*
X41931321Y-183091437D01*
X41665922Y-183091480D01*
X41422050Y-183091525D01*
X41198783Y-183091548D01*
X40995196Y-183091524D01*
X40810367Y-183091430D01*
X40643373Y-183091243D01*
X40493290Y-183090939D01*
X40359196Y-183090494D01*
X40240166Y-183089885D01*
X40135279Y-183089089D01*
X40043610Y-183088080D01*
X39964237Y-183086837D01*
X39896237Y-183085335D01*
X39838686Y-183083551D01*
X39790662Y-183081461D01*
X39751240Y-183079042D01*
X39719499Y-183076270D01*
X39694514Y-183073121D01*
X39675364Y-183069572D01*
X39661123Y-183065598D01*
X39650871Y-183061178D01*
X39643682Y-183056286D01*
X39638635Y-183050900D01*
X39634805Y-183044996D01*
X39631271Y-183038549D01*
X39627108Y-183031537D01*
X39626025Y-183029687D01*
X39623813Y-183024180D01*
X39621786Y-183015868D01*
X39619938Y-183003809D01*
X39618261Y-182987063D01*
X39616745Y-182964687D01*
X39615383Y-182935740D01*
X39614167Y-182899280D01*
X39613089Y-182854367D01*
X39612140Y-182800057D01*
X39611312Y-182735410D01*
X39610597Y-182659484D01*
X39609987Y-182571338D01*
X39609942Y-182562493D01*
X39901378Y-182562493D01*
X39905260Y-182563765D01*
X39928520Y-182565791D01*
X39970874Y-182567626D01*
X40030132Y-182569227D01*
X40104107Y-182570549D01*
X40190610Y-182571548D01*
X40287452Y-182572180D01*
X40392445Y-182572400D01*
X41090651Y-182572400D01*
X42245090Y-182572400D01*
X42244456Y-182496200D01*
X42245574Y-182454160D01*
X42251304Y-182418334D01*
X42263890Y-182380772D01*
X42285568Y-182332577D01*
X42288789Y-182325897D01*
X42314188Y-182276359D01*
X42340996Y-182228369D01*
X42363917Y-182191466D01*
X42368485Y-182184834D01*
X42390516Y-182153593D01*
X42422693Y-182108654D01*
X42463457Y-182052147D01*
X42511245Y-181986204D01*
X42564498Y-181912957D01*
X42621655Y-181834536D01*
X42681155Y-181753072D01*
X42741437Y-181670698D01*
X42800940Y-181589544D01*
X42858105Y-181511742D01*
X42911370Y-181439423D01*
X42959174Y-181374718D01*
X42999957Y-181319759D01*
X43032158Y-181276676D01*
X43054216Y-181247602D01*
X43064571Y-181234667D01*
X43069044Y-181230351D01*
X43073236Y-181228312D01*
X43076643Y-181230926D01*
X43079325Y-181239986D01*
X43081341Y-181257285D01*
X43082748Y-181284614D01*
X43083605Y-181323765D01*
X43083970Y-181376533D01*
X43083903Y-181444707D01*
X43083460Y-181530082D01*
X43082702Y-181634449D01*
X43081685Y-181759600D01*
X43081308Y-181804300D01*
X43080169Y-181925395D01*
X43078972Y-182026688D01*
X43077636Y-182110262D01*
X43076077Y-182178204D01*
X43074215Y-182232599D01*
X43071966Y-182275532D01*
X43069248Y-182309089D01*
X43065979Y-182335355D01*
X43062078Y-182356416D01*
X43057461Y-182374357D01*
X43049192Y-182400770D01*
X43025583Y-182462772D01*
X42999685Y-182515573D01*
X42974535Y-182552645D01*
X42973339Y-182554075D01*
X42971168Y-182558424D01*
X42973328Y-182562026D01*
X42981644Y-182564951D01*
X42997940Y-182567269D01*
X43024041Y-182569051D01*
X43061771Y-182570367D01*
X43112956Y-182571286D01*
X43179420Y-182571878D01*
X43262987Y-182572215D01*
X43365483Y-182572365D01*
X43488732Y-182572400D01*
X44020296Y-182572400D01*
X43981523Y-182514783D01*
X43975432Y-182505893D01*
X43964976Y-182491069D01*
X43955579Y-182477422D01*
X43947183Y-182463765D01*
X43939733Y-182448911D01*
X43933173Y-182431670D01*
X43927446Y-182410855D01*
X43922495Y-182385280D01*
X43918266Y-182353755D01*
X43914701Y-182315093D01*
X43911744Y-182268107D01*
X43909340Y-182211608D01*
X43907431Y-182144409D01*
X43905962Y-182065322D01*
X43904876Y-181973160D01*
X43904118Y-181866734D01*
X43903630Y-181744857D01*
X43903358Y-181606341D01*
X43903243Y-181449999D01*
X43903231Y-181274642D01*
X43903265Y-181079082D01*
X43903289Y-180862133D01*
X43903280Y-180739513D01*
X43903243Y-180534447D01*
X43903227Y-180350116D01*
X43903288Y-180185334D01*
X43903484Y-180038916D01*
X43903870Y-179909674D01*
X43904505Y-179796422D01*
X43905444Y-179697975D01*
X43906745Y-179613144D01*
X43908464Y-179540744D01*
X43910659Y-179479589D01*
X43913385Y-179428492D01*
X43916701Y-179386267D01*
X43920662Y-179351727D01*
X43925325Y-179323686D01*
X43930747Y-179300958D01*
X43936986Y-179282356D01*
X43944097Y-179266693D01*
X43952138Y-179252784D01*
X43961166Y-179239441D01*
X43971236Y-179225479D01*
X43982407Y-179209711D01*
X44022197Y-179151867D01*
X42962314Y-179151867D01*
X43000311Y-179214966D01*
X43014993Y-179240005D01*
X43029531Y-179267586D01*
X43041627Y-179295700D01*
X43051532Y-179326551D01*
X43059494Y-179362344D01*
X43065761Y-179405283D01*
X43070582Y-179457574D01*
X43074206Y-179521419D01*
X43076881Y-179599025D01*
X43078857Y-179692594D01*
X43080382Y-179804333D01*
X43081704Y-179936445D01*
X43082613Y-180056434D01*
X43083020Y-180173063D01*
X43082767Y-180268531D01*
X43081857Y-180342556D01*
X43080293Y-180394855D01*
X43078079Y-180425149D01*
X43075220Y-180433156D01*
X43072161Y-180429858D01*
X43054006Y-180408408D01*
X43024275Y-180371889D01*
X42984639Y-180322442D01*
X42936771Y-180262207D01*
X42882343Y-180193327D01*
X42823027Y-180117943D01*
X42760495Y-180038196D01*
X42696421Y-179956228D01*
X42632475Y-179874180D01*
X42570331Y-179794194D01*
X42511661Y-179718411D01*
X42458137Y-179648973D01*
X42411430Y-179588021D01*
X42373214Y-179537696D01*
X42345161Y-179500140D01*
X42328943Y-179477495D01*
X42283635Y-179405212D01*
X42243661Y-179325463D01*
X42222130Y-179257188D01*
X42218827Y-179199844D01*
X42224116Y-179151867D01*
X41092356Y-179152117D01*
X41131867Y-179182722D01*
X41141248Y-179190089D01*
X41204183Y-179244438D01*
X41272997Y-179312259D01*
X41349596Y-179395516D01*
X41435888Y-179496178D01*
X41453052Y-179516847D01*
X41493833Y-179566409D01*
X41543588Y-179627326D01*
X41600955Y-179697898D01*
X41664569Y-179776424D01*
X41733069Y-179861204D01*
X41805090Y-179950537D01*
X41879270Y-180042722D01*
X41894517Y-180061702D01*
X41954246Y-180136060D01*
X42028653Y-180228848D01*
X42101131Y-180319388D01*
X42170314Y-180405978D01*
X42234841Y-180486918D01*
X42293347Y-180560506D01*
X42344470Y-180625044D01*
X42386847Y-180678829D01*
X42419115Y-180720162D01*
X42439910Y-180747342D01*
X42447869Y-180758668D01*
X42446111Y-180762771D01*
X42433230Y-180783334D01*
X42408885Y-180819561D01*
X42374247Y-180869824D01*
X42330486Y-180932492D01*
X42278775Y-181005936D01*
X42220284Y-181088527D01*
X42156184Y-181178636D01*
X42087646Y-181274631D01*
X42015843Y-181374885D01*
X41941944Y-181477768D01*
X41867121Y-181581650D01*
X41792545Y-181684901D01*
X41719387Y-181785892D01*
X41648819Y-181882994D01*
X41582011Y-181974577D01*
X41520135Y-182059011D01*
X41464361Y-182134667D01*
X41415862Y-182199916D01*
X41375807Y-182253128D01*
X41345369Y-182292673D01*
X41324944Y-182318026D01*
X41278899Y-182372295D01*
X41228612Y-182428775D01*
X41181815Y-182478669D01*
X41090651Y-182572400D01*
X40392445Y-182572400D01*
X40461356Y-182572349D01*
X40559607Y-182572091D01*
X40649030Y-182571637D01*
X40727333Y-182571010D01*
X40792223Y-182570235D01*
X40841411Y-182569335D01*
X40872604Y-182568334D01*
X40883511Y-182567257D01*
X40882322Y-182564037D01*
X40872176Y-182546452D01*
X40855040Y-182520158D01*
X40846540Y-182507691D01*
X40837329Y-182493622D01*
X40829233Y-182479351D01*
X40822185Y-182463479D01*
X40816117Y-182444609D01*
X40810961Y-182421341D01*
X40806651Y-182392278D01*
X40803119Y-182356021D01*
X40800297Y-182311170D01*
X40798118Y-182256328D01*
X40796514Y-182190097D01*
X40795419Y-182111077D01*
X40794765Y-182017871D01*
X40794484Y-181909079D01*
X40794509Y-181783303D01*
X40794772Y-181639145D01*
X40795206Y-181475207D01*
X40795745Y-181290089D01*
X40796279Y-181111232D01*
X40796805Y-180952374D01*
X40797350Y-180813316D01*
X40797945Y-180692665D01*
X40798619Y-180589028D01*
X40799403Y-180501011D01*
X40800326Y-180427223D01*
X40801419Y-180366269D01*
X40802712Y-180316757D01*
X40804235Y-180277293D01*
X40806019Y-180246484D01*
X40808092Y-180222938D01*
X40810486Y-180205260D01*
X40813230Y-180192059D01*
X40816356Y-180181940D01*
X40819892Y-180173511D01*
X40823791Y-180165375D01*
X40843438Y-180128544D01*
X40862225Y-180098391D01*
X40863272Y-180096908D01*
X40877602Y-180074659D01*
X40883511Y-180061702D01*
X40882504Y-180061249D01*
X40865305Y-180059803D01*
X40828656Y-180058480D01*
X40774962Y-180057316D01*
X40706630Y-180056347D01*
X40626064Y-180055611D01*
X40535670Y-180055142D01*
X40437853Y-180054978D01*
X39992195Y-180054978D01*
X39989120Y-181231845D01*
X39986045Y-182408711D01*
X39959407Y-182467622D01*
X39947485Y-182492183D01*
X39930246Y-182522434D01*
X39917074Y-182539560D01*
X39909076Y-182547591D01*
X39901378Y-182562493D01*
X39609942Y-182562493D01*
X39609474Y-182470029D01*
X39609050Y-182354617D01*
X39608706Y-182224160D01*
X39608434Y-182077716D01*
X39608227Y-181914344D01*
X39608076Y-181733101D01*
X39607972Y-181533048D01*
X39607908Y-181313241D01*
X39607876Y-181072739D01*
X39607867Y-180810602D01*
X39607867Y-178619031D01*
X39646249Y-178580649D01*
X39673355Y-178556911D01*
X39700253Y-178545111D01*
X39736560Y-178542267D01*
X39788489Y-178542267D01*
X39788489Y-178630206D01*
X39790427Y-178680102D01*
X39809199Y-178790523D01*
X39846217Y-178891987D01*
X39899369Y-178983152D01*
X39966546Y-179062673D01*
X40045638Y-179129205D01*
X40134534Y-179181406D01*
X40231125Y-179217930D01*
X40333300Y-179237434D01*
X40438950Y-179238573D01*
X40545964Y-179220005D01*
X40652232Y-179180384D01*
X40749219Y-179122516D01*
X40834293Y-179047684D01*
X40903015Y-178959615D01*
X40953918Y-178860616D01*
X40985535Y-178752993D01*
X40996400Y-178639054D01*
X40996400Y-178542267D01*
X42616753Y-178542267D01*
X42827897Y-178542280D01*
X43032020Y-178542330D01*
X43215686Y-178542430D01*
X43379991Y-178542592D01*
X43526029Y-178542829D01*
X43654894Y-178543153D01*
X43767683Y-178543575D01*
X43865488Y-178544109D01*
X43949404Y-178544767D01*
X44020527Y-178545561D01*
X44079950Y-178546504D01*
X44128768Y-178547608D01*
X44168077Y-178548884D01*
X44198969Y-178550347D01*
X44222541Y-178552007D01*
X44239886Y-178553878D01*
X44252099Y-178555972D01*
X44260275Y-178558300D01*
X44265508Y-178560876D01*
X44271504Y-178564445D01*
X44278279Y-178567978D01*
X44284478Y-178571488D01*
X44290126Y-178575918D01*
X44295247Y-178582208D01*
X44299869Y-178591301D01*
X44304015Y-178604139D01*
X44307713Y-178621662D01*
X44310987Y-178644813D01*
X44313863Y-178674534D01*
X44316367Y-178711765D01*
X44318524Y-178757449D01*
X44320360Y-178812527D01*
X44321900Y-178877941D01*
X44323170Y-178954633D01*
X44324195Y-179043544D01*
X44325001Y-179145617D01*
X44325034Y-179151867D01*
X44325614Y-179261792D01*
G36*
X44325614Y-179261792D02*
G01*
X44326059Y-179393011D01*
X44326362Y-179540216D01*
X44326548Y-179704349D01*
X44326642Y-179886352D01*
X44326671Y-180087165D01*
X44326661Y-180307732D01*
X44326636Y-180548992D01*
X44326622Y-180811889D01*
X44326622Y-180854040D01*
X44326646Y-181114668D01*
X44326685Y-181353796D01*
X44326708Y-181572360D01*
X44326687Y-181771295D01*
X44326593Y-181951535D01*
X44326395Y-182114015D01*
X44326063Y-182259670D01*
X44325569Y-182389434D01*
X44324883Y-182504243D01*
X44323976Y-182605030D01*
X44322817Y-182692730D01*
X44321378Y-182768279D01*
X44319629Y-182832611D01*
X44317540Y-182886661D01*
X44315083Y-182931363D01*
X44312227Y-182967652D01*
X44308943Y-182996463D01*
X44305202Y-183018731D01*
X44300974Y-183035390D01*
X44296229Y-183047375D01*
X44290939Y-183055621D01*
X44285073Y-183061062D01*
X44278602Y-183064634D01*
X44271497Y-183067270D01*
X44263728Y-183069906D01*
X44255266Y-183073477D01*
X44250908Y-183075145D01*
X44242395Y-183077111D01*
X44229694Y-183078911D01*
X44211885Y-183080555D01*
X44188049Y-183082047D01*
X44157266Y-183083397D01*
X44118617Y-183084611D01*
X44071182Y-183085697D01*
X44014043Y-183086661D01*
X43946279Y-183087511D01*
X43866971Y-183088253D01*
X43775199Y-183088897D01*
X43670044Y-183089447D01*
X43550587Y-183089913D01*
X43415908Y-183090300D01*
X43265088Y-183090616D01*
X43097206Y-183090869D01*
X42911345Y-183091066D01*
X42706583Y-183091213D01*
X42482002Y-183091318D01*
X42236682Y-183091389D01*
X41969704Y-183091432D01*
X41931321Y-183091437D01*
X41665922Y-183091480D01*
X41422050Y-183091525D01*
X41198783Y-183091548D01*
X40995196Y-183091524D01*
X40810367Y-183091430D01*
X40643373Y-183091243D01*
X40493290Y-183090939D01*
X40359196Y-183090494D01*
X40240166Y-183089885D01*
X40135279Y-183089089D01*
X40043610Y-183088080D01*
X39964237Y-183086837D01*
X39896237Y-183085335D01*
X39838686Y-183083551D01*
X39790662Y-183081461D01*
X39751240Y-183079042D01*
X39719499Y-183076270D01*
X39694514Y-183073121D01*
X39675364Y-183069572D01*
X39661123Y-183065598D01*
X39650871Y-183061178D01*
X39643682Y-183056286D01*
X39638635Y-183050900D01*
X39634805Y-183044996D01*
X39631271Y-183038549D01*
X39627108Y-183031537D01*
X39626025Y-183029687D01*
X39623813Y-183024180D01*
X39621786Y-183015868D01*
X39619938Y-183003809D01*
X39618261Y-182987063D01*
X39616745Y-182964687D01*
X39615383Y-182935740D01*
X39614167Y-182899280D01*
X39613089Y-182854367D01*
X39612140Y-182800057D01*
X39611312Y-182735410D01*
X39610597Y-182659484D01*
X39609987Y-182571338D01*
X39609942Y-182562493D01*
X39901378Y-182562493D01*
X39905260Y-182563765D01*
X39928520Y-182565791D01*
X39970874Y-182567626D01*
X40030132Y-182569227D01*
X40104107Y-182570549D01*
X40190610Y-182571548D01*
X40287452Y-182572180D01*
X40392445Y-182572400D01*
X41090651Y-182572400D01*
X42245090Y-182572400D01*
X42244456Y-182496200D01*
X42245574Y-182454160D01*
X42251304Y-182418334D01*
X42263890Y-182380772D01*
X42285568Y-182332577D01*
X42288789Y-182325897D01*
X42314188Y-182276359D01*
X42340996Y-182228369D01*
X42363917Y-182191466D01*
X42368485Y-182184834D01*
X42390516Y-182153593D01*
X42422693Y-182108654D01*
X42463457Y-182052147D01*
X42511245Y-181986204D01*
X42564498Y-181912957D01*
X42621655Y-181834536D01*
X42681155Y-181753072D01*
X42741437Y-181670698D01*
X42800940Y-181589544D01*
X42858105Y-181511742D01*
X42911370Y-181439423D01*
X42959174Y-181374718D01*
X42999957Y-181319759D01*
X43032158Y-181276676D01*
X43054216Y-181247602D01*
X43064571Y-181234667D01*
X43069044Y-181230351D01*
X43073236Y-181228312D01*
X43076643Y-181230926D01*
X43079325Y-181239986D01*
X43081341Y-181257285D01*
X43082748Y-181284614D01*
X43083605Y-181323765D01*
X43083970Y-181376533D01*
X43083903Y-181444707D01*
X43083460Y-181530082D01*
X43082702Y-181634449D01*
X43081685Y-181759600D01*
X43081308Y-181804300D01*
X43080169Y-181925395D01*
X43078972Y-182026688D01*
X43077636Y-182110262D01*
X43076077Y-182178204D01*
X43074215Y-182232599D01*
X43071966Y-182275532D01*
X43069248Y-182309089D01*
X43065979Y-182335355D01*
X43062078Y-182356416D01*
X43057461Y-182374357D01*
X43049192Y-182400770D01*
X43025583Y-182462772D01*
X42999685Y-182515573D01*
X42974535Y-182552645D01*
X42973339Y-182554075D01*
X42971168Y-182558424D01*
X42973328Y-182562026D01*
X42981644Y-182564951D01*
X42997940Y-182567269D01*
X43024041Y-182569051D01*
X43061771Y-182570367D01*
X43112956Y-182571286D01*
X43179420Y-182571878D01*
X43262987Y-182572215D01*
X43365483Y-182572365D01*
X43488732Y-182572400D01*
X44020296Y-182572400D01*
X43981523Y-182514783D01*
X43975432Y-182505893D01*
X43964976Y-182491069D01*
X43955579Y-182477422D01*
X43947183Y-182463765D01*
X43939733Y-182448911D01*
X43933173Y-182431670D01*
X43927446Y-182410855D01*
X43922495Y-182385280D01*
X43918266Y-182353755D01*
X43914701Y-182315093D01*
X43911744Y-182268107D01*
X43909340Y-182211608D01*
X43907431Y-182144409D01*
X43905962Y-182065322D01*
X43904876Y-181973160D01*
X43904118Y-181866734D01*
X43903630Y-181744857D01*
X43903358Y-181606341D01*
X43903243Y-181449999D01*
X43903231Y-181274642D01*
X43903265Y-181079082D01*
X43903289Y-180862133D01*
X43903280Y-180739513D01*
X43903243Y-180534447D01*
X43903227Y-180350116D01*
X43903288Y-180185334D01*
X43903484Y-180038916D01*
X43903870Y-179909674D01*
X43904505Y-179796422D01*
X43905444Y-179697975D01*
X43906745Y-179613144D01*
X43908464Y-179540744D01*
X43910659Y-179479589D01*
X43913385Y-179428492D01*
X43916701Y-179386267D01*
X43920662Y-179351727D01*
X43925325Y-179323686D01*
X43930747Y-179300958D01*
X43936986Y-179282356D01*
X43944097Y-179266693D01*
X43952138Y-179252784D01*
X43961166Y-179239441D01*
X43971236Y-179225479D01*
X43982407Y-179209711D01*
X44022197Y-179151867D01*
X42962314Y-179151867D01*
X43000311Y-179214966D01*
X43014993Y-179240005D01*
X43029531Y-179267586D01*
X43041627Y-179295700D01*
X43051532Y-179326551D01*
X43059494Y-179362344D01*
X43065761Y-179405283D01*
X43070582Y-179457574D01*
X43074206Y-179521419D01*
X43076881Y-179599025D01*
X43078857Y-179692594D01*
X43080382Y-179804333D01*
X43081704Y-179936445D01*
X43082613Y-180056434D01*
X43083020Y-180173063D01*
X43082767Y-180268531D01*
X43081857Y-180342556D01*
X43080293Y-180394855D01*
X43078079Y-180425149D01*
X43075220Y-180433156D01*
X43072161Y-180429858D01*
X43054006Y-180408408D01*
X43024275Y-180371889D01*
X42984639Y-180322442D01*
X42936771Y-180262207D01*
X42882343Y-180193327D01*
X42823027Y-180117943D01*
X42760495Y-180038196D01*
X42696421Y-179956228D01*
X42632475Y-179874180D01*
X42570331Y-179794194D01*
X42511661Y-179718411D01*
X42458137Y-179648973D01*
X42411430Y-179588021D01*
X42373214Y-179537696D01*
X42345161Y-179500140D01*
X42328943Y-179477495D01*
X42283635Y-179405212D01*
X42243661Y-179325463D01*
X42222130Y-179257188D01*
X42218827Y-179199844D01*
X42224116Y-179151867D01*
X41092356Y-179152117D01*
X41131867Y-179182722D01*
X41141248Y-179190089D01*
X41204183Y-179244438D01*
X41272997Y-179312259D01*
X41349596Y-179395516D01*
X41435888Y-179496178D01*
X41453052Y-179516847D01*
X41493833Y-179566409D01*
X41543588Y-179627326D01*
X41600955Y-179697898D01*
X41664569Y-179776424D01*
X41733069Y-179861204D01*
X41805090Y-179950537D01*
X41879270Y-180042722D01*
X41894517Y-180061702D01*
X41954246Y-180136060D01*
X42028653Y-180228848D01*
X42101131Y-180319388D01*
X42170314Y-180405978D01*
X42234841Y-180486918D01*
X42293347Y-180560506D01*
X42344470Y-180625044D01*
X42386847Y-180678829D01*
X42419115Y-180720162D01*
X42439910Y-180747342D01*
X42447869Y-180758668D01*
X42446111Y-180762771D01*
X42433230Y-180783334D01*
X42408885Y-180819561D01*
X42374247Y-180869824D01*
X42330486Y-180932492D01*
X42278775Y-181005936D01*
X42220284Y-181088527D01*
X42156184Y-181178636D01*
X42087646Y-181274631D01*
X42015843Y-181374885D01*
X41941944Y-181477768D01*
X41867121Y-181581650D01*
X41792545Y-181684901D01*
X41719387Y-181785892D01*
X41648819Y-181882994D01*
X41582011Y-181974577D01*
X41520135Y-182059011D01*
X41464361Y-182134667D01*
X41415862Y-182199916D01*
X41375807Y-182253128D01*
X41345369Y-182292673D01*
X41324944Y-182318026D01*
X41278899Y-182372295D01*
X41228612Y-182428775D01*
X41181815Y-182478669D01*
X41090651Y-182572400D01*
X40392445Y-182572400D01*
X40461356Y-182572349D01*
X40559607Y-182572091D01*
X40649030Y-182571637D01*
X40727333Y-182571010D01*
X40792223Y-182570235D01*
X40841411Y-182569335D01*
X40872604Y-182568334D01*
X40883511Y-182567257D01*
X40882322Y-182564037D01*
X40872176Y-182546452D01*
X40855040Y-182520158D01*
X40846540Y-182507691D01*
X40837329Y-182493622D01*
X40829233Y-182479351D01*
X40822185Y-182463479D01*
X40816117Y-182444609D01*
X40810961Y-182421341D01*
X40806651Y-182392278D01*
X40803119Y-182356021D01*
X40800297Y-182311170D01*
X40798118Y-182256328D01*
X40796514Y-182190097D01*
X40795419Y-182111077D01*
X40794765Y-182017871D01*
X40794484Y-181909079D01*
X40794509Y-181783303D01*
X40794772Y-181639145D01*
X40795206Y-181475207D01*
X40795745Y-181290089D01*
X40796279Y-181111232D01*
X40796805Y-180952374D01*
X40797350Y-180813316D01*
X40797945Y-180692665D01*
X40798619Y-180589028D01*
X40799403Y-180501011D01*
X40800326Y-180427223D01*
X40801419Y-180366269D01*
X40802712Y-180316757D01*
X40804235Y-180277293D01*
X40806019Y-180246484D01*
X40808092Y-180222938D01*
X40810486Y-180205260D01*
X40813230Y-180192059D01*
X40816356Y-180181940D01*
X40819892Y-180173511D01*
X40823791Y-180165375D01*
X40843438Y-180128544D01*
X40862225Y-180098391D01*
X40863272Y-180096908D01*
X40877602Y-180074659D01*
X40883511Y-180061702D01*
X40882504Y-180061249D01*
X40865305Y-180059803D01*
X40828656Y-180058480D01*
X40774962Y-180057316D01*
X40706630Y-180056347D01*
X40626064Y-180055611D01*
X40535670Y-180055142D01*
X40437853Y-180054978D01*
X39992195Y-180054978D01*
X39989120Y-181231845D01*
X39986045Y-182408711D01*
X39959407Y-182467622D01*
X39947485Y-182492183D01*
X39930246Y-182522434D01*
X39917074Y-182539560D01*
X39909076Y-182547591D01*
X39901378Y-182562493D01*
X39609942Y-182562493D01*
X39609474Y-182470029D01*
X39609050Y-182354617D01*
X39608706Y-182224160D01*
X39608434Y-182077716D01*
X39608227Y-181914344D01*
X39608076Y-181733101D01*
X39607972Y-181533048D01*
X39607908Y-181313241D01*
X39607876Y-181072739D01*
X39607867Y-180810602D01*
X39607867Y-178619031D01*
X39646249Y-178580649D01*
X39673355Y-178556911D01*
X39700253Y-178545111D01*
X39736560Y-178542267D01*
X39788489Y-178542267D01*
X39788489Y-178630206D01*
X39790427Y-178680102D01*
X39809199Y-178790523D01*
X39846217Y-178891987D01*
X39899369Y-178983152D01*
X39966546Y-179062673D01*
X40045638Y-179129205D01*
X40134534Y-179181406D01*
X40231125Y-179217930D01*
X40333300Y-179237434D01*
X40438950Y-179238573D01*
X40545964Y-179220005D01*
X40652232Y-179180384D01*
X40749219Y-179122516D01*
X40834293Y-179047684D01*
X40903015Y-178959615D01*
X40953918Y-178860616D01*
X40985535Y-178752993D01*
X40996400Y-178639054D01*
X40996400Y-178542267D01*
X42616753Y-178542267D01*
X42827897Y-178542280D01*
X43032020Y-178542330D01*
X43215686Y-178542430D01*
X43379991Y-178542592D01*
X43526029Y-178542829D01*
X43654894Y-178543153D01*
X43767683Y-178543575D01*
X43865488Y-178544109D01*
X43949404Y-178544767D01*
X44020527Y-178545561D01*
X44079950Y-178546504D01*
X44128768Y-178547608D01*
X44168077Y-178548884D01*
X44198969Y-178550347D01*
X44222541Y-178552007D01*
X44239886Y-178553878D01*
X44252099Y-178555972D01*
X44260275Y-178558300D01*
X44265508Y-178560876D01*
X44271504Y-178564445D01*
X44278279Y-178567978D01*
X44284478Y-178571488D01*
X44290126Y-178575918D01*
X44295247Y-178582208D01*
X44299869Y-178591301D01*
X44304015Y-178604139D01*
X44307713Y-178621662D01*
X44310987Y-178644813D01*
X44313863Y-178674534D01*
X44316367Y-178711765D01*
X44318524Y-178757449D01*
X44320360Y-178812527D01*
X44321900Y-178877941D01*
X44323170Y-178954633D01*
X44324195Y-179043544D01*
X44325001Y-179145617D01*
X44325034Y-179151867D01*
X44325614Y-179261792D01*
G37*
D10*
%TO.C,A1*%
X26924000Y-131064000D02*
X26924000Y-184404000D01*
X26924000Y-131064000D02*
X124460000Y-131064000D01*
X26924000Y-184404000D02*
X125984000Y-184404000D01*
X124460000Y-131064000D02*
X125984000Y-132588000D01*
X125984000Y-143764000D02*
X125984000Y-132588000D01*
X125984000Y-183134000D02*
X128524000Y-180594000D01*
X125984000Y-184404000D02*
X125984000Y-183134000D01*
X128524000Y-146304000D02*
X125984000Y-143764000D01*
X128524000Y-180594000D02*
X128524000Y-146304000D01*
D12*
%TO.C,C4*%
X63870000Y-172727252D02*
X63870000Y-172204748D01*
X65340000Y-172727252D02*
X65340000Y-172204748D01*
%TO.C,U14*%
X86197300Y-136060200D02*
X90057300Y-136060200D01*
X86197300Y-136295200D02*
X86197300Y-136060200D01*
X86197300Y-148845200D02*
X86197300Y-149080200D01*
X86197300Y-149080200D02*
X90057300Y-149080200D01*
X93917300Y-136060200D02*
X90057300Y-136060200D01*
X93917300Y-136295200D02*
X93917300Y-136060200D01*
X93917300Y-148845200D02*
X93917300Y-149080200D01*
X93917300Y-149080200D02*
X90057300Y-149080200D01*
X94707300Y-136295200D02*
X94367300Y-135825200D01*
X95047300Y-135825200D01*
X94707300Y-136295200D01*
G36*
X94707300Y-136295200D02*
G01*
X94367300Y-135825200D01*
X95047300Y-135825200D01*
X94707300Y-136295200D01*
G37*
%TO.C,C8*%
X72900000Y-172727252D02*
X72900000Y-172204748D01*
X74370000Y-172727252D02*
X74370000Y-172204748D01*
%TO.C,U4*%
X84156000Y-152369200D02*
X86106000Y-152369200D01*
X84156000Y-162489200D02*
X86106000Y-162489200D01*
X88056000Y-152369200D02*
X86106000Y-152369200D01*
X88056000Y-162489200D02*
X86106000Y-162489200D01*
X88806000Y-152424200D02*
X88566000Y-152094200D01*
X89046000Y-152094200D01*
X88806000Y-152424200D01*
G36*
X88806000Y-152424200D02*
G01*
X88566000Y-152094200D01*
X89046000Y-152094200D01*
X88806000Y-152424200D01*
G37*
%TO.C,R1*%
X46263764Y-161251000D02*
X45809636Y-161251000D01*
X46263764Y-162721000D02*
X45809636Y-162721000D01*
%TO.C,C7*%
X69890000Y-172727252D02*
X69890000Y-172204748D01*
X71360000Y-172727252D02*
X71360000Y-172204748D01*
%TO.C,U12*%
X59612000Y-136060200D02*
X63472000Y-136060200D01*
X59612000Y-136295200D02*
X59612000Y-136060200D01*
X59612000Y-148845200D02*
X59612000Y-149080200D01*
X59612000Y-149080200D02*
X63472000Y-149080200D01*
X67332000Y-136060200D02*
X63472000Y-136060200D01*
X67332000Y-136295200D02*
X67332000Y-136060200D01*
X67332000Y-148845200D02*
X67332000Y-149080200D01*
X67332000Y-149080200D02*
X63472000Y-149080200D01*
X68122000Y-136295200D02*
X67782000Y-135825200D01*
X68462000Y-135825200D01*
X68122000Y-136295200D01*
G36*
X68122000Y-136295200D02*
G01*
X67782000Y-135825200D01*
X68462000Y-135825200D01*
X68122000Y-136295200D01*
G37*
%TO.C,R8*%
X46263764Y-158965000D02*
X45809636Y-158965000D01*
X46263764Y-160435000D02*
X45809636Y-160435000D01*
%TO.C,R4*%
X46263764Y-163537000D02*
X45809636Y-163537000D01*
X46263764Y-165007000D02*
X45809636Y-165007000D01*
%TO.C,R2*%
X45809636Y-156679000D02*
X46263764Y-156679000D01*
X45809636Y-158149000D02*
X46263764Y-158149000D01*
%TO.C,C9*%
X31340200Y-141211000D02*
X31340200Y-149071000D01*
X31340200Y-149071000D02*
X35360200Y-149071000D01*
X35360200Y-149071000D02*
X35360200Y-141211000D01*
%TO.C,C6*%
X105762200Y-169811400D02*
X105762200Y-177671400D01*
X105762200Y-177671400D02*
X109782200Y-177671400D01*
X109782200Y-177671400D02*
X109782200Y-169811400D01*
%TO.C,U3*%
X94712800Y-152140600D02*
X96662800Y-152140600D01*
X94712800Y-162260600D02*
X96662800Y-162260600D01*
X98612800Y-152140600D02*
X96662800Y-152140600D01*
X98612800Y-162260600D02*
X96662800Y-162260600D01*
X99362800Y-152195600D02*
X99122800Y-151865600D01*
X99602800Y-151865600D01*
X99362800Y-152195600D01*
G36*
X99362800Y-152195600D02*
G01*
X99122800Y-151865600D01*
X99602800Y-151865600D01*
X99362800Y-152195600D01*
G37*
%TO.C,C5*%
X66880000Y-172727252D02*
X66880000Y-172204748D01*
X68350000Y-172727252D02*
X68350000Y-172204748D01*
%TO.C,C1*%
X54840000Y-172727252D02*
X54840000Y-172204748D01*
X56310000Y-172727252D02*
X56310000Y-172204748D01*
%TO.C,U1*%
X105706900Y-148349800D02*
X110896900Y-148349800D01*
X105706900Y-148729800D02*
X105706900Y-148349800D01*
X105706900Y-166599800D02*
X105706900Y-166979800D01*
X105706900Y-166979800D02*
X110896900Y-166979800D01*
X116086900Y-148349800D02*
X110896900Y-148349800D01*
X116086900Y-148729800D02*
X116086900Y-148349800D01*
X116086900Y-166599800D02*
X116086900Y-166979800D01*
X116086900Y-166979800D02*
X110896900Y-166979800D01*
X116611900Y-148729800D02*
X116371900Y-148399800D01*
X116851900Y-148399800D01*
X116611900Y-148729800D01*
G36*
X116611900Y-148729800D02*
G01*
X116371900Y-148399800D01*
X116851900Y-148399800D01*
X116611900Y-148729800D01*
G37*
%TO.C,R5*%
X45809636Y-154393000D02*
X46263764Y-154393000D01*
X45809636Y-155863000D02*
X46263764Y-155863000D01*
%TO.C,R7*%
X45809636Y-165823000D02*
X46263764Y-165823000D01*
X45809636Y-167293000D02*
X46263764Y-167293000D01*
%TO.C,C3*%
X60860000Y-172727252D02*
X60860000Y-172204748D01*
X62330000Y-172727252D02*
X62330000Y-172204748D01*
%TO.C,R11*%
X33639564Y-150915000D02*
X33185436Y-150915000D01*
X33639564Y-152385000D02*
X33185436Y-152385000D01*
%TO.C,U13*%
X72904700Y-136060200D02*
X76764700Y-136060200D01*
X72904700Y-136295200D02*
X72904700Y-136060200D01*
X72904700Y-148845200D02*
X72904700Y-149080200D01*
X72904700Y-149080200D02*
X76764700Y-149080200D01*
X80624700Y-136060200D02*
X76764700Y-136060200D01*
X80624700Y-136295200D02*
X80624700Y-136060200D01*
X80624700Y-148845200D02*
X80624700Y-149080200D01*
X80624700Y-149080200D02*
X76764700Y-149080200D01*
X81414700Y-136295200D02*
X81074700Y-135825200D01*
X81754700Y-135825200D01*
X81414700Y-136295200D01*
G36*
X81414700Y-136295200D02*
G01*
X81074700Y-135825200D01*
X81754700Y-135825200D01*
X81414700Y-136295200D01*
G37*
%TO.C,U11*%
X46319300Y-136060200D02*
X50179300Y-136060200D01*
X46319300Y-136295200D02*
X46319300Y-136060200D01*
X46319300Y-148845200D02*
X46319300Y-149080200D01*
X46319300Y-149080200D02*
X50179300Y-149080200D01*
X54039300Y-136060200D02*
X50179300Y-136060200D01*
X54039300Y-136295200D02*
X54039300Y-136060200D01*
X54039300Y-148845200D02*
X54039300Y-149080200D01*
X54039300Y-149080200D02*
X50179300Y-149080200D01*
X54829300Y-136295200D02*
X54489300Y-135825200D01*
X55169300Y-135825200D01*
X54829300Y-136295200D01*
G36*
X54829300Y-136295200D02*
G01*
X54489300Y-135825200D01*
X55169300Y-135825200D01*
X54829300Y-136295200D01*
G37*
%TO.C,C2*%
X57850000Y-172727252D02*
X57850000Y-172204748D01*
X59320000Y-172727252D02*
X59320000Y-172204748D01*
%TO.C,R6*%
X45809636Y-149871800D02*
X46263764Y-149871800D01*
X45809636Y-151341800D02*
X46263764Y-151341800D01*
%TO.C,R12*%
X33639564Y-153709000D02*
X33185436Y-153709000D01*
X33639564Y-155179000D02*
X33185436Y-155179000D01*
%TO.C,R10*%
X102064564Y-147515000D02*
X101610436Y-147515000D01*
X102064564Y-148985000D02*
X101610436Y-148985000D01*
%TO.C,R3*%
X45809636Y-152157800D02*
X46263764Y-152157800D01*
X45809636Y-153627800D02*
X46263764Y-153627800D01*
%TD*%
M02*
