%TF.GenerationSoftware,KiCad,Pcbnew,8.0.4+dfsg-1*%
%TF.CreationDate,2024-11-13T23:12:41-05:00*%
%TF.ProjectId,VGA_SRAM_Shield,5647415f-5352-4414-9d5f-536869656c64,rev?*%
%TF.SameCoordinates,Original*%
%TF.FileFunction,Copper,L1,Top*%
%TF.FilePolarity,Positive*%
%FSLAX46Y46*%
G04 Gerber Fmt 4.6, Leading zero omitted, Abs format (unit mm)*
G04 Created by KiCad (PCBNEW 8.0.4+dfsg-1) date 2024-11-13 23:12:41*
%MOMM*%
%LPD*%
G01*
G04 APERTURE LIST*
G04 Aperture macros list*
%AMRoundRect*
0 Rectangle with rounded corners*
0 $1 Rounding radius*
0 $2 $3 $4 $5 $6 $7 $8 $9 X,Y pos of 4 corners*
0 Add a 4 corners polygon primitive as box body*
4,1,4,$2,$3,$4,$5,$6,$7,$8,$9,$2,$3,0*
0 Add four circle primitives for the rounded corners*
1,1,$1+$1,$2,$3*
1,1,$1+$1,$4,$5*
1,1,$1+$1,$6,$7*
1,1,$1+$1,$8,$9*
0 Add four rect primitives between the rounded corners*
20,1,$1+$1,$2,$3,$4,$5,0*
20,1,$1+$1,$4,$5,$6,$7,0*
20,1,$1+$1,$6,$7,$8,$9,0*
20,1,$1+$1,$8,$9,$2,$3,0*%
G04 Aperture macros list end*
%TA.AperFunction,SMDPad,CuDef*%
%ADD10RoundRect,0.150000X0.150000X-0.725000X0.150000X0.725000X-0.150000X0.725000X-0.150000X-0.725000X0*%
%TD*%
%TA.AperFunction,ComponentPad*%
%ADD11R,1.700000X1.700000*%
%TD*%
%TA.AperFunction,ComponentPad*%
%ADD12O,1.700000X1.700000*%
%TD*%
%TA.AperFunction,ComponentPad*%
%ADD13R,1.600000X1.500000*%
%TD*%
%TA.AperFunction,ComponentPad*%
%ADD14C,1.600000*%
%TD*%
%TA.AperFunction,ComponentPad*%
%ADD15C,3.000000*%
%TD*%
%TA.AperFunction,ComponentPad*%
%ADD16C,4.000000*%
%TD*%
%TA.AperFunction,ComponentPad*%
%ADD17R,1.600000X1.600000*%
%TD*%
%TA.AperFunction,ComponentPad*%
%ADD18O,1.600000X1.600000*%
%TD*%
%TA.AperFunction,ComponentPad*%
%ADD19O,1.727200X1.727200*%
%TD*%
%TA.AperFunction,ComponentPad*%
%ADD20R,1.727200X1.727200*%
%TD*%
%TA.AperFunction,SMDPad,CuDef*%
%ADD21RoundRect,0.150000X0.150000X-0.800000X0.150000X0.800000X-0.150000X0.800000X-0.150000X-0.800000X0*%
%TD*%
%TA.AperFunction,SMDPad,CuDef*%
%ADD22RoundRect,0.150000X-0.825000X-0.150000X0.825000X-0.150000X0.825000X0.150000X-0.825000X0.150000X0*%
%TD*%
%TA.AperFunction,SMDPad,CuDef*%
%ADD23RoundRect,0.150000X0.150000X-0.825000X0.150000X0.825000X-0.150000X0.825000X-0.150000X-0.825000X0*%
%TD*%
%TA.AperFunction,SMDPad,CuDef*%
%ADD24RoundRect,0.150000X-0.800000X-0.150000X0.800000X-0.150000X0.800000X0.150000X-0.800000X0.150000X0*%
%TD*%
%TA.AperFunction,ViaPad*%
%ADD25C,0.600000*%
%TD*%
%TA.AperFunction,Conductor*%
%ADD26C,0.200000*%
%TD*%
G04 APERTURE END LIST*
D10*
%TO.P,U7,1,~{MR}*%
%TO.N,~{V_RESET}*%
X92370000Y-164140000D03*
%TO.P,U7,2,CP*%
%TO.N,Net-(U3-~{MR})*%
X93640000Y-164140000D03*
%TO.P,U7,3,D0*%
%TO.N,unconnected-(U7-D0-Pad3)*%
X94910000Y-164140000D03*
%TO.P,U7,4,D1*%
%TO.N,unconnected-(U7-D1-Pad4)*%
X96180000Y-164140000D03*
%TO.P,U7,5,D2*%
%TO.N,unconnected-(U7-D2-Pad5)*%
X97450000Y-164140000D03*
%TO.P,U7,6,D3*%
%TO.N,unconnected-(U7-D3-Pad6)*%
X98720000Y-164140000D03*
%TO.P,U7,7,CEP*%
%TO.N,PWR*%
X99990000Y-164140000D03*
%TO.P,U7,8,GND*%
%TO.N,GND*%
X101260000Y-164140000D03*
%TO.P,U7,9,~{PE}*%
%TO.N,PWR*%
X101260000Y-158990000D03*
%TO.P,U7,10,CET*%
%TO.N,Net-(U6-TC)*%
X99990000Y-158990000D03*
%TO.P,U7,11,Q3*%
%TO.N,unconnected-(U7-Q3-Pad11)*%
X98720000Y-158990000D03*
%TO.P,U7,12,Q2*%
%TO.N,unconnected-(U7-Q2-Pad12)*%
X97450000Y-158990000D03*
%TO.P,U7,13,Q1*%
%TO.N,A18*%
X96180000Y-158990000D03*
%TO.P,U7,14,Q0*%
%TO.N,A17*%
X94910000Y-158990000D03*
%TO.P,U7,15,TC*%
%TO.N,unconnected-(U7-TC-Pad15)*%
X93640000Y-158990000D03*
%TO.P,U7,16,VCC*%
%TO.N,PWR*%
X92370000Y-158990000D03*
%TD*%
D11*
%TO.P,J2,1,Pin_1*%
%TO.N,PWR*%
X41700000Y-133625000D03*
D12*
%TO.P,J2,2,Pin_2*%
X39160000Y-133625000D03*
%TO.P,J2,3,Pin_3*%
%TO.N,GND*%
X41700000Y-136165000D03*
%TO.P,J2,4,Pin_4*%
X39160000Y-136165000D03*
%TD*%
D13*
%TO.P,J5,1,VBUS*%
%TO.N,PWR*%
X35355000Y-174390000D03*
D14*
%TO.P,J5,2,D-*%
%TO.N,Net-(A1-D18{slash}TX1)*%
X37855000Y-174390000D03*
%TO.P,J5,3,D+*%
%TO.N,Net-(A1-D19{slash}RX1)*%
X39855000Y-174390000D03*
%TO.P,J5,4,GND*%
%TO.N,GND*%
X42355000Y-174390000D03*
D15*
%TO.P,J5,5,Shield*%
X32285000Y-177100000D03*
X45425000Y-177100000D03*
%TD*%
D10*
%TO.P,U10,1,~{MR}*%
%TO.N,PWR*%
X92354400Y-155467200D03*
%TO.P,U10,2,CP*%
%TO.N,H_CLK*%
X93624400Y-155467200D03*
%TO.P,U10,3,D0*%
%TO.N,unconnected-(U10-D0-Pad3)*%
X94894400Y-155467200D03*
%TO.P,U10,4,D1*%
%TO.N,unconnected-(U10-D1-Pad4)*%
X96164400Y-155467200D03*
%TO.P,U10,5,D2*%
%TO.N,unconnected-(U10-D2-Pad5)*%
X97434400Y-155467200D03*
%TO.P,U10,6,D3*%
%TO.N,unconnected-(U10-D3-Pad6)*%
X98704400Y-155467200D03*
%TO.P,U10,7,CEP*%
%TO.N,PWR*%
X99974400Y-155467200D03*
%TO.P,U10,8,GND*%
%TO.N,GND*%
X101244400Y-155467200D03*
%TO.P,U10,9,~{PE}*%
%TO.N,PWR*%
X101244400Y-150317200D03*
%TO.P,U10,10,CET*%
X99974400Y-150317200D03*
%TO.P,U10,11,Q3*%
%TO.N,A3*%
X98704400Y-150317200D03*
%TO.P,U10,12,Q2*%
%TO.N,A2*%
X97434400Y-150317200D03*
%TO.P,U10,13,Q1*%
%TO.N,A1*%
X96164400Y-150317200D03*
%TO.P,U10,14,Q0*%
%TO.N,A0*%
X94894400Y-150317200D03*
%TO.P,U10,15,TC*%
%TO.N,Net-(U10-TC)*%
X93624400Y-150317200D03*
%TO.P,U10,16,VCC*%
%TO.N,PWR*%
X92354400Y-150317200D03*
%TD*%
D16*
%TO.P,J3,0*%
%TO.N,N/C*%
X40040000Y-142920000D03*
X40040000Y-167920000D03*
D17*
%TO.P,J3,1*%
%TO.N,Net-(J3-Pad1)*%
X41460000Y-159735000D03*
D14*
%TO.P,J3,2*%
%TO.N,Net-(J3-Pad2)*%
X41460000Y-157445000D03*
%TO.P,J3,3*%
%TO.N,Net-(J3-Pad3)*%
X41460000Y-155155000D03*
%TO.P,J3,4*%
%TO.N,unconnected-(J3-Pad4)*%
X41460000Y-152865000D03*
%TO.P,J3,5*%
%TO.N,GND*%
X41460000Y-150575000D03*
%TO.P,J3,6*%
X39480000Y-160880000D03*
%TO.P,J3,7*%
X39480000Y-158590000D03*
%TO.P,J3,8*%
X39480000Y-156300000D03*
%TO.P,J3,9*%
%TO.N,unconnected-(J3-Pad9)*%
X39480000Y-154010000D03*
%TO.P,J3,10*%
%TO.N,GND*%
X39480000Y-151720000D03*
%TO.P,J3,11*%
%TO.N,unconnected-(J3-Pad11)*%
X37500000Y-159735000D03*
%TO.P,J3,12*%
%TO.N,unconnected-(J3-Pad12)*%
X37500000Y-157445000D03*
%TO.P,J3,13*%
%TO.N,Net-(J3-Pad13)*%
X37500000Y-155155000D03*
%TO.P,J3,14*%
%TO.N,Net-(J3-Pad14)*%
X37500000Y-152865000D03*
%TO.P,J3,15*%
%TO.N,unconnected-(J3-Pad15)*%
X37500000Y-150575000D03*
%TD*%
D17*
%TO.P,X1,1,NC*%
%TO.N,unconnected-(X1-NC-Pad1)*%
X84836000Y-176657000D03*
D14*
%TO.P,X1,7,GND*%
%TO.N,GND*%
X100076000Y-176657000D03*
%TO.P,X1,8,OUT*%
%TO.N,H_CLK*%
X100076000Y-169037000D03*
%TO.P,X1,14,Vcc*%
%TO.N,PWR*%
X84836000Y-169037000D03*
%TD*%
D17*
%TO.P,U8,1,I1*%
%TO.N,A0*%
X49885600Y-164109400D03*
D18*
%TO.P,U8,2,I2*%
%TO.N,A1*%
X52425600Y-164109400D03*
%TO.P,U8,3,I3*%
%TO.N,A2*%
X54965600Y-164109400D03*
%TO.P,U8,4,I4*%
%TO.N,A3*%
X57505600Y-164109400D03*
%TO.P,U8,5,I5*%
%TO.N,A4*%
X60045600Y-164109400D03*
%TO.P,U8,6,I6*%
%TO.N,A5*%
X62585600Y-164109400D03*
%TO.P,U8,7,I7*%
%TO.N,A6*%
X65125600Y-164109400D03*
%TO.P,U8,8,I8*%
%TO.N,A7*%
X67665600Y-164109400D03*
%TO.P,U8,9,I9*%
%TO.N,A8*%
X70205600Y-164109400D03*
%TO.P,U8,10,I10*%
%TO.N,A9*%
X72745600Y-164109400D03*
%TO.P,U8,11,I11*%
%TO.N,unconnected-(U8-I11-Pad11)*%
X75285600Y-164109400D03*
%TO.P,U8,12,GND*%
%TO.N,GND*%
X77825600Y-164109400D03*
%TO.P,U8,13,I13*%
%TO.N,unconnected-(U8-I13-Pad13)*%
X77825600Y-153949400D03*
%TO.P,U8,14,IO14*%
%TO.N,unconnected-(U8-IO14-Pad14)*%
X75285600Y-153949400D03*
%TO.P,U8,15,IO15*%
%TO.N,unconnected-(U8-IO15-Pad15)*%
X72745600Y-153949400D03*
%TO.P,U8,16,IO16*%
%TO.N,H_VISIBLE*%
X70205600Y-153949400D03*
%TO.P,U8,17,IO17*%
%TO.N,unconnected-(U8-IO17-Pad17)*%
X67665600Y-153949400D03*
%TO.P,U8,18,IO18*%
%TO.N,~{H_SYNC}*%
X65125600Y-153949400D03*
%TO.P,U8,19,IO19*%
%TO.N,unconnected-(U8-IO19-Pad19)*%
X62585600Y-153949400D03*
%TO.P,U8,20,IO20*%
%TO.N,Net-(U3-~{MR})*%
X60045600Y-153949400D03*
%TO.P,U8,21,IO21*%
%TO.N,unconnected-(U8-IO21-Pad21)*%
X57505600Y-153949400D03*
%TO.P,U8,22,IO22*%
%TO.N,unconnected-(U8-IO22-Pad22)*%
X54965600Y-153949400D03*
%TO.P,U8,23,IO23*%
%TO.N,unconnected-(U8-IO23-Pad23)*%
X52425600Y-153949400D03*
%TO.P,U8,24,VCC*%
%TO.N,PWR*%
X49885600Y-153949400D03*
%TD*%
D19*
%TO.P,A1,*%
%TO.N,*%
X54864000Y-181864000D03*
%TO.P,A1,3V3,3.3V*%
%TO.N,unconnected-(A1-3.3V-Pad3V3)*%
X62484000Y-181864000D03*
%TO.P,A1,5V1,5V*%
%TO.N,unconnected-(A1-5V-Pad5V1)*%
X65024000Y-181864000D03*
%TO.P,A1,5V3,5V*%
%TO.N,unconnected-(A1-5V-Pad5V3)*%
X120904000Y-133604000D03*
%TO.P,A1,5V4,5V*%
%TO.N,unconnected-(A1-5V-Pad5V4)*%
X123444000Y-133604000D03*
%TO.P,A1,A0,A0*%
%TO.N,unconnected-(A1-PadA0)*%
X77724000Y-181864000D03*
%TO.P,A1,A1,A1*%
%TO.N,unconnected-(A1-PadA1)*%
X80264000Y-181864000D03*
%TO.P,A1,A2,A2*%
%TO.N,unconnected-(A1-PadA2)*%
X82804000Y-181864000D03*
%TO.P,A1,A3,A3*%
%TO.N,unconnected-(A1-PadA3)*%
X85344000Y-181864000D03*
%TO.P,A1,A4,A4*%
%TO.N,unconnected-(A1-PadA4)*%
X87884000Y-181864000D03*
%TO.P,A1,A5,A5*%
%TO.N,unconnected-(A1-PadA5)*%
X90424000Y-181864000D03*
%TO.P,A1,A6,A6*%
%TO.N,unconnected-(A1-PadA6)*%
X92964000Y-181864000D03*
%TO.P,A1,A7,A7*%
%TO.N,unconnected-(A1-PadA7)*%
X95504000Y-181864000D03*
%TO.P,A1,A8,A8*%
%TO.N,/MCUMEMADDR12*%
X100584000Y-181864000D03*
%TO.P,A1,A9,A9*%
%TO.N,/MCUMEMADDR13*%
X103124000Y-181864000D03*
%TO.P,A1,A10,A10*%
%TO.N,/MCUMEMADDR14*%
X105664000Y-181864000D03*
%TO.P,A1,A11,A11*%
%TO.N,/MCUMEMADDR15*%
X108204000Y-181864000D03*
%TO.P,A1,AREF,AREF*%
%TO.N,unconnected-(A1-PadAREF)*%
X50800000Y-133604000D03*
%TO.P,A1,CANR,CANRX*%
%TO.N,unconnected-(A1-CANRX-PadCANR)*%
X115824000Y-181864000D03*
%TO.P,A1,CANT,CANTX*%
%TO.N,unconnected-(A1-CANTX-PadCANT)*%
X118364000Y-181864000D03*
%TO.P,A1,D0,D0/RX0*%
%TO.N,unconnected-(A1-D0{slash}RX0-PadD0)*%
X90424000Y-133604000D03*
%TO.P,A1,D1,D1/TX0*%
%TO.N,unconnected-(A1-D1{slash}TX0-PadD1)*%
X87884000Y-133604000D03*
%TO.P,A1,D2,D2*%
%TO.N,/MCU OE*%
X85344000Y-133604000D03*
%TO.P,A1,D3,D3*%
%TO.N,/MCU CE*%
X82804000Y-133604000D03*
%TO.P,A1,D4,D4_CS1*%
%TO.N,/MCU WE*%
X80264000Y-133604000D03*
%TO.P,A1,D5,D5*%
%TO.N,unconnected-(A1-PadD5)*%
X77724000Y-133604000D03*
%TO.P,A1,D6,D6*%
%TO.N,/MCUMEMADDR19*%
X75184000Y-133604000D03*
%TO.P,A1,D7,D7*%
%TO.N,/MCUMEMADDR18*%
X72644000Y-133604000D03*
%TO.P,A1,D8,D8*%
%TO.N,/MCUMEMADDR17*%
X68580000Y-133604000D03*
%TO.P,A1,D9,D9*%
%TO.N,/MCUMEMADDR16*%
X66040000Y-133604000D03*
%TO.P,A1,D10,D10_CS0*%
%TO.N,unconnected-(A1-D10_CS0-PadD10)*%
X63500000Y-133604000D03*
%TO.P,A1,D11,D11*%
%TO.N,unconnected-(A1-PadD11)*%
X60960000Y-133604000D03*
%TO.P,A1,D12,D12*%
%TO.N,unconnected-(A1-PadD12)*%
X58420000Y-133604000D03*
%TO.P,A1,D13,D13*%
%TO.N,unconnected-(A1-PadD13)*%
X55880000Y-133604000D03*
%TO.P,A1,D14,D14/TX3*%
%TO.N,unconnected-(A1-D14{slash}TX3-PadD14)*%
X95504000Y-133604000D03*
%TO.P,A1,D15,D15/RX3*%
%TO.N,unconnected-(A1-D15{slash}RX3-PadD15)*%
X98044000Y-133604000D03*
%TO.P,A1,D16,D16/TX2*%
%TO.N,unconnected-(A1-D16{slash}TX2-PadD16)*%
X100584000Y-133604000D03*
%TO.P,A1,D17,D17/RX2*%
%TO.N,unconnected-(A1-D17{slash}RX2-PadD17)*%
X103124000Y-133604000D03*
%TO.P,A1,D18,D18/TX1*%
%TO.N,Net-(A1-D18{slash}TX1)*%
X105664000Y-133604000D03*
%TO.P,A1,D19,D19/RX1*%
%TO.N,Net-(A1-D19{slash}RX1)*%
X108204000Y-133604000D03*
%TO.P,A1,D20,D20/SDA*%
%TO.N,unconnected-(A1-D20{slash}SDA-PadD20)*%
X110744000Y-133604000D03*
%TO.P,A1,D21,D21/SCL*%
%TO.N,unconnected-(A1-D21{slash}SCL-PadD21)*%
X113284000Y-133604000D03*
%TO.P,A1,D22,D22*%
%TO.N,unconnected-(A1-PadD22)*%
X120904000Y-136144000D03*
%TO.P,A1,D23,D23*%
%TO.N,unconnected-(A1-PadD23)*%
X123444000Y-136144000D03*
%TO.P,A1,D24,D24*%
%TO.N,unconnected-(A1-PadD24)*%
X120904000Y-138684000D03*
%TO.P,A1,D25,D25*%
%TO.N,/MCUMEMADDR8*%
X123444000Y-138684000D03*
%TO.P,A1,D26,D26*%
%TO.N,/MCUMEMADDR9*%
X120904000Y-141224000D03*
%TO.P,A1,D27,D27*%
%TO.N,/MCUMEMADDR10*%
X123444000Y-141224000D03*
%TO.P,A1,D28,D28*%
%TO.N,/MCUMEMADDR11*%
X120904000Y-143764000D03*
%TO.P,A1,D29,D29*%
%TO.N,unconnected-(A1-PadD29)*%
X123444000Y-143764000D03*
%TO.P,A1,D30,D30*%
%TO.N,unconnected-(A1-PadD30)*%
X120904000Y-146304000D03*
%TO.P,A1,D31,D31*%
%TO.N,unconnected-(A1-PadD31)*%
X123444000Y-146304000D03*
%TO.P,A1,D32,D32*%
%TO.N,unconnected-(A1-PadD32)*%
X120904000Y-148844000D03*
%TO.P,A1,D33,D33*%
%TO.N,DATA0*%
X123444000Y-148844000D03*
%TO.P,A1,D34,D34*%
%TO.N,DATA1*%
X120904000Y-151384000D03*
%TO.P,A1,D35,D35*%
%TO.N,DATA2*%
X123444000Y-151384000D03*
%TO.P,A1,D36,D36*%
%TO.N,DATA3*%
X120904000Y-153924000D03*
%TO.P,A1,D37,D37*%
%TO.N,DATA4*%
X123444000Y-153924000D03*
%TO.P,A1,D38,D38*%
%TO.N,DATA5*%
X120904000Y-156464000D03*
%TO.P,A1,D39,D39*%
%TO.N,DATA6*%
X123444000Y-156464000D03*
%TO.P,A1,D40,D40*%
%TO.N,DATA7*%
X120904000Y-159004000D03*
%TO.P,A1,D41,D41*%
%TO.N,unconnected-(A1-PadD41)*%
X123444000Y-159004000D03*
%TO.P,A1,D42,D42*%
%TO.N,unconnected-(A1-PadD42)*%
X120904000Y-161544000D03*
%TO.P,A1,D43,D43*%
%TO.N,unconnected-(A1-PadD43)*%
X123444000Y-161544000D03*
%TO.P,A1,D44,D44*%
%TO.N,/MCUMEMADDR7*%
X120904000Y-164084000D03*
%TO.P,A1,D45,D45*%
%TO.N,/MCUMEMADDR6*%
X123444000Y-164084000D03*
%TO.P,A1,D46,D46*%
%TO.N,/MCUMEMADDR5*%
X120904000Y-166624000D03*
%TO.P,A1,D47,D47*%
%TO.N,/MCUMEMADDR4*%
X123444000Y-166624000D03*
%TO.P,A1,D48,D48*%
%TO.N,/MCUMEMADDR3*%
X120904000Y-169164000D03*
%TO.P,A1,D49,D49*%
%TO.N,/MCUMEMADDR2*%
X123444000Y-169164000D03*
%TO.P,A1,D50,D50*%
%TO.N,/MCUMEMADDR1*%
X120904000Y-171704000D03*
%TO.P,A1,D51,D51*%
%TO.N,/MCUMEMADDR0*%
X123444000Y-171704000D03*
%TO.P,A1,D52,D52_CS2*%
%TO.N,unconnected-(A1-D52_CS2-PadD52)*%
X120904000Y-174244000D03*
%TO.P,A1,D53,D53*%
%TO.N,unconnected-(A1-PadD53)*%
X123444000Y-174244000D03*
%TO.P,A1,DAC0,DAC0*%
%TO.N,unconnected-(A1-PadDAC0)*%
X110744000Y-181864000D03*
%TO.P,A1,DAC1,DAC1*%
%TO.N,unconnected-(A1-PadDAC1)*%
X113284000Y-181864000D03*
D20*
%TO.P,A1,GND1,GND*%
%TO.N,GND*%
X53340000Y-133604000D03*
%TO.P,A1,GND2,GND*%
X67564000Y-181864000D03*
%TO.P,A1,GND3,GND*%
X70104000Y-181864000D03*
%TO.P,A1,GND5,GND*%
X120904000Y-176784000D03*
%TO.P,A1,GND6,GND*%
X123444000Y-176784000D03*
D19*
%TO.P,A1,IORF,IOREF*%
%TO.N,unconnected-(A1-IOREF-PadIORF)*%
X57404000Y-181864000D03*
%TO.P,A1,RST1,RESET*%
%TO.N,unconnected-(A1-RESET-PadRST1)*%
X59944000Y-181864000D03*
%TO.P,A1,SCL1,SCL1*%
%TO.N,unconnected-(A1-PadSCL1)*%
X45720000Y-133604000D03*
%TO.P,A1,SDA1,SDA1*%
%TO.N,unconnected-(A1-PadSDA1)*%
X48260000Y-133604000D03*
%TO.P,A1,VIN,VIN*%
%TO.N,PWR*%
X72644000Y-181864000D03*
%TD*%
D21*
%TO.P,U2,1,A->B*%
%TO.N,PWR*%
X105460800Y-178054000D03*
%TO.P,U2,2,A0*%
%TO.N,DATA7*%
X106730800Y-178054000D03*
%TO.P,U2,3,A1*%
%TO.N,DATA6*%
X108000800Y-178054000D03*
%TO.P,U2,4,A2*%
%TO.N,DATA5*%
X109270800Y-178054000D03*
%TO.P,U2,5,A3*%
%TO.N,DATA4*%
X110540800Y-178054000D03*
%TO.P,U2,6,A4*%
%TO.N,DATA3*%
X111810800Y-178054000D03*
%TO.P,U2,7,A5*%
%TO.N,DATA2*%
X113080800Y-178054000D03*
%TO.P,U2,8,A6*%
%TO.N,DATA1*%
X114350800Y-178054000D03*
%TO.P,U2,9,A7*%
%TO.N,DATA0*%
X115620800Y-178054000D03*
%TO.P,U2,10,GND*%
%TO.N,GND*%
X116890800Y-178054000D03*
%TO.P,U2,11,B7*%
%TO.N,Net-(U2-B7)*%
X116890800Y-168854000D03*
%TO.P,U2,12,B6*%
%TO.N,Net-(U2-B6)*%
X115620800Y-168854000D03*
%TO.P,U2,13,B5*%
%TO.N,Net-(U2-B5)*%
X114350800Y-168854000D03*
%TO.P,U2,14,B4*%
%TO.N,Net-(U2-B4)*%
X113080800Y-168854000D03*
%TO.P,U2,15,B3*%
%TO.N,Net-(U2-B3)*%
X111810800Y-168854000D03*
%TO.P,U2,16,B2*%
%TO.N,Net-(U2-B2)*%
X110540800Y-168854000D03*
%TO.P,U2,17,B1*%
%TO.N,Net-(U2-B1)*%
X109270800Y-168854000D03*
%TO.P,U2,18,B0*%
%TO.N,Net-(U2-B0)*%
X108000800Y-168854000D03*
%TO.P,U2,19,CE*%
%TO.N,~{VGA_OUT}*%
X106730800Y-168854000D03*
%TO.P,U2,20,VCC*%
%TO.N,PWR*%
X105460800Y-168854000D03*
%TD*%
D22*
%TO.P,U19,1*%
%TO.N,/MCU OE*%
X90833400Y-137287000D03*
%TO.P,U19,2*%
%TO.N,~{MCU OE}*%
X90833400Y-138557000D03*
%TO.P,U19,3*%
%TO.N,/MCU CE*%
X90833400Y-139827000D03*
%TO.P,U19,4*%
%TO.N,Net-(U11-CE)*%
X90833400Y-141097000D03*
%TO.P,U19,5*%
%TO.N,/MCU WE*%
X90833400Y-142367000D03*
%TO.P,U19,6*%
%TO.N,Net-(U1-~{WE})*%
X90833400Y-143637000D03*
%TO.P,U19,7,GND*%
%TO.N,GND*%
X90833400Y-144907000D03*
%TO.P,U19,8*%
%TO.N,unconnected-(U19-Pad8)*%
X95783400Y-144907000D03*
%TO.P,U19,9*%
%TO.N,unconnected-(U19-Pad9)*%
X95783400Y-143637000D03*
%TO.P,U19,10*%
%TO.N,unconnected-(U19-Pad10)*%
X95783400Y-142367000D03*
%TO.P,U19,11*%
%TO.N,unconnected-(U19-Pad11)*%
X95783400Y-141097000D03*
%TO.P,U19,12*%
%TO.N,unconnected-(U19-Pad12)*%
X95783400Y-139827000D03*
%TO.P,U19,13*%
%TO.N,unconnected-(U19-Pad13)*%
X95783400Y-138557000D03*
%TO.P,U19,14,VCC*%
%TO.N,PWR*%
X95783400Y-137287000D03*
%TD*%
D10*
%TO.P,U5,1,~{MR}*%
%TO.N,~{V_RESET}*%
X81229200Y-155441800D03*
%TO.P,U5,2,CP*%
%TO.N,Net-(U3-~{MR})*%
X82499200Y-155441800D03*
%TO.P,U5,3,D0*%
%TO.N,unconnected-(U5-D0-Pad3)*%
X83769200Y-155441800D03*
%TO.P,U5,4,D1*%
%TO.N,unconnected-(U5-D1-Pad4)*%
X85039200Y-155441800D03*
%TO.P,U5,5,D2*%
%TO.N,unconnected-(U5-D2-Pad5)*%
X86309200Y-155441800D03*
%TO.P,U5,6,D3*%
%TO.N,unconnected-(U5-D3-Pad6)*%
X87579200Y-155441800D03*
%TO.P,U5,7,CEP*%
%TO.N,PWR*%
X88849200Y-155441800D03*
%TO.P,U5,8,GND*%
%TO.N,GND*%
X90119200Y-155441800D03*
%TO.P,U5,9,~{PE}*%
%TO.N,PWR*%
X90119200Y-150291800D03*
%TO.P,U5,10,CET*%
%TO.N,Net-(U4-TC)*%
X88849200Y-150291800D03*
%TO.P,U5,11,Q3*%
%TO.N,A12*%
X87579200Y-150291800D03*
%TO.P,U5,12,Q2*%
%TO.N,A11*%
X86309200Y-150291800D03*
%TO.P,U5,13,Q1*%
%TO.N,A10*%
X85039200Y-150291800D03*
%TO.P,U5,14,Q0*%
%TO.N,Net-(U5-Q0)*%
X83769200Y-150291800D03*
%TO.P,U5,15,TC*%
%TO.N,Net-(U5-TC)*%
X82499200Y-150291800D03*
%TO.P,U5,16,VCC*%
%TO.N,PWR*%
X81229200Y-150291800D03*
%TD*%
D23*
%TO.P,U16,1*%
%TO.N,~{MCU OE}*%
X108051600Y-153289000D03*
%TO.P,U16,2*%
%TO.N,~{TIMING ADDR}*%
X109321600Y-153289000D03*
%TO.P,U16,3*%
%TO.N,~{OE}*%
X110591600Y-153289000D03*
%TO.P,U16,4*%
%TO.N,unconnected-(U16-Pad4)*%
X111861600Y-153289000D03*
%TO.P,U16,5*%
%TO.N,unconnected-(U16-Pad5)*%
X113131600Y-153289000D03*
%TO.P,U16,6*%
%TO.N,unconnected-(U16-Pad6)*%
X114401600Y-153289000D03*
%TO.P,U16,7,GND*%
%TO.N,GND*%
X115671600Y-153289000D03*
%TO.P,U16,8*%
%TO.N,Net-(U16-Pad8)*%
X115671600Y-148339000D03*
%TO.P,U16,9*%
%TO.N,Net-(U11-CE)*%
X114401600Y-148339000D03*
%TO.P,U16,10*%
%TO.N,Net-(U1-~{WE})*%
X113131600Y-148339000D03*
%TO.P,U16,11*%
%TO.N,unconnected-(U16-Pad11)*%
X111861600Y-148339000D03*
%TO.P,U16,12*%
%TO.N,unconnected-(U16-Pad12)*%
X110591600Y-148339000D03*
%TO.P,U16,13*%
%TO.N,unconnected-(U16-Pad13)*%
X109321600Y-148339000D03*
%TO.P,U16,14,VCC*%
%TO.N,PWR*%
X108051600Y-148339000D03*
%TD*%
%TO.P,U15,1*%
%TO.N,~{TIMING ADDR}*%
X108051600Y-162966400D03*
%TO.P,U15,2*%
%TO.N,~{SCREEN_VISIBLE}*%
X109321600Y-162966400D03*
%TO.P,U15,3*%
%TO.N,~{VGA_OUT}*%
X110591600Y-162966400D03*
%TO.P,U15,4*%
%TO.N,unconnected-(U15-Pad4)*%
X111861600Y-162966400D03*
%TO.P,U15,5*%
%TO.N,unconnected-(U15-Pad5)*%
X113131600Y-162966400D03*
%TO.P,U15,6*%
%TO.N,unconnected-(U15-Pad6)*%
X114401600Y-162966400D03*
%TO.P,U15,7,GND*%
%TO.N,GND*%
X115671600Y-162966400D03*
%TO.P,U15,8*%
%TO.N,unconnected-(U15-Pad8)*%
X115671600Y-158016400D03*
%TO.P,U15,9*%
%TO.N,unconnected-(U15-Pad9)*%
X114401600Y-158016400D03*
%TO.P,U15,10*%
%TO.N,unconnected-(U15-Pad10)*%
X113131600Y-158016400D03*
%TO.P,U15,11*%
%TO.N,unconnected-(U15-Pad11)*%
X111861600Y-158016400D03*
%TO.P,U15,12*%
%TO.N,unconnected-(U15-Pad12)*%
X110591600Y-158016400D03*
%TO.P,U15,13*%
%TO.N,unconnected-(U15-Pad13)*%
X109321600Y-158016400D03*
%TO.P,U15,14,VCC*%
%TO.N,PWR*%
X108051600Y-158016400D03*
%TD*%
D11*
%TO.P,J1,1,Pin_1*%
%TO.N,~{H_SYNC}*%
X103124000Y-138328400D03*
D12*
%TO.P,J1,2,Pin_2*%
%TO.N,H_VISIBLE*%
X100584000Y-138328400D03*
%TO.P,J1,3,Pin_3*%
%TO.N,~{SCREEN_VISIBLE}*%
X103124000Y-140868400D03*
%TO.P,J1,4,Pin_4*%
%TO.N,~{V_RESET}*%
X100584000Y-140868400D03*
%TO.P,J1,5,Pin_5*%
%TO.N,GND*%
X103124000Y-143408400D03*
%TO.P,J1,6,Pin_6*%
%TO.N,~{V_SYNC}*%
X100584000Y-143408400D03*
%TO.P,J1,7,Pin_7*%
%TO.N,V_FRONT_PORCH*%
X103124000Y-145948400D03*
%TO.P,J1,8,Pin_8*%
%TO.N,~{V_VISIBLE}*%
X100584000Y-145948400D03*
%TD*%
D10*
%TO.P,U6,1,~{MR}*%
%TO.N,~{V_RESET}*%
X81330800Y-164128600D03*
%TO.P,U6,2,CP*%
%TO.N,Net-(U3-~{MR})*%
X82600800Y-164128600D03*
%TO.P,U6,3,D0*%
%TO.N,unconnected-(U6-D0-Pad3)*%
X83870800Y-164128600D03*
%TO.P,U6,4,D1*%
%TO.N,unconnected-(U6-D1-Pad4)*%
X85140800Y-164128600D03*
%TO.P,U6,5,D2*%
%TO.N,unconnected-(U6-D2-Pad5)*%
X86410800Y-164128600D03*
%TO.P,U6,6,D3*%
%TO.N,unconnected-(U6-D3-Pad6)*%
X87680800Y-164128600D03*
%TO.P,U6,7,CEP*%
%TO.N,PWR*%
X88950800Y-164128600D03*
%TO.P,U6,8,GND*%
%TO.N,GND*%
X90220800Y-164128600D03*
%TO.P,U6,9,~{PE}*%
%TO.N,PWR*%
X90220800Y-158978600D03*
%TO.P,U6,10,CET*%
%TO.N,Net-(U5-TC)*%
X88950800Y-158978600D03*
%TO.P,U6,11,Q3*%
%TO.N,A16*%
X87680800Y-158978600D03*
%TO.P,U6,12,Q2*%
%TO.N,A15*%
X86410800Y-158978600D03*
%TO.P,U6,13,Q1*%
%TO.N,A14*%
X85140800Y-158978600D03*
%TO.P,U6,14,Q0*%
%TO.N,A13*%
X83870800Y-158978600D03*
%TO.P,U6,15,TC*%
%TO.N,Net-(U6-TC)*%
X82600800Y-158978600D03*
%TO.P,U6,16,VCC*%
%TO.N,PWR*%
X81330800Y-158978600D03*
%TD*%
D17*
%TO.P,U9,1,I1*%
%TO.N,Net-(U5-Q0)*%
X49885600Y-177927000D03*
D18*
%TO.P,U9,2,I2*%
%TO.N,A10*%
X52425600Y-177927000D03*
%TO.P,U9,3,I3*%
%TO.N,A11*%
X54965600Y-177927000D03*
%TO.P,U9,4,I4*%
%TO.N,A12*%
X57505600Y-177927000D03*
%TO.P,U9,5,I5*%
%TO.N,A13*%
X60045600Y-177927000D03*
%TO.P,U9,6,I6*%
%TO.N,A14*%
X62585600Y-177927000D03*
%TO.P,U9,7,I7*%
%TO.N,A15*%
X65125600Y-177927000D03*
%TO.P,U9,8,I8*%
%TO.N,A16*%
X67665600Y-177927000D03*
%TO.P,U9,9,I9*%
%TO.N,A17*%
X70205600Y-177927000D03*
%TO.P,U9,10,I10*%
%TO.N,A18*%
X72745600Y-177927000D03*
%TO.P,U9,11,I11*%
%TO.N,H_VISIBLE*%
X75285600Y-177927000D03*
%TO.P,U9,12,GND*%
%TO.N,GND*%
X77825600Y-177927000D03*
%TO.P,U9,13,I13*%
%TO.N,unconnected-(U9-I13-Pad13)*%
X77825600Y-167767000D03*
%TO.P,U9,14,IO14*%
%TO.N,~{V_VISIBLE}*%
X75285600Y-167767000D03*
%TO.P,U9,15,IO15*%
%TO.N,V_FRONT_PORCH*%
X72745600Y-167767000D03*
%TO.P,U9,16,IO16*%
%TO.N,~{V_SYNC}*%
X70205600Y-167767000D03*
%TO.P,U9,17,IO17*%
%TO.N,unconnected-(U9-IO17-Pad17)*%
X67665600Y-167767000D03*
%TO.P,U9,18,IO18*%
%TO.N,unconnected-(U9-IO18-Pad18)*%
X65125600Y-167767000D03*
%TO.P,U9,19,IO19*%
%TO.N,unconnected-(U9-IO19-Pad19)*%
X62585600Y-167767000D03*
%TO.P,U9,20,IO20*%
%TO.N,~{V_RESET}*%
X60045600Y-167767000D03*
%TO.P,U9,21,IO21*%
%TO.N,~{SCREEN_VISIBLE}*%
X57505600Y-167767000D03*
%TO.P,U9,22,IO22*%
%TO.N,unconnected-(U9-IO22-Pad22)*%
X54965600Y-167767000D03*
%TO.P,U9,23,IO23*%
%TO.N,unconnected-(U9-IO23-Pad23)*%
X52425600Y-167767000D03*
%TO.P,U9,24,VCC*%
%TO.N,PWR*%
X49885600Y-167767000D03*
%TD*%
D24*
%TO.P,U18,1,A->B*%
%TO.N,PWR*%
X64333000Y-136615400D03*
%TO.P,U18,2,A0*%
%TO.N,/MCUMEMADDR16*%
X64333000Y-137885400D03*
%TO.P,U18,3,A1*%
%TO.N,/MCUMEMADDR17*%
X64333000Y-139155400D03*
%TO.P,U18,4,A2*%
%TO.N,/MCUMEMADDR18*%
X64333000Y-140425400D03*
%TO.P,U18,5,A3*%
%TO.N,/MCUMEMADDR19*%
X64333000Y-141695400D03*
%TO.P,U18,6,A4*%
%TO.N,unconnected-(U18-A4-Pad6)*%
X64333000Y-142965400D03*
%TO.P,U18,7,A5*%
%TO.N,unconnected-(U18-A5-Pad7)*%
X64333000Y-144235400D03*
%TO.P,U18,8,A6*%
%TO.N,unconnected-(U18-A6-Pad8)*%
X64333000Y-145505400D03*
%TO.P,U18,9,A7*%
%TO.N,unconnected-(U18-A7-Pad9)*%
X64333000Y-146775400D03*
%TO.P,U18,10,GND*%
%TO.N,GND*%
X64333000Y-148045400D03*
%TO.P,U18,11,B7*%
%TO.N,unconnected-(U18-B7-Pad11)*%
X73533000Y-148045400D03*
%TO.P,U18,12,B6*%
%TO.N,unconnected-(U18-B6-Pad12)*%
X73533000Y-146775400D03*
%TO.P,U18,13,B5*%
%TO.N,unconnected-(U18-B5-Pad13)*%
X73533000Y-145505400D03*
%TO.P,U18,14,B4*%
%TO.N,unconnected-(U18-B4-Pad14)*%
X73533000Y-144235400D03*
%TO.P,U18,15,B3*%
%TO.N,MEMADDR19*%
X73533000Y-142965400D03*
%TO.P,U18,16,B2*%
%TO.N,MEMADDR18*%
X73533000Y-141695400D03*
%TO.P,U18,17,B1*%
%TO.N,MEMADDR17*%
X73533000Y-140425400D03*
%TO.P,U18,18,B0*%
%TO.N,MEMADDR16*%
X73533000Y-139155400D03*
%TO.P,U18,19,CE*%
%TO.N,Net-(U11-CE)*%
X73533000Y-137885400D03*
%TO.P,U18,20,VCC*%
%TO.N,PWR*%
X73533000Y-136615400D03*
%TD*%
D23*
%TO.P,U17,1*%
%TO.N,unconnected-(U17-Pad1)*%
X108051600Y-143611600D03*
%TO.P,U17,2*%
%TO.N,unconnected-(U17-Pad2)*%
X109321600Y-143611600D03*
%TO.P,U17,3*%
%TO.N,unconnected-(U17-Pad3)*%
X110591600Y-143611600D03*
%TO.P,U17,4*%
%TO.N,~{MCU OE}*%
X111861600Y-143611600D03*
%TO.P,U17,5*%
%TO.N,Net-(U16-Pad8)*%
X113131600Y-143611600D03*
%TO.P,U17,6*%
%TO.N,~{TIMING ADDR}*%
X114401600Y-143611600D03*
%TO.P,U17,7,GND*%
%TO.N,GND*%
X115671600Y-143611600D03*
%TO.P,U17,8*%
%TO.N,unconnected-(U17-Pad8)*%
X115671600Y-138661600D03*
%TO.P,U17,9*%
%TO.N,unconnected-(U17-Pad9)*%
X114401600Y-138661600D03*
%TO.P,U17,10*%
%TO.N,unconnected-(U17-Pad10)*%
X113131600Y-138661600D03*
%TO.P,U17,11*%
%TO.N,unconnected-(U17-Pad11)*%
X111861600Y-138661600D03*
%TO.P,U17,12*%
%TO.N,unconnected-(U17-Pad12)*%
X110591600Y-138661600D03*
%TO.P,U17,13*%
%TO.N,unconnected-(U17-Pad13)*%
X109321600Y-138661600D03*
%TO.P,U17,14,VCC*%
%TO.N,PWR*%
X108051600Y-138661600D03*
%TD*%
D24*
%TO.P,U20,1,A->B*%
%TO.N,PWR*%
X47724000Y-136615400D03*
%TO.P,U20,2,A0*%
%TO.N,A16*%
X47724000Y-137885400D03*
%TO.P,U20,3,A1*%
%TO.N,A17*%
X47724000Y-139155400D03*
%TO.P,U20,4,A2*%
%TO.N,A18*%
X47724000Y-140425400D03*
%TO.P,U20,5,A3*%
%TO.N,unconnected-(U20-A3-Pad5)*%
X47724000Y-141695400D03*
%TO.P,U20,6,A4*%
%TO.N,unconnected-(U20-A4-Pad6)*%
X47724000Y-142965400D03*
%TO.P,U20,7,A5*%
%TO.N,unconnected-(U20-A5-Pad7)*%
X47724000Y-144235400D03*
%TO.P,U20,8,A6*%
%TO.N,unconnected-(U20-A6-Pad8)*%
X47724000Y-145505400D03*
%TO.P,U20,9,A7*%
%TO.N,unconnected-(U20-A7-Pad9)*%
X47724000Y-146775400D03*
%TO.P,U20,10,GND*%
%TO.N,GND*%
X47724000Y-148045400D03*
%TO.P,U20,11,B7*%
%TO.N,unconnected-(U20-B7-Pad11)*%
X56924000Y-148045400D03*
%TO.P,U20,12,B6*%
%TO.N,unconnected-(U20-B6-Pad12)*%
X56924000Y-146775400D03*
%TO.P,U20,13,B5*%
%TO.N,unconnected-(U20-B5-Pad13)*%
X56924000Y-145505400D03*
%TO.P,U20,14,B4*%
%TO.N,unconnected-(U20-B4-Pad14)*%
X56924000Y-144235400D03*
%TO.P,U20,15,B3*%
%TO.N,unconnected-(U20-B3-Pad15)*%
X56924000Y-142965400D03*
%TO.P,U20,16,B2*%
%TO.N,MEMADDR18*%
X56924000Y-141695400D03*
%TO.P,U20,17,B1*%
%TO.N,MEMADDR17*%
X56924000Y-140425400D03*
%TO.P,U20,18,B0*%
%TO.N,MEMADDR16*%
X56924000Y-139155400D03*
%TO.P,U20,19,CE*%
%TO.N,~{TIMING ADDR}*%
X56924000Y-137885400D03*
%TO.P,U20,20,VCC*%
%TO.N,PWR*%
X56924000Y-136615400D03*
%TD*%
D25*
%TO.N,Net-(U11-CE)*%
X66094300Y-137550000D03*
X114190200Y-146851100D03*
%TO.N,Net-(U1-~{WE})*%
X118152300Y-160385800D03*
X97487400Y-142967800D03*
%TO.N,/MCUMEMADDR5*%
X56367000Y-157520100D03*
%TO.N,/MCUMEMADDR13*%
X66583600Y-144475200D03*
%TO.N,DATA2*%
X114522200Y-173628000D03*
X114443500Y-159651700D03*
%TO.N,/MCUMEMADDR12*%
X62528400Y-142760300D03*
%TO.N,DATA1*%
X113882100Y-176632600D03*
X108111400Y-155301700D03*
%TO.N,DATA5*%
X113158600Y-174740500D03*
%TO.N,/MCUMEMADDR15*%
X69530500Y-146996000D03*
%TO.N,/MCUMEMADDR14*%
X66610200Y-145914700D03*
%TO.N,/MCUMEMADDR10*%
X69539000Y-140402200D03*
%TO.N,/MCUMEMADDR8*%
X69614000Y-137455900D03*
%TO.N,DATA3*%
X114513200Y-174513100D03*
%TO.N,DATA0*%
X115850900Y-176599600D03*
X107224100Y-154389200D03*
%TO.N,~{TIMING ADDR}*%
X62029700Y-138138000D03*
X89143500Y-138142500D03*
%TO.N,/MCUMEMADDR1*%
X60479900Y-139738500D03*
%TO.N,/MCUMEMADDR11*%
X70577000Y-141772900D03*
%TO.N,/MCUMEMADDR6*%
X56321400Y-151826400D03*
%TO.N,/MCUMEMADDR0*%
X53320600Y-138125200D03*
%TO.N,/MCUMEMADDR19*%
X66379800Y-141735900D03*
%TO.N,/MCUMEMADDR18*%
X65786300Y-140425400D03*
%TO.N,/MCUMEMADDR3*%
X67321500Y-170474000D03*
%TO.N,DATA7*%
X115215100Y-156039400D03*
%TO.N,DATA4*%
X111601500Y-176066800D03*
%TO.N,A17*%
X87253800Y-161659100D03*
%TO.N,A18*%
X60361700Y-142296200D03*
X91772000Y-161531600D03*
%TO.N,A16*%
X86602300Y-157486900D03*
%TO.N,Net-(U10-TC)*%
X93469100Y-151880800D03*
%TO.N,A14*%
X84972100Y-161661100D03*
X82105700Y-151893400D03*
%TO.N,A15*%
X85305500Y-157452100D03*
%TO.N,A13*%
X82050100Y-160781200D03*
X80104900Y-150083100D03*
%TO.N,Net-(U6-TC)*%
X82334700Y-157452100D03*
X100547600Y-157317000D03*
%TO.N,A12*%
X86146200Y-152485700D03*
X87647000Y-147999100D03*
%TO.N,A11*%
X68577300Y-169271600D03*
X79969800Y-143706600D03*
%TO.N,A10*%
X82822200Y-139844400D03*
%TO.N,Net-(U5-Q0)*%
X68122600Y-170216100D03*
%TO.N,A9*%
X79104400Y-152812500D03*
%TO.N,Net-(U4-TC)*%
X85173400Y-153005500D03*
%TO.N,A7*%
X95897900Y-161673300D03*
X91553300Y-149273500D03*
%TO.N,A5*%
X91178700Y-162074500D03*
X95833900Y-153253000D03*
X90505600Y-148614600D03*
%TO.N,A4*%
X95896600Y-154053200D03*
X98647500Y-148163200D03*
X90457500Y-161661100D03*
%TO.N,A6*%
X96698100Y-161373800D03*
X91079500Y-149931300D03*
%TO.N,H_CLK*%
X92290000Y-154085700D03*
%TO.N,A3*%
X99847800Y-148552000D03*
X68267300Y-155237400D03*
%TO.N,A0*%
X89249500Y-143241500D03*
X56248300Y-149487400D03*
%TO.N,A2*%
X96910300Y-146426100D03*
X57753400Y-162595400D03*
X70822600Y-152562600D03*
%TO.N,A1*%
X91157000Y-146614100D03*
X73674300Y-150396900D03*
%TO.N,MEMADDR6*%
X49496800Y-150023800D03*
X102406100Y-150184000D03*
%TO.N,/MCUMEMADDR2*%
X54056600Y-156889800D03*
%TO.N,MEMADDR1*%
X114578900Y-151664800D03*
X86747700Y-140064100D03*
X49251900Y-140179900D03*
%TO.N,/MCUMEMADDR7*%
X55085200Y-151829200D03*
%TO.N,MEMADDR8*%
X104035000Y-153900500D03*
X75442700Y-140244500D03*
X62253000Y-140653800D03*
%TO.N,MEMADDR19*%
X112657400Y-160916900D03*
X83670600Y-143190400D03*
%TO.N,MEMADDR17*%
X107293200Y-159171700D03*
X74955300Y-140899600D03*
%TO.N,/MCUMEMADDR17*%
X65795500Y-139155400D03*
%TO.N,MEMADDR16*%
X108295100Y-161153600D03*
X78596200Y-141952600D03*
%TO.N,MEMADDR18*%
X111913800Y-161486800D03*
X76400700Y-141962500D03*
%TO.N,MEMADDR7*%
X84018000Y-151825300D03*
X47130000Y-149290000D03*
%TO.N,~{OE}*%
X109950600Y-154555700D03*
%TO.N,MEMADDR3*%
X86744600Y-142590300D03*
X97733400Y-139465200D03*
X49181700Y-143867400D03*
%TO.N,MEMADDR12*%
X103952200Y-164558600D03*
X74812600Y-144887300D03*
%TO.N,MEMADDR4*%
X88184900Y-142239700D03*
X50591700Y-143185400D03*
X115473900Y-146402900D03*
%TO.N,MEMADDR5*%
X82850200Y-143394400D03*
X49196500Y-146686800D03*
%TO.N,MEMADDR15*%
X111481900Y-164525700D03*
X77418200Y-157712900D03*
%TO.N,MEMADDR11*%
X103340800Y-160539500D03*
X70498200Y-143961500D03*
%TO.N,MEMADDR10*%
X103212300Y-162194000D03*
X75144000Y-144087100D03*
%TO.N,/MCUMEMADDR9*%
X70404000Y-140257900D03*
%TO.N,/MCUMEMADDR4*%
X62888300Y-166033100D03*
%TO.N,MEMADDR9*%
X104021600Y-162039200D03*
X74811000Y-142330400D03*
%TO.N,MEMADDR2*%
X83988400Y-141990100D03*
X49353700Y-143066700D03*
%TO.N,MEMADDR14*%
X98330500Y-166077800D03*
X74963400Y-146087600D03*
%TO.N,MEMADDR13*%
X99157000Y-165938400D03*
X75859800Y-145687500D03*
%TO.N,MEMADDR0*%
X113084100Y-151797100D03*
X87948000Y-139844400D03*
X49181000Y-139179600D03*
%TO.N,Net-(U2-B7)*%
X47860300Y-165646900D03*
X116263000Y-167007500D03*
%TO.N,Net-(U2-B6)*%
X47592500Y-160854100D03*
X114686000Y-167393000D03*
%TO.N,Net-(U2-B5)*%
X47971200Y-167065500D03*
X113258900Y-170320100D03*
%TO.N,Net-(U2-B4)*%
X48711500Y-156890300D03*
X113163700Y-167030600D03*
%TO.N,Net-(U2-B3)*%
X52316100Y-158348500D03*
X110862300Y-167036600D03*
%TO.N,Net-(U2-B2)*%
X44671400Y-168258200D03*
X110514100Y-170305400D03*
%TO.N,Net-(U2-B1)*%
X47843600Y-158308400D03*
X109361800Y-167017000D03*
%TO.N,Net-(U2-B0)*%
X55088500Y-161985400D03*
X107350200Y-167412700D03*
%TO.N,Net-(J3-Pad3)*%
X45853800Y-158484500D03*
%TO.N,Net-(J3-Pad2)*%
X47896000Y-163428200D03*
%TO.N,~{V_VISIBLE}*%
X79720500Y-151718500D03*
%TO.N,GND*%
X91027700Y-164128600D03*
X53953000Y-149128400D03*
X66011400Y-148029500D03*
X106574600Y-156966000D03*
X109671000Y-156001700D03*
X100051700Y-162464200D03*
X80273000Y-152863300D03*
%TO.N,~{SCREEN_VISIBLE}*%
X72402100Y-173304400D03*
X104511800Y-168646000D03*
%TO.N,~{V_RESET}*%
X80511600Y-163801900D03*
X78484800Y-149753700D03*
%TO.N,~{V_SYNC}*%
X35351100Y-154326200D03*
X69876300Y-157740100D03*
X74198900Y-151003900D03*
%TO.N,V_FRONT_PORCH*%
X75636700Y-152009900D03*
%TO.N,~{H_SYNC}*%
X35361400Y-151090400D03*
X72056000Y-151164000D03*
%TO.N,H_VISIBLE*%
X71919700Y-172002100D03*
%TO.N,Net-(U3-~{MR})*%
X85624300Y-154227100D03*
X56548500Y-172600400D03*
%TO.N,PWR*%
X82148900Y-153355900D03*
X96115400Y-136482500D03*
X73533000Y-135803200D03*
X105067700Y-170763000D03*
%TD*%
D26*
%TO.N,Net-(U11-CE)*%
X114401600Y-147062500D02*
X114401600Y-148339000D01*
X114190200Y-146851100D02*
X114401600Y-147062500D01*
X73360400Y-138058000D02*
X73533000Y-137885400D01*
X66602300Y-138058000D02*
X73360400Y-138058000D01*
X66094300Y-137550000D02*
X66602300Y-138058000D01*
X86932000Y-141097000D02*
X90833400Y-141097000D01*
X83720400Y-137885400D02*
X86932000Y-141097000D01*
X73533000Y-137885400D02*
X83720400Y-137885400D01*
%TO.N,Net-(U1-~{WE})*%
X113131600Y-149069400D02*
X113131600Y-148339000D01*
X118152300Y-154090100D02*
X113131600Y-149069400D01*
X118152300Y-160385800D02*
X118152300Y-154090100D01*
X91502600Y-142967800D02*
X97487400Y-142967800D01*
X90833400Y-143637000D02*
X91502600Y-142967800D01*
%TO.N,DATA2*%
X113080800Y-176585300D02*
X113080800Y-178054000D01*
X113633600Y-176032500D02*
X113080800Y-176585300D01*
X113901700Y-176032500D02*
X113633600Y-176032500D01*
X115152000Y-174782200D02*
X113901700Y-176032500D01*
X115152000Y-174257800D02*
X115152000Y-174782200D01*
X114522200Y-173628000D02*
X115152000Y-174257800D01*
%TO.N,/MCU OE*%
X86507700Y-133875300D02*
X86507700Y-133604000D01*
X89919400Y-137287000D02*
X86507700Y-133875300D01*
X90833400Y-137287000D02*
X89919400Y-137287000D01*
X85344000Y-133604000D02*
X86507700Y-133604000D01*
%TO.N,DATA1*%
X114350800Y-177101300D02*
X114350800Y-178054000D01*
X113882100Y-176632600D02*
X114350800Y-177101300D01*
%TO.N,DATA5*%
X109270800Y-177548900D02*
X109270800Y-178054000D01*
X112079200Y-174740500D02*
X109270800Y-177548900D01*
X113158600Y-174740500D02*
X112079200Y-174740500D01*
%TO.N,DATA3*%
X111810800Y-177215500D02*
X114513200Y-174513100D01*
X111810800Y-178054000D02*
X111810800Y-177215500D01*
%TO.N,DATA0*%
X115620800Y-176829700D02*
X115620800Y-178054000D01*
X115850900Y-176599600D02*
X115620800Y-176829700D01*
%TO.N,~{MCU OE}*%
X91188300Y-138557000D02*
X90833400Y-138557000D01*
X93093400Y-140462100D02*
X91188300Y-138557000D01*
X98139000Y-140462100D02*
X93093400Y-140462100D01*
X99815300Y-142138400D02*
X98139000Y-140462100D01*
X103679200Y-142138400D02*
X99815300Y-142138400D01*
X108686600Y-147145800D02*
X103679200Y-142138400D01*
X111861600Y-143970800D02*
X108686600Y-147145800D01*
X111861600Y-143611600D02*
X111861600Y-143970800D01*
X108686600Y-152654000D02*
X108051600Y-153289000D01*
X108686600Y-147145800D02*
X108686600Y-152654000D01*
%TO.N,Net-(U16-Pad8)*%
X115671600Y-147449100D02*
X115671600Y-148339000D01*
X113131600Y-144909100D02*
X115671600Y-147449100D01*
X113131600Y-143611600D02*
X113131600Y-144909100D01*
%TO.N,~{TIMING ADDR}*%
X109321600Y-155482000D02*
X109321600Y-153289000D01*
X108686600Y-156117000D02*
X109321600Y-155482000D01*
X108686600Y-160137800D02*
X108686600Y-156117000D01*
X108895200Y-160346400D02*
X108686600Y-160137800D01*
X108895200Y-161402200D02*
X108895200Y-160346400D01*
X108051600Y-162245800D02*
X108895200Y-161402200D01*
X108051600Y-162966400D02*
X108051600Y-162245800D01*
X57176600Y-138138000D02*
X62029700Y-138138000D01*
X56924000Y-137885400D02*
X57176600Y-138138000D01*
X109956600Y-152654000D02*
X109321600Y-153289000D01*
X109956600Y-147276900D02*
X109956600Y-152654000D01*
X112496600Y-144736900D02*
X109956600Y-147276900D01*
X112496600Y-142313600D02*
X112496600Y-144736900D01*
X113555200Y-142313600D02*
X112496600Y-142313600D01*
X114401600Y-143160000D02*
X113555200Y-142313600D01*
X114401600Y-143611600D02*
X114401600Y-143160000D01*
X89329800Y-137956200D02*
X89143500Y-138142500D01*
X98483700Y-137956200D02*
X89329800Y-137956200D01*
X100245700Y-139718200D02*
X98483700Y-137956200D01*
X105625300Y-139718200D02*
X100245700Y-139718200D01*
X108220700Y-142313600D02*
X105625300Y-139718200D01*
X112496600Y-142313600D02*
X108220700Y-142313600D01*
%TO.N,/MCUMEMADDR19*%
X66339300Y-141695400D02*
X66379800Y-141735900D01*
X64333000Y-141695400D02*
X66339300Y-141695400D01*
%TO.N,/MCUMEMADDR18*%
X64333000Y-140425400D02*
X65786300Y-140425400D01*
%TO.N,DATA7*%
X120904000Y-159004000D02*
X120904000Y-160167700D01*
X106730800Y-177021200D02*
X106730800Y-178054000D01*
X112445700Y-171306300D02*
X106730800Y-177021200D01*
X112445700Y-166836700D02*
X112445700Y-171306300D01*
X112992300Y-166290100D02*
X112445700Y-166836700D01*
X114194900Y-166290100D02*
X112992300Y-166290100D01*
X120317300Y-160167700D02*
X114194900Y-166290100D01*
X120904000Y-160167700D02*
X120317300Y-160167700D01*
%TO.N,DATA4*%
X110540800Y-177127500D02*
X110540800Y-178054000D01*
X111601500Y-176066800D02*
X110540800Y-177127500D01*
%TO.N,/MCU WE*%
X80264000Y-133604000D02*
X81427700Y-133604000D01*
X91202000Y-142367000D02*
X90833400Y-142367000D01*
X92113100Y-141455900D02*
X91202000Y-142367000D01*
X92113100Y-140723500D02*
X92113100Y-141455900D01*
X91851700Y-140462100D02*
X92113100Y-140723500D01*
X87717100Y-140462100D02*
X91851700Y-140462100D01*
X87347900Y-140092900D02*
X87717100Y-140462100D01*
X87347900Y-139799800D02*
X87347900Y-140092900D01*
X81427700Y-133879600D02*
X87347900Y-139799800D01*
X81427700Y-133604000D02*
X81427700Y-133879600D01*
%TO.N,A17*%
X70205600Y-177927000D02*
X70205600Y-176826900D01*
X66515300Y-173136600D02*
X70205600Y-176826900D01*
X66515300Y-148374300D02*
X66515300Y-173136600D01*
X66611500Y-148278100D02*
X66515300Y-148374300D01*
X66611500Y-147453000D02*
X66611500Y-148278100D01*
X65298900Y-146140400D02*
X66611500Y-147453000D01*
X54896800Y-146140400D02*
X65298900Y-146140400D01*
X49936500Y-141180100D02*
X54896800Y-146140400D01*
X48837700Y-141180100D02*
X49936500Y-141180100D01*
X48729500Y-141071900D02*
X48837700Y-141180100D01*
X46762300Y-141071900D02*
X48729500Y-141071900D01*
X46440000Y-140749600D02*
X46762300Y-141071900D01*
X46440000Y-140110000D02*
X46440000Y-140749600D01*
X47394600Y-139155400D02*
X46440000Y-140110000D01*
X47724000Y-139155400D02*
X47394600Y-139155400D01*
X94910000Y-159260100D02*
X94910000Y-158990000D01*
X93550600Y-160619500D02*
X94910000Y-159260100D01*
X88293400Y-160619500D02*
X93550600Y-160619500D01*
X87253800Y-161659100D02*
X88293400Y-160619500D01*
%TO.N,A18*%
X51618500Y-142296200D02*
X60361700Y-142296200D01*
X50102300Y-140780000D02*
X51618500Y-142296200D01*
X49003400Y-140780000D02*
X50102300Y-140780000D01*
X48648800Y-140425400D02*
X49003400Y-140780000D01*
X47724000Y-140425400D02*
X48648800Y-140425400D01*
X96180000Y-159268600D02*
X96180000Y-158990000D01*
X93917000Y-161531600D02*
X96180000Y-159268600D01*
X91772000Y-161531600D02*
X93917000Y-161531600D01*
%TO.N,A16*%
X67665600Y-177927000D02*
X66565500Y-177927000D01*
X87680800Y-158565400D02*
X86602300Y-157486900D01*
X87680800Y-158978600D02*
X87680800Y-158565400D01*
X66565500Y-177699100D02*
X66565500Y-177927000D01*
X64782600Y-175916200D02*
X66565500Y-177699100D01*
X64087200Y-175916200D02*
X64782600Y-175916200D01*
X56094100Y-167923100D02*
X64087200Y-175916200D01*
X56094100Y-163659900D02*
X56094100Y-167923100D01*
X55258600Y-162824400D02*
X56094100Y-163659900D01*
X53626700Y-162824400D02*
X55258600Y-162824400D01*
X42522300Y-151720000D02*
X53626700Y-162824400D01*
X41049200Y-151720000D02*
X42522300Y-151720000D01*
X40359800Y-151030600D02*
X41049200Y-151720000D01*
X40359800Y-149062900D02*
X40359800Y-151030600D01*
X42424200Y-146998500D02*
X40359800Y-149062900D01*
X42424200Y-142794200D02*
X42424200Y-146998500D01*
X47333000Y-137885400D02*
X42424200Y-142794200D01*
X47724000Y-137885400D02*
X47333000Y-137885400D01*
%TO.N,Net-(U10-TC)*%
X93624400Y-151725500D02*
X93469100Y-151880800D01*
X93624400Y-150317200D02*
X93624400Y-151725500D01*
%TO.N,A14*%
X84972100Y-159147300D02*
X84972100Y-161661100D01*
X85140800Y-158978600D02*
X84972100Y-159147300D01*
%TO.N,A15*%
X86410800Y-158557400D02*
X85305500Y-157452100D01*
X86410800Y-158978600D02*
X86410800Y-158557400D01*
%TO.N,A13*%
X82326600Y-160781200D02*
X82050100Y-160781200D01*
X83870800Y-159237000D02*
X82326600Y-160781200D01*
X83870800Y-158978600D02*
X83870800Y-159237000D01*
%TO.N,Net-(U6-TC)*%
X99990000Y-157874600D02*
X99990000Y-158990000D01*
X100547600Y-157317000D02*
X99990000Y-157874600D01*
X82600800Y-157718200D02*
X82334700Y-157452100D01*
X82600800Y-158978600D02*
X82600800Y-157718200D01*
%TO.N,A12*%
X87579200Y-148066900D02*
X87579200Y-150291800D01*
X87647000Y-147999100D02*
X87579200Y-148066900D01*
X86233300Y-152485700D02*
X86146200Y-152485700D01*
X87579200Y-151139800D02*
X86233300Y-152485700D01*
X87579200Y-150291800D02*
X87579200Y-151139800D01*
%TO.N,A11*%
X79969800Y-143706600D02*
X79969800Y-146607100D01*
X74148200Y-152428700D02*
X79969800Y-146607100D01*
X74148200Y-157336700D02*
X74148200Y-152428700D01*
X68892200Y-162592700D02*
X74148200Y-157336700D01*
X68892200Y-168956700D02*
X68892200Y-162592700D01*
X68577300Y-169271600D02*
X68892200Y-168956700D01*
X86309200Y-150024300D02*
X86309200Y-150291800D01*
X82892000Y-146607100D02*
X86309200Y-150024300D01*
X79969800Y-146607100D02*
X82892000Y-146607100D01*
%TO.N,A10*%
X86944200Y-143966400D02*
X82822200Y-139844400D01*
X86944200Y-151197900D02*
X86944200Y-143966400D01*
X86598800Y-151543300D02*
X86944200Y-151197900D01*
X86032800Y-151543300D02*
X86598800Y-151543300D01*
X85039200Y-150549700D02*
X86032800Y-151543300D01*
X85039200Y-150291800D02*
X85039200Y-150549700D01*
%TO.N,Net-(U5-Q0)*%
X69338900Y-170216100D02*
X68122600Y-170216100D01*
X71305800Y-168249200D02*
X69338900Y-170216100D01*
X71305800Y-161198900D02*
X71305800Y-168249200D01*
X76555600Y-155949100D02*
X71305800Y-161198900D01*
X76555600Y-152762900D02*
X76555600Y-155949100D01*
X80249300Y-149069200D02*
X76555600Y-152762900D01*
X82817100Y-149069200D02*
X80249300Y-149069200D01*
X83769200Y-150021300D02*
X82817100Y-149069200D01*
X83769200Y-150291800D02*
X83769200Y-150021300D01*
%TO.N,A9*%
X72745600Y-164109400D02*
X72745600Y-163009300D01*
X79104300Y-152812500D02*
X79104400Y-152812500D01*
X79104300Y-156905700D02*
X79104300Y-152812500D01*
X73000700Y-163009300D02*
X79104300Y-156905700D01*
X72745600Y-163009300D02*
X73000700Y-163009300D01*
%TO.N,Net-(U5-TC)*%
X88950800Y-158707600D02*
X88950800Y-158978600D01*
X86944300Y-156701100D02*
X88950800Y-158707600D01*
X86944300Y-154546400D02*
X86944300Y-156701100D01*
X86010800Y-153612900D02*
X86944300Y-154546400D01*
X84924700Y-153612900D02*
X86010800Y-153612900D01*
X82499200Y-151187400D02*
X84924700Y-153612900D01*
X82499200Y-150291800D02*
X82499200Y-151187400D01*
%TO.N,Net-(U4-TC)*%
X88849200Y-150697500D02*
X88849200Y-150291800D01*
X86434200Y-153112500D02*
X88849200Y-150697500D01*
X85280400Y-153112500D02*
X86434200Y-153112500D01*
X85173400Y-153005500D02*
X85280400Y-153112500D01*
%TO.N,A4*%
X98054300Y-148756400D02*
X98647500Y-148163200D01*
X98054300Y-151895500D02*
X98054300Y-148756400D01*
X95896600Y-154053200D02*
X98054300Y-151895500D01*
%TO.N,H_CLK*%
X93624400Y-155205500D02*
X93624400Y-155467200D01*
X92504600Y-154085700D02*
X93624400Y-155205500D01*
X92290000Y-154085700D02*
X92504600Y-154085700D01*
%TO.N,A3*%
X98704400Y-149695400D02*
X99847800Y-148552000D01*
X98704400Y-150317200D02*
X98704400Y-149695400D01*
%TO.N,A0*%
X94894400Y-150019700D02*
X94894400Y-150317200D01*
X92088900Y-147214200D02*
X94894400Y-150019700D01*
X90908500Y-147214200D02*
X92088900Y-147214200D01*
X89249500Y-145555200D02*
X90908500Y-147214200D01*
X89249500Y-143241500D02*
X89249500Y-145555200D01*
%TO.N,A2*%
X97434400Y-146950200D02*
X97434400Y-150317200D01*
X96910300Y-146426100D02*
X97434400Y-146950200D01*
%TO.N,A1*%
X92777800Y-146614100D02*
X91157000Y-146614100D01*
X96164400Y-150000700D02*
X92777800Y-146614100D01*
X96164400Y-150317200D02*
X96164400Y-150000700D01*
%TO.N,~{VGA_OUT}*%
X106730800Y-167171600D02*
X106730800Y-168854000D01*
X110591600Y-163310800D02*
X106730800Y-167171600D01*
X110591600Y-162966400D02*
X110591600Y-163310800D01*
%TO.N,MEMADDR19*%
X83274500Y-142794300D02*
X83670600Y-143190400D01*
X82512300Y-142794300D02*
X83274500Y-142794300D01*
X82341200Y-142965400D02*
X82512300Y-142794300D01*
X73533000Y-142965400D02*
X82341200Y-142965400D01*
%TO.N,MEMADDR17*%
X60788100Y-140425400D02*
X56924000Y-140425400D01*
X61423100Y-139790400D02*
X60788100Y-140425400D01*
X70003500Y-139790400D02*
X61423100Y-139790400D01*
X70166200Y-139627700D02*
X70003500Y-139790400D01*
X70663300Y-139627700D02*
X70166200Y-139627700D01*
X71461000Y-140425400D02*
X70663300Y-139627700D01*
X73533000Y-140425400D02*
X71461000Y-140425400D01*
X74007200Y-140899600D02*
X73533000Y-140425400D01*
X74955300Y-140899600D02*
X74007200Y-140899600D01*
%TO.N,/MCUMEMADDR17*%
X64333000Y-139155400D02*
X65795500Y-139155400D01*
%TO.N,MEMADDR16*%
X57312200Y-138767200D02*
X56924000Y-139155400D01*
X62552400Y-138767200D02*
X57312200Y-138767200D01*
X62770400Y-138549200D02*
X62552400Y-138767200D01*
X72926800Y-138549200D02*
X62770400Y-138549200D01*
X73533000Y-139155400D02*
X72926800Y-138549200D01*
X75799000Y-139155400D02*
X78596200Y-141952600D01*
X73533000Y-139155400D02*
X75799000Y-139155400D01*
%TO.N,/MCUMEMADDR16*%
X66040000Y-136530800D02*
X66040000Y-133604000D01*
X64685400Y-137885400D02*
X66040000Y-136530800D01*
X64333000Y-137885400D02*
X64685400Y-137885400D01*
%TO.N,MEMADDR18*%
X62642700Y-141695400D02*
X56924000Y-141695400D01*
X63287700Y-141050400D02*
X62642700Y-141695400D01*
X72888000Y-141050400D02*
X63287700Y-141050400D01*
X73533000Y-141695400D02*
X72888000Y-141050400D01*
X76133600Y-141695400D02*
X76400700Y-141962500D01*
X73533000Y-141695400D02*
X76133600Y-141695400D01*
%TO.N,~{OE}*%
X110591600Y-153914700D02*
X110591600Y-153289000D01*
X109950600Y-154555700D02*
X110591600Y-153914700D01*
%TO.N,/MCU CE*%
X83967700Y-133873500D02*
X83967700Y-133604000D01*
X89921200Y-139827000D02*
X83967700Y-133873500D01*
X90833400Y-139827000D02*
X89921200Y-139827000D01*
X82804000Y-133604000D02*
X83967700Y-133604000D01*
%TO.N,DATA6*%
X108000800Y-177670400D02*
X108000800Y-178054000D01*
X114750900Y-170920300D02*
X108000800Y-177670400D01*
X116453700Y-170920300D02*
X114750900Y-170920300D01*
X118713200Y-168660800D02*
X116453700Y-170920300D01*
X118713200Y-164614000D02*
X118713200Y-168660800D01*
X120619400Y-162707800D02*
X118713200Y-164614000D01*
X121388800Y-162707800D02*
X120619400Y-162707800D01*
X122280300Y-161816300D02*
X121388800Y-162707800D01*
X122280300Y-158500400D02*
X122280300Y-161816300D01*
X123153000Y-157627700D02*
X122280300Y-158500400D01*
X123444000Y-157627700D02*
X123153000Y-157627700D01*
X123444000Y-156464000D02*
X123444000Y-157627700D01*
%TO.N,Net-(U2-B7)*%
X116890800Y-167635300D02*
X116263000Y-167007500D01*
X116890800Y-168854000D02*
X116890800Y-167635300D01*
%TO.N,Net-(U2-B6)*%
X115620800Y-168327800D02*
X115620800Y-168854000D01*
X114686000Y-167393000D02*
X115620800Y-168327800D01*
%TO.N,Net-(U2-B5)*%
X114350800Y-169228200D02*
X114350800Y-168854000D01*
X113258900Y-170320100D02*
X114350800Y-169228200D01*
%TO.N,Net-(U2-B4)*%
X113080800Y-167113500D02*
X113080800Y-168854000D01*
X113163700Y-167030600D02*
X113080800Y-167113500D01*
%TO.N,Net-(U2-B3)*%
X111810800Y-167985100D02*
X111810800Y-168854000D01*
X110862300Y-167036600D02*
X111810800Y-167985100D01*
%TO.N,Net-(U2-B2)*%
X110540800Y-170278700D02*
X110514100Y-170305400D01*
X110540800Y-168854000D02*
X110540800Y-170278700D01*
%TO.N,Net-(U2-B1)*%
X109361800Y-168763000D02*
X109361800Y-167017000D01*
X109270800Y-168854000D02*
X109361800Y-168763000D01*
%TO.N,Net-(U2-B0)*%
X108000800Y-168063300D02*
X108000800Y-168854000D01*
X107350200Y-167412700D02*
X108000800Y-168063300D01*
%TO.N,Net-(J3-Pad3)*%
X42524300Y-155155000D02*
X41460000Y-155155000D01*
X45853800Y-158484500D02*
X42524300Y-155155000D01*
%TO.N,GND*%
X103124000Y-143408400D02*
X101973900Y-143408400D01*
X90220800Y-164128600D02*
X91027700Y-164128600D01*
X52870000Y-148045400D02*
X53953000Y-149128400D01*
X47724000Y-148045400D02*
X52870000Y-148045400D01*
X101973900Y-143646700D02*
X101973900Y-143408400D01*
X101043800Y-144576800D02*
X101973900Y-143646700D01*
X99068600Y-144576800D02*
X101043800Y-144576800D01*
X98763900Y-144272100D02*
X99068600Y-144576800D01*
X91468300Y-144272100D02*
X98763900Y-144272100D01*
X90833400Y-144907000D02*
X91468300Y-144272100D01*
X118470300Y-178054000D02*
X116890800Y-178054000D01*
X119740300Y-176784000D02*
X118470300Y-178054000D01*
X120904000Y-176784000D02*
X119740300Y-176784000D01*
X92310700Y-157633300D02*
X99351700Y-157633300D01*
X90119200Y-155441800D02*
X92310700Y-157633300D01*
X101244400Y-155740600D02*
X101244400Y-155467200D01*
X99351700Y-157633300D02*
X101244400Y-155740600D01*
X63550000Y-148828400D02*
X64333000Y-148045400D01*
X54253000Y-148828400D02*
X63550000Y-148828400D01*
X53953000Y-149128400D02*
X54253000Y-148828400D01*
X65995500Y-148045400D02*
X66011400Y-148029500D01*
X64333000Y-148045400D02*
X65995500Y-148045400D01*
X115671600Y-153695400D02*
X115671600Y-153289000D01*
X113463800Y-155903200D02*
X115671600Y-153695400D01*
X117429600Y-161979700D02*
X115671600Y-161979700D01*
X118768200Y-160641100D02*
X117429600Y-161979700D01*
X118768200Y-146708200D02*
X118768200Y-160641100D01*
X115671600Y-143611600D02*
X118768200Y-146708200D01*
X115671600Y-162966400D02*
X115671600Y-161979700D01*
X113766600Y-156206000D02*
X113463800Y-155903200D01*
X113766600Y-160074700D02*
X113766600Y-156206000D01*
X115671600Y-161979700D02*
X113766600Y-160074700D01*
X109769500Y-155903200D02*
X113463800Y-155903200D01*
X109671000Y-156001700D02*
X109769500Y-155903200D01*
X43989600Y-148045400D02*
X47724000Y-148045400D01*
X41460000Y-150575000D02*
X43989600Y-148045400D01*
X99351700Y-161764200D02*
X100051700Y-162464200D01*
X99351700Y-157633300D02*
X99351700Y-161764200D01*
X101260000Y-163672500D02*
X101260000Y-164140000D01*
X100051700Y-162464200D02*
X101260000Y-163672500D01*
%TO.N,~{SCREEN_VISIBLE}*%
X104511800Y-168130700D02*
X104511800Y-168646000D01*
X109321600Y-163320900D02*
X104511800Y-168130700D01*
X109321600Y-162966400D02*
X109321600Y-163320900D01*
%TO.N,~{V_RESET}*%
X81004100Y-163801900D02*
X81330800Y-164128600D01*
X80511600Y-163801900D02*
X81004100Y-163801900D01*
X91304700Y-163074700D02*
X92370000Y-164140000D01*
X90764500Y-163074700D02*
X91304700Y-163074700D01*
X90597200Y-162907400D02*
X90764500Y-163074700D01*
X84811900Y-162907400D02*
X90597200Y-162907400D01*
X84505800Y-163213500D02*
X84811900Y-162907400D01*
X84505800Y-165038700D02*
X84505800Y-163213500D01*
X84231600Y-165312900D02*
X84505800Y-165038700D01*
X82255700Y-165312900D02*
X84231600Y-165312900D01*
X81330800Y-164388000D02*
X82255700Y-165312900D01*
X81330800Y-164128600D02*
X81330800Y-164388000D01*
X81330800Y-160651900D02*
X81330800Y-164128600D01*
X81937300Y-160045400D02*
X81330800Y-160651900D01*
X81937300Y-158030000D02*
X81937300Y-160045400D01*
X81229200Y-157321900D02*
X81937300Y-158030000D01*
X81229200Y-155441800D02*
X81229200Y-157321900D01*
%TO.N,Net-(U3-~{MR})*%
X84372000Y-161245700D02*
X84372000Y-162418700D01*
X84479400Y-161138300D02*
X84372000Y-161245700D01*
X84479400Y-157689500D02*
X84479400Y-161138300D01*
X82499200Y-155709300D02*
X84479400Y-157689500D01*
X82499200Y-155441800D02*
X82499200Y-155709300D01*
X84033600Y-162418700D02*
X84372000Y-162418700D01*
X82600800Y-163851500D02*
X84033600Y-162418700D01*
X82600800Y-164128600D02*
X82600800Y-163851500D01*
X93640000Y-163876200D02*
X93640000Y-164140000D01*
X92438400Y-162674600D02*
X93640000Y-163876200D01*
X90930200Y-162674600D02*
X92438400Y-162674600D01*
X90674300Y-162418700D02*
X90930200Y-162674600D01*
X84372000Y-162418700D02*
X90674300Y-162418700D01*
X83439800Y-154227100D02*
X85624300Y-154227100D01*
X82499200Y-155167700D02*
X83439800Y-154227100D01*
X82499200Y-155441800D02*
X82499200Y-155167700D01*
%TO.N,PWR*%
X45840500Y-136615400D02*
X42850100Y-133625000D01*
X47724000Y-136615400D02*
X45840500Y-136615400D01*
X41700000Y-133625000D02*
X42850100Y-133625000D01*
X92358600Y-158978600D02*
X92370000Y-158990000D01*
X90220800Y-158978600D02*
X92358600Y-158978600D01*
X81229200Y-152975300D02*
X81609800Y-153355900D01*
X81229200Y-150291800D02*
X81229200Y-152975300D01*
X81609800Y-153355900D02*
X82148900Y-153355900D01*
X103222600Y-148339000D02*
X108051600Y-148339000D01*
X101244400Y-150317200D02*
X103222600Y-148339000D01*
X91119100Y-154231900D02*
X90728300Y-154231900D01*
X92354400Y-155467200D02*
X91119100Y-154231900D01*
X99974400Y-155709700D02*
X99974400Y-155467200D01*
X99041100Y-156643000D02*
X99974400Y-155709700D01*
X93287700Y-156643000D02*
X99041100Y-156643000D01*
X92354400Y-155709700D02*
X93287700Y-156643000D01*
X92354400Y-155467200D02*
X92354400Y-155709700D01*
X99974400Y-150317200D02*
X101244400Y-150317200D01*
X101244400Y-154203900D02*
X101244400Y-150317200D01*
X99974400Y-155224700D02*
X99974400Y-155467200D01*
X100995200Y-154203900D02*
X99974400Y-155224700D01*
X101244400Y-154203900D02*
X100995200Y-154203900D01*
X106513100Y-137123100D02*
X96115400Y-137123100D01*
X108051600Y-138661600D02*
X106513100Y-137123100D01*
X95947300Y-137123100D02*
X95783400Y-137287000D01*
X96115400Y-137123100D02*
X95947300Y-137123100D01*
X102233600Y-158016400D02*
X101260000Y-158990000D01*
X101868000Y-165050800D02*
X101584800Y-165334000D01*
X101868000Y-159598000D02*
X101868000Y-165050800D01*
X101260000Y-158990000D02*
X101868000Y-159598000D01*
X101522400Y-154203900D02*
X101244400Y-154203900D01*
X102233600Y-154915100D02*
X101522400Y-154203900D01*
X102233600Y-158016400D02*
X102233600Y-154915100D01*
X73533000Y-136615400D02*
X73533000Y-135803200D01*
X88849200Y-155195600D02*
X88849200Y-155441800D01*
X89812900Y-154231900D02*
X88849200Y-155195600D01*
X90728300Y-154231900D02*
X89812900Y-154231900D01*
X90220800Y-158112600D02*
X90220800Y-158978600D01*
X88849200Y-156741000D02*
X90220800Y-158112600D01*
X88849200Y-155441800D02*
X88849200Y-156741000D01*
X84836000Y-169037000D02*
X88950800Y-164922200D01*
X88950800Y-164922200D02*
X88950800Y-164128600D01*
X89344400Y-165315800D02*
X88950800Y-164922200D01*
X99990000Y-165315800D02*
X89344400Y-165315800D01*
X100008200Y-165334000D02*
X99990000Y-165315800D01*
X101584800Y-165334000D02*
X100008200Y-165334000D01*
X99990000Y-165315800D02*
X99990000Y-164140000D01*
X84716200Y-169037000D02*
X84836000Y-169037000D01*
X79888200Y-164209000D02*
X84716200Y-169037000D01*
X79888200Y-160421200D02*
X79888200Y-164209000D01*
X81330800Y-158978600D02*
X79888200Y-160421200D01*
X80609300Y-154356400D02*
X81609800Y-153355900D01*
X80609300Y-158257100D02*
X80609300Y-154356400D01*
X81330800Y-158978600D02*
X80609300Y-158257100D01*
X102233600Y-158016400D02*
X108051600Y-158016400D01*
X92140200Y-150531400D02*
X92354400Y-150317200D01*
X90728300Y-150531400D02*
X92140200Y-150531400D01*
X90728300Y-154231900D02*
X90728300Y-150531400D01*
X90488700Y-150291800D02*
X90119200Y-150291800D01*
X90728300Y-150531400D02*
X90488700Y-150291800D01*
X47724000Y-136615400D02*
X56924000Y-136615400D01*
X56924000Y-136615400D02*
X64333000Y-136615400D01*
X96115400Y-137123100D02*
X96115400Y-136482500D01*
X104168800Y-169246100D02*
X105068700Y-169246100D01*
X101584800Y-166662100D02*
X104168800Y-169246100D01*
X101584800Y-165334000D02*
X101584800Y-166662100D01*
X105068700Y-169246100D02*
X105460800Y-168854000D01*
X105068700Y-170763000D02*
X105067700Y-170763000D01*
X105068700Y-169246100D02*
X105068700Y-170763000D01*
X105068700Y-177661900D02*
X105460800Y-178054000D01*
X105068700Y-170763000D02*
X105068700Y-177661900D01*
%TD*%
M02*
