%TF.GenerationSoftware,KiCad,Pcbnew,8.0.4+dfsg-1*%
%TF.CreationDate,2024-11-13T23:12:42-05:00*%
%TF.ProjectId,VGA_SRAM_Shield,5647415f-5352-4414-9d5f-536869656c64,rev?*%
%TF.SameCoordinates,Original*%
%TF.FileFunction,Copper,L4,Bot*%
%TF.FilePolarity,Positive*%
%FSLAX46Y46*%
G04 Gerber Fmt 4.6, Leading zero omitted, Abs format (unit mm)*
G04 Created by KiCad (PCBNEW 8.0.4+dfsg-1) date 2024-11-13 23:12:42*
%MOMM*%
%LPD*%
G01*
G04 APERTURE LIST*
G04 Aperture macros list*
%AMRoundRect*
0 Rectangle with rounded corners*
0 $1 Rounding radius*
0 $2 $3 $4 $5 $6 $7 $8 $9 X,Y pos of 4 corners*
0 Add a 4 corners polygon primitive as box body*
4,1,4,$2,$3,$4,$5,$6,$7,$8,$9,$2,$3,0*
0 Add four circle primitives for the rounded corners*
1,1,$1+$1,$2,$3*
1,1,$1+$1,$4,$5*
1,1,$1+$1,$6,$7*
1,1,$1+$1,$8,$9*
0 Add four rect primitives between the rounded corners*
20,1,$1+$1,$2,$3,$4,$5,0*
20,1,$1+$1,$4,$5,$6,$7,0*
20,1,$1+$1,$6,$7,$8,$9,0*
20,1,$1+$1,$8,$9,$2,$3,0*%
G04 Aperture macros list end*
%TA.AperFunction,ComponentPad*%
%ADD10R,1.700000X1.700000*%
%TD*%
%TA.AperFunction,ComponentPad*%
%ADD11O,1.700000X1.700000*%
%TD*%
%TA.AperFunction,ComponentPad*%
%ADD12R,1.600000X1.500000*%
%TD*%
%TA.AperFunction,ComponentPad*%
%ADD13C,1.600000*%
%TD*%
%TA.AperFunction,ComponentPad*%
%ADD14C,3.000000*%
%TD*%
%TA.AperFunction,ComponentPad*%
%ADD15C,4.000000*%
%TD*%
%TA.AperFunction,ComponentPad*%
%ADD16R,1.600000X1.600000*%
%TD*%
%TA.AperFunction,ComponentPad*%
%ADD17O,1.600000X1.600000*%
%TD*%
%TA.AperFunction,ComponentPad*%
%ADD18O,1.727200X1.727200*%
%TD*%
%TA.AperFunction,ComponentPad*%
%ADD19R,1.727200X1.727200*%
%TD*%
%TA.AperFunction,SMDPad,CuDef*%
%ADD20RoundRect,0.250000X-0.475000X0.250000X-0.475000X-0.250000X0.475000X-0.250000X0.475000X0.250000X0*%
%TD*%
%TA.AperFunction,SMDPad,CuDef*%
%ADD21RoundRect,0.150000X0.800000X0.150000X-0.800000X0.150000X-0.800000X-0.150000X0.800000X-0.150000X0*%
%TD*%
%TA.AperFunction,SMDPad,CuDef*%
%ADD22RoundRect,0.150000X0.725000X0.150000X-0.725000X0.150000X-0.725000X-0.150000X0.725000X-0.150000X0*%
%TD*%
%TA.AperFunction,SMDPad,CuDef*%
%ADD23RoundRect,0.250000X-0.262500X-0.450000X0.262500X-0.450000X0.262500X0.450000X-0.262500X0.450000X0*%
%TD*%
%TA.AperFunction,SMDPad,CuDef*%
%ADD24RoundRect,0.250000X0.262500X0.450000X-0.262500X0.450000X-0.262500X-0.450000X0.262500X-0.450000X0*%
%TD*%
%TA.AperFunction,SMDPad,CuDef*%
%ADD25RoundRect,0.249999X1.500001X-1.025001X1.500001X1.025001X-1.500001X1.025001X-1.500001X-1.025001X0*%
%TD*%
%TA.AperFunction,SMDPad,CuDef*%
%ADD26RoundRect,0.137500X0.625000X0.137500X-0.625000X0.137500X-0.625000X-0.137500X0.625000X-0.137500X0*%
%TD*%
%TA.AperFunction,ViaPad*%
%ADD27C,0.600000*%
%TD*%
%TA.AperFunction,Conductor*%
%ADD28C,0.200000*%
%TD*%
G04 APERTURE END LIST*
D10*
%TO.P,J2,1,Pin_1*%
%TO.N,PWR*%
X41700000Y-133625000D03*
D11*
%TO.P,J2,2,Pin_2*%
X39160000Y-133625000D03*
%TO.P,J2,3,Pin_3*%
%TO.N,GND*%
X41700000Y-136165000D03*
%TO.P,J2,4,Pin_4*%
X39160000Y-136165000D03*
%TD*%
D12*
%TO.P,J5,1,VBUS*%
%TO.N,PWR*%
X35355000Y-174390000D03*
D13*
%TO.P,J5,2,D-*%
%TO.N,Net-(A1-D18{slash}TX1)*%
X37855000Y-174390000D03*
%TO.P,J5,3,D+*%
%TO.N,Net-(A1-D19{slash}RX1)*%
X39855000Y-174390000D03*
%TO.P,J5,4,GND*%
%TO.N,GND*%
X42355000Y-174390000D03*
D14*
%TO.P,J5,5,Shield*%
X32285000Y-177100000D03*
X45425000Y-177100000D03*
%TD*%
D15*
%TO.P,J3,0*%
%TO.N,N/C*%
X40040000Y-142920000D03*
X40040000Y-167920000D03*
D16*
%TO.P,J3,1*%
%TO.N,Net-(J3-Pad1)*%
X41460000Y-159735000D03*
D13*
%TO.P,J3,2*%
%TO.N,Net-(J3-Pad2)*%
X41460000Y-157445000D03*
%TO.P,J3,3*%
%TO.N,Net-(J3-Pad3)*%
X41460000Y-155155000D03*
%TO.P,J3,4*%
%TO.N,unconnected-(J3-Pad4)*%
X41460000Y-152865000D03*
%TO.P,J3,5*%
%TO.N,GND*%
X41460000Y-150575000D03*
%TO.P,J3,6*%
X39480000Y-160880000D03*
%TO.P,J3,7*%
X39480000Y-158590000D03*
%TO.P,J3,8*%
X39480000Y-156300000D03*
%TO.P,J3,9*%
%TO.N,unconnected-(J3-Pad9)*%
X39480000Y-154010000D03*
%TO.P,J3,10*%
%TO.N,GND*%
X39480000Y-151720000D03*
%TO.P,J3,11*%
%TO.N,unconnected-(J3-Pad11)*%
X37500000Y-159735000D03*
%TO.P,J3,12*%
%TO.N,unconnected-(J3-Pad12)*%
X37500000Y-157445000D03*
%TO.P,J3,13*%
%TO.N,Net-(J3-Pad13)*%
X37500000Y-155155000D03*
%TO.P,J3,14*%
%TO.N,Net-(J3-Pad14)*%
X37500000Y-152865000D03*
%TO.P,J3,15*%
%TO.N,unconnected-(J3-Pad15)*%
X37500000Y-150575000D03*
%TD*%
D16*
%TO.P,X1,1,NC*%
%TO.N,unconnected-(X1-NC-Pad1)*%
X84836000Y-176657000D03*
D13*
%TO.P,X1,7,GND*%
%TO.N,GND*%
X100076000Y-176657000D03*
%TO.P,X1,8,OUT*%
%TO.N,H_CLK*%
X100076000Y-169037000D03*
%TO.P,X1,14,Vcc*%
%TO.N,PWR*%
X84836000Y-169037000D03*
%TD*%
D16*
%TO.P,U8,1,I1*%
%TO.N,A0*%
X49885600Y-164109400D03*
D17*
%TO.P,U8,2,I2*%
%TO.N,A1*%
X52425600Y-164109400D03*
%TO.P,U8,3,I3*%
%TO.N,A2*%
X54965600Y-164109400D03*
%TO.P,U8,4,I4*%
%TO.N,A3*%
X57505600Y-164109400D03*
%TO.P,U8,5,I5*%
%TO.N,A4*%
X60045600Y-164109400D03*
%TO.P,U8,6,I6*%
%TO.N,A5*%
X62585600Y-164109400D03*
%TO.P,U8,7,I7*%
%TO.N,A6*%
X65125600Y-164109400D03*
%TO.P,U8,8,I8*%
%TO.N,A7*%
X67665600Y-164109400D03*
%TO.P,U8,9,I9*%
%TO.N,A8*%
X70205600Y-164109400D03*
%TO.P,U8,10,I10*%
%TO.N,A9*%
X72745600Y-164109400D03*
%TO.P,U8,11,I11*%
%TO.N,unconnected-(U8-I11-Pad11)*%
X75285600Y-164109400D03*
%TO.P,U8,12,GND*%
%TO.N,GND*%
X77825600Y-164109400D03*
%TO.P,U8,13,I13*%
%TO.N,unconnected-(U8-I13-Pad13)*%
X77825600Y-153949400D03*
%TO.P,U8,14,IO14*%
%TO.N,unconnected-(U8-IO14-Pad14)*%
X75285600Y-153949400D03*
%TO.P,U8,15,IO15*%
%TO.N,unconnected-(U8-IO15-Pad15)*%
X72745600Y-153949400D03*
%TO.P,U8,16,IO16*%
%TO.N,H_VISIBLE*%
X70205600Y-153949400D03*
%TO.P,U8,17,IO17*%
%TO.N,unconnected-(U8-IO17-Pad17)*%
X67665600Y-153949400D03*
%TO.P,U8,18,IO18*%
%TO.N,~{H_SYNC}*%
X65125600Y-153949400D03*
%TO.P,U8,19,IO19*%
%TO.N,unconnected-(U8-IO19-Pad19)*%
X62585600Y-153949400D03*
%TO.P,U8,20,IO20*%
%TO.N,Net-(U3-~{MR})*%
X60045600Y-153949400D03*
%TO.P,U8,21,IO21*%
%TO.N,unconnected-(U8-IO21-Pad21)*%
X57505600Y-153949400D03*
%TO.P,U8,22,IO22*%
%TO.N,unconnected-(U8-IO22-Pad22)*%
X54965600Y-153949400D03*
%TO.P,U8,23,IO23*%
%TO.N,unconnected-(U8-IO23-Pad23)*%
X52425600Y-153949400D03*
%TO.P,U8,24,VCC*%
%TO.N,PWR*%
X49885600Y-153949400D03*
%TD*%
D18*
%TO.P,A1,*%
%TO.N,*%
X54864000Y-181864000D03*
%TO.P,A1,3V3,3.3V*%
%TO.N,unconnected-(A1-3.3V-Pad3V3)*%
X62484000Y-181864000D03*
%TO.P,A1,5V1,5V*%
%TO.N,unconnected-(A1-5V-Pad5V1)*%
X65024000Y-181864000D03*
%TO.P,A1,5V3,5V*%
%TO.N,unconnected-(A1-5V-Pad5V3)*%
X120904000Y-133604000D03*
%TO.P,A1,5V4,5V*%
%TO.N,unconnected-(A1-5V-Pad5V4)*%
X123444000Y-133604000D03*
%TO.P,A1,A0,A0*%
%TO.N,unconnected-(A1-PadA0)*%
X77724000Y-181864000D03*
%TO.P,A1,A1,A1*%
%TO.N,unconnected-(A1-PadA1)*%
X80264000Y-181864000D03*
%TO.P,A1,A2,A2*%
%TO.N,unconnected-(A1-PadA2)*%
X82804000Y-181864000D03*
%TO.P,A1,A3,A3*%
%TO.N,unconnected-(A1-PadA3)*%
X85344000Y-181864000D03*
%TO.P,A1,A4,A4*%
%TO.N,unconnected-(A1-PadA4)*%
X87884000Y-181864000D03*
%TO.P,A1,A5,A5*%
%TO.N,unconnected-(A1-PadA5)*%
X90424000Y-181864000D03*
%TO.P,A1,A6,A6*%
%TO.N,unconnected-(A1-PadA6)*%
X92964000Y-181864000D03*
%TO.P,A1,A7,A7*%
%TO.N,unconnected-(A1-PadA7)*%
X95504000Y-181864000D03*
%TO.P,A1,A8,A8*%
%TO.N,/MCUMEMADDR12*%
X100584000Y-181864000D03*
%TO.P,A1,A9,A9*%
%TO.N,/MCUMEMADDR13*%
X103124000Y-181864000D03*
%TO.P,A1,A10,A10*%
%TO.N,/MCUMEMADDR14*%
X105664000Y-181864000D03*
%TO.P,A1,A11,A11*%
%TO.N,/MCUMEMADDR15*%
X108204000Y-181864000D03*
%TO.P,A1,AREF,AREF*%
%TO.N,unconnected-(A1-PadAREF)*%
X50800000Y-133604000D03*
%TO.P,A1,CANR,CANRX*%
%TO.N,unconnected-(A1-CANRX-PadCANR)*%
X115824000Y-181864000D03*
%TO.P,A1,CANT,CANTX*%
%TO.N,unconnected-(A1-CANTX-PadCANT)*%
X118364000Y-181864000D03*
%TO.P,A1,D0,D0/RX0*%
%TO.N,unconnected-(A1-D0{slash}RX0-PadD0)*%
X90424000Y-133604000D03*
%TO.P,A1,D1,D1/TX0*%
%TO.N,unconnected-(A1-D1{slash}TX0-PadD1)*%
X87884000Y-133604000D03*
%TO.P,A1,D2,D2*%
%TO.N,/MCU OE*%
X85344000Y-133604000D03*
%TO.P,A1,D3,D3*%
%TO.N,/MCU CE*%
X82804000Y-133604000D03*
%TO.P,A1,D4,D4_CS1*%
%TO.N,/MCU WE*%
X80264000Y-133604000D03*
%TO.P,A1,D5,D5*%
%TO.N,unconnected-(A1-PadD5)*%
X77724000Y-133604000D03*
%TO.P,A1,D6,D6*%
%TO.N,/MCUMEMADDR19*%
X75184000Y-133604000D03*
%TO.P,A1,D7,D7*%
%TO.N,/MCUMEMADDR18*%
X72644000Y-133604000D03*
%TO.P,A1,D8,D8*%
%TO.N,/MCUMEMADDR17*%
X68580000Y-133604000D03*
%TO.P,A1,D9,D9*%
%TO.N,/MCUMEMADDR16*%
X66040000Y-133604000D03*
%TO.P,A1,D10,D10_CS0*%
%TO.N,unconnected-(A1-D10_CS0-PadD10)*%
X63500000Y-133604000D03*
%TO.P,A1,D11,D11*%
%TO.N,unconnected-(A1-PadD11)*%
X60960000Y-133604000D03*
%TO.P,A1,D12,D12*%
%TO.N,unconnected-(A1-PadD12)*%
X58420000Y-133604000D03*
%TO.P,A1,D13,D13*%
%TO.N,unconnected-(A1-PadD13)*%
X55880000Y-133604000D03*
%TO.P,A1,D14,D14/TX3*%
%TO.N,unconnected-(A1-D14{slash}TX3-PadD14)*%
X95504000Y-133604000D03*
%TO.P,A1,D15,D15/RX3*%
%TO.N,unconnected-(A1-D15{slash}RX3-PadD15)*%
X98044000Y-133604000D03*
%TO.P,A1,D16,D16/TX2*%
%TO.N,unconnected-(A1-D16{slash}TX2-PadD16)*%
X100584000Y-133604000D03*
%TO.P,A1,D17,D17/RX2*%
%TO.N,unconnected-(A1-D17{slash}RX2-PadD17)*%
X103124000Y-133604000D03*
%TO.P,A1,D18,D18/TX1*%
%TO.N,Net-(A1-D18{slash}TX1)*%
X105664000Y-133604000D03*
%TO.P,A1,D19,D19/RX1*%
%TO.N,Net-(A1-D19{slash}RX1)*%
X108204000Y-133604000D03*
%TO.P,A1,D20,D20/SDA*%
%TO.N,unconnected-(A1-D20{slash}SDA-PadD20)*%
X110744000Y-133604000D03*
%TO.P,A1,D21,D21/SCL*%
%TO.N,unconnected-(A1-D21{slash}SCL-PadD21)*%
X113284000Y-133604000D03*
%TO.P,A1,D22,D22*%
%TO.N,unconnected-(A1-PadD22)*%
X120904000Y-136144000D03*
%TO.P,A1,D23,D23*%
%TO.N,unconnected-(A1-PadD23)*%
X123444000Y-136144000D03*
%TO.P,A1,D24,D24*%
%TO.N,unconnected-(A1-PadD24)*%
X120904000Y-138684000D03*
%TO.P,A1,D25,D25*%
%TO.N,/MCUMEMADDR8*%
X123444000Y-138684000D03*
%TO.P,A1,D26,D26*%
%TO.N,/MCUMEMADDR9*%
X120904000Y-141224000D03*
%TO.P,A1,D27,D27*%
%TO.N,/MCUMEMADDR10*%
X123444000Y-141224000D03*
%TO.P,A1,D28,D28*%
%TO.N,/MCUMEMADDR11*%
X120904000Y-143764000D03*
%TO.P,A1,D29,D29*%
%TO.N,unconnected-(A1-PadD29)*%
X123444000Y-143764000D03*
%TO.P,A1,D30,D30*%
%TO.N,unconnected-(A1-PadD30)*%
X120904000Y-146304000D03*
%TO.P,A1,D31,D31*%
%TO.N,unconnected-(A1-PadD31)*%
X123444000Y-146304000D03*
%TO.P,A1,D32,D32*%
%TO.N,unconnected-(A1-PadD32)*%
X120904000Y-148844000D03*
%TO.P,A1,D33,D33*%
%TO.N,DATA0*%
X123444000Y-148844000D03*
%TO.P,A1,D34,D34*%
%TO.N,DATA1*%
X120904000Y-151384000D03*
%TO.P,A1,D35,D35*%
%TO.N,DATA2*%
X123444000Y-151384000D03*
%TO.P,A1,D36,D36*%
%TO.N,DATA3*%
X120904000Y-153924000D03*
%TO.P,A1,D37,D37*%
%TO.N,DATA4*%
X123444000Y-153924000D03*
%TO.P,A1,D38,D38*%
%TO.N,DATA5*%
X120904000Y-156464000D03*
%TO.P,A1,D39,D39*%
%TO.N,DATA6*%
X123444000Y-156464000D03*
%TO.P,A1,D40,D40*%
%TO.N,DATA7*%
X120904000Y-159004000D03*
%TO.P,A1,D41,D41*%
%TO.N,unconnected-(A1-PadD41)*%
X123444000Y-159004000D03*
%TO.P,A1,D42,D42*%
%TO.N,unconnected-(A1-PadD42)*%
X120904000Y-161544000D03*
%TO.P,A1,D43,D43*%
%TO.N,unconnected-(A1-PadD43)*%
X123444000Y-161544000D03*
%TO.P,A1,D44,D44*%
%TO.N,/MCUMEMADDR7*%
X120904000Y-164084000D03*
%TO.P,A1,D45,D45*%
%TO.N,/MCUMEMADDR6*%
X123444000Y-164084000D03*
%TO.P,A1,D46,D46*%
%TO.N,/MCUMEMADDR5*%
X120904000Y-166624000D03*
%TO.P,A1,D47,D47*%
%TO.N,/MCUMEMADDR4*%
X123444000Y-166624000D03*
%TO.P,A1,D48,D48*%
%TO.N,/MCUMEMADDR3*%
X120904000Y-169164000D03*
%TO.P,A1,D49,D49*%
%TO.N,/MCUMEMADDR2*%
X123444000Y-169164000D03*
%TO.P,A1,D50,D50*%
%TO.N,/MCUMEMADDR1*%
X120904000Y-171704000D03*
%TO.P,A1,D51,D51*%
%TO.N,/MCUMEMADDR0*%
X123444000Y-171704000D03*
%TO.P,A1,D52,D52_CS2*%
%TO.N,unconnected-(A1-D52_CS2-PadD52)*%
X120904000Y-174244000D03*
%TO.P,A1,D53,D53*%
%TO.N,unconnected-(A1-PadD53)*%
X123444000Y-174244000D03*
%TO.P,A1,DAC0,DAC0*%
%TO.N,unconnected-(A1-PadDAC0)*%
X110744000Y-181864000D03*
%TO.P,A1,DAC1,DAC1*%
%TO.N,unconnected-(A1-PadDAC1)*%
X113284000Y-181864000D03*
D19*
%TO.P,A1,GND1,GND*%
%TO.N,GND*%
X53340000Y-133604000D03*
%TO.P,A1,GND2,GND*%
X67564000Y-181864000D03*
%TO.P,A1,GND3,GND*%
X70104000Y-181864000D03*
%TO.P,A1,GND5,GND*%
X120904000Y-176784000D03*
%TO.P,A1,GND6,GND*%
X123444000Y-176784000D03*
D18*
%TO.P,A1,IORF,IOREF*%
%TO.N,unconnected-(A1-IOREF-PadIORF)*%
X57404000Y-181864000D03*
%TO.P,A1,RST1,RESET*%
%TO.N,unconnected-(A1-RESET-PadRST1)*%
X59944000Y-181864000D03*
%TO.P,A1,SCL1,SCL1*%
%TO.N,unconnected-(A1-PadSCL1)*%
X45720000Y-133604000D03*
%TO.P,A1,SDA1,SDA1*%
%TO.N,unconnected-(A1-PadSDA1)*%
X48260000Y-133604000D03*
%TO.P,A1,VIN,VIN*%
%TO.N,PWR*%
X72644000Y-181864000D03*
%TD*%
D10*
%TO.P,J1,1,Pin_1*%
%TO.N,~{H_SYNC}*%
X103124000Y-138328400D03*
D11*
%TO.P,J1,2,Pin_2*%
%TO.N,H_VISIBLE*%
X100584000Y-138328400D03*
%TO.P,J1,3,Pin_3*%
%TO.N,~{SCREEN_VISIBLE}*%
X103124000Y-140868400D03*
%TO.P,J1,4,Pin_4*%
%TO.N,~{V_RESET}*%
X100584000Y-140868400D03*
%TO.P,J1,5,Pin_5*%
%TO.N,GND*%
X103124000Y-143408400D03*
%TO.P,J1,6,Pin_6*%
%TO.N,~{V_SYNC}*%
X100584000Y-143408400D03*
%TO.P,J1,7,Pin_7*%
%TO.N,V_FRONT_PORCH*%
X103124000Y-145948400D03*
%TO.P,J1,8,Pin_8*%
%TO.N,~{V_VISIBLE}*%
X100584000Y-145948400D03*
%TD*%
D16*
%TO.P,U9,1,I1*%
%TO.N,Net-(U5-Q0)*%
X49885600Y-177927000D03*
D17*
%TO.P,U9,2,I2*%
%TO.N,A10*%
X52425600Y-177927000D03*
%TO.P,U9,3,I3*%
%TO.N,A11*%
X54965600Y-177927000D03*
%TO.P,U9,4,I4*%
%TO.N,A12*%
X57505600Y-177927000D03*
%TO.P,U9,5,I5*%
%TO.N,A13*%
X60045600Y-177927000D03*
%TO.P,U9,6,I6*%
%TO.N,A14*%
X62585600Y-177927000D03*
%TO.P,U9,7,I7*%
%TO.N,A15*%
X65125600Y-177927000D03*
%TO.P,U9,8,I8*%
%TO.N,A16*%
X67665600Y-177927000D03*
%TO.P,U9,9,I9*%
%TO.N,A17*%
X70205600Y-177927000D03*
%TO.P,U9,10,I10*%
%TO.N,A18*%
X72745600Y-177927000D03*
%TO.P,U9,11,I11*%
%TO.N,H_VISIBLE*%
X75285600Y-177927000D03*
%TO.P,U9,12,GND*%
%TO.N,GND*%
X77825600Y-177927000D03*
%TO.P,U9,13,I13*%
%TO.N,unconnected-(U9-I13-Pad13)*%
X77825600Y-167767000D03*
%TO.P,U9,14,IO14*%
%TO.N,~{V_VISIBLE}*%
X75285600Y-167767000D03*
%TO.P,U9,15,IO15*%
%TO.N,V_FRONT_PORCH*%
X72745600Y-167767000D03*
%TO.P,U9,16,IO16*%
%TO.N,~{V_SYNC}*%
X70205600Y-167767000D03*
%TO.P,U9,17,IO17*%
%TO.N,unconnected-(U9-IO17-Pad17)*%
X67665600Y-167767000D03*
%TO.P,U9,18,IO18*%
%TO.N,unconnected-(U9-IO18-Pad18)*%
X65125600Y-167767000D03*
%TO.P,U9,19,IO19*%
%TO.N,unconnected-(U9-IO19-Pad19)*%
X62585600Y-167767000D03*
%TO.P,U9,20,IO20*%
%TO.N,~{V_RESET}*%
X60045600Y-167767000D03*
%TO.P,U9,21,IO21*%
%TO.N,~{SCREEN_VISIBLE}*%
X57505600Y-167767000D03*
%TO.P,U9,22,IO22*%
%TO.N,unconnected-(U9-IO22-Pad22)*%
X54965600Y-167767000D03*
%TO.P,U9,23,IO23*%
%TO.N,unconnected-(U9-IO23-Pad23)*%
X52425600Y-167767000D03*
%TO.P,U9,24,VCC*%
%TO.N,PWR*%
X49885600Y-167767000D03*
%TD*%
D20*
%TO.P,C4,1*%
%TO.N,PWR*%
X64605000Y-171516000D03*
%TO.P,C4,2*%
%TO.N,V_FRONT_PORCH*%
X64605000Y-173416000D03*
%TD*%
D21*
%TO.P,U14,1,A->B*%
%TO.N,PWR*%
X94657300Y-136855200D03*
%TO.P,U14,2,A0*%
%TO.N,A0*%
X94657300Y-138125200D03*
%TO.P,U14,3,A1*%
%TO.N,A1*%
X94657300Y-139395200D03*
%TO.P,U14,4,A2*%
%TO.N,A2*%
X94657300Y-140665200D03*
%TO.P,U14,5,A3*%
%TO.N,A3*%
X94657300Y-141935200D03*
%TO.P,U14,6,A4*%
%TO.N,A4*%
X94657300Y-143205200D03*
%TO.P,U14,7,A5*%
%TO.N,A5*%
X94657300Y-144475200D03*
%TO.P,U14,8,A6*%
%TO.N,A6*%
X94657300Y-145745200D03*
%TO.P,U14,9,A7*%
%TO.N,A7*%
X94657300Y-147015200D03*
%TO.P,U14,10,GND*%
%TO.N,GND*%
X94657300Y-148285200D03*
%TO.P,U14,11,B7*%
%TO.N,MEMADDR7*%
X85457300Y-148285200D03*
%TO.P,U14,12,B6*%
%TO.N,MEMADDR6*%
X85457300Y-147015200D03*
%TO.P,U14,13,B5*%
%TO.N,MEMADDR5*%
X85457300Y-145745200D03*
%TO.P,U14,14,B4*%
%TO.N,MEMADDR4*%
X85457300Y-144475200D03*
%TO.P,U14,15,B3*%
%TO.N,MEMADDR3*%
X85457300Y-143205200D03*
%TO.P,U14,16,B2*%
%TO.N,MEMADDR2*%
X85457300Y-141935200D03*
%TO.P,U14,17,B1*%
%TO.N,MEMADDR1*%
X85457300Y-140665200D03*
%TO.P,U14,18,B0*%
%TO.N,MEMADDR0*%
X85457300Y-139395200D03*
%TO.P,U14,19,CE*%
%TO.N,~{TIMING ADDR}*%
X85457300Y-138125200D03*
%TO.P,U14,20,VCC*%
%TO.N,PWR*%
X85457300Y-136855200D03*
%TD*%
D20*
%TO.P,C8,1*%
%TO.N,PWR*%
X73635000Y-171516000D03*
%TO.P,C8,2*%
%TO.N,~{SCREEN_VISIBLE}*%
X73635000Y-173416000D03*
%TD*%
D22*
%TO.P,U4,1,~{MR}*%
%TO.N,Net-(U3-~{MR})*%
X88681000Y-152984200D03*
%TO.P,U4,2,CP*%
%TO.N,H_CLK*%
X88681000Y-154254200D03*
%TO.P,U4,3,D0*%
%TO.N,unconnected-(U4-D0-Pad3)*%
X88681000Y-155524200D03*
%TO.P,U4,4,D1*%
%TO.N,unconnected-(U4-D1-Pad4)*%
X88681000Y-156794200D03*
%TO.P,U4,5,D2*%
%TO.N,unconnected-(U4-D2-Pad5)*%
X88681000Y-158064200D03*
%TO.P,U4,6,D3*%
%TO.N,unconnected-(U4-D3-Pad6)*%
X88681000Y-159334200D03*
%TO.P,U4,7,CEP*%
%TO.N,PWR*%
X88681000Y-160604200D03*
%TO.P,U4,8,GND*%
%TO.N,GND*%
X88681000Y-161874200D03*
%TO.P,U4,9,~{PE}*%
%TO.N,PWR*%
X83531000Y-161874200D03*
%TO.P,U4,10,CET*%
%TO.N,Net-(U3-TC)*%
X83531000Y-160604200D03*
%TO.P,U4,11,Q3*%
%TO.N,unconnected-(U4-Q3-Pad11)*%
X83531000Y-159334200D03*
%TO.P,U4,12,Q2*%
%TO.N,unconnected-(U4-Q2-Pad12)*%
X83531000Y-158064200D03*
%TO.P,U4,13,Q1*%
%TO.N,A9*%
X83531000Y-156794200D03*
%TO.P,U4,14,Q0*%
%TO.N,A8*%
X83531000Y-155524200D03*
%TO.P,U4,15,TC*%
%TO.N,Net-(U4-TC)*%
X83531000Y-154254200D03*
%TO.P,U4,16,VCC*%
%TO.N,PWR*%
X83531000Y-152984200D03*
%TD*%
D23*
%TO.P,R1,1*%
%TO.N,Net-(U2-B2)*%
X45124200Y-161986000D03*
%TO.P,R1,2*%
%TO.N,Net-(J3-Pad1)*%
X46949200Y-161986000D03*
%TD*%
D20*
%TO.P,C7,1*%
%TO.N,PWR*%
X70625000Y-171516000D03*
%TO.P,C7,2*%
%TO.N,~{V_RESET}*%
X70625000Y-173416000D03*
%TD*%
D21*
%TO.P,U12,1,A->B*%
%TO.N,PWR*%
X68072000Y-136855200D03*
%TO.P,U12,2,A0*%
%TO.N,/MCUMEMADDR8*%
X68072000Y-138125200D03*
%TO.P,U12,3,A1*%
%TO.N,/MCUMEMADDR9*%
X68072000Y-139395200D03*
%TO.P,U12,4,A2*%
%TO.N,/MCUMEMADDR10*%
X68072000Y-140665200D03*
%TO.P,U12,5,A3*%
%TO.N,/MCUMEMADDR11*%
X68072000Y-141935200D03*
%TO.P,U12,6,A4*%
%TO.N,/MCUMEMADDR12*%
X68072000Y-143205200D03*
%TO.P,U12,7,A5*%
%TO.N,/MCUMEMADDR13*%
X68072000Y-144475200D03*
%TO.P,U12,8,A6*%
%TO.N,/MCUMEMADDR14*%
X68072000Y-145745200D03*
%TO.P,U12,9,A7*%
%TO.N,/MCUMEMADDR15*%
X68072000Y-147015200D03*
%TO.P,U12,10,GND*%
%TO.N,GND*%
X68072000Y-148285200D03*
%TO.P,U12,11,B7*%
%TO.N,MEMADDR15*%
X58872000Y-148285200D03*
%TO.P,U12,12,B6*%
%TO.N,MEMADDR14*%
X58872000Y-147015200D03*
%TO.P,U12,13,B5*%
%TO.N,MEMADDR13*%
X58872000Y-145745200D03*
%TO.P,U12,14,B4*%
%TO.N,MEMADDR12*%
X58872000Y-144475200D03*
%TO.P,U12,15,B3*%
%TO.N,MEMADDR11*%
X58872000Y-143205200D03*
%TO.P,U12,16,B2*%
%TO.N,MEMADDR10*%
X58872000Y-141935200D03*
%TO.P,U12,17,B1*%
%TO.N,MEMADDR9*%
X58872000Y-140665200D03*
%TO.P,U12,18,B0*%
%TO.N,MEMADDR8*%
X58872000Y-139395200D03*
%TO.P,U12,19,CE*%
%TO.N,Net-(U11-CE)*%
X58872000Y-138125200D03*
%TO.P,U12,20,VCC*%
%TO.N,PWR*%
X58872000Y-136855200D03*
%TD*%
D23*
%TO.P,R8,1*%
%TO.N,Net-(U2-B6)*%
X45124200Y-159700000D03*
%TO.P,R8,2*%
%TO.N,Net-(J3-Pad3)*%
X46949200Y-159700000D03*
%TD*%
%TO.P,R4,1*%
%TO.N,Net-(U2-B5)*%
X45124200Y-164272000D03*
%TO.P,R4,2*%
%TO.N,Net-(J3-Pad2)*%
X46949200Y-164272000D03*
%TD*%
D24*
%TO.P,R2,1*%
%TO.N,Net-(U2-B1)*%
X46949200Y-157414000D03*
%TO.P,R2,2*%
%TO.N,Net-(J3-Pad1)*%
X45124200Y-157414000D03*
%TD*%
D25*
%TO.P,C9,1*%
%TO.N,GND*%
X33350200Y-147536000D03*
%TO.P,C9,2*%
%TO.N,PWR*%
X33350200Y-141986000D03*
%TD*%
%TO.P,C6,1*%
%TO.N,GND*%
X107772200Y-176136400D03*
%TO.P,C6,2*%
%TO.N,PWR*%
X107772200Y-170586400D03*
%TD*%
D22*
%TO.P,U3,1,~{MR}*%
%TO.N,Net-(U3-~{MR})*%
X99237800Y-152755600D03*
%TO.P,U3,2,CP*%
%TO.N,H_CLK*%
X99237800Y-154025600D03*
%TO.P,U3,3,D0*%
%TO.N,unconnected-(U3-D0-Pad3)*%
X99237800Y-155295600D03*
%TO.P,U3,4,D1*%
%TO.N,unconnected-(U3-D1-Pad4)*%
X99237800Y-156565600D03*
%TO.P,U3,5,D2*%
%TO.N,unconnected-(U3-D2-Pad5)*%
X99237800Y-157835600D03*
%TO.P,U3,6,D3*%
%TO.N,unconnected-(U3-D3-Pad6)*%
X99237800Y-159105600D03*
%TO.P,U3,7,CEP*%
%TO.N,PWR*%
X99237800Y-160375600D03*
%TO.P,U3,8,GND*%
%TO.N,GND*%
X99237800Y-161645600D03*
%TO.P,U3,9,~{PE}*%
%TO.N,PWR*%
X94087800Y-161645600D03*
%TO.P,U3,10,CET*%
%TO.N,Net-(U10-TC)*%
X94087800Y-160375600D03*
%TO.P,U3,11,Q3*%
%TO.N,A7*%
X94087800Y-159105600D03*
%TO.P,U3,12,Q2*%
%TO.N,A6*%
X94087800Y-157835600D03*
%TO.P,U3,13,Q1*%
%TO.N,A5*%
X94087800Y-156565600D03*
%TO.P,U3,14,Q0*%
%TO.N,A4*%
X94087800Y-155295600D03*
%TO.P,U3,15,TC*%
%TO.N,Net-(U3-TC)*%
X94087800Y-154025600D03*
%TO.P,U3,16,VCC*%
%TO.N,PWR*%
X94087800Y-152755600D03*
%TD*%
D20*
%TO.P,C5,1*%
%TO.N,PWR*%
X67615000Y-171516000D03*
%TO.P,C5,2*%
%TO.N,~{V_SYNC}*%
X67615000Y-173416000D03*
%TD*%
%TO.P,C1,1*%
%TO.N,PWR*%
X55575000Y-171516000D03*
%TO.P,C1,2*%
%TO.N,Net-(U3-~{MR})*%
X55575000Y-173416000D03*
%TD*%
D26*
%TO.P,U1,1,A4*%
%TO.N,MEMADDR4*%
X116484400Y-149264800D03*
%TO.P,U1,2,A3*%
%TO.N,MEMADDR3*%
X116484400Y-150064800D03*
%TO.P,U1,3,A2*%
%TO.N,MEMADDR2*%
X116484400Y-150864800D03*
%TO.P,U1,4,A1*%
%TO.N,MEMADDR1*%
X116484400Y-151664800D03*
%TO.P,U1,5,A0*%
%TO.N,MEMADDR0*%
X116484400Y-152464800D03*
%TO.P,U1,6,~{CS1}*%
%TO.N,Net-(U1-~{CS1})*%
X116484400Y-153264800D03*
%TO.P,U1,7,NC*%
%TO.N,unconnected-(U1-NC-Pad7)*%
X116484400Y-154064800D03*
%TO.P,U1,8,NC*%
%TO.N,unconnected-(U1-NC-Pad8)*%
X116484400Y-154864800D03*
%TO.P,U1,9,I/O1*%
%TO.N,DATA7*%
X116484400Y-155664800D03*
%TO.P,U1,10,I/O2*%
%TO.N,DATA6*%
X116484400Y-156464800D03*
%TO.P,U1,11,VDD*%
%TO.N,PWR*%
X116484400Y-157264800D03*
%TO.P,U1,12,GND*%
%TO.N,GND*%
X116484400Y-158064800D03*
%TO.P,U1,13,I/O3*%
%TO.N,DATA5*%
X116484400Y-158864800D03*
%TO.P,U1,14,I/O4*%
%TO.N,DATA4*%
X116484400Y-159664800D03*
%TO.P,U1,15,NC*%
%TO.N,unconnected-(U1-NC-Pad15)*%
X116484400Y-160464800D03*
%TO.P,U1,16,NC*%
%TO.N,unconnected-(U1-NC-Pad16)*%
X116484400Y-161264800D03*
%TO.P,U1,17,~{WE}*%
%TO.N,Net-(U1-~{WE})*%
X116484400Y-162064800D03*
%TO.P,U1,18,A19*%
%TO.N,MEMADDR19*%
X116484400Y-162864800D03*
%TO.P,U1,19,A18*%
%TO.N,MEMADDR18*%
X116484400Y-163664800D03*
%TO.P,U1,20,A17*%
%TO.N,MEMADDR17*%
X116484400Y-164464800D03*
%TO.P,U1,21,A16*%
%TO.N,MEMADDR16*%
X116484400Y-165264800D03*
%TO.P,U1,22,A15*%
%TO.N,MEMADDR15*%
X116484400Y-166064800D03*
%TO.P,U1,23,A14*%
%TO.N,MEMADDR14*%
X105309400Y-166064800D03*
%TO.P,U1,24,A13*%
%TO.N,MEMADDR13*%
X105309400Y-165264800D03*
%TO.P,U1,25,A12*%
%TO.N,MEMADDR12*%
X105309400Y-164464800D03*
%TO.P,U1,26,A11*%
%TO.N,MEMADDR11*%
X105309400Y-163664800D03*
%TO.P,U1,27,A10*%
%TO.N,MEMADDR10*%
X105309400Y-162864800D03*
%TO.P,U1,28,A9*%
%TO.N,MEMADDR9*%
X105309400Y-162064800D03*
%TO.P,U1,29,NC*%
%TO.N,unconnected-(U1-NC-Pad29)*%
X105309400Y-161264800D03*
%TO.P,U1,30,NC*%
%TO.N,unconnected-(U1-NC-Pad30)*%
X105309400Y-160464800D03*
%TO.P,U1,31,I/O5*%
%TO.N,DATA3*%
X105309400Y-159664800D03*
%TO.P,U1,32,I/O6*%
%TO.N,DATA2*%
X105309400Y-158864800D03*
%TO.P,U1,33,VDD*%
%TO.N,PWR*%
X105309400Y-158064800D03*
%TO.P,U1,34,GND*%
%TO.N,GND*%
X105309400Y-157264800D03*
%TO.P,U1,35,I/O7*%
%TO.N,DATA1*%
X105309400Y-156464800D03*
%TO.P,U1,36,I/O8*%
%TO.N,DATA0*%
X105309400Y-155664800D03*
%TO.P,U1,37,NC*%
%TO.N,unconnected-(U1-NC-Pad37)*%
X105309400Y-154864800D03*
%TO.P,U1,38,NC*%
%TO.N,unconnected-(U1-NC-Pad38)*%
X105309400Y-154064800D03*
%TO.P,U1,39,A8*%
%TO.N,MEMADDR8*%
X105309400Y-153264800D03*
%TO.P,U1,40,CS2*%
%TO.N,PWR*%
X105309400Y-152464800D03*
%TO.P,U1,41,~{OE}*%
%TO.N,~{OE}*%
X105309400Y-151664800D03*
%TO.P,U1,42,A7*%
%TO.N,MEMADDR7*%
X105309400Y-150864800D03*
%TO.P,U1,43,A6*%
%TO.N,MEMADDR6*%
X105309400Y-150064800D03*
%TO.P,U1,44,A5*%
%TO.N,MEMADDR5*%
X105309400Y-149264800D03*
%TD*%
D24*
%TO.P,R5,1*%
%TO.N,Net-(U2-B4)*%
X46949200Y-155128000D03*
%TO.P,R5,2*%
%TO.N,Net-(J3-Pad2)*%
X45124200Y-155128000D03*
%TD*%
%TO.P,R7,1*%
%TO.N,Net-(U2-B7)*%
X46949200Y-166558000D03*
%TO.P,R7,2*%
%TO.N,Net-(J3-Pad3)*%
X45124200Y-166558000D03*
%TD*%
D20*
%TO.P,C3,1*%
%TO.N,PWR*%
X61595000Y-171516000D03*
%TO.P,C3,2*%
%TO.N,~{H_SYNC}*%
X61595000Y-173416000D03*
%TD*%
D23*
%TO.P,R11,1*%
%TO.N,Net-(J3-Pad13)*%
X32500000Y-151650000D03*
%TO.P,R11,2*%
%TO.N,~{H_SYNC}*%
X34325000Y-151650000D03*
%TD*%
D21*
%TO.P,U13,1,A->B*%
%TO.N,PWR*%
X81364700Y-136855200D03*
%TO.P,U13,2,A0*%
%TO.N,A8*%
X81364700Y-138125200D03*
%TO.P,U13,3,A1*%
%TO.N,A9*%
X81364700Y-139395200D03*
%TO.P,U13,4,A2*%
%TO.N,A10*%
X81364700Y-140665200D03*
%TO.P,U13,5,A3*%
%TO.N,A11*%
X81364700Y-141935200D03*
%TO.P,U13,6,A4*%
%TO.N,A12*%
X81364700Y-143205200D03*
%TO.P,U13,7,A5*%
%TO.N,A13*%
X81364700Y-144475200D03*
%TO.P,U13,8,A6*%
%TO.N,A14*%
X81364700Y-145745200D03*
%TO.P,U13,9,A7*%
%TO.N,A15*%
X81364700Y-147015200D03*
%TO.P,U13,10,GND*%
%TO.N,GND*%
X81364700Y-148285200D03*
%TO.P,U13,11,B7*%
%TO.N,MEMADDR15*%
X72164700Y-148285200D03*
%TO.P,U13,12,B6*%
%TO.N,MEMADDR14*%
X72164700Y-147015200D03*
%TO.P,U13,13,B5*%
%TO.N,MEMADDR13*%
X72164700Y-145745200D03*
%TO.P,U13,14,B4*%
%TO.N,MEMADDR12*%
X72164700Y-144475200D03*
%TO.P,U13,15,B3*%
%TO.N,MEMADDR11*%
X72164700Y-143205200D03*
%TO.P,U13,16,B2*%
%TO.N,MEMADDR10*%
X72164700Y-141935200D03*
%TO.P,U13,17,B1*%
%TO.N,MEMADDR9*%
X72164700Y-140665200D03*
%TO.P,U13,18,B0*%
%TO.N,MEMADDR8*%
X72164700Y-139395200D03*
%TO.P,U13,19,CE*%
%TO.N,~{TIMING ADDR}*%
X72164700Y-138125200D03*
%TO.P,U13,20,VCC*%
%TO.N,PWR*%
X72164700Y-136855200D03*
%TD*%
%TO.P,U11,1,A->B*%
%TO.N,PWR*%
X54779300Y-136855200D03*
%TO.P,U11,2,A0*%
%TO.N,/MCUMEMADDR0*%
X54779300Y-138125200D03*
%TO.P,U11,3,A1*%
%TO.N,/MCUMEMADDR1*%
X54779300Y-139395200D03*
%TO.P,U11,4,A2*%
%TO.N,/MCUMEMADDR2*%
X54779300Y-140665200D03*
%TO.P,U11,5,A3*%
%TO.N,/MCUMEMADDR3*%
X54779300Y-141935200D03*
%TO.P,U11,6,A4*%
%TO.N,/MCUMEMADDR4*%
X54779300Y-143205200D03*
%TO.P,U11,7,A5*%
%TO.N,/MCUMEMADDR5*%
X54779300Y-144475200D03*
%TO.P,U11,8,A6*%
%TO.N,/MCUMEMADDR6*%
X54779300Y-145745200D03*
%TO.P,U11,9,A7*%
%TO.N,/MCUMEMADDR7*%
X54779300Y-147015200D03*
%TO.P,U11,10,GND*%
%TO.N,GND*%
X54779300Y-148285200D03*
%TO.P,U11,11,B7*%
%TO.N,MEMADDR7*%
X45579300Y-148285200D03*
%TO.P,U11,12,B6*%
%TO.N,MEMADDR6*%
X45579300Y-147015200D03*
%TO.P,U11,13,B5*%
%TO.N,MEMADDR5*%
X45579300Y-145745200D03*
%TO.P,U11,14,B4*%
%TO.N,MEMADDR4*%
X45579300Y-144475200D03*
%TO.P,U11,15,B3*%
%TO.N,MEMADDR3*%
X45579300Y-143205200D03*
%TO.P,U11,16,B2*%
%TO.N,MEMADDR2*%
X45579300Y-141935200D03*
%TO.P,U11,17,B1*%
%TO.N,MEMADDR1*%
X45579300Y-140665200D03*
%TO.P,U11,18,B0*%
%TO.N,MEMADDR0*%
X45579300Y-139395200D03*
%TO.P,U11,19,CE*%
%TO.N,Net-(U11-CE)*%
X45579300Y-138125200D03*
%TO.P,U11,20,VCC*%
%TO.N,PWR*%
X45579300Y-136855200D03*
%TD*%
D20*
%TO.P,C2,1*%
%TO.N,PWR*%
X58585000Y-171516000D03*
%TO.P,C2,2*%
%TO.N,H_VISIBLE*%
X58585000Y-173416000D03*
%TD*%
D24*
%TO.P,R6,1*%
%TO.N,Net-(U2-B3)*%
X46949200Y-150606800D03*
%TO.P,R6,2*%
%TO.N,Net-(J3-Pad2)*%
X45124200Y-150606800D03*
%TD*%
D23*
%TO.P,R12,1*%
%TO.N,Net-(J3-Pad14)*%
X32500000Y-154444000D03*
%TO.P,R12,2*%
%TO.N,~{V_SYNC}*%
X34325000Y-154444000D03*
%TD*%
%TO.P,R10,1*%
%TO.N,GND*%
X100925000Y-148250000D03*
%TO.P,R10,2*%
%TO.N,Net-(U1-~{CS1})*%
X102750000Y-148250000D03*
%TD*%
D24*
%TO.P,R3,1*%
%TO.N,Net-(U2-B0)*%
X46949200Y-152892800D03*
%TO.P,R3,2*%
%TO.N,Net-(J3-Pad1)*%
X45124200Y-152892800D03*
%TD*%
D27*
%TO.N,Net-(U11-CE)*%
X66094300Y-137550000D03*
X114190200Y-146851100D03*
%TO.N,Net-(U1-~{WE})*%
X118152300Y-160385800D03*
X97487400Y-142967800D03*
%TO.N,/MCUMEMADDR5*%
X56367000Y-157520100D03*
%TO.N,/MCUMEMADDR13*%
X66583600Y-144475200D03*
%TO.N,DATA2*%
X114522200Y-173628000D03*
X114443500Y-159651700D03*
%TO.N,/MCUMEMADDR12*%
X62528400Y-142760300D03*
%TO.N,DATA1*%
X113882100Y-176632600D03*
X108111400Y-155301700D03*
%TO.N,DATA5*%
X113158600Y-174740500D03*
%TO.N,/MCUMEMADDR15*%
X69530500Y-146996000D03*
%TO.N,/MCUMEMADDR14*%
X66610200Y-145914700D03*
%TO.N,/MCUMEMADDR10*%
X69539000Y-140402200D03*
%TO.N,/MCUMEMADDR8*%
X69614000Y-137455900D03*
%TO.N,DATA3*%
X114513200Y-174513100D03*
%TO.N,DATA0*%
X115850900Y-176599600D03*
X107224100Y-154389200D03*
%TO.N,~{TIMING ADDR}*%
X62029700Y-138138000D03*
X89143500Y-138142500D03*
%TO.N,/MCUMEMADDR1*%
X60479900Y-139738500D03*
%TO.N,/MCUMEMADDR11*%
X70577000Y-141772900D03*
%TO.N,/MCUMEMADDR6*%
X56321400Y-151826400D03*
%TO.N,/MCUMEMADDR0*%
X53320600Y-138125200D03*
%TO.N,/MCUMEMADDR19*%
X66379800Y-141735900D03*
%TO.N,/MCUMEMADDR18*%
X65786300Y-140425400D03*
%TO.N,/MCUMEMADDR3*%
X67321500Y-170474000D03*
%TO.N,DATA7*%
X115215100Y-156039400D03*
%TO.N,DATA4*%
X111601500Y-176066800D03*
%TO.N,A17*%
X87253800Y-161659100D03*
%TO.N,A18*%
X60361700Y-142296200D03*
X91772000Y-161531600D03*
%TO.N,A16*%
X86602300Y-157486900D03*
%TO.N,Net-(U10-TC)*%
X93469100Y-151880800D03*
%TO.N,A14*%
X84972100Y-161661100D03*
X82105700Y-151893400D03*
%TO.N,A15*%
X85305500Y-157452100D03*
%TO.N,A13*%
X82050100Y-160781200D03*
X80104900Y-150083100D03*
%TO.N,Net-(U6-TC)*%
X82334700Y-157452100D03*
X100547600Y-157317000D03*
%TO.N,A12*%
X86146200Y-152485700D03*
X87647000Y-147999100D03*
%TO.N,A11*%
X68577300Y-169271600D03*
X79969800Y-143706600D03*
%TO.N,A10*%
X82822200Y-139844400D03*
%TO.N,Net-(U5-Q0)*%
X68122600Y-170216100D03*
%TO.N,A9*%
X79104400Y-152812500D03*
%TO.N,Net-(U4-TC)*%
X85173400Y-153005500D03*
%TO.N,A7*%
X95897900Y-161673300D03*
X91553300Y-149273500D03*
%TO.N,A5*%
X91178700Y-162074500D03*
X95833900Y-153253000D03*
X90505600Y-148614600D03*
%TO.N,A4*%
X95896600Y-154053200D03*
X98647500Y-148163200D03*
X90457500Y-161661100D03*
%TO.N,A6*%
X96698100Y-161373800D03*
X91079500Y-149931300D03*
%TO.N,H_CLK*%
X92290000Y-154085700D03*
%TO.N,A3*%
X99847800Y-148552000D03*
X68267300Y-155237400D03*
%TO.N,A0*%
X89249500Y-143241500D03*
X56248300Y-149487400D03*
%TO.N,A2*%
X96910300Y-146426100D03*
X57753400Y-162595400D03*
X70822600Y-152562600D03*
%TO.N,A1*%
X91157000Y-146614100D03*
X73674300Y-150396900D03*
%TO.N,MEMADDR6*%
X49496800Y-150023800D03*
X102406100Y-150184000D03*
%TO.N,/MCUMEMADDR2*%
X54056600Y-156889800D03*
%TO.N,MEMADDR1*%
X114578900Y-151664800D03*
X86747700Y-140064100D03*
X49251900Y-140179900D03*
%TO.N,/MCUMEMADDR7*%
X55085200Y-151829200D03*
%TO.N,MEMADDR8*%
X104035000Y-153900500D03*
X75442700Y-140244500D03*
X62253000Y-140653800D03*
%TO.N,MEMADDR19*%
X112657400Y-160916900D03*
X83670600Y-143190400D03*
%TO.N,MEMADDR17*%
X107293200Y-159171700D03*
X74955300Y-140899600D03*
%TO.N,/MCUMEMADDR17*%
X65795500Y-139155400D03*
%TO.N,MEMADDR16*%
X108295100Y-161153600D03*
X78596200Y-141952600D03*
%TO.N,MEMADDR18*%
X111913800Y-161486800D03*
X76400700Y-141962500D03*
%TO.N,MEMADDR7*%
X84018000Y-151825300D03*
X47130000Y-149290000D03*
%TO.N,~{OE}*%
X109950600Y-154555700D03*
%TO.N,MEMADDR3*%
X86744600Y-142590300D03*
X97733400Y-139465200D03*
X49181700Y-143867400D03*
%TO.N,MEMADDR12*%
X103952200Y-164558600D03*
X74812600Y-144887300D03*
%TO.N,MEMADDR4*%
X88184900Y-142239700D03*
X50591700Y-143185400D03*
X115473900Y-146402900D03*
%TO.N,MEMADDR5*%
X82850200Y-143394400D03*
X49196500Y-146686800D03*
%TO.N,MEMADDR15*%
X111481900Y-164525700D03*
X77418200Y-157712900D03*
%TO.N,MEMADDR11*%
X103340800Y-160539500D03*
X70498200Y-143961500D03*
%TO.N,MEMADDR10*%
X103212300Y-162194000D03*
X75144000Y-144087100D03*
%TO.N,/MCUMEMADDR9*%
X70404000Y-140257900D03*
%TO.N,/MCUMEMADDR4*%
X62888300Y-166033100D03*
%TO.N,MEMADDR9*%
X104021600Y-162039200D03*
X74811000Y-142330400D03*
%TO.N,MEMADDR2*%
X83988400Y-141990100D03*
X49353700Y-143066700D03*
%TO.N,MEMADDR14*%
X98330500Y-166077800D03*
X74963400Y-146087600D03*
%TO.N,MEMADDR13*%
X99157000Y-165938400D03*
X75859800Y-145687500D03*
%TO.N,MEMADDR0*%
X113084100Y-151797100D03*
X87948000Y-139844400D03*
X49181000Y-139179600D03*
%TO.N,Net-(U2-B7)*%
X47860300Y-165646900D03*
X116263000Y-167007500D03*
%TO.N,Net-(U2-B6)*%
X47592500Y-160854100D03*
X114686000Y-167393000D03*
%TO.N,Net-(U2-B5)*%
X47971200Y-167065500D03*
X113258900Y-170320100D03*
%TO.N,Net-(U2-B4)*%
X48711500Y-156890300D03*
X113163700Y-167030600D03*
%TO.N,Net-(U2-B3)*%
X52316100Y-158348500D03*
X110862300Y-167036600D03*
%TO.N,Net-(U2-B2)*%
X44671400Y-168258200D03*
X110514100Y-170305400D03*
%TO.N,Net-(U2-B1)*%
X47843600Y-158308400D03*
X109361800Y-167017000D03*
%TO.N,Net-(U2-B0)*%
X55088500Y-161985400D03*
X107350200Y-167412700D03*
%TO.N,Net-(J3-Pad3)*%
X45853800Y-158484500D03*
%TO.N,Net-(J3-Pad2)*%
X47896000Y-163428200D03*
%TO.N,~{V_VISIBLE}*%
X79720500Y-151718500D03*
%TO.N,GND*%
X91027700Y-164128600D03*
X53953000Y-149128400D03*
X66011400Y-148029500D03*
X106574600Y-156966000D03*
X109671000Y-156001700D03*
X100051700Y-162464200D03*
X80273000Y-152863300D03*
%TO.N,~{SCREEN_VISIBLE}*%
X72402100Y-173304400D03*
X104511800Y-168646000D03*
%TO.N,~{V_RESET}*%
X80511600Y-163801900D03*
X78484800Y-149753700D03*
%TO.N,~{V_SYNC}*%
X35351100Y-154326200D03*
X69876300Y-157740100D03*
X74198900Y-151003900D03*
%TO.N,V_FRONT_PORCH*%
X75636700Y-152009900D03*
%TO.N,~{H_SYNC}*%
X35361400Y-151090400D03*
X72056000Y-151164000D03*
%TO.N,H_VISIBLE*%
X71919700Y-172002100D03*
%TO.N,Net-(U3-~{MR})*%
X85624300Y-154227100D03*
X56548500Y-172600400D03*
%TO.N,PWR*%
X82148900Y-153355900D03*
X96115400Y-136482500D03*
X73533000Y-135803200D03*
X105067700Y-170763000D03*
%TD*%
D28*
%TO.N,Net-(U11-CE)*%
X58237000Y-137490200D02*
X58872000Y-138125200D01*
X46214300Y-137490200D02*
X58237000Y-137490200D01*
X45579300Y-138125200D02*
X46214300Y-137490200D01*
X66068700Y-137524400D02*
X66094300Y-137550000D01*
X59472800Y-137524400D02*
X66068700Y-137524400D01*
X58872000Y-138125200D02*
X59472800Y-137524400D01*
%TO.N,Net-(U1-~{WE})*%
X118152300Y-161056700D02*
X118152300Y-160385800D01*
X117144200Y-162064800D02*
X118152300Y-161056700D01*
X116484400Y-162064800D02*
X117144200Y-162064800D01*
%TO.N,/MCUMEMADDR5*%
X55150600Y-144475200D02*
X54779300Y-144475200D01*
X56454400Y-145779000D02*
X55150600Y-144475200D01*
X56454400Y-148844900D02*
X56454400Y-145779000D01*
X56961000Y-149351500D02*
X56454400Y-148844900D01*
X56961000Y-152259300D02*
X56961000Y-149351500D01*
X56367000Y-152853300D02*
X56961000Y-152259300D01*
X56367000Y-157520100D02*
X56367000Y-152853300D01*
%TO.N,/MCUMEMADDR13*%
X68072000Y-144475200D02*
X66583600Y-144475200D01*
%TO.N,DATA2*%
X113356700Y-158564900D02*
X114443500Y-159651700D01*
X106926100Y-158564900D02*
X113356700Y-158564900D01*
X106626200Y-158864800D02*
X106926100Y-158564900D01*
X105309400Y-158864800D02*
X106626200Y-158864800D01*
%TO.N,/MCUMEMADDR12*%
X62973300Y-143205200D02*
X62528400Y-142760300D01*
X68072000Y-143205200D02*
X62973300Y-143205200D01*
%TO.N,DATA1*%
X105451000Y-156323200D02*
X105309400Y-156464800D01*
X107089900Y-156323200D02*
X105451000Y-156323200D01*
X108111400Y-155301700D02*
X107089900Y-156323200D01*
%TO.N,DATA5*%
X117339500Y-158864800D02*
X119740300Y-156464000D01*
X116484400Y-158864800D02*
X117339500Y-158864800D01*
X120904000Y-156464000D02*
X119740300Y-156464000D01*
%TO.N,/MCUMEMADDR15*%
X68091200Y-146996000D02*
X69530500Y-146996000D01*
X68072000Y-147015200D02*
X68091200Y-146996000D01*
%TO.N,/MCUMEMADDR14*%
X66779700Y-145745200D02*
X68072000Y-145745200D01*
X66610200Y-145914700D02*
X66779700Y-145745200D01*
%TO.N,/MCUMEMADDR10*%
X68335000Y-140402200D02*
X68072000Y-140665200D01*
X69539000Y-140402200D02*
X68335000Y-140402200D01*
%TO.N,/MCUMEMADDR8*%
X68944700Y-138125200D02*
X69614000Y-137455900D01*
X68072000Y-138125200D02*
X68944700Y-138125200D01*
%TO.N,DATA3*%
X112295600Y-176730700D02*
X114513200Y-174513100D01*
X111416800Y-176730700D02*
X112295600Y-176730700D01*
X109882000Y-175195900D02*
X111416800Y-176730700D01*
X109882000Y-167345500D02*
X109882000Y-175195900D01*
X109967400Y-167260100D02*
X109882000Y-167345500D01*
X109967400Y-163718700D02*
X109967400Y-167260100D01*
X105913500Y-159664800D02*
X109967400Y-163718700D01*
X105309400Y-159664800D02*
X105913500Y-159664800D01*
%TO.N,DATA0*%
X105948500Y-155664800D02*
X107224100Y-154389200D01*
X105309400Y-155664800D02*
X105948500Y-155664800D01*
%TO.N,~{TIMING ADDR}*%
X84822300Y-137490200D02*
X85457300Y-138125200D01*
X72799700Y-137490200D02*
X84822300Y-137490200D01*
X72164700Y-138125200D02*
X72799700Y-137490200D01*
X89126200Y-138125200D02*
X89143500Y-138142500D01*
X85457300Y-138125200D02*
X89126200Y-138125200D01*
X71559000Y-138730900D02*
X72164700Y-138125200D01*
X66429900Y-138730900D02*
X71559000Y-138730900D01*
X65849100Y-138150100D02*
X66429900Y-138730900D01*
X62041800Y-138150100D02*
X65849100Y-138150100D01*
X62029700Y-138138000D02*
X62041800Y-138150100D01*
%TO.N,/MCUMEMADDR1*%
X60479900Y-139345200D02*
X60479900Y-139738500D01*
X59929100Y-138794400D02*
X60479900Y-139345200D01*
X55380100Y-138794400D02*
X59929100Y-138794400D01*
X54779300Y-139395200D02*
X55380100Y-138794400D01*
%TO.N,/MCUMEMADDR11*%
X70414700Y-141935200D02*
X70577000Y-141772900D01*
X68072000Y-141935200D02*
X70414700Y-141935200D01*
%TO.N,/MCUMEMADDR6*%
X55637000Y-151142000D02*
X56321400Y-151826400D01*
X55637000Y-149080100D02*
X55637000Y-151142000D01*
X56030100Y-148687000D02*
X55637000Y-149080100D01*
X56030100Y-146592700D02*
X56030100Y-148687000D01*
X55182600Y-145745200D02*
X56030100Y-146592700D01*
X54779300Y-145745200D02*
X55182600Y-145745200D01*
%TO.N,/MCUMEMADDR0*%
X54779300Y-138125200D02*
X53320600Y-138125200D01*
%TO.N,/MCUMEMADDR3*%
X66381000Y-169533500D02*
X67321500Y-170474000D01*
X66381000Y-153640200D02*
X66381000Y-169533500D01*
X64753800Y-152013000D02*
X66381000Y-153640200D01*
X60991800Y-152013000D02*
X64753800Y-152013000D01*
X57556100Y-148577300D02*
X60991800Y-152013000D01*
X57556100Y-144321100D02*
X57556100Y-148577300D01*
X55170200Y-141935200D02*
X57556100Y-144321100D01*
X54779300Y-141935200D02*
X55170200Y-141935200D01*
%TO.N,DATA7*%
X115589700Y-155664800D02*
X115215100Y-156039400D01*
X116484400Y-155664800D02*
X115589700Y-155664800D01*
%TO.N,DATA4*%
X123444000Y-153924000D02*
X123444000Y-155087700D01*
X118764100Y-159664800D02*
X116484400Y-159664800D01*
X118764100Y-159493200D02*
X118764100Y-159664800D01*
X120523300Y-157734000D02*
X118764100Y-159493200D01*
X121324700Y-157734000D02*
X120523300Y-157734000D01*
X122280300Y-156778400D02*
X121324700Y-157734000D01*
X122280300Y-155960400D02*
X122280300Y-156778400D01*
X123153000Y-155087700D02*
X122280300Y-155960400D01*
X123444000Y-155087700D02*
X123153000Y-155087700D01*
X111601500Y-173487200D02*
X111601500Y-176066800D01*
X118764100Y-166324600D02*
X111601500Y-173487200D01*
X118764100Y-159664800D02*
X118764100Y-166324600D01*
%TO.N,Net-(U10-TC)*%
X94379700Y-160375600D02*
X94087800Y-160375600D01*
X95297800Y-161293700D02*
X94379700Y-160375600D01*
X95297800Y-161921800D02*
X95297800Y-161293700D01*
X95660400Y-162284400D02*
X95297800Y-161921800D01*
X96636400Y-162284400D02*
X95660400Y-162284400D01*
X97366300Y-161554500D02*
X96636400Y-162284400D01*
X97366300Y-153909900D02*
X97366300Y-161554500D01*
X95337200Y-151880800D02*
X97366300Y-153909900D01*
X93469100Y-151880800D02*
X95337200Y-151880800D01*
%TO.N,A14*%
X82632200Y-151366900D02*
X82105700Y-151893400D01*
X82632200Y-147944300D02*
X82632200Y-151366900D01*
X82338100Y-147650200D02*
X82632200Y-147944300D01*
X80360200Y-147650200D02*
X82338100Y-147650200D01*
X80092800Y-147382800D02*
X80360200Y-147650200D01*
X80092800Y-146683000D02*
X80092800Y-147382800D01*
X81030600Y-145745200D02*
X80092800Y-146683000D01*
X81364700Y-145745200D02*
X81030600Y-145745200D01*
%TO.N,A15*%
X82269000Y-147015200D02*
X81364700Y-147015200D01*
X83049000Y-147795200D02*
X82269000Y-147015200D01*
X83049000Y-151837200D02*
X83049000Y-147795200D01*
X82354300Y-152531900D02*
X83049000Y-151837200D01*
X82089900Y-152531900D02*
X82354300Y-152531900D01*
X81494200Y-153127600D02*
X82089900Y-152531900D01*
X81494200Y-153765800D02*
X81494200Y-153127600D01*
X82583400Y-154855000D02*
X81494200Y-153765800D01*
X84441400Y-154855000D02*
X82583400Y-154855000D01*
X85305500Y-155719100D02*
X84441400Y-154855000D01*
X85305500Y-157452100D02*
X85305500Y-155719100D01*
%TO.N,A13*%
X79658600Y-149636800D02*
X80104900Y-150083100D01*
X79658600Y-145825300D02*
X79658600Y-149636800D01*
X81008700Y-144475200D02*
X79658600Y-145825300D01*
X81364700Y-144475200D02*
X81008700Y-144475200D01*
%TO.N,A12*%
X87647000Y-147536800D02*
X87647000Y-147999100D01*
X86456100Y-146345900D02*
X87647000Y-147536800D01*
X84406600Y-146345900D02*
X86456100Y-146345900D01*
X82615500Y-144554800D02*
X84406600Y-146345900D01*
X82615500Y-144110000D02*
X82615500Y-144554800D01*
X81710700Y-143205200D02*
X82615500Y-144110000D01*
X81364700Y-143205200D02*
X81710700Y-143205200D01*
%TO.N,A11*%
X79969800Y-143002700D02*
X79969800Y-143706600D01*
X81037300Y-141935200D02*
X79969800Y-143002700D01*
X81364700Y-141935200D02*
X81037300Y-141935200D01*
%TO.N,A10*%
X82001400Y-140665200D02*
X82822200Y-139844400D01*
X81364700Y-140665200D02*
X82001400Y-140665200D01*
%TO.N,A9*%
X72745600Y-164109400D02*
X73845700Y-164109400D01*
X73845700Y-163992800D02*
X73845700Y-164109400D01*
X81044300Y-156794200D02*
X73845700Y-163992800D01*
X83531000Y-156794200D02*
X81044300Y-156794200D01*
X80965500Y-139395200D02*
X81364700Y-139395200D01*
X79631300Y-140729400D02*
X80965500Y-139395200D01*
X79631300Y-142229600D02*
X79631300Y-140729400D01*
X79104400Y-142756500D02*
X79631300Y-142229600D01*
X79104400Y-152812500D02*
X79104400Y-142756500D01*
%TO.N,A8*%
X70205600Y-164109400D02*
X71305700Y-164109400D01*
X83531000Y-155524200D02*
X79774900Y-155524200D01*
X79774900Y-156235100D02*
X79774900Y-155524200D01*
X77534000Y-158476000D02*
X79774900Y-156235100D01*
X76823200Y-158476000D02*
X77534000Y-158476000D01*
X71305700Y-163993500D02*
X76823200Y-158476000D01*
X71305700Y-164109400D02*
X71305700Y-163993500D01*
X79774900Y-154331500D02*
X79774900Y-155524200D01*
X77884700Y-152441300D02*
X79774900Y-154331500D01*
X77884700Y-141245100D02*
X77884700Y-152441300D01*
X81004600Y-138125200D02*
X77884700Y-141245100D01*
X81364700Y-138125200D02*
X81004600Y-138125200D01*
%TO.N,Net-(U4-TC)*%
X83924700Y-154254200D02*
X85173400Y-153005500D01*
X83531000Y-154254200D02*
X83924700Y-154254200D01*
%TO.N,A7*%
X93811600Y-147015200D02*
X91553300Y-149273500D01*
X94657300Y-147015200D02*
X93811600Y-147015200D01*
X95897900Y-160600700D02*
X95897900Y-161673300D01*
X94402800Y-159105600D02*
X95897900Y-160600700D01*
X94087800Y-159105600D02*
X94402800Y-159105600D01*
%TO.N,A5*%
X90505600Y-148261700D02*
X90505600Y-148614600D01*
X94292100Y-144475200D02*
X90505600Y-148261700D01*
X94657300Y-144475200D02*
X94292100Y-144475200D01*
X94353300Y-156565600D02*
X94087800Y-156565600D01*
X96565500Y-154353400D02*
X94353300Y-156565600D01*
X96565500Y-153863700D02*
X96565500Y-154353400D01*
X95954800Y-153253000D02*
X96565500Y-153863700D01*
X95833900Y-153253000D02*
X95954800Y-153253000D01*
X91096700Y-161992500D02*
X91178700Y-162074500D01*
X91096700Y-159308900D02*
X91096700Y-161992500D01*
X93840000Y-156565600D02*
X91096700Y-159308900D01*
X94087800Y-156565600D02*
X93840000Y-156565600D01*
%TO.N,A4*%
X90457500Y-158617400D02*
X90457500Y-161661100D01*
X93779300Y-155295600D02*
X90457500Y-158617400D01*
X94087800Y-155295600D02*
X93779300Y-155295600D01*
X95896600Y-154378800D02*
X95896600Y-154053200D01*
X94979800Y-155295600D02*
X95896600Y-154378800D01*
X94087800Y-155295600D02*
X94979800Y-155295600D01*
X98647500Y-148163100D02*
X98647500Y-148163200D01*
X97739700Y-148163100D02*
X98647500Y-148163100D01*
X96250700Y-146674100D02*
X97739700Y-148163100D01*
X96250700Y-144461900D02*
X96250700Y-146674100D01*
X94994000Y-143205200D02*
X96250700Y-144461900D01*
X94657300Y-143205200D02*
X94994000Y-143205200D01*
%TO.N,A6*%
X90953200Y-149805000D02*
X91079500Y-149931300D01*
X90953200Y-149025000D02*
X90953200Y-149805000D01*
X94233000Y-145745200D02*
X90953200Y-149025000D01*
X94657300Y-145745200D02*
X94233000Y-145745200D01*
X96698100Y-160192000D02*
X96698100Y-161373800D01*
X94341700Y-157835600D02*
X96698100Y-160192000D01*
X94087800Y-157835600D02*
X94341700Y-157835600D01*
%TO.N,H_CLK*%
X92062800Y-153858500D02*
X92290000Y-154085700D01*
X91667100Y-154254200D02*
X92062800Y-153858500D01*
X88681000Y-154254200D02*
X91667100Y-154254200D01*
X98832000Y-154025600D02*
X99237800Y-154025600D01*
X96087100Y-151280700D02*
X98832000Y-154025600D01*
X93175500Y-151280700D02*
X96087100Y-151280700D01*
X92062800Y-152393400D02*
X93175500Y-151280700D01*
X92062800Y-153858500D02*
X92062800Y-152393400D01*
%TO.N,Net-(U3-TC)*%
X84578100Y-160604200D02*
X83531000Y-160604200D01*
X87753100Y-157429200D02*
X84578100Y-160604200D01*
X89857400Y-157429200D02*
X87753100Y-157429200D01*
X93261000Y-154025600D02*
X89857400Y-157429200D01*
X94087800Y-154025600D02*
X93261000Y-154025600D01*
%TO.N,A3*%
X95594400Y-141935200D02*
X94657300Y-141935200D01*
X97231400Y-143572200D02*
X95594400Y-141935200D01*
X97231400Y-145898500D02*
X97231400Y-143572200D01*
X99847800Y-148514900D02*
X97231400Y-145898500D01*
X99847800Y-148552000D02*
X99847800Y-148514900D01*
%TO.N,A0*%
X89249500Y-143130200D02*
X89249500Y-143241500D01*
X94254500Y-138125200D02*
X89249500Y-143130200D01*
X94657300Y-138125200D02*
X94254500Y-138125200D01*
%TO.N,A2*%
X96752400Y-146268200D02*
X96910300Y-146426100D01*
X96752400Y-143659100D02*
X96752400Y-146268200D01*
X95697800Y-142604500D02*
X96752400Y-143659100D01*
X93675200Y-142604500D02*
X95697800Y-142604500D01*
X93406500Y-142335800D02*
X93675200Y-142604500D01*
X93406500Y-141570700D02*
X93406500Y-142335800D01*
X94312000Y-140665200D02*
X93406500Y-141570700D01*
X94657300Y-140665200D02*
X94312000Y-140665200D01*
%TO.N,A1*%
X91157000Y-142476200D02*
X91157000Y-146614100D01*
X94238000Y-139395200D02*
X91157000Y-142476200D01*
X94657300Y-139395200D02*
X94238000Y-139395200D01*
%TO.N,MEMADDR6*%
X105190200Y-150184000D02*
X105309400Y-150064800D01*
X102406100Y-150184000D02*
X105190200Y-150184000D01*
X102302500Y-150080400D02*
X102406100Y-150184000D01*
X92344900Y-150080400D02*
X102302500Y-150080400D01*
X91493800Y-150931500D02*
X92344900Y-150080400D01*
X89730800Y-150931500D02*
X91493800Y-150931500D01*
X85814500Y-147015200D02*
X89730800Y-150931500D01*
X85457300Y-147015200D02*
X85814500Y-147015200D01*
X46488200Y-147015200D02*
X49496800Y-150023800D01*
X45579300Y-147015200D02*
X46488200Y-147015200D01*
%TO.N,/MCUMEMADDR2*%
X53695600Y-156528800D02*
X54056600Y-156889800D01*
X53695600Y-152272300D02*
X53695600Y-156528800D01*
X52930700Y-151507400D02*
X53695600Y-152272300D01*
X52930700Y-142122800D02*
X52930700Y-151507400D01*
X54388300Y-140665200D02*
X52930700Y-142122800D01*
X54779300Y-140665200D02*
X54388300Y-140665200D01*
%TO.N,MEMADDR1*%
X48766600Y-140665200D02*
X49251900Y-140179900D01*
X45579300Y-140665200D02*
X48766600Y-140665200D01*
X116484400Y-151664800D02*
X114578900Y-151664800D01*
X86146600Y-140665200D02*
X86747700Y-140064100D01*
X85457300Y-140665200D02*
X86146600Y-140665200D01*
%TO.N,/MCUMEMADDR7*%
X53352800Y-150096800D02*
X55085200Y-151829200D01*
X53352800Y-148059800D02*
X53352800Y-150096800D01*
X54397400Y-147015200D02*
X53352800Y-148059800D01*
X54779300Y-147015200D02*
X54397400Y-147015200D01*
%TO.N,MEMADDR8*%
X104670700Y-153264800D02*
X104035000Y-153900500D01*
X105309400Y-153264800D02*
X104670700Y-153264800D01*
X59210500Y-139395200D02*
X58872000Y-139395200D01*
X60469100Y-140653800D02*
X59210500Y-139395200D01*
X62253000Y-140653800D02*
X60469100Y-140653800D01*
X74593400Y-139395200D02*
X75442700Y-140244500D01*
X72164700Y-139395200D02*
X74593400Y-139395200D01*
%TO.N,MEMADDR19*%
X114605300Y-162864800D02*
X112657400Y-160916900D01*
X116484400Y-162864800D02*
X114605300Y-162864800D01*
%TO.N,MEMADDR17*%
X108418400Y-159171700D02*
X107293200Y-159171700D01*
X113711500Y-164464800D02*
X108418400Y-159171700D01*
X116484400Y-164464800D02*
X113711500Y-164464800D01*
%TO.N,MEMADDR16*%
X113069700Y-165264800D02*
X116484400Y-165264800D01*
X108958500Y-161153600D02*
X113069700Y-165264800D01*
X108295100Y-161153600D02*
X108958500Y-161153600D01*
%TO.N,MEMADDR18*%
X114091800Y-163664800D02*
X111913800Y-161486800D01*
X116484400Y-163664800D02*
X114091800Y-163664800D01*
%TO.N,MEMADDR7*%
X46584100Y-149290000D02*
X45579300Y-148285200D01*
X47130000Y-149290000D02*
X46584100Y-149290000D01*
X86580700Y-151331600D02*
X85546200Y-150297100D01*
X91659500Y-151331600D02*
X86580700Y-151331600D01*
X92510600Y-150480500D02*
X91659500Y-151331600D01*
X98948200Y-150480500D02*
X92510600Y-150480500D01*
X99332500Y-150864800D02*
X98948200Y-150480500D01*
X105309400Y-150864800D02*
X99332500Y-150864800D01*
X85457300Y-150208200D02*
X85457300Y-148285200D01*
X85546200Y-150297100D02*
X85457300Y-150208200D01*
X85546200Y-150297100D02*
X84018000Y-151825300D01*
%TO.N,~{OE}*%
X107059700Y-151664800D02*
X109950600Y-154555700D01*
X105309400Y-151664800D02*
X107059700Y-151664800D01*
%TO.N,MEMADDR3*%
X97969800Y-139701600D02*
X97733400Y-139465200D01*
X103642100Y-139701600D02*
X97969800Y-139701600D01*
X114005300Y-150064800D02*
X103642100Y-139701600D01*
X116484400Y-150064800D02*
X114005300Y-150064800D01*
X46241500Y-143867400D02*
X49181700Y-143867400D01*
X45579300Y-143205200D02*
X46241500Y-143867400D01*
X86072200Y-142590300D02*
X86744600Y-142590300D01*
X85457300Y-143205200D02*
X86072200Y-142590300D01*
%TO.N,MEMADDR12*%
X104046000Y-164464800D02*
X103952200Y-164558600D01*
X105309400Y-164464800D02*
X104046000Y-164464800D01*
X72576800Y-144887300D02*
X74812600Y-144887300D01*
X72164700Y-144475200D02*
X72576800Y-144887300D01*
X71543000Y-145096900D02*
X72164700Y-144475200D01*
X59493700Y-145096900D02*
X71543000Y-145096900D01*
X58872000Y-144475200D02*
X59493700Y-145096900D01*
%TO.N,MEMADDR4*%
X85949400Y-144475200D02*
X85457300Y-144475200D01*
X88184900Y-142239700D02*
X85949400Y-144475200D01*
X115473900Y-148254300D02*
X115473900Y-146402900D01*
X116484400Y-149264800D02*
X115473900Y-148254300D01*
X50591700Y-143383700D02*
X50591700Y-143185400D01*
X49500200Y-144475200D02*
X50591700Y-143383700D01*
X45579300Y-144475200D02*
X49500200Y-144475200D01*
%TO.N,MEMADDR5*%
X48254900Y-145745200D02*
X45579300Y-145745200D01*
X49196500Y-146686800D02*
X48254900Y-145745200D01*
X86424400Y-145745200D02*
X85457300Y-145745200D01*
X90479400Y-149800200D02*
X86424400Y-145745200D01*
X90479400Y-150179800D02*
X90479400Y-149800200D01*
X90831000Y-150531400D02*
X90479400Y-150179800D01*
X91328000Y-150531400D02*
X90831000Y-150531400D01*
X92307200Y-149552200D02*
X91328000Y-150531400D01*
X100262100Y-149552200D02*
X92307200Y-149552200D01*
X100549500Y-149264800D02*
X100262100Y-149552200D01*
X105309400Y-149264800D02*
X100549500Y-149264800D01*
X82850200Y-143511700D02*
X82850200Y-143394400D01*
X85083700Y-145745200D02*
X82850200Y-143511700D01*
X85457300Y-145745200D02*
X85083700Y-145745200D01*
%TO.N,MEMADDR15*%
X72164700Y-148285200D02*
X71563900Y-148886000D01*
X59472800Y-148886000D02*
X58872000Y-148285200D01*
X71563900Y-148886000D02*
X59472800Y-148886000D01*
X72663000Y-149985100D02*
X71563900Y-148886000D01*
X72663000Y-151813000D02*
X72663000Y-149985100D01*
X74157200Y-153307200D02*
X72663000Y-151813000D01*
X74157200Y-154451900D02*
X74157200Y-153307200D01*
X77418200Y-157712900D02*
X74157200Y-154451900D01*
X113021000Y-166064800D02*
X111481900Y-164525700D01*
X116484400Y-166064800D02*
X113021000Y-166064800D01*
%TO.N,DATA6*%
X124663300Y-155244700D02*
X123444000Y-156464000D01*
X124663300Y-153479900D02*
X124663300Y-155244700D01*
X123915700Y-152732300D02*
X124663300Y-153479900D01*
X120344200Y-152732300D02*
X123915700Y-152732300D01*
X118999900Y-154076600D02*
X120344200Y-152732300D01*
X118999900Y-154551000D02*
X118999900Y-154076600D01*
X117086100Y-156464800D02*
X118999900Y-154551000D01*
X116484400Y-156464800D02*
X117086100Y-156464800D01*
%TO.N,MEMADDR11*%
X71553400Y-143816500D02*
X72164700Y-143205200D01*
X70498200Y-143816500D02*
X71553400Y-143816500D01*
X103768800Y-163664800D02*
X105309400Y-163664800D01*
X102567800Y-162463800D02*
X103768800Y-163664800D01*
X102567800Y-161312500D02*
X102567800Y-162463800D01*
X103340800Y-160539500D02*
X102567800Y-161312500D01*
X59483300Y-143816500D02*
X58872000Y-143205200D01*
X70498200Y-143816500D02*
X59483300Y-143816500D01*
X70498200Y-143816500D02*
X70498200Y-143961500D01*
%TO.N,MEMADDR10*%
X72992100Y-141935200D02*
X72164700Y-141935200D01*
X75144000Y-144087100D02*
X72992100Y-141935200D01*
X59121500Y-141685700D02*
X58872000Y-141935200D01*
X62401300Y-141685700D02*
X59121500Y-141685700D01*
X63275900Y-142560300D02*
X62401300Y-141685700D01*
X71539600Y-142560300D02*
X63275900Y-142560300D01*
X72164700Y-141935200D02*
X71539600Y-142560300D01*
X103883100Y-162864800D02*
X103212300Y-162194000D01*
X105309400Y-162864800D02*
X103883100Y-162864800D01*
%TO.N,/MCUMEMADDR9*%
X69541300Y-139395200D02*
X70404000Y-140257900D01*
X68072000Y-139395200D02*
X69541300Y-139395200D01*
%TO.N,/MCUMEMADDR4*%
X61145800Y-164290600D02*
X62888300Y-166033100D01*
X61145800Y-152970400D02*
X61145800Y-164290600D01*
X56869300Y-148693900D02*
X61145800Y-152970400D01*
X56869300Y-144950600D02*
X56869300Y-148693900D01*
X55123900Y-143205200D02*
X56869300Y-144950600D01*
X54779300Y-143205200D02*
X55123900Y-143205200D01*
%TO.N,MEMADDR9*%
X104047200Y-162064800D02*
X104021600Y-162039200D01*
X105309400Y-162064800D02*
X104047200Y-162064800D01*
X73145800Y-140665200D02*
X72164700Y-140665200D01*
X74811000Y-142330400D02*
X73145800Y-140665200D01*
X71971900Y-140858000D02*
X72164700Y-140665200D01*
X70178300Y-140858000D02*
X71971900Y-140858000D01*
X69701900Y-141334400D02*
X70178300Y-140858000D01*
X67019900Y-141334400D02*
X69701900Y-141334400D01*
X66821200Y-141135700D02*
X67019900Y-141334400D01*
X64430800Y-141135700D02*
X66821200Y-141135700D01*
X64312600Y-141253900D02*
X64430800Y-141135700D01*
X59460700Y-141253900D02*
X64312600Y-141253900D01*
X58872000Y-140665200D02*
X59460700Y-141253900D01*
%TO.N,MEMADDR2*%
X84043300Y-141935200D02*
X83988400Y-141990100D01*
X85457300Y-141935200D02*
X84043300Y-141935200D01*
X87640800Y-141935200D02*
X85457300Y-141935200D01*
X92085700Y-137490300D02*
X87640800Y-141935200D01*
X95651000Y-137490300D02*
X92085700Y-137490300D01*
X96928400Y-138767700D02*
X95651000Y-137490300D01*
X96928400Y-139534300D02*
X96928400Y-138767700D01*
X99532500Y-142138400D02*
X96928400Y-139534300D01*
X104697000Y-142138400D02*
X99532500Y-142138400D01*
X113423400Y-150864800D02*
X104697000Y-142138400D01*
X116484400Y-150864800D02*
X113423400Y-150864800D01*
X48222200Y-141935200D02*
X49353700Y-143066700D01*
X45579300Y-141935200D02*
X48222200Y-141935200D01*
%TO.N,MEMADDR14*%
X104809400Y-166564800D02*
X105309400Y-166064800D01*
X98817500Y-166564800D02*
X104809400Y-166564800D01*
X98330500Y-166077800D02*
X98817500Y-166564800D01*
X74035800Y-147015200D02*
X72164700Y-147015200D01*
X74963400Y-146087600D02*
X74035800Y-147015200D01*
X66230300Y-147015200D02*
X58872000Y-147015200D01*
X66835700Y-147620600D02*
X66230300Y-147015200D01*
X71559300Y-147620600D02*
X66835700Y-147620600D01*
X72164700Y-147015200D02*
X71559300Y-147620600D01*
%TO.N,MEMADDR13*%
X99830600Y-165264800D02*
X99157000Y-165938400D01*
X105309400Y-165264800D02*
X99830600Y-165264800D01*
X65168300Y-145745200D02*
X58872000Y-145745200D01*
X65975100Y-146552000D02*
X65168300Y-145745200D01*
X66821600Y-146552000D02*
X65975100Y-146552000D01*
X67002200Y-146371400D02*
X66821600Y-146552000D01*
X71538500Y-146371400D02*
X67002200Y-146371400D01*
X72164700Y-145745200D02*
X71538500Y-146371400D01*
X75659800Y-145487500D02*
X75859800Y-145687500D01*
X72422400Y-145487500D02*
X75659800Y-145487500D01*
X72164700Y-145745200D02*
X72422400Y-145487500D01*
%TO.N,MEMADDR0*%
X113751800Y-152464800D02*
X113084100Y-151797100D01*
X116484400Y-152464800D02*
X113751800Y-152464800D01*
X48965400Y-139395200D02*
X49181000Y-139179600D01*
X45579300Y-139395200D02*
X48965400Y-139395200D01*
X87498800Y-139395200D02*
X87948000Y-139844400D01*
X85457300Y-139395200D02*
X87498800Y-139395200D01*
%TO.N,Net-(U1-~{CS1})*%
X110827000Y-153264800D02*
X116484400Y-153264800D01*
X105812200Y-148250000D02*
X110827000Y-153264800D01*
X102750000Y-148250000D02*
X105812200Y-148250000D01*
%TO.N,Net-(U2-B7)*%
X46949200Y-166558000D02*
X47860300Y-165646900D01*
%TO.N,Net-(U2-B6)*%
X46278300Y-160854100D02*
X47592500Y-160854100D01*
X45124200Y-159700000D02*
X46278300Y-160854100D01*
%TO.N,Net-(U2-B5)*%
X47459100Y-167577600D02*
X47971200Y-167065500D01*
X44650700Y-167577600D02*
X47459100Y-167577600D01*
X44297100Y-167224000D02*
X44650700Y-167577600D01*
X44297100Y-165099100D02*
X44297100Y-167224000D01*
X45124200Y-164272000D02*
X44297100Y-165099100D01*
%TO.N,Net-(U2-B4)*%
X46949200Y-155128000D02*
X48711500Y-156890300D01*
%TO.N,Net-(U2-B3)*%
X47857000Y-153889400D02*
X52316100Y-158348500D01*
X47857000Y-151514600D02*
X47857000Y-153889400D01*
X46949200Y-150606800D02*
X47857000Y-151514600D01*
%TO.N,Net-(U2-B2)*%
X43886900Y-167473700D02*
X44671400Y-168258200D01*
X43886900Y-163223300D02*
X43886900Y-167473700D01*
X45124200Y-161986000D02*
X43886900Y-163223300D01*
%TO.N,Net-(U2-B1)*%
X46949200Y-157414000D02*
X47843600Y-158308400D01*
%TO.N,Net-(U2-B0)*%
X49899300Y-156796200D02*
X55088500Y-161985400D01*
X49899300Y-156551300D02*
X49899300Y-156796200D01*
X46949200Y-153601200D02*
X49899300Y-156551300D01*
X46949200Y-152892800D02*
X46949200Y-153601200D01*
%TO.N,Net-(J3-Pad1)*%
X41460000Y-159735000D02*
X42560100Y-159735000D01*
X43815400Y-159735000D02*
X42560100Y-159735000D01*
X43815400Y-159906700D02*
X43815400Y-159735000D01*
X44610100Y-160701400D02*
X43815400Y-159906700D01*
X45499500Y-160701400D02*
X44610100Y-160701400D01*
X46784100Y-161986000D02*
X45499500Y-160701400D01*
X46949200Y-161986000D02*
X46784100Y-161986000D01*
X43815400Y-158722800D02*
X45124200Y-157414000D01*
X43815400Y-159735000D02*
X43815400Y-158722800D01*
X45979700Y-156558500D02*
X45124200Y-157414000D01*
X45979700Y-153748300D02*
X45979700Y-156558500D01*
X45124200Y-152892800D02*
X45979700Y-153748300D01*
%TO.N,Net-(J3-Pad14)*%
X34079000Y-152865000D02*
X37500000Y-152865000D01*
X32500000Y-154444000D02*
X34079000Y-152865000D01*
%TO.N,Net-(J3-Pad13)*%
X37188800Y-155466200D02*
X37500000Y-155155000D01*
X32019300Y-155466200D02*
X37188800Y-155466200D01*
X31641500Y-155088400D02*
X32019300Y-155466200D01*
X31641500Y-152508500D02*
X31641500Y-155088400D01*
X32500000Y-151650000D02*
X31641500Y-152508500D01*
%TO.N,Net-(J3-Pad3)*%
X45853800Y-158604600D02*
X45853800Y-158484500D01*
X46949200Y-159700000D02*
X45853800Y-158604600D01*
X47336500Y-159700000D02*
X46949200Y-159700000D01*
X48213000Y-160576500D02*
X47336500Y-159700000D01*
X48213000Y-162238200D02*
X48213000Y-160576500D01*
X47180700Y-163270500D02*
X48213000Y-162238200D01*
X46455200Y-163270500D02*
X47180700Y-163270500D01*
X46036700Y-163689000D02*
X46455200Y-163270500D01*
X46036700Y-165645500D02*
X46036700Y-163689000D01*
X45124200Y-166558000D02*
X46036700Y-165645500D01*
%TO.N,Net-(J3-Pad2)*%
X44617300Y-154621100D02*
X45124200Y-155128000D01*
X44283900Y-154621100D02*
X44617300Y-154621100D01*
X44283900Y-151447100D02*
X44283900Y-154621100D01*
X45124200Y-150606800D02*
X44283900Y-151447100D01*
X44283900Y-154621100D02*
X41460000Y-157445000D01*
X47052200Y-164272000D02*
X47896000Y-163428200D01*
X46949200Y-164272000D02*
X47052200Y-164272000D01*
%TO.N,GND*%
X103124000Y-143408400D02*
X103124000Y-144558500D01*
X101854000Y-147321000D02*
X100925000Y-148250000D01*
X101854000Y-145590200D02*
X101854000Y-147321000D01*
X102885700Y-144558500D02*
X101854000Y-145590200D01*
X103124000Y-144558500D02*
X102885700Y-144558500D01*
X54779300Y-148302100D02*
X53953000Y-149128400D01*
X54779300Y-148285200D02*
X54779300Y-148302100D01*
X33350200Y-147981900D02*
X33350200Y-147536000D01*
X37088300Y-151720000D02*
X33350200Y-147981900D01*
X39480000Y-151720000D02*
X37088300Y-151720000D01*
X66267100Y-148285200D02*
X68072000Y-148285200D01*
X66011400Y-148029500D02*
X66267100Y-148285200D01*
X111734100Y-158064800D02*
X109671000Y-156001700D01*
X116484400Y-158064800D02*
X111734100Y-158064800D01*
X100925000Y-148323500D02*
X100925000Y-148250000D01*
X100096400Y-149152100D02*
X100925000Y-148323500D01*
X95524200Y-149152100D02*
X100096400Y-149152100D01*
X94657300Y-148285200D02*
X95524200Y-149152100D01*
X90935400Y-164128600D02*
X91027700Y-164128600D01*
X88681000Y-161874200D02*
X90935400Y-164128600D01*
X106275800Y-157264800D02*
X105309400Y-157264800D01*
X106574600Y-156966000D02*
X106275800Y-157264800D01*
X101539500Y-160976400D02*
X100051700Y-162464200D01*
X101539500Y-160401100D02*
X101539500Y-160976400D01*
X104675800Y-157264800D02*
X101539500Y-160401100D01*
X105309400Y-157264800D02*
X104675800Y-157264800D01*
X99237800Y-162464200D02*
X99237800Y-161645600D01*
X100051700Y-162464200D02*
X99237800Y-162464200D01*
X99237800Y-162464200D02*
X97573400Y-164128600D01*
X97573400Y-164128600D02*
X91027700Y-164128600D01*
X97573400Y-173113200D02*
X97573400Y-164128600D01*
X100596600Y-176136400D02*
X97573400Y-173113200D01*
X107772200Y-176136400D02*
X100596600Y-176136400D01*
X100596600Y-176136400D02*
X100076000Y-176657000D01*
X81364700Y-151771600D02*
X80273000Y-152863300D01*
X81364700Y-148285200D02*
X81364700Y-151771600D01*
%TO.N,~{SCREEN_VISIBLE}*%
X72513700Y-173416000D02*
X72402100Y-173304400D01*
X73635000Y-173416000D02*
X72513700Y-173416000D01*
%TO.N,~{V_RESET}*%
X80199500Y-163801900D02*
X80511600Y-163801900D01*
X76555600Y-167445800D02*
X80199500Y-163801900D01*
X76555600Y-168062100D02*
X76555600Y-167445800D01*
X75377700Y-169240000D02*
X76555600Y-168062100D01*
X71319000Y-169240000D02*
X75377700Y-169240000D01*
X69582400Y-170976600D02*
X71319000Y-169240000D01*
X69582400Y-172373400D02*
X69582400Y-170976600D01*
X70625000Y-173416000D02*
X69582400Y-172373400D01*
%TO.N,~{V_SYNC}*%
X70205600Y-167767000D02*
X70205600Y-168867100D01*
X68732200Y-172298800D02*
X67615000Y-173416000D01*
X68732200Y-170340500D02*
X68732200Y-172298800D01*
X70205600Y-168867100D02*
X68732200Y-170340500D01*
X35233300Y-154444000D02*
X35351100Y-154326200D01*
X34325000Y-154444000D02*
X35233300Y-154444000D01*
%TO.N,V_FRONT_PORCH*%
X71645500Y-168341700D02*
X71645500Y-167767000D01*
X69132400Y-170854800D02*
X71645500Y-168341700D01*
X69132400Y-173435000D02*
X69132400Y-170854800D01*
X68314700Y-174252700D02*
X69132400Y-173435000D01*
X65441700Y-174252700D02*
X68314700Y-174252700D01*
X64605000Y-173416000D02*
X65441700Y-174252700D01*
X72745600Y-167767000D02*
X71645500Y-167767000D01*
%TO.N,~{H_SYNC}*%
X34801800Y-151650000D02*
X35361400Y-151090400D01*
X34325000Y-151650000D02*
X34801800Y-151650000D01*
X61595000Y-173020300D02*
X61595000Y-173416000D01*
X64025500Y-170589800D02*
X61595000Y-173020300D01*
X64025500Y-156149600D02*
X64025500Y-170589800D01*
X65125600Y-155049500D02*
X64025500Y-156149600D01*
X65125600Y-153949400D02*
X65125600Y-155049500D01*
%TO.N,H_VISIBLE*%
X75285600Y-177927000D02*
X74185500Y-177927000D01*
X59857400Y-174688400D02*
X71720700Y-174688400D01*
X58585000Y-173416000D02*
X59857400Y-174688400D01*
X74185500Y-177153200D02*
X71720700Y-174688400D01*
X74185500Y-177927000D02*
X74185500Y-177153200D01*
X71720700Y-172201100D02*
X71919700Y-172002100D01*
X71720700Y-174688400D02*
X71720700Y-172201100D01*
%TO.N,Net-(U3-~{MR})*%
X90572700Y-152984200D02*
X88681000Y-152984200D01*
X92676300Y-150880600D02*
X90572700Y-152984200D01*
X97362800Y-150880600D02*
X92676300Y-150880600D01*
X99237800Y-152755600D02*
X97362800Y-150880600D01*
X55732900Y-173416000D02*
X55575000Y-173416000D01*
X56548500Y-172600400D02*
X55732900Y-173416000D01*
X86867200Y-152984200D02*
X85624300Y-154227100D01*
X88681000Y-152984200D02*
X86867200Y-152984200D01*
%TO.N,PWR*%
X38921700Y-134775100D02*
X39160000Y-134775100D01*
X33350200Y-140346600D02*
X38921700Y-134775100D01*
X33350200Y-141986000D02*
X33350200Y-140346600D01*
X39160000Y-133625000D02*
X39160000Y-134775100D01*
X58872000Y-136855200D02*
X54779300Y-136855200D01*
X54597200Y-171516000D02*
X55575000Y-171516000D01*
X50985700Y-167904500D02*
X54597200Y-171516000D01*
X50985700Y-167767000D02*
X50985700Y-167904500D01*
X49885600Y-167767000D02*
X50985700Y-167767000D01*
X72644000Y-181864000D02*
X73807700Y-181864000D01*
X76393700Y-179278000D02*
X73807700Y-181864000D01*
X76393700Y-174066600D02*
X76393700Y-179278000D01*
X79806400Y-174066600D02*
X76393700Y-174066600D01*
X84836000Y-169037000D02*
X79806400Y-174066600D01*
X83159300Y-153355900D02*
X82148900Y-153355900D01*
X83531000Y-152984200D02*
X83159300Y-153355900D01*
X88926100Y-160604200D02*
X88681000Y-160604200D01*
X85457300Y-136855200D02*
X94657300Y-136855200D01*
X84836000Y-162381500D02*
X84836000Y-169037000D01*
X84038300Y-162381500D02*
X84836000Y-162381500D01*
X83531000Y-161874200D02*
X84038300Y-162381500D01*
X86972200Y-160604200D02*
X88681000Y-160604200D01*
X85194900Y-162381500D02*
X86972200Y-160604200D01*
X84836000Y-162381500D02*
X85194900Y-162381500D01*
X85457300Y-136855200D02*
X81364700Y-136855200D01*
X73533000Y-135970900D02*
X73533000Y-135803200D01*
X74417300Y-136855200D02*
X73533000Y-135970900D01*
X81364700Y-136855200D02*
X74417300Y-136855200D01*
X73049000Y-135970900D02*
X72164700Y-136855200D01*
X73533000Y-135970900D02*
X73049000Y-135970900D01*
X58872000Y-136855200D02*
X68072000Y-136855200D01*
X68072000Y-136855200D02*
X72164700Y-136855200D01*
X49885600Y-153949400D02*
X49885600Y-152849300D01*
X41700000Y-133625000D02*
X41700000Y-134775100D01*
X41958400Y-134775100D02*
X44619900Y-137436600D01*
X41700000Y-134775100D02*
X41958400Y-134775100D01*
X44310800Y-137745700D02*
X44619900Y-137436600D01*
X44310800Y-147353900D02*
X44310800Y-137745700D01*
X44607100Y-147650200D02*
X44310800Y-147353900D01*
X46557300Y-147650200D02*
X44607100Y-147650200D01*
X48889800Y-149982700D02*
X46557300Y-147650200D01*
X48889800Y-151853500D02*
X48889800Y-149982700D01*
X49885600Y-152849300D02*
X48889800Y-151853500D01*
X76185600Y-174066600D02*
X73635000Y-171516000D01*
X76393700Y-174066600D02*
X76185600Y-174066600D01*
X89857300Y-159673000D02*
X88926100Y-160604200D01*
X89857300Y-157995200D02*
X89857300Y-159673000D01*
X93157600Y-154694900D02*
X89857300Y-157995200D01*
X95014700Y-154694900D02*
X93157600Y-154694900D01*
X95296500Y-154413100D02*
X95014700Y-154694900D01*
X95296500Y-153689400D02*
X95296500Y-154413100D01*
X94362700Y-152755600D02*
X95296500Y-153689400D01*
X94087800Y-152755600D02*
X94362700Y-152755600D01*
X58585000Y-171516000D02*
X60564800Y-171516000D01*
X60564800Y-171516000D02*
X61595000Y-171516000D01*
X64605000Y-171911700D02*
X64605000Y-171516000D01*
X62265600Y-174251100D02*
X64605000Y-171911700D01*
X60889200Y-174251100D02*
X62265600Y-174251100D01*
X60564800Y-173926700D02*
X60889200Y-174251100D01*
X60564800Y-171516000D02*
X60564800Y-173926700D01*
X67615000Y-171516000D02*
X64605000Y-171516000D01*
X70741700Y-171399300D02*
X70625000Y-171516000D01*
X73518300Y-171399300D02*
X70741700Y-171399300D01*
X73635000Y-171516000D02*
X73518300Y-171399300D01*
X93058800Y-162674600D02*
X94087800Y-161645600D01*
X90622400Y-162674600D02*
X93058800Y-162674600D01*
X89857400Y-161909600D02*
X90622400Y-162674600D01*
X89857400Y-161535500D02*
X89857400Y-161909600D01*
X88926100Y-160604200D02*
X89857400Y-161535500D01*
X99542900Y-160375600D02*
X99237800Y-160375600D01*
X102471500Y-157447000D02*
X99542900Y-160375600D01*
X102471500Y-154602900D02*
X102471500Y-157447000D01*
X104609600Y-152464800D02*
X102471500Y-154602900D01*
X105309400Y-152464800D02*
X104609600Y-152464800D01*
X95135100Y-162692900D02*
X94087800Y-161645600D01*
X96813300Y-162692900D02*
X95135100Y-162692900D01*
X98055900Y-161450300D02*
X96813300Y-162692900D01*
X98055900Y-161289200D02*
X98055900Y-161450300D01*
X98969500Y-160375600D02*
X98055900Y-161289200D01*
X99237800Y-160375600D02*
X98969500Y-160375600D01*
X113069200Y-155381900D02*
X108997900Y-155381900D01*
X114952100Y-157264800D02*
X113069200Y-155381900D01*
X116484400Y-157264800D02*
X114952100Y-157264800D01*
X106159600Y-152464800D02*
X105309400Y-152464800D01*
X108997900Y-155303100D02*
X106159600Y-152464800D01*
X108997900Y-155381900D02*
X108997900Y-155303100D01*
X95030000Y-136482500D02*
X96115400Y-136482500D01*
X94657300Y-136855200D02*
X95030000Y-136482500D01*
X44997900Y-137436600D02*
X45579300Y-136855200D01*
X44619900Y-137436600D02*
X44997900Y-137436600D01*
X45579300Y-136855200D02*
X54779300Y-136855200D01*
X108997900Y-155470700D02*
X108997900Y-155381900D01*
X106403800Y-158064800D02*
X108997900Y-155470700D01*
X105309400Y-158064800D02*
X106403800Y-158064800D01*
X58585000Y-171516000D02*
X55575000Y-171516000D01*
X105244300Y-170586400D02*
X105067700Y-170763000D01*
X107772200Y-170586400D02*
X105244300Y-170586400D01*
%TD*%
M02*
