%TF.GenerationSoftware,KiCad,Pcbnew,8.0.4+dfsg-1*%
%TF.CreationDate,2024-12-19T01:54:21-05:00*%
%TF.ProjectId,VGA_SRAM_Shield,5647415f-5352-4414-9d5f-536869656c64,rev?*%
%TF.SameCoordinates,Original*%
%TF.FileFunction,Paste,Top*%
%TF.FilePolarity,Positive*%
%FSLAX46Y46*%
G04 Gerber Fmt 4.6, Leading zero omitted, Abs format (unit mm)*
G04 Created by KiCad (PCBNEW 8.0.4+dfsg-1) date 2024-12-19 01:54:21*
%MOMM*%
%LPD*%
G01*
G04 APERTURE LIST*
G04 Aperture macros list*
%AMRoundRect*
0 Rectangle with rounded corners*
0 $1 Rounding radius*
0 $2 $3 $4 $5 $6 $7 $8 $9 X,Y pos of 4 corners*
0 Add a 4 corners polygon primitive as box body*
4,1,4,$2,$3,$4,$5,$6,$7,$8,$9,$2,$3,0*
0 Add four circle primitives for the rounded corners*
1,1,$1+$1,$2,$3*
1,1,$1+$1,$4,$5*
1,1,$1+$1,$6,$7*
1,1,$1+$1,$8,$9*
0 Add four rect primitives between the rounded corners*
20,1,$1+$1,$2,$3,$4,$5,0*
20,1,$1+$1,$4,$5,$6,$7,0*
20,1,$1+$1,$6,$7,$8,$9,0*
20,1,$1+$1,$8,$9,$2,$3,0*%
G04 Aperture macros list end*
%ADD10RoundRect,0.150000X-0.800000X-0.150000X0.800000X-0.150000X0.800000X0.150000X-0.800000X0.150000X0*%
%ADD11RoundRect,0.150000X0.150000X-0.800000X0.150000X0.800000X-0.150000X0.800000X-0.150000X-0.800000X0*%
%ADD12RoundRect,0.250000X-0.550000X1.050000X-0.550000X-1.050000X0.550000X-1.050000X0.550000X1.050000X0*%
%ADD13RoundRect,0.250000X0.450000X-0.262500X0.450000X0.262500X-0.450000X0.262500X-0.450000X-0.262500X0*%
%ADD14RoundRect,0.137500X-0.625000X-0.137500X0.625000X-0.137500X0.625000X0.137500X-0.625000X0.137500X0*%
%ADD15R,0.700000X1.600000*%
%ADD16R,1.200000X2.200000*%
%ADD17R,1.600000X1.400000*%
%ADD18R,1.200000X1.400000*%
%ADD19RoundRect,0.250000X0.475000X-0.250000X0.475000X0.250000X-0.475000X0.250000X-0.475000X-0.250000X0*%
G04 APERTURE END LIST*
D10*
%TO.C,U14*%
X84360800Y-136810000D03*
X84360800Y-138080000D03*
X84360800Y-139350000D03*
X84360800Y-140620000D03*
X84360800Y-141890000D03*
X84360800Y-143160000D03*
X84360800Y-144430000D03*
X84360800Y-145700000D03*
X84360800Y-146970000D03*
X84360800Y-148240000D03*
X93560800Y-148240000D03*
X93560800Y-146970000D03*
X93560800Y-145700000D03*
X93560800Y-144430000D03*
X93560800Y-143160000D03*
X93560800Y-141890000D03*
X93560800Y-140620000D03*
X93560800Y-139350000D03*
X93560800Y-138080000D03*
X93560800Y-136810000D03*
%TD*%
%TO.C,U12*%
X59021600Y-136810000D03*
X59021600Y-138080000D03*
X59021600Y-139350000D03*
X59021600Y-140620000D03*
X59021600Y-141890000D03*
X59021600Y-143160000D03*
X59021600Y-144430000D03*
X59021600Y-145700000D03*
X59021600Y-146970000D03*
X59021600Y-148240000D03*
X68221600Y-148240000D03*
X68221600Y-146970000D03*
X68221600Y-145700000D03*
X68221600Y-144430000D03*
X68221600Y-143160000D03*
X68221600Y-141890000D03*
X68221600Y-140620000D03*
X68221600Y-139350000D03*
X68221600Y-138080000D03*
X68221600Y-136810000D03*
%TD*%
D11*
%TO.C,U2*%
X107315000Y-179352000D03*
X108585000Y-179352000D03*
X109855000Y-179352000D03*
X111125000Y-179352000D03*
X112395000Y-179352000D03*
X113665000Y-179352000D03*
X114935000Y-179352000D03*
X116205000Y-179352000D03*
X117475000Y-179352000D03*
X118745000Y-179352000D03*
X118745000Y-170152000D03*
X117475000Y-170152000D03*
X116205000Y-170152000D03*
X114935000Y-170152000D03*
X113665000Y-170152000D03*
X112395000Y-170152000D03*
X111125000Y-170152000D03*
X109855000Y-170152000D03*
X108585000Y-170152000D03*
X107315000Y-170152000D03*
%TD*%
D12*
%TO.C,C9*%
X46482000Y-151108000D03*
X46482000Y-154708000D03*
%TD*%
D13*
%TO.C,R13*%
X57404000Y-166417000D03*
X57404000Y-164592000D03*
%TD*%
D14*
%TO.C,U1*%
X107443000Y-150484000D03*
X107443000Y-151284000D03*
X107443000Y-152084000D03*
X107443000Y-152884000D03*
X107443000Y-153684000D03*
X107443000Y-154484000D03*
X107443000Y-155284000D03*
X107443000Y-156084000D03*
X107443000Y-156884000D03*
X107443000Y-157684000D03*
X107443000Y-158484000D03*
X107443000Y-159284000D03*
X107443000Y-160084000D03*
X107443000Y-160884000D03*
X107443000Y-161684000D03*
X107443000Y-162484000D03*
X107443000Y-163284000D03*
X107443000Y-164084000D03*
X107443000Y-164884000D03*
X107443000Y-165684000D03*
X107443000Y-166484000D03*
X107443000Y-167284000D03*
X118618000Y-167284000D03*
X118618000Y-166484000D03*
X118618000Y-165684000D03*
X118618000Y-164884000D03*
X118618000Y-164084000D03*
X118618000Y-163284000D03*
X118618000Y-162484000D03*
X118618000Y-161684000D03*
X118618000Y-160884000D03*
X118618000Y-160084000D03*
X118618000Y-159284000D03*
X118618000Y-158484000D03*
X118618000Y-157684000D03*
X118618000Y-156884000D03*
X118618000Y-156084000D03*
X118618000Y-155284000D03*
X118618000Y-154484000D03*
X118618000Y-153684000D03*
X118618000Y-152884000D03*
X118618000Y-152084000D03*
X118618000Y-151284000D03*
X118618000Y-150484000D03*
%TD*%
D13*
%TO.C,R14*%
X59436000Y-166417000D03*
X59436000Y-164592000D03*
%TD*%
D10*
%TO.C,U18*%
X97030400Y-136810000D03*
X97030400Y-138080000D03*
X97030400Y-139350000D03*
X97030400Y-140620000D03*
X97030400Y-141890000D03*
X97030400Y-143160000D03*
X97030400Y-144430000D03*
X97030400Y-145700000D03*
X97030400Y-146970000D03*
X97030400Y-148240000D03*
X106230400Y-148240000D03*
X106230400Y-146970000D03*
X106230400Y-145700000D03*
X106230400Y-144430000D03*
X106230400Y-143160000D03*
X106230400Y-141890000D03*
X106230400Y-140620000D03*
X106230400Y-139350000D03*
X106230400Y-138080000D03*
X106230400Y-136810000D03*
%TD*%
%TO.C,U13*%
X71691200Y-136810000D03*
X71691200Y-138080000D03*
X71691200Y-139350000D03*
X71691200Y-140620000D03*
X71691200Y-141890000D03*
X71691200Y-143160000D03*
X71691200Y-144430000D03*
X71691200Y-145700000D03*
X71691200Y-146970000D03*
X71691200Y-148240000D03*
X80891200Y-148240000D03*
X80891200Y-146970000D03*
X80891200Y-145700000D03*
X80891200Y-144430000D03*
X80891200Y-143160000D03*
X80891200Y-141890000D03*
X80891200Y-140620000D03*
X80891200Y-139350000D03*
X80891200Y-138080000D03*
X80891200Y-136810000D03*
%TD*%
%TO.C,U11*%
X46352000Y-136810000D03*
X46352000Y-138080000D03*
X46352000Y-139350000D03*
X46352000Y-140620000D03*
X46352000Y-141890000D03*
X46352000Y-143160000D03*
X46352000Y-144430000D03*
X46352000Y-145700000D03*
X46352000Y-146970000D03*
X46352000Y-148240000D03*
X55552000Y-148240000D03*
X55552000Y-146970000D03*
X55552000Y-145700000D03*
X55552000Y-144430000D03*
X55552000Y-143160000D03*
X55552000Y-141890000D03*
X55552000Y-140620000D03*
X55552000Y-139350000D03*
X55552000Y-138080000D03*
X55552000Y-136810000D03*
%TD*%
%TO.C,U20*%
X109700000Y-136810000D03*
X109700000Y-138080000D03*
X109700000Y-139350000D03*
X109700000Y-140620000D03*
X109700000Y-141890000D03*
X109700000Y-143160000D03*
X109700000Y-144430000D03*
X109700000Y-145700000D03*
X109700000Y-146970000D03*
X109700000Y-148240000D03*
X118900000Y-148240000D03*
X118900000Y-146970000D03*
X118900000Y-145700000D03*
X118900000Y-144430000D03*
X118900000Y-143160000D03*
X118900000Y-141890000D03*
X118900000Y-140620000D03*
X118900000Y-139350000D03*
X118900000Y-138080000D03*
X118900000Y-136810000D03*
%TD*%
D15*
%TO.C,J4*%
X55315032Y-169878145D03*
X54215032Y-169878145D03*
X53115032Y-169878145D03*
X52015032Y-169878145D03*
X50915032Y-169878145D03*
X49815032Y-169878145D03*
X48715032Y-169878145D03*
X47615032Y-169878145D03*
X46515032Y-169878145D03*
D16*
X60815032Y-179978145D03*
D17*
X59915032Y-170378145D03*
D16*
X45315032Y-179978145D03*
D18*
X45315032Y-170378145D03*
%TD*%
D19*
%TO.C,C1*%
X61468000Y-166474500D03*
X61468000Y-164574500D03*
%TD*%
M02*
