%TF.GenerationSoftware,KiCad,Pcbnew,8.0.4+dfsg-1*%
%TF.CreationDate,2024-12-19T01:54:21-05:00*%
%TF.ProjectId,VGA_SRAM_Shield,5647415f-5352-4414-9d5f-536869656c64,rev?*%
%TF.SameCoordinates,Original*%
%TF.FileFunction,Paste,Bot*%
%TF.FilePolarity,Positive*%
%FSLAX46Y46*%
G04 Gerber Fmt 4.6, Leading zero omitted, Abs format (unit mm)*
G04 Created by KiCad (PCBNEW 8.0.4+dfsg-1) date 2024-12-19 01:54:21*
%MOMM*%
%LPD*%
G01*
G04 APERTURE LIST*
G04 Aperture macros list*
%AMRoundRect*
0 Rectangle with rounded corners*
0 $1 Rounding radius*
0 $2 $3 $4 $5 $6 $7 $8 $9 X,Y pos of 4 corners*
0 Add a 4 corners polygon primitive as box body*
4,1,4,$2,$3,$4,$5,$6,$7,$8,$9,$2,$3,0*
0 Add four circle primitives for the rounded corners*
1,1,$1+$1,$2,$3*
1,1,$1+$1,$4,$5*
1,1,$1+$1,$6,$7*
1,1,$1+$1,$8,$9*
0 Add four rect primitives between the rounded corners*
20,1,$1+$1,$2,$3,$4,$5,0*
20,1,$1+$1,$4,$5,$6,$7,0*
20,1,$1+$1,$6,$7,$8,$9,0*
20,1,$1+$1,$8,$9,$2,$3,0*%
G04 Aperture macros list end*
%ADD10RoundRect,0.150000X0.725000X0.150000X-0.725000X0.150000X-0.725000X-0.150000X0.725000X-0.150000X0*%
%ADD11RoundRect,0.250000X-0.250000X-0.475000X0.250000X-0.475000X0.250000X0.475000X-0.250000X0.475000X0*%
%ADD12RoundRect,0.250000X0.262500X0.450000X-0.262500X0.450000X-0.262500X-0.450000X0.262500X-0.450000X0*%
%ADD13RoundRect,0.250000X-0.262500X-0.450000X0.262500X-0.450000X0.262500X0.450000X-0.262500X0.450000X0*%
%ADD14RoundRect,0.150000X0.825000X0.150000X-0.825000X0.150000X-0.825000X-0.150000X0.825000X-0.150000X0*%
G04 APERTURE END LIST*
D10*
%TO.C,U10*%
X118074000Y-136812600D03*
X118074000Y-138082600D03*
X118074000Y-139352600D03*
X118074000Y-140622600D03*
X118074000Y-141892600D03*
X118074000Y-143162600D03*
X118074000Y-144432600D03*
X118074000Y-145702600D03*
X112924000Y-145702600D03*
X112924000Y-144432600D03*
X112924000Y-143162600D03*
X112924000Y-141892600D03*
X112924000Y-140622600D03*
X112924000Y-139352600D03*
X112924000Y-138082600D03*
X112924000Y-136812600D03*
%TD*%
D11*
%TO.C,C8*%
X46482000Y-157632400D03*
X48382000Y-157632400D03*
%TD*%
D10*
%TO.C,U4*%
X99625200Y-136812600D03*
X99625200Y-138082600D03*
X99625200Y-139352600D03*
X99625200Y-140622600D03*
X99625200Y-141892600D03*
X99625200Y-143162600D03*
X99625200Y-144432600D03*
X99625200Y-145702600D03*
X94475200Y-145702600D03*
X94475200Y-144432600D03*
X94475200Y-143162600D03*
X94475200Y-141892600D03*
X94475200Y-140622600D03*
X94475200Y-139352600D03*
X94475200Y-138082600D03*
X94475200Y-136812600D03*
%TD*%
D12*
%TO.C,R1*%
X48260000Y-144780000D03*
X46435000Y-144780000D03*
%TD*%
D11*
%TO.C,C7*%
X46482000Y-155549600D03*
X48382000Y-155549600D03*
%TD*%
D13*
%TO.C,R8*%
X50546000Y-138176000D03*
X52371000Y-138176000D03*
%TD*%
D14*
%TO.C,U19*%
X109934800Y-150622000D03*
X109934800Y-151892000D03*
X109934800Y-153162000D03*
X109934800Y-154432000D03*
X109934800Y-155702000D03*
X109934800Y-156972000D03*
X109934800Y-158242000D03*
X104984800Y-158242000D03*
X104984800Y-156972000D03*
X104984800Y-155702000D03*
X104984800Y-154432000D03*
X104984800Y-153162000D03*
X104984800Y-151892000D03*
X104984800Y-150622000D03*
%TD*%
D10*
%TO.C,U5*%
X90400800Y-136812600D03*
X90400800Y-138082600D03*
X90400800Y-139352600D03*
X90400800Y-140622600D03*
X90400800Y-141892600D03*
X90400800Y-143162600D03*
X90400800Y-144432600D03*
X90400800Y-145702600D03*
X85250800Y-145702600D03*
X85250800Y-144432600D03*
X85250800Y-143162600D03*
X85250800Y-141892600D03*
X85250800Y-140622600D03*
X85250800Y-139352600D03*
X85250800Y-138082600D03*
X85250800Y-136812600D03*
%TD*%
D12*
%TO.C,R4*%
X56435000Y-138176000D03*
X54610000Y-138176000D03*
%TD*%
D14*
%TO.C,U16*%
X110039400Y-160045400D03*
X110039400Y-161315400D03*
X110039400Y-162585400D03*
X110039400Y-163855400D03*
X110039400Y-165125400D03*
X110039400Y-166395400D03*
X110039400Y-167665400D03*
X105089400Y-167665400D03*
X105089400Y-166395400D03*
X105089400Y-165125400D03*
X105089400Y-163855400D03*
X105089400Y-162585400D03*
X105089400Y-161315400D03*
X105089400Y-160045400D03*
%TD*%
D12*
%TO.C,R9*%
X58062500Y-148336000D03*
X56237500Y-148336000D03*
%TD*%
%TO.C,R2*%
X52324000Y-144780000D03*
X50499000Y-144780000D03*
%TD*%
D10*
%TO.C,U3*%
X108849600Y-136812600D03*
X108849600Y-138082600D03*
X108849600Y-139352600D03*
X108849600Y-140622600D03*
X108849600Y-141892600D03*
X108849600Y-143162600D03*
X108849600Y-144432600D03*
X108849600Y-145702600D03*
X103699600Y-145702600D03*
X103699600Y-144432600D03*
X103699600Y-143162600D03*
X103699600Y-141892600D03*
X103699600Y-140622600D03*
X103699600Y-139352600D03*
X103699600Y-138082600D03*
X103699600Y-136812600D03*
%TD*%
D11*
%TO.C,C5*%
X46482000Y-153466800D03*
X48382000Y-153466800D03*
%TD*%
D14*
%TO.C,U15*%
X118364000Y-160020000D03*
X118364000Y-161290000D03*
X118364000Y-162560000D03*
X118364000Y-163830000D03*
X118364000Y-165100000D03*
X118364000Y-166370000D03*
X118364000Y-167640000D03*
X113414000Y-167640000D03*
X113414000Y-166370000D03*
X113414000Y-165100000D03*
X113414000Y-163830000D03*
X113414000Y-162560000D03*
X113414000Y-161290000D03*
X113414000Y-160020000D03*
%TD*%
D10*
%TO.C,U6*%
X81176400Y-136812600D03*
X81176400Y-138082600D03*
X81176400Y-139352600D03*
X81176400Y-140622600D03*
X81176400Y-141892600D03*
X81176400Y-143162600D03*
X81176400Y-144432600D03*
X81176400Y-145702600D03*
X76026400Y-145702600D03*
X76026400Y-144432600D03*
X76026400Y-143162600D03*
X76026400Y-141892600D03*
X76026400Y-140622600D03*
X76026400Y-139352600D03*
X76026400Y-138082600D03*
X76026400Y-136812600D03*
%TD*%
D13*
%TO.C,R5*%
X46435000Y-141478000D03*
X48260000Y-141478000D03*
%TD*%
D12*
%TO.C,R10*%
X58062500Y-150368000D03*
X56237500Y-150368000D03*
%TD*%
D13*
%TO.C,R7*%
X46435000Y-138176000D03*
X48260000Y-138176000D03*
%TD*%
D11*
%TO.C,C3*%
X46482000Y-151409400D03*
X48382000Y-151409400D03*
%TD*%
D13*
%TO.C,R11*%
X60405000Y-150190200D03*
X62230000Y-150190200D03*
%TD*%
D14*
%TO.C,U17*%
X118316800Y-150622000D03*
X118316800Y-151892000D03*
X118316800Y-153162000D03*
X118316800Y-154432000D03*
X118316800Y-155702000D03*
X118316800Y-156972000D03*
X118316800Y-158242000D03*
X113366800Y-158242000D03*
X113366800Y-156972000D03*
X113366800Y-155702000D03*
X113366800Y-154432000D03*
X113366800Y-153162000D03*
X113366800Y-151892000D03*
X113366800Y-150622000D03*
%TD*%
D11*
%TO.C,C2*%
X46482000Y-149352000D03*
X48382000Y-149352000D03*
%TD*%
D12*
%TO.C,R6*%
X52371000Y-141478000D03*
X50546000Y-141478000D03*
%TD*%
D13*
%TO.C,R12*%
X60405000Y-148082000D03*
X62230000Y-148082000D03*
%TD*%
%TO.C,R3*%
X54610000Y-141478000D03*
X56435000Y-141478000D03*
%TD*%
D10*
%TO.C,U7*%
X71952000Y-136812600D03*
X71952000Y-138082600D03*
X71952000Y-139352600D03*
X71952000Y-140622600D03*
X71952000Y-141892600D03*
X71952000Y-143162600D03*
X71952000Y-144432600D03*
X71952000Y-145702600D03*
X66802000Y-145702600D03*
X66802000Y-144432600D03*
X66802000Y-143162600D03*
X66802000Y-141892600D03*
X66802000Y-140622600D03*
X66802000Y-139352600D03*
X66802000Y-138082600D03*
X66802000Y-136812600D03*
%TD*%
M02*
