%TF.GenerationSoftware,KiCad,Pcbnew,8.0.4+dfsg-1*%
%TF.CreationDate,2024-12-19T01:54:21-05:00*%
%TF.ProjectId,VGA_SRAM_Shield,5647415f-5352-4414-9d5f-536869656c64,rev?*%
%TF.SameCoordinates,Original*%
%TF.FileFunction,Copper,L3,Inr*%
%TF.FilePolarity,Positive*%
%FSLAX46Y46*%
G04 Gerber Fmt 4.6, Leading zero omitted, Abs format (unit mm)*
G04 Created by KiCad (PCBNEW 8.0.4+dfsg-1) date 2024-12-19 01:54:21*
%MOMM*%
%LPD*%
G01*
G04 APERTURE LIST*
%TA.AperFunction,ComponentPad*%
%ADD10O,1.727200X1.727200*%
%TD*%
%TA.AperFunction,ComponentPad*%
%ADD11R,1.727200X1.727200*%
%TD*%
%TA.AperFunction,ComponentPad*%
%ADD12R,1.700000X1.700000*%
%TD*%
%TA.AperFunction,ComponentPad*%
%ADD13O,1.700000X1.700000*%
%TD*%
%TA.AperFunction,ComponentPad*%
%ADD14R,1.500000X1.500000*%
%TD*%
%TA.AperFunction,ComponentPad*%
%ADD15C,1.500000*%
%TD*%
%TA.AperFunction,ComponentPad*%
%ADD16C,3.500000*%
%TD*%
%TA.AperFunction,ComponentPad*%
%ADD17C,4.000000*%
%TD*%
%TA.AperFunction,ComponentPad*%
%ADD18R,1.600000X1.600000*%
%TD*%
%TA.AperFunction,ComponentPad*%
%ADD19C,1.600000*%
%TD*%
%TA.AperFunction,ComponentPad*%
%ADD20O,1.600000X1.600000*%
%TD*%
%TA.AperFunction,ViaPad*%
%ADD21C,0.600000*%
%TD*%
%TA.AperFunction,Conductor*%
%ADD22C,0.200000*%
%TD*%
G04 APERTURE END LIST*
D10*
%TO.N,3.3V*%
%TO.C,A1*%
X63195200Y-181991000D03*
%TO.N,5V*%
X65735200Y-181991000D03*
%TO.N,N/C*%
X93802200Y-154051000D03*
%TO.N,5V*%
X121615200Y-133731000D03*
X124155200Y-133731000D03*
%TO.N,Net-(J1-Pin_2)*%
X78435200Y-181991000D03*
%TO.N,Net-(J1-Pin_3)*%
X80975200Y-181991000D03*
%TO.N,Net-(J1-Pin_4)*%
X83515200Y-181991000D03*
%TO.N,Net-(J1-Pin_5)*%
X86055200Y-181991000D03*
%TO.N,Net-(J1-Pin_9)*%
X88595200Y-181991000D03*
%TO.N,Net-(J1-Pin_8)*%
X91135200Y-181991000D03*
%TO.N,Net-(J1-Pin_7)*%
X93675200Y-181991000D03*
%TO.N,Net-(J1-Pin_6)*%
X96215200Y-181991000D03*
%TO.N,DATA11*%
X101295200Y-181991000D03*
%TO.N,DATA12*%
X103835200Y-181991000D03*
%TO.N,DATA13*%
X106375200Y-181991000D03*
%TO.N,DATA14*%
X108915200Y-181991000D03*
%TO.N,unconnected-(A1-CANRX-PadCANR)*%
X116535200Y-181991000D03*
%TO.N,unconnected-(A1-CANTX-PadCANT)*%
X119075200Y-181991000D03*
%TO.N,unconnected-(A1-D0{slash}RX0-PadD0)*%
X91135200Y-133731000D03*
%TO.N,unconnected-(A1-D1{slash}TX0-PadD1)*%
X88595200Y-133731000D03*
%TO.N,/MCU OE*%
X86055200Y-133731000D03*
%TO.N,/MCU CE*%
X83515200Y-133731000D03*
%TO.N,/MCU WE*%
X80975200Y-133731000D03*
%TO.N,RESOLUTION*%
X78435200Y-133731000D03*
%TO.N,Net-(A1-PadD6)*%
X75895200Y-133731000D03*
%TO.N,Net-(A1-PadD7)*%
X73355200Y-133731000D03*
%TO.N,D0*%
X69291200Y-133731000D03*
%TO.N,D1*%
X66751200Y-133731000D03*
%TO.N,SD_CS*%
X64211200Y-133731000D03*
%TO.N,MCUMEMADDR7*%
X61671200Y-133731000D03*
%TO.N,MCUMEMADDR8*%
X59131200Y-133731000D03*
%TO.N,D2*%
X56591200Y-133731000D03*
%TO.N,MCUMEMADDR4*%
X96215200Y-133731000D03*
%TO.N,MCUMEMADDR5*%
X98755200Y-133731000D03*
%TO.N,Net-(A1-D16{slash}TX2)*%
X101295200Y-133731000D03*
%TO.N,Net-(A1-D17{slash}RX2)*%
X103835200Y-133731000D03*
%TO.N,Net-(A1-D18{slash}TX1)*%
X106375200Y-133731000D03*
%TO.N,Net-(A1-D19{slash}RX1)*%
X108915200Y-133731000D03*
%TO.N,unconnected-(A1-D20{slash}SDA-PadD20)*%
X111455200Y-133731000D03*
%TO.N,unconnected-(A1-D21{slash}SCL-PadD21)*%
X113995200Y-133731000D03*
%TO.N,~{SCREEN_VISIBLE}*%
X121615200Y-136271000D03*
%TO.N,~{V_VISIBLE}*%
X124155200Y-136271000D03*
%TO.N,H_VISIBLE*%
X121615200Y-138811000D03*
%TO.N,MCUMEMADDR0*%
X124155200Y-138811000D03*
%TO.N,MCUMEMADDR1*%
X121615200Y-141351000D03*
%TO.N,MCUMEMADDR2*%
X124155200Y-141351000D03*
%TO.N,MCUMEMADDR3*%
X121615200Y-143891000D03*
%TO.N,MCUMEMADDR6*%
X124155200Y-143891000D03*
%TO.N,MCUMEMADDR9*%
X121615200Y-146431000D03*
%TO.N,D3*%
X124155200Y-146431000D03*
%TO.N,MCUMEMADDR10*%
X121615200Y-148971000D03*
%TO.N,MCUMEMADDR11*%
X124155200Y-148971000D03*
%TO.N,MCUMEMADDR12*%
X121615200Y-151511000D03*
%TO.N,MCUMEMADDR13*%
X124155200Y-151511000D03*
%TO.N,MCUMEMADDR14*%
X121615200Y-154051000D03*
%TO.N,MCUMEMADDR15*%
X124155200Y-154051000D03*
%TO.N,MCUMEMADDR16*%
X121615200Y-156591000D03*
%TO.N,MCUMEMADDR17*%
X124155200Y-156591000D03*
%TO.N,MCUMEMADDR18*%
X121615200Y-159131000D03*
%TO.N,MCUMEMADDR19*%
X124155200Y-159131000D03*
%TO.N,D4*%
X121615200Y-161671000D03*
%TO.N,D5*%
X124155200Y-161671000D03*
%TO.N,DATA7*%
X121615200Y-164211000D03*
%TO.N,DATA6*%
X124155200Y-164211000D03*
%TO.N,DATA5*%
X121615200Y-166751000D03*
%TO.N,DATA4*%
X124155200Y-166751000D03*
%TO.N,DATA3*%
X121615200Y-169291000D03*
%TO.N,DATA2*%
X124155200Y-169291000D03*
%TO.N,DATA1*%
X121615200Y-171831000D03*
%TO.N,DATA0*%
X124155200Y-171831000D03*
%TO.N,DATA15*%
X121615200Y-174371000D03*
%TO.N,DATA8*%
X124155200Y-174371000D03*
%TO.N,DATA9*%
X111455200Y-181991000D03*
%TO.N,DATA10*%
X113995200Y-181991000D03*
D11*
%TO.N,GND*%
X54051200Y-133731000D03*
X68275200Y-181991000D03*
X70815200Y-181991000D03*
%TO.N,N/C*%
X93802200Y-159131000D03*
%TO.N,GND*%
X121615200Y-176911000D03*
X124155200Y-176911000D03*
D10*
%TO.N,N/C*%
X91262200Y-154051000D03*
X93802200Y-156591000D03*
X91262200Y-159131000D03*
X91262200Y-156591000D03*
%TO.N,PWR*%
X73355200Y-181991000D03*
%TD*%
D12*
%TO.N,PWR*%
%TO.C,J2*%
X101845500Y-154231800D03*
D13*
X99305500Y-154231800D03*
%TO.N,GND*%
X101845500Y-156771800D03*
X99305500Y-156771800D03*
%TD*%
D12*
%TO.N,GND*%
%TO.C,J6*%
X46400000Y-165700000D03*
D13*
%TO.N,Net-(J6-Pin_2)*%
X46400000Y-163160000D03*
X46400000Y-160620000D03*
%TD*%
D12*
%TO.N,PWR*%
%TO.C,J1*%
X50800000Y-159258000D03*
D13*
%TO.N,Net-(J1-Pin_2)*%
X50800000Y-161798000D03*
%TO.N,Net-(J1-Pin_3)*%
X53340000Y-159258000D03*
%TO.N,Net-(J1-Pin_4)*%
X53340000Y-161798000D03*
%TO.N,Net-(J1-Pin_5)*%
X55880000Y-159258000D03*
%TO.N,Net-(J1-Pin_6)*%
X55880000Y-161798000D03*
%TO.N,Net-(J1-Pin_7)*%
X58420000Y-159258000D03*
%TO.N,Net-(J1-Pin_8)*%
X58420000Y-161798000D03*
%TO.N,Net-(J1-Pin_9)*%
X60960000Y-159258000D03*
%TO.N,GND*%
X60960000Y-161798000D03*
%TD*%
D14*
%TO.N,PWR*%
%TO.C,J5*%
X39194300Y-139502000D03*
D15*
%TO.N,Net-(A1-D18{slash}TX1)*%
X39194300Y-142002000D03*
%TO.N,Net-(A1-D19{slash}RX1)*%
X39194300Y-144002000D03*
%TO.N,GND*%
X39194300Y-146502000D03*
%TO.N,PWR*%
X41814300Y-139502000D03*
%TO.N,Net-(A1-D16{slash}TX2)*%
X41814300Y-142002000D03*
%TO.N,Net-(A1-D17{slash}RX2)*%
X41814300Y-144002000D03*
%TO.N,GND*%
X41814300Y-146502000D03*
D16*
X36484300Y-136432000D03*
X36484300Y-149572000D03*
X42164300Y-136432000D03*
X42164300Y-149572000D03*
%TD*%
D17*
%TO.N,N/C*%
%TO.C,J3*%
X40470000Y-155633000D03*
X40470000Y-180633000D03*
D18*
%TO.N,Net-(J3-Pad1)*%
X41890000Y-172448000D03*
D19*
%TO.N,Net-(J3-Pad2)*%
X41890000Y-170158000D03*
%TO.N,Net-(J3-Pad3)*%
X41890000Y-167868000D03*
%TO.N,unconnected-(J3-Pad4)*%
X41890000Y-165578000D03*
%TO.N,GND*%
X41890000Y-163288000D03*
X39910000Y-173593000D03*
X39910000Y-171303000D03*
X39910000Y-169013000D03*
%TO.N,unconnected-(J3-Pad9)*%
X39910000Y-166723000D03*
%TO.N,GND*%
X39910000Y-164433000D03*
%TO.N,unconnected-(J3-Pad11)*%
X37930000Y-172448000D03*
%TO.N,unconnected-(J3-Pad12)*%
X37930000Y-170158000D03*
%TO.N,Net-(J3-Pad13)*%
X37930000Y-167868000D03*
%TO.N,Net-(J3-Pad14)*%
X37930000Y-165578000D03*
%TO.N,unconnected-(J3-Pad15)*%
X37930000Y-163288000D03*
%TD*%
D18*
%TO.N,unconnected-(X1-NC-Pad1)*%
%TO.C,X1*%
X87884000Y-177800000D03*
D19*
%TO.N,GND*%
X103124000Y-177800000D03*
%TO.N,H_CLK*%
X103124000Y-170180000D03*
%TO.N,PWR*%
X87884000Y-170180000D03*
%TD*%
D18*
%TO.N,A0*%
%TO.C,U8*%
X72136000Y-179070000D03*
D20*
%TO.N,A1*%
X72136000Y-176530000D03*
%TO.N,A2*%
X72136000Y-173990000D03*
%TO.N,A3*%
X72136000Y-171450000D03*
%TO.N,A4*%
X72136000Y-168910000D03*
%TO.N,A5*%
X72136000Y-166370000D03*
%TO.N,A6*%
X72136000Y-163830000D03*
%TO.N,A7*%
X72136000Y-161290000D03*
%TO.N,A8*%
X72136000Y-158750000D03*
%TO.N,A9*%
X72136000Y-156210000D03*
%TO.N,unconnected-(U8-I11-Pad11)*%
X72136000Y-153670000D03*
%TO.N,GND*%
X72136000Y-151130000D03*
%TO.N,unconnected-(U8-I13-Pad13)*%
X64516000Y-151130000D03*
%TO.N,unconnected-(U8-IO14-Pad14)*%
X64516000Y-153670000D03*
%TO.N,unconnected-(U8-IO15-Pad15)*%
X64516000Y-156210000D03*
%TO.N,H_VISIBLE*%
X64516000Y-158750000D03*
%TO.N,unconnected-(U8-IO17-Pad17)*%
X64516000Y-161290000D03*
%TO.N,~{H_SYNC}*%
X64516000Y-163830000D03*
%TO.N,unconnected-(U8-IO19-Pad19)*%
X64516000Y-166370000D03*
%TO.N,Net-(U3-~{MR})*%
X64516000Y-168910000D03*
%TO.N,unconnected-(U8-IO21-Pad21)*%
X64516000Y-171450000D03*
%TO.N,unconnected-(U8-IO22-Pad22)*%
X64516000Y-173990000D03*
%TO.N,Net-(U8-IO23)*%
X64516000Y-176530000D03*
%TO.N,PWR*%
X64516000Y-179070000D03*
%TD*%
D12*
%TO.N,RESOLUTION*%
%TO.C,JP1*%
X53345000Y-165608000D03*
D13*
%TO.N,PWR*%
X50805000Y-165608000D03*
%TD*%
D18*
%TO.N,Net-(U5-Q0)*%
%TO.C,U9*%
X83058000Y-179070000D03*
D20*
%TO.N,A10*%
X83058000Y-176530000D03*
%TO.N,A11*%
X83058000Y-173990000D03*
%TO.N,A12*%
X83058000Y-171450000D03*
%TO.N,A13*%
X83058000Y-168910000D03*
%TO.N,A14*%
X83058000Y-166370000D03*
%TO.N,A15*%
X83058000Y-163830000D03*
%TO.N,A16*%
X83058000Y-161290000D03*
%TO.N,A17*%
X83058000Y-158750000D03*
%TO.N,A18*%
X83058000Y-156210000D03*
%TO.N,H_VISIBLE*%
X83058000Y-153670000D03*
%TO.N,GND*%
X83058000Y-151130000D03*
%TO.N,unconnected-(U9-I13-Pad13)*%
X75438000Y-151130000D03*
%TO.N,~{V_VISIBLE}*%
X75438000Y-153670000D03*
%TO.N,V_FRONT_PORCH*%
X75438000Y-156210000D03*
%TO.N,~{V_SYNC}*%
X75438000Y-158750000D03*
%TO.N,unconnected-(U9-IO17-Pad17)*%
X75438000Y-161290000D03*
%TO.N,unconnected-(U9-IO18-Pad18)*%
X75438000Y-163830000D03*
%TO.N,unconnected-(U9-IO19-Pad19)*%
X75438000Y-166370000D03*
%TO.N,~{V_RESET}*%
X75438000Y-168910000D03*
%TO.N,~{SCREEN_VISIBLE}*%
X75438000Y-171450000D03*
%TO.N,unconnected-(U9-IO22-Pad22)*%
X75438000Y-173990000D03*
%TO.N,Net-(U8-IO23)*%
X75438000Y-176530000D03*
%TO.N,PWR*%
X75438000Y-179070000D03*
%TD*%
D12*
%TO.N,5V*%
%TO.C,J7*%
X50800000Y-152908000D03*
D13*
%TO.N,3.3V*%
X50800000Y-155448000D03*
%TO.N,D0*%
X53340000Y-152908000D03*
%TO.N,D1*%
X53340000Y-155448000D03*
%TO.N,D2*%
X55880000Y-152908000D03*
%TO.N,D3*%
X55880000Y-155448000D03*
%TO.N,D4*%
X58420000Y-152908000D03*
%TO.N,D5*%
X58420000Y-155448000D03*
%TO.N,GND*%
X60960000Y-152908000D03*
X60960000Y-155448000D03*
%TD*%
D21*
%TO.N,PWR*%
X114055200Y-159155600D03*
X104530900Y-135981300D03*
X44476700Y-148532700D03*
X114654400Y-136810000D03*
X75756000Y-135966900D03*
%TO.N,Net-(U3-~{MR})*%
X74295400Y-137840300D03*
X77938700Y-137629300D03*
X88781100Y-137705700D03*
%TO.N,H_VISIBLE*%
X50832300Y-149730400D03*
%TO.N,~{H_SYNC}*%
X50975300Y-157305200D03*
%TO.N,~{V_RESET}*%
X78033700Y-161844200D03*
X47329200Y-167540000D03*
X78187800Y-139634000D03*
X47468800Y-156462800D03*
%TO.N,~{SCREEN_VISIBLE}*%
X120251800Y-163422900D03*
X49384100Y-157325300D03*
X53560100Y-171777500D03*
%TO.N,Net-(J1-Pin_2)*%
X55097300Y-163866100D03*
%TO.N,GND*%
X117021500Y-158853200D03*
X109686700Y-149069600D03*
%TO.N,~{V_VISIBLE}*%
X78706500Y-137167300D03*
%TO.N,Net-(A1-D19{slash}RX1)*%
X49866100Y-132620600D03*
%TO.N,SD_CS*%
X48598500Y-171178900D03*
%TO.N,Net-(J1-Pin_6)*%
X64225000Y-183025000D03*
%TO.N,Net-(J3-Pad2)*%
X49343200Y-141275600D03*
%TO.N,Net-(J3-Pad13)*%
X59386600Y-150633400D03*
%TO.N,Net-(J3-Pad1)*%
X48202500Y-142937100D03*
%TO.N,Net-(U2-B0)*%
X53167600Y-148220900D03*
%TO.N,Net-(U2-B1)*%
X111325700Y-165759600D03*
X110807800Y-168690500D03*
X44481100Y-165973700D03*
%TO.N,Net-(U2-B2)*%
X70763700Y-153166600D03*
X112658900Y-168683400D03*
X85392000Y-167966700D03*
%TO.N,Net-(U2-B3)*%
X113665000Y-171644800D03*
X102062300Y-158720300D03*
X77673000Y-155218000D03*
%TO.N,Net-(U2-B4)*%
X113848100Y-168699100D03*
X44957200Y-143642000D03*
%TO.N,Net-(U2-B5)*%
X50114000Y-131516200D03*
X116942600Y-171779900D03*
%TO.N,Net-(U2-B6)*%
X115588700Y-171756500D03*
X50546000Y-139394000D03*
X44146700Y-170580200D03*
%TO.N,Net-(U2-B7)*%
X43548900Y-142413200D03*
X118874900Y-171760900D03*
%TO.N,MEMADDR0*%
X85538500Y-155172600D03*
X89070500Y-153029400D03*
X88764300Y-138937600D03*
%TO.N,MEMADDR13*%
X79409100Y-144761400D03*
X85182700Y-160861400D03*
X115593100Y-164054100D03*
%TO.N,MEMADDR14*%
X69731100Y-150163700D03*
X120216700Y-167467800D03*
X80299800Y-169834100D03*
%TO.N,MEMADDR2*%
X87201400Y-144173600D03*
X61080900Y-142188300D03*
%TO.N,MEMADDR9*%
X111594100Y-159475600D03*
X70568100Y-155273900D03*
%TO.N,MEMADDR10*%
X82879200Y-146481300D03*
X86070700Y-158193000D03*
X115188500Y-161306300D03*
%TO.N,MEMADDR11*%
X117019700Y-164505800D03*
X85659400Y-163554600D03*
X79841900Y-156729100D03*
X79945800Y-151730900D03*
%TO.N,DATA6*%
X111687900Y-176601000D03*
X115690300Y-158339700D03*
%TO.N,MEMADDR5*%
X91681100Y-147642100D03*
X116832500Y-150484000D03*
X56865700Y-146277200D03*
%TO.N,MEMADDR4*%
X57080000Y-145345400D03*
X89403800Y-147460600D03*
%TO.N,/MCU CE*%
X103480900Y-155399400D03*
X95272500Y-153276200D03*
%TO.N,MEMADDR12*%
X120245700Y-164819500D03*
X95340900Y-165797100D03*
%TO.N,MEMADDR3*%
X87140800Y-145774000D03*
X57139600Y-143245800D03*
%TO.N,Net-(J1-Pin_3)*%
X52496700Y-171595000D03*
%TO.N,~{OE}*%
X111637200Y-161693800D03*
X111431700Y-152884000D03*
%TO.N,MEMADDR7*%
X116818400Y-152084000D03*
X92276300Y-149524500D03*
X55008800Y-149041600D03*
%TO.N,MEMADDR18*%
X111534700Y-164951400D03*
X116059200Y-146752200D03*
%TO.N,MEMADDR16*%
X104940300Y-139937300D03*
X103277600Y-153290400D03*
%TO.N,MEMADDR17*%
X103010100Y-159863300D03*
X117134000Y-146972600D03*
%TO.N,MEMADDR19*%
X111374600Y-163183500D03*
X112783100Y-147184400D03*
%TO.N,MEMADDR8*%
X118615000Y-149210900D03*
X70170400Y-137948000D03*
X69572600Y-135947500D03*
%TO.N,MEMADDR1*%
X98364600Y-141267800D03*
X57366600Y-140613900D03*
%TO.N,MEMADDR6*%
X98608400Y-149031800D03*
X54091800Y-146590900D03*
X111431700Y-150754300D03*
%TO.N,~{VGA_OUT}*%
X114965100Y-165813600D03*
%TO.N,A1*%
X116052600Y-142052900D03*
X101541400Y-140981700D03*
X84604700Y-174943000D03*
%TO.N,A2*%
X115066300Y-144309200D03*
X82945200Y-140164600D03*
X84567300Y-174131900D03*
X104394200Y-147195700D03*
%TO.N,A0*%
X87142500Y-138005600D03*
X114686500Y-138917400D03*
X85939400Y-172473600D03*
%TO.N,A3*%
X89445900Y-156561600D03*
X114452200Y-142708800D03*
X88340200Y-145129300D03*
%TO.N,H_CLK*%
X92172900Y-142386100D03*
X95028400Y-150138400D03*
%TO.N,A6*%
X87214100Y-146974300D03*
X88529200Y-162459400D03*
X104892500Y-141290000D03*
X81336500Y-164934200D03*
%TO.N,A4*%
X89388800Y-158996400D03*
X85681000Y-164433900D03*
X88968300Y-143079900D03*
%TO.N,A5*%
X77138400Y-159515600D03*
X102496300Y-141224500D03*
X79249700Y-140269500D03*
%TO.N,A7*%
X89448000Y-148293000D03*
X89252100Y-161944600D03*
X102271600Y-144894200D03*
%TO.N,A8*%
X92012300Y-137607300D03*
X73838500Y-139101400D03*
%TO.N,A9*%
X74644700Y-139143900D03*
X92090400Y-138807600D03*
%TO.N,Net-(U5-Q0)*%
X81718700Y-177324200D03*
X79128600Y-141902100D03*
%TO.N,Net-(A1-PadD6)*%
X61038700Y-168061800D03*
%TO.N,A10*%
X84880900Y-166855300D03*
X87214900Y-140406200D03*
X79439800Y-139298000D03*
%TO.N,A11*%
X65340800Y-141614800D03*
X88704600Y-141443200D03*
%TO.N,A12*%
X77883600Y-141791600D03*
X81024600Y-167150100D03*
X80891400Y-155367100D03*
%TO.N,A13*%
X79821000Y-169042000D03*
X70017500Y-144502800D03*
%TO.N,A15*%
X78915500Y-150427700D03*
%TO.N,A14*%
X74132500Y-144502800D03*
%TO.N,RESOLUTION*%
X68166500Y-160425100D03*
%TO.N,A16*%
X91052900Y-148173900D03*
X111152400Y-138048700D03*
%TO.N,A18*%
X95170200Y-157119400D03*
X111154900Y-140762300D03*
X78650600Y-153976600D03*
%TO.N,A17*%
X115183600Y-139564900D03*
X95015000Y-148394800D03*
X92958000Y-132923700D03*
%TO.N,/MCU WE*%
X111392300Y-154889200D03*
X86488500Y-150991600D03*
%TO.N,DATA7*%
X109441600Y-177513900D03*
X115265200Y-155903600D03*
%TO.N,~{TIMING ADDR}*%
X120098900Y-148912800D03*
X116553000Y-138080000D03*
%TO.N,Net-(U16-Pad8)*%
X111446100Y-156565600D03*
X115774300Y-156565600D03*
%TO.N,Net-(A1-PadD7)*%
X60480600Y-167461600D03*
%TO.N,DATA3*%
X118712300Y-168694400D03*
X116485100Y-161096000D03*
%TO.N,D2*%
X63014900Y-142777300D03*
%TO.N,DATA5*%
X111306200Y-177899100D03*
X103581500Y-161501700D03*
%TO.N,/MCU OE*%
X102935200Y-150456100D03*
X96700700Y-150456100D03*
%TO.N,MCUMEMADDR1*%
X62828100Y-140771700D03*
%TO.N,DATA2*%
X115351900Y-177895700D03*
%TO.N,MCUMEMADDR17*%
X95771300Y-138728800D03*
%TO.N,MCUMEMADDR10*%
X116626800Y-140470100D03*
X60497200Y-140441900D03*
%TO.N,Net-(U1-~{WE})*%
X103655900Y-163219500D03*
%TO.N,Net-(U11-CE)*%
X102202800Y-139604600D03*
X97808200Y-149209300D03*
X69616300Y-138556700D03*
%TO.N,MCUMEMADDR4*%
X50149400Y-143572700D03*
X58237400Y-134894800D03*
%TO.N,MCUMEMADDR7*%
X48800400Y-146970000D03*
%TO.N,MCUMEMADDR15*%
X64588600Y-149402100D03*
%TO.N,MCUMEMADDR18*%
X114413800Y-149417900D03*
%TO.N,MCUMEMADDR8*%
X60496300Y-138080000D03*
%TO.N,MCUMEMADDR6*%
X64481100Y-135494900D03*
X53207300Y-145700000D03*
%TO.N,MCUMEMADDR5*%
X59399800Y-135928700D03*
X52119500Y-143568200D03*
%TO.N,MCUMEMADDR9*%
X63901600Y-144502800D03*
%TO.N,MCUMEMADDR3*%
X53387300Y-141584300D03*
%TO.N,MCUMEMADDR11*%
X61302000Y-143893500D03*
%TO.N,MCUMEMADDR14*%
X63245500Y-148856200D03*
%TO.N,MCUMEMADDR0*%
X53393300Y-137632600D03*
%TO.N,MCUMEMADDR2*%
X47792200Y-140162300D03*
%TO.N,MCUMEMADDR16*%
X101002500Y-139204500D03*
%TO.N,MCUMEMADDR12*%
X60481600Y-144770500D03*
%TO.N,MCUMEMADDR19*%
X107578700Y-148811800D03*
%TO.N,MCUMEMADDR13*%
X64893600Y-145774100D03*
%TO.N,A19*%
X102305600Y-142068000D03*
X65425300Y-140812100D03*
%TD*%
D22*
%TO.N,Net-(U2-B6)*%
X65262721Y-183164100D02*
X81470800Y-183164100D01*
%TO.N,Net-(J1-Pin_6)*%
X64817400Y-183617400D02*
X64225000Y-183025000D01*
%TO.N,Net-(U2-B6)*%
X81470800Y-183164100D02*
X82245200Y-182389700D01*
%TO.N,Net-(J1-Pin_6)*%
X96215200Y-181991000D02*
X94588800Y-183617400D01*
%TO.N,Net-(U2-B6)*%
X82245200Y-182389700D02*
X82245200Y-181615200D01*
X114544500Y-172800700D02*
X115588700Y-171756500D01*
%TO.N,Net-(J1-Pin_6)*%
X94588800Y-183617400D02*
X64817400Y-183617400D01*
%TO.N,Net-(U2-B6)*%
X51997100Y-178430600D02*
X61280600Y-178430600D01*
X106323300Y-172800700D02*
X114544500Y-172800700D01*
X83112500Y-180747900D02*
X98376100Y-180747900D01*
X82245200Y-181615200D02*
X83112500Y-180747900D01*
X64571600Y-181721600D02*
X64571600Y-182472979D01*
X61280600Y-178430600D02*
X64571600Y-181721600D01*
X98376100Y-180747900D02*
X106323300Y-172800700D01*
X64571600Y-182472979D02*
X65262721Y-183164100D01*
X44146700Y-170580200D02*
X51997100Y-178430600D01*
%TO.N,PWR*%
X67120000Y-180573900D02*
X71597300Y-180573900D01*
X101845500Y-154231800D02*
X102995600Y-154231800D01*
X113265700Y-158366100D02*
X107401300Y-158366100D01*
X101845500Y-154231800D02*
X99305500Y-154231800D01*
X73355200Y-181991000D02*
X72191500Y-181991000D01*
X87884000Y-170180000D02*
X87377300Y-170180000D01*
X87377300Y-170180000D02*
X84999200Y-172558100D01*
X82837400Y-172558100D02*
X76538100Y-178857400D01*
X65616100Y-179070000D02*
X67120000Y-180573900D01*
X103267000Y-154231800D02*
X102995600Y-154231800D01*
X76538100Y-178857400D02*
X76538100Y-179070000D01*
X84999200Y-172558100D02*
X82837400Y-172558100D01*
X71597300Y-180573900D02*
X72191500Y-181168100D01*
X107401300Y-158366100D02*
X103267000Y-154231800D01*
X64516000Y-179070000D02*
X65616100Y-179070000D01*
X114055200Y-159155600D02*
X113265700Y-158366100D01*
X75438000Y-179070000D02*
X76538100Y-179070000D01*
X72191500Y-181168100D02*
X72191500Y-181991000D01*
%TO.N,Net-(U3-~{MR})*%
X77938700Y-137629300D02*
X78076800Y-137767400D01*
X88442900Y-137367500D02*
X88781100Y-137705700D01*
X81114200Y-137367500D02*
X88442900Y-137367500D01*
X77727700Y-137840300D02*
X77938700Y-137629300D01*
X80714300Y-137767400D02*
X81114200Y-137367500D01*
X74295400Y-137840300D02*
X77727700Y-137840300D01*
X78076800Y-137767400D02*
X80714300Y-137767400D01*
%TO.N,H_VISIBLE*%
X82508000Y-153670000D02*
X82718400Y-153670000D01*
X71018100Y-154785700D02*
X70843300Y-154610900D01*
X77256700Y-154785700D02*
X71018100Y-154785700D01*
X82508000Y-153670000D02*
X81957900Y-153670000D01*
X81957900Y-153670000D02*
X81010000Y-154617900D01*
X64516000Y-158750000D02*
X65616100Y-158750000D01*
X81010000Y-154617900D02*
X77424500Y-154617900D01*
X83058000Y-153670000D02*
X82718400Y-153670000D01*
X77424500Y-154617900D02*
X77256700Y-154785700D01*
X69755200Y-154610900D02*
X65616100Y-158750000D01*
X70843300Y-154610900D02*
X69755200Y-154610900D01*
%TO.N,~{H_SYNC}*%
X64516000Y-162729900D02*
X63564200Y-162729900D01*
X57150000Y-159676400D02*
X57150000Y-158892000D01*
X55563200Y-157305200D02*
X50975300Y-157305200D01*
X57150000Y-158892000D02*
X55563200Y-157305200D01*
X61242500Y-160408200D02*
X57881800Y-160408200D01*
X57881800Y-160408200D02*
X57150000Y-159676400D01*
X64516000Y-163830000D02*
X64516000Y-162729900D01*
X63564200Y-162729900D02*
X61242500Y-160408200D01*
%TO.N,~{V_RESET}*%
X73226700Y-170021200D02*
X74337900Y-168910000D01*
X75438000Y-168910000D02*
X74337900Y-168910000D01*
X49810400Y-170021200D02*
X73226700Y-170021200D01*
X47329200Y-167540000D02*
X49810400Y-170021200D01*
%TO.N,~{SCREEN_VISIBLE}*%
X108571100Y-165181400D02*
X109836000Y-166446300D01*
X75438000Y-171450000D02*
X74337900Y-171450000D01*
X82475300Y-167535400D02*
X83543000Y-167535400D01*
X73237200Y-172550700D02*
X74337900Y-171450000D01*
X84158200Y-166662400D02*
X85386500Y-165434100D01*
X117228400Y-166446300D02*
X120251800Y-163422900D01*
X53560100Y-171777500D02*
X54333300Y-172550700D01*
X84158200Y-166920200D02*
X84158200Y-166662400D01*
X86095300Y-165434100D02*
X86348000Y-165181400D01*
X86348000Y-165181400D02*
X108571100Y-165181400D01*
X75438000Y-171450000D02*
X76538100Y-171450000D01*
X76538100Y-171450000D02*
X80008300Y-167979800D01*
X83543000Y-167535400D02*
X84158200Y-166920200D01*
X80008300Y-167979800D02*
X82030900Y-167979800D01*
X109836000Y-166446300D02*
X117228400Y-166446300D01*
X82030900Y-167979800D02*
X82475300Y-167535400D01*
X85386500Y-165434100D02*
X86095300Y-165434100D01*
X54333300Y-172550700D02*
X73237200Y-172550700D01*
%TO.N,Net-(J1-Pin_2)*%
X51950100Y-161798000D02*
X51950100Y-162085500D01*
X50800000Y-161798000D02*
X51950100Y-161798000D01*
X53730700Y-163866100D02*
X55097300Y-163866100D01*
X51950100Y-162085500D02*
X53730700Y-163866100D01*
%TO.N,GND*%
X39194300Y-146502000D02*
X36484300Y-143792000D01*
X113840300Y-159796200D02*
X116078500Y-159796200D01*
X112810400Y-158766300D02*
X113840300Y-159796200D01*
X81957900Y-151130000D02*
X77087400Y-151130000D01*
X48850300Y-164399800D02*
X47550100Y-165700000D01*
X75978500Y-150021100D02*
X74345000Y-150021100D01*
X104990100Y-158766300D02*
X112810400Y-158766300D01*
X62471000Y-152547100D02*
X69618800Y-152547100D01*
X74345000Y-150021100D02*
X73236100Y-151130000D01*
X102995600Y-156771800D02*
X104990100Y-158766300D01*
X116078500Y-159796200D02*
X117021500Y-158853200D01*
X36484300Y-143792000D02*
X36484300Y-136432000D01*
X44563100Y-163288000D02*
X41890000Y-163288000D01*
X77087400Y-151130000D02*
X75978500Y-150021100D01*
X72136000Y-151130000D02*
X71035900Y-151130000D01*
X54782300Y-164399800D02*
X48850300Y-164399800D01*
X72136000Y-151130000D02*
X73236100Y-151130000D01*
X39194300Y-146502000D02*
X41814300Y-146502000D01*
X54871900Y-164489400D02*
X54782300Y-164399800D01*
X59809900Y-162085500D02*
X57406000Y-164489400D01*
X60960000Y-161798000D02*
X59809900Y-161798000D01*
X62110100Y-152908000D02*
X62471000Y-152547100D01*
X46975100Y-165700000D02*
X47550100Y-165700000D01*
X121615200Y-176911000D02*
X124155200Y-176911000D01*
X83058000Y-151130000D02*
X81957900Y-151130000D01*
X46400000Y-165700000D02*
X46975100Y-165700000D01*
X69618800Y-152547100D02*
X71035900Y-151130000D01*
X46975100Y-165700000D02*
X44563100Y-163288000D01*
X99305500Y-156771800D02*
X101845500Y-156771800D01*
X60960000Y-152908000D02*
X62110100Y-152908000D01*
X59809900Y-161798000D02*
X59809900Y-162085500D01*
X101845500Y-156771800D02*
X102995600Y-156771800D01*
X57406000Y-164489400D02*
X54871900Y-164489400D01*
X36484300Y-136432000D02*
X42164300Y-136432000D01*
X68275200Y-181991000D02*
X70815200Y-181991000D01*
%TO.N,~{V_VISIBLE}*%
X78706500Y-137167300D02*
X78906600Y-136967200D01*
X124426400Y-137434700D02*
X124155200Y-137434700D01*
X92312300Y-136967200D02*
X92712500Y-137367400D01*
X112265400Y-137880200D02*
X115132400Y-137880200D01*
X117236700Y-139984500D02*
X124643900Y-139984500D01*
X124643900Y-139984500D02*
X125365000Y-139263400D01*
X125365000Y-139263400D02*
X125365000Y-138373300D01*
X115132400Y-137880200D02*
X117236700Y-139984500D01*
X78906600Y-136967200D02*
X92312300Y-136967200D01*
X124155200Y-136271000D02*
X124155200Y-137434700D01*
X92712500Y-137367400D02*
X111752600Y-137367400D01*
X125365000Y-138373300D02*
X124426400Y-137434700D01*
X111752600Y-137367400D02*
X112265400Y-137880200D01*
%TO.N,Net-(A1-D19{slash}RX1)*%
X107751500Y-133459800D02*
X107751500Y-133731000D01*
X108915200Y-133731000D02*
X107751500Y-133731000D01*
X106215000Y-131923300D02*
X107751500Y-133459800D01*
X49866100Y-132620600D02*
X50563400Y-131923300D01*
X50563400Y-131923300D02*
X106215000Y-131923300D01*
%TO.N,Net-(A1-D18{slash}TX1)*%
X40444300Y-140752000D02*
X42583300Y-140752000D01*
X105211500Y-133440100D02*
X105211500Y-133731000D01*
X42583300Y-140752000D02*
X51011800Y-132323500D01*
X51011800Y-132323500D02*
X104094900Y-132323500D01*
X106375200Y-133731000D02*
X105211500Y-133731000D01*
X104094900Y-132323500D02*
X105211500Y-133440100D01*
X39194300Y-142002000D02*
X40444300Y-140752000D01*
%TO.N,Net-(J3-Pad13)*%
X53764800Y-156668400D02*
X49192500Y-156668400D01*
X54610000Y-155060400D02*
X54610000Y-155823200D01*
X54610000Y-155823200D02*
X53764800Y-156668400D01*
X57030200Y-153469100D02*
X56201500Y-154297800D01*
X48627700Y-157233200D02*
X42429000Y-157233200D01*
X59386600Y-150633400D02*
X58995600Y-150633400D01*
X57030200Y-152598800D02*
X57030200Y-153469100D01*
X49192500Y-156668400D02*
X48627700Y-157233200D01*
X56201500Y-154297800D02*
X55372600Y-154297800D01*
X58995600Y-150633400D02*
X57030200Y-152598800D01*
X55372600Y-154297800D02*
X54610000Y-155060400D01*
X42429000Y-157233200D02*
X36821200Y-162841000D01*
X36821200Y-162841000D02*
X36821200Y-166759200D01*
X36821200Y-166759200D02*
X37930000Y-167868000D01*
%TO.N,Net-(U2-B1)*%
X82098600Y-165034000D02*
X79651200Y-167481400D01*
X85929600Y-165034000D02*
X82098600Y-165034000D01*
X86182300Y-164781300D02*
X85929600Y-165034000D01*
X79651200Y-167481400D02*
X62271700Y-167481400D01*
X45366100Y-166858700D02*
X44481100Y-165973700D01*
X62271700Y-167481400D02*
X61649000Y-166858700D01*
X61649000Y-166858700D02*
X45366100Y-166858700D01*
X111325700Y-165759600D02*
X110347400Y-164781300D01*
X110347400Y-164781300D02*
X86182300Y-164781300D01*
%TO.N,Net-(U2-B2)*%
X112024700Y-169317600D02*
X112658900Y-168683400D01*
X105494200Y-169317600D02*
X112024700Y-169317600D01*
X85392000Y-167966700D02*
X104143300Y-167966700D01*
X104143300Y-167966700D02*
X105494200Y-169317600D01*
%TO.N,Net-(U2-B3)*%
X99226600Y-158720300D02*
X102062300Y-158720300D01*
X85787000Y-155772700D02*
X86154500Y-155405200D01*
X86154500Y-155405200D02*
X95911500Y-155405200D01*
X82067100Y-155104400D02*
X84621700Y-155104400D01*
X77673000Y-155218000D02*
X78452900Y-155997900D01*
X95911500Y-155405200D02*
X99226600Y-158720300D01*
X81173600Y-155997900D02*
X82067100Y-155104400D01*
X85290000Y-155772700D02*
X85787000Y-155772700D01*
X84621700Y-155104400D02*
X85290000Y-155772700D01*
X78452900Y-155997900D02*
X81173600Y-155997900D01*
%TO.N,Net-(U2-B4)*%
X123791300Y-160424300D02*
X122885200Y-159518200D01*
X79164100Y-149827600D02*
X77402900Y-149827600D01*
X115079400Y-167467800D02*
X118987200Y-167467800D01*
X125319500Y-162173400D02*
X125319500Y-161104800D01*
X123628300Y-163047200D02*
X124445700Y-163047200D01*
X122779000Y-164737900D02*
X122779000Y-163896500D01*
X79218600Y-149882100D02*
X79164100Y-149827600D01*
X120974000Y-165481000D02*
X122035900Y-165481000D01*
X108567300Y-157165800D02*
X103658100Y-152256600D01*
X122885200Y-159518200D02*
X122885200Y-158710300D01*
X122779000Y-163896500D02*
X123628300Y-163047200D01*
X124445700Y-163047200D02*
X125319500Y-162173400D01*
X122035900Y-165481000D02*
X122779000Y-164737900D01*
X121064200Y-157967200D02*
X120262800Y-157165800D01*
X122142100Y-157967200D02*
X121064200Y-157967200D01*
X77402900Y-149827600D02*
X77138800Y-149563500D01*
X113848100Y-168699100D02*
X115079400Y-167467800D01*
X124639000Y-160424300D02*
X123791300Y-160424300D01*
X68370200Y-150029800D02*
X53172900Y-150029800D01*
X118987200Y-167467800D02*
X120974000Y-165481000D01*
X95955000Y-152256600D02*
X95690200Y-151991800D01*
X120262800Y-157165800D02*
X108567300Y-157165800D01*
X95690200Y-151991800D02*
X85866300Y-151991800D01*
X83756600Y-149882100D02*
X79218600Y-149882100D01*
X103658100Y-152256600D02*
X95955000Y-152256600D01*
X53172900Y-150029800D02*
X46785100Y-143642000D01*
X46785100Y-143642000D02*
X44957200Y-143642000D01*
X85866300Y-151991800D02*
X83756600Y-149882100D01*
X77138800Y-149563500D02*
X68836500Y-149563500D01*
X122885200Y-158710300D02*
X122142100Y-157967200D01*
X68836500Y-149563500D02*
X68370200Y-150029800D01*
X125319500Y-161104800D02*
X124639000Y-160424300D01*
%TO.N,Net-(U2-B5)*%
X50114000Y-131516200D02*
X116032000Y-131516200D01*
X124686000Y-167914800D02*
X123849100Y-167914800D01*
X119323300Y-170464000D02*
X118007400Y-171779900D01*
X122779000Y-168984900D02*
X122779000Y-169775800D01*
X122090800Y-170464000D02*
X119323300Y-170464000D01*
X125795000Y-166805800D02*
X124686000Y-167914800D01*
X122779000Y-169775800D02*
X122090800Y-170464000D01*
X119516800Y-135001000D02*
X124600700Y-135001000D01*
X123849100Y-167914800D02*
X122779000Y-168984900D01*
X118007400Y-171779900D02*
X116942600Y-171779900D01*
X124600700Y-135001000D02*
X125795000Y-136195300D01*
X116032000Y-131516200D02*
X119516800Y-135001000D01*
X125795000Y-136195300D02*
X125795000Y-166805800D01*
%TO.N,MEMADDR0*%
X87681700Y-153029400D02*
X89070500Y-153029400D01*
X85538500Y-155172600D02*
X87681700Y-153029400D01*
%TO.N,MEMADDR13*%
X115358700Y-163819700D02*
X115593100Y-164054100D01*
X89017800Y-160861400D02*
X91976100Y-163819700D01*
X91976100Y-163819700D02*
X115358700Y-163819700D01*
X85182700Y-160861400D02*
X89017800Y-160861400D01*
%TO.N,MEMADDR14*%
X80299800Y-169834100D02*
X80499500Y-170033800D01*
X116294100Y-169731000D02*
X118157200Y-167867900D01*
X119816600Y-167867900D02*
X120216700Y-167467800D01*
X118157200Y-167867900D02*
X119816600Y-167867900D01*
X84572000Y-169039500D02*
X104496400Y-169039500D01*
X105187900Y-169731000D02*
X116294100Y-169731000D01*
X83577700Y-170033800D02*
X84572000Y-169039500D01*
X80499500Y-170033800D02*
X83577700Y-170033800D01*
X104496400Y-169039500D02*
X105187900Y-169731000D01*
%TO.N,MEMADDR2*%
X87130400Y-144102600D02*
X87201400Y-144173600D01*
X77082800Y-144102600D02*
X87130400Y-144102600D01*
X61080900Y-142257700D02*
X62725800Y-143902600D01*
X62725800Y-143902600D02*
X76882800Y-143902600D01*
X76882800Y-143902600D02*
X77082800Y-144102600D01*
X61080900Y-142188300D02*
X61080900Y-142257700D01*
%TO.N,MEMADDR9*%
X111341100Y-159222600D02*
X102802200Y-159222600D01*
X90795100Y-160310400D02*
X90013100Y-159528400D01*
X90013100Y-158707700D02*
X88634600Y-157329200D01*
X71653500Y-157329200D02*
X70568100Y-156243800D01*
X111594100Y-159475600D02*
X111341100Y-159222600D01*
X90013100Y-159528400D02*
X90013100Y-158707700D01*
X70568100Y-156243800D02*
X70568100Y-155273900D01*
X102802200Y-159222600D02*
X101714400Y-160310400D01*
X88634600Y-157329200D02*
X71653500Y-157329200D01*
X101714400Y-160310400D02*
X90795100Y-160310400D01*
%TO.N,MEMADDR10*%
X114592700Y-160710500D02*
X115188500Y-161306300D01*
X87474200Y-159596500D02*
X89450300Y-159596500D01*
X90564300Y-160710500D02*
X114592700Y-160710500D01*
X89450300Y-159596500D02*
X90564300Y-160710500D01*
X86070700Y-158193000D02*
X87474200Y-159596500D01*
%TO.N,MEMADDR11*%
X117019700Y-164505800D02*
X116856300Y-164669200D01*
X86456100Y-164351300D02*
X85659400Y-163554600D01*
X111783300Y-164351300D02*
X86456100Y-164351300D01*
X112101200Y-164669200D02*
X111783300Y-164351300D01*
X116856300Y-164669200D02*
X112101200Y-164669200D01*
%TO.N,DATA6*%
X116188900Y-171624700D02*
X116188900Y-172100000D01*
X116188900Y-172100000D02*
X111687900Y-176601000D01*
X124155200Y-164211000D02*
X124155200Y-165374700D01*
X122991500Y-167023300D02*
X121887600Y-168127200D01*
X121887600Y-168127200D02*
X120161700Y-168127200D01*
X122991500Y-166247400D02*
X122991500Y-167023300D01*
X120161700Y-168127200D02*
X117139200Y-171149700D01*
X123864200Y-165374700D02*
X122991500Y-166247400D01*
X116663900Y-171149700D02*
X116188900Y-171624700D01*
X117139200Y-171149700D02*
X116663900Y-171149700D01*
X124155200Y-165374700D02*
X123864200Y-165374700D01*
%TO.N,MEMADDR5*%
X91681100Y-147794700D02*
X91681100Y-147642100D01*
X106433800Y-150083900D02*
X116432400Y-150083900D01*
X63923900Y-147554200D02*
X63461700Y-147092000D01*
X77958500Y-147554200D02*
X63923900Y-147554200D01*
X91681100Y-147794700D02*
X91681100Y-148431900D01*
X91191500Y-148921500D02*
X85625000Y-148921500D01*
X91681100Y-148431900D02*
X91191500Y-148921500D01*
X78231400Y-147827100D02*
X77958500Y-147554200D01*
X104144600Y-147794700D02*
X106433800Y-150083900D01*
X91681100Y-147794700D02*
X104144600Y-147794700D01*
X116432400Y-150083900D02*
X116832500Y-150484000D01*
X79992600Y-147827100D02*
X78231400Y-147827100D01*
X84585100Y-147881600D02*
X80047100Y-147881600D01*
X63461700Y-147092000D02*
X57680500Y-147092000D01*
X85625000Y-148921500D02*
X84585100Y-147881600D01*
X80047100Y-147881600D02*
X79992600Y-147827100D01*
X57680500Y-147092000D02*
X56865700Y-146277200D01*
%TO.N,MEMADDR4*%
X64089600Y-147154100D02*
X78124200Y-147154100D01*
X85121200Y-147481500D02*
X86014300Y-148374600D01*
X88489800Y-148374600D02*
X89403800Y-147460600D01*
X78397100Y-147427000D02*
X80158300Y-147427000D01*
X78124200Y-147154100D02*
X78397100Y-147427000D01*
X57080000Y-145345400D02*
X58426500Y-146691900D01*
X63627400Y-146691900D02*
X64089600Y-147154100D01*
X86014300Y-148374600D02*
X88489800Y-148374600D01*
X80212800Y-147481500D02*
X85121200Y-147481500D01*
X58426500Y-146691900D02*
X63627400Y-146691900D01*
X80158300Y-147427000D02*
X80212800Y-147481500D01*
%TO.N,/MCU CE*%
X97395700Y-155399400D02*
X103480900Y-155399400D01*
X95272500Y-153276200D02*
X97395700Y-155399400D01*
%TO.N,MEMADDR12*%
X120245700Y-164819500D02*
X118218800Y-166846400D01*
X96390200Y-166846400D02*
X95340900Y-165797100D01*
X118218800Y-166846400D02*
X96390200Y-166846400D01*
%TO.N,MEMADDR3*%
X80504000Y-145081000D02*
X86447800Y-145081000D01*
X61503200Y-143245800D02*
X63360300Y-145102900D01*
X86447800Y-145081000D02*
X87140800Y-145774000D01*
X69603300Y-145503000D02*
X78736300Y-145503000D01*
X64150100Y-145102900D02*
X64500200Y-144752800D01*
X64500200Y-144752800D02*
X68853100Y-144752800D01*
X78736300Y-145503000D02*
X78994900Y-145761600D01*
X57139600Y-143245800D02*
X61503200Y-143245800D01*
X68853100Y-144752800D02*
X69603300Y-145503000D01*
X78994900Y-145761600D02*
X79823400Y-145761600D01*
X79823400Y-145761600D02*
X80504000Y-145081000D01*
X63360300Y-145102900D02*
X64150100Y-145102900D01*
%TO.N,Net-(J1-Pin_3)*%
X78687200Y-180595500D02*
X74536700Y-180595500D01*
X74111400Y-180170200D02*
X71193600Y-180170200D01*
X79811500Y-181991000D02*
X79811500Y-181719800D01*
X74536700Y-180595500D02*
X74111400Y-180170200D01*
X79811500Y-181719800D02*
X78687200Y-180595500D01*
X58531900Y-177630200D02*
X52496700Y-171595000D01*
X68653600Y-177630200D02*
X58531900Y-177630200D01*
X80975200Y-181991000D02*
X79811500Y-181991000D01*
X71193600Y-180170200D02*
X68653600Y-177630200D01*
%TO.N,MEMADDR7*%
X77627100Y-148354400D02*
X63592500Y-148354400D01*
X95277000Y-149538300D02*
X92276300Y-149538300D01*
X103484200Y-149819400D02*
X95558100Y-149819400D01*
X92001400Y-149813200D02*
X85385100Y-149813200D01*
X63592500Y-148354400D02*
X63476900Y-148238800D01*
X79661200Y-148627300D02*
X77900000Y-148627300D01*
X55811600Y-148238800D02*
X55008800Y-149041600D01*
X77900000Y-148627300D02*
X77627100Y-148354400D01*
X79715700Y-148681800D02*
X79661200Y-148627300D01*
X92276300Y-149538300D02*
X92001400Y-149813200D01*
X84253700Y-148681800D02*
X79715700Y-148681800D01*
X85385100Y-149813200D02*
X84253700Y-148681800D01*
X92276300Y-149538300D02*
X92276300Y-149524500D01*
X63476900Y-148238800D02*
X55811600Y-148238800D01*
X105748800Y-152084000D02*
X103484200Y-149819400D01*
X95558100Y-149819400D02*
X95277000Y-149538300D01*
X116818400Y-152084000D02*
X105748800Y-152084000D01*
%TO.N,MEMADDR1*%
X86958100Y-139806000D02*
X85849900Y-138697800D01*
X58209000Y-139771500D02*
X57366600Y-140613900D01*
X78569000Y-139033900D02*
X77939400Y-139033900D01*
X98364600Y-141267800D02*
X97539800Y-140443000D01*
X77201800Y-139771500D02*
X58209000Y-139771500D01*
X97539800Y-140443000D02*
X88855300Y-140443000D01*
X88855300Y-140443000D02*
X88218300Y-139806000D01*
X77939400Y-139033900D02*
X77201800Y-139771500D01*
X85849900Y-138697800D02*
X78905100Y-138697800D01*
X78905100Y-138697800D02*
X78569000Y-139033900D01*
X88218300Y-139806000D02*
X86958100Y-139806000D01*
%TO.N,MEMADDR6*%
X91968500Y-148901900D02*
X91524800Y-149345600D01*
X84419400Y-148281700D02*
X79881400Y-148281700D01*
X98608400Y-149031800D02*
X103262400Y-149031800D01*
X78065700Y-148227200D02*
X77792800Y-147954300D01*
X63758200Y-147954300D02*
X63296000Y-147492100D01*
X63296000Y-147492100D02*
X54993000Y-147492100D01*
X98185400Y-148608800D02*
X95793000Y-148608800D01*
X94838200Y-149066600D02*
X94673500Y-148901900D01*
X103262400Y-149031800D02*
X104984900Y-150754300D01*
X98608400Y-149031800D02*
X98185400Y-148608800D01*
X104984900Y-150754300D02*
X111431700Y-150754300D01*
X79881400Y-148281700D02*
X79826900Y-148227200D01*
X79826900Y-148227200D02*
X78065700Y-148227200D01*
X95335200Y-149066600D02*
X94838200Y-149066600D01*
X77792800Y-147954300D02*
X63758200Y-147954300D01*
X85483300Y-149345600D02*
X84419400Y-148281700D01*
X95793000Y-148608800D02*
X95335200Y-149066600D01*
X94673500Y-148901900D02*
X91968500Y-148901900D01*
X54993000Y-147492100D02*
X54091800Y-146590900D01*
X91524800Y-149345600D02*
X85483300Y-149345600D01*
%TO.N,A1*%
X76112700Y-180195300D02*
X74910100Y-180195300D01*
X72752900Y-177630100D02*
X72136000Y-177630100D01*
X81048000Y-175260000D02*
X76112700Y-180195300D01*
X73575800Y-178861000D02*
X73575800Y-178453000D01*
X84287700Y-175260000D02*
X81048000Y-175260000D01*
X84604700Y-174943000D02*
X84287700Y-175260000D01*
X74910100Y-180195300D02*
X73575800Y-178861000D01*
X73575800Y-178453000D02*
X72752900Y-177630100D01*
X72136000Y-176530000D02*
X72136000Y-177630100D01*
%TO.N,A0*%
X111011800Y-138917400D02*
X114686500Y-138917400D01*
X90341700Y-139410100D02*
X97719700Y-139410100D01*
X97719700Y-139410100D02*
X98607600Y-138522200D01*
X98607600Y-138522200D02*
X110616600Y-138522200D01*
X88532600Y-138305800D02*
X89237400Y-138305800D01*
X89237400Y-138305800D02*
X90341700Y-139410100D01*
X87142500Y-138005600D02*
X88232400Y-138005600D01*
X110616600Y-138522200D02*
X111011800Y-138917400D01*
X88232400Y-138005600D02*
X88532600Y-138305800D01*
%TO.N,A3*%
X88340200Y-145129300D02*
X92541600Y-145129300D01*
X92541600Y-145129300D02*
X93376900Y-144294000D01*
X93376900Y-144294000D02*
X112867000Y-144294000D01*
X112867000Y-144294000D02*
X114452200Y-142708800D01*
%TO.N,A6*%
X73236100Y-163830000D02*
X74340300Y-164934200D01*
X74340300Y-164934200D02*
X81336500Y-164934200D01*
X72136000Y-163830000D02*
X73236100Y-163830000D01*
%TO.N,A5*%
X97851100Y-141868000D02*
X101503700Y-141868000D01*
X96826200Y-140843100D02*
X97851100Y-141868000D01*
X101503700Y-141868000D02*
X102147200Y-141224500D01*
X102147200Y-141224500D02*
X102496300Y-141224500D01*
X87779700Y-140843100D02*
X96826200Y-140843100D01*
X81753500Y-140269500D02*
X82490300Y-141006300D01*
X79249700Y-140269500D02*
X81753500Y-140269500D01*
X82490300Y-141006300D02*
X87616500Y-141006300D01*
X87616500Y-141006300D02*
X87779700Y-140843100D01*
%TO.N,A7*%
X72136000Y-161290000D02*
X73236100Y-161290000D01*
X86684600Y-162472400D02*
X87353900Y-161803100D01*
X73236100Y-161290000D02*
X74418500Y-162472400D01*
X89110600Y-161803100D02*
X89252100Y-161944600D01*
X87353900Y-161803100D02*
X89110600Y-161803100D01*
X74418500Y-162472400D02*
X86684600Y-162472400D01*
%TO.N,A10*%
X83424200Y-139298000D02*
X79439800Y-139298000D01*
X87214900Y-140406200D02*
X84532400Y-140406200D01*
X84532400Y-140406200D02*
X83424200Y-139298000D01*
%TO.N,A11*%
X64781100Y-141055100D02*
X64781100Y-140545800D01*
X80184100Y-141406400D02*
X88667800Y-141406400D01*
X78681600Y-140701800D02*
X78881600Y-140901800D01*
X68215400Y-140701800D02*
X78681600Y-140701800D01*
X88667800Y-141406400D02*
X88704600Y-141443200D01*
X79679500Y-140901800D02*
X80184100Y-141406400D01*
X65125300Y-140201600D02*
X67715200Y-140201600D01*
X78881600Y-140901800D02*
X79679500Y-140901800D01*
X65340800Y-141614800D02*
X64781100Y-141055100D01*
X64781100Y-140545800D02*
X65125300Y-140201600D01*
X67715200Y-140201600D02*
X68215400Y-140701800D01*
%TO.N,A13*%
X83058000Y-168910000D02*
X79953000Y-168910000D01*
X79953000Y-168910000D02*
X79821000Y-169042000D01*
%TO.N,RESOLUTION*%
X54495100Y-165608000D02*
X54932300Y-165170800D01*
X68166500Y-161806400D02*
X68166500Y-160425100D01*
X64802100Y-165170800D02*
X68166500Y-161806400D01*
X53345000Y-165608000D02*
X54495100Y-165608000D01*
X54932300Y-165170800D02*
X64802100Y-165170800D01*
%TO.N,D4*%
X120451500Y-161434500D02*
X116756600Y-157739600D01*
X63391900Y-154798500D02*
X62651500Y-154058100D01*
X120451500Y-161671000D02*
X120451500Y-161434500D01*
X58420000Y-152908000D02*
X59570100Y-152908000D01*
X70542600Y-152429300D02*
X68173400Y-154798500D01*
X121615200Y-161671000D02*
X120451500Y-161671000D01*
X62651500Y-154058100D02*
X60432600Y-154058100D01*
X103492500Y-152656700D02*
X89546500Y-152656700D01*
X116756600Y-157739600D02*
X108575400Y-157739600D01*
X89319100Y-152429300D02*
X70542600Y-152429300D01*
X108575400Y-157739600D02*
X103492500Y-152656700D01*
X60432600Y-154058100D02*
X59570100Y-153195600D01*
X89546500Y-152656700D02*
X89319100Y-152429300D01*
X68173400Y-154798500D02*
X63391900Y-154798500D01*
X59570100Y-153195600D02*
X59570100Y-152908000D01*
%TO.N,A18*%
X83058000Y-156210000D02*
X88245700Y-156210000D01*
X88245700Y-156210000D02*
X89836400Y-157800700D01*
X94488900Y-157800700D02*
X95170200Y-157119400D01*
X89836400Y-157800700D02*
X94488900Y-157800700D01*
%TO.N,/MCU WE*%
X111392300Y-154889200D02*
X107422400Y-154889200D01*
X86675300Y-151178400D02*
X86488500Y-150991600D01*
X96286400Y-151456400D02*
X96008400Y-151178400D01*
X107422400Y-154889200D02*
X103989600Y-151456400D01*
X96008400Y-151178400D02*
X86675300Y-151178400D01*
X103989600Y-151456400D02*
X96286400Y-151456400D01*
%TO.N,D5*%
X122991500Y-161942200D02*
X122991500Y-161671000D01*
X59570100Y-155727600D02*
X63700800Y-159858300D01*
X91300800Y-162295800D02*
X120524300Y-162295800D01*
X58420000Y-155448000D02*
X59570100Y-155448000D01*
X124155200Y-161671000D02*
X122991500Y-161671000D01*
X67035100Y-159794200D02*
X68710700Y-159794200D01*
X59570100Y-155448000D02*
X59570100Y-155727600D01*
X69106200Y-160189700D02*
X89194700Y-160189700D01*
X121096000Y-162867500D02*
X122066200Y-162867500D01*
X68710700Y-159794200D02*
X69106200Y-160189700D01*
X120524300Y-162295800D02*
X121096000Y-162867500D01*
X122066200Y-162867500D02*
X122991500Y-161942200D01*
X89194700Y-160189700D02*
X91300800Y-162295800D01*
X66971000Y-159858300D02*
X67035100Y-159794200D01*
X63700800Y-159858300D02*
X66971000Y-159858300D01*
%TO.N,5V*%
X121615200Y-133731000D02*
X124155200Y-133731000D01*
%TO.N,Net-(A1-D17{slash}RX2)*%
X42948800Y-142867500D02*
X42948800Y-142164700D01*
X48165700Y-136947800D02*
X72834100Y-136947800D01*
X72991400Y-136790500D02*
X75165200Y-136790500D01*
X100506700Y-136167000D02*
X102671500Y-134002200D01*
X42948800Y-142164700D02*
X48165700Y-136947800D01*
X102671500Y-134002200D02*
X102671500Y-133731000D01*
X76170300Y-136967100D02*
X76970400Y-136167000D01*
X41814300Y-144002000D02*
X42948800Y-142867500D01*
X75341800Y-136967100D02*
X76170300Y-136967100D01*
X75165200Y-136790500D02*
X75341800Y-136967100D01*
X72834100Y-136947800D02*
X72991400Y-136790500D01*
X76970400Y-136167000D02*
X100506700Y-136167000D01*
X103835200Y-133731000D02*
X102671500Y-133731000D01*
%TO.N,Net-(U16-Pad8)*%
X115774300Y-156565600D02*
X111446100Y-156565600D01*
%TO.N,Net-(A1-D16{slash}TX2)*%
X75507500Y-136567000D02*
X76004600Y-136567000D01*
X76004600Y-136567000D02*
X76804700Y-135766900D01*
X100131500Y-134002200D02*
X100131500Y-133731000D01*
X98366800Y-135766900D02*
X100131500Y-134002200D01*
X101295200Y-133731000D02*
X100131500Y-133731000D01*
X75330900Y-136390400D02*
X75507500Y-136567000D01*
X70164300Y-136547600D02*
X70321500Y-136390400D01*
X76804700Y-135766900D02*
X98366800Y-135766900D01*
X41899100Y-142002000D02*
X47353500Y-136547600D01*
X47353500Y-136547600D02*
X70164300Y-136547600D01*
X70321500Y-136390400D02*
X75330900Y-136390400D01*
X41814300Y-142002000D02*
X41899100Y-142002000D01*
%TO.N,/MCU OE*%
X102935200Y-150456100D02*
X96700700Y-150456100D01*
%TO.N,MCUMEMADDR1*%
X77379900Y-142702300D02*
X64758700Y-142702300D01*
X113872300Y-141308500D02*
X112087100Y-143093700D01*
X77579900Y-142902300D02*
X77379900Y-142702300D01*
X79542900Y-142902300D02*
X77579900Y-142902300D01*
X92244600Y-143728900D02*
X88737100Y-143728900D01*
X120451500Y-141351000D02*
X120409000Y-141308500D01*
X88737100Y-143728900D02*
X87751300Y-142743100D01*
X121615200Y-141351000D02*
X120451500Y-141351000D01*
X64758700Y-142702300D02*
X62828100Y-140771700D01*
X87751300Y-142743100D02*
X79702100Y-142743100D01*
X112087100Y-143093700D02*
X92879800Y-143093700D01*
X79702100Y-142743100D02*
X79542900Y-142902300D01*
X92879800Y-143093700D02*
X92244600Y-143728900D01*
X120409000Y-141308500D02*
X113872300Y-141308500D01*
%TO.N,MCUMEMADDR10*%
X105188800Y-140537400D02*
X105589000Y-140137200D01*
X92421500Y-142986200D02*
X92714100Y-142693600D01*
X112045800Y-140137200D02*
X112378700Y-140470100D01*
X88171800Y-142325000D02*
X88290200Y-142443400D01*
X65136600Y-142302200D02*
X77545600Y-142302200D01*
X77545600Y-142302200D02*
X77745600Y-142502200D01*
X77745600Y-142502200D02*
X79377300Y-142502200D01*
X63428200Y-140593800D02*
X65136600Y-142302200D01*
X105589000Y-140137200D02*
X112045800Y-140137200D01*
X79377300Y-142502200D02*
X79554500Y-142325000D01*
X102587800Y-142693600D02*
X104744000Y-140537400D01*
X91381600Y-142443400D02*
X91924400Y-142986200D01*
X88290200Y-142443400D02*
X91381600Y-142443400D01*
X60497200Y-140441900D02*
X60767500Y-140171600D01*
X63076700Y-140171600D02*
X63428200Y-140523100D01*
X112378700Y-140470100D02*
X116626800Y-140470100D01*
X79554500Y-142325000D02*
X88171800Y-142325000D01*
X104744000Y-140537400D02*
X105188800Y-140537400D01*
X63428200Y-140523100D02*
X63428200Y-140593800D01*
X60767500Y-140171600D02*
X63076700Y-140171600D01*
X92714100Y-142693600D02*
X102587800Y-142693600D01*
X91924400Y-142986200D02*
X92421500Y-142986200D01*
%TO.N,Net-(U11-CE)*%
X101974900Y-139832500D02*
X102202800Y-139604600D01*
X88810600Y-139832500D02*
X101974900Y-139832500D01*
X69616300Y-138556700D02*
X70410400Y-138556700D01*
X70526700Y-138440400D02*
X78030800Y-138440400D01*
X86894000Y-138605700D02*
X87583800Y-138605700D01*
X78184300Y-138286900D02*
X86575200Y-138286900D01*
X87583800Y-138605700D02*
X88810600Y-139832500D01*
X86575200Y-138286900D02*
X86894000Y-138605700D01*
X78030800Y-138440400D02*
X78184300Y-138286900D01*
X70410400Y-138556700D02*
X70526700Y-138440400D01*
%TO.N,MCUMEMADDR4*%
X93887700Y-134894800D02*
X95051500Y-133731000D01*
X58237400Y-134894800D02*
X93887700Y-134894800D01*
X96215200Y-133731000D02*
X95051500Y-133731000D01*
%TO.N,MCUMEMADDR15*%
X122072100Y-155241600D02*
X122991500Y-154322200D01*
X83922300Y-149482000D02*
X86032000Y-151591700D01*
X79384300Y-149482000D02*
X83922300Y-149482000D01*
X86032000Y-151591700D02*
X95855900Y-151591700D01*
X107478300Y-155510900D02*
X111662500Y-155510900D01*
X64588600Y-149402100D02*
X64827300Y-149163400D01*
X103823900Y-151856500D02*
X107478300Y-155510900D01*
X77304500Y-149163400D02*
X77568600Y-149427500D01*
X64827300Y-149163400D02*
X77304500Y-149163400D01*
X122991500Y-154322200D02*
X122991500Y-154051000D01*
X79329800Y-149427500D02*
X79384300Y-149482000D01*
X124155200Y-154051000D02*
X122991500Y-154051000D01*
X111662500Y-155510900D02*
X111931800Y-155241600D01*
X95855900Y-151591700D02*
X96120700Y-151856500D01*
X96120700Y-151856500D02*
X103823900Y-151856500D01*
X111931800Y-155241600D02*
X122072100Y-155241600D01*
X77568600Y-149427500D02*
X79329800Y-149427500D01*
%TO.N,MCUMEMADDR5*%
X67031500Y-136147400D02*
X59618500Y-136147400D01*
X59618500Y-136147400D02*
X59399800Y-135928700D01*
X98755200Y-133731000D02*
X97591500Y-133731000D01*
X97591500Y-133731000D02*
X97591500Y-134002200D01*
X97591500Y-134002200D02*
X96262800Y-135330900D01*
X96262800Y-135330900D02*
X67848000Y-135330900D01*
X67848000Y-135330900D02*
X67031500Y-136147400D01*
%TO.N,MCUMEMADDR9*%
X88588800Y-145729400D02*
X88091800Y-145729400D01*
X103490800Y-145553100D02*
X88765100Y-145553100D01*
X64051700Y-144352700D02*
X63901600Y-144502800D01*
X88765100Y-145553100D02*
X88588800Y-145729400D01*
X119415800Y-145395300D02*
X103648600Y-145395300D01*
X80338200Y-144680900D02*
X79657600Y-145361500D01*
X79160600Y-145361500D02*
X78902000Y-145102900D01*
X87224200Y-144861800D02*
X87041000Y-144861800D01*
X103648600Y-145395300D02*
X103490800Y-145553100D01*
X69018800Y-144352700D02*
X64051700Y-144352700D01*
X86860100Y-144680900D02*
X80338200Y-144680900D01*
X78902000Y-145102900D02*
X69769000Y-145102900D01*
X79657600Y-145361500D02*
X79160600Y-145361500D01*
X69769000Y-145102900D02*
X69018800Y-144352700D01*
X120451500Y-146431000D02*
X119415800Y-145395300D01*
X88091800Y-145729400D02*
X87224200Y-144861800D01*
X121615200Y-146431000D02*
X120451500Y-146431000D01*
X87041000Y-144861800D02*
X86860100Y-144680900D01*
%TO.N,MCUMEMADDR3*%
X115052300Y-142549800D02*
X116393500Y-143891000D01*
X87431300Y-143554700D02*
X88405700Y-144529100D01*
X116393500Y-143891000D02*
X120451500Y-143891000D01*
X115052300Y-142460200D02*
X115052300Y-142549800D01*
X62891500Y-143502500D02*
X77048500Y-143502500D01*
X62414800Y-142578800D02*
X62414800Y-143025800D01*
X93211200Y-143893900D02*
X112418500Y-143893900D01*
X114700800Y-142108700D02*
X115052300Y-142460200D01*
X61420300Y-141584300D02*
X62414800Y-142578800D01*
X53417100Y-141614100D02*
X57780900Y-141614100D01*
X112418500Y-143893900D02*
X114203700Y-142108700D01*
X53387300Y-141584300D02*
X53417100Y-141614100D01*
X77248500Y-143702500D02*
X79874300Y-143702500D01*
X57810700Y-141584300D02*
X61420300Y-141584300D01*
X79874300Y-143702500D02*
X80022100Y-143554700D01*
X80022100Y-143554700D02*
X87431300Y-143554700D01*
X92576000Y-144529100D02*
X93211200Y-143893900D01*
X62414800Y-143025800D02*
X62891500Y-143502500D01*
X57780900Y-141614100D02*
X57810700Y-141584300D01*
X88405700Y-144529100D02*
X92576000Y-144529100D01*
X114203700Y-142108700D02*
X114700800Y-142108700D01*
X77048500Y-143502500D02*
X77248500Y-143702500D01*
X121615200Y-143891000D02*
X120451500Y-143891000D01*
%TO.N,MCUMEMADDR11*%
X124155200Y-148971000D02*
X122991500Y-148971000D01*
X110545500Y-145795400D02*
X112534600Y-147784500D01*
X78570600Y-145903100D02*
X78829200Y-146161700D01*
X69381000Y-145903100D02*
X78570600Y-145903100D01*
X122074400Y-147782700D02*
X122991500Y-148699800D01*
X122991500Y-148699800D02*
X122991500Y-148971000D01*
X113501200Y-147784500D02*
X113705300Y-147580400D01*
X88862000Y-146022000D02*
X103587700Y-146022000D01*
X103814300Y-145795400D02*
X110545500Y-145795400D01*
X113705300Y-147580400D02*
X116893200Y-147580400D01*
X68631600Y-145153700D02*
X69381000Y-145903100D01*
X78829200Y-146161700D02*
X79989100Y-146161700D01*
X103587700Y-146022000D02*
X103814300Y-145795400D01*
X64665200Y-145153700D02*
X68631600Y-145153700D01*
X85999300Y-145481100D02*
X86892300Y-146374100D01*
X86892300Y-146374100D02*
X88509900Y-146374100D01*
X88509900Y-146374100D02*
X88862000Y-146022000D01*
X80669700Y-145481100D02*
X85999300Y-145481100D01*
X62911500Y-145503000D02*
X64315900Y-145503000D01*
X61302000Y-143893500D02*
X62911500Y-145503000D01*
X64315900Y-145503000D02*
X64665200Y-145153700D01*
X116893200Y-147580400D02*
X117095500Y-147782700D01*
X117095500Y-147782700D02*
X122074400Y-147782700D01*
X79989100Y-146161700D02*
X80669700Y-145481100D01*
X112534600Y-147784500D02*
X113501200Y-147784500D01*
%TO.N,MCUMEMADDR14*%
X121615200Y-154051000D02*
X120451500Y-154051000D01*
X107150000Y-154051000D02*
X104155300Y-151056300D01*
X77734300Y-149027400D02*
X77470200Y-148763300D01*
X86750400Y-150378200D02*
X85384300Y-150378200D01*
X79550000Y-149081900D02*
X79495500Y-149027400D01*
X79495500Y-149027400D02*
X77734300Y-149027400D01*
X63338400Y-148763300D02*
X63245500Y-148856200D01*
X96452100Y-151056300D02*
X96134300Y-150738500D01*
X104155300Y-151056300D02*
X96452100Y-151056300D01*
X120451500Y-154051000D02*
X107150000Y-154051000D01*
X96134300Y-150738500D02*
X87110700Y-150738500D01*
X87110700Y-150738500D02*
X86750400Y-150378200D01*
X77470200Y-148763300D02*
X63338400Y-148763300D01*
X85384300Y-150378200D02*
X84088000Y-149081900D01*
X84088000Y-149081900D02*
X79550000Y-149081900D01*
%TO.N,MCUMEMADDR0*%
X121938500Y-137467000D02*
X122991500Y-138520000D01*
X113811000Y-136967200D02*
X114310800Y-137467000D01*
X92978300Y-136967200D02*
X113811000Y-136967200D01*
X53678000Y-137347900D02*
X73591200Y-137347900D01*
X114310800Y-137467000D02*
X121938500Y-137467000D01*
X74999500Y-137190600D02*
X75176100Y-137367200D01*
X73591200Y-137347900D02*
X73748500Y-137190600D01*
X77136100Y-136567100D02*
X92578200Y-136567100D01*
X76336000Y-137367200D02*
X77136100Y-136567100D01*
X53393300Y-137632600D02*
X53678000Y-137347900D01*
X122991500Y-138520000D02*
X122991500Y-138811000D01*
X92578200Y-136567100D02*
X92978300Y-136967200D01*
X124155200Y-138811000D02*
X122991500Y-138811000D01*
X75176100Y-137367200D02*
X76336000Y-137367200D01*
X73748500Y-137190600D02*
X74999500Y-137190600D01*
%TO.N,MCUMEMADDR2*%
X122991500Y-141642000D02*
X122991500Y-141351000D01*
X88571400Y-144129000D02*
X92410300Y-144129000D01*
X47792200Y-140162300D02*
X56066400Y-140162300D01*
X77214200Y-143102400D02*
X77414200Y-143302400D01*
X121980500Y-142653000D02*
X122991500Y-141642000D01*
X115452400Y-142376300D02*
X115729100Y-142653000D01*
X112252800Y-143493800D02*
X114038000Y-141708600D01*
X92410300Y-144129000D02*
X93045500Y-143493800D01*
X56066400Y-140162300D02*
X57118100Y-141214000D01*
X124155200Y-141351000D02*
X122991500Y-141351000D01*
X57615200Y-141214000D02*
X57669700Y-141159500D01*
X77414200Y-143302400D02*
X79708600Y-143302400D01*
X62367200Y-141159500D02*
X64310100Y-143102400D01*
X57118100Y-141214000D02*
X57615200Y-141214000D01*
X64310100Y-143102400D02*
X77214200Y-143102400D01*
X79708600Y-143302400D02*
X79867800Y-143143200D01*
X114866500Y-141708600D02*
X115452400Y-142294500D01*
X93045500Y-143493800D02*
X112252800Y-143493800D01*
X115729100Y-142653000D02*
X121980500Y-142653000D01*
X87585600Y-143143200D02*
X88571400Y-144129000D01*
X57669700Y-141159500D02*
X62367200Y-141159500D01*
X115452400Y-142294500D02*
X115452400Y-142376300D01*
X79867800Y-143143200D02*
X87585600Y-143143200D01*
X114038000Y-141708600D02*
X114866500Y-141708600D01*
%TO.N,MCUMEMADDR12*%
X63970200Y-145903100D02*
X64776400Y-146709300D01*
X109987300Y-146595600D02*
X112018900Y-148627200D01*
X120003000Y-151511000D02*
X120451500Y-151511000D01*
X64776400Y-146709300D02*
X78245200Y-146709300D01*
X60481600Y-144770500D02*
X61614200Y-145903100D01*
X117605300Y-149113300D02*
X120003000Y-151511000D01*
X88041100Y-147974500D02*
X89176000Y-146839600D01*
X80481500Y-147081400D02*
X85852700Y-147081400D01*
X80427000Y-147026900D02*
X80481500Y-147081400D01*
X85852700Y-147081400D02*
X86745800Y-147974500D01*
X114828100Y-148417700D02*
X115523700Y-149113300D01*
X113790100Y-148627200D02*
X113999600Y-148417700D01*
X78245200Y-146709300D02*
X78562800Y-147026900D01*
X115523700Y-149113300D02*
X117605300Y-149113300D01*
X121615200Y-151511000D02*
X120451500Y-151511000D01*
X113999600Y-148417700D02*
X114828100Y-148417700D01*
X86745800Y-147974500D02*
X88041100Y-147974500D01*
X103901700Y-146839600D02*
X104145700Y-146595600D01*
X61614200Y-145903100D02*
X63970200Y-145903100D01*
X89176000Y-146839600D02*
X103901700Y-146839600D01*
X104145700Y-146595600D02*
X109987300Y-146595600D01*
X112018900Y-148627200D02*
X113790100Y-148627200D01*
X78562800Y-147026900D02*
X80427000Y-147026900D01*
%TO.N,MCUMEMADDR19*%
X107934900Y-148455600D02*
X111281500Y-148455600D01*
X113955800Y-149027300D02*
X114165300Y-148817800D01*
X115358000Y-149513400D02*
X117439600Y-149513400D01*
X124446100Y-157967300D02*
X124155200Y-157967300D01*
X111853200Y-149027300D02*
X113955800Y-149027300D01*
X125351200Y-153561800D02*
X125351200Y-157062200D01*
X114165300Y-148817800D02*
X114662400Y-148817800D01*
X111281500Y-148455600D02*
X111853200Y-149027300D01*
X124155200Y-159131000D02*
X124155200Y-157967300D01*
X124570400Y-152781000D02*
X125351200Y-153561800D01*
X107578700Y-148811800D02*
X107934900Y-148455600D01*
X125351200Y-157062200D02*
X124446100Y-157967300D01*
X114662400Y-148817800D02*
X115358000Y-149513400D01*
X117439600Y-149513400D02*
X120707200Y-152781000D01*
X120707200Y-152781000D02*
X124570400Y-152781000D01*
%TO.N,MCUMEMADDR13*%
X112184600Y-148227100D02*
X113624400Y-148227100D01*
X103736000Y-146439500D02*
X103980000Y-146195500D01*
X81950100Y-146561800D02*
X82630700Y-145881200D01*
X113624400Y-148227100D02*
X113833900Y-148017600D01*
X120516800Y-150241000D02*
X121992700Y-150241000D01*
X103980000Y-146195500D02*
X110153000Y-146195500D01*
X64893600Y-145774100D02*
X65422700Y-146303200D01*
X86965600Y-147574400D02*
X87875400Y-147574400D01*
X85272400Y-145881200D02*
X86965600Y-147574400D01*
X122991500Y-151239800D02*
X122991500Y-151511000D01*
X78404900Y-146303200D02*
X78663500Y-146561800D01*
X118801600Y-148525800D02*
X120516800Y-150241000D01*
X110153000Y-146195500D02*
X112184600Y-148227100D01*
X121992700Y-150241000D02*
X122991500Y-151239800D01*
X113833900Y-148017600D02*
X116126200Y-148017600D01*
X78663500Y-146561800D02*
X81950100Y-146561800D01*
X124155200Y-151511000D02*
X122991500Y-151511000D01*
X65422700Y-146303200D02*
X78404900Y-146303200D01*
X89010300Y-146439500D02*
X103736000Y-146439500D01*
X82630700Y-145881200D02*
X85272400Y-145881200D01*
X116634400Y-148525800D02*
X118801600Y-148525800D01*
X116126200Y-148017600D02*
X116634400Y-148525800D01*
X87875400Y-147574400D02*
X89010300Y-146439500D01*
%TO.N,A19*%
X91667100Y-142043300D02*
X88455900Y-142043300D01*
X88455900Y-142043300D02*
X88219100Y-141806500D01*
X80018400Y-141806500D02*
X79513800Y-141301900D01*
X65715100Y-141101900D02*
X65425300Y-140812100D01*
X102105500Y-142268100D02*
X92903600Y-142268100D01*
X92903600Y-142268100D02*
X92421500Y-141786000D01*
X91924400Y-141786000D02*
X91667100Y-142043300D01*
X78715900Y-141301900D02*
X78515900Y-141101900D01*
X102305600Y-142068000D02*
X102105500Y-142268100D01*
X88219100Y-141806500D02*
X80018400Y-141806500D01*
X92421500Y-141786000D02*
X91924400Y-141786000D01*
X79513800Y-141301900D02*
X78715900Y-141301900D01*
X78515900Y-141101900D02*
X65715100Y-141101900D01*
%TO.N,Net-(U8-IO23)*%
X75438000Y-176530000D02*
X74337900Y-176530000D01*
X73233500Y-175425600D02*
X74337900Y-176530000D01*
X64516000Y-176530000D02*
X65616100Y-176530000D01*
X66720500Y-175425600D02*
X73233500Y-175425600D01*
X65616100Y-176530000D02*
X66720500Y-175425600D01*
%TD*%
%TA.AperFunction,Conductor*%
%TO.N,PWR*%
G36*
X34160237Y-136258437D02*
G01*
X34213026Y-136304210D01*
X34232689Y-136371255D01*
X34232424Y-136379325D01*
X34228971Y-136432007D01*
X34248264Y-136726363D01*
X34248265Y-136726373D01*
X34248266Y-136726380D01*
X34287823Y-136925251D01*
X34305818Y-137015716D01*
X34305821Y-137015730D01*
X34400649Y-137295080D01*
X34531125Y-137559660D01*
X34531129Y-137559667D01*
X34695025Y-137804955D01*
X34889541Y-138026758D01*
X35111344Y-138221274D01*
X35356632Y-138385170D01*
X35356639Y-138385174D01*
X35621220Y-138515651D01*
X35621230Y-138515655D01*
X35799658Y-138576223D01*
X35856813Y-138616412D01*
X35883166Y-138681121D01*
X35883800Y-138693642D01*
X35883800Y-143705330D01*
X35883799Y-143705348D01*
X35883799Y-143871054D01*
X35883798Y-143871054D01*
X35924722Y-144023783D01*
X35950407Y-144068271D01*
X36003777Y-144160712D01*
X36003781Y-144160717D01*
X36122649Y-144279585D01*
X36122655Y-144279590D01*
X37943182Y-146100118D01*
X37976667Y-146161441D01*
X37975276Y-146219891D01*
X37958095Y-146284015D01*
X37958092Y-146284029D01*
X37939023Y-146501997D01*
X37939023Y-146502002D01*
X37948558Y-146610988D01*
X37949615Y-146623076D01*
X37958093Y-146719975D01*
X37958093Y-146719979D01*
X38014722Y-146931322D01*
X38014724Y-146931326D01*
X38014725Y-146931330D01*
X38060961Y-147030484D01*
X38107197Y-147129638D01*
X38120933Y-147149255D01*
X38232702Y-147308877D01*
X38387423Y-147463598D01*
X38566661Y-147589102D01*
X38764970Y-147681575D01*
X38976323Y-147738207D01*
X39159226Y-147754208D01*
X39194298Y-147757277D01*
X39194300Y-147757277D01*
X39194302Y-147757277D01*
X39222554Y-147754805D01*
X39412277Y-147738207D01*
X39623630Y-147681575D01*
X39821939Y-147589102D01*
X40001177Y-147463598D01*
X40155898Y-147308877D01*
X40263381Y-147155374D01*
X40317957Y-147111751D01*
X40364955Y-147102500D01*
X40643645Y-147102500D01*
X40710684Y-147122185D01*
X40745217Y-147155373D01*
X40852702Y-147308877D01*
X40852706Y-147308881D01*
X41005338Y-147461513D01*
X41038823Y-147522836D01*
X41033839Y-147592528D01*
X40991967Y-147648461D01*
X40986547Y-147652296D01*
X40791344Y-147782725D01*
X40569541Y-147977241D01*
X40375028Y-148199041D01*
X40211128Y-148444334D01*
X40080649Y-148708919D01*
X39985821Y-148988269D01*
X39985818Y-148988283D01*
X39928268Y-149277609D01*
X39928264Y-149277636D01*
X39908971Y-149571992D01*
X39908971Y-149572007D01*
X39928264Y-149866363D01*
X39928265Y-149866373D01*
X39928266Y-149866380D01*
X39978212Y-150117481D01*
X39985818Y-150155716D01*
X39985821Y-150155730D01*
X40080649Y-150435080D01*
X40211125Y-150699660D01*
X40211129Y-150699667D01*
X40375025Y-150944955D01*
X40569541Y-151166758D01*
X40791344Y-151361274D01*
X40997036Y-151498713D01*
X41036635Y-151525172D01*
X41301223Y-151655652D01*
X41580578Y-151750481D01*
X41869920Y-151808034D01*
X41886413Y-151809115D01*
X42164293Y-151827329D01*
X42164300Y-151827329D01*
X42164307Y-151827329D01*
X42399975Y-151811881D01*
X42458680Y-151808034D01*
X42748022Y-151750481D01*
X43027377Y-151655652D01*
X43291965Y-151525172D01*
X43537257Y-151361273D01*
X43759058Y-151166758D01*
X43953573Y-150944957D01*
X44117472Y-150699665D01*
X44247952Y-150435077D01*
X44342781Y-150155722D01*
X44400334Y-149866380D01*
X44416139Y-149625251D01*
X44419629Y-149572007D01*
X44419629Y-149571992D01*
X44400335Y-149277636D01*
X44400334Y-149277620D01*
X44342781Y-148988278D01*
X44247952Y-148708923D01*
X44117472Y-148444336D01*
X44101166Y-148419933D01*
X44035062Y-148321000D01*
X43953573Y-148199043D01*
X43910955Y-148150447D01*
X43759058Y-147977241D01*
X43537255Y-147782725D01*
X43291967Y-147618829D01*
X43291960Y-147618825D01*
X43027380Y-147488349D01*
X42879188Y-147438044D01*
X42822034Y-147397855D01*
X42795681Y-147333146D01*
X42808496Y-147264461D01*
X42817469Y-147249506D01*
X42901402Y-147129639D01*
X42993875Y-146931330D01*
X43050507Y-146719977D01*
X43069577Y-146502000D01*
X43066579Y-146467737D01*
X43065592Y-146456449D01*
X43050507Y-146284023D01*
X43000649Y-146097950D01*
X42993877Y-146072677D01*
X42993876Y-146072676D01*
X42993875Y-146072670D01*
X42901402Y-145874362D01*
X42901400Y-145874359D01*
X42901399Y-145874357D01*
X42775899Y-145695124D01*
X42716435Y-145635660D01*
X42621177Y-145540402D01*
X42441939Y-145414898D01*
X42333606Y-145364381D01*
X42281167Y-145318210D01*
X42262015Y-145251016D01*
X42282231Y-145184135D01*
X42333607Y-145139618D01*
X42441939Y-145089102D01*
X42621177Y-144963598D01*
X42775898Y-144808877D01*
X42901402Y-144629639D01*
X42993875Y-144431330D01*
X43050507Y-144219977D01*
X43069577Y-144002000D01*
X43068660Y-143991523D01*
X43063617Y-143933880D01*
X43050507Y-143784023D01*
X43033323Y-143719891D01*
X43034985Y-143650043D01*
X43065414Y-143600119D01*
X43307306Y-143358228D01*
X43307311Y-143358224D01*
X43317514Y-143348020D01*
X43317516Y-143348020D01*
X43414888Y-143250648D01*
X43476211Y-143217163D01*
X43516453Y-143215109D01*
X43532990Y-143216972D01*
X43548899Y-143218765D01*
X43548900Y-143218765D01*
X43548904Y-143218765D01*
X43728149Y-143198569D01*
X43728152Y-143198568D01*
X43728155Y-143198568D01*
X43898422Y-143138989D01*
X44051162Y-143043016D01*
X44178716Y-142915462D01*
X44274689Y-142762722D01*
X44334268Y-142592455D01*
X44340424Y-142537822D01*
X44354465Y-142413203D01*
X44354465Y-142413196D01*
X44334269Y-142233950D01*
X44334268Y-142233945D01*
X44274688Y-142063675D01*
X44204203Y-141951500D01*
X44182350Y-141916722D01*
X44163350Y-141849487D01*
X44183717Y-141782652D01*
X44199658Y-141763075D01*
X48378117Y-137584619D01*
X48439440Y-137551134D01*
X48465798Y-137548300D01*
X52467423Y-137548300D01*
X52534462Y-137567985D01*
X52580217Y-137620789D01*
X52590643Y-137658416D01*
X52607930Y-137811850D01*
X52607931Y-137811854D01*
X52667511Y-137982123D01*
X52749875Y-138113203D01*
X52763484Y-138134862D01*
X52891038Y-138262416D01*
X53043778Y-138358389D01*
X53147869Y-138394812D01*
X53214045Y-138417968D01*
X53214050Y-138417969D01*
X53393296Y-138438165D01*
X53393300Y-138438165D01*
X53393304Y-138438165D01*
X53572549Y-138417969D01*
X53572552Y-138417968D01*
X53572555Y-138417968D01*
X53742822Y-138358389D01*
X53895562Y-138262416D01*
X54023116Y-138134862D01*
X54023120Y-138134856D01*
X54103818Y-138006428D01*
X54156152Y-137960137D01*
X54208811Y-137948400D01*
X59566807Y-137948400D01*
X59633846Y-137968085D01*
X59679601Y-138020889D01*
X59687901Y-138073036D01*
X59690735Y-138073036D01*
X59690735Y-138080003D01*
X59710930Y-138259249D01*
X59710931Y-138259254D01*
X59770511Y-138429523D01*
X59845930Y-138549550D01*
X59866484Y-138582262D01*
X59994038Y-138709816D01*
X60035638Y-138735955D01*
X60143058Y-138803452D01*
X60146778Y-138805789D01*
X60280556Y-138852600D01*
X60317045Y-138865368D01*
X60317050Y-138865369D01*
X60496296Y-138885565D01*
X60496300Y-138885565D01*
X60496304Y-138885565D01*
X60675549Y-138865369D01*
X60675552Y-138865368D01*
X60675555Y-138865368D01*
X60845822Y-138805789D01*
X60998562Y-138709816D01*
X61126116Y-138582262D01*
X61222089Y-138429522D01*
X61281668Y-138259255D01*
X61281764Y-138258403D01*
X61301865Y-138080003D01*
X61301865Y-138073036D01*
X61304905Y-138073036D01*
X61314598Y-138017520D01*
X61361920Y-137966116D01*
X61425793Y-137948400D01*
X68828751Y-137948400D01*
X68895790Y-137968085D01*
X68941545Y-138020889D01*
X68951489Y-138090047D01*
X68933744Y-138138373D01*
X68890511Y-138207175D01*
X68830931Y-138377445D01*
X68830930Y-138377450D01*
X68810735Y-138556696D01*
X68810735Y-138556703D01*
X68830930Y-138735949D01*
X68830931Y-138735954D01*
X68890511Y-138906224D01*
X68937514Y-138981027D01*
X68956515Y-139048264D01*
X68936148Y-139115099D01*
X68882880Y-139160314D01*
X68832521Y-139171000D01*
X58295670Y-139171000D01*
X58295654Y-139170999D01*
X58288058Y-139170999D01*
X58129943Y-139170999D01*
X58053579Y-139191461D01*
X57977214Y-139211923D01*
X57977209Y-139211926D01*
X57840290Y-139290975D01*
X57840282Y-139290981D01*
X57348065Y-139783198D01*
X57286742Y-139816683D01*
X57274268Y-139818737D01*
X57187350Y-139828530D01*
X57017077Y-139888110D01*
X56870123Y-139980448D01*
X56802886Y-139999448D01*
X56736051Y-139979080D01*
X56716470Y-139963135D01*
X56553990Y-139800655D01*
X56553988Y-139800652D01*
X56435117Y-139681781D01*
X56435116Y-139681780D01*
X56348304Y-139631660D01*
X56348304Y-139631659D01*
X56348300Y-139631658D01*
X56298185Y-139602723D01*
X56145457Y-139561799D01*
X55987343Y-139561799D01*
X55979747Y-139561799D01*
X55979731Y-139561800D01*
X51471415Y-139561800D01*
X51404376Y-139542115D01*
X51358621Y-139489311D01*
X51348194Y-139423918D01*
X51351565Y-139394000D01*
X51336957Y-139264347D01*
X51331369Y-139214750D01*
X51331368Y-139214745D01*
X51309389Y-139151932D01*
X51271789Y-139044478D01*
X51175816Y-138891738D01*
X51048262Y-138764184D01*
X51003336Y-138735955D01*
X50895523Y-138668211D01*
X50725254Y-138608631D01*
X50725249Y-138608630D01*
X50546004Y-138588435D01*
X50545996Y-138588435D01*
X50366750Y-138608630D01*
X50366745Y-138608631D01*
X50196476Y-138668211D01*
X50043737Y-138764184D01*
X49916184Y-138891737D01*
X49820211Y-139044476D01*
X49760631Y-139214745D01*
X49760630Y-139214750D01*
X49740435Y-139393995D01*
X49740435Y-139393997D01*
X49740435Y-139394000D01*
X49743806Y-139423918D01*
X49731750Y-139492740D01*
X49684400Y-139544119D01*
X49620585Y-139561800D01*
X48374612Y-139561800D01*
X48307573Y-139542115D01*
X48297297Y-139534745D01*
X48294463Y-139532485D01*
X48294462Y-139532484D01*
X48208819Y-139478671D01*
X48141723Y-139436511D01*
X47971454Y-139376931D01*
X47971449Y-139376930D01*
X47792204Y-139356735D01*
X47792196Y-139356735D01*
X47612950Y-139376930D01*
X47612945Y-139376931D01*
X47442676Y-139436511D01*
X47289937Y-139532484D01*
X47162384Y-139660037D01*
X47066411Y-139812776D01*
X47006831Y-139983045D01*
X47006830Y-139983050D01*
X46986635Y-140162296D01*
X46986635Y-140162303D01*
X47006830Y-140341549D01*
X47006831Y-140341554D01*
X47066411Y-140511823D01*
X47142033Y-140632174D01*
X47162384Y-140664562D01*
X47289938Y-140792116D01*
X47442678Y-140888089D01*
X47556034Y-140927754D01*
X47612945Y-140947668D01*
X47612950Y-140947669D01*
X47792196Y-140967865D01*
X47792200Y-140967865D01*
X47792204Y-140967865D01*
X47971449Y-140947669D01*
X47971452Y-140947668D01*
X47971455Y-140947668D01*
X48141722Y-140888089D01*
X48294462Y-140792116D01*
X48294467Y-140792110D01*
X48297297Y-140789855D01*
X48299475Y-140788965D01*
X48300358Y-140788411D01*
X48300455Y-140788565D01*
X48361983Y-140763445D01*
X48374612Y-140762800D01*
X48499782Y-140762800D01*
X48566821Y-140782485D01*
X48612576Y-140835289D01*
X48622520Y-140904447D01*
X48616824Y-140927754D01*
X48557832Y-141096342D01*
X48557830Y-141096350D01*
X48537635Y-141275596D01*
X48537635Y-141275603D01*
X48557830Y-141454849D01*
X48557831Y-141454854D01*
X48617411Y-141625123D01*
X48704394Y-141763554D01*
X48713384Y-141777862D01*
X48840938Y-141905416D01*
X48993678Y-142001389D01*
X49034831Y-142015789D01*
X49163945Y-142060968D01*
X49163950Y-142060969D01*
X49343196Y-142081165D01*
X49343200Y-142081165D01*
X49343204Y-142081165D01*
X49522449Y-142060969D01*
X49522452Y-142060968D01*
X49522455Y-142060968D01*
X49692722Y-142001389D01*
X49845462Y-141905416D01*
X49973016Y-141777862D01*
X50068989Y-141625122D01*
X50128568Y-141454855D01*
X50134180Y-141405050D01*
X50148765Y-141275603D01*
X50148765Y-141275596D01*
X50128569Y-141096350D01*
X50128567Y-141096342D01*
X50069576Y-140927754D01*
X50066015Y-140857976D01*
X50100744Y-140797348D01*
X50162737Y-140765121D01*
X50186618Y-140762800D01*
X52777360Y-140762800D01*
X52844399Y-140782485D01*
X52890154Y-140835289D01*
X52900098Y-140904447D01*
X52871073Y-140968003D01*
X52865041Y-140974481D01*
X52757484Y-141082037D01*
X52661511Y-141234776D01*
X52601931Y-141405045D01*
X52601930Y-141405050D01*
X52581735Y-141584296D01*
X52581735Y-141584303D01*
X52601930Y-141763549D01*
X52601931Y-141763554D01*
X52661511Y-141933823D01*
X52713014Y-142015789D01*
X52757484Y-142086562D01*
X52885038Y-142214116D01*
X52975380Y-142270882D01*
X53037139Y-142309688D01*
X53037778Y-142310089D01*
X53163763Y-142354173D01*
X53208045Y-142369668D01*
X53208050Y-142369669D01*
X53387296Y-142389865D01*
X53387300Y-142389865D01*
X53387304Y-142389865D01*
X53566549Y-142369669D01*
X53566552Y-142369668D01*
X53566555Y-142369668D01*
X53736822Y-142310089D01*
X53858544Y-142233605D01*
X53924516Y-142214600D01*
X56936874Y-142214600D01*
X57003913Y-142234285D01*
X57049668Y-142287089D01*
X57059612Y-142356247D01*
X57030587Y-142419803D01*
X56971809Y-142457577D01*
X56964463Y-142459492D01*
X56960346Y-142460431D01*
X56790076Y-142520011D01*
X56637337Y-142615984D01*
X56509784Y-142743537D01*
X56413811Y-142896276D01*
X56354231Y-143066545D01*
X56354230Y-143066550D01*
X56334035Y-143245796D01*
X56334035Y-143245803D01*
X56354230Y-143425049D01*
X56354231Y-143425054D01*
X56413811Y-143595323D01*
X56476009Y-143694310D01*
X56509784Y-143748062D01*
X56637338Y-143875616D01*
X56711511Y-143922222D01*
X56783643Y-143967546D01*
X56790078Y-143971589D01*
X56939240Y-144023783D01*
X56960345Y-144031168D01*
X56960350Y-144031169D01*
X57139596Y-144051365D01*
X57139600Y-144051365D01*
X57139604Y-144051365D01*
X57318849Y-144031169D01*
X57318852Y-144031168D01*
X57318855Y-144031168D01*
X57489122Y-143971589D01*
X57641862Y-143875616D01*
X57641867Y-143875610D01*
X57644697Y-143873355D01*
X57646875Y-143872465D01*
X57647758Y-143871911D01*
X57647855Y-143872065D01*
X57709383Y-143846945D01*
X57722012Y-143846300D01*
X60017433Y-143846300D01*
X60084472Y-143865985D01*
X60130227Y-143918789D01*
X60140171Y-143987947D01*
X60111146Y-144051503D01*
X60083405Y-144075294D01*
X59979337Y-144140684D01*
X59851784Y-144268237D01*
X59755811Y-144420976D01*
X59696231Y-144591245D01*
X59696230Y-144591250D01*
X59676035Y-144770496D01*
X59676035Y-144770503D01*
X59696230Y-144949749D01*
X59696231Y-144949754D01*
X59755811Y-145120023D01*
X59838120Y-145251016D01*
X59851784Y-145272762D01*
X59979338Y-145400316D01*
X60132078Y-145496289D01*
X60302345Y-145555868D01*
X60389269Y-145565661D01*
X60453680Y-145592726D01*
X60463065Y-145601200D01*
X60741584Y-145879719D01*
X60775069Y-145941042D01*
X60770085Y-146010734D01*
X60728213Y-146066667D01*
X60662749Y-146091084D01*
X60653903Y-146091400D01*
X58726598Y-146091400D01*
X58659559Y-146071715D01*
X58638917Y-146055081D01*
X57910700Y-145326865D01*
X57877215Y-145265542D01*
X57875163Y-145253086D01*
X57865368Y-145166145D01*
X57805789Y-144995878D01*
X57709816Y-144843138D01*
X57582262Y-144715584D01*
X57556862Y-144699624D01*
X57429523Y-144619611D01*
X57259254Y-144560031D01*
X57259249Y-144560030D01*
X57080004Y-144539835D01*
X57079996Y-144539835D01*
X56900750Y-144560030D01*
X56900745Y-144560031D01*
X56730476Y-144619611D01*
X56577737Y-144715584D01*
X56450184Y-144843137D01*
X56354211Y-144995876D01*
X56294631Y-145166145D01*
X56294630Y-145166150D01*
X56274435Y-145345396D01*
X56274435Y-145345403D01*
X56294630Y-145524649D01*
X56294632Y-145524657D01*
X56318546Y-145592999D01*
X56322107Y-145662778D01*
X56289187Y-145721633D01*
X56235885Y-145774936D01*
X56139911Y-145927676D01*
X56080331Y-146097945D01*
X56080330Y-146097950D01*
X56060135Y-146277196D01*
X56060135Y-146277203D01*
X56080330Y-146456449D01*
X56080331Y-146456454D01*
X56139911Y-146626724D01*
X56186977Y-146701627D01*
X56205978Y-146768864D01*
X56185611Y-146835699D01*
X56132343Y-146880914D01*
X56081984Y-146891600D01*
X55293097Y-146891600D01*
X55226058Y-146871915D01*
X55205416Y-146855281D01*
X54922500Y-146572365D01*
X54889015Y-146511042D01*
X54886963Y-146498586D01*
X54877168Y-146411645D01*
X54817589Y-146241378D01*
X54721616Y-146088638D01*
X54594062Y-145961084D01*
X54441323Y-145865111D01*
X54271054Y-145805531D01*
X54271050Y-145805530D01*
X54119853Y-145788495D01*
X54055439Y-145761428D01*
X54015884Y-145703834D01*
X54010517Y-145679158D01*
X53992669Y-145520750D01*
X53992668Y-145520745D01*
X53984110Y-145496289D01*
X53933089Y-145350478D01*
X53929898Y-145345400D01*
X53862544Y-145238207D01*
X53837116Y-145197738D01*
X53709562Y-145070184D01*
X53680535Y-145051945D01*
X53556823Y-144974211D01*
X53386554Y-144914631D01*
X53386549Y-144914630D01*
X53207304Y-144894435D01*
X53207296Y-144894435D01*
X53028050Y-144914630D01*
X53028045Y-144914631D01*
X52857776Y-144974211D01*
X52705037Y-145070184D01*
X52577484Y-145197737D01*
X52481511Y-145350476D01*
X52421931Y-145520745D01*
X52421930Y-145520750D01*
X52401735Y-145699996D01*
X52401735Y-145700003D01*
X52421930Y-145879249D01*
X52421931Y-145879254D01*
X52481511Y-146049523D01*
X52513614Y-146100614D01*
X52577484Y-146202262D01*
X52705038Y-146329816D01*
X52783051Y-146378835D01*
X52815194Y-146399032D01*
X52857778Y-146425789D01*
X52985089Y-146470337D01*
X53028045Y-146485368D01*
X53028050Y-146485369D01*
X53179245Y-146502404D01*
X53243659Y-146529470D01*
X53283214Y-146587065D01*
X53288582Y-146611740D01*
X53306430Y-146770150D01*
X53306431Y-146770154D01*
X53366011Y-146940423D01*
X53447421Y-147069985D01*
X53461984Y-147093162D01*
X53589538Y-147220716D01*
X53742278Y-147316689D01*
X53912545Y-147376268D01*
X53999469Y-147386061D01*
X54063880Y-147413126D01*
X54073265Y-147421600D01*
X54508138Y-147856473D01*
X54508149Y-147856485D01*
X54512479Y-147860815D01*
X54512480Y-147860816D01*
X54624284Y-147972620D01*
X54696797Y-148014485D01*
X54743846Y-148041649D01*
X54768254Y-148055741D01*
X54767444Y-148057143D01*
X54814479Y-148095037D01*
X54836551Y-148161329D01*
X54819280Y-148229030D01*
X54768148Y-148276647D01*
X54753586Y-148282810D01*
X54659280Y-148315809D01*
X54506537Y-148411784D01*
X54378984Y-148539337D01*
X54283011Y-148692076D01*
X54223431Y-148862345D01*
X54223430Y-148862350D01*
X54203235Y-149041596D01*
X54203235Y-149041603D01*
X54223430Y-149220849D01*
X54223433Y-149220862D01*
X54238649Y-149264345D01*
X54242211Y-149334124D01*
X54207483Y-149394751D01*
X54145489Y-149426979D01*
X54121608Y-149429300D01*
X53472997Y-149429300D01*
X53405958Y-149409615D01*
X53385316Y-149392981D01*
X53215940Y-149223605D01*
X53182455Y-149162282D01*
X53187439Y-149092590D01*
X53229311Y-149036657D01*
X53289738Y-149012704D01*
X53346849Y-149006269D01*
X53346852Y-149006268D01*
X53346855Y-149006268D01*
X53517122Y-148946689D01*
X53669862Y-148850716D01*
X53797416Y-148723162D01*
X53893389Y-148570422D01*
X53952968Y-148400155D01*
X53953491Y-148395516D01*
X53973165Y-148220903D01*
X53973165Y-148220896D01*
X53952969Y-148041650D01*
X53952968Y-148041645D01*
X53929676Y-147975080D01*
X53893389Y-147871378D01*
X53886752Y-147860816D01*
X53837686Y-147782727D01*
X53797416Y-147718638D01*
X53669862Y-147591084D01*
X53647277Y-147576893D01*
X53517123Y-147495111D01*
X53346854Y-147435531D01*
X53346849Y-147435530D01*
X53167604Y-147415335D01*
X53167596Y-147415335D01*
X52988350Y-147435530D01*
X52988345Y-147435531D01*
X52818076Y-147495111D01*
X52665337Y-147591084D01*
X52537784Y-147718637D01*
X52441811Y-147871376D01*
X52382231Y-148041645D01*
X52382230Y-148041649D01*
X52375795Y-148098763D01*
X52348727Y-148163177D01*
X52291132Y-148202731D01*
X52221295Y-148204868D01*
X52164894Y-148172559D01*
X47926215Y-143933880D01*
X47892730Y-143872557D01*
X47897714Y-143802865D01*
X47939586Y-143746932D01*
X48005050Y-143722515D01*
X48027780Y-143722979D01*
X48202497Y-143742665D01*
X48202500Y-143742665D01*
X48202504Y-143742665D01*
X48381749Y-143722469D01*
X48381752Y-143722468D01*
X48381755Y-143722468D01*
X48552022Y-143662889D01*
X48695563Y-143572696D01*
X49343835Y-143572696D01*
X49343835Y-143572703D01*
X49364030Y-143751949D01*
X49364031Y-143751954D01*
X49423611Y-143922223D01*
X49487426Y-144023783D01*
X49519584Y-144074962D01*
X49647138Y-144202516D01*
X49691881Y-144230630D01*
X49792714Y-144293988D01*
X49799878Y-144298489D01*
X49895430Y-144331924D01*
X49970145Y-144358068D01*
X49970150Y-144358069D01*
X50149396Y-144378265D01*
X50149400Y-144378265D01*
X50149404Y-144378265D01*
X50328649Y-144358069D01*
X50328652Y-144358068D01*
X50328655Y-144358068D01*
X50498922Y-144298489D01*
X50651662Y-144202516D01*
X50779216Y-144074962D01*
X50875189Y-143922222D01*
X50934768Y-143751955D01*
X50938085Y-143722515D01*
X50954965Y-143572703D01*
X50954965Y-143572696D01*
X50954458Y-143568196D01*
X51313935Y-143568196D01*
X51313935Y-143568203D01*
X51334130Y-143747449D01*
X51334131Y-143747454D01*
X51393711Y-143917723D01*
X51477771Y-144051503D01*
X51489684Y-144070462D01*
X51617238Y-144198016D01*
X51643786Y-144214697D01*
X51731091Y-144269555D01*
X51769978Y-144293989D01*
X51878390Y-144331924D01*
X51940245Y-144353568D01*
X51940250Y-144353569D01*
X52119496Y-144373765D01*
X52119500Y-144373765D01*
X52119504Y-144373765D01*
X52298749Y-144353569D01*
X52298752Y-144353568D01*
X52298755Y-144353568D01*
X52469022Y-144293989D01*
X52621762Y-144198016D01*
X52749316Y-144070462D01*
X52845289Y-143917722D01*
X52904868Y-143747455D01*
X52907678Y-143722515D01*
X52925065Y-143568203D01*
X52925065Y-143568196D01*
X52904869Y-143388950D01*
X52904868Y-143388945D01*
X52871112Y-143292476D01*
X52845289Y-143218678D01*
X52843046Y-143215109D01*
X52795216Y-143138988D01*
X52749316Y-143065938D01*
X52621762Y-142938384D01*
X52535147Y-142883960D01*
X52469023Y-142842411D01*
X52298754Y-142782831D01*
X52298749Y-142782830D01*
X52119504Y-142762635D01*
X52119496Y-142762635D01*
X51940250Y-142782830D01*
X51940245Y-142782831D01*
X51769976Y-142842411D01*
X51617237Y-142938384D01*
X51489684Y-143065937D01*
X51393711Y-143218676D01*
X51334131Y-143388945D01*
X51334130Y-143388950D01*
X51313935Y-143568196D01*
X50954458Y-143568196D01*
X50934769Y-143393450D01*
X50934768Y-143393445D01*
X50918873Y-143348020D01*
X50875189Y-143223178D01*
X50872361Y-143218678D01*
X50815636Y-143128400D01*
X50779216Y-143070438D01*
X50651662Y-142942884D01*
X50642457Y-142937100D01*
X50498923Y-142846911D01*
X50328654Y-142787331D01*
X50328649Y-142787330D01*
X50149404Y-142767135D01*
X50149396Y-142767135D01*
X49970150Y-142787330D01*
X49970145Y-142787331D01*
X49799876Y-142846911D01*
X49647137Y-142942884D01*
X49519584Y-143070437D01*
X49423611Y-143223176D01*
X49364031Y-143393445D01*
X49364030Y-143393450D01*
X49343835Y-143572696D01*
X48695563Y-143572696D01*
X48704762Y-143566916D01*
X48832316Y-143439362D01*
X48928289Y-143286622D01*
X48987868Y-143116355D01*
X48988379Y-143111819D01*
X49008065Y-142937103D01*
X49008065Y-142937096D01*
X48987869Y-142757850D01*
X48987868Y-142757845D01*
X48978144Y-142730055D01*
X48928289Y-142587578D01*
X48832316Y-142434838D01*
X48704762Y-142307284D01*
X48695388Y-142301394D01*
X48552023Y-142211311D01*
X48381754Y-142151731D01*
X48381749Y-142151730D01*
X48202504Y-142131535D01*
X48202496Y-142131535D01*
X48023250Y-142151730D01*
X48023245Y-142151731D01*
X47852976Y-142211311D01*
X47700237Y-142307284D01*
X47572684Y-142434837D01*
X47476711Y-142587576D01*
X47417131Y-142757845D01*
X47417130Y-142757850D01*
X47396935Y-142937096D01*
X47396935Y-142937103D01*
X47416620Y-143111819D01*
X47404565Y-143180641D01*
X47357216Y-143232020D01*
X47289606Y-143249644D01*
X47223200Y-143227917D01*
X47205719Y-143213383D01*
X47153817Y-143161481D01*
X47153809Y-143161475D01*
X47050794Y-143102000D01*
X47050791Y-143101999D01*
X47016886Y-143082423D01*
X47016887Y-143082423D01*
X46955359Y-143065937D01*
X46864157Y-143041499D01*
X46706043Y-143041499D01*
X46698447Y-143041499D01*
X46698431Y-143041500D01*
X45539612Y-143041500D01*
X45472573Y-143021815D01*
X45462297Y-143014445D01*
X45459463Y-143012185D01*
X45459462Y-143012184D01*
X45349172Y-142942884D01*
X45306723Y-142916211D01*
X45136454Y-142856631D01*
X45136449Y-142856630D01*
X44957204Y-142836435D01*
X44957196Y-142836435D01*
X44777950Y-142856630D01*
X44777945Y-142856631D01*
X44607676Y-142916211D01*
X44454937Y-143012184D01*
X44327384Y-143139737D01*
X44231411Y-143292476D01*
X44171831Y-143462745D01*
X44171830Y-143462750D01*
X44151635Y-143641996D01*
X44151635Y-143642003D01*
X44171830Y-143821249D01*
X44171831Y-143821254D01*
X44231411Y-143991523D01*
X44281012Y-144070462D01*
X44327384Y-144144262D01*
X44454938Y-144271816D01*
X44497388Y-144298489D01*
X44606275Y-144366908D01*
X44607678Y-144367789D01*
X44777945Y-144427368D01*
X44777950Y-144427369D01*
X44957196Y-144447565D01*
X44957200Y-144447565D01*
X44957204Y-144447565D01*
X45136449Y-144427369D01*
X45136452Y-144427368D01*
X45136455Y-144427368D01*
X45306722Y-144367789D01*
X45459462Y-144271816D01*
X45459467Y-144271810D01*
X45462297Y-144269555D01*
X45464475Y-144268665D01*
X45465358Y-144268111D01*
X45465455Y-144268265D01*
X45526983Y-144243145D01*
X45539612Y-144242500D01*
X46485003Y-144242500D01*
X46552042Y-144262185D01*
X46572684Y-144278819D01*
X48394479Y-146100614D01*
X48427964Y-146161937D01*
X48422980Y-146231629D01*
X48381108Y-146287562D01*
X48372771Y-146293288D01*
X48298139Y-146340182D01*
X48170584Y-146467737D01*
X48074611Y-146620476D01*
X48015031Y-146790745D01*
X48015030Y-146790750D01*
X47994835Y-146969996D01*
X47994835Y-146970003D01*
X48015030Y-147149249D01*
X48015031Y-147149254D01*
X48074611Y-147319523D01*
X48123831Y-147397855D01*
X48170584Y-147472262D01*
X48298138Y-147599816D01*
X48367532Y-147643419D01*
X48432892Y-147684488D01*
X48450878Y-147695789D01*
X48512959Y-147717512D01*
X48621145Y-147755368D01*
X48621150Y-147755369D01*
X48800396Y-147775565D01*
X48800400Y-147775565D01*
X48800404Y-147775565D01*
X48979649Y-147755369D01*
X48979652Y-147755368D01*
X48979655Y-147755368D01*
X49149922Y-147695789D01*
X49302662Y-147599816D01*
X49430216Y-147472262D01*
X49477110Y-147397629D01*
X49529444Y-147351338D01*
X49598497Y-147340689D01*
X49662346Y-147369064D01*
X49669785Y-147375920D01*
X51017186Y-148723321D01*
X51050671Y-148784644D01*
X51045687Y-148854336D01*
X51003815Y-148910269D01*
X50938351Y-148934686D01*
X50915622Y-148934222D01*
X50832304Y-148924835D01*
X50832296Y-148924835D01*
X50653050Y-148945030D01*
X50653045Y-148945031D01*
X50482776Y-149004611D01*
X50330037Y-149100584D01*
X50202484Y-149228137D01*
X50106511Y-149380876D01*
X50046931Y-149551145D01*
X50046930Y-149551150D01*
X50026735Y-149730396D01*
X50026735Y-149730403D01*
X50046930Y-149909649D01*
X50046931Y-149909654D01*
X50106511Y-150079923D01*
X50197348Y-150224488D01*
X50202484Y-150232662D01*
X50330038Y-150360216D01*
X50386167Y-150395484D01*
X50478138Y-150453274D01*
X50482778Y-150456189D01*
X50619300Y-150503960D01*
X50653045Y-150515768D01*
X50653050Y-150515769D01*
X50832296Y-150535965D01*
X50832300Y-150535965D01*
X50832304Y-150535965D01*
X51011549Y-150515769D01*
X51011552Y-150515768D01*
X51011555Y-150515768D01*
X51181822Y-150456189D01*
X51334562Y-150360216D01*
X51462116Y-150232662D01*
X51558089Y-150079922D01*
X51617668Y-149909655D01*
X51628702Y-149811724D01*
X51637865Y-149730403D01*
X51637865Y-149730397D01*
X51628477Y-149647078D01*
X51640531Y-149578256D01*
X51687880Y-149526876D01*
X51755491Y-149509252D01*
X51821896Y-149530978D01*
X51839378Y-149545513D01*
X52688039Y-150394174D01*
X52688049Y-150394185D01*
X52692379Y-150398515D01*
X52692380Y-150398516D01*
X52804184Y-150510320D01*
X52804186Y-150510321D01*
X52804190Y-150510324D01*
X52908286Y-150570423D01*
X52941116Y-150589377D01*
X53045248Y-150617279D01*
X53093842Y-150630300D01*
X53093843Y-150630300D01*
X57850103Y-150630300D01*
X57917142Y-150649985D01*
X57962897Y-150702789D01*
X57972841Y-150771947D01*
X57943816Y-150835503D01*
X57937784Y-150841981D01*
X56918124Y-151861639D01*
X56856801Y-151895124D01*
X56787109Y-151890140D01*
X56756179Y-151872119D01*
X56755836Y-151872610D01*
X56557834Y-151733967D01*
X56557830Y-151733965D01*
X56531039Y-151721472D01*
X56343663Y-151634097D01*
X56343659Y-151634096D01*
X56343655Y-151634094D01*
X56115413Y-151572938D01*
X56115403Y-151572936D01*
X55880001Y-151552341D01*
X55879999Y-151552341D01*
X55644596Y-151572936D01*
X55644586Y-151572938D01*
X55416344Y-151634094D01*
X55416335Y-151634098D01*
X55202171Y-151733964D01*
X55202169Y-151733965D01*
X55008597Y-151869505D01*
X54841505Y-152036597D01*
X54711575Y-152222158D01*
X54656998Y-152265783D01*
X54587500Y-152272977D01*
X54525145Y-152241454D01*
X54508425Y-152222158D01*
X54378494Y-152036597D01*
X54211402Y-151869506D01*
X54211395Y-151869501D01*
X54017834Y-151733967D01*
X54017830Y-151733965D01*
X53991039Y-151721472D01*
X53803663Y-151634097D01*
X53803659Y-151634096D01*
X53803655Y-151634094D01*
X53575413Y-151572938D01*
X53575403Y-151572936D01*
X53340001Y-151552341D01*
X53339999Y-151552341D01*
X53104596Y-151572936D01*
X53104586Y-151572938D01*
X52876344Y-151634094D01*
X52876335Y-151634098D01*
X52662171Y-151733964D01*
X52662169Y-151733965D01*
X52468600Y-151869503D01*
X52346673Y-151991430D01*
X52285350Y-152024914D01*
X52215658Y-152019930D01*
X52159725Y-151978058D01*
X52142810Y-151947081D01*
X52093797Y-151815671D01*
X52093793Y-151815664D01*
X52007547Y-151700455D01*
X52007544Y-151700452D01*
X51892335Y-151614206D01*
X51892328Y-151614202D01*
X51757482Y-151563908D01*
X51757483Y-151563908D01*
X51697883Y-151557501D01*
X51697881Y-151557500D01*
X51697873Y-151557500D01*
X51697864Y-151557500D01*
X49902129Y-151557500D01*
X49902123Y-151557501D01*
X49842516Y-151563908D01*
X49707671Y-151614202D01*
X49707664Y-151614206D01*
X49592455Y-151700452D01*
X49592452Y-151700455D01*
X49506206Y-151815664D01*
X49506202Y-151815671D01*
X49455908Y-151950517D01*
X49449501Y-152010116D01*
X49449500Y-152010135D01*
X49449500Y-153805870D01*
X49449501Y-153805876D01*
X49455908Y-153865483D01*
X49506202Y-154000328D01*
X49506206Y-154000335D01*
X49592452Y-154115544D01*
X49592455Y-154115547D01*
X49707664Y-154201793D01*
X49707671Y-154201797D01*
X49839081Y-154250810D01*
X49895015Y-154292681D01*
X49919432Y-154358145D01*
X49904580Y-154426418D01*
X49883430Y-154454673D01*
X49761503Y-154576600D01*
X49625965Y-154770169D01*
X49625964Y-154770171D01*
X49526098Y-154984335D01*
X49526094Y-154984344D01*
X49464938Y-155212586D01*
X49464936Y-155212596D01*
X49444341Y-155447999D01*
X49444341Y-155448000D01*
X49464936Y-155683403D01*
X49464938Y-155683413D01*
X49526135Y-155911807D01*
X49524472Y-155981657D01*
X49485309Y-156039519D01*
X49421080Y-156067023D01*
X49406360Y-156067900D01*
X49279169Y-156067900D01*
X49279153Y-156067899D01*
X49271557Y-156067899D01*
X49113443Y-156067899D01*
X49016143Y-156093971D01*
X48960710Y-156108824D01*
X48960709Y-156108825D01*
X48910596Y-156137759D01*
X48910595Y-156137760D01*
X48904036Y-156141547D01*
X48823785Y-156187879D01*
X48823782Y-156187881D01*
X48484233Y-156527431D01*
X48422910Y-156560916D01*
X48353218Y-156555932D01*
X48297285Y-156514060D01*
X48273332Y-156453633D01*
X48254169Y-156283550D01*
X48254168Y-156283545D01*
X48230560Y-156216078D01*
X48194589Y-156113278D01*
X48191790Y-156108824D01*
X48148243Y-156039519D01*
X48098616Y-155960538D01*
X47971062Y-155832984D01*
X47818323Y-155737011D01*
X47648054Y-155677431D01*
X47648049Y-155677430D01*
X47468804Y-155657235D01*
X47468796Y-155657235D01*
X47289550Y-155677430D01*
X47289545Y-155677431D01*
X47119276Y-155737011D01*
X46966537Y-155832984D01*
X46838984Y-155960537D01*
X46743011Y-156113276D01*
X46683431Y-156283545D01*
X46683430Y-156283550D01*
X46663235Y-156462796D01*
X46663235Y-156462803D01*
X46666842Y-156494817D01*
X46654788Y-156563638D01*
X46607438Y-156615018D01*
X46543622Y-156632700D01*
X42945031Y-156632700D01*
X42877992Y-156613015D01*
X42832237Y-156560211D01*
X42822293Y-156491053D01*
X42827100Y-156470382D01*
X42861110Y-156365710D01*
X42896731Y-156256079D01*
X42955688Y-155947015D01*
X42958190Y-155907246D01*
X42975444Y-155633005D01*
X42975444Y-155632994D01*
X42955689Y-155318995D01*
X42955688Y-155318988D01*
X42955688Y-155318985D01*
X42896731Y-155009921D01*
X42799503Y-154710685D01*
X42795483Y-154702143D01*
X42736405Y-154576596D01*
X42665537Y-154425993D01*
X42612169Y-154341898D01*
X42496948Y-154160338D01*
X42496945Y-154160334D01*
X42296393Y-153917909D01*
X42296391Y-153917907D01*
X42198212Y-153825710D01*
X42067030Y-153702522D01*
X42067027Y-153702520D01*
X42067021Y-153702515D01*
X41812495Y-153517591D01*
X41812488Y-153517586D01*
X41812484Y-153517584D01*
X41536766Y-153366006D01*
X41536763Y-153366004D01*
X41536758Y-153366002D01*
X41536757Y-153366001D01*
X41244228Y-153250181D01*
X41244225Y-153250180D01*
X40939476Y-153171934D01*
X40939463Y-153171932D01*
X40627329Y-153132500D01*
X40627318Y-153132500D01*
X40312682Y-153132500D01*
X40312670Y-153132500D01*
X40000536Y-153171932D01*
X40000523Y-153171934D01*
X39695774Y-153250180D01*
X39695771Y-153250181D01*
X39403242Y-153366001D01*
X39403241Y-153366002D01*
X39127516Y-153517584D01*
X39127504Y-153517591D01*
X38872978Y-153702515D01*
X38872968Y-153702523D01*
X38643608Y-153917907D01*
X38643606Y-153917909D01*
X38443054Y-154160334D01*
X38443051Y-154160338D01*
X38274464Y-154425990D01*
X38274461Y-154425996D01*
X38140499Y-154710678D01*
X38140497Y-154710683D01*
X38043270Y-155009916D01*
X37984311Y-155318988D01*
X37984310Y-155318995D01*
X37964556Y-155632994D01*
X37964556Y-155633005D01*
X37984310Y-155947004D01*
X37984311Y-155947011D01*
X37996474Y-156010772D01*
X38035638Y-156216078D01*
X38043270Y-156256083D01*
X38140497Y-156555316D01*
X38140499Y-156555321D01*
X38274461Y-156840003D01*
X38274464Y-156840009D01*
X38443051Y-157105661D01*
X38443054Y-157105665D01*
X38643606Y-157348090D01*
X38643608Y-157348092D01*
X38643610Y-157348094D01*
X38783029Y-157479017D01*
X38872968Y-157563476D01*
X38872978Y-157563484D01*
X39127504Y-157748408D01*
X39127509Y-157748410D01*
X39127516Y-157748416D01*
X39403234Y-157899994D01*
X39403239Y-157899996D01*
X39403241Y-157899997D01*
X39403242Y-157899998D01*
X39695771Y-158015818D01*
X39695774Y-158015819D01*
X39951854Y-158081569D01*
X40000527Y-158094066D01*
X40025858Y-158097266D01*
X40312670Y-158133499D01*
X40312679Y-158133499D01*
X40312682Y-158133500D01*
X40312684Y-158133500D01*
X40380102Y-158133500D01*
X40447141Y-158153185D01*
X40492896Y-158205989D01*
X40502840Y-158275147D01*
X40473815Y-158338703D01*
X40467783Y-158345181D01*
X36340681Y-162472282D01*
X36340679Y-162472285D01*
X36334007Y-162483842D01*
X36298640Y-162545100D01*
X36269687Y-162595248D01*
X36265061Y-162603261D01*
X36261623Y-162609215D01*
X36220699Y-162761943D01*
X36220699Y-162761945D01*
X36220699Y-162930046D01*
X36220700Y-162930059D01*
X36220700Y-166672530D01*
X36220699Y-166672548D01*
X36220699Y-166838254D01*
X36220698Y-166838254D01*
X36261623Y-166990985D01*
X36279953Y-167022734D01*
X36282457Y-167027070D01*
X36311802Y-167077897D01*
X36340679Y-167127914D01*
X36340681Y-167127917D01*
X36459549Y-167246785D01*
X36459555Y-167246790D01*
X36638058Y-167425293D01*
X36671543Y-167486616D01*
X36670152Y-167545067D01*
X36644366Y-167641302D01*
X36644364Y-167641313D01*
X36624532Y-167867998D01*
X36624532Y-167868001D01*
X36644364Y-168094686D01*
X36644366Y-168094697D01*
X36703258Y-168314488D01*
X36703261Y-168314497D01*
X36799431Y-168520732D01*
X36799432Y-168520734D01*
X36929954Y-168707141D01*
X37090859Y-168868046D01*
X37152811Y-168911425D01*
X37196436Y-168966002D01*
X37203630Y-169035500D01*
X37172107Y-169097855D01*
X37152811Y-169114575D01*
X37090859Y-169157953D01*
X36929954Y-169318858D01*
X36799432Y-169505265D01*
X36799431Y-169505267D01*
X36703261Y-169711502D01*
X36703258Y-169711511D01*
X36644366Y-169931302D01*
X36644364Y-169931313D01*
X36624532Y-170157998D01*
X36624532Y-170158001D01*
X36644364Y-170384686D01*
X36644366Y-170384697D01*
X36703258Y-170604488D01*
X36703261Y-170604497D01*
X36799431Y-170810732D01*
X36799432Y-170810734D01*
X36929954Y-170997141D01*
X37090859Y-171158046D01*
X37152811Y-171201425D01*
X37196436Y-171256002D01*
X37203630Y-171325500D01*
X37172107Y-171387855D01*
X37152811Y-171404575D01*
X37090859Y-171447953D01*
X36929954Y-171608858D01*
X36799432Y-171795265D01*
X36799431Y-171795267D01*
X36703261Y-172001502D01*
X36703258Y-172001511D01*
X36644366Y-172221302D01*
X36644364Y-172221313D01*
X36624532Y-172447998D01*
X36624532Y-172448001D01*
X36644364Y-172674686D01*
X36644366Y-172674697D01*
X36703258Y-172894488D01*
X36703261Y-172894497D01*
X36799431Y-173100732D01*
X36799432Y-173100734D01*
X36929954Y-173287141D01*
X37090858Y-173448045D01*
X37090861Y-173448047D01*
X37277266Y-173578568D01*
X37483504Y-173674739D01*
X37703308Y-173733635D01*
X37842149Y-173745782D01*
X37929998Y-173753468D01*
X37930000Y-173753468D01*
X37930002Y-173753468D01*
X37986807Y-173748498D01*
X38156692Y-173733635D01*
X38376496Y-173674739D01*
X38441965Y-173644209D01*
X38511041Y-173633717D01*
X38574825Y-173662236D01*
X38613066Y-173720712D01*
X38617898Y-173745782D01*
X38624364Y-173819687D01*
X38624366Y-173819697D01*
X38683258Y-174039488D01*
X38683261Y-174039497D01*
X38779431Y-174245732D01*
X38779432Y-174245734D01*
X38909954Y-174432141D01*
X39070858Y-174593045D01*
X39075491Y-174596289D01*
X39257266Y-174723568D01*
X39463504Y-174819739D01*
X39463509Y-174819740D01*
X39463511Y-174819741D01*
X39498582Y-174829138D01*
X39683308Y-174878635D01*
X39845230Y-174892801D01*
X39909998Y-174898468D01*
X39910000Y-174898468D01*
X39910002Y-174898468D01*
X39966673Y-174893509D01*
X40136692Y-174878635D01*
X40356496Y-174819739D01*
X40562734Y-174723568D01*
X40749139Y-174593047D01*
X40910047Y-174432139D01*
X41040568Y-174245734D01*
X41136739Y-174039496D01*
X41190085Y-173840406D01*
X41226450Y-173780745D01*
X41289297Y-173750216D01*
X41309860Y-173748499D01*
X42737871Y-173748499D01*
X42737872Y-173748499D01*
X42797483Y-173742091D01*
X42932331Y-173691796D01*
X43047546Y-173605546D01*
X43133796Y-173490331D01*
X43184091Y-173355483D01*
X43190500Y-173295873D01*
X43190499Y-171600128D01*
X43184091Y-171540517D01*
X43179580Y-171528423D01*
X43133797Y-171405671D01*
X43133793Y-171405664D01*
X43047547Y-171290455D01*
X43047544Y-171290452D01*
X42932335Y-171204206D01*
X42932323Y-171204199D01*
X42931498Y-171203892D01*
X42930793Y-171203364D01*
X42924546Y-171199953D01*
X42925036Y-171199054D01*
X42875566Y-171162019D01*
X42851151Y-171096554D01*
X42866005Y-171028282D01*
X42887154Y-171000031D01*
X42890047Y-170997139D01*
X43020568Y-170810734D01*
X43113415Y-170611623D01*
X43159585Y-170559187D01*
X43226779Y-170540035D01*
X43293660Y-170560251D01*
X43338994Y-170613416D01*
X43349015Y-170650147D01*
X43361330Y-170759450D01*
X43361331Y-170759454D01*
X43420911Y-170929723D01*
X43488832Y-171037818D01*
X43516884Y-171082462D01*
X43644438Y-171210016D01*
X43797178Y-171305989D01*
X43967445Y-171365568D01*
X44054369Y-171375361D01*
X44118780Y-171402426D01*
X44128165Y-171410900D01*
X51512239Y-178794974D01*
X51512249Y-178794985D01*
X51516579Y-178799315D01*
X51516580Y-178799316D01*
X51628384Y-178911120D01*
X51708797Y-178957546D01*
X51708798Y-178957547D01*
X51765309Y-178990174D01*
X51765310Y-178990174D01*
X51765315Y-178990177D01*
X51918043Y-179031100D01*
X52076157Y-179031100D01*
X60980503Y-179031100D01*
X61047542Y-179050785D01*
X61068184Y-179067419D01*
X62588064Y-180587299D01*
X62621549Y-180648622D01*
X62616565Y-180718314D01*
X62574693Y-180774247D01*
X62559401Y-180784034D01*
X62446561Y-180845100D01*
X62446553Y-180845105D01*
X62268155Y-180983959D01*
X62268150Y-180983963D01*
X62115050Y-181150272D01*
X62115042Y-181150283D01*
X61991398Y-181339533D01*
X61900588Y-181546560D01*
X61845092Y-181765710D01*
X61826425Y-181990993D01*
X61826425Y-181991006D01*
X61845092Y-182216289D01*
X61900588Y-182435439D01*
X61991398Y-182642466D01*
X62115042Y-182831716D01*
X62115050Y-182831727D01*
X62268150Y-182998036D01*
X62268154Y-182998040D01*
X62446551Y-183136893D01*
X62645369Y-183244488D01*
X62645372Y-183244489D01*
X62859182Y-183317890D01*
X62859184Y-183317890D01*
X62859186Y-183317891D01*
X63082167Y-183355100D01*
X63082168Y-183355100D01*
X63308231Y-183355100D01*
X63308233Y-183355100D01*
X63388580Y-183341692D01*
X63457943Y-183350074D01*
X63511765Y-183394626D01*
X63513966Y-183398004D01*
X63553720Y-183461272D01*
X63595184Y-183527262D01*
X63675291Y-183607369D01*
X63708776Y-183668692D01*
X63703792Y-183738384D01*
X63661920Y-183794317D01*
X63596456Y-183818734D01*
X63587536Y-183819050D01*
X31045598Y-183799653D01*
X30978570Y-183779928D01*
X30958149Y-183763492D01*
X29599477Y-182409703D01*
X29565881Y-182348440D01*
X29563000Y-182321864D01*
X29563000Y-180632994D01*
X37964556Y-180632994D01*
X37964556Y-180633005D01*
X37984310Y-180947004D01*
X37984311Y-180947011D01*
X37998219Y-181019917D01*
X38039705Y-181237398D01*
X38043270Y-181256083D01*
X38140497Y-181555316D01*
X38140499Y-181555321D01*
X38274461Y-181840003D01*
X38274464Y-181840009D01*
X38443051Y-182105661D01*
X38443054Y-182105665D01*
X38643606Y-182348090D01*
X38643608Y-182348092D01*
X38643610Y-182348094D01*
X38872370Y-182562914D01*
X38872968Y-182563476D01*
X38872978Y-182563484D01*
X39127504Y-182748408D01*
X39127509Y-182748410D01*
X39127516Y-182748416D01*
X39403234Y-182899994D01*
X39403239Y-182899996D01*
X39403241Y-182899997D01*
X39403242Y-182899998D01*
X39695771Y-183015818D01*
X39695774Y-183015819D01*
X40000523Y-183094065D01*
X40000527Y-183094066D01*
X40066010Y-183102338D01*
X40312670Y-183133499D01*
X40312679Y-183133499D01*
X40312682Y-183133500D01*
X40312684Y-183133500D01*
X40627316Y-183133500D01*
X40627318Y-183133500D01*
X40627321Y-183133499D01*
X40627329Y-183133499D01*
X40813593Y-183109968D01*
X40939473Y-183094066D01*
X41244225Y-183015819D01*
X41289140Y-182998036D01*
X41536757Y-182899998D01*
X41536758Y-182899997D01*
X41536756Y-182899997D01*
X41536766Y-182899994D01*
X41812484Y-182748416D01*
X42067030Y-182563478D01*
X42296390Y-182348094D01*
X42496947Y-182105663D01*
X42665537Y-181840007D01*
X42799503Y-181555315D01*
X42896731Y-181256079D01*
X42955688Y-180947015D01*
X42955689Y-180947004D01*
X42975444Y-180633005D01*
X42975444Y-180632994D01*
X42963751Y-180447140D01*
X47414531Y-180447140D01*
X47441450Y-180582467D01*
X47441453Y-180582477D01*
X47494253Y-180709949D01*
X47494260Y-180709962D01*
X47570917Y-180824686D01*
X47570920Y-180824690D01*
X47668486Y-180922256D01*
X47668490Y-180922259D01*
X47783214Y-180998916D01*
X47783227Y-180998923D01*
X47833912Y-181019917D01*
X47910704Y-181051725D01*
X47910708Y-181051725D01*
X47910709Y-181051726D01*
X48046036Y-181078645D01*
X48046039Y-181078645D01*
X48184027Y-181078645D01*
X48286185Y-181058324D01*
X48319360Y-181051725D01*
X48446843Y-180998920D01*
X48561574Y-180922259D01*
X48659146Y-180824687D01*
X48735807Y-180709956D01*
X48788612Y-180582473D01*
X48815532Y-180447140D01*
X55414531Y-180447140D01*
X55441450Y-180582467D01*
X55441453Y-180582477D01*
X55494253Y-180709949D01*
X55494260Y-180709962D01*
X55570917Y-180824686D01*
X55570920Y-180824690D01*
X55668486Y-180922256D01*
X55668490Y-180922259D01*
X55783214Y-180998916D01*
X55783227Y-180998923D01*
X55833912Y-181019917D01*
X55910704Y-181051725D01*
X55910708Y-181051725D01*
X55910709Y-181051726D01*
X56046036Y-181078645D01*
X56046039Y-181078645D01*
X56184027Y-181078645D01*
X56286185Y-181058324D01*
X56319360Y-181051725D01*
X56446843Y-180998920D01*
X56561574Y-180922259D01*
X56659146Y-180824687D01*
X56735807Y-180709956D01*
X56788612Y-180582473D01*
X56815532Y-180447138D01*
X56815532Y-180309152D01*
X56815532Y-180309149D01*
X56788613Y-180173822D01*
X56788612Y-180173821D01*
X56788612Y-180173817D01*
X56769516Y-180127715D01*
X56735808Y-180046336D01*
X56735803Y-180046327D01*
X56659146Y-179931603D01*
X56659143Y-179931599D01*
X56561577Y-179834033D01*
X56561573Y-179834030D01*
X56446849Y-179757373D01*
X56446836Y-179757366D01*
X56319364Y-179704566D01*
X56319354Y-179704563D01*
X56184027Y-179677645D01*
X56184025Y-179677645D01*
X56046039Y-179677645D01*
X56046037Y-179677645D01*
X55910709Y-179704563D01*
X55910699Y-179704566D01*
X55783227Y-179757366D01*
X55783214Y-179757373D01*
X55668490Y-179834030D01*
X55668486Y-179834033D01*
X55570920Y-179931599D01*
X55570917Y-179931603D01*
X55494260Y-180046327D01*
X55494256Y-180046336D01*
X55441453Y-180173812D01*
X55441450Y-180173822D01*
X55414532Y-180309149D01*
X55414532Y-180309152D01*
X55414532Y-180447138D01*
X55414532Y-180447140D01*
X55414531Y-180447140D01*
X48815532Y-180447140D01*
X48815532Y-180447138D01*
X48815532Y-180309152D01*
X48815532Y-180309149D01*
X48788613Y-180173822D01*
X48788612Y-180173821D01*
X48788612Y-180173817D01*
X48769516Y-180127715D01*
X48735808Y-180046336D01*
X48735803Y-180046327D01*
X48659146Y-179931603D01*
X48659143Y-179931599D01*
X48561577Y-179834033D01*
X48561573Y-179834030D01*
X48446849Y-179757373D01*
X48446836Y-179757366D01*
X48319364Y-179704566D01*
X48319354Y-179704563D01*
X48184027Y-179677645D01*
X48184025Y-179677645D01*
X48046039Y-179677645D01*
X48046037Y-179677645D01*
X47910709Y-179704563D01*
X47910699Y-179704566D01*
X47783227Y-179757366D01*
X47783214Y-179757373D01*
X47668490Y-179834030D01*
X47668486Y-179834033D01*
X47570920Y-179931599D01*
X47570917Y-179931603D01*
X47494260Y-180046327D01*
X47494256Y-180046336D01*
X47441453Y-180173812D01*
X47441450Y-180173822D01*
X47414532Y-180309149D01*
X47414532Y-180309152D01*
X47414532Y-180447138D01*
X47414532Y-180447140D01*
X47414531Y-180447140D01*
X42963751Y-180447140D01*
X42955689Y-180318995D01*
X42955688Y-180318988D01*
X42955688Y-180318985D01*
X42896731Y-180009921D01*
X42799503Y-179710685D01*
X42665537Y-179425993D01*
X42598272Y-179320000D01*
X42496948Y-179160338D01*
X42496945Y-179160334D01*
X42296393Y-178917909D01*
X42296391Y-178917907D01*
X42067031Y-178702523D01*
X42067021Y-178702515D01*
X41812495Y-178517591D01*
X41812488Y-178517586D01*
X41812484Y-178517584D01*
X41536766Y-178366006D01*
X41536763Y-178366004D01*
X41536758Y-178366002D01*
X41536757Y-178366001D01*
X41244228Y-178250181D01*
X41244225Y-178250180D01*
X40939476Y-178171934D01*
X40939463Y-178171932D01*
X40627329Y-178132500D01*
X40627318Y-178132500D01*
X40312682Y-178132500D01*
X40312670Y-178132500D01*
X40000536Y-178171932D01*
X40000523Y-178171934D01*
X39695774Y-178250180D01*
X39695771Y-178250181D01*
X39403242Y-178366001D01*
X39403241Y-178366002D01*
X39127516Y-178517584D01*
X39127504Y-178517591D01*
X38872978Y-178702515D01*
X38872968Y-178702523D01*
X38643608Y-178917907D01*
X38643606Y-178917909D01*
X38443054Y-179160334D01*
X38443051Y-179160338D01*
X38274464Y-179425990D01*
X38274461Y-179425996D01*
X38140499Y-179710678D01*
X38140497Y-179710683D01*
X38043270Y-180009916D01*
X37984311Y-180318988D01*
X37984310Y-180318995D01*
X37964556Y-180632994D01*
X29563000Y-180632994D01*
X29563000Y-149571992D01*
X34228971Y-149571992D01*
X34228971Y-149572007D01*
X34248264Y-149866363D01*
X34248265Y-149866373D01*
X34248266Y-149866380D01*
X34298212Y-150117481D01*
X34305818Y-150155716D01*
X34305821Y-150155730D01*
X34400649Y-150435080D01*
X34531125Y-150699660D01*
X34531129Y-150699667D01*
X34695025Y-150944955D01*
X34889541Y-151166758D01*
X35111344Y-151361274D01*
X35317036Y-151498713D01*
X35356635Y-151525172D01*
X35621223Y-151655652D01*
X35900578Y-151750481D01*
X36189920Y-151808034D01*
X36206413Y-151809115D01*
X36484293Y-151827329D01*
X36484300Y-151827329D01*
X36484307Y-151827329D01*
X36719975Y-151811881D01*
X36778680Y-151808034D01*
X37068022Y-151750481D01*
X37347377Y-151655652D01*
X37611965Y-151525172D01*
X37857257Y-151361273D01*
X38079058Y-151166758D01*
X38273573Y-150944957D01*
X38437472Y-150699665D01*
X38567952Y-150435077D01*
X38662781Y-150155722D01*
X38720334Y-149866380D01*
X38736139Y-149625251D01*
X38739629Y-149572007D01*
X38739629Y-149571992D01*
X38720335Y-149277636D01*
X38720334Y-149277620D01*
X38662781Y-148988278D01*
X38567952Y-148708923D01*
X38437472Y-148444336D01*
X38421166Y-148419933D01*
X38355062Y-148321000D01*
X38273573Y-148199043D01*
X38230955Y-148150447D01*
X38079058Y-147977241D01*
X37857255Y-147782725D01*
X37611967Y-147618829D01*
X37611960Y-147618825D01*
X37347380Y-147488349D01*
X37068030Y-147393521D01*
X37068024Y-147393519D01*
X37068022Y-147393519D01*
X36778680Y-147335966D01*
X36778673Y-147335965D01*
X36778663Y-147335964D01*
X36484307Y-147316671D01*
X36484293Y-147316671D01*
X36189936Y-147335964D01*
X36189924Y-147335965D01*
X36189920Y-147335966D01*
X36189912Y-147335967D01*
X36189909Y-147335968D01*
X35900583Y-147393518D01*
X35900569Y-147393521D01*
X35621219Y-147488349D01*
X35356634Y-147618828D01*
X35111341Y-147782728D01*
X34889541Y-147977241D01*
X34695028Y-148199041D01*
X34531128Y-148444334D01*
X34400649Y-148708919D01*
X34305821Y-148988269D01*
X34305818Y-148988283D01*
X34248268Y-149277609D01*
X34248264Y-149277636D01*
X34228971Y-149571992D01*
X29563000Y-149571992D01*
X29563000Y-136774201D01*
X29582685Y-136707162D01*
X29635489Y-136661407D01*
X29686936Y-136650201D01*
X32876722Y-136648683D01*
X32882999Y-136649073D01*
X32887411Y-136649045D01*
X32887417Y-136649047D01*
X32951681Y-136648647D01*
X32951813Y-136648646D01*
X33016340Y-136648617D01*
X33016342Y-136648616D01*
X33021189Y-136648614D01*
X33026733Y-136648233D01*
X33078073Y-136647950D01*
X33324889Y-136611231D01*
X33564060Y-136540073D01*
X33790807Y-136435898D01*
X34000596Y-136300787D01*
X34027517Y-136277476D01*
X34091082Y-136248471D01*
X34160237Y-136258437D01*
G37*
%TD.AperFunction*%
%TA.AperFunction,Conductor*%
G36*
X77171601Y-181215685D02*
G01*
X77217356Y-181268489D01*
X77227300Y-181337647D01*
X77218118Y-181369810D01*
X77140588Y-181546560D01*
X77085092Y-181765710D01*
X77066425Y-181990993D01*
X77066425Y-181991006D01*
X77085092Y-182216289D01*
X77085092Y-182216292D01*
X77085093Y-182216293D01*
X77124867Y-182373358D01*
X77133934Y-182409160D01*
X77131309Y-182478980D01*
X77091353Y-182536297D01*
X77026752Y-182562914D01*
X77013728Y-182563600D01*
X74776156Y-182563600D01*
X74709117Y-182543915D01*
X74663362Y-182491111D01*
X74653418Y-182421953D01*
X74655950Y-182409160D01*
X74698534Y-182241000D01*
X73797451Y-182241000D01*
X73828581Y-182187081D01*
X73863200Y-182057880D01*
X73863200Y-181924120D01*
X73828581Y-181794919D01*
X73797451Y-181741000D01*
X74698534Y-181741000D01*
X74649335Y-181546721D01*
X74571735Y-181369810D01*
X74562832Y-181300510D01*
X74592809Y-181237398D01*
X74652148Y-181200511D01*
X74685291Y-181196000D01*
X77104562Y-181196000D01*
X77171601Y-181215685D01*
G37*
%TD.AperFunction*%
%TA.AperFunction,Conductor*%
G36*
X68420542Y-178250385D02*
G01*
X68441184Y-178267019D01*
X70589384Y-180415219D01*
X70622869Y-180476542D01*
X70617885Y-180546234D01*
X70576013Y-180602167D01*
X70510549Y-180626584D01*
X70501703Y-180626900D01*
X69903729Y-180626900D01*
X69903723Y-180626901D01*
X69844116Y-180633308D01*
X69709271Y-180683602D01*
X69709269Y-180683603D01*
X69619511Y-180750797D01*
X69554047Y-180775214D01*
X69485774Y-180760363D01*
X69470889Y-180750797D01*
X69381130Y-180683603D01*
X69381128Y-180683602D01*
X69246282Y-180633308D01*
X69246283Y-180633308D01*
X69186683Y-180626901D01*
X69186681Y-180626900D01*
X69186673Y-180626900D01*
X69186664Y-180626900D01*
X67363729Y-180626900D01*
X67363723Y-180626901D01*
X67304116Y-180633308D01*
X67169271Y-180683602D01*
X67169264Y-180683606D01*
X67054055Y-180769852D01*
X67054052Y-180769855D01*
X66967806Y-180885064D01*
X66967803Y-180885069D01*
X66924045Y-181002391D01*
X66882173Y-181058324D01*
X66816709Y-181082741D01*
X66748436Y-181067889D01*
X66716634Y-181043040D01*
X66662249Y-180983963D01*
X66662248Y-180983962D01*
X66662246Y-180983960D01*
X66483849Y-180845107D01*
X66446114Y-180824686D01*
X66285032Y-180737512D01*
X66285027Y-180737510D01*
X66071217Y-180664109D01*
X65884752Y-180632994D01*
X65848233Y-180626900D01*
X65622167Y-180626900D01*
X65585648Y-180632994D01*
X65399182Y-180664109D01*
X65185372Y-180737510D01*
X65185367Y-180737512D01*
X64986551Y-180845106D01*
X64986547Y-180845109D01*
X64824299Y-180971393D01*
X64759305Y-180997036D01*
X64690766Y-180983470D01*
X64660456Y-180961221D01*
X64242691Y-180543456D01*
X64209206Y-180482133D01*
X64214190Y-180412441D01*
X64254887Y-180357398D01*
X64266000Y-180348870D01*
X64266000Y-179385686D01*
X64270394Y-179390080D01*
X64361606Y-179442741D01*
X64463339Y-179470000D01*
X64568661Y-179470000D01*
X64670394Y-179442741D01*
X64761606Y-179390080D01*
X64766000Y-179385686D01*
X64766000Y-180348872D01*
X64962317Y-180296269D01*
X64962326Y-180296265D01*
X65168482Y-180200134D01*
X65354820Y-180069657D01*
X65515657Y-179908820D01*
X65646134Y-179722482D01*
X65742265Y-179516326D01*
X65742269Y-179516317D01*
X65794872Y-179320000D01*
X64831686Y-179320000D01*
X64836080Y-179315606D01*
X64888741Y-179224394D01*
X64916000Y-179122661D01*
X64916000Y-179017339D01*
X64888741Y-178915606D01*
X64836080Y-178824394D01*
X64831686Y-178820000D01*
X65794872Y-178820000D01*
X65794872Y-178819999D01*
X65742269Y-178623682D01*
X65742265Y-178623673D01*
X65646134Y-178417518D01*
X65645663Y-178416702D01*
X65645564Y-178416296D01*
X65643846Y-178412611D01*
X65644586Y-178412265D01*
X65629189Y-178348802D01*
X65652041Y-178282774D01*
X65706961Y-178239583D01*
X65753049Y-178230700D01*
X68353503Y-178230700D01*
X68420542Y-178250385D01*
G37*
%TD.AperFunction*%
%TA.AperFunction,Conductor*%
G36*
X117947341Y-169029506D02*
G01*
X118003274Y-169071378D01*
X118009000Y-169079715D01*
X118082483Y-169196661D01*
X118084607Y-169199324D01*
X118085442Y-169201370D01*
X118086188Y-169202557D01*
X118085980Y-169202687D01*
X118111017Y-169264010D01*
X118098263Y-169332706D01*
X118075343Y-169364320D01*
X116926784Y-170512881D01*
X116865461Y-170546366D01*
X116839103Y-170549200D01*
X116584841Y-170549200D01*
X116544950Y-170559888D01*
X116544951Y-170559889D01*
X116432114Y-170590123D01*
X116432109Y-170590126D01*
X116295190Y-170669175D01*
X116295182Y-170669181D01*
X116183378Y-170780986D01*
X115989931Y-170974432D01*
X115928608Y-171007917D01*
X115861296Y-171003793D01*
X115860464Y-171003502D01*
X115767955Y-170971132D01*
X115767954Y-170971131D01*
X115767952Y-170971131D01*
X115588704Y-170950935D01*
X115588696Y-170950935D01*
X115409450Y-170971130D01*
X115409445Y-170971131D01*
X115239176Y-171030711D01*
X115086437Y-171126684D01*
X114958884Y-171254237D01*
X114862910Y-171406978D01*
X114803330Y-171577250D01*
X114793537Y-171664168D01*
X114766470Y-171728582D01*
X114757998Y-171737965D01*
X114672814Y-171823149D01*
X114611493Y-171856634D01*
X114541801Y-171851650D01*
X114485867Y-171809779D01*
X114461450Y-171744315D01*
X114461914Y-171721585D01*
X114470565Y-171644803D01*
X114470565Y-171644796D01*
X114450369Y-171465550D01*
X114450368Y-171465545D01*
X114431247Y-171410900D01*
X114390789Y-171295278D01*
X114378196Y-171275237D01*
X114334784Y-171206147D01*
X114294816Y-171142538D01*
X114167262Y-171014984D01*
X114130895Y-170992133D01*
X114014523Y-170919011D01*
X113844254Y-170859431D01*
X113844249Y-170859430D01*
X113665004Y-170839235D01*
X113664996Y-170839235D01*
X113485750Y-170859430D01*
X113485745Y-170859431D01*
X113315476Y-170919011D01*
X113162737Y-171014984D01*
X113035184Y-171142537D01*
X112939211Y-171295276D01*
X112879631Y-171465545D01*
X112879630Y-171465550D01*
X112859435Y-171644796D01*
X112859435Y-171644803D01*
X112879630Y-171824049D01*
X112879631Y-171824054D01*
X112939211Y-171994323D01*
X112949205Y-172010228D01*
X112968205Y-172077465D01*
X112947837Y-172144300D01*
X112894569Y-172189514D01*
X112844211Y-172200200D01*
X106409969Y-172200200D01*
X106409953Y-172200199D01*
X106402357Y-172200199D01*
X106244243Y-172200199D01*
X106165487Y-172221302D01*
X106091516Y-172241122D01*
X106060962Y-172258763D01*
X106060961Y-172258762D01*
X105954587Y-172320177D01*
X105954582Y-172320181D01*
X105842778Y-172431986D01*
X98163684Y-180111081D01*
X98102361Y-180144566D01*
X98076003Y-180147400D01*
X84467309Y-180147400D01*
X84400270Y-180127715D01*
X84354515Y-180074911D01*
X84344571Y-180005753D01*
X84351129Y-179980062D01*
X84352091Y-179977482D01*
X84352324Y-179975315D01*
X84358500Y-179917873D01*
X84358499Y-178222128D01*
X84352091Y-178162517D01*
X84346973Y-178148796D01*
X84301797Y-178027671D01*
X84301793Y-178027664D01*
X84215547Y-177912455D01*
X84215544Y-177912452D01*
X84100335Y-177826206D01*
X84100328Y-177826202D01*
X83965482Y-177775908D01*
X83965483Y-177775908D01*
X83930404Y-177772137D01*
X83865853Y-177745399D01*
X83826005Y-177688006D01*
X83823512Y-177618181D01*
X83859165Y-177558092D01*
X83872539Y-177547272D01*
X83897140Y-177530046D01*
X84058045Y-177369141D01*
X84058047Y-177369139D01*
X84188568Y-177182734D01*
X84284739Y-176976496D01*
X84291266Y-176952135D01*
X86583500Y-176952135D01*
X86583500Y-178647870D01*
X86583501Y-178647876D01*
X86589908Y-178707483D01*
X86640202Y-178842328D01*
X86640206Y-178842335D01*
X86726452Y-178957544D01*
X86726455Y-178957547D01*
X86841664Y-179043793D01*
X86841671Y-179043797D01*
X86976517Y-179094091D01*
X86976516Y-179094091D01*
X86983444Y-179094835D01*
X87036127Y-179100500D01*
X88731872Y-179100499D01*
X88791483Y-179094091D01*
X88926331Y-179043796D01*
X89041546Y-178957546D01*
X89127796Y-178842331D01*
X89178091Y-178707483D01*
X89184500Y-178647873D01*
X89184499Y-176952128D01*
X89178091Y-176892517D01*
X89152721Y-176824497D01*
X89127797Y-176757671D01*
X89127793Y-176757664D01*
X89041547Y-176642455D01*
X89041544Y-176642452D01*
X88926335Y-176556206D01*
X88926328Y-176556202D01*
X88791482Y-176505908D01*
X88791483Y-176505908D01*
X88731883Y-176499501D01*
X88731881Y-176499500D01*
X88731873Y-176499500D01*
X88731864Y-176499500D01*
X87036129Y-176499500D01*
X87036123Y-176499501D01*
X86976516Y-176505908D01*
X86841671Y-176556202D01*
X86841664Y-176556206D01*
X86726455Y-176642452D01*
X86726452Y-176642455D01*
X86640206Y-176757664D01*
X86640202Y-176757671D01*
X86589908Y-176892517D01*
X86583672Y-176950525D01*
X86583501Y-176952123D01*
X86583500Y-176952135D01*
X84291266Y-176952135D01*
X84343635Y-176756692D01*
X84362695Y-176538831D01*
X84363468Y-176530001D01*
X84363468Y-176529998D01*
X84353997Y-176421745D01*
X84343635Y-176303308D01*
X84284739Y-176083504D01*
X84262979Y-176036841D01*
X84252488Y-175967766D01*
X84281007Y-175903982D01*
X84339484Y-175865742D01*
X84359175Y-175861499D01*
X84366754Y-175860501D01*
X84366757Y-175860501D01*
X84519485Y-175819577D01*
X84569604Y-175790639D01*
X84629238Y-175756209D01*
X84677348Y-175740378D01*
X84783955Y-175728368D01*
X84954222Y-175668789D01*
X85106962Y-175572816D01*
X85234516Y-175445262D01*
X85330489Y-175292522D01*
X85390068Y-175122255D01*
X85390258Y-175120568D01*
X85410265Y-174943003D01*
X85410265Y-174942996D01*
X85390069Y-174763750D01*
X85390068Y-174763745D01*
X85330488Y-174593475D01*
X85313052Y-174565727D01*
X85294051Y-174498491D01*
X85301002Y-174458806D01*
X85352668Y-174311155D01*
X85360039Y-174245734D01*
X85372865Y-174131903D01*
X85372865Y-174131896D01*
X85352669Y-173952650D01*
X85352668Y-173952645D01*
X85306147Y-173819697D01*
X85293089Y-173782378D01*
X85271801Y-173748499D01*
X85236172Y-173691796D01*
X85197116Y-173629638D01*
X85069562Y-173502084D01*
X85050857Y-173490331D01*
X84916823Y-173406111D01*
X84746554Y-173346531D01*
X84746549Y-173346530D01*
X84567304Y-173326335D01*
X84567296Y-173326335D01*
X84388046Y-173346531D01*
X84388045Y-173346531D01*
X84321688Y-173369750D01*
X84251909Y-173373311D01*
X84191282Y-173338581D01*
X84179165Y-173323837D01*
X84058047Y-173150861D01*
X84058045Y-173150858D01*
X83897141Y-172989954D01*
X83710734Y-172859432D01*
X83710728Y-172859429D01*
X83652725Y-172832382D01*
X83600285Y-172786210D01*
X83581133Y-172719017D01*
X83601348Y-172652135D01*
X83652725Y-172607618D01*
X83710734Y-172580568D01*
X83863507Y-172473596D01*
X85133835Y-172473596D01*
X85133835Y-172473603D01*
X85154030Y-172652849D01*
X85154031Y-172652854D01*
X85213611Y-172823123D01*
X85309584Y-172975862D01*
X85437138Y-173103416D01*
X85589878Y-173199389D01*
X85663373Y-173225106D01*
X85760145Y-173258968D01*
X85760150Y-173258969D01*
X85939396Y-173279165D01*
X85939400Y-173279165D01*
X85939404Y-173279165D01*
X86118649Y-173258969D01*
X86118652Y-173258968D01*
X86118655Y-173258968D01*
X86288922Y-173199389D01*
X86441662Y-173103416D01*
X86569216Y-172975862D01*
X86665189Y-172823122D01*
X86724768Y-172652855D01*
X86729865Y-172607618D01*
X86744965Y-172473603D01*
X86744965Y-172473596D01*
X86724769Y-172294350D01*
X86724768Y-172294345D01*
X86718153Y-172275441D01*
X86665189Y-172124078D01*
X86656608Y-172110422D01*
X86593243Y-172009577D01*
X86569216Y-171971338D01*
X86441662Y-171843784D01*
X86421326Y-171831006D01*
X86288923Y-171747811D01*
X86118654Y-171688231D01*
X86118649Y-171688230D01*
X85939404Y-171668035D01*
X85939396Y-171668035D01*
X85760150Y-171688230D01*
X85760145Y-171688231D01*
X85589876Y-171747811D01*
X85437137Y-171843784D01*
X85309584Y-171971337D01*
X85213611Y-172124076D01*
X85154031Y-172294345D01*
X85154030Y-172294350D01*
X85133835Y-172473596D01*
X83863507Y-172473596D01*
X83897139Y-172450047D01*
X84058047Y-172289139D01*
X84188568Y-172102734D01*
X84284739Y-171896496D01*
X84343635Y-171676692D01*
X84363468Y-171450000D01*
X84343635Y-171223308D01*
X84287815Y-171014984D01*
X84284741Y-171003511D01*
X84284738Y-171003502D01*
X84282942Y-170999650D01*
X84188568Y-170797266D01*
X84065637Y-170621701D01*
X84058045Y-170610858D01*
X84041642Y-170594455D01*
X84008157Y-170533132D01*
X84013141Y-170463440D01*
X84041639Y-170419096D01*
X84058220Y-170402516D01*
X84058221Y-170402513D01*
X84784417Y-169676319D01*
X84845740Y-169642834D01*
X84872098Y-169640000D01*
X86521233Y-169640000D01*
X86588272Y-169659685D01*
X86634027Y-169712489D01*
X86643971Y-169781647D01*
X86641008Y-169796094D01*
X86598859Y-169953392D01*
X86598858Y-169953400D01*
X86579034Y-170179997D01*
X86579034Y-170180002D01*
X86598858Y-170406599D01*
X86598860Y-170406610D01*
X86657730Y-170626317D01*
X86657735Y-170626331D01*
X86753863Y-170832478D01*
X86804974Y-170905472D01*
X87484000Y-170226446D01*
X87484000Y-170232661D01*
X87511259Y-170334394D01*
X87563920Y-170425606D01*
X87638394Y-170500080D01*
X87729606Y-170552741D01*
X87831339Y-170580000D01*
X87837553Y-170580000D01*
X87158526Y-171259025D01*
X87231513Y-171310132D01*
X87231521Y-171310136D01*
X87437668Y-171406264D01*
X87437682Y-171406269D01*
X87657389Y-171465139D01*
X87657400Y-171465141D01*
X87883998Y-171484966D01*
X87884002Y-171484966D01*
X88110599Y-171465141D01*
X88110610Y-171465139D01*
X88330317Y-171406269D01*
X88330331Y-171406264D01*
X88536478Y-171310136D01*
X88609471Y-171259024D01*
X87930447Y-170580000D01*
X87936661Y-170580000D01*
X88038394Y-170552741D01*
X88129606Y-170500080D01*
X88204080Y-170425606D01*
X88256741Y-170334394D01*
X88284000Y-170232661D01*
X88284000Y-170226447D01*
X88963024Y-170905471D01*
X89014136Y-170832478D01*
X89110264Y-170626331D01*
X89110269Y-170626317D01*
X89169139Y-170406610D01*
X89169141Y-170406599D01*
X89188966Y-170180002D01*
X89188966Y-170179997D01*
X89169141Y-169953400D01*
X89169140Y-169953392D01*
X89126992Y-169796094D01*
X89128655Y-169726244D01*
X89167817Y-169668381D01*
X89232046Y-169640877D01*
X89246767Y-169640000D01*
X101760715Y-169640000D01*
X101827754Y-169659685D01*
X101873509Y-169712489D01*
X101883453Y-169781647D01*
X101880490Y-169796093D01*
X101838366Y-169953302D01*
X101838364Y-169953313D01*
X101818532Y-170179998D01*
X101818532Y-170180001D01*
X101838364Y-170406686D01*
X101838366Y-170406697D01*
X101897258Y-170626488D01*
X101897261Y-170626497D01*
X101993431Y-170832732D01*
X101993432Y-170832734D01*
X102123954Y-171019141D01*
X102284858Y-171180045D01*
X102284861Y-171180047D01*
X102471266Y-171310568D01*
X102677504Y-171406739D01*
X102677509Y-171406740D01*
X102677511Y-171406741D01*
X102694817Y-171411378D01*
X102897308Y-171465635D01*
X103059230Y-171479801D01*
X103123998Y-171485468D01*
X103124000Y-171485468D01*
X103124002Y-171485468D01*
X103180673Y-171480509D01*
X103350692Y-171465635D01*
X103570496Y-171406739D01*
X103776734Y-171310568D01*
X103963139Y-171180047D01*
X104124047Y-171019139D01*
X104254568Y-170832734D01*
X104350739Y-170626496D01*
X104409635Y-170406692D01*
X104429468Y-170180000D01*
X104424818Y-170126851D01*
X104438584Y-170058352D01*
X104487199Y-170008169D01*
X104555228Y-169992235D01*
X104621072Y-170015610D01*
X104636027Y-170028363D01*
X104819184Y-170211520D01*
X104819186Y-170211521D01*
X104819190Y-170211524D01*
X104956109Y-170290573D01*
X104956112Y-170290575D01*
X104956116Y-170290577D01*
X105108843Y-170331501D01*
X105108845Y-170331501D01*
X105274554Y-170331501D01*
X105274570Y-170331500D01*
X116207431Y-170331500D01*
X116207447Y-170331501D01*
X116215043Y-170331501D01*
X116373154Y-170331501D01*
X116373157Y-170331501D01*
X116525885Y-170290577D01*
X116577557Y-170260744D01*
X116662816Y-170211520D01*
X116774620Y-170099716D01*
X116774620Y-170099714D01*
X116784824Y-170089511D01*
X116784828Y-170089506D01*
X117816328Y-169058005D01*
X117877649Y-169024522D01*
X117947341Y-169029506D01*
G37*
%TD.AperFunction*%
%TA.AperFunction,Conductor*%
G36*
X63345990Y-178250385D02*
G01*
X63391745Y-178303189D01*
X63401689Y-178372347D01*
X63387808Y-178412449D01*
X63388154Y-178412611D01*
X63386598Y-178415947D01*
X63386337Y-178416702D01*
X63385865Y-178417518D01*
X63289734Y-178623673D01*
X63289730Y-178623682D01*
X63237127Y-178819999D01*
X63237128Y-178820000D01*
X64200314Y-178820000D01*
X64195920Y-178824394D01*
X64143259Y-178915606D01*
X64116000Y-179017339D01*
X64116000Y-179122661D01*
X64143259Y-179224394D01*
X64195920Y-179315606D01*
X64200314Y-179320000D01*
X63237127Y-179320000D01*
X63228599Y-179331114D01*
X63172171Y-179372316D01*
X63102425Y-179376471D01*
X63042543Y-179343308D01*
X62141616Y-178442381D01*
X62108131Y-178381058D01*
X62113115Y-178311366D01*
X62154987Y-178255433D01*
X62220451Y-178231016D01*
X62229297Y-178230700D01*
X63278951Y-178230700D01*
X63345990Y-178250385D01*
G37*
%TD.AperFunction*%
%TA.AperFunction,Conductor*%
G36*
X79286154Y-169653693D02*
G01*
X79312523Y-169668621D01*
X79312843Y-169668112D01*
X79437366Y-169746356D01*
X79483656Y-169798690D01*
X79494613Y-169837465D01*
X79514430Y-170013350D01*
X79514431Y-170013354D01*
X79574011Y-170183623D01*
X79659346Y-170319432D01*
X79669984Y-170336362D01*
X79797538Y-170463916D01*
X79857703Y-170501720D01*
X79949160Y-170559187D01*
X79950278Y-170559889D01*
X80095939Y-170610858D01*
X80120545Y-170619468D01*
X80120550Y-170619469D01*
X80299797Y-170639665D01*
X80299800Y-170639665D01*
X80299801Y-170639665D01*
X80313671Y-170638102D01*
X80375508Y-170631134D01*
X80412295Y-170633892D01*
X80412381Y-170633239D01*
X80420440Y-170634300D01*
X80420442Y-170634300D01*
X80420443Y-170634300D01*
X81808784Y-170634300D01*
X81875823Y-170653985D01*
X81921578Y-170706789D01*
X81931522Y-170775947D01*
X81921167Y-170810700D01*
X81883992Y-170890423D01*
X81831261Y-171003502D01*
X81831258Y-171003511D01*
X81772366Y-171223302D01*
X81772364Y-171223313D01*
X81752532Y-171449998D01*
X81752532Y-171450001D01*
X81772364Y-171676686D01*
X81772366Y-171676697D01*
X81831258Y-171896488D01*
X81831261Y-171896497D01*
X81927431Y-172102732D01*
X81927432Y-172102734D01*
X82057954Y-172289141D01*
X82218858Y-172450045D01*
X82218861Y-172450047D01*
X82405266Y-172580568D01*
X82463275Y-172607618D01*
X82515714Y-172653791D01*
X82534866Y-172720984D01*
X82514650Y-172787865D01*
X82463275Y-172832382D01*
X82405267Y-172859431D01*
X82405265Y-172859432D01*
X82218858Y-172989954D01*
X82057954Y-173150858D01*
X81927432Y-173337265D01*
X81927431Y-173337267D01*
X81831261Y-173543502D01*
X81831258Y-173543511D01*
X81772366Y-173763302D01*
X81772364Y-173763313D01*
X81752532Y-173989998D01*
X81752532Y-173990001D01*
X81772364Y-174216686D01*
X81772366Y-174216697D01*
X81831258Y-174436488D01*
X81831261Y-174436496D01*
X81852210Y-174481422D01*
X81852991Y-174483095D01*
X81863483Y-174552172D01*
X81834964Y-174615956D01*
X81776487Y-174654196D01*
X81740609Y-174659500D01*
X81127057Y-174659500D01*
X80968942Y-174659500D01*
X80816215Y-174700423D01*
X80816214Y-174700423D01*
X80816212Y-174700424D01*
X80816209Y-174700425D01*
X80776128Y-174723567D01*
X80776126Y-174723568D01*
X80679290Y-174779475D01*
X80679282Y-174779481D01*
X80567478Y-174891286D01*
X76843812Y-178614951D01*
X76782489Y-178648436D01*
X76712797Y-178643452D01*
X76656864Y-178601580D01*
X76643749Y-178579675D01*
X76568133Y-178417517D01*
X76437657Y-178231179D01*
X76276820Y-178070342D01*
X76090482Y-177939865D01*
X76032133Y-177912657D01*
X75979694Y-177866484D01*
X75960542Y-177799291D01*
X75980758Y-177732410D01*
X76032129Y-177687895D01*
X76090734Y-177660568D01*
X76277139Y-177530047D01*
X76438047Y-177369139D01*
X76568568Y-177182734D01*
X76664739Y-176976496D01*
X76723635Y-176756692D01*
X76742695Y-176538831D01*
X76743468Y-176530001D01*
X76743468Y-176529998D01*
X76733997Y-176421745D01*
X76723635Y-176303308D01*
X76664739Y-176083504D01*
X76568568Y-175877266D01*
X76438047Y-175690861D01*
X76438045Y-175690858D01*
X76277141Y-175529954D01*
X76090734Y-175399432D01*
X76090728Y-175399429D01*
X76032725Y-175372382D01*
X75980285Y-175326210D01*
X75961133Y-175259017D01*
X75981348Y-175192135D01*
X76032725Y-175147618D01*
X76090734Y-175120568D01*
X76277139Y-174990047D01*
X76438047Y-174829139D01*
X76568568Y-174642734D01*
X76664739Y-174436496D01*
X76723635Y-174216692D01*
X76743468Y-173990000D01*
X76723635Y-173763308D01*
X76664739Y-173543504D01*
X76568568Y-173337266D01*
X76438047Y-173150861D01*
X76438045Y-173150858D01*
X76277141Y-172989954D01*
X76090734Y-172859432D01*
X76090728Y-172859429D01*
X76032725Y-172832382D01*
X75980285Y-172786210D01*
X75961133Y-172719017D01*
X75981348Y-172652135D01*
X76032725Y-172607618D01*
X76090734Y-172580568D01*
X76277139Y-172450047D01*
X76438047Y-172289139D01*
X76568568Y-172102734D01*
X76568576Y-172102716D01*
X76569667Y-172100828D01*
X76570374Y-172100153D01*
X76571673Y-172098299D01*
X76572045Y-172098559D01*
X76620232Y-172052611D01*
X76644955Y-172043052D01*
X76769885Y-172009577D01*
X76857218Y-171959155D01*
X76882564Y-171944522D01*
X76906809Y-171930524D01*
X76906808Y-171930524D01*
X76906816Y-171930520D01*
X77018620Y-171818716D01*
X77018620Y-171818714D01*
X77028824Y-171808511D01*
X77028828Y-171808506D01*
X79155141Y-169682192D01*
X79216462Y-169648709D01*
X79286154Y-169653693D01*
G37*
%TD.AperFunction*%
%TA.AperFunction,Conductor*%
G36*
X49475648Y-165019985D02*
G01*
X49521403Y-165072789D01*
X49531347Y-165141947D01*
X49528384Y-165156394D01*
X49474364Y-165357999D01*
X49474364Y-165358000D01*
X50371988Y-165358000D01*
X50339075Y-165415007D01*
X50305000Y-165542174D01*
X50305000Y-165673826D01*
X50339075Y-165800993D01*
X50371988Y-165858000D01*
X49474364Y-165858000D01*
X49531567Y-166071486D01*
X49531570Y-166071492D01*
X49536374Y-166081795D01*
X49546866Y-166150873D01*
X49518346Y-166214657D01*
X49459870Y-166252896D01*
X49423992Y-166258200D01*
X48140496Y-166258200D01*
X48073457Y-166238515D01*
X48027702Y-166185711D01*
X48017758Y-166116553D01*
X48046783Y-166052997D01*
X48052815Y-166046519D01*
X49062716Y-165036619D01*
X49124039Y-165003134D01*
X49150397Y-165000300D01*
X49408609Y-165000300D01*
X49475648Y-165019985D01*
G37*
%TD.AperFunction*%
%TA.AperFunction,Conductor*%
G36*
X48541047Y-157833701D02*
G01*
X48709061Y-157833701D01*
X48776100Y-157853386D01*
X48796741Y-157870019D01*
X48881838Y-157955116D01*
X48956754Y-158002189D01*
X49028622Y-158047347D01*
X49034578Y-158051089D01*
X49166544Y-158097266D01*
X49204845Y-158110668D01*
X49204850Y-158110669D01*
X49356459Y-158127751D01*
X49420873Y-158154817D01*
X49460428Y-158212412D01*
X49462566Y-158282249D01*
X49458761Y-158294297D01*
X49456403Y-158300619D01*
X49456401Y-158300627D01*
X49450000Y-158360155D01*
X49450000Y-159008000D01*
X50366988Y-159008000D01*
X50334075Y-159065007D01*
X50300000Y-159192174D01*
X50300000Y-159323826D01*
X50334075Y-159450993D01*
X50366988Y-159508000D01*
X49450000Y-159508000D01*
X49450000Y-160155844D01*
X49456401Y-160215372D01*
X49456403Y-160215379D01*
X49506645Y-160350086D01*
X49506649Y-160350093D01*
X49592809Y-160465187D01*
X49592812Y-160465190D01*
X49707906Y-160551350D01*
X49707913Y-160551354D01*
X49839470Y-160600421D01*
X49895403Y-160642292D01*
X49919821Y-160707756D01*
X49904970Y-160776029D01*
X49883819Y-160804284D01*
X49761503Y-160926600D01*
X49625965Y-161120169D01*
X49625964Y-161120171D01*
X49526098Y-161334335D01*
X49526094Y-161334344D01*
X49464938Y-161562586D01*
X49464936Y-161562596D01*
X49444341Y-161797999D01*
X49444341Y-161798000D01*
X49464936Y-162033403D01*
X49464938Y-162033413D01*
X49526094Y-162261655D01*
X49526096Y-162261659D01*
X49526097Y-162261663D01*
X49613388Y-162448858D01*
X49625965Y-162475830D01*
X49625967Y-162475834D01*
X49697460Y-162577936D01*
X49761505Y-162669401D01*
X49928599Y-162836495D01*
X49935750Y-162841502D01*
X50122165Y-162972032D01*
X50122167Y-162972033D01*
X50122170Y-162972035D01*
X50336337Y-163071903D01*
X50336343Y-163071904D01*
X50336344Y-163071905D01*
X50391285Y-163086626D01*
X50564592Y-163133063D01*
X50731147Y-163147635D01*
X50799999Y-163153659D01*
X50800000Y-163153659D01*
X50800001Y-163153659D01*
X50860269Y-163148386D01*
X51035408Y-163133063D01*
X51263663Y-163071903D01*
X51477830Y-162972035D01*
X51671401Y-162836495D01*
X51673944Y-162833951D01*
X51675338Y-162833190D01*
X51675545Y-162833017D01*
X51675579Y-162833058D01*
X51735262Y-162800463D01*
X51804954Y-162805442D01*
X51849311Y-162833946D01*
X52602983Y-163587619D01*
X52636468Y-163648942D01*
X52631484Y-163718634D01*
X52589612Y-163774567D01*
X52524148Y-163798984D01*
X52515302Y-163799300D01*
X48771240Y-163799300D01*
X48730319Y-163810264D01*
X48730319Y-163810265D01*
X48693051Y-163820251D01*
X48618514Y-163840223D01*
X48618509Y-163840226D01*
X48481590Y-163919275D01*
X48481582Y-163919281D01*
X48369778Y-164031086D01*
X47837538Y-164563325D01*
X47776215Y-164596810D01*
X47706523Y-164591826D01*
X47650591Y-164549954D01*
X47607546Y-164492454D01*
X47607545Y-164492453D01*
X47607544Y-164492452D01*
X47492335Y-164406206D01*
X47492328Y-164406202D01*
X47360917Y-164357189D01*
X47304983Y-164315318D01*
X47280566Y-164249853D01*
X47295418Y-164181580D01*
X47316563Y-164153332D01*
X47438495Y-164031401D01*
X47574035Y-163837830D01*
X47673903Y-163623663D01*
X47735063Y-163395408D01*
X47755659Y-163160000D01*
X47754553Y-163147364D01*
X47748039Y-163072901D01*
X47735063Y-162924592D01*
X47674732Y-162699431D01*
X47673905Y-162696344D01*
X47673904Y-162696343D01*
X47673903Y-162696337D01*
X47574035Y-162482171D01*
X47566383Y-162471242D01*
X47438494Y-162288597D01*
X47271402Y-162121506D01*
X47271396Y-162121501D01*
X47085842Y-161991575D01*
X47042217Y-161936998D01*
X47035023Y-161867500D01*
X47066546Y-161805145D01*
X47085842Y-161788425D01*
X47159951Y-161736533D01*
X47271401Y-161658495D01*
X47438495Y-161491401D01*
X47574035Y-161297830D01*
X47673903Y-161083663D01*
X47735063Y-160855408D01*
X47755659Y-160620000D01*
X47754259Y-160604004D01*
X47747357Y-160525107D01*
X47735063Y-160384592D01*
X47673903Y-160156337D01*
X47574035Y-159942171D01*
X47569595Y-159935829D01*
X47438494Y-159748597D01*
X47271402Y-159581506D01*
X47271395Y-159581501D01*
X47262740Y-159575441D01*
X47230522Y-159552881D01*
X47077834Y-159445967D01*
X47077830Y-159445965D01*
X47033908Y-159425484D01*
X46863663Y-159346097D01*
X46863659Y-159346096D01*
X46863655Y-159346094D01*
X46635413Y-159284938D01*
X46635403Y-159284936D01*
X46400001Y-159264341D01*
X46399999Y-159264341D01*
X46164596Y-159284936D01*
X46164586Y-159284938D01*
X45936344Y-159346094D01*
X45936335Y-159346098D01*
X45722171Y-159445964D01*
X45722169Y-159445965D01*
X45528597Y-159581505D01*
X45361505Y-159748597D01*
X45225965Y-159942169D01*
X45225964Y-159942171D01*
X45126098Y-160156335D01*
X45126094Y-160156344D01*
X45064938Y-160384586D01*
X45064936Y-160384596D01*
X45044341Y-160619999D01*
X45044341Y-160620000D01*
X45064936Y-160855403D01*
X45064938Y-160855413D01*
X45126094Y-161083655D01*
X45126096Y-161083659D01*
X45126097Y-161083663D01*
X45215435Y-161275249D01*
X45225965Y-161297830D01*
X45225967Y-161297834D01*
X45329380Y-161445522D01*
X45361375Y-161491216D01*
X45361501Y-161491395D01*
X45361506Y-161491402D01*
X45528597Y-161658493D01*
X45528603Y-161658498D01*
X45714158Y-161788425D01*
X45757783Y-161843002D01*
X45764977Y-161912500D01*
X45733454Y-161974855D01*
X45714158Y-161991575D01*
X45528597Y-162121505D01*
X45361505Y-162288597D01*
X45225965Y-162482169D01*
X45225964Y-162482171D01*
X45126098Y-162696335D01*
X45126092Y-162696350D01*
X45116101Y-162733637D01*
X45079736Y-162793297D01*
X45016888Y-162823825D01*
X44947513Y-162815530D01*
X44934328Y-162808930D01*
X44892367Y-162784704D01*
X44832543Y-162750165D01*
X44832542Y-162750164D01*
X44794890Y-162728425D01*
X44794889Y-162728424D01*
X44782363Y-162725067D01*
X44642157Y-162687499D01*
X44484043Y-162687499D01*
X44476447Y-162687499D01*
X44476431Y-162687500D01*
X43121692Y-162687500D01*
X43054653Y-162667815D01*
X43020119Y-162634625D01*
X42890047Y-162448861D01*
X42890045Y-162448858D01*
X42729141Y-162287954D01*
X42542734Y-162157432D01*
X42542732Y-162157431D01*
X42336497Y-162061261D01*
X42336488Y-162061258D01*
X42116697Y-162002366D01*
X42116693Y-162002365D01*
X42116692Y-162002365D01*
X42116691Y-162002364D01*
X42116686Y-162002364D01*
X41890002Y-161982532D01*
X41889998Y-161982532D01*
X41663313Y-162002364D01*
X41663302Y-162002366D01*
X41443511Y-162061258D01*
X41443502Y-162061261D01*
X41237267Y-162157431D01*
X41237265Y-162157432D01*
X41050858Y-162287954D01*
X40889954Y-162448858D01*
X40759432Y-162635265D01*
X40759431Y-162635267D01*
X40663261Y-162841502D01*
X40663258Y-162841511D01*
X40604366Y-163061302D01*
X40604364Y-163061312D01*
X40597898Y-163135217D01*
X40572445Y-163200285D01*
X40515853Y-163241263D01*
X40446091Y-163245140D01*
X40421965Y-163236790D01*
X40414011Y-163233081D01*
X40356496Y-163206261D01*
X40356492Y-163206260D01*
X40356488Y-163206258D01*
X40136697Y-163147366D01*
X40136693Y-163147365D01*
X40136692Y-163147365D01*
X40136691Y-163147364D01*
X40136686Y-163147364D01*
X39910002Y-163127532D01*
X39909998Y-163127532D01*
X39683313Y-163147364D01*
X39683302Y-163147366D01*
X39463511Y-163206258D01*
X39463497Y-163206263D01*
X39398033Y-163236790D01*
X39328956Y-163247282D01*
X39265172Y-163218762D01*
X39226933Y-163160285D01*
X39222101Y-163135215D01*
X39218371Y-163092585D01*
X39215635Y-163061308D01*
X39156739Y-162841504D01*
X39060568Y-162635266D01*
X38930047Y-162448861D01*
X38930045Y-162448858D01*
X38769141Y-162287954D01*
X38582731Y-162157430D01*
X38578039Y-162154721D01*
X38579298Y-162152540D01*
X38534800Y-162113359D01*
X38515649Y-162046165D01*
X38535866Y-161979284D01*
X38551964Y-161959470D01*
X40567593Y-159943842D01*
X42641416Y-157870019D01*
X42702739Y-157836534D01*
X42729097Y-157833700D01*
X48541031Y-157833700D01*
X48541047Y-157833701D01*
G37*
%TD.AperFunction*%
%TA.AperFunction,Conductor*%
G36*
X114841006Y-158359785D02*
G01*
X114886761Y-158412589D01*
X114897187Y-158450217D01*
X114904930Y-158518950D01*
X114904931Y-158518954D01*
X114964511Y-158689223D01*
X115060484Y-158841962D01*
X115188037Y-158969515D01*
X115193484Y-158973859D01*
X115191783Y-158975991D01*
X115229863Y-159019054D01*
X115240503Y-159088109D01*
X115212121Y-159151954D01*
X115153726Y-159190319D01*
X115117594Y-159195700D01*
X114140398Y-159195700D01*
X114073359Y-159176015D01*
X114052717Y-159159381D01*
X113751237Y-158857901D01*
X113445115Y-158551780D01*
X113411631Y-158490458D01*
X113416615Y-158420767D01*
X113458486Y-158364833D01*
X113523951Y-158340416D01*
X113532797Y-158340100D01*
X114773967Y-158340100D01*
X114841006Y-158359785D01*
G37*
%TD.AperFunction*%
%TA.AperFunction,Conductor*%
G36*
X103908147Y-153925218D02*
G01*
X103927729Y-153941164D01*
X107940684Y-157954119D01*
X107974169Y-158015442D01*
X107969185Y-158085134D01*
X107927313Y-158141067D01*
X107861849Y-158165484D01*
X107853003Y-158165800D01*
X105290197Y-158165800D01*
X105223158Y-158146115D01*
X105202516Y-158129481D01*
X103483190Y-156410155D01*
X103483188Y-156410152D01*
X103480619Y-156407583D01*
X103479696Y-156405893D01*
X103467697Y-156391257D01*
X103467695Y-156391254D01*
X103470633Y-156389295D01*
X103447134Y-156346260D01*
X103452118Y-156276568D01*
X103493990Y-156220635D01*
X103554417Y-156196682D01*
X103660149Y-156184769D01*
X103660152Y-156184768D01*
X103660155Y-156184768D01*
X103830422Y-156125189D01*
X103983162Y-156029216D01*
X104110716Y-155901662D01*
X104206689Y-155748922D01*
X104266268Y-155578655D01*
X104266269Y-155578649D01*
X104286465Y-155399403D01*
X104286465Y-155399396D01*
X104266269Y-155220150D01*
X104266268Y-155220145D01*
X104258132Y-155196893D01*
X104206689Y-155049878D01*
X104110716Y-154897138D01*
X103983162Y-154769584D01*
X103971344Y-154762158D01*
X103830423Y-154673611D01*
X103660154Y-154614031D01*
X103660149Y-154614030D01*
X103480904Y-154593835D01*
X103480896Y-154593835D01*
X103333383Y-154610455D01*
X103264561Y-154598400D01*
X103213182Y-154551051D01*
X103195500Y-154487235D01*
X103195500Y-154481800D01*
X102278512Y-154481800D01*
X102311425Y-154424793D01*
X102345500Y-154297626D01*
X102345500Y-154165974D01*
X102311425Y-154038807D01*
X102278512Y-153981800D01*
X102837624Y-153981800D01*
X102903597Y-154000807D01*
X102918863Y-154010399D01*
X102928078Y-154016189D01*
X102928081Y-154016190D01*
X103098337Y-154075766D01*
X103098343Y-154075767D01*
X103098345Y-154075768D01*
X103098346Y-154075768D01*
X103098350Y-154075769D01*
X103277596Y-154095965D01*
X103277600Y-154095965D01*
X103277604Y-154095965D01*
X103456849Y-154075769D01*
X103456852Y-154075768D01*
X103456855Y-154075768D01*
X103627122Y-154016189D01*
X103627124Y-154016187D01*
X103627126Y-154016187D01*
X103774076Y-153923852D01*
X103841312Y-153904851D01*
X103908147Y-153925218D01*
G37*
%TD.AperFunction*%
%TA.AperFunction,Conductor*%
G36*
X98168714Y-153276885D02*
G01*
X98214469Y-153329689D01*
X98224413Y-153398847D01*
X98203250Y-153452323D01*
X98131900Y-153554220D01*
X98131899Y-153554222D01*
X98032070Y-153768307D01*
X98032067Y-153768313D01*
X97974864Y-153981799D01*
X97974864Y-153981800D01*
X98872488Y-153981800D01*
X98839575Y-154038807D01*
X98805500Y-154165974D01*
X98805500Y-154297626D01*
X98839575Y-154424793D01*
X98872488Y-154481800D01*
X97974864Y-154481800D01*
X98018006Y-154642806D01*
X98016343Y-154712656D01*
X97977181Y-154770519D01*
X97912952Y-154798023D01*
X97898231Y-154798900D01*
X97695797Y-154798900D01*
X97628758Y-154779215D01*
X97608116Y-154762581D01*
X96314416Y-153468881D01*
X96280931Y-153407558D01*
X96285915Y-153337866D01*
X96327787Y-153281933D01*
X96393251Y-153257516D01*
X96402097Y-153257200D01*
X98101675Y-153257200D01*
X98168714Y-153276885D01*
G37*
%TD.AperFunction*%
%TA.AperFunction,Conductor*%
G36*
X101379575Y-154038807D02*
G01*
X101345500Y-154165974D01*
X101345500Y-154297626D01*
X101379575Y-154424793D01*
X101412488Y-154481800D01*
X99738512Y-154481800D01*
X99771425Y-154424793D01*
X99805500Y-154297626D01*
X99805500Y-154165974D01*
X99771425Y-154038807D01*
X99738512Y-153981800D01*
X101412488Y-153981800D01*
X101379575Y-154038807D01*
G37*
%TD.AperFunction*%
%TA.AperFunction,Conductor*%
G36*
X39969696Y-137052185D02*
G01*
X40015451Y-137104989D01*
X40020076Y-137116641D01*
X40080649Y-137295080D01*
X40211125Y-137559660D01*
X40211129Y-137559667D01*
X40375025Y-137804955D01*
X40569541Y-138026758D01*
X40725064Y-138163148D01*
X40791343Y-138221273D01*
X41036635Y-138385172D01*
X41051185Y-138392347D01*
X41081549Y-138420279D01*
X41083841Y-138417988D01*
X41717550Y-139051697D01*
X41636747Y-139073349D01*
X41531854Y-139133909D01*
X41446209Y-139219554D01*
X41385649Y-139324447D01*
X41363997Y-139405251D01*
X40771174Y-138812428D01*
X40727633Y-138874613D01*
X40680682Y-138975299D01*
X40634509Y-139027738D01*
X40567316Y-139046890D01*
X40500435Y-139026674D01*
X40455100Y-138973508D01*
X40444300Y-138922894D01*
X40444300Y-138704172D01*
X40444299Y-138704155D01*
X40437898Y-138644627D01*
X40437896Y-138644620D01*
X40387654Y-138509913D01*
X40387650Y-138509906D01*
X40301490Y-138394812D01*
X40301487Y-138394809D01*
X40186393Y-138308649D01*
X40186386Y-138308645D01*
X40051679Y-138258403D01*
X40051672Y-138258401D01*
X39992144Y-138252000D01*
X39444300Y-138252000D01*
X39444300Y-139115176D01*
X39371853Y-139073349D01*
X39254860Y-139042000D01*
X39133740Y-139042000D01*
X39016747Y-139073349D01*
X38944300Y-139115176D01*
X38944300Y-138252000D01*
X38396455Y-138252000D01*
X38336927Y-138258401D01*
X38336920Y-138258403D01*
X38202213Y-138308645D01*
X38202206Y-138308649D01*
X38087112Y-138394809D01*
X38087109Y-138394812D01*
X38000949Y-138509906D01*
X38000945Y-138509913D01*
X37950703Y-138644620D01*
X37950701Y-138644627D01*
X37944300Y-138704155D01*
X37944300Y-139252000D01*
X38807476Y-139252000D01*
X38765649Y-139324447D01*
X38734300Y-139441440D01*
X38734300Y-139562560D01*
X38765649Y-139679553D01*
X38807476Y-139752000D01*
X37944300Y-139752000D01*
X37944300Y-140299844D01*
X37950701Y-140359372D01*
X37950703Y-140359379D01*
X38000945Y-140494086D01*
X38000949Y-140494093D01*
X38087109Y-140609187D01*
X38087112Y-140609190D01*
X38202206Y-140695350D01*
X38202213Y-140695354D01*
X38336920Y-140745596D01*
X38336927Y-140745598D01*
X38396455Y-140751999D01*
X38396472Y-140752000D01*
X38406026Y-140752000D01*
X38473065Y-140771685D01*
X38518820Y-140824489D01*
X38528764Y-140893647D01*
X38499739Y-140957203D01*
X38477149Y-140977575D01*
X38387421Y-141040402D01*
X38232702Y-141195121D01*
X38107200Y-141374357D01*
X38107198Y-141374361D01*
X38014726Y-141572668D01*
X38014722Y-141572677D01*
X37958093Y-141784020D01*
X37958093Y-141784024D01*
X37939077Y-142001388D01*
X37939023Y-142002000D01*
X37955015Y-142184800D01*
X37958093Y-142219975D01*
X37958093Y-142219979D01*
X38014722Y-142431322D01*
X38014724Y-142431326D01*
X38014725Y-142431330D01*
X38045298Y-142496893D01*
X38107197Y-142629638D01*
X38107198Y-142629639D01*
X38232702Y-142808877D01*
X38232706Y-142808881D01*
X38338143Y-142914318D01*
X38371628Y-142975641D01*
X38366644Y-143045333D01*
X38338144Y-143089680D01*
X38232700Y-143195124D01*
X38107200Y-143374357D01*
X38107198Y-143374361D01*
X38014726Y-143572668D01*
X38014722Y-143572677D01*
X37958093Y-143784020D01*
X37958093Y-143784024D01*
X37939023Y-144001997D01*
X37939023Y-144002003D01*
X37947247Y-144096015D01*
X37933480Y-144164515D01*
X37884864Y-144214697D01*
X37816835Y-144230630D01*
X37750992Y-144207254D01*
X37736038Y-144194502D01*
X37121119Y-143579583D01*
X37087634Y-143518260D01*
X37084800Y-143491902D01*
X37084800Y-138693642D01*
X37104485Y-138626603D01*
X37157289Y-138580848D01*
X37168942Y-138576223D01*
X37347369Y-138515655D01*
X37347379Y-138515651D01*
X37359029Y-138509906D01*
X37611965Y-138385172D01*
X37857257Y-138221273D01*
X38079058Y-138026758D01*
X38273573Y-137804957D01*
X38437472Y-137559665D01*
X38567952Y-137295077D01*
X38611638Y-137166382D01*
X38628524Y-137116641D01*
X38668713Y-137059487D01*
X38733423Y-137033134D01*
X38745943Y-137032500D01*
X39902657Y-137032500D01*
X39969696Y-137052185D01*
G37*
%TD.AperFunction*%
%TA.AperFunction,Conductor*%
G36*
X115798942Y-132136385D02*
G01*
X115819584Y-132153019D01*
X119031939Y-135365374D01*
X119031949Y-135365385D01*
X119036279Y-135369715D01*
X119036280Y-135369716D01*
X119148084Y-135481520D01*
X119148086Y-135481521D01*
X119148090Y-135481524D01*
X119279137Y-135557183D01*
X119285016Y-135560577D01*
X119396819Y-135590534D01*
X119437742Y-135601500D01*
X119437743Y-135601500D01*
X120229513Y-135601500D01*
X120296552Y-135621185D01*
X120342307Y-135673989D01*
X120352251Y-135743147D01*
X120343069Y-135775310D01*
X120320588Y-135826560D01*
X120265092Y-136045710D01*
X120246425Y-136270993D01*
X120246425Y-136271006D01*
X120265092Y-136496289D01*
X120265092Y-136496292D01*
X120265093Y-136496293D01*
X120318492Y-136707162D01*
X120319733Y-136712060D01*
X120317108Y-136781880D01*
X120277152Y-136839197D01*
X120212550Y-136865814D01*
X120199527Y-136866500D01*
X114610897Y-136866500D01*
X114543858Y-136846815D01*
X114523216Y-136830181D01*
X114298590Y-136605555D01*
X114298588Y-136605552D01*
X114179717Y-136486681D01*
X114179709Y-136486675D01*
X114067313Y-136421784D01*
X114067312Y-136421783D01*
X114050072Y-136411830D01*
X114042785Y-136407623D01*
X113890057Y-136366699D01*
X113731943Y-136366699D01*
X113724347Y-136366699D01*
X113724331Y-136366700D01*
X101455597Y-136366700D01*
X101388558Y-136347015D01*
X101342803Y-136294211D01*
X101332859Y-136225053D01*
X101361884Y-136161497D01*
X101367916Y-136155019D01*
X102041415Y-135481520D01*
X102761414Y-134761520D01*
X102822735Y-134728037D01*
X102892427Y-134733021D01*
X102925250Y-134751347D01*
X103086551Y-134876893D01*
X103285369Y-134984488D01*
X103285372Y-134984489D01*
X103499182Y-135057890D01*
X103499184Y-135057890D01*
X103499186Y-135057891D01*
X103722167Y-135095100D01*
X103722168Y-135095100D01*
X103948232Y-135095100D01*
X103948233Y-135095100D01*
X104171214Y-135057891D01*
X104385031Y-134984488D01*
X104583849Y-134876893D01*
X104762246Y-134738040D01*
X104862032Y-134629643D01*
X104915349Y-134571727D01*
X104915349Y-134571726D01*
X104915356Y-134571719D01*
X105001393Y-134440028D01*
X105054538Y-134394675D01*
X105123769Y-134385251D01*
X105187105Y-134414753D01*
X105209004Y-134440025D01*
X105295044Y-134571719D01*
X105295049Y-134571724D01*
X105295050Y-134571727D01*
X105448150Y-134738036D01*
X105448154Y-134738040D01*
X105626551Y-134876893D01*
X105825369Y-134984488D01*
X105825372Y-134984489D01*
X106039182Y-135057890D01*
X106039184Y-135057890D01*
X106039186Y-135057891D01*
X106262167Y-135095100D01*
X106262168Y-135095100D01*
X106488232Y-135095100D01*
X106488233Y-135095100D01*
X106711214Y-135057891D01*
X106925031Y-134984488D01*
X107123849Y-134876893D01*
X107302246Y-134738040D01*
X107402032Y-134629643D01*
X107455349Y-134571727D01*
X107455349Y-134571726D01*
X107455356Y-134571719D01*
X107541393Y-134440028D01*
X107594538Y-134394675D01*
X107663769Y-134385251D01*
X107727105Y-134414753D01*
X107749004Y-134440025D01*
X107835044Y-134571719D01*
X107835049Y-134571724D01*
X107835050Y-134571727D01*
X107988150Y-134738036D01*
X107988154Y-134738040D01*
X108166551Y-134876893D01*
X108365369Y-134984488D01*
X108365372Y-134984489D01*
X108579182Y-135057890D01*
X108579184Y-135057890D01*
X108579186Y-135057891D01*
X108802167Y-135095100D01*
X108802168Y-135095100D01*
X109028232Y-135095100D01*
X109028233Y-135095100D01*
X109251214Y-135057891D01*
X109465031Y-134984488D01*
X109663849Y-134876893D01*
X109842246Y-134738040D01*
X109942032Y-134629643D01*
X109995349Y-134571727D01*
X109995349Y-134571726D01*
X109995356Y-134571719D01*
X110081393Y-134440028D01*
X110134538Y-134394675D01*
X110203769Y-134385251D01*
X110267105Y-134414753D01*
X110289004Y-134440025D01*
X110375044Y-134571719D01*
X110375049Y-134571724D01*
X110375050Y-134571727D01*
X110528150Y-134738036D01*
X110528154Y-134738040D01*
X110706551Y-134876893D01*
X110905369Y-134984488D01*
X110905372Y-134984489D01*
X111119182Y-135057890D01*
X111119184Y-135057890D01*
X111119186Y-135057891D01*
X111342167Y-135095100D01*
X111342168Y-135095100D01*
X111568232Y-135095100D01*
X111568233Y-135095100D01*
X111791214Y-135057891D01*
X112005031Y-134984488D01*
X112203849Y-134876893D01*
X112382246Y-134738040D01*
X112482032Y-134629643D01*
X112535349Y-134571727D01*
X112535349Y-134571726D01*
X112535356Y-134571719D01*
X112621393Y-134440028D01*
X112674538Y-134394675D01*
X112743769Y-134385251D01*
X112807105Y-134414753D01*
X112829004Y-134440025D01*
X112915044Y-134571719D01*
X112915049Y-134571724D01*
X112915050Y-134571727D01*
X113068150Y-134738036D01*
X113068154Y-134738040D01*
X113246551Y-134876893D01*
X113445369Y-134984488D01*
X113445372Y-134984489D01*
X113659182Y-135057890D01*
X113659184Y-135057890D01*
X113659186Y-135057891D01*
X113882167Y-135095100D01*
X113882168Y-135095100D01*
X114108232Y-135095100D01*
X114108233Y-135095100D01*
X114331214Y-135057891D01*
X114545031Y-134984488D01*
X114743849Y-134876893D01*
X114922246Y-134738040D01*
X115022032Y-134629643D01*
X115075349Y-134571727D01*
X115075351Y-134571724D01*
X115075356Y-134571719D01*
X115199002Y-134382465D01*
X115289811Y-134175441D01*
X115345307Y-133956293D01*
X115363975Y-133731000D01*
X115363975Y-133730993D01*
X115350907Y-133573294D01*
X115345307Y-133505707D01*
X115289811Y-133286559D01*
X115199002Y-133079535D01*
X115183057Y-133055130D01*
X115118824Y-132956814D01*
X115075356Y-132890281D01*
X115075353Y-132890278D01*
X115075349Y-132890272D01*
X114922249Y-132723963D01*
X114922248Y-132723962D01*
X114922246Y-132723960D01*
X114743849Y-132585107D01*
X114630564Y-132523800D01*
X114545032Y-132477512D01*
X114545027Y-132477510D01*
X114331217Y-132404109D01*
X114163978Y-132376202D01*
X114108233Y-132366900D01*
X113882167Y-132366900D01*
X113837570Y-132374341D01*
X113659182Y-132404109D01*
X113445372Y-132477510D01*
X113445367Y-132477512D01*
X113246552Y-132585106D01*
X113068155Y-132723959D01*
X113068150Y-132723963D01*
X112915050Y-132890272D01*
X112915042Y-132890283D01*
X112829008Y-133021968D01*
X112775862Y-133067325D01*
X112706630Y-133076748D01*
X112643295Y-133047246D01*
X112621392Y-133021968D01*
X112535357Y-132890283D01*
X112535349Y-132890272D01*
X112382249Y-132723963D01*
X112382248Y-132723962D01*
X112382246Y-132723960D01*
X112203849Y-132585107D01*
X112090564Y-132523800D01*
X112005032Y-132477512D01*
X112005027Y-132477510D01*
X111791217Y-132404109D01*
X111623978Y-132376202D01*
X111568233Y-132366900D01*
X111342167Y-132366900D01*
X111297570Y-132374341D01*
X111119182Y-132404109D01*
X110905372Y-132477510D01*
X110905367Y-132477512D01*
X110706552Y-132585106D01*
X110528155Y-132723959D01*
X110528150Y-132723963D01*
X110375050Y-132890272D01*
X110375042Y-132890283D01*
X110289008Y-133021968D01*
X110235862Y-133067325D01*
X110166630Y-133076748D01*
X110103295Y-133047246D01*
X110081392Y-133021968D01*
X109995357Y-132890283D01*
X109995349Y-132890272D01*
X109842249Y-132723963D01*
X109842248Y-132723962D01*
X109842246Y-132723960D01*
X109663849Y-132585107D01*
X109550564Y-132523800D01*
X109465032Y-132477512D01*
X109465027Y-132477510D01*
X109251217Y-132404109D01*
X109083978Y-132376202D01*
X109028233Y-132366900D01*
X108802167Y-132366900D01*
X108757570Y-132374341D01*
X108579182Y-132404109D01*
X108365372Y-132477510D01*
X108365367Y-132477512D01*
X108166552Y-132585106D01*
X108005256Y-132710649D01*
X107940261Y-132736292D01*
X107871722Y-132722726D01*
X107841412Y-132700477D01*
X107469316Y-132328381D01*
X107435831Y-132267058D01*
X107440815Y-132197366D01*
X107482687Y-132141433D01*
X107548151Y-132117016D01*
X107556997Y-132116700D01*
X115731903Y-132116700D01*
X115798942Y-132136385D01*
G37*
%TD.AperFunction*%
%TD*%
M02*
