%TF.GenerationSoftware,KiCad,Pcbnew,8.0.4+dfsg-1*%
%TF.CreationDate,2024-12-19T01:42:37-05:00*%
%TF.ProjectId,VGA_SRAM_COMP,5647415f-5352-4414-9d5f-434f4d502e6b,rev?*%
%TF.SameCoordinates,Original*%
%TF.FileFunction,Paste,Top*%
%TF.FilePolarity,Positive*%
%FSLAX46Y46*%
G04 Gerber Fmt 4.6, Leading zero omitted, Abs format (unit mm)*
G04 Created by KiCad (PCBNEW 8.0.4+dfsg-1) date 2024-12-19 01:42:37*
%MOMM*%
%LPD*%
G01*
G04 APERTURE LIST*
G04 Aperture macros list*
%AMRoundRect*
0 Rectangle with rounded corners*
0 $1 Rounding radius*
0 $2 $3 $4 $5 $6 $7 $8 $9 X,Y pos of 4 corners*
0 Add a 4 corners polygon primitive as box body*
4,1,4,$2,$3,$4,$5,$6,$7,$8,$9,$2,$3,0*
0 Add four circle primitives for the rounded corners*
1,1,$1+$1,$2,$3*
1,1,$1+$1,$4,$5*
1,1,$1+$1,$6,$7*
1,1,$1+$1,$8,$9*
0 Add four rect primitives between the rounded corners*
20,1,$1+$1,$2,$3,$4,$5,0*
20,1,$1+$1,$4,$5,$6,$7,0*
20,1,$1+$1,$6,$7,$8,$9,0*
20,1,$1+$1,$8,$9,$2,$3,0*%
G04 Aperture macros list end*
%ADD10RoundRect,0.150000X-0.800000X-0.150000X0.800000X-0.150000X0.800000X0.150000X-0.800000X0.150000X0*%
%ADD11RoundRect,0.150000X-0.825000X-0.150000X0.825000X-0.150000X0.825000X0.150000X-0.825000X0.150000X0*%
%ADD12RoundRect,0.150000X-0.725000X-0.150000X0.725000X-0.150000X0.725000X0.150000X-0.725000X0.150000X0*%
%ADD13RoundRect,0.137500X-0.625000X-0.137500X0.625000X-0.137500X0.625000X0.137500X-0.625000X0.137500X0*%
%ADD14RoundRect,0.250000X-0.262500X-0.450000X0.262500X-0.450000X0.262500X0.450000X-0.262500X0.450000X0*%
%ADD15RoundRect,0.250000X0.450000X-0.262500X0.450000X0.262500X-0.450000X0.262500X-0.450000X-0.262500X0*%
%ADD16RoundRect,0.250000X-0.450000X0.262500X-0.450000X-0.262500X0.450000X-0.262500X0.450000X0.262500X0*%
%ADD17R,0.700000X1.600000*%
%ADD18R,1.200000X2.200000*%
%ADD19R,1.600000X1.400000*%
%ADD20R,1.200000X1.400000*%
%ADD21RoundRect,0.250000X-1.050000X-0.550000X1.050000X-0.550000X1.050000X0.550000X-1.050000X0.550000X0*%
%ADD22RoundRect,0.250000X-0.250000X-0.475000X0.250000X-0.475000X0.250000X0.475000X-0.250000X0.475000X0*%
G04 APERTURE END LIST*
D10*
%TO.C,U20*%
X84875000Y-117200000D03*
X84875000Y-118470000D03*
X84875000Y-119740000D03*
X84875000Y-121010000D03*
X84875000Y-122280000D03*
X84875000Y-123550000D03*
X84875000Y-124820000D03*
X84875000Y-126090000D03*
X84875000Y-127360000D03*
X84875000Y-128630000D03*
X94075000Y-128630000D03*
X94075000Y-127360000D03*
X94075000Y-126090000D03*
X94075000Y-124820000D03*
X94075000Y-123550000D03*
X94075000Y-122280000D03*
X94075000Y-121010000D03*
X94075000Y-119740000D03*
X94075000Y-118470000D03*
X94075000Y-117200000D03*
%TD*%
D11*
%TO.C,U19*%
X119175000Y-102580000D03*
X119175000Y-103850000D03*
X119175000Y-105120000D03*
X119175000Y-106390000D03*
X119175000Y-107660000D03*
X119175000Y-108930000D03*
X119175000Y-110200000D03*
X124125000Y-110200000D03*
X124125000Y-108930000D03*
X124125000Y-107660000D03*
X124125000Y-106390000D03*
X124125000Y-105120000D03*
X124125000Y-103850000D03*
X124125000Y-102580000D03*
%TD*%
D10*
%TO.C,U18*%
X72225000Y-117200000D03*
X72225000Y-118470000D03*
X72225000Y-119740000D03*
X72225000Y-121010000D03*
X72225000Y-122280000D03*
X72225000Y-123550000D03*
X72225000Y-124820000D03*
X72225000Y-126090000D03*
X72225000Y-127360000D03*
X72225000Y-128630000D03*
X81425000Y-128630000D03*
X81425000Y-127360000D03*
X81425000Y-126090000D03*
X81425000Y-124820000D03*
X81425000Y-123550000D03*
X81425000Y-122280000D03*
X81425000Y-121010000D03*
X81425000Y-119740000D03*
X81425000Y-118470000D03*
X81425000Y-117200000D03*
%TD*%
D11*
%TO.C,U17*%
X119175000Y-90960000D03*
X119175000Y-92230000D03*
X119175000Y-93500000D03*
X119175000Y-94770000D03*
X119175000Y-96040000D03*
X119175000Y-97310000D03*
X119175000Y-98580000D03*
X124125000Y-98580000D03*
X124125000Y-97310000D03*
X124125000Y-96040000D03*
X124125000Y-94770000D03*
X124125000Y-93500000D03*
X124125000Y-92230000D03*
X124125000Y-90960000D03*
%TD*%
%TO.C,U16*%
X110525000Y-102580000D03*
X110525000Y-103850000D03*
X110525000Y-105120000D03*
X110525000Y-106390000D03*
X110525000Y-107660000D03*
X110525000Y-108930000D03*
X110525000Y-110200000D03*
X115475000Y-110200000D03*
X115475000Y-108930000D03*
X115475000Y-107660000D03*
X115475000Y-106390000D03*
X115475000Y-105120000D03*
X115475000Y-103850000D03*
X115475000Y-102580000D03*
%TD*%
%TO.C,U15*%
X110525000Y-90960000D03*
X110525000Y-92230000D03*
X110525000Y-93500000D03*
X110525000Y-94770000D03*
X110525000Y-96040000D03*
X110525000Y-97310000D03*
X110525000Y-98580000D03*
X115475000Y-98580000D03*
X115475000Y-97310000D03*
X115475000Y-96040000D03*
X115475000Y-94770000D03*
X115475000Y-93500000D03*
X115475000Y-92230000D03*
X115475000Y-90960000D03*
%TD*%
D10*
%TO.C,U14*%
X59575000Y-117200000D03*
X59575000Y-118470000D03*
X59575000Y-119740000D03*
X59575000Y-121010000D03*
X59575000Y-122280000D03*
X59575000Y-123550000D03*
X59575000Y-124820000D03*
X59575000Y-126090000D03*
X59575000Y-127360000D03*
X59575000Y-128630000D03*
X68775000Y-128630000D03*
X68775000Y-127360000D03*
X68775000Y-126090000D03*
X68775000Y-124820000D03*
X68775000Y-123550000D03*
X68775000Y-122280000D03*
X68775000Y-121010000D03*
X68775000Y-119740000D03*
X68775000Y-118470000D03*
X68775000Y-117200000D03*
%TD*%
%TO.C,U13*%
X97525000Y-102720000D03*
X97525000Y-103990000D03*
X97525000Y-105260000D03*
X97525000Y-106530000D03*
X97525000Y-107800000D03*
X97525000Y-109070000D03*
X97525000Y-110340000D03*
X97525000Y-111610000D03*
X97525000Y-112880000D03*
X97525000Y-114150000D03*
X106725000Y-114150000D03*
X106725000Y-112880000D03*
X106725000Y-111610000D03*
X106725000Y-110340000D03*
X106725000Y-109070000D03*
X106725000Y-107800000D03*
X106725000Y-106530000D03*
X106725000Y-105260000D03*
X106725000Y-103990000D03*
X106725000Y-102720000D03*
%TD*%
%TO.C,U12*%
X84875000Y-102720000D03*
X84875000Y-103990000D03*
X84875000Y-105260000D03*
X84875000Y-106530000D03*
X84875000Y-107800000D03*
X84875000Y-109070000D03*
X84875000Y-110340000D03*
X84875000Y-111610000D03*
X84875000Y-112880000D03*
X84875000Y-114150000D03*
X94075000Y-114150000D03*
X94075000Y-112880000D03*
X94075000Y-111610000D03*
X94075000Y-110340000D03*
X94075000Y-109070000D03*
X94075000Y-107800000D03*
X94075000Y-106530000D03*
X94075000Y-105260000D03*
X94075000Y-103990000D03*
X94075000Y-102720000D03*
%TD*%
%TO.C,U11*%
X72225000Y-102720000D03*
X72225000Y-103990000D03*
X72225000Y-105260000D03*
X72225000Y-106530000D03*
X72225000Y-107800000D03*
X72225000Y-109070000D03*
X72225000Y-110340000D03*
X72225000Y-111610000D03*
X72225000Y-112880000D03*
X72225000Y-114150000D03*
X81425000Y-114150000D03*
X81425000Y-112880000D03*
X81425000Y-111610000D03*
X81425000Y-110340000D03*
X81425000Y-109070000D03*
X81425000Y-107800000D03*
X81425000Y-106530000D03*
X81425000Y-105260000D03*
X81425000Y-103990000D03*
X81425000Y-102720000D03*
%TD*%
D12*
%TO.C,U10*%
X101750000Y-90960000D03*
X101750000Y-92230000D03*
X101750000Y-93500000D03*
X101750000Y-94770000D03*
X101750000Y-96040000D03*
X101750000Y-97310000D03*
X101750000Y-98580000D03*
X101750000Y-99850000D03*
X106900000Y-99850000D03*
X106900000Y-98580000D03*
X106900000Y-97310000D03*
X106900000Y-96040000D03*
X106900000Y-94770000D03*
X106900000Y-93500000D03*
X106900000Y-92230000D03*
X106900000Y-90960000D03*
%TD*%
%TO.C,U7*%
X93300000Y-90960000D03*
X93300000Y-92230000D03*
X93300000Y-93500000D03*
X93300000Y-94770000D03*
X93300000Y-96040000D03*
X93300000Y-97310000D03*
X93300000Y-98580000D03*
X93300000Y-99850000D03*
X98450000Y-99850000D03*
X98450000Y-98580000D03*
X98450000Y-97310000D03*
X98450000Y-96040000D03*
X98450000Y-94770000D03*
X98450000Y-93500000D03*
X98450000Y-92230000D03*
X98450000Y-90960000D03*
%TD*%
%TO.C,U6*%
X84850000Y-90960000D03*
X84850000Y-92230000D03*
X84850000Y-93500000D03*
X84850000Y-94770000D03*
X84850000Y-96040000D03*
X84850000Y-97310000D03*
X84850000Y-98580000D03*
X84850000Y-99850000D03*
X90000000Y-99850000D03*
X90000000Y-98580000D03*
X90000000Y-97310000D03*
X90000000Y-96040000D03*
X90000000Y-94770000D03*
X90000000Y-93500000D03*
X90000000Y-92230000D03*
X90000000Y-90960000D03*
%TD*%
%TO.C,U5*%
X76400000Y-90960000D03*
X76400000Y-92230000D03*
X76400000Y-93500000D03*
X76400000Y-94770000D03*
X76400000Y-96040000D03*
X76400000Y-97310000D03*
X76400000Y-98580000D03*
X76400000Y-99850000D03*
X81550000Y-99850000D03*
X81550000Y-98580000D03*
X81550000Y-97310000D03*
X81550000Y-96040000D03*
X81550000Y-94770000D03*
X81550000Y-93500000D03*
X81550000Y-92230000D03*
X81550000Y-90960000D03*
%TD*%
%TO.C,U4*%
X67950000Y-90960000D03*
X67950000Y-92230000D03*
X67950000Y-93500000D03*
X67950000Y-94770000D03*
X67950000Y-96040000D03*
X67950000Y-97310000D03*
X67950000Y-98580000D03*
X67950000Y-99850000D03*
X73100000Y-99850000D03*
X73100000Y-98580000D03*
X73100000Y-97310000D03*
X73100000Y-96040000D03*
X73100000Y-94770000D03*
X73100000Y-93500000D03*
X73100000Y-92230000D03*
X73100000Y-90960000D03*
%TD*%
%TO.C,U3*%
X59500000Y-90960000D03*
X59500000Y-92230000D03*
X59500000Y-93500000D03*
X59500000Y-94770000D03*
X59500000Y-96040000D03*
X59500000Y-97310000D03*
X59500000Y-98580000D03*
X59500000Y-99850000D03*
X64650000Y-99850000D03*
X64650000Y-98580000D03*
X64650000Y-97310000D03*
X64650000Y-96040000D03*
X64650000Y-94770000D03*
X64650000Y-93500000D03*
X64650000Y-92230000D03*
X64650000Y-90960000D03*
%TD*%
D10*
%TO.C,U2*%
X59575000Y-102720000D03*
X59575000Y-103990000D03*
X59575000Y-105260000D03*
X59575000Y-106530000D03*
X59575000Y-107800000D03*
X59575000Y-109070000D03*
X59575000Y-110340000D03*
X59575000Y-111610000D03*
X59575000Y-112880000D03*
X59575000Y-114150000D03*
X68775000Y-114150000D03*
X68775000Y-112880000D03*
X68775000Y-111610000D03*
X68775000Y-110340000D03*
X68775000Y-109070000D03*
X68775000Y-107800000D03*
X68775000Y-106530000D03*
X68775000Y-105260000D03*
X68775000Y-103990000D03*
X68775000Y-102720000D03*
%TD*%
D13*
%TO.C,U1*%
X116612500Y-114000000D03*
X116612500Y-114800000D03*
X116612500Y-115600000D03*
X116612500Y-116400000D03*
X116612500Y-117200000D03*
X116612500Y-118000000D03*
X116612500Y-118800000D03*
X116612500Y-119600000D03*
X116612500Y-120400000D03*
X116612500Y-121200000D03*
X116612500Y-122000000D03*
X116612500Y-122800000D03*
X116612500Y-123600000D03*
X116612500Y-124400000D03*
X116612500Y-125200000D03*
X116612500Y-126000000D03*
X116612500Y-126800000D03*
X116612500Y-127600000D03*
X116612500Y-128400000D03*
X116612500Y-129200000D03*
X116612500Y-130000000D03*
X116612500Y-130800000D03*
X127787500Y-130800000D03*
X127787500Y-130000000D03*
X127787500Y-129200000D03*
X127787500Y-128400000D03*
X127787500Y-127600000D03*
X127787500Y-126800000D03*
X127787500Y-126000000D03*
X127787500Y-125200000D03*
X127787500Y-124400000D03*
X127787500Y-123600000D03*
X127787500Y-122800000D03*
X127787500Y-122000000D03*
X127787500Y-121200000D03*
X127787500Y-120400000D03*
X127787500Y-119600000D03*
X127787500Y-118800000D03*
X127787500Y-118000000D03*
X127787500Y-117200000D03*
X127787500Y-116400000D03*
X127787500Y-115600000D03*
X127787500Y-114800000D03*
X127787500Y-114000000D03*
%TD*%
D14*
%TO.C,R14*%
X127175000Y-101000000D03*
X129000000Y-101000000D03*
%TD*%
%TO.C,R13*%
X127175000Y-98000000D03*
X129000000Y-98000000D03*
%TD*%
D15*
%TO.C,R12*%
X91500000Y-88000000D03*
X91500000Y-86175000D03*
%TD*%
%TO.C,R11*%
X91500000Y-81000000D03*
X91500000Y-79175000D03*
%TD*%
%TO.C,R10*%
X110750000Y-59837500D03*
X110750000Y-58012500D03*
%TD*%
D16*
%TO.C,R9*%
X110744000Y-61525000D03*
X110744000Y-63350000D03*
%TD*%
D14*
%TO.C,R8*%
X66500000Y-75000000D03*
X68325000Y-75000000D03*
%TD*%
%TO.C,R7*%
X66500000Y-77000000D03*
X68325000Y-77000000D03*
%TD*%
%TO.C,R6*%
X77912500Y-75000000D03*
X76087500Y-75000000D03*
%TD*%
%TO.C,R5*%
X77912500Y-77100000D03*
X76087500Y-77100000D03*
%TD*%
%TO.C,R4*%
X66500000Y-73000000D03*
X68325000Y-73000000D03*
%TD*%
%TO.C,R3*%
X77912500Y-73000000D03*
X76087500Y-73000000D03*
%TD*%
%TO.C,R2*%
X85087500Y-75000000D03*
X86912500Y-75000000D03*
%TD*%
%TO.C,R1*%
X85087500Y-73000000D03*
X86912500Y-73000000D03*
%TD*%
D17*
%TO.C,J4*%
X108062532Y-117537545D03*
X106962532Y-117537545D03*
X105862532Y-117537545D03*
X104762532Y-117537545D03*
X103662532Y-117537545D03*
X102562532Y-117537545D03*
X101462532Y-117537545D03*
X100362532Y-117537545D03*
X99262532Y-117537545D03*
D18*
X113562532Y-127637545D03*
D19*
X112662532Y-118037545D03*
D18*
X98062532Y-127637545D03*
D20*
X98062532Y-118037545D03*
%TD*%
D21*
%TO.C,C9*%
X60200000Y-74800000D03*
X63800000Y-74800000D03*
%TD*%
D22*
%TO.C,C8*%
X128966000Y-93726000D03*
X127066000Y-93726000D03*
%TD*%
%TO.C,C7*%
X128966000Y-91606000D03*
X127066000Y-91606000D03*
%TD*%
%TO.C,C5*%
X127066000Y-89536000D03*
X128966000Y-89536000D03*
%TD*%
%TO.C,C3*%
X127132000Y-87122000D03*
X129032000Y-87122000D03*
%TD*%
%TO.C,C2*%
X127066000Y-84836000D03*
X128966000Y-84836000D03*
%TD*%
%TO.C,C1*%
X127150000Y-95900000D03*
X129050000Y-95900000D03*
%TD*%
M02*
