%TF.GenerationSoftware,KiCad,Pcbnew,8.0.4+dfsg-1*%
%TF.CreationDate,2024-12-19T01:42:38-05:00*%
%TF.ProjectId,VGA_SRAM_COMP,5647415f-5352-4414-9d5f-434f4d502e6b,rev?*%
%TF.SameCoordinates,Original*%
%TF.FileFunction,Soldermask,Bot*%
%TF.FilePolarity,Negative*%
%FSLAX46Y46*%
G04 Gerber Fmt 4.6, Leading zero omitted, Abs format (unit mm)*
G04 Created by KiCad (PCBNEW 8.0.4+dfsg-1) date 2024-12-19 01:42:38*
%MOMM*%
%LPD*%
G01*
G04 APERTURE LIST*
%ADD10R,1.700000X1.700000*%
%ADD11O,1.700000X1.700000*%
%ADD12R,1.600000X1.600000*%
%ADD13C,1.600000*%
%ADD14O,1.600000X1.600000*%
%ADD15R,1.500000X1.500000*%
%ADD16C,1.500000*%
%ADD17C,3.500000*%
%ADD18C,0.900000*%
%ADD19C,4.000000*%
G04 APERTURE END LIST*
D10*
%TO.C,J8*%
X137000000Y-91680000D03*
D11*
X139540000Y-91680000D03*
X137000000Y-94220000D03*
X139540000Y-94220000D03*
X137000000Y-96760000D03*
X139540000Y-96760000D03*
X137000000Y-99300000D03*
X139540000Y-99300000D03*
X137000000Y-101840000D03*
X139540000Y-101840000D03*
X137000000Y-104380000D03*
X139540000Y-104380000D03*
X137000000Y-106920000D03*
X139540000Y-106920000D03*
X137000000Y-109460000D03*
X139540000Y-109460000D03*
X137000000Y-112000000D03*
X139540000Y-112000000D03*
X137000000Y-114540000D03*
X139540000Y-114540000D03*
%TD*%
D10*
%TO.C,J7*%
X137000000Y-120880000D03*
D11*
X139540000Y-120880000D03*
X137000000Y-123420000D03*
X139540000Y-123420000D03*
X137000000Y-125960000D03*
X139540000Y-125960000D03*
X137000000Y-128500000D03*
X139540000Y-128500000D03*
%TD*%
%TO.C,J1*%
X139500000Y-83660000D03*
X136960000Y-83660000D03*
X139500000Y-81120000D03*
X136960000Y-81120000D03*
X139500000Y-78580000D03*
X136960000Y-78580000D03*
X139500000Y-76040000D03*
X136960000Y-76040000D03*
X139500000Y-73500000D03*
X136960000Y-73500000D03*
X139500000Y-70960000D03*
X136960000Y-70960000D03*
X139500000Y-68420000D03*
X136960000Y-68420000D03*
X139500000Y-65880000D03*
X136960000Y-65880000D03*
X139500000Y-63340000D03*
X136960000Y-63340000D03*
X139500000Y-60800000D03*
D10*
X136960000Y-60800000D03*
%TD*%
D12*
%TO.C,X1*%
X128016000Y-67056000D03*
D13*
X112776000Y-67056000D03*
X112776000Y-74676000D03*
X128016000Y-74676000D03*
%TD*%
D12*
%TO.C,U9*%
X94840000Y-87200000D03*
D14*
X97380000Y-87200000D03*
X99920000Y-87200000D03*
X102460000Y-87200000D03*
X105000000Y-87200000D03*
X107540000Y-87200000D03*
X110080000Y-87200000D03*
X112620000Y-87200000D03*
X115160000Y-87200000D03*
X117700000Y-87200000D03*
X120240000Y-87200000D03*
X122780000Y-87200000D03*
X122780000Y-79580000D03*
X120240000Y-79580000D03*
X117700000Y-79580000D03*
X115160000Y-79580000D03*
X112620000Y-79580000D03*
X110080000Y-79580000D03*
X107540000Y-79580000D03*
X105000000Y-79580000D03*
X102460000Y-79580000D03*
X99920000Y-79580000D03*
X97380000Y-79580000D03*
X94840000Y-79580000D03*
%TD*%
D12*
%TO.C,U8*%
X60100000Y-87300000D03*
D14*
X62640000Y-87300000D03*
X65180000Y-87300000D03*
X67720000Y-87300000D03*
X70260000Y-87300000D03*
X72800000Y-87300000D03*
X75340000Y-87300000D03*
X77880000Y-87300000D03*
X80420000Y-87300000D03*
X82960000Y-87300000D03*
X85500000Y-87300000D03*
X88040000Y-87300000D03*
X88040000Y-79680000D03*
X85500000Y-79680000D03*
X82960000Y-79680000D03*
X80420000Y-79680000D03*
X77880000Y-79680000D03*
X75340000Y-79680000D03*
X72800000Y-79680000D03*
X70260000Y-79680000D03*
X67720000Y-79680000D03*
X65180000Y-79680000D03*
X62640000Y-79680000D03*
X60100000Y-79680000D03*
%TD*%
D10*
%TO.C,JP1*%
X113792000Y-59436000D03*
D11*
X113792000Y-61976000D03*
%TD*%
D10*
%TO.C,J6*%
X127975000Y-109025000D03*
D11*
X127975000Y-106485000D03*
X127975000Y-103945000D03*
%TD*%
D15*
%TO.C,J5*%
X104084000Y-70542300D03*
D16*
X101584000Y-70542300D03*
X99584000Y-70542300D03*
X97084000Y-70542300D03*
X104084000Y-73162300D03*
X101584000Y-73162300D03*
X99584000Y-73162300D03*
X97084000Y-73162300D03*
D17*
X107154000Y-67832300D03*
X94014000Y-67832300D03*
X107154000Y-73512300D03*
X94014000Y-73512300D03*
%TD*%
D18*
%TO.C,J4*%
X108862532Y-128037545D03*
X100862532Y-128037545D03*
%TD*%
D13*
%TO.C,J3*%
X79680000Y-65700000D03*
X77390000Y-65700000D03*
X75100000Y-65700000D03*
X72810000Y-65700000D03*
X70520000Y-65700000D03*
X78535000Y-67680000D03*
X76245000Y-67680000D03*
X73955000Y-67680000D03*
X71665000Y-67680000D03*
X69375000Y-67680000D03*
X79680000Y-69660000D03*
X77390000Y-69660000D03*
X75100000Y-69660000D03*
X72810000Y-69660000D03*
D12*
X70520000Y-69660000D03*
D19*
X62335000Y-68240000D03*
X87335000Y-68240000D03*
%TD*%
D10*
%TO.C,J2*%
X123444000Y-59436000D03*
D11*
X120904000Y-59436000D03*
X123444000Y-61976000D03*
X120904000Y-61976000D03*
%TD*%
M02*
