M48
; DRILL file {KiCad 8.0.4+dfsg-1} date 2024-12-19T01:42:41-0500
; FORMAT={-:-/ absolute / inch / decimal}
; #@! TF.CreationDate,2024-12-19T01:42:41-05:00
; #@! TF.GenerationSoftware,Kicad,Pcbnew,8.0.4+dfsg-1
; #@! TF.FileFunction,Plated,1,4,PTH
FMAT,2
INCH
; #@! TA.AperFunction,Plated,PTH,ViaDrill
T1C0.0118
; #@! TA.AperFunction,Plated,PTH,ComponentDrill
T2C0.0315
; #@! TA.AperFunction,Plated,PTH,ComponentDrill
T3C0.0362
; #@! TA.AperFunction,Plated,PTH,ComponentDrill
T4C0.0394
; #@! TA.AperFunction,Plated,PTH,ComponentDrill
T5C0.0906
; #@! TA.AperFunction,Plated,PTH,ComponentDrill
T6C0.1260
%
G90
G05
T1
X2.2982Y-4.2598
X2.3024Y-4.1152
X2.3976Y-4.9408
X2.4023Y-4.3116
X2.4026Y-4.7642
X2.4026Y-4.1558
X2.4027Y-4.6195
X2.4027Y-4.9009
X2.4027Y-4.3677
X2.4027Y-4.236
X2.4029Y-4.6714
X2.4032Y-4.8024
X2.4292Y-5.0166
X2.458Y-4.7321
X2.4839Y-4.4066
X2.5328Y-4.4545
X2.5468Y-3.5229
X2.578Y-2.874
X2.6115Y-3.6335
X2.6151Y-4.3835
X2.6154Y-3.6941
X2.6155Y-3.8415
X2.6158Y-4.4925
X2.6181Y-3.2054
X2.6435Y-4.3216
X2.7222Y-3.8557
X2.7397Y-3.628
X2.7466Y-3.8798
X2.7649Y-4.2087
X2.7649Y-4.0984
X2.7655Y-4.3441
X2.7656Y-4.6515
X2.7657Y-4.2562
X2.7675Y-4.8387
X2.7762Y-4.7801
X2.7825Y-4.8711
X2.7932Y-3.6273
X2.8713Y-4.5812
X2.8942Y-4.3209
X2.8957Y-4.6907
X2.9008Y-4.3576
X2.9012Y-4.1941
X2.9013Y-4.0905
X2.9013Y-4.4284
X2.9014Y-4.2841
X2.9016Y-4.2441
X2.9102Y-4.1305
X2.9141Y-4.1624
X2.9146Y-4.0099
X2.9228Y-3.1758
X2.9591Y-4.4876
X2.963Y-2.9903
X2.9906Y-4.4566
X3.0205Y-4.4408
X3.0313Y-2.9097
X3.055Y-4.5022
X3.0768Y-4.7699
X3.1101Y-3.6302
X3.1215Y-3.7071
X3.1453Y-2.9508
X3.1545Y-4.6376
X3.2345Y-2.874
X3.2578Y-4.4156
X3.2629Y-4.6642
X3.2634Y-4.3046
X3.2639Y-4.1501
X3.2706Y-4.5489
X3.2735Y-4.2614
X3.2812Y-3.6811
X3.2826Y-4.3594
X3.2828Y-3.713
X3.3972Y-4.3696
X3.3987Y-4.2821
X3.3987Y-4.0941
X3.3987Y-4.6642
X3.3989Y-4.4015
X3.3996Y-4.8249
X3.3997Y-4.1941
X3.4122Y-4.3208
X3.4482Y-4.2184
X3.4489Y-4.0691
X3.4549Y-3.736
X3.4716Y-3.6226
X3.4819Y-3.3441
X3.5087Y-4.7683
X3.5117Y-4.7142
X3.5124Y-4.1954
X3.6009Y-4.1483
X3.6043Y-3.6267
X3.6126Y-3.8248
X3.6536Y-3.5389
X3.7611Y-4.6743
X3.762Y-4.1441
X3.7777Y-4.3363
X3.7819Y-4.299
X3.8002Y-4.7687
X3.8112Y-4.9357
X3.8223Y-3.8503
X3.8286Y-3.7554
X3.8968Y-4.1943
X3.8975Y-4.3931
X3.8989Y-4.2819
X3.9016Y-4.7677
X3.911Y-4.9594
X3.9259Y-4.4315
X3.9271Y-4.2432
X3.9513Y-3.671
X3.9516Y-3.5939
X4.0292Y-4.5262
X4.0702Y-3.6414
X4.0993Y-3.7048
X4.1445Y-4.3423
X4.1535Y-3.6463
X4.1541Y-3.8292
X4.169Y-4.6996
X4.185Y-4.5262
X4.2188Y-4.6996
X4.2537Y-4.3161
X4.2852Y-4.3264
X4.2893Y-4.4367
X4.2917Y-4.2634
X4.2923Y-4.0891
X4.2928Y-3.596
X4.293Y-3.7238
X4.3261Y-4.4374
X4.3354Y-4.6043
X4.3727Y-4.3788
X4.3886Y-4.6022
X4.4096Y-4.1808
X4.4291Y-3.8023
X4.4388Y-4.4538
X4.4946Y-4.2149
X4.5021Y-4.539
X4.5187Y-4.5689
X4.5217Y-4.7222
X4.5246Y-5.0561
X4.5295Y-5.1447
X4.5325Y-5.0207
X4.612Y-4.3281
X4.6152Y-3.3579
X4.6185Y-4.4392
X4.6347Y-4.2665
X4.6614Y-4.8195
X4.6614Y-4.8937
X4.6954Y-4.8559
X4.6981Y-4.7222
X4.7091Y-5.0469
X4.7163Y-3.9131
X4.7447Y-3.8042
X4.8449Y-4.9025
X4.8593Y-5.0689
X4.8645Y-3.9951
X4.8661Y-4.5629
X4.9346Y-4.8932
X4.9398Y-4.9602
X4.9435Y-5.0223
X4.9516Y-3.7542
X4.9587Y-5.1348
X4.9616Y-4.4567
X4.9656Y-5.0846
X4.9685Y-4.5512
X4.9717Y-3.8231
X4.9818Y-2.9944
X5.0915Y-5.1191
X5.0965Y-4.8061
X5.1083Y-4.5886
X5.1112Y-4.7008
X5.1128Y-3.5712
T2
X2.3661Y-3.137
X2.3661Y-3.437
X2.4661Y-3.137
X2.4661Y-3.437
X2.5661Y-3.137
X2.5661Y-3.437
X2.6661Y-3.137
X2.6661Y-3.437
X2.7661Y-3.137
X2.7661Y-3.437
X2.8661Y-3.137
X2.8661Y-3.437
X2.9661Y-3.137
X2.9661Y-3.437
X3.0661Y-3.137
X3.0661Y-3.437
X3.1661Y-3.137
X3.1661Y-3.437
X3.2661Y-3.137
X3.2661Y-3.437
X3.3661Y-3.137
X3.3661Y-3.437
X3.4661Y-3.137
X3.4661Y-3.437
X3.7339Y-3.1331
X3.7339Y-3.4331
X3.8339Y-3.1331
X3.8339Y-3.4331
X3.9339Y-3.1331
X3.9339Y-3.4331
X4.0339Y-3.1331
X4.0339Y-3.4331
X4.1339Y-3.1331
X4.1339Y-3.4331
X4.2339Y-3.1331
X4.2339Y-3.4331
X4.3339Y-3.1331
X4.3339Y-3.4331
X4.4339Y-3.1331
X4.4339Y-3.4331
X4.44Y-2.64
X4.44Y-2.94
X4.5339Y-3.1331
X4.5339Y-3.4331
X4.6339Y-3.1331
X4.6339Y-3.4331
X4.7339Y-3.1331
X4.7339Y-3.4331
X4.8339Y-3.1331
X4.8339Y-3.4331
X5.04Y-2.64
X5.04Y-2.94
T3
X3.8222Y-2.7773
X3.8222Y-2.8804
X3.9206Y-2.7773
X3.9206Y-2.8804
X3.9994Y-2.7773
X3.9994Y-2.8804
X4.0978Y-2.7773
X4.0978Y-2.8804
T4
X2.7313Y-2.6646
X2.7764Y-2.5866
X2.7764Y-2.7425
X2.8215Y-2.6646
X2.8665Y-2.5866
X2.8665Y-2.7425
X2.9116Y-2.6646
X2.9567Y-2.5866
X2.9567Y-2.7425
X3.0018Y-2.6646
X3.0469Y-2.5866
X3.0469Y-2.7425
X3.0919Y-2.6646
X3.137Y-2.5866
X3.137Y-2.7425
X4.48Y-2.34
X4.48Y-2.44
X4.76Y-2.34
X4.76Y-2.44
X4.86Y-2.34
X4.86Y-2.44
X5.0384Y-4.0923
X5.0384Y-4.1923
X5.0384Y-4.2923
X5.3921Y-2.3937
X5.3921Y-2.4937
X5.3921Y-2.5937
X5.3921Y-2.6937
X5.3921Y-2.7937
X5.3921Y-2.8937
X5.3921Y-2.9937
X5.3921Y-3.0937
X5.3921Y-3.1937
X5.3921Y-3.2937
X5.3937Y-3.6094
X5.3937Y-3.7094
X5.3937Y-3.8094
X5.3937Y-3.9094
X5.3937Y-4.0094
X5.3937Y-4.1094
X5.3937Y-4.2094
X5.3937Y-4.3094
X5.3937Y-4.4094
X5.3937Y-4.5094
X5.3937Y-4.7591
X5.3937Y-4.8591
X5.3937Y-4.9591
X5.3937Y-5.0591
X5.4921Y-2.3937
X5.4921Y-2.4937
X5.4921Y-2.5937
X5.4921Y-2.6937
X5.4921Y-2.7937
X5.4921Y-2.8937
X5.4921Y-2.9937
X5.4921Y-3.0937
X5.4921Y-3.1937
X5.4921Y-3.2937
X5.4937Y-3.6094
X5.4937Y-3.7094
X5.4937Y-3.8094
X5.4937Y-3.9094
X5.4937Y-4.0094
X5.4937Y-4.1094
X5.4937Y-4.2094
X5.4937Y-4.3094
X5.4937Y-4.4094
X5.4937Y-4.5094
X5.4937Y-4.7591
X5.4937Y-4.8591
X5.4937Y-4.9591
X5.4937Y-5.0591
T5
X3.7013Y-2.6706
X3.7013Y-2.8942
X4.2187Y-2.6706
X4.2187Y-2.8942
T6
X2.4541Y-2.6866
X3.4384Y-2.6866
M30
