%TF.GenerationSoftware,KiCad,Pcbnew,8.0.4+dfsg-1*%
%TF.CreationDate,2024-12-19T01:42:38-05:00*%
%TF.ProjectId,VGA_SRAM_COMP,5647415f-5352-4414-9d5f-434f4d502e6b,rev?*%
%TF.SameCoordinates,Original*%
%TF.FileFunction,Legend,Bot*%
%TF.FilePolarity,Positive*%
%FSLAX46Y46*%
G04 Gerber Fmt 4.6, Leading zero omitted, Abs format (unit mm)*
G04 Created by KiCad (PCBNEW 8.0.4+dfsg-1) date 2024-12-19 01:42:38*
%MOMM*%
%LPD*%
G01*
G04 APERTURE LIST*
%ADD10C,0.100000*%
G04 APERTURE END LIST*
D10*
X70613972Y-127612475D02*
X70280639Y-128612475D01*
X70280639Y-128612475D02*
X69947306Y-127612475D01*
X69090163Y-127660094D02*
X69185401Y-127612475D01*
X69185401Y-127612475D02*
X69328258Y-127612475D01*
X69328258Y-127612475D02*
X69471115Y-127660094D01*
X69471115Y-127660094D02*
X69566353Y-127755332D01*
X69566353Y-127755332D02*
X69613972Y-127850570D01*
X69613972Y-127850570D02*
X69661591Y-128041046D01*
X69661591Y-128041046D02*
X69661591Y-128183903D01*
X69661591Y-128183903D02*
X69613972Y-128374379D01*
X69613972Y-128374379D02*
X69566353Y-128469617D01*
X69566353Y-128469617D02*
X69471115Y-128564856D01*
X69471115Y-128564856D02*
X69328258Y-128612475D01*
X69328258Y-128612475D02*
X69233020Y-128612475D01*
X69233020Y-128612475D02*
X69090163Y-128564856D01*
X69090163Y-128564856D02*
X69042544Y-128517236D01*
X69042544Y-128517236D02*
X69042544Y-128183903D01*
X69042544Y-128183903D02*
X69233020Y-128183903D01*
X68661591Y-128326760D02*
X68185401Y-128326760D01*
X68756829Y-128612475D02*
X68423496Y-127612475D01*
X68423496Y-127612475D02*
X68090163Y-128612475D01*
X66994924Y-128612475D02*
X66994924Y-127612475D01*
X66994924Y-127612475D02*
X66613972Y-127612475D01*
X66613972Y-127612475D02*
X66518734Y-127660094D01*
X66518734Y-127660094D02*
X66471115Y-127707713D01*
X66471115Y-127707713D02*
X66423496Y-127802951D01*
X66423496Y-127802951D02*
X66423496Y-127945808D01*
X66423496Y-127945808D02*
X66471115Y-128041046D01*
X66471115Y-128041046D02*
X66518734Y-128088665D01*
X66518734Y-128088665D02*
X66613972Y-128136284D01*
X66613972Y-128136284D02*
X66994924Y-128136284D01*
X65423496Y-128517236D02*
X65471115Y-128564856D01*
X65471115Y-128564856D02*
X65613972Y-128612475D01*
X65613972Y-128612475D02*
X65709210Y-128612475D01*
X65709210Y-128612475D02*
X65852067Y-128564856D01*
X65852067Y-128564856D02*
X65947305Y-128469617D01*
X65947305Y-128469617D02*
X65994924Y-128374379D01*
X65994924Y-128374379D02*
X66042543Y-128183903D01*
X66042543Y-128183903D02*
X66042543Y-128041046D01*
X66042543Y-128041046D02*
X65994924Y-127850570D01*
X65994924Y-127850570D02*
X65947305Y-127755332D01*
X65947305Y-127755332D02*
X65852067Y-127660094D01*
X65852067Y-127660094D02*
X65709210Y-127612475D01*
X65709210Y-127612475D02*
X65613972Y-127612475D01*
X65613972Y-127612475D02*
X65471115Y-127660094D01*
X65471115Y-127660094D02*
X65423496Y-127707713D01*
X63899686Y-128088665D02*
X63756829Y-128136284D01*
X63756829Y-128136284D02*
X63709210Y-128183903D01*
X63709210Y-128183903D02*
X63661591Y-128279141D01*
X63661591Y-128279141D02*
X63661591Y-128421998D01*
X63661591Y-128421998D02*
X63709210Y-128517236D01*
X63709210Y-128517236D02*
X63756829Y-128564856D01*
X63756829Y-128564856D02*
X63852067Y-128612475D01*
X63852067Y-128612475D02*
X64233019Y-128612475D01*
X64233019Y-128612475D02*
X64233019Y-127612475D01*
X64233019Y-127612475D02*
X63899686Y-127612475D01*
X63899686Y-127612475D02*
X63804448Y-127660094D01*
X63804448Y-127660094D02*
X63756829Y-127707713D01*
X63756829Y-127707713D02*
X63709210Y-127802951D01*
X63709210Y-127802951D02*
X63709210Y-127898189D01*
X63709210Y-127898189D02*
X63756829Y-127993427D01*
X63756829Y-127993427D02*
X63804448Y-128041046D01*
X63804448Y-128041046D02*
X63899686Y-128088665D01*
X63899686Y-128088665D02*
X64233019Y-128088665D01*
X63090162Y-128612475D02*
X63185400Y-128564856D01*
X63185400Y-128564856D02*
X63233019Y-128517236D01*
X63233019Y-128517236D02*
X63280638Y-128421998D01*
X63280638Y-128421998D02*
X63280638Y-128136284D01*
X63280638Y-128136284D02*
X63233019Y-128041046D01*
X63233019Y-128041046D02*
X63185400Y-127993427D01*
X63185400Y-127993427D02*
X63090162Y-127945808D01*
X63090162Y-127945808D02*
X62947305Y-127945808D01*
X62947305Y-127945808D02*
X62852067Y-127993427D01*
X62852067Y-127993427D02*
X62804448Y-128041046D01*
X62804448Y-128041046D02*
X62756829Y-128136284D01*
X62756829Y-128136284D02*
X62756829Y-128421998D01*
X62756829Y-128421998D02*
X62804448Y-128517236D01*
X62804448Y-128517236D02*
X62852067Y-128564856D01*
X62852067Y-128564856D02*
X62947305Y-128612475D01*
X62947305Y-128612475D02*
X63090162Y-128612475D01*
X61899686Y-128612475D02*
X61899686Y-128088665D01*
X61899686Y-128088665D02*
X61947305Y-127993427D01*
X61947305Y-127993427D02*
X62042543Y-127945808D01*
X62042543Y-127945808D02*
X62233019Y-127945808D01*
X62233019Y-127945808D02*
X62328257Y-127993427D01*
X61899686Y-128564856D02*
X61994924Y-128612475D01*
X61994924Y-128612475D02*
X62233019Y-128612475D01*
X62233019Y-128612475D02*
X62328257Y-128564856D01*
X62328257Y-128564856D02*
X62375876Y-128469617D01*
X62375876Y-128469617D02*
X62375876Y-128374379D01*
X62375876Y-128374379D02*
X62328257Y-128279141D01*
X62328257Y-128279141D02*
X62233019Y-128231522D01*
X62233019Y-128231522D02*
X61994924Y-128231522D01*
X61994924Y-128231522D02*
X61899686Y-128183903D01*
X61423495Y-128612475D02*
X61423495Y-127945808D01*
X61423495Y-128136284D02*
X61375876Y-128041046D01*
X61375876Y-128041046D02*
X61328257Y-127993427D01*
X61328257Y-127993427D02*
X61233019Y-127945808D01*
X61233019Y-127945808D02*
X61137781Y-127945808D01*
X60375876Y-128612475D02*
X60375876Y-127612475D01*
X60375876Y-128564856D02*
X60471114Y-128612475D01*
X60471114Y-128612475D02*
X60661590Y-128612475D01*
X60661590Y-128612475D02*
X60756828Y-128564856D01*
X60756828Y-128564856D02*
X60804447Y-128517236D01*
X60804447Y-128517236D02*
X60852066Y-128421998D01*
X60852066Y-128421998D02*
X60852066Y-128136284D01*
X60852066Y-128136284D02*
X60804447Y-128041046D01*
X60804447Y-128041046D02*
X60756828Y-127993427D01*
X60756828Y-127993427D02*
X60661590Y-127945808D01*
X60661590Y-127945808D02*
X60471114Y-127945808D01*
X60471114Y-127945808D02*
X60375876Y-127993427D01*
X70566353Y-129555752D02*
X70328258Y-130222419D01*
X70328258Y-130222419D02*
X70090163Y-129555752D01*
X68423496Y-130222419D02*
X68994924Y-130222419D01*
X68709210Y-130222419D02*
X68709210Y-129222419D01*
X68709210Y-129222419D02*
X68804448Y-129365276D01*
X68804448Y-129365276D02*
X68899686Y-129460514D01*
X68899686Y-129460514D02*
X68994924Y-129508133D01*
X67994924Y-130127180D02*
X67947305Y-130174800D01*
X67947305Y-130174800D02*
X67994924Y-130222419D01*
X67994924Y-130222419D02*
X68042543Y-130174800D01*
X68042543Y-130174800D02*
X67994924Y-130127180D01*
X67994924Y-130127180D02*
X67994924Y-130222419D01*
X66994925Y-130222419D02*
X67566353Y-130222419D01*
X67280639Y-130222419D02*
X67280639Y-129222419D01*
X67280639Y-129222419D02*
X67375877Y-129365276D01*
X67375877Y-129365276D02*
X67471115Y-129460514D01*
X67471115Y-129460514D02*
X67566353Y-129508133D01*
M02*
