%TF.GenerationSoftware,KiCad,Pcbnew,8.0.4+dfsg-1*%
%TF.CreationDate,2024-12-19T01:42:37-05:00*%
%TF.ProjectId,VGA_SRAM_COMP,5647415f-5352-4414-9d5f-434f4d502e6b,rev?*%
%TF.SameCoordinates,Original*%
%TF.FileFunction,Copper,L3,Inr*%
%TF.FilePolarity,Positive*%
%FSLAX46Y46*%
G04 Gerber Fmt 4.6, Leading zero omitted, Abs format (unit mm)*
G04 Created by KiCad (PCBNEW 8.0.4+dfsg-1) date 2024-12-19 01:42:37*
%MOMM*%
%LPD*%
G01*
G04 APERTURE LIST*
%TA.AperFunction,ComponentPad*%
%ADD10R,1.700000X1.700000*%
%TD*%
%TA.AperFunction,ComponentPad*%
%ADD11O,1.700000X1.700000*%
%TD*%
%TA.AperFunction,ComponentPad*%
%ADD12R,1.600000X1.600000*%
%TD*%
%TA.AperFunction,ComponentPad*%
%ADD13C,1.600000*%
%TD*%
%TA.AperFunction,ComponentPad*%
%ADD14O,1.600000X1.600000*%
%TD*%
%TA.AperFunction,ComponentPad*%
%ADD15R,1.500000X1.500000*%
%TD*%
%TA.AperFunction,ComponentPad*%
%ADD16C,1.500000*%
%TD*%
%TA.AperFunction,ComponentPad*%
%ADD17C,3.500000*%
%TD*%
%TA.AperFunction,ComponentPad*%
%ADD18C,4.000000*%
%TD*%
%TA.AperFunction,ViaPad*%
%ADD19C,0.600000*%
%TD*%
%TA.AperFunction,Conductor*%
%ADD20C,0.200000*%
%TD*%
G04 APERTURE END LIST*
D10*
%TO.N,MCUMEMADDR0*%
%TO.C,J8*%
X137000000Y-91680000D03*
D11*
%TO.N,MCUMEMADDR1*%
X139540000Y-91680000D03*
%TO.N,MCUMEMADDR2*%
X137000000Y-94220000D03*
%TO.N,MCUMEMADDR3*%
X139540000Y-94220000D03*
%TO.N,MCUMEMADDR4*%
X137000000Y-96760000D03*
%TO.N,MCUMEMADDR5*%
X139540000Y-96760000D03*
%TO.N,MCUMEMADDR6*%
X137000000Y-99300000D03*
%TO.N,MCUMEMADDR7*%
X139540000Y-99300000D03*
%TO.N,MCUMEMADDR8*%
X137000000Y-101840000D03*
%TO.N,MCUMEMADDR9*%
X139540000Y-101840000D03*
%TO.N,MCUMEMADDR10*%
X137000000Y-104380000D03*
%TO.N,MCUMEMADDR11*%
X139540000Y-104380000D03*
%TO.N,MCUMEMADDR12*%
X137000000Y-106920000D03*
%TO.N,MCUMEMADDR13*%
X139540000Y-106920000D03*
%TO.N,MCUMEMADDR14*%
X137000000Y-109460000D03*
%TO.N,MCUMEMADDR15*%
X139540000Y-109460000D03*
%TO.N,MCUMEMADDR16*%
X137000000Y-112000000D03*
%TO.N,MCUMEMADDR17*%
X139540000Y-112000000D03*
%TO.N,MCUMEMADDR18*%
X137000000Y-114540000D03*
%TO.N,MCUMEMADDR19*%
X139540000Y-114540000D03*
%TD*%
D10*
%TO.N,DATA0*%
%TO.C,J7*%
X137000000Y-120880000D03*
D11*
%TO.N,DATA1*%
X139540000Y-120880000D03*
%TO.N,DATA2*%
X137000000Y-123420000D03*
%TO.N,DATA3*%
X139540000Y-123420000D03*
%TO.N,DATA4*%
X137000000Y-125960000D03*
%TO.N,DATA5*%
X139540000Y-125960000D03*
%TO.N,DATA6*%
X137000000Y-128500000D03*
%TO.N,DATA7*%
X139540000Y-128500000D03*
%TD*%
%TO.N,/MCU OE*%
%TO.C,J1*%
X139500000Y-83660000D03*
%TO.N,/MCU CE*%
X136960000Y-83660000D03*
%TO.N,/MCU WE*%
X139500000Y-81120000D03*
%TO.N,RESOLUTION*%
X136960000Y-81120000D03*
%TO.N,Net-(J1-Pin_16)*%
X139500000Y-78580000D03*
%TO.N,Net-(J1-Pin_15)*%
X136960000Y-78580000D03*
%TO.N,Net-(J1-Pin_14)*%
X139500000Y-76040000D03*
%TO.N,Net-(J1-Pin_13)*%
X136960000Y-76040000D03*
%TO.N,Net-(J1-Pin_12)*%
X139500000Y-73500000D03*
%TO.N,Net-(J1-Pin_11)*%
X136960000Y-73500000D03*
%TO.N,GND*%
X139500000Y-70960000D03*
X136960000Y-70960000D03*
%TO.N,~{SCREEN_VISIBLE}*%
X139500000Y-68420000D03*
%TO.N,~{V_VISIBLE}*%
X136960000Y-68420000D03*
%TO.N,H_VISIBLE*%
X139500000Y-65880000D03*
%TO.N,Net-(J1-Pin_5)*%
X136960000Y-65880000D03*
%TO.N,Net-(J1-Pin_4)*%
X139500000Y-63340000D03*
%TO.N,Net-(J1-Pin_3)*%
X136960000Y-63340000D03*
%TO.N,Net-(J1-Pin_2)*%
X139500000Y-60800000D03*
D10*
%TO.N,PWR*%
X136960000Y-60800000D03*
%TD*%
D12*
%TO.N,unconnected-(X1-NC-Pad1)*%
%TO.C,X1*%
X128016000Y-67056000D03*
D13*
%TO.N,GND*%
X112776000Y-67056000D03*
%TO.N,H_CLK*%
X112776000Y-74676000D03*
%TO.N,PWR*%
X128016000Y-74676000D03*
%TD*%
D12*
%TO.N,Net-(U5-Q0)*%
%TO.C,U9*%
X94840000Y-87200000D03*
D14*
%TO.N,A10*%
X97380000Y-87200000D03*
%TO.N,A11*%
X99920000Y-87200000D03*
%TO.N,A12*%
X102460000Y-87200000D03*
%TO.N,A13*%
X105000000Y-87200000D03*
%TO.N,A14*%
X107540000Y-87200000D03*
%TO.N,A15*%
X110080000Y-87200000D03*
%TO.N,A16*%
X112620000Y-87200000D03*
%TO.N,A17*%
X115160000Y-87200000D03*
%TO.N,A18*%
X117700000Y-87200000D03*
%TO.N,H_VISIBLE*%
X120240000Y-87200000D03*
%TO.N,GND*%
X122780000Y-87200000D03*
%TO.N,unconnected-(U9-I13-Pad13)*%
X122780000Y-79580000D03*
%TO.N,~{V_VISIBLE}*%
X120240000Y-79580000D03*
%TO.N,V_FRONT_PORCH*%
X117700000Y-79580000D03*
%TO.N,~{V_SYNC}*%
X115160000Y-79580000D03*
%TO.N,unconnected-(U9-IO17-Pad17)*%
X112620000Y-79580000D03*
%TO.N,unconnected-(U9-IO18-Pad18)*%
X110080000Y-79580000D03*
%TO.N,unconnected-(U9-IO19-Pad19)*%
X107540000Y-79580000D03*
%TO.N,~{V_RESET}*%
X105000000Y-79580000D03*
%TO.N,~{SCREEN_VISIBLE}*%
X102460000Y-79580000D03*
%TO.N,unconnected-(U9-IO22-Pad22)*%
X99920000Y-79580000D03*
%TO.N,Net-(U8-IO23)*%
X97380000Y-79580000D03*
%TO.N,PWR*%
X94840000Y-79580000D03*
%TD*%
D12*
%TO.N,A0*%
%TO.C,U8*%
X60100000Y-87300000D03*
D14*
%TO.N,A1*%
X62640000Y-87300000D03*
%TO.N,A2*%
X65180000Y-87300000D03*
%TO.N,A3*%
X67720000Y-87300000D03*
%TO.N,A4*%
X70260000Y-87300000D03*
%TO.N,A5*%
X72800000Y-87300000D03*
%TO.N,A6*%
X75340000Y-87300000D03*
%TO.N,A7*%
X77880000Y-87300000D03*
%TO.N,A8*%
X80420000Y-87300000D03*
%TO.N,A9*%
X82960000Y-87300000D03*
%TO.N,unconnected-(U8-I11-Pad11)*%
X85500000Y-87300000D03*
%TO.N,GND*%
X88040000Y-87300000D03*
%TO.N,unconnected-(U8-I13-Pad13)*%
X88040000Y-79680000D03*
%TO.N,unconnected-(U8-IO14-Pad14)*%
X85500000Y-79680000D03*
%TO.N,unconnected-(U8-IO15-Pad15)*%
X82960000Y-79680000D03*
%TO.N,H_VISIBLE*%
X80420000Y-79680000D03*
%TO.N,unconnected-(U8-IO17-Pad17)*%
X77880000Y-79680000D03*
%TO.N,~{H_SYNC}*%
X75340000Y-79680000D03*
%TO.N,unconnected-(U8-IO19-Pad19)*%
X72800000Y-79680000D03*
%TO.N,Net-(U3-~{MR})*%
X70260000Y-79680000D03*
%TO.N,unconnected-(U8-IO21-Pad21)*%
X67720000Y-79680000D03*
%TO.N,unconnected-(U8-IO22-Pad22)*%
X65180000Y-79680000D03*
%TO.N,Net-(U8-IO23)*%
X62640000Y-79680000D03*
%TO.N,PWR*%
X60100000Y-79680000D03*
%TD*%
D10*
%TO.N,PWR*%
%TO.C,JP1*%
X113792000Y-59436000D03*
D11*
%TO.N,RESOLUTION*%
X113792000Y-61976000D03*
%TD*%
D10*
%TO.N,GND*%
%TO.C,J6*%
X127975000Y-109025000D03*
D11*
%TO.N,Net-(J6-Pin_2)*%
X127975000Y-106485000D03*
X127975000Y-103945000D03*
%TD*%
D15*
%TO.N,PWR*%
%TO.C,J5*%
X104084000Y-70542300D03*
D16*
%TO.N,Net-(J1-Pin_3)*%
X101584000Y-70542300D03*
%TO.N,Net-(J1-Pin_2)*%
X99584000Y-70542300D03*
%TO.N,GND*%
X97084000Y-70542300D03*
%TO.N,PWR*%
X104084000Y-73162300D03*
%TO.N,Net-(J1-Pin_5)*%
X101584000Y-73162300D03*
%TO.N,Net-(J1-Pin_4)*%
X99584000Y-73162300D03*
%TO.N,GND*%
X97084000Y-73162300D03*
D17*
X107154000Y-67832300D03*
X94014000Y-67832300D03*
X107154000Y-73512300D03*
X94014000Y-73512300D03*
%TD*%
D13*
%TO.N,unconnected-(J3-Pad15)*%
%TO.C,J3*%
X79680000Y-65700000D03*
%TO.N,Net-(J3-Pad14)*%
X77390000Y-65700000D03*
%TO.N,Net-(J3-Pad13)*%
X75100000Y-65700000D03*
%TO.N,unconnected-(J3-Pad12)*%
X72810000Y-65700000D03*
%TO.N,unconnected-(J3-Pad11)*%
X70520000Y-65700000D03*
%TO.N,GND*%
X78535000Y-67680000D03*
%TO.N,unconnected-(J3-Pad9)*%
X76245000Y-67680000D03*
%TO.N,GND*%
X73955000Y-67680000D03*
X71665000Y-67680000D03*
X69375000Y-67680000D03*
X79680000Y-69660000D03*
%TO.N,unconnected-(J3-Pad4)*%
X77390000Y-69660000D03*
%TO.N,Net-(J3-Pad3)*%
X75100000Y-69660000D03*
%TO.N,Net-(J3-Pad2)*%
X72810000Y-69660000D03*
D12*
%TO.N,Net-(J3-Pad1)*%
X70520000Y-69660000D03*
D18*
%TO.N,N/C*%
X62335000Y-68240000D03*
X87335000Y-68240000D03*
%TD*%
D10*
%TO.N,PWR*%
%TO.C,J2*%
X123444000Y-59436000D03*
D11*
X120904000Y-59436000D03*
%TO.N,GND*%
X123444000Y-61976000D03*
X120904000Y-61976000D03*
%TD*%
D19*
%TO.N,PWR*%
X129750000Y-116550000D03*
%TO.N,DATA6*%
X123425000Y-128750000D03*
%TO.N,MEMADDR17*%
X99100000Y-121100000D03*
X96525000Y-121125000D03*
%TO.N,A19*%
X97085600Y-97796700D03*
X86349600Y-122553400D03*
%TO.N,MCUMEMADDR13*%
X86668700Y-109749500D03*
%TO.N,MCUMEMADDR19*%
X77597000Y-114355800D03*
%TO.N,MCUMEMADDR12*%
X86326000Y-108765300D03*
%TO.N,MCUMEMADDR16*%
X75162100Y-113984300D03*
%TO.N,MCUMEMADDR2*%
X73691000Y-106530000D03*
%TO.N,MCUMEMADDR0*%
X73692700Y-103899800D03*
%TO.N,MCUMEMADDR14*%
X86288000Y-110987800D03*
%TO.N,MCUMEMADDR11*%
X89215300Y-106561900D03*
%TO.N,MCUMEMADDR3*%
X73699600Y-107800000D03*
%TO.N,MCUMEMADDR9*%
X87584900Y-107147900D03*
%TO.N,MCUMEMADDR5*%
X73511600Y-109749600D03*
%TO.N,MCUMEMADDR6*%
X73679400Y-110682600D03*
%TO.N,MCUMEMADDR8*%
X86326800Y-103990000D03*
%TO.N,MCUMEMADDR18*%
X76721400Y-112795900D03*
%TO.N,MCUMEMADDR15*%
X86331300Y-111798300D03*
%TO.N,MCUMEMADDR7*%
X73694000Y-112482300D03*
%TO.N,MCUMEMADDR4*%
X73696600Y-108816700D03*
%TO.N,Net-(U11-CE)*%
X114163600Y-107059200D03*
X91463400Y-105367200D03*
X82876900Y-118470000D03*
%TO.N,Net-(U1-~{WE})*%
X125339000Y-124286600D03*
X117722600Y-108370300D03*
%TO.N,MCUMEMADDR10*%
X86352100Y-106530000D03*
%TO.N,MCUMEMADDR17*%
X73550900Y-119143800D03*
X129825000Y-119400000D03*
%TO.N,DATA2*%
X61029200Y-110940600D03*
%TO.N,MCUMEMADDR1*%
X73919100Y-104915500D03*
%TO.N,/MCU OE*%
X123558200Y-101474700D03*
%TO.N,DATA1*%
X63090000Y-111927500D03*
%TO.N,DATA5*%
X119262644Y-123339566D03*
X61029800Y-107593900D03*
%TO.N,DATA3*%
X61018800Y-109514200D03*
%TO.N,DATA0*%
X64334000Y-113145500D03*
%TO.N,Net-(U16-Pad8)*%
X117145800Y-109933700D03*
X120515200Y-96626600D03*
%TO.N,~{TIMING ADDR}*%
X109025200Y-103863200D03*
X112498500Y-96577300D03*
X95532800Y-118727600D03*
X70247400Y-118148800D03*
%TO.N,DATA7*%
X123059500Y-124523900D03*
X58481684Y-104527256D03*
%TO.N,DATA4*%
X118400000Y-124300000D03*
X58375000Y-108200000D03*
%TO.N,A17*%
X104122900Y-94100800D03*
X89198100Y-119740000D03*
%TO.N,A18*%
X89121900Y-121115400D03*
%TO.N,A16*%
X91759400Y-97149800D03*
X86328200Y-118470000D03*
%TO.N,Net-(U10-TC)*%
X69144000Y-97935600D03*
X105498100Y-92615100D03*
%TO.N,Net-(J1-Pin_15)*%
X125771100Y-95356600D03*
%TO.N,RESOLUTION*%
X126537600Y-76056700D03*
%TO.N,A14*%
X98996900Y-111585100D03*
%TO.N,A15*%
X99718600Y-112560800D03*
%TO.N,A13*%
X91548000Y-92117200D03*
X96060500Y-109195700D03*
%TO.N,A12*%
X99033100Y-108759600D03*
X87755700Y-94893300D03*
%TO.N,A11*%
X99747300Y-107776300D03*
X88179500Y-92013700D03*
%TO.N,A10*%
X83382500Y-94309300D03*
X98979700Y-106534100D03*
%TO.N,Net-(J1-Pin_16)*%
X126282300Y-97107300D03*
%TO.N,Net-(U5-Q0)*%
X83343100Y-93500000D03*
%TO.N,A9*%
X95553600Y-105260000D03*
X79286400Y-94161200D03*
%TO.N,A8*%
X78996700Y-92207700D03*
X87601500Y-103355000D03*
%TO.N,A7*%
X61702500Y-127422600D03*
X66433100Y-97573500D03*
%TO.N,A5*%
X66430300Y-93829200D03*
X61028100Y-124483800D03*
%TO.N,A4*%
X66332100Y-92290800D03*
X62432600Y-120194800D03*
%TO.N,A6*%
X70947900Y-92133400D03*
X60898000Y-125496800D03*
%TO.N,H_CLK*%
X69587800Y-92151600D03*
X100370500Y-91284800D03*
%TO.N,A3*%
X61041300Y-121979900D03*
X69764500Y-98546900D03*
X105514400Y-97261500D03*
%TO.N,A0*%
X61027500Y-117335000D03*
X103384000Y-92492700D03*
%TO.N,A2*%
X97245200Y-95387800D03*
X61026500Y-121010000D03*
%TO.N,A1*%
X61034200Y-118653600D03*
X100363100Y-93242900D03*
%TO.N,~{VGA_OUT}*%
X109042600Y-94583600D03*
X70228300Y-104099400D03*
%TO.N,MEMADDR6*%
X119331300Y-119942900D03*
X78150900Y-121155200D03*
%TO.N,MEMADDR1*%
X114775000Y-116050000D03*
X75962300Y-113198400D03*
%TO.N,MEMADDR19*%
X115125000Y-127525000D03*
X96805600Y-125367600D03*
%TO.N,MEMADDR18*%
X114924998Y-128425000D03*
X99338900Y-125969700D03*
%TO.N,MEMADDR7*%
X126200000Y-115600000D03*
X83073100Y-115542900D03*
%TO.N,~{OE}*%
X123598800Y-115898700D03*
X112003700Y-106192400D03*
%TO.N,MEMADDR3*%
X117309800Y-112755800D03*
X82891600Y-109337500D03*
X70294800Y-122903800D03*
%TO.N,MEMADDR12*%
X126125000Y-129150000D03*
X105270000Y-110295500D03*
X95954600Y-110141800D03*
%TO.N,MEMADDR4*%
X112745800Y-113126700D03*
X83377500Y-110729900D03*
X70675700Y-123727100D03*
%TO.N,MEMADDR5*%
X126025000Y-113200000D03*
X82748100Y-112157400D03*
%TO.N,MEMADDR15*%
X106300100Y-114964700D03*
X115050000Y-130675000D03*
%TO.N,DATA6*%
X110119900Y-116948000D03*
X61026900Y-105558000D03*
%TO.N,MEMADDR11*%
X119612000Y-128190500D03*
X108044400Y-109630000D03*
%TO.N,MEMADDR10*%
X125563900Y-127566700D03*
X108844600Y-109890800D03*
%TO.N,MEMADDR9*%
X125471700Y-125990100D03*
X109010100Y-108290400D03*
%TO.N,MEMADDR2*%
X114353100Y-115289900D03*
X83146600Y-108238600D03*
X70516700Y-121414100D03*
%TO.N,MEMADDR14*%
X125950000Y-130425000D03*
X108947600Y-112691500D03*
%TO.N,MEMADDR13*%
X129325000Y-130025000D03*
X109881800Y-112710900D03*
%TO.N,MEMADDR0*%
X111066300Y-111221100D03*
X82902300Y-105413000D03*
%TO.N,Net-(U2-B7)*%
X66500000Y-81417500D03*
X66442100Y-114110100D03*
%TO.N,Net-(U2-B6)*%
X64687700Y-89480600D03*
X66422900Y-111341300D03*
%TO.N,Net-(U2-B5)*%
X65481000Y-73000000D03*
X67144400Y-109767900D03*
%TO.N,Net-(U2-B4)*%
X74239400Y-80664200D03*
X70243200Y-110340000D03*
%TO.N,Net-(U2-B3)*%
X75261300Y-75952600D03*
X70250000Y-108106400D03*
%TO.N,Net-(U2-B2)*%
X76994700Y-73907200D03*
X70227700Y-106901600D03*
%TO.N,Net-(U2-B1)*%
X82155600Y-73000000D03*
X74018200Y-105726100D03*
%TO.N,Net-(U2-B0)*%
X79890200Y-74950800D03*
X74030600Y-101852400D03*
%TO.N,Net-(J3-Pad14)*%
X88439500Y-84939500D03*
%TO.N,Net-(J1-Pin_11)*%
X102342900Y-114964700D03*
%TO.N,Net-(J1-Pin_12)*%
X111470200Y-116895500D03*
%TO.N,Net-(J1-Pin_13)*%
X105891600Y-119371100D03*
%TO.N,Net-(J1-Pin_14)*%
X107158300Y-119371100D03*
%TO.N,GND*%
X129450000Y-122075000D03*
X118400000Y-122415700D03*
X119794800Y-99392300D03*
X114850000Y-119942900D03*
%TO.N,~{SCREEN_VISIBLE}*%
X109036900Y-91338900D03*
%TO.N,~{V_RESET}*%
X92800500Y-89887200D03*
X129863900Y-90708100D03*
%TO.N,~{H_SYNC}*%
X117226000Y-85289600D03*
%TO.N,PWR*%
X80125400Y-117793900D03*
X72930200Y-116363600D03*
%TD*%
D20*
%TO.N,MEMADDR18*%
X99338900Y-125969700D02*
X112700465Y-125969700D01*
X114924998Y-128194233D02*
X114924998Y-128425000D01*
X112700465Y-125969700D02*
X114924998Y-128194233D01*
%TO.N,MEMADDR19*%
X115125000Y-127475000D02*
X115125000Y-127525000D01*
X113017600Y-125367600D02*
X115125000Y-127475000D01*
X96805600Y-125367600D02*
X113017600Y-125367600D01*
%TO.N,MEMADDR1*%
X77348500Y-114955900D02*
X77845600Y-114955900D01*
%TO.N,MEMADDR7*%
X83073100Y-115542900D02*
X92551300Y-115542900D01*
X92551300Y-115542900D02*
X93006200Y-115997800D01*
%TO.N,MEMADDR1*%
X77845600Y-114955900D02*
X77858800Y-114942700D01*
%TO.N,MEMADDR7*%
X93006200Y-115997800D02*
X96480700Y-115997800D01*
%TO.N,MEMADDR1*%
X77858800Y-114942700D02*
X92516900Y-114942700D01*
%TO.N,MEMADDR7*%
X109922900Y-116291200D02*
X114125000Y-116291200D01*
%TO.N,MEMADDR1*%
X97413800Y-116365100D02*
X109283200Y-116365100D01*
X75962300Y-113569700D02*
X77348500Y-114955900D01*
X92516900Y-114942700D02*
X93171900Y-115597700D01*
%TO.N,MEMADDR7*%
X96480700Y-115997800D02*
X97248100Y-116765200D01*
%TO.N,MEMADDR1*%
X114615100Y-115890100D02*
X114775000Y-116050000D01*
%TO.N,MEMADDR7*%
X114508800Y-116675000D02*
X125125000Y-116675000D01*
%TO.N,MEMADDR1*%
X109758200Y-115890100D02*
X114615100Y-115890100D01*
%TO.N,MEMADDR7*%
X125125000Y-116675000D02*
X126200000Y-115600000D01*
X114125000Y-116291200D02*
X114508800Y-116675000D01*
%TO.N,MEMADDR1*%
X109283200Y-116365100D02*
X109758200Y-115890100D01*
X75962300Y-113198400D02*
X75962300Y-113569700D01*
%TO.N,MEMADDR7*%
X109448900Y-116765200D02*
X109922900Y-116291200D01*
%TO.N,MEMADDR1*%
X96646400Y-115597700D02*
X97413800Y-116365100D01*
%TO.N,MEMADDR7*%
X97248100Y-116765200D02*
X109448900Y-116765200D01*
%TO.N,MEMADDR1*%
X93171900Y-115597700D02*
X96646400Y-115597700D01*
%TO.N,MCUMEMADDR16*%
X135175000Y-113825000D02*
X137000000Y-112000000D01*
X102061700Y-114397400D02*
X102129300Y-114329800D01*
X113462000Y-113825000D02*
X135175000Y-113825000D01*
X107883300Y-114511300D02*
X112775700Y-114511300D01*
X78060100Y-112149000D02*
X79578900Y-113667800D01*
X76118900Y-112149000D02*
X78060100Y-112149000D01*
X75162100Y-113984300D02*
X75162200Y-113984300D01*
X92939400Y-113667800D02*
X93669000Y-114397400D01*
X93669000Y-114397400D02*
X102061700Y-114397400D01*
%TO.N,MEMADDR5*%
X113365100Y-113356000D02*
X125869000Y-113356000D01*
%TO.N,MCUMEMADDR16*%
X102129300Y-114329800D02*
X107701800Y-114329800D01*
X79578900Y-113667800D02*
X92939400Y-113667800D01*
X75162200Y-113105700D02*
X76118900Y-112149000D01*
%TO.N,MEMADDR5*%
X125869000Y-113356000D02*
X126025000Y-113200000D01*
%TO.N,MCUMEMADDR16*%
X112775700Y-114511300D02*
X113462000Y-113825000D01*
%TO.N,MEMADDR5*%
X112609900Y-114111200D02*
X113365100Y-113356000D01*
%TO.N,MCUMEMADDR16*%
X107701800Y-114329800D02*
X107883300Y-114511300D01*
%TO.N,MEMADDR5*%
X108049000Y-114111200D02*
X112609900Y-114111200D01*
X107867400Y-113929600D02*
X108049000Y-114111200D01*
X101963600Y-113929600D02*
X107867400Y-113929600D01*
X101896000Y-113997200D02*
X101963600Y-113929600D01*
X93834600Y-113997200D02*
X101896000Y-113997200D01*
%TO.N,MCUMEMADDR16*%
X75162200Y-113984300D02*
X75162200Y-113105700D01*
%TO.N,MEMADDR5*%
X93105100Y-113267700D02*
X93834600Y-113997200D01*
X83858400Y-113267700D02*
X93105100Y-113267700D01*
X82748100Y-112157400D02*
X83858400Y-113267700D01*
%TO.N,DATA4*%
X137000000Y-125960000D02*
X127861100Y-125960000D01*
%TO.N,DATA7*%
X57750000Y-111650100D02*
X70865500Y-124765600D01*
%TO.N,DATA5*%
X73365766Y-123339566D02*
X119262644Y-123339566D01*
%TO.N,DATA4*%
X125587600Y-123686500D02*
X121033000Y-123686500D01*
%TO.N,DATA7*%
X122633400Y-124950000D02*
X123059500Y-124523900D01*
X117946361Y-124765600D02*
X118130761Y-124950000D01*
%TO.N,DATA5*%
X61029800Y-107593900D02*
X60409900Y-108213800D01*
%TO.N,DATA7*%
X118130761Y-124950000D02*
X122633400Y-124950000D01*
X70865500Y-124765600D02*
X117946361Y-124765600D01*
%TO.N,DATA4*%
X58375000Y-108200000D02*
X58375000Y-110135300D01*
X127861100Y-125960000D02*
X125587600Y-123686500D01*
%TO.N,DATA5*%
X69847500Y-120755200D02*
X70781400Y-120755200D01*
X130788500Y-124690000D02*
X129384900Y-123286400D01*
%TO.N,DATA7*%
X57750000Y-105258940D02*
X57750000Y-111650100D01*
%TO.N,DATA5*%
X119315810Y-123286400D02*
X119262644Y-123339566D01*
%TO.N,DATA7*%
X58481684Y-104527256D02*
X57750000Y-105258940D01*
%TO.N,DATA4*%
X121033000Y-123686500D02*
X120419500Y-124300000D01*
X58375000Y-110135300D02*
X72539700Y-124300000D01*
X72539700Y-124300000D02*
X118400000Y-124300000D01*
%TO.N,DATA5*%
X139540000Y-125960000D02*
X138270000Y-124690000D01*
X138270000Y-124690000D02*
X130788500Y-124690000D01*
%TO.N,DATA4*%
X120419500Y-124300000D02*
X118400000Y-124300000D01*
%TO.N,DATA5*%
X60409900Y-108213800D02*
X60409900Y-111317600D01*
X129384900Y-123286400D02*
X119315810Y-123286400D01*
X70781400Y-120755200D02*
X73365766Y-123339566D01*
X60409900Y-111317600D02*
X69847500Y-120755200D01*
%TO.N,GND*%
X129450000Y-122075000D02*
X118740700Y-122075000D01*
X118740700Y-122075000D02*
X118400000Y-122415700D01*
%TO.N,MCUMEMADDR17*%
X87244200Y-119138900D02*
X93118300Y-119138900D01*
X73550900Y-119143800D02*
X73896100Y-119489000D01*
X73896100Y-119489000D02*
X86894100Y-119489000D01*
X93955900Y-119976500D02*
X113215200Y-119976500D01*
X86894100Y-119489000D02*
X87244200Y-119138900D01*
X113215200Y-119976500D02*
X113849000Y-119342700D01*
X93118300Y-119138900D02*
X93955900Y-119976500D01*
X113849000Y-119342700D02*
X129767700Y-119342700D01*
X129767700Y-119342700D02*
X129825000Y-119400000D01*
%TO.N,Net-(J1-Pin_12)*%
X141094900Y-75094900D02*
X141094900Y-114634800D01*
X139500000Y-73500000D02*
X141094900Y-75094900D01*
X141094900Y-114634800D02*
X138579700Y-117150000D01*
X138579700Y-117150000D02*
X111724700Y-117150000D01*
X111724700Y-117150000D02*
X111470200Y-116895500D01*
%TO.N,MEMADDR17*%
X99100000Y-121100000D02*
X96550000Y-121100000D01*
X96550000Y-121100000D02*
X96525000Y-121125000D01*
%TO.N,Net-(U8-IO23)*%
X63740100Y-79452000D02*
X63740100Y-79680000D01*
X65034500Y-78157600D02*
X63740100Y-79452000D01*
X94995000Y-78157600D02*
X65034500Y-78157600D01*
X96279900Y-79442500D02*
X94995000Y-78157600D01*
X96279900Y-79580000D02*
X96279900Y-79442500D01*
X97380000Y-79580000D02*
X96279900Y-79580000D01*
X62640000Y-79680000D02*
X63740100Y-79680000D01*
%TO.N,MCUMEMADDR13*%
X139540000Y-106920000D02*
X138389900Y-106920000D01*
X138389900Y-107160500D02*
X138389900Y-106920000D01*
X137240600Y-108309800D02*
X138389900Y-107160500D01*
X134316300Y-108309800D02*
X137240600Y-108309800D01*
X133516100Y-109110000D02*
X134316300Y-108309800D01*
X131711700Y-109110000D02*
X133516100Y-109110000D01*
X129483100Y-111338600D02*
X131711700Y-109110000D01*
X113503800Y-111338600D02*
X129483100Y-111338600D01*
X112760500Y-110595300D02*
X113503800Y-111338600D01*
X109554600Y-110595300D02*
X112760500Y-110595300D01*
X109258900Y-110891000D02*
X109554600Y-110595300D01*
X105675200Y-110891000D02*
X109258900Y-110891000D01*
X105665800Y-110900400D02*
X105675200Y-110891000D01*
X104745700Y-110900400D02*
X105665800Y-110900400D01*
X103605200Y-109759900D02*
X104745700Y-110900400D01*
X97185100Y-109759900D02*
X103605200Y-109759900D01*
X96203100Y-110741900D02*
X97185100Y-109759900D01*
X87661100Y-110741900D02*
X96203100Y-110741900D01*
X86668700Y-109749500D02*
X87661100Y-110741900D01*
%TO.N,MCUMEMADDR19*%
X139540000Y-114540000D02*
X138389900Y-114540000D01*
X138389900Y-114778300D02*
X138389900Y-114540000D01*
X137476000Y-115692200D02*
X138389900Y-114778300D01*
X136363600Y-115692200D02*
X137476000Y-115692200D01*
X135327700Y-114656300D02*
X136363600Y-115692200D01*
X113762300Y-114656300D02*
X135327700Y-114656300D01*
X113107100Y-115311500D02*
X113762300Y-114656300D01*
X108766000Y-115311500D02*
X113107100Y-115311500D01*
X108112500Y-115965000D02*
X108766000Y-115311500D01*
X97579500Y-115965000D02*
X108112500Y-115965000D01*
X96812100Y-115197600D02*
X97579500Y-115965000D01*
X93337600Y-115197600D02*
X96812100Y-115197600D01*
X92682600Y-114542600D02*
X93337600Y-115197600D01*
X77783800Y-114542600D02*
X92682600Y-114542600D01*
X77597000Y-114355800D02*
X77783800Y-114542600D01*
%TO.N,MCUMEMADDR12*%
X137000000Y-106920000D02*
X135849900Y-106920000D01*
X135849900Y-106920100D02*
X135849900Y-106920000D01*
X134742300Y-106920100D02*
X135849900Y-106920100D01*
X133152500Y-108509900D02*
X134742300Y-106920100D01*
X131746000Y-108509900D02*
X133152500Y-108509900D01*
X129317400Y-110938500D02*
X131746000Y-108509900D01*
X114516300Y-110938500D02*
X129317400Y-110938500D01*
X113773000Y-110195200D02*
X114516300Y-110938500D01*
X109388900Y-110195200D02*
X113773000Y-110195200D01*
X109093200Y-110490900D02*
X109388900Y-110195200D01*
X108056700Y-110490900D02*
X109093200Y-110490900D01*
X106925600Y-109359800D02*
X108056700Y-110490900D01*
X97203200Y-109359800D02*
X106925600Y-109359800D01*
X96398000Y-108554600D02*
X97203200Y-109359800D01*
X86536700Y-108554600D02*
X96398000Y-108554600D01*
X86326000Y-108765300D02*
X86536700Y-108554600D01*
%TO.N,MCUMEMADDR2*%
X74078300Y-106530000D02*
X73691000Y-106530000D01*
X80210900Y-100397400D02*
X74078300Y-106530000D01*
X106915900Y-100397400D02*
X80210900Y-100397400D01*
X113093300Y-94220000D02*
X106915900Y-100397400D01*
X137000000Y-94220000D02*
X113093300Y-94220000D01*
%TO.N,MCUMEMADDR0*%
X137000000Y-91680000D02*
X135849900Y-91680000D01*
X77995300Y-99597200D02*
X73692700Y-103899800D01*
X106584500Y-99597200D02*
X77995300Y-99597200D01*
X113751800Y-92429900D02*
X106584500Y-99597200D01*
X135100000Y-92429900D02*
X113751800Y-92429900D01*
X135849900Y-91680000D02*
X135100000Y-92429900D01*
%TO.N,MCUMEMADDR14*%
X137000000Y-109460000D02*
X135849900Y-109460000D01*
X86466100Y-110987800D02*
X86288000Y-110987800D01*
X87020400Y-111542100D02*
X86466100Y-110987800D01*
X97625500Y-111542100D02*
X87020400Y-111542100D01*
X98607500Y-110560100D02*
X97625500Y-111542100D01*
X103273800Y-110560100D02*
X98607500Y-110560100D01*
X104414300Y-111700600D02*
X103273800Y-110560100D01*
X107662100Y-111700600D02*
X104414300Y-111700600D01*
X107671500Y-111691200D02*
X107662100Y-111700600D01*
X110276600Y-111691200D02*
X107671500Y-111691200D01*
X110431000Y-111845600D02*
X110276600Y-111691200D01*
X111290600Y-111845600D02*
X110431000Y-111845600D01*
X111409800Y-111726400D02*
X111290600Y-111845600D01*
X113325800Y-111726400D02*
X111409800Y-111726400D01*
X113355000Y-111755600D02*
X113325800Y-111726400D01*
X129632000Y-111755600D02*
X113355000Y-111755600D01*
X131451100Y-109936500D02*
X129632000Y-111755600D01*
X135373400Y-109936500D02*
X131451100Y-109936500D01*
X135849900Y-109460000D02*
X135373400Y-109936500D01*
%TO.N,MCUMEMADDR11*%
X139540000Y-104380000D02*
X138389900Y-104380000D01*
X138389900Y-104141700D02*
X138389900Y-104380000D01*
X137438400Y-103190200D02*
X138389900Y-104141700D01*
X130425900Y-103190200D02*
X137438400Y-103190200D01*
X128520900Y-105095200D02*
X130425900Y-103190200D01*
X99216800Y-105095200D02*
X128520900Y-105095200D01*
X98354000Y-104232400D02*
X99216800Y-105095200D01*
X91544800Y-104232400D02*
X98354000Y-104232400D01*
X89215300Y-106561900D02*
X91544800Y-104232400D01*
%TO.N,MCUMEMADDR3*%
X139540000Y-94220000D02*
X138389900Y-94220000D01*
X80702100Y-100797500D02*
X73699600Y-107800000D01*
X107081600Y-100797500D02*
X80702100Y-100797500D01*
X111907300Y-95971800D02*
X107081600Y-100797500D01*
X132187800Y-95971800D02*
X111907300Y-95971800D01*
X132789500Y-95370100D02*
X132187800Y-95971800D01*
X137527400Y-95370100D02*
X132789500Y-95370100D01*
X138389900Y-94507600D02*
X137527400Y-95370100D01*
X138389900Y-94220000D02*
X138389900Y-94507600D01*
%TO.N,MCUMEMADDR9*%
X139540000Y-101840000D02*
X139540000Y-102990100D01*
X139827500Y-102990100D02*
X139540000Y-102990100D01*
X140692200Y-103854800D02*
X139827500Y-102990100D01*
X140692200Y-104890400D02*
X140692200Y-103854800D01*
X139932600Y-105650000D02*
X140692200Y-104890400D01*
X135145800Y-105650000D02*
X139932600Y-105650000D01*
X132686100Y-108109700D02*
X135145800Y-105650000D01*
X131491600Y-108109700D02*
X132686100Y-108109700D01*
X129062900Y-110538400D02*
X131491600Y-108109700D01*
X116901900Y-110538400D02*
X129062900Y-110538400D01*
X115654100Y-109290600D02*
X116901900Y-110538400D01*
X108595900Y-109290600D02*
X115654100Y-109290600D01*
X107684700Y-108379400D02*
X108595900Y-109290600D01*
X99501600Y-108379400D02*
X107684700Y-108379400D01*
X98684300Y-107562100D02*
X99501600Y-108379400D01*
X87999100Y-107562100D02*
X98684300Y-107562100D01*
X87584900Y-107147900D02*
X87999100Y-107562100D01*
%TO.N,MCUMEMADDR5*%
X139540000Y-96760000D02*
X138389900Y-96760000D01*
X73719600Y-109749600D02*
X73511600Y-109749600D01*
X81871500Y-101597700D02*
X73719600Y-109749600D01*
X107978800Y-101597700D02*
X81871500Y-101597700D01*
X111426700Y-98149800D02*
X107978800Y-101597700D01*
X137287600Y-98149800D02*
X111426700Y-98149800D01*
X138389900Y-97047500D02*
X137287600Y-98149800D01*
X138389900Y-96760000D02*
X138389900Y-97047500D01*
%TO.N,MCUMEMADDR6*%
X137000000Y-99300000D02*
X135849900Y-99300000D01*
X82364200Y-101997800D02*
X73679400Y-110682600D01*
X108144500Y-101997800D02*
X82364200Y-101997800D01*
X109972500Y-100169800D02*
X108144500Y-101997800D01*
X134980100Y-100169800D02*
X109972500Y-100169800D01*
X135849900Y-99300000D02*
X134980100Y-100169800D01*
%TO.N,MCUMEMADDR8*%
X137000000Y-101840000D02*
X135849900Y-101840000D01*
X135172600Y-102517300D02*
X135849900Y-101840000D01*
X108756600Y-102517300D02*
X135172600Y-102517300D01*
X108041500Y-103232400D02*
X108756600Y-102517300D01*
X90851500Y-103232400D02*
X108041500Y-103232400D01*
X90093900Y-103990000D02*
X90851500Y-103232400D01*
X86326800Y-103990000D02*
X90093900Y-103990000D01*
%TO.N,MCUMEMADDR18*%
X137000000Y-114540000D02*
X135849900Y-114540000D01*
X135553400Y-114243500D02*
X135849900Y-114540000D01*
X113609300Y-114243500D02*
X135553400Y-114243500D01*
X112941400Y-114911400D02*
X113609300Y-114243500D01*
X107774500Y-114911400D02*
X112941400Y-114911400D01*
X107121000Y-115564900D02*
X107774500Y-114911400D01*
X97745200Y-115564900D02*
X107121000Y-115564900D01*
X96977800Y-114797500D02*
X97745200Y-115564900D01*
X93503300Y-114797500D02*
X96977800Y-114797500D01*
X92848300Y-114142500D02*
X93503300Y-114797500D01*
X78532900Y-114142500D02*
X92848300Y-114142500D01*
X77186300Y-112795900D02*
X78532900Y-114142500D01*
X76721400Y-112795900D02*
X77186300Y-112795900D01*
%TO.N,MCUMEMADDR15*%
X139540000Y-109460000D02*
X138389900Y-109460000D01*
X86500400Y-111967400D02*
X86331300Y-111798300D01*
X97766100Y-111967400D02*
X86500400Y-111967400D01*
X98773300Y-110960200D02*
X97766100Y-111967400D01*
X99270300Y-110960200D02*
X98773300Y-110960200D01*
X100410800Y-112100700D02*
X99270300Y-110960200D01*
X107827800Y-112100700D02*
X100410800Y-112100700D01*
X107837200Y-112091300D02*
X107827800Y-112100700D01*
X110110900Y-112091300D02*
X107837200Y-112091300D01*
X110265300Y-112245700D02*
X110110900Y-112091300D01*
X111456300Y-112245700D02*
X110265300Y-112245700D01*
X111575500Y-112126500D02*
X111456300Y-112245700D01*
X113160100Y-112126500D02*
X111575500Y-112126500D01*
X113189300Y-112155700D02*
X113160100Y-112126500D01*
X130597800Y-112155700D02*
X113189300Y-112155700D01*
X132143400Y-110610100D02*
X130597800Y-112155700D01*
X137527400Y-110610100D02*
X132143400Y-110610100D01*
X138389900Y-109747600D02*
X137527400Y-110610100D01*
X138389900Y-109460000D02*
X138389900Y-109747600D01*
%TO.N,MCUMEMADDR7*%
X139540000Y-99300000D02*
X138389900Y-99300000D01*
X83778400Y-102397900D02*
X73694000Y-112482300D01*
X108310200Y-102397900D02*
X83778400Y-102397900D01*
X110138100Y-100570000D02*
X108310200Y-102397900D01*
X137358200Y-100570000D02*
X110138100Y-100570000D01*
X138389900Y-99538300D02*
X137358200Y-100570000D01*
X138389900Y-99300000D02*
X138389900Y-99538300D01*
%TO.N,MCUMEMADDR4*%
X137000000Y-96760000D02*
X135849900Y-96760000D01*
X81315700Y-101197600D02*
X73696600Y-108816700D01*
X107247300Y-101197600D02*
X81315700Y-101197600D01*
X110695300Y-97749600D02*
X107247300Y-101197600D01*
X134860300Y-97749600D02*
X110695300Y-97749600D01*
X135849900Y-96760000D02*
X134860300Y-97749600D01*
%TO.N,Net-(U11-CE)*%
X100615000Y-107059200D02*
X114163600Y-107059200D01*
X98188300Y-104632500D02*
X100615000Y-107059200D01*
X92198100Y-104632500D02*
X98188300Y-104632500D01*
X91463400Y-105367200D02*
X92198100Y-104632500D01*
%TO.N,MCUMEMADDR10*%
X137000000Y-104380000D02*
X135849900Y-104380000D01*
X132550100Y-107679800D02*
X135849900Y-104380000D01*
X100499500Y-107679800D02*
X132550100Y-107679800D01*
X99981700Y-107162000D02*
X100499500Y-107679800D01*
X88966800Y-107162000D02*
X99981700Y-107162000D01*
X88334800Y-106530000D02*
X88966800Y-107162000D01*
X86352100Y-106530000D02*
X88334800Y-106530000D01*
%TO.N,DATA2*%
X61029200Y-111311700D02*
X61029200Y-110940600D01*
X65480900Y-115763400D02*
X61029200Y-111311700D01*
X73628700Y-115763400D02*
X65480900Y-115763400D01*
X75059000Y-117193700D02*
X73628700Y-115763400D01*
X81612100Y-117193700D02*
X75059000Y-117193700D01*
X82161800Y-117743400D02*
X81612100Y-117193700D01*
X91922800Y-117743400D02*
X82161800Y-117743400D01*
X92177700Y-117998300D02*
X91922800Y-117743400D01*
X95652200Y-117998300D02*
X92177700Y-117998300D01*
X96419600Y-118765700D02*
X95652200Y-117998300D01*
X130576600Y-118765700D02*
X96419600Y-118765700D01*
X135230900Y-123420000D02*
X130576600Y-118765700D01*
X137000000Y-123420000D02*
X135230900Y-123420000D01*
%TO.N,MCUMEMADDR1*%
X139540000Y-91680000D02*
X138389900Y-91680000D01*
X78837300Y-99997300D02*
X73919100Y-104915500D01*
X106750200Y-99997300D02*
X78837300Y-99997300D01*
X113917400Y-92830100D02*
X106750200Y-99997300D01*
X138030500Y-92830100D02*
X113917400Y-92830100D01*
X138389900Y-92470700D02*
X138030500Y-92830100D01*
X138389900Y-91680000D02*
X138389900Y-92470700D01*
%TO.N,DATA1*%
X139540000Y-120880000D02*
X138389900Y-120880000D01*
X63223500Y-112061000D02*
X63090000Y-111927500D01*
X71817300Y-112061000D02*
X63223500Y-112061000D01*
X75721300Y-115965000D02*
X71817300Y-112061000D01*
X82080800Y-115965000D02*
X75721300Y-115965000D01*
X82658900Y-116543100D02*
X82080800Y-115965000D01*
X92419900Y-116543100D02*
X82658900Y-116543100D01*
X92674800Y-116798000D02*
X92419900Y-116543100D01*
X96149300Y-116798000D02*
X92674800Y-116798000D01*
X96916700Y-117565400D02*
X96149300Y-116798000D01*
X135866000Y-117565400D02*
X96916700Y-117565400D01*
X138389900Y-120089300D02*
X135866000Y-117565400D01*
X138389900Y-120880000D02*
X138389900Y-120089300D01*
%TO.N,DATA3*%
X139540000Y-123420000D02*
X138389900Y-123420000D01*
X61963600Y-110459000D02*
X61018800Y-109514200D01*
X61963600Y-111656200D02*
X61963600Y-110459000D01*
X65634100Y-115326700D02*
X61963600Y-111656200D01*
X73757800Y-115326700D02*
X65634100Y-115326700D01*
X75196300Y-116765200D02*
X73757800Y-115326700D01*
X81749400Y-116765200D02*
X75196300Y-116765200D01*
X82327500Y-117343300D02*
X81749400Y-116765200D01*
X92088500Y-117343300D02*
X82327500Y-117343300D01*
X92343400Y-117598200D02*
X92088500Y-117343300D01*
X95817900Y-117598200D02*
X92343400Y-117598200D01*
X96585300Y-118365600D02*
X95817900Y-117598200D01*
X132108300Y-118365600D02*
X96585300Y-118365600D01*
X135958200Y-122215500D02*
X132108300Y-118365600D01*
X137473000Y-122215500D02*
X135958200Y-122215500D01*
X138389900Y-123132400D02*
X137473000Y-122215500D01*
X138389900Y-123420000D02*
X138389900Y-123132400D01*
%TO.N,Net-(J1-Pin_4)*%
X139500000Y-63340000D02*
X138349900Y-63340000D01*
X101034300Y-71712000D02*
X99584000Y-73162300D01*
X105377100Y-71712000D02*
X101034300Y-71712000D01*
X106035800Y-71053300D02*
X105377100Y-71712000D01*
X127574900Y-71053300D02*
X106035800Y-71053300D01*
X134018200Y-64610000D02*
X127574900Y-71053300D01*
X137318200Y-64610000D02*
X134018200Y-64610000D01*
X138349900Y-63578300D02*
X137318200Y-64610000D01*
X138349900Y-63340000D02*
X138349900Y-63578300D01*
%TO.N,Net-(J1-Pin_5)*%
X130227700Y-71462200D02*
X135809900Y-65880000D01*
X106192800Y-71462200D02*
X130227700Y-71462200D01*
X105542800Y-72112200D02*
X106192800Y-71462200D01*
X102634100Y-72112200D02*
X105542800Y-72112200D01*
X101584000Y-73162300D02*
X102634100Y-72112200D01*
X136960000Y-65880000D02*
X135809900Y-65880000D01*
%TO.N,DATA0*%
X137000000Y-120880000D02*
X135849900Y-120880000D01*
X72142400Y-113145500D02*
X64334000Y-113145500D01*
X75362000Y-116365100D02*
X72142400Y-113145500D01*
X81915100Y-116365100D02*
X75362000Y-116365100D01*
X82493200Y-116943200D02*
X81915100Y-116365100D01*
X92254200Y-116943200D02*
X82493200Y-116943200D01*
X92509100Y-117198100D02*
X92254200Y-116943200D01*
X95983600Y-117198100D02*
X92509100Y-117198100D01*
X96751000Y-117965500D02*
X95983600Y-117198100D01*
X132935400Y-117965500D02*
X96751000Y-117965500D01*
X135849900Y-120880000D02*
X132935400Y-117965500D01*
%TO.N,~{TIMING ADDR}*%
X70492700Y-118394100D02*
X70247400Y-118148800D01*
X81169400Y-118394100D02*
X70492700Y-118394100D01*
X81864200Y-119088900D02*
X81169400Y-118394100D01*
X86628200Y-119088900D02*
X81864200Y-119088900D01*
X86989500Y-118727600D02*
X86628200Y-119088900D01*
X95532800Y-118727600D02*
X86989500Y-118727600D01*
%TO.N,DATA7*%
X138389900Y-128261700D02*
X138389900Y-128500000D01*
X137358200Y-127230000D02*
X138389900Y-128261700D01*
X128096200Y-127230000D02*
X137358200Y-127230000D01*
X127456500Y-126590300D02*
X128096200Y-127230000D01*
X125125900Y-126590300D02*
X127456500Y-126590300D01*
X123059500Y-124523900D02*
X125125900Y-126590300D01*
X139540000Y-128500000D02*
X138389900Y-128500000D01*
%TO.N,A17*%
X115160000Y-87200000D02*
X114059900Y-87200000D01*
X107296600Y-94100800D02*
X104122900Y-94100800D01*
X114059900Y-87337500D02*
X107296600Y-94100800D01*
X114059900Y-87200000D02*
X114059900Y-87337500D01*
%TO.N,A16*%
X112620000Y-87200000D02*
X111519900Y-87200000D01*
X92112700Y-96796500D02*
X91759400Y-97149800D01*
X99930200Y-96796500D02*
X92112700Y-96796500D01*
X107479600Y-89247100D02*
X99930200Y-96796500D01*
X109700700Y-89247100D02*
X107479600Y-89247100D01*
X111519900Y-87427900D02*
X109700700Y-89247100D01*
X111519900Y-87200000D02*
X111519900Y-87427900D01*
%TO.N,Net-(U10-TC)*%
X95715200Y-97935600D02*
X69144000Y-97935600D01*
X96454200Y-97196600D02*
X95715200Y-97935600D01*
X100096000Y-97196600D02*
X96454200Y-97196600D01*
X104677500Y-92615100D02*
X100096000Y-97196600D01*
X105498100Y-92615100D02*
X104677500Y-92615100D01*
%TO.N,RESOLUTION*%
X130746600Y-76056700D02*
X135809900Y-81120000D01*
X126537600Y-76056700D02*
X130746600Y-76056700D01*
X136960000Y-81120000D02*
X135809900Y-81120000D01*
%TO.N,A13*%
X105000000Y-87200000D02*
X103899900Y-87200000D01*
X96567700Y-92117200D02*
X91548000Y-92117200D01*
X101190000Y-87494900D02*
X96567700Y-92117200D01*
X101190000Y-86903100D02*
X101190000Y-87494900D01*
X102014500Y-86078600D02*
X101190000Y-86903100D01*
X102916000Y-86078600D02*
X102014500Y-86078600D01*
X103899900Y-87062500D02*
X102916000Y-86078600D01*
X103899900Y-87200000D02*
X103899900Y-87062500D01*
%TO.N,A12*%
X89456200Y-93192800D02*
X87755700Y-94893300D01*
X99378000Y-93192800D02*
X89456200Y-93192800D01*
X102460000Y-90110800D02*
X99378000Y-93192800D01*
X102460000Y-87200000D02*
X102460000Y-90110800D01*
%TO.N,A11*%
X91893100Y-88300100D02*
X88179500Y-92013700D01*
X97857400Y-88300100D02*
X91893100Y-88300100D01*
X98819900Y-87337600D02*
X97857400Y-88300100D01*
X98819900Y-87200000D02*
X98819900Y-87337600D01*
X99920000Y-87200000D02*
X98819900Y-87200000D01*
%TO.N,A7*%
X58999800Y-90140200D02*
X66433100Y-97573500D01*
X58999800Y-86361100D02*
X58999800Y-90140200D01*
X59192900Y-86168000D02*
X58999800Y-86361100D01*
X75785400Y-86168000D02*
X59192900Y-86168000D01*
X76779900Y-87162500D02*
X75785400Y-86168000D01*
X76779900Y-87300000D02*
X76779900Y-87162500D01*
X77880000Y-87300000D02*
X76779900Y-87300000D01*
%TO.N,A6*%
X75340000Y-87300000D02*
X75340000Y-88400100D01*
X74681200Y-88400100D02*
X70947900Y-92133400D01*
X75340000Y-88400100D02*
X74681200Y-88400100D01*
%TO.N,H_CLK*%
X98927200Y-92728100D02*
X100370500Y-91284800D01*
X79325000Y-92728100D02*
X98927200Y-92728100D01*
X79245300Y-92807800D02*
X79325000Y-92728100D01*
X70244000Y-92807800D02*
X79245300Y-92807800D01*
X69587800Y-92151600D02*
X70244000Y-92807800D01*
%TO.N,A3*%
X104229000Y-98546900D02*
X69764500Y-98546900D01*
X105514400Y-97261500D02*
X104229000Y-98546900D01*
%TO.N,A0*%
X60100000Y-87300000D02*
X61200100Y-87300000D01*
X61200100Y-87437500D02*
X61200100Y-87300000D01*
X65395300Y-91632700D02*
X61200100Y-87437500D01*
X66522800Y-91632700D02*
X65395300Y-91632700D01*
X71286500Y-96396400D02*
X66522800Y-91632700D01*
X99480300Y-96396400D02*
X71286500Y-96396400D01*
X103384000Y-92492700D02*
X99480300Y-96396400D01*
%TO.N,A2*%
X65180000Y-87300000D02*
X65180000Y-88400100D01*
X97139600Y-95493400D02*
X97245200Y-95387800D01*
X72080800Y-95493400D02*
X97139600Y-95493400D01*
X65781000Y-89193600D02*
X72080800Y-95493400D01*
X65781000Y-89001100D02*
X65781000Y-89193600D01*
X65180000Y-88400100D02*
X65781000Y-89001100D01*
%TO.N,A1*%
X62640000Y-87300000D02*
X63740100Y-87300000D01*
X63740100Y-87684400D02*
X63740100Y-87300000D01*
X65380900Y-89325200D02*
X63740100Y-87684400D01*
X65380900Y-89379200D02*
X65380900Y-89325200D01*
X71989700Y-95988000D02*
X65380900Y-89379200D01*
X97618000Y-95988000D02*
X71989700Y-95988000D01*
X100363100Y-93242900D02*
X97618000Y-95988000D01*
%TO.N,~{VGA_OUT}*%
X75380700Y-98947000D02*
X70228300Y-104099400D01*
X104679200Y-98947000D02*
X75380700Y-98947000D01*
X109042600Y-94583600D02*
X104679200Y-98947000D01*
%TO.N,MEMADDR6*%
X118708000Y-120566200D02*
X119331300Y-119942900D01*
X105363400Y-120566200D02*
X118708000Y-120566200D01*
X105285200Y-120488000D02*
X105363400Y-120566200D01*
X78818100Y-120488000D02*
X105285200Y-120488000D01*
X78150900Y-121155200D02*
X78818100Y-120488000D01*
%TO.N,Net-(J1-Pin_3)*%
X133785900Y-63340000D02*
X136960000Y-63340000D01*
X126825800Y-70300100D02*
X133785900Y-63340000D01*
X105794400Y-70300100D02*
X126825800Y-70300100D01*
X104986400Y-69492100D02*
X105794400Y-70300100D01*
X102634200Y-69492100D02*
X104986400Y-69492100D01*
X101584000Y-70542300D02*
X102634200Y-69492100D01*
%TO.N,MEMADDR3*%
X113223600Y-112755800D02*
X117309800Y-112755800D01*
X112994400Y-112526600D02*
X113223600Y-112755800D01*
X112497300Y-112526600D02*
X112994400Y-112526600D01*
X111712900Y-113311000D02*
X112497300Y-112526600D01*
X108380400Y-113311000D02*
X111712900Y-113311000D01*
X108164500Y-113095100D02*
X108380400Y-113311000D01*
X100578000Y-113095100D02*
X108164500Y-113095100D01*
X100512100Y-113161000D02*
X100578000Y-113095100D01*
X94778400Y-113161000D02*
X100512100Y-113161000D01*
X94084800Y-112467400D02*
X94778400Y-113161000D01*
X86021500Y-112467400D02*
X94084800Y-112467400D01*
X82891600Y-109337500D02*
X86021500Y-112467400D01*
%TO.N,MEMADDR4*%
X112161400Y-113711100D02*
X112745800Y-113126700D01*
X108214700Y-113711100D02*
X112161400Y-113711100D01*
X108003600Y-113500000D02*
X108214700Y-113711100D01*
X100738900Y-113500000D02*
X108003600Y-113500000D01*
X100677800Y-113561100D02*
X100738900Y-113500000D01*
X93964300Y-113561100D02*
X100677800Y-113561100D01*
X93270700Y-112867500D02*
X93964300Y-113561100D01*
X85515100Y-112867500D02*
X93270700Y-112867500D01*
X83377500Y-110729900D02*
X85515100Y-112867500D01*
%TO.N,DATA6*%
X66371100Y-105558000D02*
X61026900Y-105558000D01*
X70999400Y-110186300D02*
X66371100Y-105558000D01*
X70999400Y-110677200D02*
X70999400Y-110186300D01*
X75887100Y-115564900D02*
X70999400Y-110677200D01*
X82246500Y-115564900D02*
X75887100Y-115564900D01*
X82824600Y-116143000D02*
X82246500Y-115564900D01*
X92585600Y-116143000D02*
X82824600Y-116143000D01*
X92840500Y-116397900D02*
X92585600Y-116143000D01*
X96315000Y-116397900D02*
X92840500Y-116397900D01*
X97082400Y-117165300D02*
X96315000Y-116397900D01*
X109902600Y-117165300D02*
X97082400Y-117165300D01*
X110119900Y-116948000D02*
X109902600Y-117165300D01*
%TO.N,MEMADDR0*%
X110996300Y-111291100D02*
X111066300Y-111221100D01*
X106936900Y-111291100D02*
X110996300Y-111291100D01*
X106927500Y-111300500D02*
X106936900Y-111291100D01*
X104580000Y-111300500D02*
X106927500Y-111300500D01*
X103439500Y-110160000D02*
X104580000Y-111300500D01*
X98441800Y-110160000D02*
X103439500Y-110160000D01*
X97459800Y-111142000D02*
X98441800Y-110160000D01*
X87366900Y-111142000D02*
X97459800Y-111142000D01*
X86574600Y-110349700D02*
X87366900Y-111142000D01*
X86406900Y-110349700D02*
X86574600Y-110349700D01*
X82902300Y-106845100D02*
X86406900Y-110349700D01*
X82902300Y-105413000D02*
X82902300Y-106845100D01*
%TO.N,GND*%
X120904000Y-61976000D02*
X123444000Y-61976000D01*
X114673900Y-67056000D02*
X112776000Y-67056000D01*
X119753900Y-61976000D02*
X114673900Y-67056000D01*
X120904000Y-61976000D02*
X119753900Y-61976000D01*
X69375000Y-67680000D02*
X71665000Y-67680000D01*
X71665000Y-67680000D02*
X73955000Y-67680000D01*
X96734000Y-73512300D02*
X97084000Y-73162300D01*
X94014000Y-73512300D02*
X96734000Y-73512300D01*
X83532300Y-73512300D02*
X94014000Y-73512300D01*
X79680000Y-69660000D02*
X83532300Y-73512300D01*
X99794000Y-67832300D02*
X97084000Y-70542300D01*
X107154000Y-67832300D02*
X99794000Y-67832300D01*
%TO.N,Net-(J1-Pin_2)*%
X139500000Y-60800000D02*
X138349900Y-60800000D01*
X101034300Y-69092000D02*
X99584000Y-70542300D01*
X105434900Y-69092000D02*
X101034300Y-69092000D01*
X106236300Y-69893400D02*
X105434900Y-69092000D01*
X122774000Y-69893400D02*
X106236300Y-69893400D01*
X130717200Y-61950200D02*
X122774000Y-69893400D01*
X138013000Y-61950200D02*
X130717200Y-61950200D01*
X138349900Y-61613300D02*
X138013000Y-61950200D01*
X138349900Y-60800000D02*
X138349900Y-61613300D01*
%TO.N,~{SCREEN_VISIBLE}*%
X138349900Y-68658300D02*
X138349900Y-68420000D01*
X137318200Y-69690000D02*
X138349900Y-68658300D01*
X134811300Y-69690000D02*
X137318200Y-69690000D01*
X131191400Y-73309900D02*
X134811300Y-69690000D01*
X122278500Y-73309900D02*
X131191400Y-73309900D01*
X118685400Y-76903000D02*
X122278500Y-73309900D01*
X106099600Y-76903000D02*
X118685400Y-76903000D01*
X103560100Y-79442500D02*
X106099600Y-76903000D01*
X103560100Y-79580000D02*
X103560100Y-79442500D01*
X102460000Y-79580000D02*
X103560100Y-79580000D01*
X139500000Y-68420000D02*
X138349900Y-68420000D01*
%TO.N,~{V_RESET}*%
X119835900Y-80680100D02*
X129863900Y-90708100D01*
X107062600Y-80680100D02*
X119835900Y-80680100D01*
X106100100Y-79717600D02*
X107062600Y-80680100D01*
X106100100Y-79580000D02*
X106100100Y-79717600D01*
X105000000Y-79580000D02*
X106100100Y-79580000D01*
%TO.N,~{H_SYNC}*%
X75340000Y-79680000D02*
X76440100Y-79680000D01*
X114712600Y-82776200D02*
X117226000Y-85289600D01*
X79308300Y-82776200D02*
X114712600Y-82776200D01*
X76440100Y-79908000D02*
X79308300Y-82776200D01*
X76440100Y-79680000D02*
X76440100Y-79908000D01*
%TO.N,H_VISIBLE*%
X120240000Y-87200000D02*
X119995700Y-87200000D01*
X139500000Y-65880000D02*
X139500000Y-67030100D01*
X124145900Y-91350200D02*
X119995700Y-87200000D01*
X130951400Y-91350200D02*
X124145900Y-91350200D01*
X138349800Y-83951800D02*
X130951400Y-91350200D01*
X138349800Y-72961800D02*
X138349800Y-83951800D01*
X139081600Y-72230000D02*
X138349800Y-72961800D01*
X139866000Y-72230000D02*
X139081600Y-72230000D01*
X140697800Y-71398200D02*
X139866000Y-72230000D01*
X140697800Y-67989600D02*
X140697800Y-71398200D01*
X139738300Y-67030100D02*
X140697800Y-67989600D01*
X139500000Y-67030100D02*
X139738300Y-67030100D01*
X80420000Y-79680000D02*
X81520100Y-79680000D01*
X114771700Y-81976000D02*
X119995700Y-87200000D01*
X83588100Y-81976000D02*
X114771700Y-81976000D01*
X81520100Y-79908000D02*
X83588100Y-81976000D01*
X81520100Y-79680000D02*
X81520100Y-79908000D01*
%TO.N,PWR*%
X60100000Y-79680000D02*
X61200100Y-79680000D01*
X94840000Y-79580000D02*
X93739900Y-79580000D01*
X61200100Y-79817500D02*
X61200100Y-79680000D01*
X62178000Y-80795400D02*
X61200100Y-79817500D01*
X68169800Y-80795400D02*
X62178000Y-80795400D01*
X68990000Y-79975200D02*
X68169800Y-80795400D01*
X68990000Y-79364600D02*
X68990000Y-79975200D01*
X69787800Y-78566800D02*
X68990000Y-79364600D01*
X92726700Y-78566800D02*
X69787800Y-78566800D01*
X93739900Y-79580000D02*
X92726700Y-78566800D01*
X74360500Y-117793900D02*
X80125400Y-117793900D01*
X72930200Y-116363600D02*
X74360500Y-117793900D01*
X113792000Y-59436000D02*
X120904000Y-59436000D01*
X120904000Y-59436000D02*
X123444000Y-59436000D01*
%TD*%
%TA.AperFunction,Conductor*%
%TO.N,PWR*%
G36*
X122978075Y-59243007D02*
G01*
X122944000Y-59370174D01*
X122944000Y-59501826D01*
X122978075Y-59628993D01*
X123010988Y-59686000D01*
X121337012Y-59686000D01*
X121369925Y-59628993D01*
X121404000Y-59501826D01*
X121404000Y-59370174D01*
X121369925Y-59243007D01*
X121337012Y-59186000D01*
X123010988Y-59186000D01*
X122978075Y-59243007D01*
G37*
%TD.AperFunction*%
%TA.AperFunction,Conductor*%
G36*
X142942539Y-57520185D02*
G01*
X142988294Y-57572989D01*
X142999500Y-57624500D01*
X142999500Y-131375500D01*
X142979815Y-131442539D01*
X142927011Y-131488294D01*
X142875500Y-131499500D01*
X115656940Y-131499500D01*
X115589901Y-131479815D01*
X115544146Y-131427011D01*
X115534202Y-131357853D01*
X115563227Y-131294297D01*
X115569259Y-131287819D01*
X115679816Y-131177262D01*
X115775789Y-131024522D01*
X115835368Y-130854255D01*
X115835369Y-130854249D01*
X115855565Y-130675003D01*
X115855565Y-130674996D01*
X115835369Y-130495750D01*
X115835368Y-130495745D01*
X115810612Y-130424996D01*
X115775789Y-130325478D01*
X115679816Y-130172738D01*
X115552262Y-130045184D01*
X115520144Y-130025003D01*
X115399523Y-129949211D01*
X115229254Y-129889631D01*
X115229249Y-129889630D01*
X115050004Y-129869435D01*
X115049996Y-129869435D01*
X114870750Y-129889630D01*
X114870745Y-129889631D01*
X114700476Y-129949211D01*
X114547737Y-130045184D01*
X114420184Y-130172737D01*
X114324211Y-130325476D01*
X114264631Y-130495745D01*
X114264630Y-130495750D01*
X114244435Y-130674996D01*
X114244435Y-130675003D01*
X114264630Y-130854249D01*
X114264631Y-130854254D01*
X114324211Y-131024523D01*
X114420184Y-131177262D01*
X114530741Y-131287819D01*
X114564226Y-131349142D01*
X114559242Y-131418834D01*
X114517370Y-131474767D01*
X114451906Y-131499184D01*
X114443060Y-131499500D01*
X57624500Y-131499500D01*
X57557461Y-131479815D01*
X57511706Y-131427011D01*
X57500500Y-131375500D01*
X57500500Y-127422596D01*
X60896935Y-127422596D01*
X60896935Y-127422603D01*
X60917130Y-127601849D01*
X60917131Y-127601854D01*
X60976711Y-127772123D01*
X61019975Y-127840976D01*
X61072684Y-127924862D01*
X61200238Y-128052416D01*
X61352978Y-128148389D01*
X61523245Y-128207968D01*
X61523250Y-128207969D01*
X61702496Y-128228165D01*
X61702500Y-128228165D01*
X61702504Y-128228165D01*
X61881749Y-128207969D01*
X61881752Y-128207968D01*
X61881755Y-128207968D01*
X62052022Y-128148389D01*
X62118624Y-128106540D01*
X100162031Y-128106540D01*
X100188950Y-128241867D01*
X100188953Y-128241877D01*
X100241753Y-128369349D01*
X100241760Y-128369362D01*
X100318417Y-128484086D01*
X100318420Y-128484090D01*
X100415986Y-128581656D01*
X100415990Y-128581659D01*
X100530714Y-128658316D01*
X100530727Y-128658323D01*
X100658199Y-128711123D01*
X100658204Y-128711125D01*
X100658208Y-128711125D01*
X100658209Y-128711126D01*
X100793536Y-128738045D01*
X100793539Y-128738045D01*
X100931527Y-128738045D01*
X101022573Y-128719934D01*
X101066860Y-128711125D01*
X101194343Y-128658320D01*
X101309074Y-128581659D01*
X101406646Y-128484087D01*
X101483307Y-128369356D01*
X101485372Y-128364372D01*
X101515146Y-128292489D01*
X101536112Y-128241873D01*
X101554707Y-128148389D01*
X101563032Y-128106540D01*
X108162031Y-128106540D01*
X108188950Y-128241867D01*
X108188953Y-128241877D01*
X108241753Y-128369349D01*
X108241760Y-128369362D01*
X108318417Y-128484086D01*
X108318420Y-128484090D01*
X108415986Y-128581656D01*
X108415990Y-128581659D01*
X108530714Y-128658316D01*
X108530727Y-128658323D01*
X108658199Y-128711123D01*
X108658204Y-128711125D01*
X108658208Y-128711125D01*
X108658209Y-128711126D01*
X108793536Y-128738045D01*
X108793539Y-128738045D01*
X108931527Y-128738045D01*
X109022573Y-128719934D01*
X109066860Y-128711125D01*
X109194343Y-128658320D01*
X109309074Y-128581659D01*
X109406646Y-128484087D01*
X109483307Y-128369356D01*
X109485372Y-128364372D01*
X109515146Y-128292489D01*
X109536112Y-128241873D01*
X109554707Y-128148389D01*
X109563032Y-128106540D01*
X109563032Y-127968549D01*
X109536113Y-127833222D01*
X109536112Y-127833221D01*
X109536112Y-127833217D01*
X109518036Y-127789577D01*
X109483310Y-127705740D01*
X109483303Y-127705727D01*
X109406646Y-127591003D01*
X109406643Y-127590999D01*
X109309077Y-127493433D01*
X109309073Y-127493430D01*
X109194349Y-127416773D01*
X109194336Y-127416766D01*
X109066864Y-127363966D01*
X109066854Y-127363963D01*
X108931527Y-127337045D01*
X108931525Y-127337045D01*
X108793539Y-127337045D01*
X108793537Y-127337045D01*
X108658209Y-127363963D01*
X108658199Y-127363966D01*
X108530727Y-127416766D01*
X108530714Y-127416773D01*
X108415990Y-127493430D01*
X108415986Y-127493433D01*
X108318420Y-127590999D01*
X108318417Y-127591003D01*
X108241760Y-127705727D01*
X108241753Y-127705740D01*
X108188953Y-127833212D01*
X108188950Y-127833222D01*
X108162032Y-127968549D01*
X108162032Y-127968552D01*
X108162032Y-128106538D01*
X108162032Y-128106540D01*
X108162031Y-128106540D01*
X101563032Y-128106540D01*
X101563032Y-127968549D01*
X101536113Y-127833222D01*
X101536112Y-127833221D01*
X101536112Y-127833217D01*
X101518036Y-127789577D01*
X101483310Y-127705740D01*
X101483303Y-127705727D01*
X101406646Y-127591003D01*
X101406643Y-127590999D01*
X101309077Y-127493433D01*
X101309073Y-127493430D01*
X101194349Y-127416773D01*
X101194336Y-127416766D01*
X101066864Y-127363966D01*
X101066854Y-127363963D01*
X100931527Y-127337045D01*
X100931525Y-127337045D01*
X100793539Y-127337045D01*
X100793537Y-127337045D01*
X100658209Y-127363963D01*
X100658199Y-127363966D01*
X100530727Y-127416766D01*
X100530714Y-127416773D01*
X100415990Y-127493430D01*
X100415986Y-127493433D01*
X100318420Y-127590999D01*
X100318417Y-127591003D01*
X100241760Y-127705727D01*
X100241753Y-127705740D01*
X100188953Y-127833212D01*
X100188950Y-127833222D01*
X100162032Y-127968549D01*
X100162032Y-127968552D01*
X100162032Y-128106538D01*
X100162032Y-128106540D01*
X100162031Y-128106540D01*
X62118624Y-128106540D01*
X62204762Y-128052416D01*
X62332316Y-127924862D01*
X62428289Y-127772122D01*
X62487868Y-127601855D01*
X62489091Y-127590999D01*
X62508065Y-127422603D01*
X62508065Y-127422596D01*
X62487869Y-127243350D01*
X62487868Y-127243345D01*
X62464120Y-127175478D01*
X62428289Y-127073078D01*
X62332316Y-126920338D01*
X62204762Y-126792784D01*
X62144739Y-126755069D01*
X62052023Y-126696811D01*
X61881754Y-126637231D01*
X61881749Y-126637230D01*
X61702504Y-126617035D01*
X61702496Y-126617035D01*
X61523250Y-126637230D01*
X61523245Y-126637231D01*
X61352976Y-126696811D01*
X61200237Y-126792784D01*
X61072684Y-126920337D01*
X60976711Y-127073076D01*
X60917131Y-127243345D01*
X60917130Y-127243350D01*
X60896935Y-127422596D01*
X57500500Y-127422596D01*
X57500500Y-125496796D01*
X60092435Y-125496796D01*
X60092435Y-125496803D01*
X60112630Y-125676049D01*
X60112631Y-125676054D01*
X60172211Y-125846323D01*
X60265170Y-125994265D01*
X60268184Y-125999062D01*
X60395738Y-126126616D01*
X60548478Y-126222589D01*
X60718745Y-126282168D01*
X60718750Y-126282169D01*
X60897996Y-126302365D01*
X60898000Y-126302365D01*
X60898004Y-126302365D01*
X61077249Y-126282169D01*
X61077252Y-126282168D01*
X61077255Y-126282168D01*
X61247522Y-126222589D01*
X61400262Y-126126616D01*
X61527816Y-125999062D01*
X61623789Y-125846322D01*
X61683368Y-125676055D01*
X61683369Y-125676049D01*
X61703565Y-125496803D01*
X61703565Y-125496796D01*
X61683369Y-125317550D01*
X61683366Y-125317537D01*
X61623789Y-125147278D01*
X61620769Y-125141006D01*
X61623613Y-125139636D01*
X61608357Y-125085837D01*
X61628663Y-125018983D01*
X61644672Y-124999305D01*
X61657916Y-124986062D01*
X61753889Y-124833322D01*
X61813468Y-124663055D01*
X61813469Y-124663049D01*
X61833665Y-124483803D01*
X61833665Y-124483796D01*
X61813469Y-124304550D01*
X61813468Y-124304545D01*
X61753888Y-124134276D01*
X61682397Y-124020500D01*
X61657916Y-123981538D01*
X61530362Y-123853984D01*
X61426489Y-123788716D01*
X61377623Y-123758011D01*
X61207354Y-123698431D01*
X61207349Y-123698430D01*
X61028104Y-123678235D01*
X61028096Y-123678235D01*
X60848850Y-123698430D01*
X60848845Y-123698431D01*
X60678576Y-123758011D01*
X60525837Y-123853984D01*
X60398284Y-123981537D01*
X60302311Y-124134276D01*
X60242731Y-124304545D01*
X60242730Y-124304550D01*
X60222535Y-124483796D01*
X60222535Y-124483803D01*
X60242730Y-124663049D01*
X60242733Y-124663062D01*
X60302310Y-124833321D01*
X60305331Y-124839594D01*
X60302533Y-124840941D01*
X60317737Y-124895069D01*
X60297266Y-124961873D01*
X60281432Y-124981287D01*
X60268188Y-124994531D01*
X60268186Y-124994534D01*
X60172211Y-125147276D01*
X60112631Y-125317545D01*
X60112630Y-125317550D01*
X60092435Y-125496796D01*
X57500500Y-125496796D01*
X57500500Y-121009996D01*
X60220935Y-121009996D01*
X60220935Y-121010003D01*
X60241130Y-121189249D01*
X60241131Y-121189254D01*
X60300712Y-121359525D01*
X60351752Y-121440756D01*
X60370752Y-121507993D01*
X60351752Y-121572698D01*
X60315512Y-121630374D01*
X60255931Y-121800645D01*
X60255930Y-121800650D01*
X60235735Y-121979896D01*
X60235735Y-121979903D01*
X60255930Y-122159149D01*
X60255931Y-122159154D01*
X60315511Y-122329423D01*
X60369723Y-122415700D01*
X60411484Y-122482162D01*
X60539038Y-122609716D01*
X60629380Y-122666482D01*
X60690388Y-122704816D01*
X60691778Y-122705689D01*
X60787164Y-122739066D01*
X60862045Y-122765268D01*
X60862050Y-122765269D01*
X61041296Y-122785465D01*
X61041300Y-122785465D01*
X61041304Y-122785465D01*
X61220549Y-122765269D01*
X61220552Y-122765268D01*
X61220555Y-122765268D01*
X61390822Y-122705689D01*
X61543562Y-122609716D01*
X61671116Y-122482162D01*
X61767089Y-122329422D01*
X61826668Y-122159155D01*
X61834097Y-122093224D01*
X61846865Y-121979903D01*
X61846865Y-121979896D01*
X61826669Y-121800650D01*
X61826668Y-121800645D01*
X61815256Y-121768031D01*
X61767089Y-121630378D01*
X61767088Y-121630376D01*
X61716046Y-121549143D01*
X61697046Y-121481906D01*
X61716045Y-121417201D01*
X61752289Y-121359522D01*
X61791476Y-121247533D01*
X61811866Y-121189262D01*
X61811869Y-121189249D01*
X61832065Y-121010003D01*
X61832065Y-121009999D01*
X61830928Y-120999909D01*
X61842982Y-120931087D01*
X61890330Y-120879707D01*
X61957940Y-120862082D01*
X62020120Y-120881030D01*
X62083078Y-120920589D01*
X62241276Y-120975945D01*
X62253345Y-120980168D01*
X62253350Y-120980169D01*
X62432596Y-121000365D01*
X62432600Y-121000365D01*
X62432604Y-121000365D01*
X62611849Y-120980169D01*
X62611852Y-120980168D01*
X62611855Y-120980168D01*
X62782122Y-120920589D01*
X62934862Y-120824616D01*
X63062416Y-120697062D01*
X63158389Y-120544322D01*
X63217968Y-120374055D01*
X63218444Y-120369830D01*
X63238165Y-120194803D01*
X63238165Y-120194796D01*
X63217969Y-120015550D01*
X63217968Y-120015545D01*
X63205362Y-119979519D01*
X63158389Y-119845278D01*
X63156018Y-119841505D01*
X63105413Y-119760967D01*
X63062416Y-119692538D01*
X62934862Y-119564984D01*
X62902959Y-119544938D01*
X62782123Y-119469011D01*
X62611854Y-119409431D01*
X62611849Y-119409430D01*
X62432604Y-119389235D01*
X62432596Y-119389235D01*
X62253350Y-119409430D01*
X62253345Y-119409431D01*
X62083076Y-119469011D01*
X61930337Y-119564984D01*
X61802784Y-119692537D01*
X61706811Y-119845276D01*
X61647231Y-120015545D01*
X61647230Y-120015550D01*
X61627035Y-120194796D01*
X61627035Y-120194801D01*
X61628172Y-120204896D01*
X61616114Y-120273718D01*
X61568763Y-120325095D01*
X61501152Y-120342717D01*
X61438979Y-120323769D01*
X61376023Y-120284211D01*
X61205754Y-120224631D01*
X61205749Y-120224630D01*
X61026504Y-120204435D01*
X61026496Y-120204435D01*
X60847250Y-120224630D01*
X60847245Y-120224631D01*
X60676976Y-120284211D01*
X60524237Y-120380184D01*
X60396684Y-120507737D01*
X60300711Y-120660476D01*
X60241131Y-120830745D01*
X60241130Y-120830750D01*
X60220935Y-121009996D01*
X57500500Y-121009996D01*
X57500500Y-117334996D01*
X60221935Y-117334996D01*
X60221935Y-117335003D01*
X60242130Y-117514249D01*
X60242131Y-117514254D01*
X60301711Y-117684523D01*
X60369848Y-117792961D01*
X60397684Y-117837262D01*
X60461280Y-117900858D01*
X60470391Y-117909969D01*
X60503875Y-117971293D01*
X60498890Y-118040984D01*
X60470391Y-118085331D01*
X60404383Y-118151339D01*
X60308411Y-118304076D01*
X60248831Y-118474345D01*
X60248830Y-118474350D01*
X60228635Y-118653596D01*
X60228635Y-118653603D01*
X60248830Y-118832849D01*
X60248831Y-118832854D01*
X60308411Y-119003123D01*
X60315425Y-119014285D01*
X60404384Y-119155862D01*
X60531938Y-119283416D01*
X60595023Y-119323055D01*
X60684284Y-119379142D01*
X60684678Y-119379389D01*
X60770536Y-119409432D01*
X60854945Y-119438968D01*
X60854950Y-119438969D01*
X61034196Y-119459165D01*
X61034200Y-119459165D01*
X61034204Y-119459165D01*
X61213449Y-119438969D01*
X61213452Y-119438968D01*
X61213455Y-119438968D01*
X61383722Y-119379389D01*
X61536462Y-119283416D01*
X61664016Y-119155862D01*
X61759989Y-119003122D01*
X61819568Y-118832855D01*
X61819569Y-118832849D01*
X61839765Y-118653603D01*
X61839765Y-118653596D01*
X61819569Y-118474350D01*
X61819568Y-118474345D01*
X61768379Y-118328055D01*
X61759989Y-118304078D01*
X61664016Y-118151338D01*
X61591309Y-118078631D01*
X61557824Y-118017308D01*
X61562808Y-117947616D01*
X61591309Y-117903269D01*
X61593720Y-117900858D01*
X61657316Y-117837262D01*
X61753289Y-117684522D01*
X61812868Y-117514255D01*
X61812869Y-117514249D01*
X61833065Y-117335003D01*
X61833065Y-117334996D01*
X61812869Y-117155750D01*
X61812868Y-117155745D01*
X61753288Y-116985476D01*
X61657315Y-116832737D01*
X61529762Y-116705184D01*
X61377023Y-116609211D01*
X61206754Y-116549631D01*
X61206749Y-116549630D01*
X61027504Y-116529435D01*
X61027496Y-116529435D01*
X60848250Y-116549630D01*
X60848245Y-116549631D01*
X60677976Y-116609211D01*
X60525237Y-116705184D01*
X60397684Y-116832737D01*
X60301711Y-116985476D01*
X60242131Y-117155745D01*
X60242130Y-117155750D01*
X60221935Y-117334996D01*
X57500500Y-117334996D01*
X57500500Y-112549197D01*
X57520185Y-112482158D01*
X57572989Y-112436403D01*
X57642147Y-112426459D01*
X57705703Y-112455484D01*
X57712181Y-112461516D01*
X70380639Y-125129974D01*
X70380649Y-125129985D01*
X70384979Y-125134315D01*
X70384980Y-125134316D01*
X70496784Y-125246120D01*
X70571687Y-125289365D01*
X70633715Y-125325177D01*
X70786443Y-125366101D01*
X70786446Y-125366101D01*
X70952153Y-125366101D01*
X70952169Y-125366100D01*
X95889053Y-125366100D01*
X95956092Y-125385785D01*
X96001847Y-125438589D01*
X96012273Y-125476217D01*
X96020230Y-125546850D01*
X96020231Y-125546854D01*
X96079811Y-125717123D01*
X96084507Y-125724596D01*
X96175784Y-125869862D01*
X96303338Y-125997416D01*
X96456078Y-126093389D01*
X96614862Y-126148950D01*
X96626345Y-126152968D01*
X96626350Y-126152969D01*
X96805596Y-126173165D01*
X96805600Y-126173165D01*
X96805604Y-126173165D01*
X96984849Y-126152969D01*
X96984852Y-126152968D01*
X96984855Y-126152968D01*
X97155122Y-126093389D01*
X97307862Y-125997416D01*
X97307867Y-125997410D01*
X97310697Y-125995155D01*
X97312875Y-125994265D01*
X97313758Y-125993711D01*
X97313855Y-125993865D01*
X97375383Y-125968745D01*
X97388012Y-125968100D01*
X98422341Y-125968100D01*
X98489380Y-125987785D01*
X98535135Y-126040589D01*
X98545561Y-126078216D01*
X98553530Y-126148950D01*
X98553531Y-126148954D01*
X98613111Y-126319223D01*
X98678736Y-126423664D01*
X98709084Y-126471962D01*
X98836638Y-126599516D01*
X98989378Y-126695489D01*
X99159645Y-126755068D01*
X99159650Y-126755069D01*
X99338896Y-126775265D01*
X99338900Y-126775265D01*
X99338904Y-126775265D01*
X99518149Y-126755069D01*
X99518152Y-126755068D01*
X99518155Y-126755068D01*
X99688422Y-126695489D01*
X99841162Y-126599516D01*
X99841167Y-126599510D01*
X99843997Y-126597255D01*
X99846175Y-126596365D01*
X99847058Y-126595811D01*
X99847155Y-126595965D01*
X99908683Y-126570845D01*
X99921312Y-126570200D01*
X112400368Y-126570200D01*
X112467407Y-126589885D01*
X112488049Y-126606519D01*
X114096153Y-128214624D01*
X114129638Y-128275947D01*
X114131692Y-128316188D01*
X114119433Y-128424996D01*
X114119433Y-128425003D01*
X114139628Y-128604249D01*
X114139629Y-128604254D01*
X114199209Y-128774523D01*
X114227983Y-128820316D01*
X114295182Y-128927262D01*
X114422736Y-129054816D01*
X114575476Y-129150789D01*
X114675646Y-129185840D01*
X114745743Y-129210368D01*
X114745748Y-129210369D01*
X114924994Y-129230565D01*
X114924998Y-129230565D01*
X114925002Y-129230565D01*
X115104247Y-129210369D01*
X115104250Y-129210368D01*
X115104253Y-129210368D01*
X115274520Y-129150789D01*
X115427260Y-129054816D01*
X115554814Y-128927262D01*
X115650787Y-128774522D01*
X115710366Y-128604255D01*
X115712912Y-128581659D01*
X115730563Y-128425003D01*
X115730563Y-128424996D01*
X115710367Y-128245753D01*
X115710365Y-128245742D01*
X115691033Y-128190496D01*
X118806435Y-128190496D01*
X118806435Y-128190503D01*
X118826630Y-128369749D01*
X118826631Y-128369754D01*
X118886211Y-128540023D01*
X118982184Y-128692762D01*
X119109738Y-128820316D01*
X119262478Y-128916289D01*
X119299533Y-128929255D01*
X119432745Y-128975868D01*
X119432750Y-128975869D01*
X119611996Y-128996065D01*
X119612000Y-128996065D01*
X119612004Y-128996065D01*
X119791249Y-128975869D01*
X119791252Y-128975868D01*
X119791255Y-128975868D01*
X119961522Y-128916289D01*
X120114262Y-128820316D01*
X120184582Y-128749996D01*
X122619435Y-128749996D01*
X122619435Y-128750003D01*
X122639630Y-128929249D01*
X122639631Y-128929254D01*
X122699211Y-129099523D01*
X122753448Y-129185840D01*
X122795184Y-129252262D01*
X122922738Y-129379816D01*
X123075478Y-129475789D01*
X123143306Y-129499523D01*
X123245745Y-129535368D01*
X123245750Y-129535369D01*
X123424996Y-129555565D01*
X123425000Y-129555565D01*
X123425004Y-129555565D01*
X123604249Y-129535369D01*
X123604252Y-129535368D01*
X123604255Y-129535368D01*
X123774522Y-129475789D01*
X123927262Y-129379816D01*
X124054816Y-129252262D01*
X124150789Y-129099522D01*
X124210368Y-128929255D01*
X124211829Y-128916288D01*
X124230565Y-128750003D01*
X124230565Y-128749996D01*
X124210369Y-128570750D01*
X124210368Y-128570745D01*
X124167779Y-128449032D01*
X124150789Y-128400478D01*
X124131484Y-128369755D01*
X124072541Y-128275947D01*
X124054816Y-128247738D01*
X123927262Y-128120184D01*
X123845738Y-128068959D01*
X123774523Y-128024211D01*
X123604254Y-127964631D01*
X123604249Y-127964630D01*
X123425004Y-127944435D01*
X123424996Y-127944435D01*
X123245750Y-127964630D01*
X123245745Y-127964631D01*
X123075476Y-128024211D01*
X122922737Y-128120184D01*
X122795184Y-128247737D01*
X122699211Y-128400476D01*
X122639631Y-128570745D01*
X122639630Y-128570750D01*
X122619435Y-128749996D01*
X120184582Y-128749996D01*
X120241816Y-128692762D01*
X120337789Y-128540022D01*
X120397368Y-128369755D01*
X120397369Y-128369749D01*
X120417565Y-128190503D01*
X120417565Y-128190496D01*
X120397369Y-128011250D01*
X120397368Y-128011245D01*
X120364118Y-127916222D01*
X120337789Y-127840978D01*
X120332912Y-127833217D01*
X120255817Y-127710521D01*
X120241816Y-127688238D01*
X120114262Y-127560684D01*
X120057476Y-127525003D01*
X119961523Y-127464711D01*
X119791254Y-127405131D01*
X119791249Y-127405130D01*
X119612004Y-127384935D01*
X119611996Y-127384935D01*
X119432750Y-127405130D01*
X119432745Y-127405131D01*
X119262476Y-127464711D01*
X119109737Y-127560684D01*
X118982184Y-127688237D01*
X118886211Y-127840976D01*
X118826631Y-128011245D01*
X118826630Y-128011250D01*
X118806435Y-128190496D01*
X115691033Y-128190496D01*
X115690988Y-128190366D01*
X115687426Y-128120587D01*
X115720349Y-128061729D01*
X115754813Y-128027265D01*
X115754813Y-128027264D01*
X115754816Y-128027262D01*
X115850789Y-127874522D01*
X115910368Y-127704255D01*
X115912173Y-127688237D01*
X115930565Y-127525003D01*
X115930565Y-127524996D01*
X115910369Y-127345750D01*
X115910368Y-127345745D01*
X115868859Y-127227119D01*
X115850789Y-127175478D01*
X115831729Y-127145145D01*
X115786445Y-127073076D01*
X115754816Y-127022738D01*
X115627262Y-126895184D01*
X115525752Y-126831401D01*
X115474521Y-126799210D01*
X115304249Y-126739630D01*
X115273679Y-126736186D01*
X115209266Y-126709119D01*
X115199883Y-126700647D01*
X114648186Y-126148950D01*
X114077015Y-125577780D01*
X114043531Y-125516458D01*
X114048515Y-125446766D01*
X114090387Y-125390833D01*
X114155851Y-125366416D01*
X114164697Y-125366100D01*
X117646263Y-125366100D01*
X117713302Y-125385785D01*
X117733944Y-125402419D01*
X117762045Y-125430520D01*
X117846847Y-125479480D01*
X117846848Y-125479481D01*
X117898970Y-125509574D01*
X117898973Y-125509576D01*
X117898975Y-125509576D01*
X117898976Y-125509577D01*
X118051704Y-125550501D01*
X118051707Y-125550501D01*
X118217414Y-125550501D01*
X118217430Y-125550500D01*
X122546731Y-125550500D01*
X122546747Y-125550501D01*
X122554343Y-125550501D01*
X122712454Y-125550501D01*
X122712457Y-125550501D01*
X122865185Y-125509577D01*
X122902838Y-125487838D01*
X122917313Y-125479481D01*
X122917313Y-125479480D01*
X122917314Y-125479480D01*
X122992479Y-125436083D01*
X123060374Y-125419612D01*
X123126401Y-125442464D01*
X123142156Y-125455791D01*
X124641039Y-126954674D01*
X124641049Y-126954685D01*
X124757185Y-127070821D01*
X124761095Y-127073078D01*
X124778139Y-127082918D01*
X124826355Y-127133483D01*
X124839580Y-127202090D01*
X124833183Y-127231261D01*
X124778531Y-127387445D01*
X124778530Y-127387450D01*
X124758335Y-127566696D01*
X124758335Y-127566703D01*
X124778530Y-127745949D01*
X124778531Y-127745954D01*
X124838111Y-127916223D01*
X124897818Y-128011245D01*
X124934084Y-128068962D01*
X125061638Y-128196516D01*
X125139998Y-128245753D01*
X125188051Y-128275947D01*
X125214378Y-128292489D01*
X125282106Y-128316188D01*
X125384645Y-128352068D01*
X125384650Y-128352069D01*
X125457120Y-128360233D01*
X125493849Y-128364372D01*
X125558264Y-128391438D01*
X125597819Y-128449032D01*
X125599958Y-128518869D01*
X125567649Y-128575273D01*
X125495183Y-128647739D01*
X125399211Y-128800476D01*
X125339631Y-128970745D01*
X125339630Y-128970750D01*
X125319435Y-129149996D01*
X125319435Y-129150003D01*
X125339630Y-129329249D01*
X125339631Y-129329254D01*
X125399211Y-129499523D01*
X125480215Y-129628439D01*
X125499215Y-129695676D01*
X125478847Y-129762511D01*
X125452545Y-129791349D01*
X125447741Y-129795180D01*
X125320184Y-129922737D01*
X125224211Y-130075476D01*
X125164631Y-130245745D01*
X125164630Y-130245750D01*
X125144435Y-130424996D01*
X125144435Y-130425003D01*
X125164630Y-130604249D01*
X125164631Y-130604254D01*
X125224211Y-130774523D01*
X125320184Y-130927262D01*
X125447738Y-131054816D01*
X125600478Y-131150789D01*
X125770745Y-131210368D01*
X125770750Y-131210369D01*
X125949996Y-131230565D01*
X125950000Y-131230565D01*
X125950004Y-131230565D01*
X126129249Y-131210369D01*
X126129252Y-131210368D01*
X126129255Y-131210368D01*
X126299522Y-131150789D01*
X126452262Y-131054816D01*
X126579816Y-130927262D01*
X126675789Y-130774522D01*
X126735368Y-130604255D01*
X126744043Y-130527262D01*
X126755565Y-130425003D01*
X126755565Y-130424996D01*
X126735369Y-130245750D01*
X126735368Y-130245745D01*
X126720848Y-130204249D01*
X126675789Y-130075478D01*
X126644069Y-130024996D01*
X128519435Y-130024996D01*
X128519435Y-130025003D01*
X128539630Y-130204249D01*
X128539631Y-130204254D01*
X128599211Y-130374523D01*
X128675384Y-130495750D01*
X128695184Y-130527262D01*
X128822738Y-130654816D01*
X128975478Y-130750789D01*
X129043306Y-130774523D01*
X129145745Y-130810368D01*
X129145750Y-130810369D01*
X129324996Y-130830565D01*
X129325000Y-130830565D01*
X129325004Y-130830565D01*
X129504249Y-130810369D01*
X129504252Y-130810368D01*
X129504255Y-130810368D01*
X129674522Y-130750789D01*
X129827262Y-130654816D01*
X129954816Y-130527262D01*
X130050789Y-130374522D01*
X130110368Y-130204255D01*
X130113919Y-130172738D01*
X130130565Y-130025003D01*
X130130565Y-130024996D01*
X130110369Y-129845750D01*
X130110368Y-129845745D01*
X130106630Y-129835063D01*
X130050789Y-129675478D01*
X130049882Y-129674035D01*
X130011582Y-129613080D01*
X129954816Y-129522738D01*
X129827262Y-129395184D01*
X129802804Y-129379816D01*
X129674523Y-129299211D01*
X129504254Y-129239631D01*
X129504249Y-129239630D01*
X129325004Y-129219435D01*
X129324996Y-129219435D01*
X129145750Y-129239630D01*
X129145745Y-129239631D01*
X128975476Y-129299211D01*
X128822737Y-129395184D01*
X128695184Y-129522737D01*
X128599211Y-129675476D01*
X128539631Y-129845745D01*
X128539630Y-129845750D01*
X128519435Y-130024996D01*
X126644069Y-130024996D01*
X126594783Y-129946558D01*
X126575784Y-129879324D01*
X126596152Y-129812488D01*
X126622471Y-129783637D01*
X126627258Y-129779819D01*
X126627259Y-129779817D01*
X126627262Y-129779816D01*
X126754816Y-129652262D01*
X126850789Y-129499522D01*
X126910368Y-129329255D01*
X126920466Y-129239631D01*
X126930565Y-129150003D01*
X126930565Y-129149996D01*
X126910369Y-128970750D01*
X126910368Y-128970745D01*
X126891313Y-128916288D01*
X126850789Y-128800478D01*
X126834480Y-128774523D01*
X126761465Y-128658320D01*
X126754816Y-128647738D01*
X126627262Y-128520184D01*
X126625169Y-128518869D01*
X126474523Y-128424211D01*
X126304254Y-128364631D01*
X126304249Y-128364630D01*
X126195049Y-128352327D01*
X126130635Y-128325261D01*
X126091079Y-128267666D01*
X126088942Y-128197829D01*
X126121248Y-128141429D01*
X126193716Y-128068962D01*
X126289689Y-127916222D01*
X126349268Y-127745955D01*
X126353260Y-127710524D01*
X126369465Y-127566703D01*
X126369465Y-127566696D01*
X126349269Y-127387450D01*
X126349266Y-127387437D01*
X126338180Y-127355755D01*
X126334618Y-127285976D01*
X126369346Y-127225349D01*
X126431339Y-127193121D01*
X126455221Y-127190800D01*
X127156403Y-127190800D01*
X127223442Y-127210485D01*
X127244084Y-127227119D01*
X127611339Y-127594374D01*
X127611349Y-127594385D01*
X127615679Y-127598715D01*
X127615680Y-127598716D01*
X127727484Y-127710520D01*
X127727486Y-127710521D01*
X127727490Y-127710524D01*
X127864409Y-127789573D01*
X127864416Y-127789577D01*
X127976219Y-127819534D01*
X128017142Y-127830500D01*
X128017143Y-127830500D01*
X135627440Y-127830500D01*
X135694479Y-127850185D01*
X135740234Y-127902989D01*
X135750178Y-127972147D01*
X135739823Y-128006900D01*
X135726098Y-128036335D01*
X135726096Y-128036340D01*
X135726094Y-128036344D01*
X135664938Y-128264586D01*
X135664936Y-128264596D01*
X135644341Y-128499999D01*
X135644341Y-128500000D01*
X135664936Y-128735403D01*
X135664938Y-128735413D01*
X135726094Y-128963655D01*
X135726096Y-128963659D01*
X135726097Y-128963663D01*
X135806003Y-129135022D01*
X135825965Y-129177830D01*
X135825967Y-129177834D01*
X135910957Y-129299211D01*
X135961505Y-129371401D01*
X136128599Y-129538495D01*
X136225384Y-129606265D01*
X136322165Y-129674032D01*
X136322167Y-129674033D01*
X136322170Y-129674035D01*
X136536337Y-129773903D01*
X136764592Y-129835063D01*
X136952918Y-129851539D01*
X136999999Y-129855659D01*
X137000000Y-129855659D01*
X137000001Y-129855659D01*
X137039234Y-129852226D01*
X137235408Y-129835063D01*
X137463663Y-129773903D01*
X137677830Y-129674035D01*
X137871401Y-129538495D01*
X138038495Y-129371401D01*
X138168427Y-129185838D01*
X138223000Y-129142216D01*
X138292499Y-129135022D01*
X138354854Y-129166544D01*
X138371572Y-129185838D01*
X138501505Y-129371401D01*
X138668599Y-129538495D01*
X138765384Y-129606265D01*
X138862165Y-129674032D01*
X138862167Y-129674033D01*
X138862170Y-129674035D01*
X139076337Y-129773903D01*
X139304592Y-129835063D01*
X139492918Y-129851539D01*
X139539999Y-129855659D01*
X139540000Y-129855659D01*
X139540001Y-129855659D01*
X139579234Y-129852226D01*
X139775408Y-129835063D01*
X140003663Y-129773903D01*
X140217830Y-129674035D01*
X140411401Y-129538495D01*
X140578495Y-129371401D01*
X140714035Y-129177830D01*
X140813903Y-128963663D01*
X140875063Y-128735408D01*
X140895659Y-128500000D01*
X140875063Y-128264592D01*
X140813903Y-128036337D01*
X140714035Y-127822171D01*
X140678992Y-127772123D01*
X140578494Y-127628597D01*
X140411402Y-127461506D01*
X140411396Y-127461501D01*
X140225842Y-127331575D01*
X140182217Y-127276998D01*
X140175023Y-127207500D01*
X140206546Y-127145145D01*
X140225842Y-127128425D01*
X140290834Y-127082917D01*
X140411401Y-126998495D01*
X140578495Y-126831401D01*
X140714035Y-126637830D01*
X140813903Y-126423663D01*
X140875063Y-126195408D01*
X140895659Y-125960000D01*
X140875063Y-125724592D01*
X140813903Y-125496337D01*
X140714035Y-125282171D01*
X140701530Y-125264311D01*
X140578494Y-125088597D01*
X140411402Y-124921506D01*
X140411396Y-124921501D01*
X140225842Y-124791575D01*
X140182217Y-124736998D01*
X140175023Y-124667500D01*
X140206546Y-124605145D01*
X140225842Y-124588425D01*
X140248026Y-124572891D01*
X140411401Y-124458495D01*
X140578495Y-124291401D01*
X140714035Y-124097830D01*
X140813903Y-123883663D01*
X140875063Y-123655408D01*
X140895659Y-123420000D01*
X140875063Y-123184592D01*
X140813903Y-122956337D01*
X140714035Y-122742171D01*
X140710933Y-122737740D01*
X140578494Y-122548597D01*
X140411402Y-122381506D01*
X140411396Y-122381501D01*
X140225842Y-122251575D01*
X140182217Y-122196998D01*
X140175023Y-122127500D01*
X140206546Y-122065145D01*
X140225842Y-122048425D01*
X140323701Y-121979903D01*
X140411401Y-121918495D01*
X140578495Y-121751401D01*
X140714035Y-121557830D01*
X140813903Y-121343663D01*
X140875063Y-121115408D01*
X140895659Y-120880000D01*
X140875063Y-120644592D01*
X140813903Y-120416337D01*
X140714035Y-120202171D01*
X140708875Y-120194801D01*
X140578494Y-120008597D01*
X140411402Y-119841506D01*
X140411395Y-119841501D01*
X140217834Y-119705967D01*
X140217830Y-119705965D01*
X140189036Y-119692538D01*
X140003663Y-119606097D01*
X140003659Y-119606096D01*
X140003655Y-119606094D01*
X139775413Y-119544938D01*
X139775403Y-119544936D01*
X139540001Y-119524341D01*
X139539999Y-119524341D01*
X139304596Y-119544936D01*
X139304586Y-119544938D01*
X139076344Y-119606094D01*
X139076330Y-119606099D01*
X138936516Y-119671296D01*
X138867439Y-119681788D01*
X138803655Y-119653268D01*
X138796431Y-119646595D01*
X137982685Y-118832849D01*
X137112015Y-117962180D01*
X137078531Y-117900858D01*
X137083515Y-117831166D01*
X137125387Y-117775233D01*
X137190851Y-117750816D01*
X137199697Y-117750500D01*
X138493031Y-117750500D01*
X138493047Y-117750501D01*
X138500643Y-117750501D01*
X138658754Y-117750501D01*
X138658757Y-117750501D01*
X138811485Y-117709577D01*
X138867464Y-117677257D01*
X138948416Y-117630520D01*
X139060220Y-117518716D01*
X139060220Y-117518714D01*
X139070424Y-117508511D01*
X139070428Y-117508506D01*
X141453406Y-115125528D01*
X141453411Y-115125524D01*
X141463614Y-115115320D01*
X141463616Y-115115320D01*
X141575420Y-115003516D01*
X141577178Y-115000469D01*
X141626140Y-114915667D01*
X141626140Y-114915666D01*
X141636511Y-114897700D01*
X141654477Y-114866585D01*
X141695401Y-114713857D01*
X141695401Y-114555743D01*
X141695401Y-114548148D01*
X141695400Y-114548130D01*
X141695400Y-75015845D01*
X141695399Y-75015841D01*
X141690104Y-74996080D01*
X141670150Y-74921606D01*
X141665082Y-74902690D01*
X141665082Y-74902689D01*
X141654478Y-74863118D01*
X141654477Y-74863115D01*
X141635585Y-74830394D01*
X141602970Y-74773903D01*
X141575420Y-74726184D01*
X141463616Y-74614380D01*
X141463615Y-74614379D01*
X141459285Y-74610049D01*
X141459274Y-74610039D01*
X140832766Y-73983531D01*
X140799281Y-73922208D01*
X140800672Y-73863757D01*
X140807879Y-73836860D01*
X140835063Y-73735408D01*
X140855659Y-73500000D01*
X140835063Y-73264592D01*
X140773903Y-73036337D01*
X140674035Y-72822171D01*
X140612052Y-72733649D01*
X140538494Y-72628597D01*
X140515246Y-72605349D01*
X140481761Y-72544026D01*
X140486745Y-72474334D01*
X140515244Y-72429989D01*
X141056306Y-71888928D01*
X141056311Y-71888924D01*
X141066514Y-71878720D01*
X141066516Y-71878720D01*
X141178320Y-71766916D01*
X141203659Y-71723027D01*
X141234030Y-71670424D01*
X141234031Y-71670422D01*
X141257374Y-71629990D01*
X141257375Y-71629989D01*
X141257375Y-71629987D01*
X141257377Y-71629985D01*
X141298301Y-71477257D01*
X141298301Y-71319143D01*
X141298301Y-71311548D01*
X141298300Y-71311530D01*
X141298300Y-68078659D01*
X141298301Y-68078646D01*
X141298301Y-67910545D01*
X141298301Y-67910543D01*
X141257377Y-67757815D01*
X141198883Y-67656501D01*
X141178320Y-67620884D01*
X141066516Y-67509080D01*
X141066515Y-67509079D01*
X141062185Y-67504749D01*
X141062174Y-67504739D01*
X140511346Y-66953911D01*
X140477861Y-66892588D01*
X140482845Y-66822896D01*
X140511343Y-66778551D01*
X140538495Y-66751401D01*
X140674035Y-66557830D01*
X140773903Y-66343663D01*
X140835063Y-66115408D01*
X140855659Y-65880000D01*
X140855582Y-65879125D01*
X140845327Y-65761908D01*
X140835063Y-65644592D01*
X140773903Y-65416337D01*
X140674035Y-65202171D01*
X140668425Y-65194158D01*
X140538494Y-65008597D01*
X140371402Y-64841506D01*
X140371396Y-64841501D01*
X140185842Y-64711575D01*
X140142217Y-64656998D01*
X140135023Y-64587500D01*
X140166546Y-64525145D01*
X140185842Y-64508425D01*
X140236061Y-64473261D01*
X140371401Y-64378495D01*
X140538495Y-64211401D01*
X140674035Y-64017830D01*
X140773903Y-63803663D01*
X140835063Y-63575408D01*
X140855659Y-63340000D01*
X140835063Y-63104592D01*
X140773903Y-62876337D01*
X140674035Y-62662171D01*
X140668198Y-62653834D01*
X140538494Y-62468597D01*
X140371402Y-62301506D01*
X140371396Y-62301501D01*
X140185842Y-62171575D01*
X140142217Y-62116998D01*
X140135023Y-62047500D01*
X140166546Y-61985145D01*
X140185842Y-61968425D01*
X140208026Y-61952891D01*
X140371401Y-61838495D01*
X140538495Y-61671401D01*
X140674035Y-61477830D01*
X140773903Y-61263663D01*
X140835063Y-61035408D01*
X140855659Y-60800000D01*
X140835063Y-60564592D01*
X140773903Y-60336337D01*
X140674035Y-60122171D01*
X140668019Y-60113578D01*
X140538494Y-59928597D01*
X140371402Y-59761506D01*
X140371395Y-59761501D01*
X140177834Y-59625967D01*
X140177830Y-59625965D01*
X140106727Y-59592809D01*
X139963663Y-59526097D01*
X139963659Y-59526096D01*
X139963655Y-59526094D01*
X139735413Y-59464938D01*
X139735403Y-59464936D01*
X139500001Y-59444341D01*
X139499999Y-59444341D01*
X139264596Y-59464936D01*
X139264586Y-59464938D01*
X139036344Y-59526094D01*
X139036335Y-59526098D01*
X138822171Y-59625964D01*
X138822169Y-59625965D01*
X138628600Y-59761503D01*
X138506284Y-59883819D01*
X138444961Y-59917303D01*
X138375269Y-59912319D01*
X138319336Y-59870447D01*
X138302421Y-59839470D01*
X138253354Y-59707913D01*
X138253350Y-59707906D01*
X138167190Y-59592812D01*
X138167187Y-59592809D01*
X138052093Y-59506649D01*
X138052086Y-59506645D01*
X137917379Y-59456403D01*
X137917372Y-59456401D01*
X137857844Y-59450000D01*
X137210000Y-59450000D01*
X137210000Y-60366988D01*
X137152993Y-60334075D01*
X137025826Y-60300000D01*
X136894174Y-60300000D01*
X136767007Y-60334075D01*
X136710000Y-60366988D01*
X136710000Y-59450000D01*
X136062155Y-59450000D01*
X136002627Y-59456401D01*
X136002620Y-59456403D01*
X135867913Y-59506645D01*
X135867906Y-59506649D01*
X135752812Y-59592809D01*
X135752809Y-59592812D01*
X135666649Y-59707906D01*
X135666645Y-59707913D01*
X135616403Y-59842620D01*
X135616401Y-59842627D01*
X135610000Y-59902155D01*
X135610000Y-60550000D01*
X136526988Y-60550000D01*
X136494075Y-60607007D01*
X136460000Y-60734174D01*
X136460000Y-60865826D01*
X136494075Y-60992993D01*
X136526988Y-61050000D01*
X135610000Y-61050000D01*
X135610000Y-61225700D01*
X135590315Y-61292739D01*
X135537511Y-61338494D01*
X135486000Y-61349700D01*
X130638143Y-61349700D01*
X130485415Y-61390623D01*
X130468308Y-61400500D01*
X130468307Y-61400500D01*
X130348490Y-61469675D01*
X130348482Y-61469681D01*
X130236680Y-61581484D01*
X130236678Y-61581486D01*
X126395984Y-65422181D01*
X122561584Y-69256581D01*
X122500261Y-69290066D01*
X122473903Y-69292900D01*
X109116699Y-69292900D01*
X109049660Y-69273215D01*
X109003905Y-69220411D01*
X108993961Y-69151253D01*
X109013596Y-69100010D01*
X109107172Y-68959965D01*
X109237652Y-68695377D01*
X109332481Y-68416022D01*
X109390034Y-68126680D01*
X109403188Y-67925995D01*
X109409329Y-67832307D01*
X109409329Y-67832292D01*
X109390035Y-67537936D01*
X109390034Y-67537920D01*
X109332481Y-67248578D01*
X109267108Y-67055998D01*
X111470532Y-67055998D01*
X111470532Y-67056001D01*
X111490364Y-67282686D01*
X111490366Y-67282697D01*
X111549258Y-67502488D01*
X111549261Y-67502497D01*
X111645431Y-67708732D01*
X111645432Y-67708734D01*
X111775954Y-67895141D01*
X111936858Y-68056045D01*
X111936861Y-68056047D01*
X112123266Y-68186568D01*
X112329504Y-68282739D01*
X112329509Y-68282740D01*
X112329511Y-68282741D01*
X112382415Y-68296916D01*
X112549308Y-68341635D01*
X112711230Y-68355801D01*
X112775998Y-68361468D01*
X112776000Y-68361468D01*
X112776002Y-68361468D01*
X112832796Y-68356499D01*
X113002692Y-68341635D01*
X113222496Y-68282739D01*
X113428734Y-68186568D01*
X113615139Y-68056047D01*
X113776047Y-67895139D01*
X113906118Y-67709375D01*
X113960693Y-67665752D01*
X114007692Y-67656500D01*
X114587231Y-67656500D01*
X114587247Y-67656501D01*
X114594843Y-67656501D01*
X114752954Y-67656501D01*
X114752957Y-67656501D01*
X114905685Y-67615577D01*
X114955804Y-67586639D01*
X115042616Y-67536520D01*
X115154420Y-67424716D01*
X115154420Y-67424714D01*
X115164628Y-67414507D01*
X115164630Y-67414504D01*
X119710939Y-62868194D01*
X119772260Y-62834711D01*
X119841952Y-62839695D01*
X119886299Y-62868195D01*
X120032599Y-63014495D01*
X120032602Y-63014497D01*
X120032603Y-63014498D01*
X120226165Y-63150032D01*
X120226167Y-63150033D01*
X120226170Y-63150035D01*
X120440337Y-63249903D01*
X120668592Y-63311063D01*
X120856918Y-63327539D01*
X120903999Y-63331659D01*
X120904000Y-63331659D01*
X120904001Y-63331659D01*
X120943234Y-63328226D01*
X121139408Y-63311063D01*
X121367663Y-63249903D01*
X121581830Y-63150035D01*
X121775401Y-63014495D01*
X121942495Y-62847401D01*
X122072425Y-62661842D01*
X122127002Y-62618217D01*
X122196500Y-62611023D01*
X122258855Y-62642546D01*
X122275575Y-62661842D01*
X122405500Y-62847395D01*
X122405505Y-62847401D01*
X122572599Y-63014495D01*
X122669384Y-63082265D01*
X122766165Y-63150032D01*
X122766167Y-63150033D01*
X122766170Y-63150035D01*
X122980337Y-63249903D01*
X123208592Y-63311063D01*
X123396918Y-63327539D01*
X123443999Y-63331659D01*
X123444000Y-63331659D01*
X123444001Y-63331659D01*
X123483234Y-63328226D01*
X123679408Y-63311063D01*
X123907663Y-63249903D01*
X124121830Y-63150035D01*
X124315401Y-63014495D01*
X124482495Y-62847401D01*
X124618035Y-62653830D01*
X124717903Y-62439663D01*
X124779063Y-62211408D01*
X124799659Y-61976000D01*
X124779063Y-61740592D01*
X124717903Y-61512337D01*
X124618035Y-61298171D01*
X124614231Y-61292739D01*
X124482496Y-61104600D01*
X124427896Y-61050000D01*
X124360179Y-60982283D01*
X124326696Y-60920963D01*
X124331680Y-60851271D01*
X124373551Y-60795337D01*
X124404529Y-60778422D01*
X124536086Y-60729354D01*
X124536093Y-60729350D01*
X124651187Y-60643190D01*
X124651190Y-60643187D01*
X124737350Y-60528093D01*
X124737354Y-60528086D01*
X124787596Y-60393379D01*
X124787598Y-60393372D01*
X124793999Y-60333844D01*
X124794000Y-60333827D01*
X124794000Y-59686000D01*
X123877012Y-59686000D01*
X123909925Y-59628993D01*
X123944000Y-59501826D01*
X123944000Y-59370174D01*
X123909925Y-59243007D01*
X123877012Y-59186000D01*
X124794000Y-59186000D01*
X124794000Y-58538172D01*
X124793999Y-58538155D01*
X124787598Y-58478627D01*
X124787596Y-58478620D01*
X124737354Y-58343913D01*
X124737350Y-58343906D01*
X124651190Y-58228812D01*
X124651187Y-58228809D01*
X124536093Y-58142649D01*
X124536086Y-58142645D01*
X124401379Y-58092403D01*
X124401372Y-58092401D01*
X124341844Y-58086000D01*
X123694000Y-58086000D01*
X123694000Y-59002988D01*
X123636993Y-58970075D01*
X123509826Y-58936000D01*
X123378174Y-58936000D01*
X123251007Y-58970075D01*
X123194000Y-59002988D01*
X123194000Y-58086000D01*
X122546155Y-58086000D01*
X122486627Y-58092401D01*
X122486620Y-58092403D01*
X122351913Y-58142645D01*
X122351906Y-58142649D01*
X122236812Y-58228809D01*
X122236809Y-58228812D01*
X122150649Y-58343906D01*
X122150646Y-58343911D01*
X122101385Y-58475987D01*
X122059513Y-58531920D01*
X121994049Y-58556337D01*
X121925776Y-58541485D01*
X121897522Y-58520334D01*
X121775082Y-58397894D01*
X121581578Y-58262399D01*
X121367492Y-58162570D01*
X121367486Y-58162567D01*
X121154000Y-58105364D01*
X121154000Y-59002988D01*
X121096993Y-58970075D01*
X120969826Y-58936000D01*
X120838174Y-58936000D01*
X120711007Y-58970075D01*
X120654000Y-59002988D01*
X120654000Y-58105364D01*
X120653999Y-58105364D01*
X120440513Y-58162567D01*
X120440507Y-58162570D01*
X120226422Y-58262399D01*
X120226420Y-58262400D01*
X120032926Y-58397886D01*
X120032920Y-58397891D01*
X119865891Y-58564920D01*
X119865886Y-58564926D01*
X119730400Y-58758420D01*
X119730399Y-58758422D01*
X119630570Y-58972507D01*
X119630567Y-58972513D01*
X119573364Y-59185999D01*
X119573364Y-59186000D01*
X120470988Y-59186000D01*
X120438075Y-59243007D01*
X120404000Y-59370174D01*
X120404000Y-59501826D01*
X120438075Y-59628993D01*
X120470988Y-59686000D01*
X119573364Y-59686000D01*
X119630567Y-59899486D01*
X119630570Y-59899492D01*
X119730399Y-60113578D01*
X119865894Y-60307082D01*
X120032917Y-60474105D01*
X120218595Y-60604119D01*
X120262219Y-60658696D01*
X120269412Y-60728195D01*
X120237890Y-60790549D01*
X120218595Y-60807269D01*
X120032594Y-60937508D01*
X119865505Y-61104597D01*
X119729965Y-61298169D01*
X119721063Y-61317260D01*
X119674889Y-61369698D01*
X119640777Y-61384627D01*
X119522115Y-61416423D01*
X119485119Y-61437783D01*
X119485118Y-61437782D01*
X119385187Y-61495477D01*
X119385182Y-61495481D01*
X119299180Y-61581484D01*
X119273380Y-61607284D01*
X119273378Y-61607286D01*
X116862831Y-64017834D01*
X114461484Y-66419181D01*
X114400161Y-66452666D01*
X114373803Y-66455500D01*
X114007692Y-66455500D01*
X113940653Y-66435815D01*
X113906119Y-66402625D01*
X113776047Y-66216861D01*
X113776045Y-66216858D01*
X113615141Y-66055954D01*
X113428734Y-65925432D01*
X113428732Y-65925431D01*
X113222497Y-65829261D01*
X113222488Y-65829258D01*
X113002697Y-65770366D01*
X113002693Y-65770365D01*
X113002692Y-65770365D01*
X113002691Y-65770364D01*
X113002686Y-65770364D01*
X112776002Y-65750532D01*
X112775998Y-65750532D01*
X112549313Y-65770364D01*
X112549302Y-65770366D01*
X112329511Y-65829258D01*
X112329502Y-65829261D01*
X112123267Y-65925431D01*
X112123265Y-65925432D01*
X111936858Y-66055954D01*
X111775954Y-66216858D01*
X111645432Y-66403265D01*
X111645431Y-66403267D01*
X111549261Y-66609502D01*
X111549258Y-66609511D01*
X111490366Y-66829302D01*
X111490364Y-66829313D01*
X111470532Y-67055998D01*
X109267108Y-67055998D01*
X109237652Y-66969223D01*
X109107172Y-66704636D01*
X109104104Y-66700045D01*
X109014433Y-66565842D01*
X108943273Y-66459343D01*
X108900655Y-66410747D01*
X108748758Y-66237541D01*
X108526955Y-66043025D01*
X108281667Y-65879129D01*
X108281660Y-65879125D01*
X108017080Y-65748649D01*
X107737730Y-65653821D01*
X107737724Y-65653819D01*
X107737722Y-65653819D01*
X107448380Y-65596266D01*
X107448373Y-65596265D01*
X107448363Y-65596264D01*
X107154007Y-65576971D01*
X107153993Y-65576971D01*
X106859636Y-65596264D01*
X106859624Y-65596265D01*
X106859620Y-65596266D01*
X106859612Y-65596267D01*
X106859609Y-65596268D01*
X106570283Y-65653818D01*
X106570269Y-65653821D01*
X106290919Y-65748649D01*
X106026334Y-65879128D01*
X105781041Y-66043028D01*
X105559241Y-66237541D01*
X105364728Y-66459341D01*
X105200828Y-66704634D01*
X105070349Y-66969219D01*
X105009776Y-67147659D01*
X104969587Y-67204813D01*
X104904877Y-67231166D01*
X104892357Y-67231800D01*
X99880670Y-67231800D01*
X99880654Y-67231799D01*
X99873058Y-67231799D01*
X99714943Y-67231799D01*
X99652306Y-67248583D01*
X99562214Y-67272723D01*
X99562209Y-67272726D01*
X99425290Y-67351775D01*
X99425282Y-67351781D01*
X97485880Y-69291182D01*
X97424557Y-69324667D01*
X97366106Y-69323276D01*
X97301977Y-69306093D01*
X97084002Y-69287023D01*
X97083998Y-69287023D01*
X96989985Y-69295248D01*
X96866023Y-69306093D01*
X96866020Y-69306093D01*
X96654677Y-69362722D01*
X96654668Y-69362726D01*
X96456361Y-69455198D01*
X96456357Y-69455200D01*
X96277121Y-69580702D01*
X96122402Y-69735421D01*
X95996900Y-69914657D01*
X95996898Y-69914661D01*
X95904426Y-70112968D01*
X95904422Y-70112977D01*
X95847793Y-70324320D01*
X95847793Y-70324323D01*
X95845073Y-70355415D01*
X95831735Y-70507876D01*
X95828723Y-70542300D01*
X95844671Y-70724596D01*
X95847793Y-70760275D01*
X95847793Y-70760279D01*
X95904422Y-70971622D01*
X95904424Y-70971626D01*
X95904425Y-70971630D01*
X95918727Y-71002300D01*
X95996897Y-71169938D01*
X95996898Y-71169939D01*
X96122402Y-71349177D01*
X96277123Y-71503898D01*
X96456361Y-71629402D01*
X96654670Y-71721875D01*
X96658973Y-71723028D01*
X96694416Y-71732525D01*
X96754076Y-71768890D01*
X96784605Y-71831737D01*
X96776310Y-71901113D01*
X96731825Y-71954990D01*
X96694416Y-71972075D01*
X96654674Y-71982723D01*
X96654668Y-71982726D01*
X96456361Y-72075198D01*
X96456357Y-72075200D01*
X96277124Y-72200700D01*
X96124486Y-72353338D01*
X96063163Y-72386822D01*
X95993471Y-72381838D01*
X95937538Y-72339966D01*
X95933720Y-72334572D01*
X95803273Y-72139343D01*
X95803271Y-72139341D01*
X95803270Y-72139339D01*
X95608758Y-71917541D01*
X95386955Y-71723025D01*
X95141667Y-71559129D01*
X95141660Y-71559125D01*
X94877080Y-71428649D01*
X94597730Y-71333821D01*
X94597724Y-71333819D01*
X94597722Y-71333819D01*
X94308380Y-71276266D01*
X94308373Y-71276265D01*
X94308363Y-71276264D01*
X94014007Y-71256971D01*
X94013993Y-71256971D01*
X93719636Y-71276264D01*
X93719624Y-71276265D01*
X93719620Y-71276266D01*
X93719612Y-71276267D01*
X93719609Y-71276268D01*
X93430283Y-71333818D01*
X93430269Y-71333821D01*
X93150919Y-71428649D01*
X92886334Y-71559128D01*
X92641041Y-71723028D01*
X92419241Y-71917541D01*
X92224728Y-72139341D01*
X92060828Y-72384634D01*
X91930349Y-72649219D01*
X91869776Y-72827659D01*
X91829587Y-72884813D01*
X91764877Y-72911166D01*
X91752357Y-72911800D01*
X83832397Y-72911800D01*
X83765358Y-72892115D01*
X83744716Y-72875481D01*
X80971941Y-70102706D01*
X80938456Y-70041383D01*
X80939847Y-69982931D01*
X80947306Y-69955094D01*
X80965635Y-69886692D01*
X80985468Y-69660000D01*
X80965635Y-69433308D01*
X80906739Y-69213504D01*
X80810568Y-69007266D01*
X80680047Y-68820861D01*
X80680045Y-68820858D01*
X80519141Y-68659954D01*
X80332734Y-68529432D01*
X80332732Y-68529431D01*
X80126497Y-68433261D01*
X80126488Y-68433258D01*
X79906697Y-68374366D01*
X79906687Y-68374364D01*
X79832782Y-68367898D01*
X79767714Y-68342445D01*
X79726736Y-68285853D01*
X79724187Y-68239994D01*
X84829556Y-68239994D01*
X84829556Y-68240005D01*
X84849310Y-68554004D01*
X84849311Y-68554011D01*
X84908270Y-68863083D01*
X85005497Y-69162316D01*
X85005499Y-69162321D01*
X85139461Y-69447003D01*
X85139464Y-69447009D01*
X85308051Y-69712661D01*
X85308054Y-69712665D01*
X85508606Y-69955090D01*
X85508608Y-69955092D01*
X85508610Y-69955094D01*
X85677454Y-70113649D01*
X85737968Y-70170476D01*
X85737978Y-70170484D01*
X85992504Y-70355408D01*
X85992509Y-70355410D01*
X85992516Y-70355416D01*
X86268234Y-70506994D01*
X86268239Y-70506996D01*
X86268241Y-70506997D01*
X86268242Y-70506998D01*
X86560771Y-70622818D01*
X86560774Y-70622819D01*
X86864499Y-70700802D01*
X86865527Y-70701066D01*
X86931010Y-70709338D01*
X87177670Y-70740499D01*
X87177679Y-70740499D01*
X87177682Y-70740500D01*
X87177684Y-70740500D01*
X87492316Y-70740500D01*
X87492318Y-70740500D01*
X87492321Y-70740499D01*
X87492329Y-70740499D01*
X87678593Y-70716968D01*
X87804473Y-70701066D01*
X88109225Y-70622819D01*
X88109228Y-70622818D01*
X88401757Y-70506998D01*
X88401758Y-70506997D01*
X88401756Y-70506997D01*
X88401766Y-70506994D01*
X88677484Y-70355416D01*
X88932030Y-70170478D01*
X89161390Y-69955094D01*
X89361947Y-69712663D01*
X89530537Y-69447007D01*
X89664503Y-69162315D01*
X89761731Y-68863079D01*
X89820688Y-68554015D01*
X89820689Y-68554004D01*
X89840444Y-68240005D01*
X89840444Y-68239994D01*
X89820689Y-67925995D01*
X89820688Y-67925988D01*
X89820688Y-67925985D01*
X89802815Y-67832292D01*
X91758671Y-67832292D01*
X91758671Y-67832307D01*
X91777964Y-68126663D01*
X91777965Y-68126673D01*
X91777966Y-68126680D01*
X91823838Y-68357299D01*
X91835518Y-68416016D01*
X91835521Y-68416030D01*
X91930349Y-68695380D01*
X92060825Y-68959960D01*
X92060829Y-68959967D01*
X92224725Y-69205255D01*
X92419241Y-69427058D01*
X92641044Y-69621574D01*
X92811428Y-69735421D01*
X92886335Y-69785472D01*
X93150923Y-69915952D01*
X93430278Y-70010781D01*
X93719620Y-70068334D01*
X93747888Y-70070186D01*
X94013993Y-70087629D01*
X94014000Y-70087629D01*
X94014007Y-70087629D01*
X94249675Y-70072181D01*
X94308380Y-70068334D01*
X94597722Y-70010781D01*
X94877077Y-69915952D01*
X95141665Y-69785472D01*
X95386957Y-69621573D01*
X95608758Y-69427058D01*
X95803273Y-69205257D01*
X95967172Y-68959965D01*
X96097652Y-68695377D01*
X96192481Y-68416022D01*
X96250034Y-68126680D01*
X96263188Y-67925995D01*
X96269329Y-67832307D01*
X96269329Y-67832292D01*
X96250035Y-67537936D01*
X96250034Y-67537920D01*
X96192481Y-67248578D01*
X96097652Y-66969223D01*
X95967172Y-66704636D01*
X95964104Y-66700045D01*
X95874433Y-66565842D01*
X95803273Y-66459343D01*
X95760655Y-66410747D01*
X95608758Y-66237541D01*
X95386955Y-66043025D01*
X95141667Y-65879129D01*
X95141660Y-65879125D01*
X94877080Y-65748649D01*
X94597730Y-65653821D01*
X94597724Y-65653819D01*
X94597722Y-65653819D01*
X94308380Y-65596266D01*
X94308373Y-65596265D01*
X94308363Y-65596264D01*
X94014007Y-65576971D01*
X94013993Y-65576971D01*
X93719636Y-65596264D01*
X93719624Y-65596265D01*
X93719620Y-65596266D01*
X93719612Y-65596267D01*
X93719609Y-65596268D01*
X93430283Y-65653818D01*
X93430269Y-65653821D01*
X93150919Y-65748649D01*
X92886334Y-65879128D01*
X92641041Y-66043028D01*
X92419241Y-66237541D01*
X92224728Y-66459341D01*
X92060828Y-66704634D01*
X91930349Y-66969219D01*
X91835521Y-67248569D01*
X91835518Y-67248583D01*
X91777968Y-67537909D01*
X91777964Y-67537936D01*
X91758671Y-67832292D01*
X89802815Y-67832292D01*
X89761731Y-67616921D01*
X89664503Y-67317685D01*
X89643345Y-67272723D01*
X89584495Y-67147659D01*
X89530537Y-67032993D01*
X89463106Y-66926738D01*
X89361948Y-66767338D01*
X89361945Y-66767334D01*
X89161393Y-66524909D01*
X89161391Y-66524907D01*
X89158527Y-66522217D01*
X88932030Y-66309522D01*
X88932027Y-66309520D01*
X88932021Y-66309515D01*
X88677495Y-66124591D01*
X88677488Y-66124586D01*
X88677484Y-66124584D01*
X88401766Y-65973006D01*
X88401763Y-65973004D01*
X88401758Y-65973002D01*
X88401757Y-65973001D01*
X88109228Y-65857181D01*
X88109225Y-65857180D01*
X87804476Y-65778934D01*
X87804463Y-65778932D01*
X87492329Y-65739500D01*
X87492318Y-65739500D01*
X87177682Y-65739500D01*
X87177670Y-65739500D01*
X86865536Y-65778932D01*
X86865523Y-65778934D01*
X86560774Y-65857180D01*
X86560771Y-65857181D01*
X86268242Y-65973001D01*
X86268241Y-65973002D01*
X85992516Y-66124584D01*
X85992504Y-66124591D01*
X85737978Y-66309515D01*
X85737968Y-66309523D01*
X85508608Y-66524907D01*
X85508606Y-66524909D01*
X85308054Y-66767334D01*
X85308051Y-66767338D01*
X85139464Y-67032990D01*
X85139461Y-67032996D01*
X85005499Y-67317678D01*
X85005497Y-67317683D01*
X84908270Y-67616916D01*
X84849311Y-67925988D01*
X84849310Y-67925995D01*
X84829556Y-68239994D01*
X79724187Y-68239994D01*
X79722859Y-68216091D01*
X79731208Y-68191968D01*
X79761739Y-68126496D01*
X79820635Y-67906692D01*
X79840468Y-67680000D01*
X79839221Y-67665752D01*
X79828972Y-67548597D01*
X79820635Y-67453308D01*
X79761739Y-67233504D01*
X79731208Y-67168031D01*
X79720717Y-67098957D01*
X79749236Y-67035173D01*
X79807712Y-66996933D01*
X79832782Y-66992101D01*
X79906692Y-66985635D01*
X80126496Y-66926739D01*
X80332734Y-66830568D01*
X80519139Y-66700047D01*
X80680047Y-66539139D01*
X80810568Y-66352734D01*
X80906739Y-66146496D01*
X80965635Y-65926692D01*
X80985468Y-65700000D01*
X80965635Y-65473308D01*
X80906739Y-65253504D01*
X80810568Y-65047266D01*
X80680047Y-64860861D01*
X80680045Y-64860858D01*
X80519141Y-64699954D01*
X80332734Y-64569432D01*
X80332732Y-64569431D01*
X80126497Y-64473261D01*
X80126488Y-64473258D01*
X79906697Y-64414366D01*
X79906693Y-64414365D01*
X79906692Y-64414365D01*
X79906691Y-64414364D01*
X79906686Y-64414364D01*
X79680002Y-64394532D01*
X79679998Y-64394532D01*
X79453313Y-64414364D01*
X79453302Y-64414366D01*
X79233511Y-64473258D01*
X79233502Y-64473261D01*
X79027267Y-64569431D01*
X79027265Y-64569432D01*
X78840858Y-64699954D01*
X78679953Y-64860859D01*
X78636575Y-64922811D01*
X78581998Y-64966436D01*
X78512500Y-64973630D01*
X78450145Y-64942107D01*
X78433425Y-64922811D01*
X78390046Y-64860859D01*
X78229141Y-64699954D01*
X78042734Y-64569432D01*
X78042732Y-64569431D01*
X77836497Y-64473261D01*
X77836488Y-64473258D01*
X77616697Y-64414366D01*
X77616693Y-64414365D01*
X77616692Y-64414365D01*
X77616691Y-64414364D01*
X77616686Y-64414364D01*
X77390002Y-64394532D01*
X77389998Y-64394532D01*
X77163313Y-64414364D01*
X77163302Y-64414366D01*
X76943511Y-64473258D01*
X76943502Y-64473261D01*
X76737267Y-64569431D01*
X76737265Y-64569432D01*
X76550858Y-64699954D01*
X76389953Y-64860859D01*
X76346575Y-64922811D01*
X76291998Y-64966436D01*
X76222500Y-64973630D01*
X76160145Y-64942107D01*
X76143425Y-64922811D01*
X76100046Y-64860859D01*
X75939141Y-64699954D01*
X75752734Y-64569432D01*
X75752732Y-64569431D01*
X75546497Y-64473261D01*
X75546488Y-64473258D01*
X75326697Y-64414366D01*
X75326693Y-64414365D01*
X75326692Y-64414365D01*
X75326691Y-64414364D01*
X75326686Y-64414364D01*
X75100002Y-64394532D01*
X75099998Y-64394532D01*
X74873313Y-64414364D01*
X74873302Y-64414366D01*
X74653511Y-64473258D01*
X74653502Y-64473261D01*
X74447267Y-64569431D01*
X74447265Y-64569432D01*
X74260858Y-64699954D01*
X74099953Y-64860859D01*
X74056575Y-64922811D01*
X74001998Y-64966436D01*
X73932500Y-64973630D01*
X73870145Y-64942107D01*
X73853425Y-64922811D01*
X73810046Y-64860859D01*
X73649141Y-64699954D01*
X73462734Y-64569432D01*
X73462732Y-64569431D01*
X73256497Y-64473261D01*
X73256488Y-64473258D01*
X73036697Y-64414366D01*
X73036693Y-64414365D01*
X73036692Y-64414365D01*
X73036691Y-64414364D01*
X73036686Y-64414364D01*
X72810002Y-64394532D01*
X72809998Y-64394532D01*
X72583313Y-64414364D01*
X72583302Y-64414366D01*
X72363511Y-64473258D01*
X72363502Y-64473261D01*
X72157267Y-64569431D01*
X72157265Y-64569432D01*
X71970858Y-64699954D01*
X71809953Y-64860859D01*
X71766575Y-64922811D01*
X71711998Y-64966436D01*
X71642500Y-64973630D01*
X71580145Y-64942107D01*
X71563425Y-64922811D01*
X71520046Y-64860859D01*
X71359141Y-64699954D01*
X71172734Y-64569432D01*
X71172732Y-64569431D01*
X70966497Y-64473261D01*
X70966488Y-64473258D01*
X70746697Y-64414366D01*
X70746693Y-64414365D01*
X70746692Y-64414365D01*
X70746691Y-64414364D01*
X70746686Y-64414364D01*
X70520002Y-64394532D01*
X70519998Y-64394532D01*
X70293313Y-64414364D01*
X70293302Y-64414366D01*
X70073511Y-64473258D01*
X70073502Y-64473261D01*
X69867267Y-64569431D01*
X69867265Y-64569432D01*
X69680858Y-64699954D01*
X69519954Y-64860858D01*
X69389432Y-65047265D01*
X69389431Y-65047267D01*
X69293261Y-65253502D01*
X69293258Y-65253511D01*
X69234366Y-65473302D01*
X69234364Y-65473313D01*
X69214532Y-65699998D01*
X69214532Y-65700001D01*
X69234364Y-65926686D01*
X69234366Y-65926697D01*
X69293258Y-66146488D01*
X69293260Y-66146492D01*
X69293261Y-66146496D01*
X69321998Y-66208123D01*
X69323790Y-66211965D01*
X69334282Y-66281043D01*
X69305762Y-66344827D01*
X69247286Y-66383066D01*
X69222217Y-66387898D01*
X69148312Y-66394364D01*
X69148302Y-66394366D01*
X68928511Y-66453258D01*
X68928502Y-66453261D01*
X68722267Y-66549431D01*
X68722265Y-66549432D01*
X68535858Y-66679954D01*
X68374954Y-66840858D01*
X68244432Y-67027265D01*
X68244431Y-67027267D01*
X68148261Y-67233502D01*
X68148258Y-67233511D01*
X68089366Y-67453302D01*
X68089364Y-67453313D01*
X68069532Y-67679998D01*
X68069532Y-67680001D01*
X68089364Y-67906686D01*
X68089366Y-67906697D01*
X68148258Y-68126488D01*
X68148261Y-68126497D01*
X68244431Y-68332732D01*
X68244432Y-68332734D01*
X68374954Y-68519141D01*
X68535858Y-68680045D01*
X68535861Y-68680047D01*
X68722266Y-68810568D01*
X68928504Y-68906739D01*
X69127594Y-68960084D01*
X69187254Y-68996449D01*
X69217783Y-69059295D01*
X69219500Y-69079859D01*
X69219500Y-70507870D01*
X69219501Y-70507876D01*
X69225908Y-70567483D01*
X69276202Y-70702328D01*
X69276206Y-70702335D01*
X69362452Y-70817544D01*
X69362455Y-70817547D01*
X69477664Y-70903793D01*
X69477671Y-70903797D01*
X69612517Y-70954091D01*
X69612516Y-70954091D01*
X69619444Y-70954835D01*
X69672127Y-70960500D01*
X71367872Y-70960499D01*
X71427483Y-70954091D01*
X71562331Y-70903796D01*
X71677546Y-70817546D01*
X71763796Y-70702331D01*
X71764104Y-70701506D01*
X71764630Y-70700802D01*
X71768047Y-70694546D01*
X71768946Y-70695037D01*
X71805974Y-70645571D01*
X71871437Y-70621152D01*
X71939711Y-70636002D01*
X71967968Y-70657155D01*
X71970858Y-70660045D01*
X71970861Y-70660047D01*
X72157266Y-70790568D01*
X72363504Y-70886739D01*
X72583308Y-70945635D01*
X72745230Y-70959801D01*
X72809998Y-70965468D01*
X72810000Y-70965468D01*
X72810002Y-70965468D01*
X72872511Y-70959999D01*
X73036692Y-70945635D01*
X73256496Y-70886739D01*
X73462734Y-70790568D01*
X73649139Y-70660047D01*
X73810047Y-70499139D01*
X73853425Y-70437188D01*
X73908001Y-70393563D01*
X73977499Y-70386369D01*
X74039854Y-70417891D01*
X74056573Y-70437186D01*
X74087770Y-70481740D01*
X74099955Y-70499142D01*
X74260858Y-70660045D01*
X74260861Y-70660047D01*
X74447266Y-70790568D01*
X74653504Y-70886739D01*
X74873308Y-70945635D01*
X75035230Y-70959801D01*
X75099998Y-70965468D01*
X75100000Y-70965468D01*
X75100002Y-70965468D01*
X75162511Y-70959999D01*
X75326692Y-70945635D01*
X75546496Y-70886739D01*
X75752734Y-70790568D01*
X75939139Y-70660047D01*
X76100047Y-70499139D01*
X76143425Y-70437188D01*
X76198001Y-70393563D01*
X76267499Y-70386369D01*
X76329854Y-70417891D01*
X76346573Y-70437186D01*
X76377770Y-70481740D01*
X76389955Y-70499142D01*
X76550858Y-70660045D01*
X76550861Y-70660047D01*
X76737266Y-70790568D01*
X76943504Y-70886739D01*
X77163308Y-70945635D01*
X77325230Y-70959801D01*
X77389998Y-70965468D01*
X77390000Y-70965468D01*
X77390002Y-70965468D01*
X77452511Y-70959999D01*
X77616692Y-70945635D01*
X77836496Y-70886739D01*
X78042734Y-70790568D01*
X78229139Y-70660047D01*
X78390047Y-70499139D01*
X78433425Y-70437188D01*
X78488001Y-70393563D01*
X78557499Y-70386369D01*
X78619854Y-70417891D01*
X78636573Y-70437186D01*
X78667770Y-70481740D01*
X78679955Y-70499142D01*
X78840858Y-70660045D01*
X78840861Y-70660047D01*
X79027266Y-70790568D01*
X79233504Y-70886739D01*
X79453308Y-70945635D01*
X79615230Y-70959801D01*
X79679998Y-70965468D01*
X79680000Y-70965468D01*
X79680002Y-70965468D01*
X79742511Y-70959999D01*
X79906692Y-70945635D01*
X80002932Y-70919847D01*
X80072781Y-70921510D01*
X80122706Y-70951941D01*
X81510932Y-72340167D01*
X81544417Y-72401490D01*
X81539433Y-72471182D01*
X81528245Y-72493820D01*
X81429811Y-72650476D01*
X81370231Y-72820745D01*
X81370230Y-72820750D01*
X81350035Y-72999996D01*
X81350035Y-73000003D01*
X81370230Y-73179249D01*
X81370231Y-73179254D01*
X81429811Y-73349523D01*
X81464631Y-73404938D01*
X81525784Y-73502262D01*
X81653338Y-73629816D01*
X81806078Y-73725789D01*
X81976345Y-73785368D01*
X81976350Y-73785369D01*
X82155596Y-73805565D01*
X82155600Y-73805565D01*
X82155604Y-73805565D01*
X82334849Y-73785369D01*
X82334852Y-73785368D01*
X82334855Y-73785368D01*
X82505122Y-73725789D01*
X82657862Y-73629816D01*
X82657863Y-73629814D01*
X82661778Y-73627355D01*
X82729015Y-73608354D01*
X82795850Y-73628721D01*
X82815432Y-73644667D01*
X83047439Y-73876674D01*
X83047449Y-73876685D01*
X83051779Y-73881015D01*
X83051780Y-73881016D01*
X83163584Y-73992820D01*
X83163586Y-73992821D01*
X83216319Y-74023266D01*
X83216318Y-74023266D01*
X83216321Y-74023267D01*
X83300509Y-74071874D01*
X83300510Y-74071875D01*
X83300512Y-74071875D01*
X83300515Y-74071877D01*
X83453243Y-74112801D01*
X83453246Y-74112801D01*
X83618953Y-74112801D01*
X83618969Y-74112800D01*
X91752357Y-74112800D01*
X91819396Y-74132485D01*
X91865151Y-74185289D01*
X91869776Y-74196941D01*
X91930349Y-74375380D01*
X92060825Y-74639960D01*
X92060829Y-74639967D01*
X92224725Y-74885255D01*
X92419241Y-75107058D01*
X92641044Y-75301574D01*
X92672787Y-75322784D01*
X92886335Y-75465472D01*
X93150923Y-75595952D01*
X93430278Y-75690781D01*
X93719620Y-75748334D01*
X93747888Y-75750186D01*
X94013993Y-75767629D01*
X94014000Y-75767629D01*
X94014007Y-75767629D01*
X94249675Y-75752181D01*
X94308380Y-75748334D01*
X94597722Y-75690781D01*
X94877077Y-75595952D01*
X95141665Y-75465472D01*
X95386957Y-75301573D01*
X95608758Y-75107058D01*
X95803273Y-74885257D01*
X95967172Y-74639965D01*
X96097652Y-74375377D01*
X96147956Y-74227187D01*
X96188144Y-74170034D01*
X96252853Y-74143681D01*
X96321537Y-74156495D01*
X96336489Y-74165466D01*
X96456361Y-74249402D01*
X96654670Y-74341875D01*
X96866023Y-74398507D01*
X97048926Y-74414508D01*
X97083998Y-74417577D01*
X97084000Y-74417577D01*
X97084002Y-74417577D01*
X97112254Y-74415105D01*
X97301977Y-74398507D01*
X97513330Y-74341875D01*
X97711639Y-74249402D01*
X97890877Y-74123898D01*
X98045598Y-73969177D01*
X98171102Y-73789939D01*
X98221618Y-73681606D01*
X98267790Y-73629167D01*
X98334984Y-73610015D01*
X98401865Y-73630231D01*
X98446382Y-73681607D01*
X98494766Y-73785368D01*
X98496898Y-73789939D01*
X98622402Y-73969177D01*
X98777123Y-74123898D01*
X98956361Y-74249402D01*
X99154670Y-74341875D01*
X99366023Y-74398507D01*
X99548926Y-74414508D01*
X99583998Y-74417577D01*
X99584000Y-74417577D01*
X99584002Y-74417577D01*
X99612254Y-74415105D01*
X99801977Y-74398507D01*
X100013330Y-74341875D01*
X100211639Y-74249402D01*
X100390877Y-74123898D01*
X100496319Y-74018456D01*
X100557642Y-73984971D01*
X100627334Y-73989955D01*
X100671681Y-74018456D01*
X100777123Y-74123898D01*
X100956361Y-74249402D01*
X101154670Y-74341875D01*
X101366023Y-74398507D01*
X101548926Y-74414508D01*
X101583998Y-74417577D01*
X101584000Y-74417577D01*
X101584002Y-74417577D01*
X101612254Y-74415105D01*
X101801977Y-74398507D01*
X102013330Y-74341875D01*
X102211639Y-74249402D01*
X102390877Y-74123898D01*
X102545598Y-73969177D01*
X102671102Y-73789939D01*
X102721894Y-73681014D01*
X102768066Y-73628575D01*
X102835259Y-73609423D01*
X102902141Y-73629639D01*
X102946658Y-73681015D01*
X102997331Y-73789684D01*
X102997332Y-73789686D01*
X103040874Y-73851871D01*
X103633696Y-73259048D01*
X103655349Y-73339853D01*
X103715909Y-73444746D01*
X103801554Y-73530391D01*
X103906447Y-73590951D01*
X103987248Y-73612602D01*
X103394427Y-74205424D01*
X103456612Y-74248966D01*
X103654840Y-74341401D01*
X103654849Y-74341405D01*
X103866105Y-74398010D01*
X103866115Y-74398012D01*
X104083999Y-74417075D01*
X104084001Y-74417075D01*
X104301884Y-74398012D01*
X104301894Y-74398010D01*
X104513150Y-74341405D01*
X104513159Y-74341401D01*
X104711388Y-74248966D01*
X104711394Y-74248962D01*
X104831333Y-74164980D01*
X104897539Y-74142652D01*
X104965306Y-74159662D01*
X105013120Y-74210609D01*
X105019876Y-74226695D01*
X105070349Y-74375380D01*
X105200825Y-74639960D01*
X105200829Y-74639967D01*
X105364725Y-74885255D01*
X105559241Y-75107058D01*
X105781044Y-75301574D01*
X105812787Y-75322784D01*
X106026335Y-75465472D01*
X106290923Y-75595952D01*
X106570278Y-75690781D01*
X106859620Y-75748334D01*
X106887888Y-75750186D01*
X107153993Y-75767629D01*
X107154000Y-75767629D01*
X107154007Y-75767629D01*
X107389675Y-75752181D01*
X107448380Y-75748334D01*
X107737722Y-75690781D01*
X108017077Y-75595952D01*
X108281665Y-75465472D01*
X108526957Y-75301573D01*
X108748758Y-75107058D01*
X108943273Y-74885257D01*
X109083096Y-74675998D01*
X111470532Y-74675998D01*
X111470532Y-74676001D01*
X111490364Y-74902686D01*
X111490366Y-74902697D01*
X111549258Y-75122488D01*
X111549261Y-75122497D01*
X111645431Y-75328732D01*
X111645432Y-75328734D01*
X111775953Y-75515140D01*
X111936858Y-75676045D01*
X111964003Y-75695052D01*
X112123266Y-75806568D01*
X112329504Y-75902739D01*
X112549308Y-75961635D01*
X112711230Y-75975801D01*
X112775998Y-75981468D01*
X112776000Y-75981468D01*
X112776002Y-75981468D01*
X112832673Y-75976509D01*
X113002692Y-75961635D01*
X113222496Y-75902739D01*
X113428734Y-75806568D01*
X113615139Y-75676047D01*
X113695236Y-75595950D01*
X113776047Y-75515140D01*
X113883155Y-75362171D01*
X113906568Y-75328734D01*
X114002739Y-75122496D01*
X114061635Y-74902692D01*
X114080018Y-74692569D01*
X114081468Y-74676001D01*
X114081468Y-74675998D01*
X114069438Y-74538495D01*
X114061635Y-74449308D01*
X114002739Y-74229504D01*
X113906568Y-74023266D01*
X113776047Y-73836861D01*
X113776046Y-73836860D01*
X113776045Y-73836858D01*
X113615141Y-73675954D01*
X113428734Y-73545432D01*
X113428732Y-73545431D01*
X113222497Y-73449261D01*
X113222488Y-73449258D01*
X113002697Y-73390366D01*
X113002693Y-73390365D01*
X113002692Y-73390365D01*
X113002691Y-73390364D01*
X113002686Y-73390364D01*
X112776002Y-73370532D01*
X112775998Y-73370532D01*
X112549313Y-73390364D01*
X112549302Y-73390366D01*
X112329511Y-73449258D01*
X112329502Y-73449261D01*
X112123267Y-73545431D01*
X112123265Y-73545432D01*
X111936858Y-73675954D01*
X111775954Y-73836858D01*
X111645432Y-74023265D01*
X111645432Y-74023266D01*
X111549261Y-74229502D01*
X111549258Y-74229511D01*
X111490366Y-74449302D01*
X111490364Y-74449313D01*
X111470532Y-74675998D01*
X109083096Y-74675998D01*
X109107172Y-74639965D01*
X109237652Y-74375377D01*
X109332481Y-74096022D01*
X109390034Y-73806680D01*
X109394705Y-73735412D01*
X109409329Y-73512307D01*
X109409329Y-73512292D01*
X109390035Y-73217936D01*
X109390034Y-73217920D01*
X109332481Y-72928578D01*
X109237652Y-72649223D01*
X109107172Y-72384636D01*
X109020946Y-72255590D01*
X109000069Y-72188913D01*
X109018554Y-72121533D01*
X109070532Y-72074843D01*
X109124049Y-72062700D01*
X130141031Y-72062700D01*
X130141047Y-72062701D01*
X130148643Y-72062701D01*
X130306754Y-72062701D01*
X130306757Y-72062701D01*
X130459485Y-72021777D01*
X130509604Y-71992839D01*
X130596416Y-71942720D01*
X130708220Y-71830916D01*
X130708220Y-71830914D01*
X130718428Y-71820707D01*
X130718430Y-71820704D01*
X135766939Y-66772194D01*
X135828260Y-66738711D01*
X135897952Y-66743695D01*
X135942299Y-66772195D01*
X136088599Y-66918495D01*
X136088602Y-66918497D01*
X136088603Y-66918498D01*
X136274158Y-67048425D01*
X136317783Y-67103002D01*
X136324977Y-67172500D01*
X136293454Y-67234855D01*
X136274158Y-67251575D01*
X136088597Y-67381505D01*
X135921505Y-67548597D01*
X135785965Y-67742169D01*
X135785964Y-67742171D01*
X135686098Y-67956335D01*
X135686094Y-67956344D01*
X135624938Y-68184586D01*
X135624936Y-68184596D01*
X135604341Y-68419999D01*
X135604341Y-68420000D01*
X135624936Y-68655403D01*
X135624938Y-68655413D01*
X135686094Y-68883655D01*
X135686095Y-68883658D01*
X135686097Y-68883663D01*
X135699822Y-68913097D01*
X135710314Y-68982171D01*
X135681795Y-69045956D01*
X135623319Y-69084196D01*
X135587440Y-69089500D01*
X134897970Y-69089500D01*
X134897954Y-69089499D01*
X134890358Y-69089499D01*
X134732243Y-69089499D01*
X134655879Y-69109961D01*
X134579514Y-69130423D01*
X134579509Y-69130426D01*
X134442590Y-69209475D01*
X134442582Y-69209481D01*
X130978984Y-72673081D01*
X130917661Y-72706566D01*
X130891303Y-72709400D01*
X122365170Y-72709400D01*
X122365154Y-72709399D01*
X122357558Y-72709399D01*
X122199443Y-72709399D01*
X122123079Y-72729861D01*
X122046714Y-72750323D01*
X122046709Y-72750326D01*
X121909790Y-72829375D01*
X121909782Y-72829381D01*
X118472984Y-76266181D01*
X118411661Y-76299666D01*
X118385303Y-76302500D01*
X106020540Y-76302500D01*
X105979619Y-76313464D01*
X105979619Y-76313465D01*
X105942351Y-76323451D01*
X105867814Y-76343423D01*
X105867809Y-76343426D01*
X105730890Y-76422475D01*
X105730882Y-76422481D01*
X105619078Y-76534286D01*
X103523956Y-78629407D01*
X103462633Y-78662892D01*
X103392941Y-78657908D01*
X103348594Y-78629407D01*
X103299141Y-78579954D01*
X103112734Y-78449432D01*
X103112732Y-78449431D01*
X102906497Y-78353261D01*
X102906488Y-78353258D01*
X102686697Y-78294366D01*
X102686693Y-78294365D01*
X102686692Y-78294365D01*
X102686691Y-78294364D01*
X102686686Y-78294364D01*
X102460002Y-78274532D01*
X102459998Y-78274532D01*
X102233313Y-78294364D01*
X102233302Y-78294366D01*
X102013511Y-78353258D01*
X102013502Y-78353261D01*
X101807267Y-78449431D01*
X101807265Y-78449432D01*
X101620858Y-78579954D01*
X101459954Y-78740858D01*
X101329432Y-78927265D01*
X101329431Y-78927267D01*
X101302382Y-78985275D01*
X101256209Y-79037714D01*
X101189016Y-79056866D01*
X101122135Y-79036650D01*
X101077618Y-78985275D01*
X101062672Y-78953223D01*
X101050568Y-78927266D01*
X100920047Y-78740861D01*
X100920045Y-78740858D01*
X100759141Y-78579954D01*
X100572734Y-78449432D01*
X100572732Y-78449431D01*
X100366497Y-78353261D01*
X100366488Y-78353258D01*
X100146697Y-78294366D01*
X100146693Y-78294365D01*
X100146692Y-78294365D01*
X100146691Y-78294364D01*
X100146686Y-78294364D01*
X99920002Y-78274532D01*
X99919998Y-78274532D01*
X99693313Y-78294364D01*
X99693302Y-78294366D01*
X99473511Y-78353258D01*
X99473502Y-78353261D01*
X99267267Y-78449431D01*
X99267265Y-78449432D01*
X99080858Y-78579954D01*
X98919954Y-78740858D01*
X98789432Y-78927265D01*
X98789431Y-78927267D01*
X98762382Y-78985275D01*
X98716209Y-79037714D01*
X98649016Y-79056866D01*
X98582135Y-79036650D01*
X98537618Y-78985275D01*
X98522672Y-78953223D01*
X98510568Y-78927266D01*
X98380047Y-78740861D01*
X98380045Y-78740858D01*
X98219141Y-78579954D01*
X98032734Y-78449432D01*
X98032732Y-78449431D01*
X97826497Y-78353261D01*
X97826488Y-78353258D01*
X97606697Y-78294366D01*
X97606693Y-78294365D01*
X97606692Y-78294365D01*
X97606691Y-78294364D01*
X97606686Y-78294364D01*
X97380002Y-78274532D01*
X97379998Y-78274532D01*
X97153313Y-78294364D01*
X97153302Y-78294366D01*
X96933511Y-78353258D01*
X96933502Y-78353261D01*
X96727267Y-78449431D01*
X96727265Y-78449432D01*
X96540861Y-78579952D01*
X96491403Y-78629409D01*
X96430079Y-78662893D01*
X96360387Y-78657907D01*
X96316042Y-78629407D01*
X95482590Y-77795955D01*
X95482588Y-77795952D01*
X95363715Y-77677079D01*
X95333287Y-77659512D01*
X95261297Y-77617949D01*
X95226785Y-77598023D01*
X95074057Y-77557099D01*
X94915943Y-77557099D01*
X94908347Y-77557099D01*
X94908331Y-77557100D01*
X65121169Y-77557100D01*
X65121153Y-77557099D01*
X65113557Y-77557099D01*
X64955443Y-77557099D01*
X64802715Y-77598023D01*
X64768203Y-77617949D01*
X64716993Y-77647514D01*
X64665784Y-77677079D01*
X64665782Y-77677081D01*
X64553978Y-77788886D01*
X63658706Y-78684157D01*
X63597383Y-78717642D01*
X63527691Y-78712658D01*
X63483344Y-78684157D01*
X63479141Y-78679954D01*
X63292734Y-78549432D01*
X63292732Y-78549431D01*
X63086497Y-78453261D01*
X63086488Y-78453258D01*
X62866697Y-78394366D01*
X62866693Y-78394365D01*
X62866692Y-78394365D01*
X62866691Y-78394364D01*
X62866686Y-78394364D01*
X62640002Y-78374532D01*
X62639998Y-78374532D01*
X62413313Y-78394364D01*
X62413302Y-78394366D01*
X62193511Y-78453258D01*
X62193502Y-78453261D01*
X61987267Y-78549431D01*
X61987265Y-78549432D01*
X61800858Y-78679954D01*
X61639954Y-78840858D01*
X61514223Y-79020423D01*
X61509432Y-79027266D01*
X61501786Y-79043664D01*
X61482106Y-79085867D01*
X61435933Y-79138306D01*
X61368739Y-79157457D01*
X61301858Y-79137241D01*
X61257342Y-79085865D01*
X61230135Y-79027520D01*
X61230134Y-79027518D01*
X61099657Y-78841179D01*
X60938820Y-78680342D01*
X60752482Y-78549865D01*
X60546328Y-78453734D01*
X60350000Y-78401127D01*
X60350000Y-79364314D01*
X60345606Y-79359920D01*
X60254394Y-79307259D01*
X60152661Y-79280000D01*
X60047339Y-79280000D01*
X59945606Y-79307259D01*
X59854394Y-79359920D01*
X59850000Y-79364314D01*
X59850000Y-78401127D01*
X59653671Y-78453734D01*
X59447517Y-78549865D01*
X59261179Y-78680342D01*
X59100342Y-78841179D01*
X58969865Y-79027517D01*
X58873734Y-79233673D01*
X58873730Y-79233682D01*
X58821127Y-79429999D01*
X58821128Y-79430000D01*
X59784314Y-79430000D01*
X59779920Y-79434394D01*
X59727259Y-79525606D01*
X59700000Y-79627339D01*
X59700000Y-79732661D01*
X59727259Y-79834394D01*
X59779920Y-79925606D01*
X59784314Y-79930000D01*
X58821128Y-79930000D01*
X58873730Y-80126317D01*
X58873734Y-80126326D01*
X58969865Y-80332482D01*
X59100342Y-80518820D01*
X59261179Y-80679657D01*
X59447517Y-80810134D01*
X59653673Y-80906265D01*
X59653682Y-80906269D01*
X59849999Y-80958872D01*
X59850000Y-80958871D01*
X59850000Y-79995686D01*
X59854394Y-80000080D01*
X59945606Y-80052741D01*
X60047339Y-80080000D01*
X60152661Y-80080000D01*
X60254394Y-80052741D01*
X60345606Y-80000080D01*
X60350000Y-79995686D01*
X60350000Y-80958872D01*
X60546317Y-80906269D01*
X60546326Y-80906265D01*
X60752482Y-80810134D01*
X60938820Y-80679657D01*
X61099657Y-80518820D01*
X61230132Y-80332484D01*
X61257341Y-80274134D01*
X61303513Y-80221695D01*
X61370707Y-80202542D01*
X61437588Y-80222757D01*
X61482106Y-80274133D01*
X61509431Y-80332732D01*
X61509432Y-80332734D01*
X61639954Y-80519141D01*
X61800858Y-80680045D01*
X61800861Y-80680047D01*
X61987266Y-80810568D01*
X62193504Y-80906739D01*
X62193509Y-80906740D01*
X62193511Y-80906741D01*
X62225223Y-80915238D01*
X62413308Y-80965635D01*
X62575230Y-80979801D01*
X62639998Y-80985468D01*
X62640000Y-80985468D01*
X62640002Y-80985468D01*
X62696673Y-80980509D01*
X62866692Y-80965635D01*
X63086496Y-80906739D01*
X63292734Y-80810568D01*
X63479139Y-80680047D01*
X63640047Y-80519139D01*
X63770568Y-80332734D01*
X63770577Y-80332713D01*
X63771663Y-80330834D01*
X63772370Y-80330159D01*
X63773673Y-80328299D01*
X63774046Y-80328560D01*
X63822225Y-80282613D01*
X63846957Y-80273050D01*
X63901702Y-80258382D01*
X63971552Y-80260045D01*
X64029414Y-80299209D01*
X64046174Y-80325748D01*
X64049429Y-80332729D01*
X64049432Y-80332734D01*
X64179954Y-80519141D01*
X64340858Y-80680045D01*
X64340861Y-80680047D01*
X64527266Y-80810568D01*
X64733504Y-80906739D01*
X64733509Y-80906740D01*
X64733511Y-80906741D01*
X64765223Y-80915238D01*
X64953308Y-80965635D01*
X65115230Y-80979801D01*
X65179998Y-80985468D01*
X65180000Y-80985468D01*
X65180002Y-80985468D01*
X65236673Y-80980509D01*
X65406692Y-80965635D01*
X65625126Y-80907106D01*
X65694974Y-80908769D01*
X65752837Y-80947931D01*
X65780341Y-81012160D01*
X65774260Y-81067835D01*
X65714632Y-81238242D01*
X65714630Y-81238250D01*
X65694435Y-81417496D01*
X65694435Y-81417503D01*
X65714630Y-81596749D01*
X65714631Y-81596754D01*
X65774211Y-81767023D01*
X65793571Y-81797834D01*
X65870184Y-81919762D01*
X65997738Y-82047316D01*
X66150478Y-82143289D01*
X66320745Y-82202868D01*
X66320750Y-82202869D01*
X66499996Y-82223065D01*
X66500000Y-82223065D01*
X66500004Y-82223065D01*
X66679249Y-82202869D01*
X66679252Y-82202868D01*
X66679255Y-82202868D01*
X66849522Y-82143289D01*
X67002262Y-82047316D01*
X67129816Y-81919762D01*
X67225789Y-81767022D01*
X67285368Y-81596755D01*
X67296779Y-81495480D01*
X67305565Y-81417503D01*
X67305565Y-81417496D01*
X67285369Y-81238250D01*
X67285366Y-81238237D01*
X67236086Y-81097403D01*
X67232524Y-81027624D01*
X67267252Y-80966997D01*
X67329246Y-80934769D01*
X67385219Y-80936672D01*
X67493308Y-80965635D01*
X67655230Y-80979801D01*
X67719998Y-80985468D01*
X67720000Y-80985468D01*
X67720002Y-80985468D01*
X67776673Y-80980509D01*
X67946692Y-80965635D01*
X68166496Y-80906739D01*
X68372734Y-80810568D01*
X68559139Y-80680047D01*
X68720047Y-80519139D01*
X68850568Y-80332734D01*
X68877618Y-80274724D01*
X68923790Y-80222285D01*
X68990983Y-80203133D01*
X69057865Y-80223348D01*
X69102382Y-80274725D01*
X69129429Y-80332728D01*
X69129432Y-80332734D01*
X69259954Y-80519141D01*
X69420858Y-80680045D01*
X69420861Y-80680047D01*
X69607266Y-80810568D01*
X69813504Y-80906739D01*
X69813509Y-80906740D01*
X69813511Y-80906741D01*
X69845223Y-80915238D01*
X70033308Y-80965635D01*
X70195230Y-80979801D01*
X70259998Y-80985468D01*
X70260000Y-80985468D01*
X70260002Y-80985468D01*
X70316673Y-80980509D01*
X70486692Y-80965635D01*
X70706496Y-80906739D01*
X70912734Y-80810568D01*
X71099139Y-80680047D01*
X71260047Y-80519139D01*
X71390568Y-80332734D01*
X71417618Y-80274724D01*
X71463790Y-80222285D01*
X71530983Y-80203133D01*
X71597865Y-80223348D01*
X71642382Y-80274725D01*
X71669429Y-80332728D01*
X71669432Y-80332734D01*
X71799954Y-80519141D01*
X71960858Y-80680045D01*
X71960861Y-80680047D01*
X72147266Y-80810568D01*
X72353504Y-80906739D01*
X72353509Y-80906740D01*
X72353511Y-80906741D01*
X72385223Y-80915238D01*
X72573308Y-80965635D01*
X72735230Y-80979801D01*
X72799998Y-80985468D01*
X72800000Y-80985468D01*
X72800002Y-80985468D01*
X72856673Y-80980509D01*
X73026692Y-80965635D01*
X73246496Y-80906739D01*
X73319769Y-80872570D01*
X73388843Y-80862079D01*
X73452628Y-80890598D01*
X73489214Y-80943999D01*
X73513610Y-81013721D01*
X73532748Y-81044179D01*
X73609584Y-81166462D01*
X73737138Y-81294016D01*
X73889878Y-81389989D01*
X74006961Y-81430958D01*
X74060145Y-81449568D01*
X74060150Y-81449569D01*
X74239396Y-81469765D01*
X74239400Y-81469765D01*
X74239404Y-81469765D01*
X74418649Y-81449569D01*
X74418652Y-81449568D01*
X74418655Y-81449568D01*
X74588922Y-81389989D01*
X74741662Y-81294016D01*
X74869216Y-81166462D01*
X74963705Y-81016082D01*
X75016038Y-80969793D01*
X75085092Y-80959144D01*
X75100789Y-80962280D01*
X75113308Y-80965635D01*
X75275230Y-80979801D01*
X75339998Y-80985468D01*
X75340000Y-80985468D01*
X75340002Y-80985468D01*
X75396673Y-80980509D01*
X75566692Y-80965635D01*
X75786496Y-80906739D01*
X75992734Y-80810568D01*
X76179139Y-80680047D01*
X76183342Y-80675843D01*
X76244659Y-80642357D01*
X76314351Y-80647338D01*
X76358706Y-80675841D01*
X78823439Y-83140574D01*
X78823449Y-83140585D01*
X78827779Y-83144915D01*
X78827780Y-83144916D01*
X78939584Y-83256720D01*
X78939586Y-83256721D01*
X78939590Y-83256724D01*
X79076509Y-83335773D01*
X79076516Y-83335777D01*
X79188319Y-83365734D01*
X79229242Y-83376700D01*
X79229243Y-83376700D01*
X114412503Y-83376700D01*
X114479542Y-83396385D01*
X114500184Y-83413019D01*
X116395298Y-85308133D01*
X116428783Y-85369456D01*
X116430837Y-85381930D01*
X116440630Y-85468849D01*
X116500210Y-85639121D01*
X116530596Y-85687480D01*
X116596184Y-85791862D01*
X116723738Y-85919416D01*
X116782283Y-85956202D01*
X116849187Y-85998241D01*
X116895478Y-86050576D01*
X116906126Y-86119630D01*
X116877751Y-86183478D01*
X116862927Y-86198219D01*
X116860868Y-86199946D01*
X116699951Y-86360862D01*
X116569432Y-86547265D01*
X116569431Y-86547267D01*
X116542382Y-86605275D01*
X116496209Y-86657714D01*
X116429016Y-86676866D01*
X116362135Y-86656650D01*
X116317618Y-86605275D01*
X116306202Y-86580793D01*
X116290568Y-86547266D01*
X116160047Y-86360861D01*
X116160045Y-86360858D01*
X115999141Y-86199954D01*
X115812734Y-86069432D01*
X115812732Y-86069431D01*
X115606497Y-85973261D01*
X115606488Y-85973258D01*
X115386697Y-85914366D01*
X115386693Y-85914365D01*
X115386692Y-85914365D01*
X115386691Y-85914364D01*
X115386686Y-85914364D01*
X115160002Y-85894532D01*
X115159998Y-85894532D01*
X114933313Y-85914364D01*
X114933302Y-85914366D01*
X114713511Y-85973258D01*
X114713502Y-85973261D01*
X114507267Y-86069431D01*
X114507265Y-86069432D01*
X114320858Y-86199954D01*
X114159954Y-86360858D01*
X114029433Y-86547264D01*
X114028325Y-86549184D01*
X114027616Y-86549859D01*
X114026327Y-86551701D01*
X114025956Y-86551441D01*
X113977754Y-86597396D01*
X113953037Y-86606950D01*
X113898297Y-86621617D01*
X113828449Y-86619955D01*
X113770587Y-86580793D01*
X113753824Y-86554249D01*
X113750568Y-86547266D01*
X113620047Y-86360861D01*
X113620045Y-86360858D01*
X113459141Y-86199954D01*
X113272734Y-86069432D01*
X113272732Y-86069431D01*
X113066497Y-85973261D01*
X113066488Y-85973258D01*
X112846697Y-85914366D01*
X112846693Y-85914365D01*
X112846692Y-85914365D01*
X112846691Y-85914364D01*
X112846686Y-85914364D01*
X112620002Y-85894532D01*
X112619998Y-85894532D01*
X112393313Y-85914364D01*
X112393302Y-85914366D01*
X112173511Y-85973258D01*
X112173502Y-85973261D01*
X111967267Y-86069431D01*
X111967265Y-86069432D01*
X111780858Y-86199954D01*
X111619954Y-86360858D01*
X111489433Y-86547264D01*
X111488325Y-86549184D01*
X111487616Y-86549859D01*
X111486327Y-86551701D01*
X111485956Y-86551441D01*
X111437754Y-86597396D01*
X111413037Y-86606950D01*
X111358297Y-86621617D01*
X111288449Y-86619955D01*
X111230587Y-86580793D01*
X111213824Y-86554249D01*
X111210568Y-86547266D01*
X111080047Y-86360861D01*
X111080045Y-86360858D01*
X110919141Y-86199954D01*
X110732734Y-86069432D01*
X110732732Y-86069431D01*
X110526497Y-85973261D01*
X110526488Y-85973258D01*
X110306697Y-85914366D01*
X110306693Y-85914365D01*
X110306692Y-85914365D01*
X110306691Y-85914364D01*
X110306686Y-85914364D01*
X110080002Y-85894532D01*
X110079998Y-85894532D01*
X109853313Y-85914364D01*
X109853302Y-85914366D01*
X109633511Y-85973258D01*
X109633502Y-85973261D01*
X109427267Y-86069431D01*
X109427265Y-86069432D01*
X109240858Y-86199954D01*
X109079954Y-86360858D01*
X108949432Y-86547265D01*
X108949431Y-86547267D01*
X108922382Y-86605275D01*
X108876209Y-86657714D01*
X108809016Y-86676866D01*
X108742135Y-86656650D01*
X108697618Y-86605275D01*
X108686202Y-86580793D01*
X108670568Y-86547266D01*
X108540047Y-86360861D01*
X108540045Y-86360858D01*
X108379141Y-86199954D01*
X108192734Y-86069432D01*
X108192732Y-86069431D01*
X107986497Y-85973261D01*
X107986488Y-85973258D01*
X107766697Y-85914366D01*
X107766693Y-85914365D01*
X107766692Y-85914365D01*
X107766691Y-85914364D01*
X107766686Y-85914364D01*
X107540002Y-85894532D01*
X107539998Y-85894532D01*
X107313313Y-85914364D01*
X107313302Y-85914366D01*
X107093511Y-85973258D01*
X107093502Y-85973261D01*
X106887267Y-86069431D01*
X106887265Y-86069432D01*
X106700858Y-86199954D01*
X106539954Y-86360858D01*
X106409432Y-86547265D01*
X106409431Y-86547267D01*
X106382382Y-86605275D01*
X106336209Y-86657714D01*
X106269016Y-86676866D01*
X106202135Y-86656650D01*
X106157618Y-86605275D01*
X106146202Y-86580793D01*
X106130568Y-86547266D01*
X106000047Y-86360861D01*
X106000045Y-86360858D01*
X105839141Y-86199954D01*
X105652734Y-86069432D01*
X105652732Y-86069431D01*
X105446497Y-85973261D01*
X105446488Y-85973258D01*
X105226697Y-85914366D01*
X105226693Y-85914365D01*
X105226692Y-85914365D01*
X105226691Y-85914364D01*
X105226686Y-85914364D01*
X105000002Y-85894532D01*
X104999998Y-85894532D01*
X104773313Y-85914364D01*
X104773302Y-85914366D01*
X104553511Y-85973258D01*
X104553502Y-85973261D01*
X104347267Y-86069431D01*
X104347265Y-86069432D01*
X104160861Y-86199952D01*
X104111403Y-86249409D01*
X104050079Y-86282893D01*
X103980387Y-86277907D01*
X103936042Y-86249407D01*
X103403590Y-85716955D01*
X103403588Y-85716952D01*
X103284717Y-85598081D01*
X103284716Y-85598080D01*
X103197904Y-85547960D01*
X103197904Y-85547959D01*
X103197900Y-85547958D01*
X103147785Y-85519023D01*
X102995057Y-85478099D01*
X102836943Y-85478099D01*
X102829347Y-85478099D01*
X102829331Y-85478100D01*
X102093557Y-85478100D01*
X101935443Y-85478100D01*
X101782715Y-85519023D01*
X101782714Y-85519023D01*
X101782712Y-85519024D01*
X101782709Y-85519025D01*
X101732596Y-85547959D01*
X101732595Y-85547960D01*
X101695607Y-85569315D01*
X101645785Y-85598079D01*
X101645782Y-85598081D01*
X101533978Y-85709886D01*
X100989206Y-86254657D01*
X100927883Y-86288142D01*
X100858191Y-86283158D01*
X100813844Y-86254657D01*
X100759141Y-86199954D01*
X100572734Y-86069432D01*
X100572732Y-86069431D01*
X100366497Y-85973261D01*
X100366488Y-85973258D01*
X100146697Y-85914366D01*
X100146693Y-85914365D01*
X100146692Y-85914365D01*
X100146691Y-85914364D01*
X100146686Y-85914364D01*
X99920002Y-85894532D01*
X99919998Y-85894532D01*
X99693313Y-85914364D01*
X99693302Y-85914366D01*
X99473511Y-85973258D01*
X99473502Y-85973261D01*
X99267267Y-86069431D01*
X99267265Y-86069432D01*
X99080858Y-86199954D01*
X98919954Y-86360858D01*
X98789433Y-86547264D01*
X98788325Y-86549184D01*
X98787616Y-86549859D01*
X98786327Y-86551701D01*
X98785956Y-86551441D01*
X98737754Y-86597396D01*
X98713037Y-86606950D01*
X98658297Y-86621617D01*
X98588449Y-86619955D01*
X98530587Y-86580793D01*
X98513824Y-86554249D01*
X98510568Y-86547266D01*
X98380047Y-86360861D01*
X98380045Y-86360858D01*
X98219141Y-86199954D01*
X98032734Y-86069432D01*
X98032732Y-86069431D01*
X97826497Y-85973261D01*
X97826488Y-85973258D01*
X97606697Y-85914366D01*
X97606693Y-85914365D01*
X97606692Y-85914365D01*
X97606691Y-85914364D01*
X97606686Y-85914364D01*
X97380002Y-85894532D01*
X97379998Y-85894532D01*
X97153313Y-85914364D01*
X97153302Y-85914366D01*
X96933511Y-85973258D01*
X96933502Y-85973261D01*
X96727267Y-86069431D01*
X96727265Y-86069432D01*
X96540858Y-86199954D01*
X96379954Y-86360858D01*
X96362725Y-86385464D01*
X96308147Y-86429088D01*
X96238648Y-86436280D01*
X96176294Y-86404757D01*
X96140882Y-86344526D01*
X96137861Y-86327591D01*
X96134091Y-86292516D01*
X96083797Y-86157671D01*
X96083793Y-86157664D01*
X95997547Y-86042455D01*
X95997544Y-86042452D01*
X95882335Y-85956206D01*
X95882328Y-85956202D01*
X95747482Y-85905908D01*
X95747483Y-85905908D01*
X95687883Y-85899501D01*
X95687881Y-85899500D01*
X95687873Y-85899500D01*
X95687864Y-85899500D01*
X93992129Y-85899500D01*
X93992123Y-85899501D01*
X93932516Y-85905908D01*
X93797671Y-85956202D01*
X93797664Y-85956206D01*
X93682455Y-86042452D01*
X93682452Y-86042455D01*
X93596206Y-86157664D01*
X93596202Y-86157671D01*
X93545908Y-86292517D01*
X93540552Y-86342339D01*
X93539500Y-86352127D01*
X93539500Y-87014957D01*
X93539501Y-87575600D01*
X93519816Y-87642639D01*
X93467013Y-87688394D01*
X93415501Y-87699600D01*
X91814040Y-87699600D01*
X91773119Y-87710564D01*
X91773119Y-87710565D01*
X91735851Y-87720551D01*
X91661314Y-87740523D01*
X91661309Y-87740526D01*
X91524390Y-87819575D01*
X91524382Y-87819581D01*
X91412578Y-87931386D01*
X88160965Y-91182998D01*
X88099642Y-91216483D01*
X88087168Y-91218537D01*
X88000250Y-91228330D01*
X87829978Y-91287910D01*
X87677237Y-91383884D01*
X87549684Y-91511437D01*
X87453711Y-91664176D01*
X87394131Y-91834445D01*
X87394130Y-91834449D01*
X87373508Y-92017484D01*
X87346442Y-92081897D01*
X87288847Y-92121453D01*
X87250288Y-92127600D01*
X79903587Y-92127600D01*
X79836548Y-92107915D01*
X79790793Y-92055111D01*
X79782697Y-92031196D01*
X79782070Y-92028453D01*
X79782068Y-92028448D01*
X79782068Y-92028445D01*
X79722489Y-91858178D01*
X79626516Y-91705438D01*
X79498962Y-91577884D01*
X79434254Y-91537225D01*
X79346223Y-91481911D01*
X79175954Y-91422331D01*
X79175949Y-91422330D01*
X78996704Y-91402135D01*
X78996696Y-91402135D01*
X78817450Y-91422330D01*
X78817445Y-91422331D01*
X78647176Y-91481911D01*
X78494437Y-91577884D01*
X78366884Y-91705437D01*
X78270911Y-91858176D01*
X78211331Y-92028445D01*
X78211330Y-92028449D01*
X78203587Y-92097183D01*
X78176521Y-92161597D01*
X78118927Y-92201152D01*
X78080367Y-92207300D01*
X72022596Y-92207300D01*
X71955557Y-92187615D01*
X71909802Y-92134811D01*
X71899858Y-92065653D01*
X71928883Y-92002097D01*
X71934915Y-91995619D01*
X73339214Y-90591321D01*
X74893616Y-89036919D01*
X74954939Y-89003434D01*
X74981297Y-89000600D01*
X75419055Y-89000600D01*
X75419057Y-89000600D01*
X75571784Y-88959677D01*
X75708716Y-88880620D01*
X75820520Y-88768816D01*
X75899577Y-88631884D01*
X75933050Y-88506960D01*
X75969413Y-88447304D01*
X75990834Y-88431663D01*
X75992713Y-88430577D01*
X75992734Y-88430568D01*
X76179139Y-88300047D01*
X76340047Y-88139139D01*
X76470568Y-87952734D01*
X76473822Y-87945756D01*
X76519993Y-87893315D01*
X76587186Y-87874161D01*
X76618295Y-87878381D01*
X76673037Y-87893049D01*
X76732695Y-87929412D01*
X76748329Y-87950822D01*
X76749429Y-87952727D01*
X76749432Y-87952734D01*
X76749435Y-87952738D01*
X76879954Y-88139141D01*
X77040858Y-88300045D01*
X77040861Y-88300047D01*
X77227266Y-88430568D01*
X77433504Y-88526739D01*
X77653308Y-88585635D01*
X77815230Y-88599801D01*
X77879998Y-88605468D01*
X77880000Y-88605468D01*
X77880002Y-88605468D01*
X77936807Y-88600498D01*
X78106692Y-88585635D01*
X78326496Y-88526739D01*
X78532734Y-88430568D01*
X78719139Y-88300047D01*
X78880047Y-88139139D01*
X79010568Y-87952734D01*
X79037618Y-87894724D01*
X79083790Y-87842285D01*
X79150983Y-87823133D01*
X79217865Y-87843348D01*
X79262382Y-87894725D01*
X79289429Y-87952728D01*
X79289432Y-87952734D01*
X79419954Y-88139141D01*
X79580858Y-88300045D01*
X79580861Y-88300047D01*
X79767266Y-88430568D01*
X79973504Y-88526739D01*
X80193308Y-88585635D01*
X80355230Y-88599801D01*
X80419998Y-88605468D01*
X80420000Y-88605468D01*
X80420002Y-88605468D01*
X80476807Y-88600498D01*
X80646692Y-88585635D01*
X80866496Y-88526739D01*
X81072734Y-88430568D01*
X81259139Y-88300047D01*
X81420047Y-88139139D01*
X81550568Y-87952734D01*
X81577618Y-87894724D01*
X81623790Y-87842285D01*
X81690983Y-87823133D01*
X81757865Y-87843348D01*
X81802382Y-87894725D01*
X81829429Y-87952728D01*
X81829432Y-87952734D01*
X81959954Y-88139141D01*
X82120858Y-88300045D01*
X82120861Y-88300047D01*
X82307266Y-88430568D01*
X82513504Y-88526739D01*
X82733308Y-88585635D01*
X82895230Y-88599801D01*
X82959998Y-88605468D01*
X82960000Y-88605468D01*
X82960002Y-88605468D01*
X83016807Y-88600498D01*
X83186692Y-88585635D01*
X83406496Y-88526739D01*
X83612734Y-88430568D01*
X83799139Y-88300047D01*
X83960047Y-88139139D01*
X84090568Y-87952734D01*
X84117618Y-87894724D01*
X84163790Y-87842285D01*
X84230983Y-87823133D01*
X84297865Y-87843348D01*
X84342382Y-87894725D01*
X84369429Y-87952728D01*
X84369432Y-87952734D01*
X84499954Y-88139141D01*
X84660858Y-88300045D01*
X84660861Y-88300047D01*
X84847266Y-88430568D01*
X85053504Y-88526739D01*
X85273308Y-88585635D01*
X85435230Y-88599801D01*
X85499998Y-88605468D01*
X85500000Y-88605468D01*
X85500002Y-88605468D01*
X85556807Y-88600498D01*
X85726692Y-88585635D01*
X85946496Y-88526739D01*
X86152734Y-88430568D01*
X86339139Y-88300047D01*
X86500047Y-88139139D01*
X86630568Y-87952734D01*
X86657618Y-87894724D01*
X86703790Y-87842285D01*
X86770983Y-87823133D01*
X86837865Y-87843348D01*
X86882382Y-87894725D01*
X86909429Y-87952728D01*
X86909432Y-87952734D01*
X87039954Y-88139141D01*
X87200858Y-88300045D01*
X87200861Y-88300047D01*
X87387266Y-88430568D01*
X87593504Y-88526739D01*
X87813308Y-88585635D01*
X87975230Y-88599801D01*
X88039998Y-88605468D01*
X88040000Y-88605468D01*
X88040002Y-88605468D01*
X88096807Y-88600498D01*
X88266692Y-88585635D01*
X88486496Y-88526739D01*
X88692734Y-88430568D01*
X88879139Y-88300047D01*
X89040047Y-88139139D01*
X89170568Y-87952734D01*
X89266739Y-87746496D01*
X89325635Y-87526692D01*
X89345468Y-87300000D01*
X89325635Y-87073308D01*
X89266739Y-86853504D01*
X89170568Y-86647266D01*
X89040047Y-86460861D01*
X89040045Y-86460858D01*
X88879141Y-86299954D01*
X88692734Y-86169432D01*
X88692732Y-86169431D01*
X88486497Y-86073261D01*
X88486488Y-86073258D01*
X88266697Y-86014366D01*
X88266693Y-86014365D01*
X88266692Y-86014365D01*
X88266691Y-86014364D01*
X88266686Y-86014364D01*
X88040002Y-85994532D01*
X88039998Y-85994532D01*
X87813313Y-86014364D01*
X87813302Y-86014366D01*
X87593511Y-86073258D01*
X87593502Y-86073261D01*
X87387267Y-86169431D01*
X87387265Y-86169432D01*
X87200858Y-86299954D01*
X87039954Y-86460858D01*
X86909432Y-86647265D01*
X86909431Y-86647267D01*
X86882382Y-86705275D01*
X86836209Y-86757714D01*
X86769016Y-86776866D01*
X86702135Y-86756650D01*
X86657618Y-86705275D01*
X86630568Y-86647266D01*
X86500047Y-86460861D01*
X86500045Y-86460858D01*
X86339141Y-86299954D01*
X86152734Y-86169432D01*
X86152732Y-86169431D01*
X85946497Y-86073261D01*
X85946488Y-86073258D01*
X85726697Y-86014366D01*
X85726693Y-86014365D01*
X85726692Y-86014365D01*
X85726691Y-86014364D01*
X85726686Y-86014364D01*
X85500002Y-85994532D01*
X85499998Y-85994532D01*
X85273313Y-86014364D01*
X85273302Y-86014366D01*
X85053511Y-86073258D01*
X85053502Y-86073261D01*
X84847267Y-86169431D01*
X84847265Y-86169432D01*
X84660858Y-86299954D01*
X84499954Y-86460858D01*
X84369432Y-86647265D01*
X84369431Y-86647267D01*
X84342382Y-86705275D01*
X84296209Y-86757714D01*
X84229016Y-86776866D01*
X84162135Y-86756650D01*
X84117618Y-86705275D01*
X84090568Y-86647266D01*
X83960047Y-86460861D01*
X83960045Y-86460858D01*
X83799141Y-86299954D01*
X83612734Y-86169432D01*
X83612732Y-86169431D01*
X83406497Y-86073261D01*
X83406488Y-86073258D01*
X83186697Y-86014366D01*
X83186693Y-86014365D01*
X83186692Y-86014365D01*
X83186691Y-86014364D01*
X83186686Y-86014364D01*
X82960002Y-85994532D01*
X82959998Y-85994532D01*
X82733313Y-86014364D01*
X82733302Y-86014366D01*
X82513511Y-86073258D01*
X82513502Y-86073261D01*
X82307267Y-86169431D01*
X82307265Y-86169432D01*
X82120858Y-86299954D01*
X81959954Y-86460858D01*
X81829432Y-86647265D01*
X81829431Y-86647267D01*
X81802382Y-86705275D01*
X81756209Y-86757714D01*
X81689016Y-86776866D01*
X81622135Y-86756650D01*
X81577618Y-86705275D01*
X81550568Y-86647266D01*
X81420047Y-86460861D01*
X81420045Y-86460858D01*
X81259141Y-86299954D01*
X81072734Y-86169432D01*
X81072732Y-86169431D01*
X80866497Y-86073261D01*
X80866488Y-86073258D01*
X80646697Y-86014366D01*
X80646693Y-86014365D01*
X80646692Y-86014365D01*
X80646691Y-86014364D01*
X80646686Y-86014364D01*
X80420002Y-85994532D01*
X80419998Y-85994532D01*
X80193313Y-86014364D01*
X80193302Y-86014366D01*
X79973511Y-86073258D01*
X79973502Y-86073261D01*
X79767267Y-86169431D01*
X79767265Y-86169432D01*
X79580858Y-86299954D01*
X79419954Y-86460858D01*
X79289432Y-86647265D01*
X79289431Y-86647267D01*
X79262382Y-86705275D01*
X79216209Y-86757714D01*
X79149016Y-86776866D01*
X79082135Y-86756650D01*
X79037618Y-86705275D01*
X79010568Y-86647266D01*
X78880047Y-86460861D01*
X78880045Y-86460858D01*
X78719141Y-86299954D01*
X78532734Y-86169432D01*
X78532732Y-86169431D01*
X78326497Y-86073261D01*
X78326488Y-86073258D01*
X78106697Y-86014366D01*
X78106693Y-86014365D01*
X78106692Y-86014365D01*
X78106691Y-86014364D01*
X78106686Y-86014364D01*
X77880002Y-85994532D01*
X77879998Y-85994532D01*
X77653313Y-86014364D01*
X77653302Y-86014366D01*
X77433511Y-86073258D01*
X77433502Y-86073261D01*
X77227267Y-86169431D01*
X77227265Y-86169432D01*
X77040861Y-86299952D01*
X76991403Y-86349409D01*
X76930079Y-86382893D01*
X76860387Y-86377907D01*
X76816042Y-86349407D01*
X76272990Y-85806355D01*
X76272988Y-85806352D01*
X76154117Y-85687481D01*
X76154116Y-85687480D01*
X76067304Y-85637360D01*
X76067304Y-85637359D01*
X76067300Y-85637358D01*
X76017185Y-85608423D01*
X75864457Y-85567499D01*
X75706343Y-85567499D01*
X75698747Y-85567499D01*
X75698731Y-85567500D01*
X59279570Y-85567500D01*
X59279554Y-85567499D01*
X59271958Y-85567499D01*
X59113843Y-85567499D01*
X59037479Y-85587961D01*
X58961114Y-85608423D01*
X58961109Y-85608426D01*
X58824190Y-85687475D01*
X58824182Y-85687481D01*
X58519279Y-85992384D01*
X58493380Y-86037243D01*
X58482434Y-86056204D01*
X58440223Y-86129315D01*
X58399299Y-86282043D01*
X58399299Y-86282045D01*
X58399299Y-86450146D01*
X58399300Y-86450159D01*
X58399300Y-90053530D01*
X58399299Y-90053548D01*
X58399299Y-90219254D01*
X58399298Y-90219254D01*
X58436630Y-90358578D01*
X58440223Y-90371985D01*
X58458463Y-90403577D01*
X58519279Y-90508914D01*
X58519281Y-90508917D01*
X58638149Y-90627785D01*
X58638155Y-90627790D01*
X65602398Y-97592034D01*
X65635883Y-97653357D01*
X65637937Y-97665831D01*
X65647730Y-97752749D01*
X65707310Y-97923021D01*
X65803284Y-98075762D01*
X65930838Y-98203316D01*
X66083578Y-98299289D01*
X66212795Y-98344504D01*
X66253845Y-98358868D01*
X66253850Y-98358869D01*
X66433096Y-98379065D01*
X66433100Y-98379065D01*
X66433104Y-98379065D01*
X66612349Y-98358869D01*
X66612352Y-98358868D01*
X66612355Y-98358868D01*
X66782622Y-98299289D01*
X66935362Y-98203316D01*
X67062916Y-98075762D01*
X67158889Y-97923022D01*
X67218468Y-97752755D01*
X67218469Y-97752749D01*
X67238665Y-97573503D01*
X67238665Y-97573496D01*
X67218469Y-97394250D01*
X67218468Y-97394245D01*
X67188305Y-97308045D01*
X67158889Y-97223978D01*
X67062916Y-97071238D01*
X66935362Y-96943684D01*
X66902444Y-96923000D01*
X66782621Y-96847710D01*
X66612349Y-96788130D01*
X66525431Y-96778337D01*
X66461017Y-96751270D01*
X66451634Y-96742798D01*
X59636619Y-89927783D01*
X59603134Y-89866460D01*
X59600300Y-89840102D01*
X59600300Y-88724499D01*
X59619985Y-88657460D01*
X59672789Y-88611705D01*
X59724300Y-88600499D01*
X60947871Y-88600499D01*
X60947872Y-88600499D01*
X61007483Y-88594091D01*
X61142331Y-88543796D01*
X61236363Y-88473402D01*
X61301825Y-88448986D01*
X61370098Y-88463837D01*
X61398353Y-88484988D01*
X65026584Y-92113220D01*
X65026586Y-92113221D01*
X65026590Y-92113224D01*
X65078473Y-92143178D01*
X65163516Y-92192277D01*
X65316243Y-92233201D01*
X65316245Y-92233201D01*
X65409232Y-92233201D01*
X65476271Y-92252886D01*
X65522026Y-92305690D01*
X65532452Y-92343318D01*
X65546730Y-92470049D01*
X65546731Y-92470054D01*
X65606311Y-92640323D01*
X65655430Y-92718495D01*
X65702284Y-92793062D01*
X65829838Y-92920616D01*
X65933669Y-92985857D01*
X65979960Y-93038192D01*
X65990608Y-93107245D01*
X65962233Y-93171094D01*
X65933676Y-93195840D01*
X65928044Y-93199379D01*
X65928037Y-93199384D01*
X65800484Y-93326937D01*
X65704511Y-93479676D01*
X65644931Y-93649945D01*
X65644930Y-93649950D01*
X65624735Y-93829196D01*
X65624735Y-93829203D01*
X65644930Y-94008449D01*
X65644931Y-94008454D01*
X65704511Y-94178723D01*
X65800484Y-94331462D01*
X65928038Y-94459016D01*
X65975049Y-94488555D01*
X66062932Y-94543776D01*
X66080778Y-94554989D01*
X66216362Y-94602432D01*
X66251045Y-94614568D01*
X66251050Y-94614569D01*
X66430296Y-94634765D01*
X66430300Y-94634765D01*
X66430304Y-94634765D01*
X66609549Y-94614569D01*
X66609552Y-94614568D01*
X66609555Y-94614568D01*
X66779822Y-94554989D01*
X66932562Y-94459016D01*
X67060116Y-94331462D01*
X67156089Y-94178722D01*
X67215668Y-94008455D01*
X67215669Y-94008449D01*
X67235865Y-93829203D01*
X67235865Y-93829196D01*
X67215669Y-93649950D01*
X67215668Y-93649945D01*
X67156088Y-93479675D01*
X67125445Y-93430908D01*
X67106444Y-93363671D01*
X67126811Y-93296836D01*
X67180079Y-93251621D01*
X67249335Y-93242383D01*
X67312592Y-93272055D01*
X67318119Y-93277254D01*
X70801639Y-96760774D01*
X70801649Y-96760785D01*
X70805979Y-96765115D01*
X70805980Y-96765116D01*
X70917784Y-96876920D01*
X70997598Y-96923000D01*
X71054715Y-96955977D01*
X71207443Y-96996900D01*
X90832307Y-96996900D01*
X90899346Y-97016585D01*
X90945101Y-97069389D01*
X90955527Y-97134786D01*
X90953835Y-97149800D01*
X90953835Y-97149803D01*
X90959177Y-97197217D01*
X90947122Y-97266039D01*
X90899773Y-97317418D01*
X90835957Y-97335100D01*
X69726412Y-97335100D01*
X69659373Y-97315415D01*
X69649097Y-97308045D01*
X69646263Y-97305785D01*
X69646262Y-97305784D01*
X69583008Y-97266039D01*
X69493523Y-97209811D01*
X69323254Y-97150231D01*
X69323249Y-97150230D01*
X69144004Y-97130035D01*
X69143996Y-97130035D01*
X68964750Y-97150230D01*
X68964745Y-97150231D01*
X68794476Y-97209811D01*
X68641737Y-97305784D01*
X68514184Y-97433337D01*
X68418211Y-97586076D01*
X68358631Y-97756345D01*
X68358630Y-97756350D01*
X68338435Y-97935596D01*
X68338435Y-97935603D01*
X68358630Y-98114849D01*
X68358631Y-98114854D01*
X68418211Y-98285123D01*
X68477239Y-98379065D01*
X68514184Y-98437862D01*
X68641738Y-98565416D01*
X68788741Y-98657784D01*
X68794478Y-98661389D01*
X68922706Y-98706258D01*
X68979483Y-98746980D01*
X68998794Y-98782346D01*
X69038710Y-98896421D01*
X69066264Y-98940272D01*
X69134684Y-99049162D01*
X69262238Y-99176716D01*
X69414978Y-99272689D01*
X69585245Y-99332268D01*
X69585250Y-99332269D01*
X69764496Y-99352465D01*
X69764500Y-99352465D01*
X69764504Y-99352465D01*
X69943749Y-99332269D01*
X69943752Y-99332268D01*
X69943755Y-99332268D01*
X70114022Y-99272689D01*
X70266762Y-99176716D01*
X70266767Y-99176710D01*
X70269597Y-99174455D01*
X70271775Y-99173565D01*
X70272658Y-99173011D01*
X70272755Y-99173165D01*
X70334283Y-99148045D01*
X70346912Y-99147400D01*
X74031703Y-99147400D01*
X74098742Y-99167085D01*
X74144497Y-99219889D01*
X74154441Y-99289047D01*
X74125416Y-99352603D01*
X74119384Y-99359081D01*
X70209765Y-103268698D01*
X70148442Y-103302183D01*
X70135968Y-103304237D01*
X70049050Y-103314030D01*
X69878778Y-103373610D01*
X69726037Y-103469584D01*
X69598484Y-103597137D01*
X69502511Y-103749876D01*
X69442931Y-103920145D01*
X69442930Y-103920150D01*
X69422735Y-104099396D01*
X69422735Y-104099403D01*
X69442930Y-104278649D01*
X69442931Y-104278654D01*
X69502511Y-104448923D01*
X69551733Y-104527259D01*
X69598484Y-104601662D01*
X69726038Y-104729216D01*
X69816380Y-104785982D01*
X69842162Y-104802182D01*
X69878778Y-104825189D01*
X69898846Y-104832211D01*
X70049045Y-104884768D01*
X70049050Y-104884769D01*
X70228296Y-104904965D01*
X70228300Y-104904965D01*
X70228304Y-104904965D01*
X70407549Y-104884769D01*
X70407552Y-104884768D01*
X70407555Y-104884768D01*
X70577822Y-104825189D01*
X70730562Y-104729216D01*
X70858116Y-104601662D01*
X70954089Y-104448922D01*
X71013668Y-104278655D01*
X71023461Y-104191729D01*
X71050526Y-104127318D01*
X71058990Y-104117943D01*
X73079780Y-102097153D01*
X73141101Y-102063670D01*
X73210793Y-102068654D01*
X73266726Y-102110526D01*
X73284500Y-102143880D01*
X73304809Y-102201920D01*
X73373998Y-102312032D01*
X73400784Y-102354662D01*
X73528338Y-102482216D01*
X73681078Y-102578189D01*
X73851345Y-102637768D01*
X73853346Y-102638468D01*
X73910122Y-102679190D01*
X73935869Y-102744143D01*
X73922413Y-102812704D01*
X73900072Y-102843191D01*
X73674165Y-103069098D01*
X73612842Y-103102583D01*
X73600368Y-103104637D01*
X73513450Y-103114430D01*
X73343178Y-103174010D01*
X73190437Y-103269984D01*
X73062884Y-103397537D01*
X72966911Y-103550276D01*
X72907331Y-103720545D01*
X72907330Y-103720550D01*
X72887135Y-103899796D01*
X72887135Y-103899803D01*
X72907330Y-104079049D01*
X72907331Y-104079054D01*
X72966911Y-104249323D01*
X73023587Y-104339522D01*
X73062884Y-104402062D01*
X73109619Y-104448797D01*
X73146898Y-104486076D01*
X73180382Y-104547400D01*
X73176258Y-104614711D01*
X73133732Y-104736242D01*
X73133730Y-104736250D01*
X73113535Y-104915496D01*
X73113535Y-104915503D01*
X73133730Y-105094749D01*
X73133731Y-105094754D01*
X73193311Y-105265023D01*
X73250265Y-105355664D01*
X73269265Y-105422901D01*
X73262313Y-105462589D01*
X73232831Y-105546845D01*
X73232831Y-105546846D01*
X73212635Y-105726095D01*
X73212635Y-105726097D01*
X73212635Y-105726100D01*
X73213892Y-105737254D01*
X73221157Y-105801740D01*
X73209101Y-105870562D01*
X73185618Y-105903303D01*
X73061183Y-106027739D01*
X72965211Y-106180476D01*
X72905631Y-106350745D01*
X72905630Y-106350750D01*
X72885435Y-106529996D01*
X72885435Y-106530003D01*
X72905630Y-106709249D01*
X72905631Y-106709254D01*
X72965211Y-106879523D01*
X73061184Y-107032262D01*
X73110541Y-107081619D01*
X73144026Y-107142942D01*
X73139042Y-107212634D01*
X73110541Y-107256981D01*
X73069784Y-107297737D01*
X72973811Y-107450476D01*
X72914231Y-107620745D01*
X72914230Y-107620750D01*
X72894035Y-107799996D01*
X72894035Y-107800003D01*
X72914230Y-107979249D01*
X72914231Y-107979254D01*
X72958722Y-108106400D01*
X72973811Y-108149522D01*
X73029782Y-108238600D01*
X73030656Y-108239990D01*
X73049656Y-108307226D01*
X73030656Y-108371934D01*
X72970811Y-108467176D01*
X72911231Y-108637445D01*
X72911230Y-108637450D01*
X72891035Y-108816696D01*
X72891035Y-108816703D01*
X72911230Y-108995949D01*
X72911232Y-108995957D01*
X72943026Y-109086819D01*
X72946587Y-109156598D01*
X72913668Y-109215452D01*
X72881785Y-109247336D01*
X72785811Y-109400076D01*
X72726231Y-109570345D01*
X72726230Y-109570350D01*
X72706035Y-109749596D01*
X72706035Y-109749603D01*
X72726230Y-109928849D01*
X72726231Y-109928854D01*
X72785811Y-110099123D01*
X72881784Y-110251862D01*
X72900950Y-110271028D01*
X72934435Y-110332351D01*
X72930311Y-110399663D01*
X72894032Y-110503342D01*
X72894030Y-110503350D01*
X72873835Y-110682596D01*
X72873835Y-110682603D01*
X72894030Y-110861849D01*
X72894031Y-110861854D01*
X72953611Y-111032123D01*
X73032530Y-111157721D01*
X73049584Y-111184862D01*
X73177138Y-111312416D01*
X73329878Y-111408389D01*
X73500130Y-111467962D01*
X73556905Y-111508684D01*
X73582653Y-111573636D01*
X73569197Y-111642198D01*
X73520810Y-111692601D01*
X73500130Y-111702046D01*
X73344476Y-111756511D01*
X73191734Y-111852486D01*
X73186290Y-111856828D01*
X73184583Y-111854688D01*
X73134134Y-111882208D01*
X73064444Y-111877193D01*
X73020147Y-111848711D01*
X71636219Y-110464783D01*
X71602734Y-110403460D01*
X71599900Y-110377102D01*
X71599900Y-110275360D01*
X71599901Y-110275347D01*
X71599901Y-110107244D01*
X71599901Y-110107243D01*
X71558977Y-109954516D01*
X71542914Y-109926694D01*
X71479924Y-109817590D01*
X71479918Y-109817582D01*
X70644989Y-108982653D01*
X70611504Y-108921330D01*
X70616488Y-108851638D01*
X70658360Y-108795705D01*
X70666684Y-108789987D01*
X70752262Y-108736216D01*
X70879816Y-108608662D01*
X70975789Y-108455922D01*
X71035368Y-108285655D01*
X71035369Y-108285649D01*
X71055565Y-108106403D01*
X71055565Y-108106396D01*
X71035369Y-107927150D01*
X71035368Y-107927145D01*
X71006654Y-107845085D01*
X70975789Y-107756878D01*
X70962883Y-107736339D01*
X70879815Y-107604137D01*
X70856209Y-107580531D01*
X70822724Y-107519208D01*
X70827708Y-107449516D01*
X70853423Y-107409503D01*
X70853175Y-107409305D01*
X70855111Y-107406877D01*
X70856209Y-107405169D01*
X70857516Y-107403862D01*
X70953489Y-107251122D01*
X71013068Y-107080855D01*
X71013069Y-107080849D01*
X71033265Y-106901603D01*
X71033265Y-106901596D01*
X71013069Y-106722350D01*
X71013068Y-106722345D01*
X71008487Y-106709254D01*
X70953489Y-106552078D01*
X70949043Y-106545003D01*
X70857515Y-106399337D01*
X70729962Y-106271784D01*
X70577223Y-106175811D01*
X70406954Y-106116231D01*
X70406949Y-106116230D01*
X70227704Y-106096035D01*
X70227696Y-106096035D01*
X70048450Y-106116230D01*
X70048445Y-106116231D01*
X69878176Y-106175811D01*
X69725437Y-106271784D01*
X69597884Y-106399337D01*
X69501911Y-106552076D01*
X69442331Y-106722345D01*
X69442330Y-106722350D01*
X69422135Y-106901596D01*
X69422135Y-106901603D01*
X69442330Y-107080849D01*
X69442331Y-107080854D01*
X69501911Y-107251123D01*
X69597884Y-107403862D01*
X69621491Y-107427469D01*
X69654976Y-107488792D01*
X69649992Y-107558484D01*
X69624276Y-107598496D01*
X69624525Y-107598695D01*
X69622588Y-107601122D01*
X69621491Y-107602831D01*
X69620184Y-107604137D01*
X69566421Y-107689701D01*
X69514086Y-107735992D01*
X69445032Y-107746640D01*
X69381184Y-107718265D01*
X69373746Y-107711410D01*
X66858690Y-105196355D01*
X66858688Y-105196352D01*
X66739817Y-105077481D01*
X66739816Y-105077480D01*
X66636235Y-105017678D01*
X66636234Y-105017677D01*
X66602883Y-104998422D01*
X66546981Y-104983443D01*
X66450157Y-104957499D01*
X66292043Y-104957499D01*
X66284447Y-104957499D01*
X66284431Y-104957500D01*
X61609312Y-104957500D01*
X61542273Y-104937815D01*
X61531997Y-104930445D01*
X61529163Y-104928185D01*
X61529162Y-104928184D01*
X61472396Y-104892515D01*
X61376423Y-104832211D01*
X61206154Y-104772631D01*
X61206149Y-104772630D01*
X61026904Y-104752435D01*
X61026896Y-104752435D01*
X60847650Y-104772630D01*
X60847645Y-104772631D01*
X60677376Y-104832211D01*
X60524637Y-104928184D01*
X60397084Y-105055737D01*
X60301111Y-105208476D01*
X60241531Y-105378745D01*
X60241530Y-105378750D01*
X60221335Y-105557996D01*
X60221335Y-105558003D01*
X60241530Y-105737249D01*
X60241531Y-105737254D01*
X60301111Y-105907523D01*
X60372626Y-106021337D01*
X60397084Y-106060262D01*
X60524638Y-106187816D01*
X60614980Y-106244582D01*
X60661531Y-106273832D01*
X60677378Y-106283789D01*
X60779720Y-106319600D01*
X60847645Y-106343368D01*
X60847650Y-106343369D01*
X61026896Y-106363565D01*
X61026900Y-106363565D01*
X61026904Y-106363565D01*
X61206149Y-106343369D01*
X61206152Y-106343368D01*
X61206155Y-106343368D01*
X61376422Y-106283789D01*
X61529162Y-106187816D01*
X61529167Y-106187810D01*
X61531997Y-106185555D01*
X61534175Y-106184665D01*
X61535058Y-106184111D01*
X61535155Y-106184265D01*
X61596683Y-106159145D01*
X61609312Y-106158500D01*
X66071003Y-106158500D01*
X66138042Y-106178185D01*
X66158684Y-106194819D01*
X69619811Y-109655946D01*
X69653296Y-109717269D01*
X69648312Y-109786961D01*
X69619819Y-109831301D01*
X69613386Y-109837734D01*
X69517411Y-109990476D01*
X69457831Y-110160745D01*
X69457830Y-110160750D01*
X69437635Y-110339996D01*
X69437635Y-110340003D01*
X69457830Y-110519249D01*
X69457831Y-110519254D01*
X69517411Y-110689523D01*
X69573431Y-110778678D01*
X69613384Y-110842262D01*
X69740938Y-110969816D01*
X69781152Y-110995084D01*
X69892065Y-111064776D01*
X69893678Y-111065789D01*
X70007197Y-111105511D01*
X70063945Y-111125368D01*
X70063950Y-111125369D01*
X70243196Y-111145565D01*
X70243200Y-111145565D01*
X70243204Y-111145565D01*
X70422448Y-111125369D01*
X70422448Y-111125368D01*
X70422455Y-111125368D01*
X70479203Y-111105510D01*
X70548976Y-111101948D01*
X70607835Y-111134871D01*
X70637749Y-111164785D01*
X70637755Y-111164790D01*
X70721784Y-111248819D01*
X70755269Y-111310142D01*
X70750285Y-111379834D01*
X70708413Y-111435767D01*
X70642949Y-111460184D01*
X70634103Y-111460500D01*
X67352465Y-111460500D01*
X67285426Y-111440815D01*
X67239671Y-111388011D01*
X67230972Y-111348024D01*
X67229245Y-111348219D01*
X67208269Y-111162050D01*
X67208268Y-111162045D01*
X67195690Y-111126099D01*
X67148689Y-110991778D01*
X67146189Y-110987800D01*
X67077450Y-110878402D01*
X67052716Y-110839038D01*
X66992356Y-110778678D01*
X66958871Y-110717355D01*
X66963855Y-110647663D01*
X67005727Y-110591730D01*
X67071191Y-110567313D01*
X67093916Y-110567776D01*
X67135793Y-110572495D01*
X67144399Y-110573465D01*
X67144400Y-110573465D01*
X67144404Y-110573465D01*
X67323649Y-110553269D01*
X67323652Y-110553268D01*
X67323655Y-110553268D01*
X67493922Y-110493689D01*
X67646662Y-110397716D01*
X67774216Y-110270162D01*
X67870189Y-110117422D01*
X67929768Y-109947155D01*
X67931992Y-109927419D01*
X67949965Y-109767903D01*
X67949965Y-109767896D01*
X67929769Y-109588650D01*
X67929768Y-109588645D01*
X67912498Y-109539289D01*
X67870189Y-109418378D01*
X67858690Y-109400078D01*
X67818427Y-109336000D01*
X67774216Y-109265638D01*
X67646662Y-109138084D01*
X67605944Y-109112499D01*
X67493923Y-109042111D01*
X67323654Y-108982531D01*
X67323649Y-108982530D01*
X67144404Y-108962335D01*
X67144396Y-108962335D01*
X66965150Y-108982530D01*
X66965145Y-108982531D01*
X66794876Y-109042111D01*
X66642137Y-109138084D01*
X66514584Y-109265637D01*
X66418611Y-109418376D01*
X66359031Y-109588645D01*
X66359030Y-109588650D01*
X66338835Y-109767896D01*
X66338835Y-109767903D01*
X66359030Y-109947149D01*
X66359031Y-109947154D01*
X66418611Y-110117423D01*
X66514584Y-110270162D01*
X66574943Y-110330521D01*
X66608428Y-110391844D01*
X66603444Y-110461536D01*
X66561572Y-110517469D01*
X66496108Y-110541886D01*
X66473379Y-110541422D01*
X66422904Y-110535735D01*
X66422896Y-110535735D01*
X66243650Y-110555930D01*
X66243645Y-110555931D01*
X66073376Y-110615511D01*
X65920637Y-110711484D01*
X65793084Y-110839037D01*
X65697111Y-110991776D01*
X65637531Y-111162045D01*
X65637530Y-111162050D01*
X65616555Y-111348219D01*
X65613979Y-111347928D01*
X65597650Y-111403539D01*
X65544846Y-111449294D01*
X65493335Y-111460500D01*
X63806440Y-111460500D01*
X63739401Y-111440815D01*
X63718759Y-111424181D01*
X63592262Y-111297684D01*
X63439523Y-111201711D01*
X63269254Y-111142131D01*
X63269249Y-111142130D01*
X63090004Y-111121935D01*
X63089996Y-111121935D01*
X62910750Y-111142130D01*
X62910745Y-111142131D01*
X62733905Y-111204011D01*
X62733353Y-111202434D01*
X62672947Y-111212375D01*
X62608816Y-111184645D01*
X62569856Y-111126646D01*
X62564100Y-111089304D01*
X62564100Y-110548059D01*
X62564101Y-110548046D01*
X62564101Y-110379945D01*
X62564101Y-110379943D01*
X62523177Y-110227215D01*
X62474738Y-110143317D01*
X62444120Y-110090284D01*
X62332316Y-109978480D01*
X62332315Y-109978479D01*
X62327985Y-109974149D01*
X62327974Y-109974139D01*
X61849500Y-109495665D01*
X61816015Y-109434342D01*
X61813963Y-109421886D01*
X61804168Y-109334945D01*
X61744589Y-109164678D01*
X61648616Y-109011938D01*
X61521062Y-108884384D01*
X61519650Y-108883497D01*
X61368323Y-108788411D01*
X61198054Y-108728831D01*
X61198049Y-108728830D01*
X61120517Y-108720095D01*
X61056103Y-108693029D01*
X61016547Y-108635434D01*
X61010400Y-108596875D01*
X61010400Y-108513897D01*
X61030085Y-108446858D01*
X61046719Y-108426216D01*
X61048335Y-108424600D01*
X61109658Y-108391115D01*
X61122115Y-108389063D01*
X61209055Y-108379268D01*
X61379322Y-108319689D01*
X61532062Y-108223716D01*
X61659616Y-108096162D01*
X61755589Y-107943422D01*
X61815168Y-107773155D01*
X61817002Y-107756878D01*
X61835365Y-107593903D01*
X61835365Y-107593896D01*
X61815169Y-107414650D01*
X61815168Y-107414645D01*
X61759582Y-107255789D01*
X61755589Y-107244378D01*
X61659616Y-107091638D01*
X61532062Y-106964084D01*
X61507520Y-106948663D01*
X61379323Y-106868111D01*
X61209054Y-106808531D01*
X61209049Y-106808530D01*
X61029804Y-106788335D01*
X61029796Y-106788335D01*
X60850550Y-106808530D01*
X60850545Y-106808531D01*
X60680276Y-106868111D01*
X60527537Y-106964084D01*
X60399984Y-107091637D01*
X60304010Y-107244378D01*
X60244430Y-107414650D01*
X60234637Y-107501568D01*
X60207570Y-107565982D01*
X60199099Y-107575365D01*
X60041186Y-107733278D01*
X59929381Y-107845082D01*
X59929379Y-107845085D01*
X59913012Y-107873434D01*
X59882003Y-107927145D01*
X59879884Y-107930815D01*
X59879882Y-107930817D01*
X59850325Y-107982009D01*
X59850324Y-107982010D01*
X59850323Y-107982015D01*
X59809399Y-108134743D01*
X59809399Y-108134745D01*
X59809399Y-108302846D01*
X59809400Y-108302859D01*
X59809400Y-110421103D01*
X59789715Y-110488142D01*
X59736911Y-110533897D01*
X59667753Y-110543841D01*
X59604197Y-110514816D01*
X59597719Y-110508784D01*
X59011819Y-109922884D01*
X58978334Y-109861561D01*
X58975500Y-109835203D01*
X58975500Y-108782412D01*
X58995185Y-108715373D01*
X59002555Y-108705097D01*
X59004810Y-108702267D01*
X59004816Y-108702262D01*
X59100789Y-108549522D01*
X59160368Y-108379255D01*
X59160369Y-108379249D01*
X59180565Y-108200003D01*
X59180565Y-108199996D01*
X59160369Y-108020750D01*
X59160368Y-108020745D01*
X59146087Y-107979932D01*
X59100789Y-107850478D01*
X59097400Y-107845085D01*
X59032891Y-107742419D01*
X59004816Y-107697738D01*
X58877262Y-107570184D01*
X58798350Y-107520600D01*
X58724523Y-107474211D01*
X58554254Y-107414631D01*
X58554249Y-107414630D01*
X58460617Y-107404081D01*
X58396203Y-107377015D01*
X58356647Y-107319420D01*
X58350500Y-107280861D01*
X58350500Y-105559036D01*
X58370185Y-105491997D01*
X58386810Y-105471364D01*
X58500220Y-105357953D01*
X58561539Y-105324471D01*
X58573995Y-105322419D01*
X58660939Y-105312624D01*
X58831206Y-105253045D01*
X58983946Y-105157072D01*
X59111500Y-105029518D01*
X59207473Y-104876778D01*
X59267052Y-104706511D01*
X59275933Y-104627691D01*
X59287249Y-104527259D01*
X59287249Y-104527252D01*
X59267053Y-104348006D01*
X59267052Y-104348001D01*
X59242785Y-104278649D01*
X59207473Y-104177734D01*
X59202145Y-104169255D01*
X59122471Y-104042454D01*
X59111500Y-104024994D01*
X58983946Y-103897440D01*
X58930224Y-103863684D01*
X58831207Y-103801467D01*
X58660938Y-103741887D01*
X58660933Y-103741886D01*
X58481688Y-103721691D01*
X58481680Y-103721691D01*
X58302434Y-103741886D01*
X58302429Y-103741887D01*
X58132160Y-103801467D01*
X57979421Y-103897440D01*
X57851868Y-104024993D01*
X57755894Y-104177734D01*
X57741542Y-104218752D01*
X57700820Y-104275528D01*
X57635868Y-104301276D01*
X57567306Y-104287820D01*
X57516903Y-104239433D01*
X57500500Y-104177798D01*
X57500500Y-84939496D01*
X87633935Y-84939496D01*
X87633935Y-84939503D01*
X87654130Y-85118749D01*
X87654131Y-85118754D01*
X87713711Y-85289023D01*
X87725719Y-85308133D01*
X87809684Y-85441762D01*
X87937238Y-85569316D01*
X87999481Y-85608426D01*
X88048333Y-85639122D01*
X88089978Y-85665289D01*
X88217423Y-85709884D01*
X88260245Y-85724868D01*
X88260250Y-85724869D01*
X88439496Y-85745065D01*
X88439500Y-85745065D01*
X88439504Y-85745065D01*
X88618749Y-85724869D01*
X88618752Y-85724868D01*
X88618755Y-85724868D01*
X88789022Y-85665289D01*
X88941762Y-85569316D01*
X89069316Y-85441762D01*
X89165289Y-85289022D01*
X89224868Y-85118755D01*
X89245065Y-84939500D01*
X89244961Y-84938578D01*
X89224869Y-84760250D01*
X89224868Y-84760245D01*
X89191387Y-84664561D01*
X89165289Y-84589978D01*
X89156189Y-84575496D01*
X89069315Y-84437237D01*
X88941762Y-84309684D01*
X88789023Y-84213711D01*
X88618754Y-84154131D01*
X88618749Y-84154130D01*
X88439504Y-84133935D01*
X88439496Y-84133935D01*
X88260250Y-84154130D01*
X88260245Y-84154131D01*
X88089976Y-84213711D01*
X87937237Y-84309684D01*
X87809684Y-84437237D01*
X87713711Y-84589976D01*
X87654131Y-84760245D01*
X87654130Y-84760250D01*
X87633935Y-84939496D01*
X57500500Y-84939496D01*
X57500500Y-75952596D01*
X74455735Y-75952596D01*
X74455735Y-75952603D01*
X74475930Y-76131849D01*
X74475931Y-76131854D01*
X74535511Y-76302123D01*
X74542638Y-76313465D01*
X74631484Y-76454862D01*
X74759038Y-76582416D01*
X74911778Y-76678389D01*
X75082045Y-76737968D01*
X75082050Y-76737969D01*
X75261296Y-76758165D01*
X75261300Y-76758165D01*
X75261304Y-76758165D01*
X75440549Y-76737969D01*
X75440552Y-76737968D01*
X75440555Y-76737968D01*
X75610822Y-76678389D01*
X75763562Y-76582416D01*
X75891116Y-76454862D01*
X75987089Y-76302122D01*
X76046668Y-76131855D01*
X76055136Y-76056700D01*
X76066865Y-75952603D01*
X76066865Y-75952596D01*
X76046669Y-75773350D01*
X76046668Y-75773345D01*
X76037915Y-75748331D01*
X75987089Y-75603078D01*
X75982611Y-75595952D01*
X75931833Y-75515139D01*
X75891116Y-75450338D01*
X75763562Y-75322784D01*
X75610823Y-75226811D01*
X75440554Y-75167231D01*
X75440549Y-75167230D01*
X75261304Y-75147035D01*
X75261296Y-75147035D01*
X75082050Y-75167230D01*
X75082045Y-75167231D01*
X74911776Y-75226811D01*
X74759037Y-75322784D01*
X74631484Y-75450337D01*
X74535511Y-75603076D01*
X74475931Y-75773345D01*
X74475930Y-75773350D01*
X74455735Y-75952596D01*
X57500500Y-75952596D01*
X57500500Y-74950796D01*
X79084635Y-74950796D01*
X79084635Y-74950803D01*
X79104830Y-75130049D01*
X79104831Y-75130054D01*
X79164411Y-75300323D01*
X79182262Y-75328732D01*
X79260384Y-75453062D01*
X79387938Y-75580616D01*
X79540678Y-75676589D01*
X79710945Y-75736168D01*
X79710950Y-75736169D01*
X79890196Y-75756365D01*
X79890200Y-75756365D01*
X79890204Y-75756365D01*
X80069449Y-75736169D01*
X80069452Y-75736168D01*
X80069455Y-75736168D01*
X80239722Y-75676589D01*
X80392462Y-75580616D01*
X80520016Y-75453062D01*
X80615989Y-75300322D01*
X80675568Y-75130055D01*
X80676440Y-75122317D01*
X80695765Y-74950803D01*
X80695765Y-74950796D01*
X80675569Y-74771550D01*
X80675568Y-74771545D01*
X80675027Y-74770000D01*
X80615989Y-74601278D01*
X80612661Y-74595982D01*
X80565928Y-74521606D01*
X80520016Y-74448538D01*
X80392462Y-74320984D01*
X80364253Y-74303259D01*
X80239723Y-74225011D01*
X80069454Y-74165431D01*
X80069449Y-74165430D01*
X79890204Y-74145235D01*
X79890196Y-74145235D01*
X79710950Y-74165430D01*
X79710945Y-74165431D01*
X79540676Y-74225011D01*
X79387937Y-74320984D01*
X79260384Y-74448537D01*
X79164411Y-74601276D01*
X79104831Y-74771545D01*
X79104830Y-74771550D01*
X79084635Y-74950796D01*
X57500500Y-74950796D01*
X57500500Y-73907196D01*
X76189135Y-73907196D01*
X76189135Y-73907203D01*
X76209330Y-74086449D01*
X76209331Y-74086454D01*
X76268911Y-74256723D01*
X76364884Y-74409462D01*
X76492438Y-74537016D01*
X76645178Y-74632989D01*
X76768099Y-74676001D01*
X76815445Y-74692568D01*
X76815450Y-74692569D01*
X76994696Y-74712765D01*
X76994700Y-74712765D01*
X76994704Y-74712765D01*
X77173949Y-74692569D01*
X77173952Y-74692568D01*
X77173955Y-74692568D01*
X77344222Y-74632989D01*
X77496962Y-74537016D01*
X77624516Y-74409462D01*
X77720489Y-74256722D01*
X77780068Y-74086455D01*
X77790941Y-73989955D01*
X77800265Y-73907203D01*
X77800265Y-73907196D01*
X77780069Y-73727950D01*
X77780068Y-73727945D01*
X77762806Y-73678613D01*
X77720489Y-73557678D01*
X77712794Y-73545432D01*
X77624515Y-73404937D01*
X77496962Y-73277384D01*
X77344223Y-73181411D01*
X77173954Y-73121831D01*
X77173949Y-73121830D01*
X76994704Y-73101635D01*
X76994696Y-73101635D01*
X76815450Y-73121830D01*
X76815445Y-73121831D01*
X76645176Y-73181411D01*
X76492437Y-73277384D01*
X76364884Y-73404937D01*
X76268911Y-73557676D01*
X76209331Y-73727945D01*
X76209330Y-73727950D01*
X76189135Y-73907196D01*
X57500500Y-73907196D01*
X57500500Y-72999996D01*
X64675435Y-72999996D01*
X64675435Y-73000003D01*
X64695630Y-73179249D01*
X64695631Y-73179254D01*
X64755211Y-73349523D01*
X64790031Y-73404938D01*
X64851184Y-73502262D01*
X64978738Y-73629816D01*
X65131478Y-73725789D01*
X65301745Y-73785368D01*
X65301750Y-73785369D01*
X65480996Y-73805565D01*
X65481000Y-73805565D01*
X65481004Y-73805565D01*
X65660249Y-73785369D01*
X65660252Y-73785368D01*
X65660255Y-73785368D01*
X65830522Y-73725789D01*
X65983262Y-73629816D01*
X66110816Y-73502262D01*
X66206789Y-73349522D01*
X66266368Y-73179255D01*
X66266369Y-73179249D01*
X66286565Y-73000003D01*
X66286565Y-72999996D01*
X66266369Y-72820750D01*
X66266368Y-72820745D01*
X66235654Y-72732970D01*
X66206789Y-72650478D01*
X66206000Y-72649223D01*
X66110815Y-72497737D01*
X65983262Y-72370184D01*
X65830523Y-72274211D01*
X65660254Y-72214631D01*
X65660249Y-72214630D01*
X65481004Y-72194435D01*
X65480996Y-72194435D01*
X65301750Y-72214630D01*
X65301745Y-72214631D01*
X65131476Y-72274211D01*
X64978737Y-72370184D01*
X64851184Y-72497737D01*
X64755211Y-72650476D01*
X64695631Y-72820745D01*
X64695630Y-72820750D01*
X64675435Y-72999996D01*
X57500500Y-72999996D01*
X57500500Y-68239994D01*
X59829556Y-68239994D01*
X59829556Y-68240005D01*
X59849310Y-68554004D01*
X59849311Y-68554011D01*
X59908270Y-68863083D01*
X60005497Y-69162316D01*
X60005499Y-69162321D01*
X60139461Y-69447003D01*
X60139464Y-69447009D01*
X60308051Y-69712661D01*
X60308054Y-69712665D01*
X60508606Y-69955090D01*
X60508608Y-69955092D01*
X60508610Y-69955094D01*
X60677454Y-70113649D01*
X60737968Y-70170476D01*
X60737978Y-70170484D01*
X60992504Y-70355408D01*
X60992509Y-70355410D01*
X60992516Y-70355416D01*
X61268234Y-70506994D01*
X61268239Y-70506996D01*
X61268241Y-70506997D01*
X61268242Y-70506998D01*
X61560771Y-70622818D01*
X61560774Y-70622819D01*
X61864499Y-70700802D01*
X61865527Y-70701066D01*
X61931010Y-70709338D01*
X62177670Y-70740499D01*
X62177679Y-70740499D01*
X62177682Y-70740500D01*
X62177684Y-70740500D01*
X62492316Y-70740500D01*
X62492318Y-70740500D01*
X62492321Y-70740499D01*
X62492329Y-70740499D01*
X62678593Y-70716968D01*
X62804473Y-70701066D01*
X63109225Y-70622819D01*
X63109228Y-70622818D01*
X63401757Y-70506998D01*
X63401758Y-70506997D01*
X63401756Y-70506997D01*
X63401766Y-70506994D01*
X63677484Y-70355416D01*
X63932030Y-70170478D01*
X64161390Y-69955094D01*
X64361947Y-69712663D01*
X64530537Y-69447007D01*
X64664503Y-69162315D01*
X64761731Y-68863079D01*
X64820688Y-68554015D01*
X64820689Y-68554004D01*
X64840444Y-68240005D01*
X64840444Y-68239994D01*
X64820689Y-67925995D01*
X64820688Y-67925988D01*
X64820688Y-67925985D01*
X64761731Y-67616921D01*
X64664503Y-67317685D01*
X64643345Y-67272723D01*
X64584495Y-67147659D01*
X64530537Y-67032993D01*
X64463106Y-66926738D01*
X64361948Y-66767338D01*
X64361945Y-66767334D01*
X64161393Y-66524909D01*
X64161391Y-66524907D01*
X64158527Y-66522217D01*
X63932030Y-66309522D01*
X63932027Y-66309520D01*
X63932021Y-66309515D01*
X63677495Y-66124591D01*
X63677488Y-66124586D01*
X63677484Y-66124584D01*
X63401766Y-65973006D01*
X63401763Y-65973004D01*
X63401758Y-65973002D01*
X63401757Y-65973001D01*
X63109228Y-65857181D01*
X63109225Y-65857180D01*
X62804476Y-65778934D01*
X62804463Y-65778932D01*
X62492329Y-65739500D01*
X62492318Y-65739500D01*
X62177682Y-65739500D01*
X62177670Y-65739500D01*
X61865536Y-65778932D01*
X61865523Y-65778934D01*
X61560774Y-65857180D01*
X61560771Y-65857181D01*
X61268242Y-65973001D01*
X61268241Y-65973002D01*
X60992516Y-66124584D01*
X60992504Y-66124591D01*
X60737978Y-66309515D01*
X60737968Y-66309523D01*
X60508608Y-66524907D01*
X60508606Y-66524909D01*
X60308054Y-66767334D01*
X60308051Y-66767338D01*
X60139464Y-67032990D01*
X60139461Y-67032996D01*
X60005499Y-67317678D01*
X60005497Y-67317683D01*
X59908270Y-67616916D01*
X59849311Y-67925988D01*
X59849310Y-67925995D01*
X59829556Y-68239994D01*
X57500500Y-68239994D01*
X57500500Y-61975999D01*
X112436341Y-61975999D01*
X112436341Y-61976000D01*
X112456936Y-62211403D01*
X112456938Y-62211413D01*
X112518094Y-62439655D01*
X112518096Y-62439659D01*
X112518097Y-62439663D01*
X112598004Y-62611023D01*
X112617965Y-62653830D01*
X112617967Y-62653834D01*
X112706606Y-62780423D01*
X112753505Y-62847401D01*
X112920599Y-63014495D01*
X113017384Y-63082265D01*
X113114165Y-63150032D01*
X113114167Y-63150033D01*
X113114170Y-63150035D01*
X113328337Y-63249903D01*
X113556592Y-63311063D01*
X113744918Y-63327539D01*
X113791999Y-63331659D01*
X113792000Y-63331659D01*
X113792001Y-63331659D01*
X113831234Y-63328226D01*
X114027408Y-63311063D01*
X114255663Y-63249903D01*
X114469830Y-63150035D01*
X114663401Y-63014495D01*
X114830495Y-62847401D01*
X114966035Y-62653830D01*
X115065903Y-62439663D01*
X115127063Y-62211408D01*
X115147659Y-61976000D01*
X115127063Y-61740592D01*
X115065903Y-61512337D01*
X114966035Y-61298171D01*
X114962231Y-61292739D01*
X114830496Y-61104600D01*
X114775896Y-61050000D01*
X114708179Y-60982283D01*
X114674696Y-60920963D01*
X114679680Y-60851271D01*
X114721551Y-60795337D01*
X114752529Y-60778422D01*
X114884086Y-60729354D01*
X114884093Y-60729350D01*
X114999187Y-60643190D01*
X114999190Y-60643187D01*
X115085350Y-60528093D01*
X115085354Y-60528086D01*
X115135596Y-60393379D01*
X115135598Y-60393372D01*
X115141999Y-60333844D01*
X115142000Y-60333827D01*
X115142000Y-59686000D01*
X114225012Y-59686000D01*
X114257925Y-59628993D01*
X114292000Y-59501826D01*
X114292000Y-59370174D01*
X114257925Y-59243007D01*
X114225012Y-59186000D01*
X115142000Y-59186000D01*
X115142000Y-58538172D01*
X115141999Y-58538155D01*
X115135598Y-58478627D01*
X115135596Y-58478620D01*
X115085354Y-58343913D01*
X115085350Y-58343906D01*
X114999190Y-58228812D01*
X114999187Y-58228809D01*
X114884093Y-58142649D01*
X114884086Y-58142645D01*
X114749379Y-58092403D01*
X114749372Y-58092401D01*
X114689844Y-58086000D01*
X114042000Y-58086000D01*
X114042000Y-59002988D01*
X113984993Y-58970075D01*
X113857826Y-58936000D01*
X113726174Y-58936000D01*
X113599007Y-58970075D01*
X113542000Y-59002988D01*
X113542000Y-58086000D01*
X112894155Y-58086000D01*
X112834627Y-58092401D01*
X112834620Y-58092403D01*
X112699913Y-58142645D01*
X112699906Y-58142649D01*
X112584812Y-58228809D01*
X112584809Y-58228812D01*
X112498649Y-58343906D01*
X112498645Y-58343913D01*
X112448403Y-58478620D01*
X112448401Y-58478627D01*
X112442000Y-58538155D01*
X112442000Y-59186000D01*
X113358988Y-59186000D01*
X113326075Y-59243007D01*
X113292000Y-59370174D01*
X113292000Y-59501826D01*
X113326075Y-59628993D01*
X113358988Y-59686000D01*
X112442000Y-59686000D01*
X112442000Y-60333844D01*
X112448401Y-60393372D01*
X112448403Y-60393379D01*
X112498645Y-60528086D01*
X112498649Y-60528093D01*
X112584809Y-60643187D01*
X112584812Y-60643190D01*
X112699906Y-60729350D01*
X112699913Y-60729354D01*
X112831470Y-60778421D01*
X112887403Y-60820292D01*
X112911821Y-60885756D01*
X112896970Y-60954029D01*
X112875819Y-60982284D01*
X112753503Y-61104600D01*
X112617965Y-61298169D01*
X112617964Y-61298171D01*
X112518098Y-61512335D01*
X112518094Y-61512344D01*
X112456938Y-61740586D01*
X112456936Y-61740596D01*
X112436341Y-61975999D01*
X57500500Y-61975999D01*
X57500500Y-57624500D01*
X57520185Y-57557461D01*
X57572989Y-57511706D01*
X57624500Y-57500500D01*
X134934108Y-57500500D01*
X142875500Y-57500500D01*
X142942539Y-57520185D01*
G37*
%TD.AperFunction*%
%TA.AperFunction,Conductor*%
G36*
X73395642Y-116383585D02*
G01*
X73416284Y-116400219D01*
X74597983Y-117581919D01*
X74631468Y-117643242D01*
X74626484Y-117712934D01*
X74584612Y-117768867D01*
X74519148Y-117793284D01*
X74510302Y-117793600D01*
X71038154Y-117793600D01*
X70971115Y-117773915D01*
X70933160Y-117735572D01*
X70906499Y-117693143D01*
X70877216Y-117646538D01*
X70749662Y-117518984D01*
X70732994Y-117508511D01*
X70596923Y-117423011D01*
X70426654Y-117363431D01*
X70426649Y-117363430D01*
X70247404Y-117343235D01*
X70247396Y-117343235D01*
X70068150Y-117363430D01*
X70068145Y-117363431D01*
X69897876Y-117423011D01*
X69745137Y-117518984D01*
X69617584Y-117646537D01*
X69521611Y-117799276D01*
X69462031Y-117969545D01*
X69462030Y-117969550D01*
X69441835Y-118148796D01*
X69441835Y-118148803D01*
X69462030Y-118328049D01*
X69462031Y-118328054D01*
X69521611Y-118498323D01*
X69617584Y-118651062D01*
X69745138Y-118778616D01*
X69897878Y-118874589D01*
X70068145Y-118934168D01*
X70068150Y-118934169D01*
X70254321Y-118955145D01*
X70254302Y-118955305D01*
X70279249Y-118958589D01*
X70413643Y-118994601D01*
X70413645Y-118994601D01*
X70579354Y-118994601D01*
X70579370Y-118994600D01*
X72623390Y-118994600D01*
X72690429Y-119014285D01*
X72736184Y-119067089D01*
X72746610Y-119132486D01*
X72745335Y-119143800D01*
X72745335Y-119143803D01*
X72765530Y-119323049D01*
X72765531Y-119323054D01*
X72825111Y-119493323D01*
X72911432Y-119630701D01*
X72921084Y-119646062D01*
X73048638Y-119773616D01*
X73138980Y-119830382D01*
X73156682Y-119841505D01*
X73201378Y-119869589D01*
X73371645Y-119929168D01*
X73458568Y-119938961D01*
X73520593Y-119965023D01*
X73520939Y-119964574D01*
X73522652Y-119965888D01*
X73522979Y-119966026D01*
X73523815Y-119966781D01*
X73527381Y-119969517D01*
X73527384Y-119969520D01*
X73527387Y-119969521D01*
X73527390Y-119969524D01*
X73664309Y-120048573D01*
X73664316Y-120048577D01*
X73817043Y-120089501D01*
X73817045Y-120089501D01*
X73982754Y-120089501D01*
X73982770Y-120089500D01*
X78068002Y-120089500D01*
X78135041Y-120109185D01*
X78180796Y-120161989D01*
X78190740Y-120231147D01*
X78161715Y-120294703D01*
X78155681Y-120301183D01*
X78132363Y-120324500D01*
X78071039Y-120357984D01*
X78058568Y-120360037D01*
X77971650Y-120369830D01*
X77801378Y-120429410D01*
X77648637Y-120525384D01*
X77521084Y-120652937D01*
X77425111Y-120805676D01*
X77365531Y-120975945D01*
X77365530Y-120975950D01*
X77345335Y-121155196D01*
X77345335Y-121155203D01*
X77365530Y-121334449D01*
X77365531Y-121334454D01*
X77425111Y-121504723D01*
X77496076Y-121617662D01*
X77521084Y-121657462D01*
X77648638Y-121785016D01*
X77801378Y-121880989D01*
X77908564Y-121918495D01*
X77971645Y-121940568D01*
X77971650Y-121940569D01*
X78150896Y-121960765D01*
X78150900Y-121960765D01*
X78150904Y-121960765D01*
X78330149Y-121940569D01*
X78330152Y-121940568D01*
X78330155Y-121940568D01*
X78500422Y-121880989D01*
X78653162Y-121785016D01*
X78780716Y-121657462D01*
X78876689Y-121504722D01*
X78936268Y-121334455D01*
X78946061Y-121247529D01*
X78973126Y-121183119D01*
X78981602Y-121173732D01*
X79030519Y-121124817D01*
X79091842Y-121091333D01*
X79118198Y-121088500D01*
X88202491Y-121088500D01*
X88269530Y-121108185D01*
X88315285Y-121160989D01*
X88325711Y-121198617D01*
X88336530Y-121294649D01*
X88336531Y-121294654D01*
X88396111Y-121464923D01*
X88490839Y-121615680D01*
X88492084Y-121617662D01*
X88619638Y-121745216D01*
X88682978Y-121785015D01*
X88750768Y-121827611D01*
X88772378Y-121841189D01*
X88898637Y-121885369D01*
X88942645Y-121900768D01*
X88942650Y-121900769D01*
X89121896Y-121920965D01*
X89121900Y-121920965D01*
X89121904Y-121920965D01*
X89301149Y-121900769D01*
X89301152Y-121900768D01*
X89301155Y-121900768D01*
X89471422Y-121841189D01*
X89624162Y-121745216D01*
X89751716Y-121617662D01*
X89847689Y-121464922D01*
X89907268Y-121294655D01*
X89909004Y-121279254D01*
X89918089Y-121198617D01*
X89945155Y-121134203D01*
X90002750Y-121094648D01*
X90041309Y-121088500D01*
X95604509Y-121088500D01*
X95671548Y-121108185D01*
X95717303Y-121160989D01*
X95727729Y-121198617D01*
X95739630Y-121304249D01*
X95739631Y-121304254D01*
X95799211Y-121474523D01*
X95889152Y-121617662D01*
X95895184Y-121627262D01*
X96022738Y-121754816D01*
X96095674Y-121800645D01*
X96160199Y-121841189D01*
X96175478Y-121850789D01*
X96261782Y-121880988D01*
X96345745Y-121910368D01*
X96345750Y-121910369D01*
X96524996Y-121930565D01*
X96525000Y-121930565D01*
X96525004Y-121930565D01*
X96704249Y-121910369D01*
X96704252Y-121910368D01*
X96704255Y-121910368D01*
X96874522Y-121850789D01*
X97027262Y-121754816D01*
X97045259Y-121736819D01*
X97106582Y-121703334D01*
X97132940Y-121700500D01*
X98517588Y-121700500D01*
X98584627Y-121720185D01*
X98594903Y-121727555D01*
X98597736Y-121729814D01*
X98597738Y-121729816D01*
X98750478Y-121825789D01*
X98821924Y-121850789D01*
X98920745Y-121885368D01*
X98920750Y-121885369D01*
X99099996Y-121905565D01*
X99100000Y-121905565D01*
X99100004Y-121905565D01*
X99279249Y-121885369D01*
X99279252Y-121885368D01*
X99279255Y-121885368D01*
X99449522Y-121825789D01*
X99602262Y-121729816D01*
X99729816Y-121602262D01*
X99825789Y-121449522D01*
X99885368Y-121279255D01*
X99885369Y-121279249D01*
X99894454Y-121198617D01*
X99921520Y-121134203D01*
X99979115Y-121094648D01*
X100017674Y-121088500D01*
X105033825Y-121088500D01*
X105095824Y-121105112D01*
X105131616Y-121125777D01*
X105284343Y-121166701D01*
X105284345Y-121166701D01*
X105450054Y-121166701D01*
X105450070Y-121166700D01*
X118621331Y-121166700D01*
X118621347Y-121166701D01*
X118628943Y-121166701D01*
X118787054Y-121166701D01*
X118787057Y-121166701D01*
X118939785Y-121125777D01*
X119025753Y-121076143D01*
X119076716Y-121046720D01*
X119188520Y-120934916D01*
X119188520Y-120934914D01*
X119198724Y-120924711D01*
X119198728Y-120924706D01*
X119349835Y-120773598D01*
X119411156Y-120740115D01*
X119423611Y-120738063D01*
X119510555Y-120728268D01*
X119680822Y-120668689D01*
X119833562Y-120572716D01*
X119961116Y-120445162D01*
X120057089Y-120292422D01*
X120116668Y-120122155D01*
X120116992Y-120119286D01*
X120124424Y-120053318D01*
X120151490Y-119988904D01*
X120209084Y-119949348D01*
X120247644Y-119943200D01*
X129184760Y-119943200D01*
X129251799Y-119962885D01*
X129272441Y-119979519D01*
X129322738Y-120029816D01*
X129413080Y-120086582D01*
X129469694Y-120122155D01*
X129475478Y-120125789D01*
X129558098Y-120154699D01*
X129645745Y-120185368D01*
X129645750Y-120185369D01*
X129824996Y-120205565D01*
X129825000Y-120205565D01*
X129825004Y-120205565D01*
X130004249Y-120185369D01*
X130004252Y-120185368D01*
X130004255Y-120185368D01*
X130174522Y-120125789D01*
X130327262Y-120029816D01*
X130454816Y-119902262D01*
X130529957Y-119782676D01*
X130582292Y-119736385D01*
X130651346Y-119725737D01*
X130715194Y-119754112D01*
X130722632Y-119760967D01*
X134746039Y-123784374D01*
X134746049Y-123784385D01*
X134750379Y-123788715D01*
X134750380Y-123788716D01*
X134839484Y-123877820D01*
X134872968Y-123939141D01*
X134867984Y-124008833D01*
X134826113Y-124064767D01*
X134760649Y-124089184D01*
X134751802Y-124089500D01*
X131088597Y-124089500D01*
X131021558Y-124069815D01*
X131000916Y-124053181D01*
X129878151Y-122930416D01*
X129844666Y-122869093D01*
X129849650Y-122799401D01*
X129891522Y-122743468D01*
X129899830Y-122737760D01*
X129952262Y-122704816D01*
X130079816Y-122577262D01*
X130175789Y-122424522D01*
X130235368Y-122254255D01*
X130241044Y-122203878D01*
X130255565Y-122075003D01*
X130255565Y-122074996D01*
X130235369Y-121895750D01*
X130235368Y-121895745D01*
X130190679Y-121768031D01*
X130175789Y-121725478D01*
X130079816Y-121572738D01*
X129952262Y-121445184D01*
X129907721Y-121417197D01*
X129799523Y-121349211D01*
X129629254Y-121289631D01*
X129629249Y-121289630D01*
X129450004Y-121269435D01*
X129449996Y-121269435D01*
X129270750Y-121289630D01*
X129270745Y-121289631D01*
X129100476Y-121349211D01*
X128947736Y-121445185D01*
X128944903Y-121447445D01*
X128942724Y-121448334D01*
X128941842Y-121448889D01*
X128941744Y-121448734D01*
X128880217Y-121473855D01*
X128867588Y-121474500D01*
X118827370Y-121474500D01*
X118827354Y-121474499D01*
X118819758Y-121474499D01*
X118661643Y-121474499D01*
X118585279Y-121494961D01*
X118508914Y-121515423D01*
X118508909Y-121515426D01*
X118371986Y-121594477D01*
X118370590Y-121595549D01*
X118369067Y-121596163D01*
X118364945Y-121598543D01*
X118364608Y-121597960D01*
X118308994Y-121620388D01*
X118220750Y-121630330D01*
X118050478Y-121689910D01*
X117897737Y-121785884D01*
X117770184Y-121913437D01*
X117674211Y-122066176D01*
X117614631Y-122236445D01*
X117614630Y-122236450D01*
X117594435Y-122415696D01*
X117594435Y-122415703D01*
X117615333Y-122601183D01*
X117603278Y-122670005D01*
X117555929Y-122721384D01*
X117492113Y-122739066D01*
X87273002Y-122739066D01*
X87205963Y-122719381D01*
X87160208Y-122666577D01*
X87149782Y-122601183D01*
X87155165Y-122553404D01*
X87155165Y-122553396D01*
X87134969Y-122374150D01*
X87134968Y-122374145D01*
X87114248Y-122314932D01*
X87075389Y-122203878D01*
X86979416Y-122051138D01*
X86851862Y-121923584D01*
X86835713Y-121913437D01*
X86699123Y-121827611D01*
X86528854Y-121768031D01*
X86528849Y-121768030D01*
X86349604Y-121747835D01*
X86349596Y-121747835D01*
X86170350Y-121768030D01*
X86170345Y-121768031D01*
X86000076Y-121827611D01*
X85847337Y-121923584D01*
X85719784Y-122051137D01*
X85623811Y-122203876D01*
X85564231Y-122374145D01*
X85564230Y-122374150D01*
X85544035Y-122553396D01*
X85544035Y-122553404D01*
X85549418Y-122601183D01*
X85537363Y-122670005D01*
X85490014Y-122721384D01*
X85426198Y-122739066D01*
X73665863Y-122739066D01*
X73598824Y-122719381D01*
X73578182Y-122702747D01*
X71268990Y-120393555D01*
X71268988Y-120393552D01*
X71150117Y-120274681D01*
X71150116Y-120274680D01*
X71063304Y-120224560D01*
X71063304Y-120224559D01*
X71063300Y-120224558D01*
X71013185Y-120195623D01*
X70860457Y-120154699D01*
X70702343Y-120154699D01*
X70694747Y-120154699D01*
X70694731Y-120154700D01*
X70147597Y-120154700D01*
X70080558Y-120135015D01*
X70059916Y-120118381D01*
X66517116Y-116575581D01*
X66483631Y-116514258D01*
X66488615Y-116444566D01*
X66530487Y-116388633D01*
X66595951Y-116364216D01*
X66604797Y-116363900D01*
X73328603Y-116363900D01*
X73395642Y-116383585D01*
G37*
%TD.AperFunction*%
%TA.AperFunction,Conductor*%
G36*
X135094642Y-115276485D02*
G01*
X135115284Y-115293119D01*
X135878739Y-116056574D01*
X135878749Y-116056585D01*
X135883079Y-116060915D01*
X135883080Y-116060916D01*
X135994884Y-116172720D01*
X136064125Y-116212696D01*
X136131815Y-116251777D01*
X136284543Y-116292701D01*
X136284546Y-116292701D01*
X136450253Y-116292701D01*
X136450269Y-116292700D01*
X137389331Y-116292700D01*
X137389347Y-116292701D01*
X137396943Y-116292701D01*
X137555054Y-116292701D01*
X137555057Y-116292701D01*
X137707785Y-116251777D01*
X137775475Y-116212696D01*
X137844716Y-116172720D01*
X137956520Y-116060916D01*
X137956520Y-116060914D01*
X137966724Y-116050711D01*
X137966728Y-116050706D01*
X138466088Y-115551346D01*
X138527411Y-115517861D01*
X138597103Y-115522845D01*
X138641450Y-115551346D01*
X138668599Y-115578495D01*
X138699316Y-115600003D01*
X138862165Y-115714032D01*
X138862167Y-115714033D01*
X138862170Y-115714035D01*
X138905151Y-115734077D01*
X138909171Y-115735952D01*
X138961611Y-115782124D01*
X138980763Y-115849318D01*
X138960547Y-115916199D01*
X138944448Y-115936015D01*
X138367284Y-116513181D01*
X138305961Y-116546666D01*
X138279603Y-116549500D01*
X126623902Y-116549500D01*
X126556863Y-116529815D01*
X126511108Y-116477011D01*
X126501164Y-116407853D01*
X126530189Y-116344297D01*
X126557930Y-116320506D01*
X126602181Y-116292701D01*
X126702262Y-116229816D01*
X126829816Y-116102262D01*
X126925789Y-115949522D01*
X126985368Y-115779255D01*
X126990247Y-115735952D01*
X127005565Y-115600003D01*
X127005565Y-115599996D01*
X126985369Y-115420753D01*
X126985368Y-115420747D01*
X126985368Y-115420745D01*
X126985365Y-115420738D01*
X126983819Y-115413961D01*
X126985306Y-115413621D01*
X126982157Y-115351984D01*
X127016882Y-115291354D01*
X127078873Y-115259123D01*
X127102762Y-115256800D01*
X135027603Y-115256800D01*
X135094642Y-115276485D01*
G37*
%TD.AperFunction*%
%TA.AperFunction,Conductor*%
G36*
X93661265Y-78777785D02*
G01*
X93707020Y-78830589D01*
X93716964Y-78899747D01*
X93706608Y-78934505D01*
X93613734Y-79133673D01*
X93613730Y-79133682D01*
X93561127Y-79329999D01*
X93561128Y-79330000D01*
X94524314Y-79330000D01*
X94519920Y-79334394D01*
X94467259Y-79425606D01*
X94440000Y-79527339D01*
X94440000Y-79632661D01*
X94467259Y-79734394D01*
X94519920Y-79825606D01*
X94524314Y-79830000D01*
X93561128Y-79830000D01*
X93613730Y-80026317D01*
X93613734Y-80026326D01*
X93709865Y-80232482D01*
X93840342Y-80418820D01*
X94001179Y-80579657D01*
X94187517Y-80710134D01*
X94393673Y-80806265D01*
X94393682Y-80806269D01*
X94589999Y-80858872D01*
X94590000Y-80858871D01*
X94590000Y-79895686D01*
X94594394Y-79900080D01*
X94685606Y-79952741D01*
X94787339Y-79980000D01*
X94892661Y-79980000D01*
X94994394Y-79952741D01*
X95085606Y-79900080D01*
X95090000Y-79895686D01*
X95090000Y-80858872D01*
X95286317Y-80806269D01*
X95286326Y-80806265D01*
X95492482Y-80710134D01*
X95678820Y-80579657D01*
X95839657Y-80418820D01*
X95970131Y-80232485D01*
X95973329Y-80225628D01*
X96019498Y-80173186D01*
X96086690Y-80154029D01*
X96117800Y-80158248D01*
X96173039Y-80173050D01*
X96232696Y-80209413D01*
X96248329Y-80230822D01*
X96249429Y-80232727D01*
X96249432Y-80232734D01*
X96260541Y-80248599D01*
X96379954Y-80419141D01*
X96540858Y-80580045D01*
X96540861Y-80580047D01*
X96727266Y-80710568D01*
X96933504Y-80806739D01*
X96933509Y-80806740D01*
X96933511Y-80806741D01*
X96947790Y-80810567D01*
X97153308Y-80865635D01*
X97315230Y-80879801D01*
X97379998Y-80885468D01*
X97380000Y-80885468D01*
X97380002Y-80885468D01*
X97436673Y-80880509D01*
X97606692Y-80865635D01*
X97826496Y-80806739D01*
X98032734Y-80710568D01*
X98219139Y-80580047D01*
X98380047Y-80419139D01*
X98510568Y-80232734D01*
X98537618Y-80174724D01*
X98583790Y-80122285D01*
X98650983Y-80103133D01*
X98717865Y-80123348D01*
X98762382Y-80174725D01*
X98789429Y-80232728D01*
X98789432Y-80232734D01*
X98919954Y-80419141D01*
X99080858Y-80580045D01*
X99080861Y-80580047D01*
X99267266Y-80710568D01*
X99473504Y-80806739D01*
X99473509Y-80806740D01*
X99473511Y-80806741D01*
X99487790Y-80810567D01*
X99693308Y-80865635D01*
X99855230Y-80879801D01*
X99919998Y-80885468D01*
X99920000Y-80885468D01*
X99920002Y-80885468D01*
X99976673Y-80880509D01*
X100146692Y-80865635D01*
X100366496Y-80806739D01*
X100572734Y-80710568D01*
X100759139Y-80580047D01*
X100920047Y-80419139D01*
X101050568Y-80232734D01*
X101077618Y-80174724D01*
X101123790Y-80122285D01*
X101190983Y-80103133D01*
X101257865Y-80123348D01*
X101302382Y-80174725D01*
X101329429Y-80232728D01*
X101329432Y-80232734D01*
X101459954Y-80419141D01*
X101620858Y-80580045D01*
X101620861Y-80580047D01*
X101807266Y-80710568D01*
X102013504Y-80806739D01*
X102013509Y-80806740D01*
X102013511Y-80806741D01*
X102027790Y-80810567D01*
X102233308Y-80865635D01*
X102395230Y-80879801D01*
X102459998Y-80885468D01*
X102460000Y-80885468D01*
X102460002Y-80885468D01*
X102516673Y-80880509D01*
X102686692Y-80865635D01*
X102906496Y-80806739D01*
X103112734Y-80710568D01*
X103299139Y-80580047D01*
X103460047Y-80419139D01*
X103590568Y-80232734D01*
X103590577Y-80232713D01*
X103591663Y-80230834D01*
X103592370Y-80230159D01*
X103593673Y-80228299D01*
X103594046Y-80228560D01*
X103642225Y-80182613D01*
X103666957Y-80173050D01*
X103721702Y-80158382D01*
X103791552Y-80160045D01*
X103849414Y-80199209D01*
X103866174Y-80225748D01*
X103869429Y-80232729D01*
X103869432Y-80232734D01*
X103999954Y-80419141D01*
X104160858Y-80580045D01*
X104160861Y-80580047D01*
X104347266Y-80710568D01*
X104553504Y-80806739D01*
X104553509Y-80806740D01*
X104553511Y-80806741D01*
X104567790Y-80810567D01*
X104773308Y-80865635D01*
X104935230Y-80879801D01*
X104999998Y-80885468D01*
X105000000Y-80885468D01*
X105000002Y-80885468D01*
X105056673Y-80880509D01*
X105226692Y-80865635D01*
X105446496Y-80806739D01*
X105652734Y-80710568D01*
X105839139Y-80580047D01*
X105888544Y-80530641D01*
X105949866Y-80497156D01*
X106019557Y-80502140D01*
X106063905Y-80530640D01*
X106390494Y-80857230D01*
X106697083Y-81163819D01*
X106730568Y-81225142D01*
X106725584Y-81294834D01*
X106683712Y-81350767D01*
X106618248Y-81375184D01*
X106609402Y-81375500D01*
X83888198Y-81375500D01*
X83821159Y-81355815D01*
X83800517Y-81339181D01*
X83505514Y-81044178D01*
X83472029Y-80982855D01*
X83477013Y-80913163D01*
X83518885Y-80857230D01*
X83540777Y-80844122D01*
X83612734Y-80810568D01*
X83799139Y-80680047D01*
X83960047Y-80519139D01*
X84090568Y-80332734D01*
X84117618Y-80274724D01*
X84163790Y-80222285D01*
X84230983Y-80203133D01*
X84297865Y-80223348D01*
X84342382Y-80274725D01*
X84369429Y-80332728D01*
X84369432Y-80332734D01*
X84499954Y-80519141D01*
X84660858Y-80680045D01*
X84660861Y-80680047D01*
X84847266Y-80810568D01*
X85053504Y-80906739D01*
X85053509Y-80906740D01*
X85053511Y-80906741D01*
X85085223Y-80915238D01*
X85273308Y-80965635D01*
X85435230Y-80979801D01*
X85499998Y-80985468D01*
X85500000Y-80985468D01*
X85500002Y-80985468D01*
X85556673Y-80980509D01*
X85726692Y-80965635D01*
X85946496Y-80906739D01*
X86152734Y-80810568D01*
X86339139Y-80680047D01*
X86500047Y-80519139D01*
X86630568Y-80332734D01*
X86657618Y-80274724D01*
X86703790Y-80222285D01*
X86770983Y-80203133D01*
X86837865Y-80223348D01*
X86882382Y-80274725D01*
X86909429Y-80332728D01*
X86909432Y-80332734D01*
X87039954Y-80519141D01*
X87200858Y-80680045D01*
X87200861Y-80680047D01*
X87387266Y-80810568D01*
X87593504Y-80906739D01*
X87593509Y-80906740D01*
X87593511Y-80906741D01*
X87625223Y-80915238D01*
X87813308Y-80965635D01*
X87975230Y-80979801D01*
X88039998Y-80985468D01*
X88040000Y-80985468D01*
X88040002Y-80985468D01*
X88096673Y-80980509D01*
X88266692Y-80965635D01*
X88486496Y-80906739D01*
X88692734Y-80810568D01*
X88879139Y-80680047D01*
X89040047Y-80519139D01*
X89170568Y-80332734D01*
X89266739Y-80126496D01*
X89325635Y-79906692D01*
X89345468Y-79680000D01*
X89345116Y-79675982D01*
X89329326Y-79495496D01*
X89325635Y-79453308D01*
X89266739Y-79233504D01*
X89170568Y-79027266D01*
X89118722Y-78953222D01*
X89096396Y-78887016D01*
X89113407Y-78819249D01*
X89164355Y-78771437D01*
X89220298Y-78758100D01*
X93594226Y-78758100D01*
X93661265Y-78777785D01*
G37*
%TD.AperFunction*%
%TD*%
M02*
