%TF.GenerationSoftware,KiCad,Pcbnew,8.0.4+dfsg-1*%
%TF.CreationDate,2024-12-19T01:42:37-05:00*%
%TF.ProjectId,VGA_SRAM_COMP,5647415f-5352-4414-9d5f-434f4d502e6b,rev?*%
%TF.SameCoordinates,Original*%
%TF.FileFunction,Copper,L2,Inr*%
%TF.FilePolarity,Positive*%
%FSLAX46Y46*%
G04 Gerber Fmt 4.6, Leading zero omitted, Abs format (unit mm)*
G04 Created by KiCad (PCBNEW 8.0.4+dfsg-1) date 2024-12-19 01:42:37*
%MOMM*%
%LPD*%
G01*
G04 APERTURE LIST*
%TA.AperFunction,ComponentPad*%
%ADD10R,1.700000X1.700000*%
%TD*%
%TA.AperFunction,ComponentPad*%
%ADD11O,1.700000X1.700000*%
%TD*%
%TA.AperFunction,ComponentPad*%
%ADD12R,1.600000X1.600000*%
%TD*%
%TA.AperFunction,ComponentPad*%
%ADD13C,1.600000*%
%TD*%
%TA.AperFunction,ComponentPad*%
%ADD14O,1.600000X1.600000*%
%TD*%
%TA.AperFunction,ComponentPad*%
%ADD15R,1.500000X1.500000*%
%TD*%
%TA.AperFunction,ComponentPad*%
%ADD16C,1.500000*%
%TD*%
%TA.AperFunction,ComponentPad*%
%ADD17C,3.500000*%
%TD*%
%TA.AperFunction,ComponentPad*%
%ADD18C,4.000000*%
%TD*%
%TA.AperFunction,ViaPad*%
%ADD19C,0.600000*%
%TD*%
%TA.AperFunction,Conductor*%
%ADD20C,0.200000*%
%TD*%
G04 APERTURE END LIST*
D10*
%TO.N,MCUMEMADDR0*%
%TO.C,J8*%
X137000000Y-91680000D03*
D11*
%TO.N,MCUMEMADDR1*%
X139540000Y-91680000D03*
%TO.N,MCUMEMADDR2*%
X137000000Y-94220000D03*
%TO.N,MCUMEMADDR3*%
X139540000Y-94220000D03*
%TO.N,MCUMEMADDR4*%
X137000000Y-96760000D03*
%TO.N,MCUMEMADDR5*%
X139540000Y-96760000D03*
%TO.N,MCUMEMADDR6*%
X137000000Y-99300000D03*
%TO.N,MCUMEMADDR7*%
X139540000Y-99300000D03*
%TO.N,MCUMEMADDR8*%
X137000000Y-101840000D03*
%TO.N,MCUMEMADDR9*%
X139540000Y-101840000D03*
%TO.N,MCUMEMADDR10*%
X137000000Y-104380000D03*
%TO.N,MCUMEMADDR11*%
X139540000Y-104380000D03*
%TO.N,MCUMEMADDR12*%
X137000000Y-106920000D03*
%TO.N,MCUMEMADDR13*%
X139540000Y-106920000D03*
%TO.N,MCUMEMADDR14*%
X137000000Y-109460000D03*
%TO.N,MCUMEMADDR15*%
X139540000Y-109460000D03*
%TO.N,MCUMEMADDR16*%
X137000000Y-112000000D03*
%TO.N,MCUMEMADDR17*%
X139540000Y-112000000D03*
%TO.N,MCUMEMADDR18*%
X137000000Y-114540000D03*
%TO.N,MCUMEMADDR19*%
X139540000Y-114540000D03*
%TD*%
D10*
%TO.N,DATA0*%
%TO.C,J7*%
X137000000Y-120880000D03*
D11*
%TO.N,DATA1*%
X139540000Y-120880000D03*
%TO.N,DATA2*%
X137000000Y-123420000D03*
%TO.N,DATA3*%
X139540000Y-123420000D03*
%TO.N,DATA4*%
X137000000Y-125960000D03*
%TO.N,DATA5*%
X139540000Y-125960000D03*
%TO.N,DATA6*%
X137000000Y-128500000D03*
%TO.N,DATA7*%
X139540000Y-128500000D03*
%TD*%
%TO.N,/MCU OE*%
%TO.C,J1*%
X139500000Y-83660000D03*
%TO.N,/MCU CE*%
X136960000Y-83660000D03*
%TO.N,/MCU WE*%
X139500000Y-81120000D03*
%TO.N,RESOLUTION*%
X136960000Y-81120000D03*
%TO.N,Net-(J1-Pin_16)*%
X139500000Y-78580000D03*
%TO.N,Net-(J1-Pin_15)*%
X136960000Y-78580000D03*
%TO.N,Net-(J1-Pin_14)*%
X139500000Y-76040000D03*
%TO.N,Net-(J1-Pin_13)*%
X136960000Y-76040000D03*
%TO.N,Net-(J1-Pin_12)*%
X139500000Y-73500000D03*
%TO.N,Net-(J1-Pin_11)*%
X136960000Y-73500000D03*
%TO.N,GND*%
X139500000Y-70960000D03*
X136960000Y-70960000D03*
%TO.N,~{SCREEN_VISIBLE}*%
X139500000Y-68420000D03*
%TO.N,~{V_VISIBLE}*%
X136960000Y-68420000D03*
%TO.N,H_VISIBLE*%
X139500000Y-65880000D03*
%TO.N,Net-(J1-Pin_5)*%
X136960000Y-65880000D03*
%TO.N,Net-(J1-Pin_4)*%
X139500000Y-63340000D03*
%TO.N,Net-(J1-Pin_3)*%
X136960000Y-63340000D03*
%TO.N,Net-(J1-Pin_2)*%
X139500000Y-60800000D03*
D10*
%TO.N,PWR*%
X136960000Y-60800000D03*
%TD*%
D12*
%TO.N,unconnected-(X1-NC-Pad1)*%
%TO.C,X1*%
X128016000Y-67056000D03*
D13*
%TO.N,GND*%
X112776000Y-67056000D03*
%TO.N,H_CLK*%
X112776000Y-74676000D03*
%TO.N,PWR*%
X128016000Y-74676000D03*
%TD*%
D12*
%TO.N,Net-(U5-Q0)*%
%TO.C,U9*%
X94840000Y-87200000D03*
D14*
%TO.N,A10*%
X97380000Y-87200000D03*
%TO.N,A11*%
X99920000Y-87200000D03*
%TO.N,A12*%
X102460000Y-87200000D03*
%TO.N,A13*%
X105000000Y-87200000D03*
%TO.N,A14*%
X107540000Y-87200000D03*
%TO.N,A15*%
X110080000Y-87200000D03*
%TO.N,A16*%
X112620000Y-87200000D03*
%TO.N,A17*%
X115160000Y-87200000D03*
%TO.N,A18*%
X117700000Y-87200000D03*
%TO.N,H_VISIBLE*%
X120240000Y-87200000D03*
%TO.N,GND*%
X122780000Y-87200000D03*
%TO.N,unconnected-(U9-I13-Pad13)*%
X122780000Y-79580000D03*
%TO.N,~{V_VISIBLE}*%
X120240000Y-79580000D03*
%TO.N,V_FRONT_PORCH*%
X117700000Y-79580000D03*
%TO.N,~{V_SYNC}*%
X115160000Y-79580000D03*
%TO.N,unconnected-(U9-IO17-Pad17)*%
X112620000Y-79580000D03*
%TO.N,unconnected-(U9-IO18-Pad18)*%
X110080000Y-79580000D03*
%TO.N,unconnected-(U9-IO19-Pad19)*%
X107540000Y-79580000D03*
%TO.N,~{V_RESET}*%
X105000000Y-79580000D03*
%TO.N,~{SCREEN_VISIBLE}*%
X102460000Y-79580000D03*
%TO.N,unconnected-(U9-IO22-Pad22)*%
X99920000Y-79580000D03*
%TO.N,Net-(U8-IO23)*%
X97380000Y-79580000D03*
%TO.N,PWR*%
X94840000Y-79580000D03*
%TD*%
D12*
%TO.N,A0*%
%TO.C,U8*%
X60100000Y-87300000D03*
D14*
%TO.N,A1*%
X62640000Y-87300000D03*
%TO.N,A2*%
X65180000Y-87300000D03*
%TO.N,A3*%
X67720000Y-87300000D03*
%TO.N,A4*%
X70260000Y-87300000D03*
%TO.N,A5*%
X72800000Y-87300000D03*
%TO.N,A6*%
X75340000Y-87300000D03*
%TO.N,A7*%
X77880000Y-87300000D03*
%TO.N,A8*%
X80420000Y-87300000D03*
%TO.N,A9*%
X82960000Y-87300000D03*
%TO.N,unconnected-(U8-I11-Pad11)*%
X85500000Y-87300000D03*
%TO.N,GND*%
X88040000Y-87300000D03*
%TO.N,unconnected-(U8-I13-Pad13)*%
X88040000Y-79680000D03*
%TO.N,unconnected-(U8-IO14-Pad14)*%
X85500000Y-79680000D03*
%TO.N,unconnected-(U8-IO15-Pad15)*%
X82960000Y-79680000D03*
%TO.N,H_VISIBLE*%
X80420000Y-79680000D03*
%TO.N,unconnected-(U8-IO17-Pad17)*%
X77880000Y-79680000D03*
%TO.N,~{H_SYNC}*%
X75340000Y-79680000D03*
%TO.N,unconnected-(U8-IO19-Pad19)*%
X72800000Y-79680000D03*
%TO.N,Net-(U3-~{MR})*%
X70260000Y-79680000D03*
%TO.N,unconnected-(U8-IO21-Pad21)*%
X67720000Y-79680000D03*
%TO.N,unconnected-(U8-IO22-Pad22)*%
X65180000Y-79680000D03*
%TO.N,Net-(U8-IO23)*%
X62640000Y-79680000D03*
%TO.N,PWR*%
X60100000Y-79680000D03*
%TD*%
D10*
%TO.N,PWR*%
%TO.C,JP1*%
X113792000Y-59436000D03*
D11*
%TO.N,RESOLUTION*%
X113792000Y-61976000D03*
%TD*%
D10*
%TO.N,GND*%
%TO.C,J6*%
X127975000Y-109025000D03*
D11*
%TO.N,Net-(J6-Pin_2)*%
X127975000Y-106485000D03*
X127975000Y-103945000D03*
%TD*%
D15*
%TO.N,PWR*%
%TO.C,J5*%
X104084000Y-70542300D03*
D16*
%TO.N,Net-(J1-Pin_3)*%
X101584000Y-70542300D03*
%TO.N,Net-(J1-Pin_2)*%
X99584000Y-70542300D03*
%TO.N,GND*%
X97084000Y-70542300D03*
%TO.N,PWR*%
X104084000Y-73162300D03*
%TO.N,Net-(J1-Pin_5)*%
X101584000Y-73162300D03*
%TO.N,Net-(J1-Pin_4)*%
X99584000Y-73162300D03*
%TO.N,GND*%
X97084000Y-73162300D03*
D17*
X107154000Y-67832300D03*
X94014000Y-67832300D03*
X107154000Y-73512300D03*
X94014000Y-73512300D03*
%TD*%
D13*
%TO.N,unconnected-(J3-Pad15)*%
%TO.C,J3*%
X79680000Y-65700000D03*
%TO.N,Net-(J3-Pad14)*%
X77390000Y-65700000D03*
%TO.N,Net-(J3-Pad13)*%
X75100000Y-65700000D03*
%TO.N,unconnected-(J3-Pad12)*%
X72810000Y-65700000D03*
%TO.N,unconnected-(J3-Pad11)*%
X70520000Y-65700000D03*
%TO.N,GND*%
X78535000Y-67680000D03*
%TO.N,unconnected-(J3-Pad9)*%
X76245000Y-67680000D03*
%TO.N,GND*%
X73955000Y-67680000D03*
X71665000Y-67680000D03*
X69375000Y-67680000D03*
X79680000Y-69660000D03*
%TO.N,unconnected-(J3-Pad4)*%
X77390000Y-69660000D03*
%TO.N,Net-(J3-Pad3)*%
X75100000Y-69660000D03*
%TO.N,Net-(J3-Pad2)*%
X72810000Y-69660000D03*
D12*
%TO.N,Net-(J3-Pad1)*%
X70520000Y-69660000D03*
D18*
%TO.N,N/C*%
X62335000Y-68240000D03*
X87335000Y-68240000D03*
%TD*%
D10*
%TO.N,PWR*%
%TO.C,J2*%
X123444000Y-59436000D03*
D11*
X120904000Y-59436000D03*
%TO.N,GND*%
X123444000Y-61976000D03*
X120904000Y-61976000D03*
%TD*%
D19*
%TO.N,PWR*%
X129750000Y-116550000D03*
%TO.N,DATA6*%
X123425000Y-128750000D03*
%TO.N,MEMADDR17*%
X99100000Y-121100000D03*
X96525000Y-121125000D03*
%TO.N,A19*%
X97085600Y-97796700D03*
X86349600Y-122553400D03*
%TO.N,MCUMEMADDR13*%
X86668700Y-109749500D03*
%TO.N,MCUMEMADDR19*%
X77597000Y-114355800D03*
%TO.N,MCUMEMADDR12*%
X86326000Y-108765300D03*
%TO.N,MCUMEMADDR16*%
X75162100Y-113984300D03*
%TO.N,MCUMEMADDR2*%
X73691000Y-106530000D03*
%TO.N,MCUMEMADDR0*%
X73692700Y-103899800D03*
%TO.N,MCUMEMADDR14*%
X86288000Y-110987800D03*
%TO.N,MCUMEMADDR11*%
X89215300Y-106561900D03*
%TO.N,MCUMEMADDR3*%
X73699600Y-107800000D03*
%TO.N,MCUMEMADDR9*%
X87584900Y-107147900D03*
%TO.N,MCUMEMADDR5*%
X73511600Y-109749600D03*
%TO.N,MCUMEMADDR6*%
X73679400Y-110682600D03*
%TO.N,MCUMEMADDR8*%
X86326800Y-103990000D03*
%TO.N,MCUMEMADDR18*%
X76721400Y-112795900D03*
%TO.N,MCUMEMADDR15*%
X86331300Y-111798300D03*
%TO.N,MCUMEMADDR7*%
X73694000Y-112482300D03*
%TO.N,MCUMEMADDR4*%
X73696600Y-108816700D03*
%TO.N,Net-(U11-CE)*%
X114163600Y-107059200D03*
X91463400Y-105367200D03*
X82876900Y-118470000D03*
%TO.N,Net-(U1-~{WE})*%
X125339000Y-124286600D03*
X117722600Y-108370300D03*
%TO.N,MCUMEMADDR10*%
X86352100Y-106530000D03*
%TO.N,MCUMEMADDR17*%
X73550900Y-119143800D03*
X129825000Y-119400000D03*
%TO.N,DATA2*%
X61029200Y-110940600D03*
%TO.N,MCUMEMADDR1*%
X73919100Y-104915500D03*
%TO.N,/MCU OE*%
X123558200Y-101474700D03*
%TO.N,DATA1*%
X63090000Y-111927500D03*
%TO.N,DATA5*%
X119262644Y-123339566D03*
X61029800Y-107593900D03*
%TO.N,DATA3*%
X61018800Y-109514200D03*
%TO.N,DATA0*%
X64334000Y-113145500D03*
%TO.N,Net-(U16-Pad8)*%
X117145800Y-109933700D03*
X120515200Y-96626600D03*
%TO.N,~{TIMING ADDR}*%
X109025200Y-103863200D03*
X112498500Y-96577300D03*
X95532800Y-118727600D03*
X70247400Y-118148800D03*
%TO.N,DATA7*%
X123059500Y-124523900D03*
X58481684Y-104527256D03*
%TO.N,DATA4*%
X118400000Y-124300000D03*
X58375000Y-108200000D03*
%TO.N,A17*%
X104122900Y-94100800D03*
X89198100Y-119740000D03*
%TO.N,A18*%
X89121900Y-121115400D03*
%TO.N,A16*%
X91759400Y-97149800D03*
X86328200Y-118470000D03*
%TO.N,Net-(U10-TC)*%
X69144000Y-97935600D03*
X105498100Y-92615100D03*
%TO.N,Net-(J1-Pin_15)*%
X125771100Y-95356600D03*
%TO.N,RESOLUTION*%
X126537600Y-76056700D03*
%TO.N,A14*%
X98996900Y-111585100D03*
%TO.N,A15*%
X99718600Y-112560800D03*
%TO.N,A13*%
X91548000Y-92117200D03*
X96060500Y-109195700D03*
%TO.N,A12*%
X99033100Y-108759600D03*
X87755700Y-94893300D03*
%TO.N,A11*%
X99747300Y-107776300D03*
X88179500Y-92013700D03*
%TO.N,A10*%
X83382500Y-94309300D03*
X98979700Y-106534100D03*
%TO.N,Net-(J1-Pin_16)*%
X126282300Y-97107300D03*
%TO.N,Net-(U5-Q0)*%
X83343100Y-93500000D03*
%TO.N,A9*%
X95553600Y-105260000D03*
X79286400Y-94161200D03*
%TO.N,A8*%
X78996700Y-92207700D03*
X87601500Y-103355000D03*
%TO.N,A7*%
X61702500Y-127422600D03*
X66433100Y-97573500D03*
%TO.N,A5*%
X66430300Y-93829200D03*
X61028100Y-124483800D03*
%TO.N,A4*%
X66332100Y-92290800D03*
X62432600Y-120194800D03*
%TO.N,A6*%
X70947900Y-92133400D03*
X60898000Y-125496800D03*
%TO.N,H_CLK*%
X69587800Y-92151600D03*
X100370500Y-91284800D03*
%TO.N,A3*%
X61041300Y-121979900D03*
X69764500Y-98546900D03*
X105514400Y-97261500D03*
%TO.N,A0*%
X61027500Y-117335000D03*
X103384000Y-92492700D03*
%TO.N,A2*%
X97245200Y-95387800D03*
X61026500Y-121010000D03*
%TO.N,A1*%
X61034200Y-118653600D03*
X100363100Y-93242900D03*
%TO.N,~{VGA_OUT}*%
X109042600Y-94583600D03*
X70228300Y-104099400D03*
%TO.N,MEMADDR6*%
X119331300Y-119942900D03*
X78150900Y-121155200D03*
%TO.N,MEMADDR1*%
X114775000Y-116050000D03*
X75962300Y-113198400D03*
%TO.N,MEMADDR19*%
X115125000Y-127525000D03*
X96805600Y-125367600D03*
%TO.N,MEMADDR18*%
X114924998Y-128425000D03*
X99338900Y-125969700D03*
%TO.N,MEMADDR7*%
X126200000Y-115600000D03*
X83073100Y-115542900D03*
%TO.N,~{OE}*%
X123598800Y-115898700D03*
X112003700Y-106192400D03*
%TO.N,MEMADDR3*%
X117309800Y-112755800D03*
X82891600Y-109337500D03*
X70294800Y-122903800D03*
%TO.N,MEMADDR12*%
X126125000Y-129150000D03*
X105270000Y-110295500D03*
X95954600Y-110141800D03*
%TO.N,MEMADDR4*%
X112745800Y-113126700D03*
X83377500Y-110729900D03*
X70675700Y-123727100D03*
%TO.N,MEMADDR5*%
X126025000Y-113200000D03*
X82748100Y-112157400D03*
%TO.N,MEMADDR15*%
X106300100Y-114964700D03*
X115050000Y-130675000D03*
%TO.N,DATA6*%
X110119900Y-116948000D03*
X61026900Y-105558000D03*
%TO.N,MEMADDR11*%
X119612000Y-128190500D03*
X108044400Y-109630000D03*
%TO.N,MEMADDR10*%
X125563900Y-127566700D03*
X108844600Y-109890800D03*
%TO.N,MEMADDR9*%
X125471700Y-125990100D03*
X109010100Y-108290400D03*
%TO.N,MEMADDR2*%
X114353100Y-115289900D03*
X83146600Y-108238600D03*
X70516700Y-121414100D03*
%TO.N,MEMADDR14*%
X125950000Y-130425000D03*
X108947600Y-112691500D03*
%TO.N,MEMADDR13*%
X129325000Y-130025000D03*
X109881800Y-112710900D03*
%TO.N,MEMADDR0*%
X111066300Y-111221100D03*
X82902300Y-105413000D03*
%TO.N,Net-(U2-B7)*%
X66500000Y-81417500D03*
X66442100Y-114110100D03*
%TO.N,Net-(U2-B6)*%
X64687700Y-89480600D03*
X66422900Y-111341300D03*
%TO.N,Net-(U2-B5)*%
X65481000Y-73000000D03*
X67144400Y-109767900D03*
%TO.N,Net-(U2-B4)*%
X74239400Y-80664200D03*
X70243200Y-110340000D03*
%TO.N,Net-(U2-B3)*%
X75261300Y-75952600D03*
X70250000Y-108106400D03*
%TO.N,Net-(U2-B2)*%
X76994700Y-73907200D03*
X70227700Y-106901600D03*
%TO.N,Net-(U2-B1)*%
X82155600Y-73000000D03*
X74018200Y-105726100D03*
%TO.N,Net-(U2-B0)*%
X79890200Y-74950800D03*
X74030600Y-101852400D03*
%TO.N,Net-(J3-Pad14)*%
X88439500Y-84939500D03*
%TO.N,Net-(J1-Pin_11)*%
X102342900Y-114964700D03*
%TO.N,Net-(J1-Pin_12)*%
X111470200Y-116895500D03*
%TO.N,Net-(J1-Pin_13)*%
X105891600Y-119371100D03*
%TO.N,Net-(J1-Pin_14)*%
X107158300Y-119371100D03*
%TO.N,GND*%
X129450000Y-122075000D03*
X118400000Y-122415700D03*
X119794800Y-99392300D03*
X114850000Y-119942900D03*
%TO.N,~{SCREEN_VISIBLE}*%
X109036900Y-91338900D03*
%TO.N,~{V_RESET}*%
X92800500Y-89887200D03*
X129863900Y-90708100D03*
%TO.N,~{H_SYNC}*%
X117226000Y-85289600D03*
%TO.N,PWR*%
X80125400Y-117793900D03*
X72930200Y-116363600D03*
%TD*%
D20*
%TO.N,MEMADDR15*%
X106491700Y-122116700D02*
X115050000Y-130675000D01*
X106491700Y-115156300D02*
X106491700Y-122116700D01*
X106300100Y-114964700D02*
X106491700Y-115156300D01*
%TO.N,GND*%
X117322800Y-122415700D02*
X114850000Y-119942900D01*
X118400000Y-122415700D02*
X117322800Y-122415700D01*
%TO.N,MEMADDR10*%
X122459400Y-124772400D02*
X125253700Y-127566700D01*
%TO.N,MEMADDR13*%
X114519225Y-117100000D02*
X120275144Y-122855919D01*
%TO.N,MEMADDR10*%
X122459400Y-124428639D02*
X122459400Y-124772400D01*
X114125000Y-116319239D02*
X114505761Y-116700000D01*
X114505761Y-116700000D02*
X114730761Y-116700000D01*
X108844600Y-109890800D02*
X108844600Y-110813839D01*
X108844600Y-110813839D02*
X114125000Y-116094239D01*
X125253700Y-127566700D02*
X125563900Y-127566700D01*
%TO.N,MEMADDR13*%
X127540000Y-128240000D02*
X129325000Y-130025000D01*
X120275144Y-122855919D02*
X120275144Y-123153944D01*
%TO.N,MEMADDR10*%
X114125000Y-116094239D02*
X114125000Y-116319239D01*
%TO.N,MEMADDR13*%
X120275144Y-123153944D02*
X125361200Y-128240000D01*
%TO.N,MEMADDR10*%
X114730761Y-116700000D02*
X122459400Y-124428639D01*
%TO.N,MEMADDR13*%
X125361200Y-128240000D02*
X127540000Y-128240000D01*
X114270900Y-117100000D02*
X114519225Y-117100000D01*
X109881800Y-112710900D02*
X114270900Y-117100000D01*
%TO.N,MEMADDR14*%
X119875144Y-124350144D02*
X125950000Y-130425000D01*
X118021800Y-121765700D02*
X118619239Y-121765700D01*
X108947600Y-112691500D02*
X118021800Y-121765700D01*
X119875144Y-123021605D02*
X119875144Y-124350144D01*
X118619239Y-121765700D02*
X119875144Y-123021605D01*
%TO.N,DATA6*%
X121921900Y-128750000D02*
X123425000Y-128750000D01*
X110119900Y-116948000D02*
X121921900Y-128750000D01*
%TO.N,GND*%
X127975000Y-109025000D02*
X127975000Y-120600000D01*
X127975000Y-120600000D02*
X129450000Y-122075000D01*
%TO.N,MCUMEMADDR17*%
X139540000Y-112000000D02*
X138270000Y-113270000D01*
X138270000Y-113270000D02*
X135955000Y-113270000D01*
X135955000Y-113270000D02*
X129825000Y-119400000D01*
%TO.N,A19*%
X97085600Y-109862900D02*
X97085600Y-97796700D01*
X86349600Y-120598900D02*
X97085600Y-109862900D01*
X86349600Y-122553400D02*
X86349600Y-120598900D01*
%TO.N,Net-(U11-CE)*%
X82876900Y-117717200D02*
X82876900Y-118470000D01*
X91463400Y-109130700D02*
X82876900Y-117717200D01*
X91463400Y-105367200D02*
X91463400Y-109130700D01*
%TO.N,Net-(U1-~{WE})*%
X125339000Y-115986700D02*
X117722600Y-108370300D01*
X125339000Y-124286600D02*
X125339000Y-115986700D01*
%TO.N,/MCU OE*%
X139500000Y-85532900D02*
X123558200Y-101474700D01*
X139500000Y-83660000D02*
X139500000Y-85532900D01*
%TO.N,Net-(J6-Pin_2)*%
X127975000Y-103945000D02*
X127975000Y-106485000D01*
%TO.N,Net-(U16-Pad8)*%
X117122500Y-109910400D02*
X117145800Y-109933700D01*
X117122500Y-100019300D02*
X117122500Y-109910400D01*
X120515200Y-96626600D02*
X117122500Y-100019300D01*
%TO.N,~{TIMING ADDR}*%
X112498500Y-100389900D02*
X109025200Y-103863200D01*
X112498500Y-96577300D02*
X112498500Y-100389900D01*
X101742700Y-112517700D02*
X95532800Y-118727600D01*
X101742700Y-111145700D02*
X101742700Y-112517700D01*
X109025200Y-103863200D02*
X101742700Y-111145700D01*
%TO.N,A17*%
X104122900Y-104815200D02*
X104122900Y-94100800D01*
X89198100Y-119740000D02*
X104122900Y-104815200D01*
%TO.N,A18*%
X117700000Y-87200000D02*
X117700000Y-88300100D01*
X92069200Y-121115400D02*
X89121900Y-121115400D01*
X100379200Y-112805400D02*
X92069200Y-121115400D01*
X100379200Y-111524200D02*
X100379200Y-112805400D01*
X111047700Y-100855700D02*
X100379200Y-111524200D01*
X111047700Y-94952400D02*
X111047700Y-100855700D01*
X117700000Y-88300100D02*
X111047700Y-94952400D01*
%TO.N,A16*%
X86328200Y-115429000D02*
X86328200Y-118470000D01*
X96191600Y-105565600D02*
X86328200Y-115429000D01*
X96191600Y-103671500D02*
X96191600Y-105565600D01*
X91759400Y-99239300D02*
X96191600Y-103671500D01*
X91759400Y-97149800D02*
X91759400Y-99239300D01*
%TO.N,Net-(J1-Pin_15)*%
X136960000Y-78580000D02*
X136960000Y-79730100D01*
X136723300Y-79730100D02*
X136960000Y-79730100D01*
X125771100Y-90682300D02*
X136723300Y-79730100D01*
X125771100Y-95356600D02*
X125771100Y-90682300D01*
%TO.N,RESOLUTION*%
X126537600Y-75871700D02*
X126537600Y-76056700D01*
X113792000Y-63126100D02*
X126537600Y-75871700D01*
X113792000Y-61976000D02*
X113792000Y-63126100D01*
%TO.N,A14*%
X107540000Y-103042000D02*
X98996900Y-111585100D01*
X107540000Y-87200000D02*
X107540000Y-103042000D01*
%TO.N,A15*%
X99718600Y-111619000D02*
X99718600Y-112560800D01*
X110080000Y-101257600D02*
X99718600Y-111619000D01*
X110080000Y-87200000D02*
X110080000Y-101257600D01*
%TO.N,A13*%
X96611900Y-108644300D02*
X96060500Y-109195700D01*
X96611900Y-103243300D02*
X96611900Y-108644300D01*
X96391600Y-103023000D02*
X96611900Y-103243300D01*
X96391600Y-96960800D02*
X96391600Y-103023000D01*
X91548000Y-92117200D02*
X96391600Y-96960800D01*
%TO.N,A12*%
X102460000Y-87200000D02*
X102460000Y-88300100D01*
X99612700Y-108759600D02*
X99033100Y-108759600D01*
X102460000Y-105912300D02*
X99612700Y-108759600D01*
X102460000Y-88300100D02*
X102460000Y-105912300D01*
%TO.N,A11*%
X99920000Y-87200000D02*
X99920000Y-88300100D01*
X99747300Y-88472800D02*
X99747300Y-107776300D01*
X99920000Y-88300100D02*
X99747300Y-88472800D01*
%TO.N,A10*%
X97380000Y-87200000D02*
X97380000Y-88300100D01*
X98979700Y-98013100D02*
X98979700Y-106534100D01*
X94189200Y-93222600D02*
X98979700Y-98013100D01*
X94189200Y-91490900D02*
X94189200Y-93222600D01*
X97380000Y-88300100D02*
X94189200Y-91490900D01*
X90405200Y-91490900D02*
X94189200Y-91490900D01*
X87898200Y-93997900D02*
X90405200Y-91490900D01*
X83693900Y-93997900D02*
X87898200Y-93997900D01*
X83382500Y-94309300D02*
X83693900Y-93997900D01*
%TO.N,Net-(J1-Pin_16)*%
X139500000Y-78580000D02*
X139500000Y-79730100D01*
X138230000Y-85159600D02*
X126282300Y-97107300D01*
X138230000Y-80761800D02*
X138230000Y-85159600D01*
X139261700Y-79730100D02*
X138230000Y-80761800D01*
X139500000Y-79730100D02*
X139261700Y-79730100D01*
%TO.N,A9*%
X82960000Y-87300000D02*
X82960000Y-88400100D01*
X82386200Y-88973900D02*
X82386200Y-94161200D01*
X82960000Y-88400100D02*
X82386200Y-88973900D01*
X82386200Y-94161200D02*
X79286400Y-94161200D01*
X82386200Y-94260400D02*
X82386200Y-94161200D01*
X93385800Y-105260000D02*
X82386200Y-94260400D01*
X95553600Y-105260000D02*
X93385800Y-105260000D01*
%TO.N,A8*%
X78996700Y-89823400D02*
X78996700Y-92207700D01*
X80420000Y-88400100D02*
X78996700Y-89823400D01*
X80420000Y-87300000D02*
X80420000Y-88400100D01*
X78668200Y-94421700D02*
X87601500Y-103355000D01*
X78668200Y-92536200D02*
X78668200Y-94421700D01*
X78996700Y-92207700D02*
X78668200Y-92536200D01*
%TO.N,A5*%
X72800000Y-87300000D02*
X72800000Y-88400100D01*
X69627500Y-115884400D02*
X61028100Y-124483800D01*
X69627500Y-109622300D02*
X69627500Y-115884400D01*
X72382600Y-106867200D02*
X69627500Y-109622300D01*
X72382600Y-88817500D02*
X72382600Y-106867200D01*
X72800000Y-88400100D02*
X72382600Y-88817500D01*
%TO.N,A4*%
X65830100Y-92792800D02*
X66332100Y-92290800D01*
X65830100Y-109334100D02*
X65830100Y-92792800D01*
X67446200Y-110950200D02*
X65830100Y-109334100D01*
X67446200Y-115181200D02*
X67446200Y-110950200D01*
X62432600Y-120194800D02*
X67446200Y-115181200D01*
%TO.N,A6*%
X60427900Y-125026700D02*
X60898000Y-125496800D01*
X60427900Y-123623200D02*
X60427900Y-125026700D01*
X69227300Y-114823800D02*
X60427900Y-123623200D01*
X69227300Y-106084900D02*
X69227300Y-114823800D01*
X70947900Y-104364300D02*
X69227300Y-106084900D01*
X70947900Y-92133400D02*
X70947900Y-104364300D01*
%TO.N,A3*%
X67720000Y-87300000D02*
X67720000Y-88400100D01*
X68380800Y-98546900D02*
X69764500Y-98546900D01*
X68380800Y-89060900D02*
X68380800Y-98546900D01*
X67720000Y-88400100D02*
X68380800Y-89060900D01*
X61496200Y-121979900D02*
X61041300Y-121979900D01*
X68380800Y-115095300D02*
X61496200Y-121979900D01*
X68380800Y-98546900D02*
X68380800Y-115095300D01*
%TO.N,A0*%
X60100000Y-116407500D02*
X61027500Y-117335000D01*
X60100000Y-87300000D02*
X60100000Y-116407500D01*
%TO.N,A2*%
X65180000Y-87300000D02*
X65180000Y-88400100D01*
X65380900Y-88601000D02*
X65180000Y-88400100D01*
X65380900Y-109450600D02*
X65380900Y-88601000D01*
X67046100Y-111115800D02*
X65380900Y-109450600D01*
X67046100Y-114360100D02*
X67046100Y-111115800D01*
X61026500Y-120379700D02*
X67046100Y-114360100D01*
X61026500Y-121010000D02*
X61026500Y-120379700D01*
%TO.N,A1*%
X62640000Y-87300000D02*
X62640000Y-88400100D01*
X62640000Y-110439700D02*
X62640000Y-88400100D01*
X63729800Y-111529500D02*
X62640000Y-110439700D01*
X63729800Y-115958000D02*
X63729800Y-111529500D01*
X61034200Y-118653600D02*
X63729800Y-115958000D01*
%TO.N,~{OE}*%
X121710000Y-115898700D02*
X112003700Y-106192400D01*
X123598800Y-115898700D02*
X121710000Y-115898700D01*
%TO.N,MEMADDR3*%
X70639700Y-122903800D02*
X70294800Y-122903800D01*
X81221500Y-112322000D02*
X70639700Y-122903800D01*
X81221500Y-111007600D02*
X81221500Y-112322000D01*
X82891600Y-109337500D02*
X81221500Y-111007600D01*
%TO.N,MEMADDR4*%
X81763200Y-112639600D02*
X70675700Y-123727100D01*
X81763200Y-112203600D02*
X81763200Y-112639600D01*
X83236900Y-110729900D02*
X81763200Y-112203600D01*
X83377500Y-110729900D02*
X83236900Y-110729900D01*
%TO.N,MEMADDR11*%
X108044400Y-116622900D02*
X119612000Y-128190500D01*
X108044400Y-109630000D02*
X108044400Y-116622900D01*
%TO.N,MEMADDR9*%
X124738900Y-125257300D02*
X125471700Y-125990100D01*
X124738900Y-124019200D02*
X124738900Y-125257300D01*
X109010100Y-108290400D02*
X124738900Y-124019200D01*
%TO.N,MEMADDR2*%
X70516700Y-120587500D02*
X70516700Y-121414100D01*
X82865600Y-108238600D02*
X70516700Y-120587500D01*
X83146600Y-108238600D02*
X82865600Y-108238600D01*
%TO.N,Net-(U2-B7)*%
X64070300Y-83847200D02*
X66500000Y-81417500D01*
X64070300Y-111304100D02*
X64070300Y-83847200D01*
X66442100Y-113675900D02*
X64070300Y-111304100D01*
X66442100Y-114110100D02*
X66442100Y-113675900D01*
%TO.N,Net-(U2-B6)*%
X64687700Y-109606100D02*
X66422900Y-111341300D01*
X64687700Y-89480600D02*
X64687700Y-109606100D01*
%TO.N,Net-(U2-B5)*%
X66450000Y-73969000D02*
X65481000Y-73000000D01*
X66450000Y-80209700D02*
X66450000Y-73969000D01*
X67132700Y-80892400D02*
X66450000Y-80209700D01*
X67132700Y-83840100D02*
X67132700Y-80892400D01*
X66617600Y-84355200D02*
X67132700Y-83840100D01*
X66617600Y-89094400D02*
X66617600Y-84355200D01*
X67144400Y-89621200D02*
X66617600Y-89094400D01*
X67144400Y-109767900D02*
X67144400Y-89621200D01*
%TO.N,Net-(U2-B4)*%
X72782700Y-107800500D02*
X70243200Y-110340000D01*
X72782700Y-89687300D02*
X72782700Y-107800500D01*
X74239400Y-88230600D02*
X72782700Y-89687300D01*
X74239400Y-80664200D02*
X74239400Y-88230600D01*
%TO.N,Net-(U2-B3)*%
X74070000Y-77143900D02*
X75261300Y-75952600D01*
X74070000Y-79972000D02*
X74070000Y-77143900D01*
X71699200Y-82342800D02*
X74070000Y-79972000D01*
X71699200Y-106657200D02*
X71699200Y-82342800D01*
X70250000Y-108106400D02*
X71699200Y-106657200D01*
%TO.N,Net-(U2-B1)*%
X82155600Y-73572700D02*
X82155600Y-73000000D01*
X79150000Y-76578300D02*
X82155600Y-73572700D01*
X79150000Y-87611800D02*
X79150000Y-76578300D01*
X77202900Y-89558900D02*
X79150000Y-87611800D01*
X77202900Y-102541400D02*
X77202900Y-89558900D01*
X74018200Y-105726100D02*
X77202900Y-102541400D01*
%TO.N,Net-(U2-B0)*%
X76751600Y-99131400D02*
X74030600Y-101852400D01*
X76751600Y-78089400D02*
X76751600Y-99131400D01*
X79890200Y-74950800D02*
X76751600Y-78089400D01*
%TO.N,Net-(J3-Pad14)*%
X86770000Y-83270000D02*
X88439500Y-84939500D01*
X86770000Y-71167500D02*
X86770000Y-83270000D01*
X80184700Y-64582200D02*
X86770000Y-71167500D01*
X78507800Y-64582200D02*
X80184700Y-64582200D01*
X77390000Y-65700000D02*
X78507800Y-64582200D01*
%TO.N,Net-(J1-Pin_11)*%
X136960000Y-73500000D02*
X136960000Y-74650100D01*
X136691900Y-74650100D02*
X136960000Y-74650100D01*
X125819800Y-85522200D02*
X136691900Y-74650100D01*
X125819800Y-88483100D02*
X125819800Y-85522200D01*
X102342900Y-111960000D02*
X125819800Y-88483100D01*
X102342900Y-114964700D02*
X102342900Y-111960000D01*
%TO.N,Net-(J1-Pin_13)*%
X134866700Y-78133300D02*
X136960000Y-76040000D01*
X134866700Y-80453500D02*
X134866700Y-78133300D01*
X105873300Y-109446900D02*
X134866700Y-80453500D01*
X105873300Y-111010500D02*
X105873300Y-109446900D01*
X105699800Y-111184000D02*
X105873300Y-111010500D01*
X105699800Y-119179300D02*
X105699800Y-111184000D01*
X105891600Y-119371100D02*
X105699800Y-119179300D01*
%TO.N,Net-(J1-Pin_14)*%
X138349900Y-76278300D02*
X138349900Y-76040000D01*
X137318200Y-77310000D02*
X138349900Y-76278300D01*
X136510300Y-77310000D02*
X137318200Y-77310000D01*
X135266900Y-78553400D02*
X136510300Y-77310000D01*
X135266900Y-80620600D02*
X135266900Y-78553400D01*
X107158300Y-108729200D02*
X135266900Y-80620600D01*
X107158300Y-119371100D02*
X107158300Y-108729200D01*
X139500000Y-76040000D02*
X138349900Y-76040000D01*
%TO.N,~{V_VISIBLE}*%
X135809900Y-68539100D02*
X135809900Y-68420000D01*
X125869100Y-78479900D02*
X135809900Y-68539100D01*
X122302600Y-78479900D02*
X125869100Y-78479900D01*
X121340100Y-79442400D02*
X122302600Y-78479900D01*
X121340100Y-79580000D02*
X121340100Y-79442400D01*
X120240000Y-79580000D02*
X121340100Y-79580000D01*
X136960000Y-68420000D02*
X135809900Y-68420000D01*
%TO.N,GND*%
X79680000Y-68825000D02*
X78535000Y-67680000D01*
X79680000Y-69660000D02*
X79680000Y-68825000D01*
X73955000Y-70078700D02*
X73955000Y-67680000D01*
X74654600Y-70778300D02*
X73955000Y-70078700D01*
X78561700Y-70778300D02*
X74654600Y-70778300D01*
X79680000Y-69660000D02*
X78561700Y-70778300D01*
X88040000Y-87300000D02*
X88040000Y-86199900D01*
X93739800Y-80500100D02*
X88040000Y-86199900D01*
X93739800Y-73786500D02*
X93739800Y-80500100D01*
X94014000Y-73512300D02*
X93739800Y-73786500D01*
X97084000Y-73162300D02*
X97084000Y-70542300D01*
X96724000Y-70542300D02*
X94014000Y-67832300D01*
X97084000Y-70542300D02*
X96724000Y-70542300D01*
X122780000Y-87200000D02*
X123880100Y-87200000D01*
X122780000Y-87200000D02*
X121679900Y-87200000D01*
X121679900Y-86972100D02*
X121679900Y-87200000D01*
X119495500Y-84787700D02*
X121679900Y-86972100D01*
X118790300Y-84787700D02*
X119495500Y-84787700D01*
X113890000Y-79887400D02*
X118790300Y-84787700D01*
X113890000Y-79271500D02*
X113890000Y-79887400D01*
X108130800Y-73512300D02*
X113890000Y-79271500D01*
X107154000Y-73512300D02*
X108130800Y-73512300D01*
X127975000Y-109025000D02*
X127975000Y-107874900D01*
X136721700Y-72110100D02*
X136960000Y-72110100D01*
X123880100Y-84951700D02*
X136721700Y-72110100D01*
X123880100Y-87200000D02*
X123880100Y-84951700D01*
X136960000Y-70960000D02*
X136960000Y-71535000D01*
X136960000Y-71535000D02*
X136960000Y-72110100D01*
X137774900Y-71535000D02*
X138349900Y-70960000D01*
X136960000Y-71535000D02*
X137774900Y-71535000D01*
X139500000Y-70960000D02*
X138349900Y-70960000D01*
X119794800Y-99982200D02*
X119794800Y-99392300D01*
X127687500Y-107874900D02*
X119794800Y-99982200D01*
X127975000Y-107874900D02*
X127687500Y-107874900D01*
X107154000Y-73512300D02*
X107154000Y-67832300D01*
X111999700Y-67832300D02*
X112776000Y-67056000D01*
X107154000Y-67832300D02*
X111999700Y-67832300D01*
%TO.N,~{SCREEN_VISIBLE}*%
X108681900Y-90983900D02*
X109036900Y-91338900D01*
X108681900Y-86764500D02*
X108681900Y-90983900D01*
X102597500Y-80680100D02*
X108681900Y-86764500D01*
X102460000Y-80680100D02*
X102597500Y-80680100D01*
X102460000Y-79580000D02*
X102460000Y-80680100D01*
%TO.N,~{V_RESET}*%
X105000000Y-79580000D02*
X103899900Y-79580000D01*
X94216700Y-89887200D02*
X92800500Y-89887200D01*
X95940100Y-88163800D02*
X94216700Y-89887200D01*
X95940100Y-86839900D02*
X95940100Y-88163800D01*
X101276400Y-81503600D02*
X95940100Y-86839900D01*
X101276400Y-79150500D02*
X101276400Y-81503600D01*
X101961400Y-78465500D02*
X101276400Y-79150500D01*
X102922900Y-78465500D02*
X101961400Y-78465500D01*
X103899900Y-79442500D02*
X102922900Y-78465500D01*
X103899900Y-79580000D02*
X103899900Y-79442500D01*
%TO.N,PWR*%
X136960000Y-60800000D02*
X135809900Y-60800000D01*
X123444000Y-59436000D02*
X124594100Y-59436000D01*
X127103000Y-61944800D02*
X124594100Y-59436000D01*
X126893200Y-62154600D02*
X127103000Y-61944800D01*
X126893200Y-73553200D02*
X126893200Y-62154600D01*
X128016000Y-74676000D02*
X126893200Y-73553200D01*
X128247800Y-60800000D02*
X135809900Y-60800000D01*
X127103000Y-61944800D02*
X128247800Y-60800000D01*
X94840000Y-79580000D02*
X95940100Y-79580000D01*
X98766400Y-78479900D02*
X104084000Y-73162300D01*
X96902600Y-78479900D02*
X98766400Y-78479900D01*
X95940100Y-79442400D02*
X96902600Y-78479900D01*
X95940100Y-79580000D02*
X95940100Y-79442400D01*
X104084000Y-73162300D02*
X104084000Y-70542300D01*
X112623900Y-59436000D02*
X113792000Y-59436000D01*
X104084000Y-67975900D02*
X112623900Y-59436000D01*
X104084000Y-70542300D02*
X104084000Y-67975900D01*
%TD*%
%TA.AperFunction,Conductor*%
%TO.N,GND*%
G36*
X142942539Y-57520185D02*
G01*
X142988294Y-57572989D01*
X142999500Y-57624500D01*
X142999500Y-131375500D01*
X142979815Y-131442539D01*
X142927011Y-131488294D01*
X142875500Y-131499500D01*
X115656940Y-131499500D01*
X115589901Y-131479815D01*
X115544146Y-131427011D01*
X115534202Y-131357853D01*
X115563227Y-131294297D01*
X115569259Y-131287819D01*
X115679816Y-131177262D01*
X115775789Y-131024522D01*
X115835368Y-130854255D01*
X115835369Y-130854249D01*
X115855565Y-130675003D01*
X115855565Y-130674996D01*
X115835369Y-130495750D01*
X115835368Y-130495745D01*
X115827835Y-130474216D01*
X115775789Y-130325478D01*
X115679816Y-130172738D01*
X115552262Y-130045184D01*
X115520144Y-130025003D01*
X115399521Y-129949210D01*
X115229249Y-129889630D01*
X115142330Y-129879837D01*
X115077916Y-129852770D01*
X115068533Y-129844298D01*
X114645673Y-129421438D01*
X114612188Y-129360115D01*
X114617172Y-129290423D01*
X114659044Y-129234490D01*
X114724508Y-129210073D01*
X114747237Y-129210537D01*
X114924994Y-129230565D01*
X114924998Y-129230565D01*
X114925002Y-129230565D01*
X115104247Y-129210369D01*
X115104250Y-129210368D01*
X115104253Y-129210368D01*
X115274520Y-129150789D01*
X115427260Y-129054816D01*
X115554814Y-128927262D01*
X115650787Y-128774522D01*
X115710366Y-128604255D01*
X115710367Y-128604249D01*
X115730563Y-128425003D01*
X115730563Y-128424996D01*
X115710367Y-128245753D01*
X115710366Y-128245751D01*
X115710366Y-128245745D01*
X115708256Y-128239716D01*
X115690988Y-128190366D01*
X115687426Y-128120587D01*
X115720349Y-128061729D01*
X115754813Y-128027265D01*
X115754813Y-128027264D01*
X115754816Y-128027262D01*
X115850789Y-127874522D01*
X115910368Y-127704255D01*
X115910369Y-127704249D01*
X115930565Y-127525003D01*
X115930565Y-127524996D01*
X115910369Y-127345750D01*
X115910368Y-127345745D01*
X115861994Y-127207500D01*
X115850789Y-127175478D01*
X115831729Y-127145145D01*
X115754815Y-127022737D01*
X115627262Y-126895184D01*
X115474523Y-126799211D01*
X115304254Y-126739631D01*
X115304249Y-126739630D01*
X115125004Y-126719435D01*
X115124996Y-126719435D01*
X114945750Y-126739630D01*
X114945745Y-126739631D01*
X114775476Y-126799211D01*
X114622737Y-126895184D01*
X114495184Y-127022737D01*
X114399211Y-127175476D01*
X114339631Y-127345745D01*
X114339630Y-127345750D01*
X114319435Y-127524996D01*
X114319435Y-127525003D01*
X114339631Y-127704253D01*
X114339631Y-127704254D01*
X114359009Y-127759635D01*
X114362570Y-127829414D01*
X114329650Y-127888267D01*
X114295185Y-127922733D01*
X114295184Y-127922734D01*
X114199209Y-128075476D01*
X114139629Y-128245745D01*
X114139628Y-128245750D01*
X114119433Y-128424996D01*
X114119433Y-128425004D01*
X114139460Y-128602760D01*
X114127405Y-128671582D01*
X114080056Y-128722961D01*
X114012445Y-128740585D01*
X113946040Y-128718858D01*
X113928559Y-128704324D01*
X107128519Y-121904284D01*
X107095034Y-121842961D01*
X107092200Y-121816603D01*
X107092200Y-120294925D01*
X107111885Y-120227886D01*
X107164689Y-120182131D01*
X107202315Y-120171705D01*
X107277749Y-120163206D01*
X107337549Y-120156469D01*
X107337552Y-120156468D01*
X107337555Y-120156468D01*
X107507822Y-120096889D01*
X107660562Y-120000916D01*
X107788116Y-119873362D01*
X107884089Y-119720622D01*
X107943668Y-119550355D01*
X107943669Y-119550349D01*
X107963865Y-119371103D01*
X107963865Y-119371096D01*
X107943669Y-119191850D01*
X107943668Y-119191845D01*
X107921209Y-119127660D01*
X107884089Y-119021578D01*
X107788116Y-118868838D01*
X107788114Y-118868836D01*
X107788113Y-118868834D01*
X107785850Y-118865996D01*
X107784959Y-118863815D01*
X107784411Y-118862942D01*
X107784564Y-118862845D01*
X107759444Y-118801309D01*
X107758800Y-118788687D01*
X107758800Y-117485897D01*
X107778485Y-117418858D01*
X107831289Y-117373103D01*
X107900447Y-117363159D01*
X107964003Y-117392184D01*
X107970480Y-117398215D01*
X113392859Y-122820595D01*
X118781298Y-128209034D01*
X118814783Y-128270357D01*
X118816837Y-128282831D01*
X118826630Y-128369749D01*
X118886210Y-128540021D01*
X118968876Y-128671582D01*
X118982184Y-128692762D01*
X119109738Y-128820316D01*
X119262478Y-128916289D01*
X119397842Y-128963655D01*
X119432745Y-128975868D01*
X119432750Y-128975869D01*
X119611996Y-128996065D01*
X119612000Y-128996065D01*
X119612004Y-128996065D01*
X119791249Y-128975869D01*
X119791252Y-128975868D01*
X119791255Y-128975868D01*
X119961522Y-128916289D01*
X120114262Y-128820316D01*
X120241816Y-128692762D01*
X120337789Y-128540022D01*
X120397368Y-128369755D01*
X120398415Y-128360456D01*
X120425477Y-128296042D01*
X120483069Y-128256483D01*
X120552906Y-128254341D01*
X120609317Y-128286652D01*
X121437039Y-129114374D01*
X121437049Y-129114385D01*
X121441379Y-129118715D01*
X121441380Y-129118716D01*
X121553184Y-129230520D01*
X121553186Y-129230521D01*
X121553190Y-129230524D01*
X121672161Y-129299211D01*
X121690116Y-129309577D01*
X121801919Y-129339534D01*
X121842842Y-129350500D01*
X121842843Y-129350500D01*
X122842588Y-129350500D01*
X122909627Y-129370185D01*
X122919903Y-129377555D01*
X122922736Y-129379814D01*
X122922738Y-129379816D01*
X123075478Y-129475789D01*
X123143306Y-129499523D01*
X123245745Y-129535368D01*
X123245750Y-129535369D01*
X123424996Y-129555565D01*
X123425000Y-129555565D01*
X123425004Y-129555565D01*
X123604249Y-129535369D01*
X123604252Y-129535368D01*
X123604255Y-129535368D01*
X123774522Y-129475789D01*
X123922336Y-129382910D01*
X123989572Y-129363911D01*
X124056408Y-129384279D01*
X124075989Y-129400224D01*
X125119298Y-130443534D01*
X125152783Y-130504857D01*
X125154837Y-130517331D01*
X125164630Y-130604249D01*
X125224210Y-130774521D01*
X125320184Y-130927262D01*
X125447738Y-131054816D01*
X125600478Y-131150789D01*
X125770745Y-131210368D01*
X125770750Y-131210369D01*
X125949996Y-131230565D01*
X125950000Y-131230565D01*
X125950004Y-131230565D01*
X126129249Y-131210369D01*
X126129252Y-131210368D01*
X126129255Y-131210368D01*
X126299522Y-131150789D01*
X126452262Y-131054816D01*
X126579816Y-130927262D01*
X126675789Y-130774522D01*
X126735368Y-130604255D01*
X126745162Y-130517331D01*
X126755565Y-130425003D01*
X126755565Y-130424996D01*
X126735369Y-130245750D01*
X126735368Y-130245745D01*
X126720848Y-130204249D01*
X126675789Y-130075478D01*
X126594783Y-129946558D01*
X126575784Y-129879324D01*
X126596152Y-129812488D01*
X126622471Y-129783637D01*
X126627258Y-129779819D01*
X126627259Y-129779817D01*
X126627262Y-129779816D01*
X126754816Y-129652262D01*
X126850789Y-129499522D01*
X126910368Y-129329255D01*
X126910369Y-129329249D01*
X126930565Y-129150003D01*
X126930565Y-129149996D01*
X126911229Y-128978383D01*
X126923283Y-128909562D01*
X126970633Y-128858182D01*
X127034449Y-128840500D01*
X127239903Y-128840500D01*
X127306942Y-128860185D01*
X127327584Y-128876819D01*
X128494298Y-130043533D01*
X128527783Y-130104856D01*
X128529837Y-130117330D01*
X128539630Y-130204249D01*
X128599210Y-130374521D01*
X128675384Y-130495750D01*
X128695184Y-130527262D01*
X128822738Y-130654816D01*
X128975478Y-130750789D01*
X129043306Y-130774523D01*
X129145745Y-130810368D01*
X129145750Y-130810369D01*
X129324996Y-130830565D01*
X129325000Y-130830565D01*
X129325004Y-130830565D01*
X129504249Y-130810369D01*
X129504252Y-130810368D01*
X129504255Y-130810368D01*
X129674522Y-130750789D01*
X129827262Y-130654816D01*
X129954816Y-130527262D01*
X130050789Y-130374522D01*
X130110368Y-130204255D01*
X130113919Y-130172738D01*
X130130565Y-130025003D01*
X130130565Y-130024996D01*
X130110369Y-129845750D01*
X130110368Y-129845745D01*
X130106630Y-129835063D01*
X130050789Y-129675478D01*
X130049882Y-129674035D01*
X130011582Y-129613080D01*
X129954816Y-129522738D01*
X129827262Y-129395184D01*
X129789402Y-129371395D01*
X129674521Y-129299210D01*
X129504249Y-129239630D01*
X129417330Y-129229837D01*
X129352916Y-129202770D01*
X129343533Y-129194298D01*
X128027590Y-127878355D01*
X128027588Y-127878352D01*
X127908717Y-127759481D01*
X127908716Y-127759480D01*
X127804326Y-127699211D01*
X127804325Y-127699210D01*
X127771783Y-127680422D01*
X127715881Y-127665443D01*
X127619057Y-127639499D01*
X127460943Y-127639499D01*
X127453347Y-127639499D01*
X127453331Y-127639500D01*
X126488481Y-127639500D01*
X126421442Y-127619815D01*
X126375687Y-127567011D01*
X126365261Y-127529383D01*
X126349269Y-127387450D01*
X126349268Y-127387445D01*
X126334678Y-127345750D01*
X126289689Y-127217178D01*
X126193716Y-127064438D01*
X126066162Y-126936884D01*
X125934933Y-126854427D01*
X125888642Y-126802092D01*
X125877994Y-126733038D01*
X125906369Y-126669190D01*
X125934930Y-126644441D01*
X125973962Y-126619916D01*
X126101516Y-126492362D01*
X126197489Y-126339622D01*
X126257068Y-126169355D01*
X126257069Y-126169349D01*
X126277265Y-125990103D01*
X126277265Y-125990096D01*
X126257069Y-125810850D01*
X126257068Y-125810845D01*
X126209903Y-125676055D01*
X126197489Y-125640578D01*
X126101516Y-125487838D01*
X125973962Y-125360284D01*
X125941496Y-125339884D01*
X125821221Y-125264310D01*
X125721506Y-125229419D01*
X125664730Y-125188697D01*
X125638982Y-125123745D01*
X125652438Y-125055183D01*
X125696486Y-125007384D01*
X125841262Y-124916416D01*
X125968816Y-124788862D01*
X126064789Y-124636122D01*
X126124368Y-124465855D01*
X126125197Y-124458498D01*
X126144565Y-124286603D01*
X126144565Y-124286596D01*
X126124369Y-124107350D01*
X126124368Y-124107345D01*
X126064788Y-123937076D01*
X126031221Y-123883655D01*
X125968816Y-123784338D01*
X125968814Y-123784336D01*
X125968813Y-123784334D01*
X125966550Y-123781496D01*
X125965659Y-123779315D01*
X125965111Y-123778442D01*
X125965264Y-123778345D01*
X125940144Y-123716809D01*
X125939500Y-123704187D01*
X125939500Y-123419999D01*
X135644341Y-123419999D01*
X135644341Y-123420000D01*
X135664936Y-123655403D01*
X135664938Y-123655413D01*
X135726094Y-123883655D01*
X135726096Y-123883659D01*
X135726097Y-123883663D01*
X135751004Y-123937076D01*
X135825965Y-124097830D01*
X135825967Y-124097834D01*
X135910200Y-124218130D01*
X135961501Y-124291396D01*
X135961506Y-124291402D01*
X136128597Y-124458493D01*
X136128603Y-124458498D01*
X136314158Y-124588425D01*
X136357783Y-124643002D01*
X136364977Y-124712500D01*
X136333454Y-124774855D01*
X136314158Y-124791575D01*
X136128597Y-124921505D01*
X135961505Y-125088597D01*
X135825965Y-125282169D01*
X135825964Y-125282171D01*
X135726098Y-125496335D01*
X135726094Y-125496344D01*
X135664938Y-125724586D01*
X135664936Y-125724596D01*
X135644341Y-125959999D01*
X135644341Y-125960000D01*
X135664936Y-126195403D01*
X135664938Y-126195413D01*
X135726094Y-126423655D01*
X135726096Y-126423659D01*
X135726097Y-126423663D01*
X135758132Y-126492362D01*
X135825965Y-126637830D01*
X135825967Y-126637834D01*
X135908056Y-126755068D01*
X135961501Y-126831396D01*
X135961506Y-126831402D01*
X136128597Y-126998493D01*
X136128603Y-126998498D01*
X136314158Y-127128425D01*
X136357783Y-127183002D01*
X136364977Y-127252500D01*
X136333454Y-127314855D01*
X136314158Y-127331575D01*
X136128597Y-127461505D01*
X135961505Y-127628597D01*
X135825965Y-127822169D01*
X135825964Y-127822171D01*
X135726098Y-128036335D01*
X135726094Y-128036344D01*
X135664938Y-128264586D01*
X135664936Y-128264596D01*
X135644341Y-128499999D01*
X135644341Y-128500000D01*
X135664936Y-128735403D01*
X135664938Y-128735413D01*
X135726094Y-128963655D01*
X135726096Y-128963659D01*
X135726097Y-128963663D01*
X135796375Y-129114374D01*
X135825965Y-129177830D01*
X135825967Y-129177834D01*
X135918215Y-129309576D01*
X135961505Y-129371401D01*
X136128599Y-129538495D01*
X136225384Y-129606265D01*
X136322165Y-129674032D01*
X136322167Y-129674033D01*
X136322170Y-129674035D01*
X136536337Y-129773903D01*
X136764592Y-129835063D01*
X136952918Y-129851539D01*
X136999999Y-129855659D01*
X137000000Y-129855659D01*
X137000001Y-129855659D01*
X137039234Y-129852226D01*
X137235408Y-129835063D01*
X137463663Y-129773903D01*
X137677830Y-129674035D01*
X137871401Y-129538495D01*
X138038495Y-129371401D01*
X138168425Y-129185842D01*
X138223002Y-129142217D01*
X138292500Y-129135023D01*
X138354855Y-129166546D01*
X138371575Y-129185842D01*
X138501500Y-129371395D01*
X138501505Y-129371401D01*
X138668599Y-129538495D01*
X138765384Y-129606265D01*
X138862165Y-129674032D01*
X138862167Y-129674033D01*
X138862170Y-129674035D01*
X139076337Y-129773903D01*
X139304592Y-129835063D01*
X139492918Y-129851539D01*
X139539999Y-129855659D01*
X139540000Y-129855659D01*
X139540001Y-129855659D01*
X139579234Y-129852226D01*
X139775408Y-129835063D01*
X140003663Y-129773903D01*
X140217830Y-129674035D01*
X140411401Y-129538495D01*
X140578495Y-129371401D01*
X140714035Y-129177830D01*
X140813903Y-128963663D01*
X140875063Y-128735408D01*
X140895659Y-128500000D01*
X140875063Y-128264592D01*
X140813903Y-128036337D01*
X140714035Y-127822171D01*
X140708425Y-127814158D01*
X140578494Y-127628597D01*
X140411402Y-127461506D01*
X140411396Y-127461501D01*
X140225842Y-127331575D01*
X140182217Y-127276998D01*
X140175023Y-127207500D01*
X140206546Y-127145145D01*
X140225842Y-127128425D01*
X140248026Y-127112891D01*
X140411401Y-126998495D01*
X140578495Y-126831401D01*
X140714035Y-126637830D01*
X140813903Y-126423663D01*
X140875063Y-126195408D01*
X140895659Y-125960000D01*
X140875063Y-125724592D01*
X140822467Y-125528298D01*
X140813905Y-125496344D01*
X140813904Y-125496343D01*
X140813903Y-125496337D01*
X140714035Y-125282171D01*
X140708425Y-125274158D01*
X140578494Y-125088597D01*
X140411402Y-124921506D01*
X140411396Y-124921501D01*
X140225842Y-124791575D01*
X140182217Y-124736998D01*
X140175023Y-124667500D01*
X140206546Y-124605145D01*
X140225842Y-124588425D01*
X140263531Y-124562035D01*
X140411401Y-124458495D01*
X140578495Y-124291401D01*
X140714035Y-124097830D01*
X140813903Y-123883663D01*
X140875063Y-123655408D01*
X140895659Y-123420000D01*
X140875063Y-123184592D01*
X140822934Y-122990042D01*
X140813905Y-122956344D01*
X140813904Y-122956343D01*
X140813903Y-122956337D01*
X140714035Y-122742171D01*
X140708425Y-122734158D01*
X140578494Y-122548597D01*
X140411402Y-122381506D01*
X140411396Y-122381501D01*
X140225842Y-122251575D01*
X140182217Y-122196998D01*
X140175023Y-122127500D01*
X140206546Y-122065145D01*
X140225842Y-122048425D01*
X140309810Y-121989630D01*
X140411401Y-121918495D01*
X140578495Y-121751401D01*
X140714035Y-121557830D01*
X140813903Y-121343663D01*
X140875063Y-121115408D01*
X140895659Y-120880000D01*
X140875063Y-120644592D01*
X140813903Y-120416337D01*
X140714035Y-120202171D01*
X140702271Y-120185369D01*
X140578494Y-120008597D01*
X140411402Y-119841506D01*
X140411395Y-119841501D01*
X140217834Y-119705967D01*
X140217830Y-119705965D01*
X140188096Y-119692100D01*
X140003663Y-119606097D01*
X140003659Y-119606096D01*
X140003655Y-119606094D01*
X139775413Y-119544938D01*
X139775403Y-119544936D01*
X139540001Y-119524341D01*
X139539999Y-119524341D01*
X139304596Y-119544936D01*
X139304586Y-119544938D01*
X139076344Y-119606094D01*
X139076335Y-119606098D01*
X138862171Y-119705964D01*
X138862169Y-119705965D01*
X138668600Y-119841503D01*
X138546673Y-119963430D01*
X138485350Y-119996914D01*
X138415658Y-119991930D01*
X138359725Y-119950058D01*
X138342810Y-119919081D01*
X138293797Y-119787671D01*
X138293793Y-119787664D01*
X138207547Y-119672455D01*
X138207544Y-119672452D01*
X138092335Y-119586206D01*
X138092328Y-119586202D01*
X137957482Y-119535908D01*
X137957483Y-119535908D01*
X137897883Y-119529501D01*
X137897881Y-119529500D01*
X137897873Y-119529500D01*
X137897864Y-119529500D01*
X136102129Y-119529500D01*
X136102123Y-119529501D01*
X136042516Y-119535908D01*
X135907671Y-119586202D01*
X135907664Y-119586206D01*
X135792455Y-119672452D01*
X135792452Y-119672455D01*
X135706206Y-119787664D01*
X135706202Y-119787671D01*
X135655908Y-119922517D01*
X135649501Y-119982116D01*
X135649500Y-119982135D01*
X135649500Y-121777870D01*
X135649501Y-121777876D01*
X135655908Y-121837483D01*
X135706202Y-121972328D01*
X135706206Y-121972335D01*
X135792452Y-122087544D01*
X135792455Y-122087547D01*
X135907664Y-122173793D01*
X135907671Y-122173797D01*
X136039081Y-122222810D01*
X136095015Y-122264681D01*
X136119432Y-122330145D01*
X136104580Y-122398418D01*
X136083430Y-122426673D01*
X135961503Y-122548600D01*
X135825965Y-122742169D01*
X135825964Y-122742171D01*
X135726098Y-122956335D01*
X135726094Y-122956344D01*
X135664938Y-123184586D01*
X135664936Y-123184596D01*
X135644341Y-123419999D01*
X125939500Y-123419999D01*
X125939500Y-119399996D01*
X129019435Y-119399996D01*
X129019435Y-119400003D01*
X129039630Y-119579249D01*
X129039631Y-119579254D01*
X129099211Y-119749523D01*
X129157008Y-119841505D01*
X129195184Y-119902262D01*
X129322738Y-120029816D01*
X129413080Y-120086582D01*
X129463686Y-120118380D01*
X129475478Y-120125789D01*
X129620742Y-120176619D01*
X129645745Y-120185368D01*
X129645750Y-120185369D01*
X129824996Y-120205565D01*
X129825000Y-120205565D01*
X129825004Y-120205565D01*
X130004249Y-120185369D01*
X130004252Y-120185368D01*
X130004255Y-120185368D01*
X130174522Y-120125789D01*
X130327262Y-120029816D01*
X130454816Y-119902262D01*
X130550789Y-119749522D01*
X130610368Y-119579255D01*
X130620161Y-119492329D01*
X130647226Y-119427918D01*
X130655690Y-119418543D01*
X135447452Y-114626781D01*
X135508773Y-114593298D01*
X135578465Y-114598282D01*
X135634398Y-114640154D01*
X135658659Y-114703656D01*
X135664936Y-114775403D01*
X135664938Y-114775413D01*
X135726094Y-115003655D01*
X135726096Y-115003659D01*
X135726097Y-115003663D01*
X135795172Y-115151794D01*
X135825965Y-115217830D01*
X135825967Y-115217834D01*
X135912894Y-115341977D01*
X135961505Y-115411401D01*
X136128599Y-115578495D01*
X136159316Y-115600003D01*
X136322165Y-115714032D01*
X136322167Y-115714033D01*
X136322170Y-115714035D01*
X136536337Y-115813903D01*
X136764592Y-115875063D01*
X136952918Y-115891539D01*
X136999999Y-115895659D01*
X137000000Y-115895659D01*
X137000001Y-115895659D01*
X137039234Y-115892226D01*
X137235408Y-115875063D01*
X137463663Y-115813903D01*
X137677830Y-115714035D01*
X137871401Y-115578495D01*
X138038495Y-115411401D01*
X138168425Y-115225842D01*
X138223002Y-115182217D01*
X138292500Y-115175023D01*
X138354855Y-115206546D01*
X138371575Y-115225842D01*
X138501500Y-115411395D01*
X138501505Y-115411401D01*
X138668599Y-115578495D01*
X138699316Y-115600003D01*
X138862165Y-115714032D01*
X138862167Y-115714033D01*
X138862170Y-115714035D01*
X139076337Y-115813903D01*
X139304592Y-115875063D01*
X139492918Y-115891539D01*
X139539999Y-115895659D01*
X139540000Y-115895659D01*
X139540001Y-115895659D01*
X139579234Y-115892226D01*
X139775408Y-115875063D01*
X140003663Y-115813903D01*
X140217830Y-115714035D01*
X140411401Y-115578495D01*
X140578495Y-115411401D01*
X140714035Y-115217830D01*
X140813903Y-115003663D01*
X140875063Y-114775408D01*
X140895659Y-114540000D01*
X140875063Y-114304592D01*
X140824652Y-114116453D01*
X140813905Y-114076344D01*
X140813904Y-114076343D01*
X140813903Y-114076337D01*
X140714035Y-113862171D01*
X140707991Y-113853538D01*
X140578494Y-113668597D01*
X140411402Y-113501506D01*
X140411396Y-113501501D01*
X140225842Y-113371575D01*
X140182217Y-113316998D01*
X140175023Y-113247500D01*
X140206546Y-113185145D01*
X140225842Y-113168425D01*
X140280256Y-113130324D01*
X140411401Y-113038495D01*
X140578495Y-112871401D01*
X140714035Y-112677830D01*
X140813903Y-112463663D01*
X140875063Y-112235408D01*
X140895659Y-112000000D01*
X140892533Y-111964276D01*
X140882753Y-111852484D01*
X140875063Y-111764592D01*
X140819570Y-111557486D01*
X140813905Y-111536344D01*
X140813904Y-111536343D01*
X140813903Y-111536337D01*
X140714035Y-111322171D01*
X140708425Y-111314158D01*
X140578494Y-111128597D01*
X140411402Y-110961506D01*
X140411396Y-110961501D01*
X140225842Y-110831575D01*
X140182217Y-110776998D01*
X140175023Y-110707500D01*
X140206546Y-110645145D01*
X140225842Y-110628425D01*
X140279182Y-110591076D01*
X140411401Y-110498495D01*
X140578495Y-110331401D01*
X140714035Y-110137830D01*
X140813903Y-109923663D01*
X140875063Y-109695408D01*
X140895659Y-109460000D01*
X140892605Y-109425099D01*
X140878654Y-109265638D01*
X140875063Y-109224592D01*
X140813903Y-108996337D01*
X140714035Y-108782171D01*
X140708425Y-108774158D01*
X140578494Y-108588597D01*
X140411402Y-108421506D01*
X140411396Y-108421501D01*
X140225842Y-108291575D01*
X140182217Y-108236998D01*
X140175023Y-108167500D01*
X140206546Y-108105145D01*
X140225842Y-108088425D01*
X140295698Y-108039511D01*
X140411401Y-107958495D01*
X140578495Y-107791401D01*
X140714035Y-107597830D01*
X140813903Y-107383663D01*
X140875063Y-107155408D01*
X140895659Y-106920000D01*
X140875063Y-106684592D01*
X140813903Y-106456337D01*
X140714035Y-106242171D01*
X140708425Y-106234158D01*
X140578494Y-106048597D01*
X140411402Y-105881506D01*
X140411396Y-105881501D01*
X140225842Y-105751575D01*
X140182217Y-105696998D01*
X140175023Y-105627500D01*
X140206546Y-105565145D01*
X140225842Y-105548425D01*
X140371397Y-105446506D01*
X140411401Y-105418495D01*
X140578495Y-105251401D01*
X140714035Y-105057830D01*
X140813903Y-104843663D01*
X140875063Y-104615408D01*
X140895659Y-104380000D01*
X140875063Y-104144592D01*
X140821583Y-103944999D01*
X140813905Y-103916344D01*
X140813904Y-103916343D01*
X140813903Y-103916337D01*
X140714035Y-103702171D01*
X140708425Y-103694158D01*
X140578494Y-103508597D01*
X140411402Y-103341506D01*
X140411396Y-103341501D01*
X140225842Y-103211575D01*
X140182217Y-103156998D01*
X140175023Y-103087500D01*
X140206546Y-103025145D01*
X140225842Y-103008425D01*
X140366240Y-102910117D01*
X140411401Y-102878495D01*
X140578495Y-102711401D01*
X140714035Y-102517830D01*
X140813903Y-102303663D01*
X140875063Y-102075408D01*
X140895659Y-101840000D01*
X140894278Y-101824221D01*
X140879382Y-101653955D01*
X140875063Y-101604592D01*
X140813903Y-101376337D01*
X140714035Y-101162171D01*
X140708425Y-101154158D01*
X140578494Y-100968597D01*
X140411402Y-100801506D01*
X140411396Y-100801501D01*
X140225842Y-100671575D01*
X140182217Y-100616998D01*
X140175023Y-100547500D01*
X140206546Y-100485145D01*
X140225842Y-100468425D01*
X140326542Y-100397914D01*
X140411401Y-100338495D01*
X140578495Y-100171401D01*
X140714035Y-99977830D01*
X140813903Y-99763663D01*
X140875063Y-99535408D01*
X140895659Y-99300000D01*
X140875063Y-99064592D01*
X140813903Y-98836337D01*
X140714035Y-98622171D01*
X140708425Y-98614158D01*
X140578494Y-98428597D01*
X140411402Y-98261506D01*
X140411396Y-98261501D01*
X140225842Y-98131575D01*
X140182217Y-98076998D01*
X140175023Y-98007500D01*
X140206546Y-97945145D01*
X140225842Y-97928425D01*
X140314811Y-97866128D01*
X140411401Y-97798495D01*
X140578495Y-97631401D01*
X140714035Y-97437830D01*
X140813903Y-97223663D01*
X140875063Y-96995408D01*
X140895659Y-96760000D01*
X140895464Y-96757776D01*
X140885820Y-96647538D01*
X140875063Y-96524592D01*
X140813903Y-96296337D01*
X140714035Y-96082171D01*
X140712489Y-96079962D01*
X140578494Y-95888597D01*
X140411402Y-95721506D01*
X140411396Y-95721501D01*
X140225842Y-95591575D01*
X140182217Y-95536998D01*
X140175023Y-95467500D01*
X140206546Y-95405145D01*
X140225842Y-95388425D01*
X140338718Y-95309388D01*
X140411401Y-95258495D01*
X140578495Y-95091401D01*
X140714035Y-94897830D01*
X140813903Y-94683663D01*
X140875063Y-94455408D01*
X140895659Y-94220000D01*
X140875063Y-93984592D01*
X140813903Y-93756337D01*
X140714035Y-93542171D01*
X140708425Y-93534158D01*
X140578494Y-93348597D01*
X140411402Y-93181506D01*
X140411396Y-93181501D01*
X140225842Y-93051575D01*
X140182217Y-92996998D01*
X140175023Y-92927500D01*
X140206546Y-92865145D01*
X140225842Y-92848425D01*
X140269947Y-92817542D01*
X140411401Y-92718495D01*
X140578495Y-92551401D01*
X140714035Y-92357830D01*
X140813903Y-92143663D01*
X140875063Y-91915408D01*
X140895659Y-91680000D01*
X140875063Y-91444592D01*
X140817117Y-91228331D01*
X140813905Y-91216344D01*
X140813904Y-91216343D01*
X140813903Y-91216337D01*
X140714035Y-91002171D01*
X140700190Y-90982397D01*
X140578494Y-90808597D01*
X140411402Y-90641506D01*
X140411395Y-90641501D01*
X140394037Y-90629347D01*
X140334518Y-90587671D01*
X140217834Y-90505967D01*
X140217830Y-90505965D01*
X140203816Y-90499430D01*
X140003663Y-90406097D01*
X140003659Y-90406096D01*
X140003655Y-90406094D01*
X139775413Y-90344938D01*
X139775403Y-90344936D01*
X139540001Y-90324341D01*
X139539999Y-90324341D01*
X139304596Y-90344936D01*
X139304586Y-90344938D01*
X139076344Y-90406094D01*
X139076335Y-90406098D01*
X138862171Y-90505964D01*
X138862169Y-90505965D01*
X138668600Y-90641503D01*
X138546673Y-90763430D01*
X138485350Y-90796914D01*
X138415658Y-90791930D01*
X138359725Y-90750058D01*
X138342810Y-90719081D01*
X138293797Y-90587671D01*
X138293793Y-90587664D01*
X138207547Y-90472455D01*
X138207544Y-90472452D01*
X138092335Y-90386206D01*
X138092328Y-90386202D01*
X137957482Y-90335908D01*
X137957483Y-90335908D01*
X137897883Y-90329501D01*
X137897881Y-90329500D01*
X137897873Y-90329500D01*
X137897864Y-90329500D01*
X136102129Y-90329500D01*
X136102123Y-90329501D01*
X136042516Y-90335908D01*
X135907671Y-90386202D01*
X135907664Y-90386206D01*
X135792455Y-90472452D01*
X135792452Y-90472455D01*
X135706206Y-90587664D01*
X135706202Y-90587671D01*
X135655908Y-90722517D01*
X135649501Y-90782116D01*
X135649500Y-90782135D01*
X135649500Y-92577870D01*
X135649501Y-92577876D01*
X135655908Y-92637483D01*
X135706202Y-92772328D01*
X135706206Y-92772335D01*
X135792452Y-92887544D01*
X135792455Y-92887547D01*
X135907664Y-92973793D01*
X135907671Y-92973797D01*
X136039081Y-93022810D01*
X136095015Y-93064681D01*
X136119432Y-93130145D01*
X136104580Y-93198418D01*
X136083430Y-93226673D01*
X135961503Y-93348600D01*
X135825965Y-93542169D01*
X135825964Y-93542171D01*
X135726098Y-93756335D01*
X135726094Y-93756344D01*
X135664938Y-93984586D01*
X135664936Y-93984596D01*
X135644341Y-94219999D01*
X135644341Y-94220000D01*
X135664936Y-94455403D01*
X135664938Y-94455413D01*
X135726094Y-94683655D01*
X135726096Y-94683659D01*
X135726097Y-94683663D01*
X135805684Y-94854338D01*
X135825965Y-94897830D01*
X135825967Y-94897834D01*
X135902460Y-95007076D01*
X135961501Y-95091396D01*
X135961506Y-95091402D01*
X136128597Y-95258493D01*
X136128603Y-95258498D01*
X136314158Y-95388425D01*
X136357783Y-95443002D01*
X136364977Y-95512500D01*
X136333454Y-95574855D01*
X136314158Y-95591575D01*
X136128597Y-95721505D01*
X135961505Y-95888597D01*
X135825965Y-96082169D01*
X135825964Y-96082171D01*
X135726098Y-96296335D01*
X135726094Y-96296344D01*
X135664938Y-96524586D01*
X135664936Y-96524596D01*
X135644341Y-96759999D01*
X135644341Y-96760000D01*
X135664936Y-96995403D01*
X135664938Y-96995413D01*
X135726094Y-97223655D01*
X135726096Y-97223659D01*
X135726097Y-97223663D01*
X135776133Y-97330965D01*
X135825965Y-97437830D01*
X135825967Y-97437834D01*
X135929769Y-97586078D01*
X135961501Y-97631396D01*
X135961506Y-97631402D01*
X136128597Y-97798493D01*
X136128603Y-97798498D01*
X136314158Y-97928425D01*
X136357783Y-97983002D01*
X136364977Y-98052500D01*
X136333454Y-98114855D01*
X136314158Y-98131575D01*
X136128597Y-98261505D01*
X135961505Y-98428597D01*
X135825965Y-98622169D01*
X135825964Y-98622171D01*
X135726098Y-98836335D01*
X135726094Y-98836344D01*
X135664938Y-99064586D01*
X135664936Y-99064596D01*
X135644341Y-99299999D01*
X135644341Y-99300000D01*
X135664936Y-99535403D01*
X135664938Y-99535413D01*
X135726094Y-99763655D01*
X135726096Y-99763659D01*
X135726097Y-99763663D01*
X135730000Y-99772032D01*
X135825965Y-99977830D01*
X135825967Y-99977834D01*
X135880212Y-100055303D01*
X135961501Y-100171396D01*
X135961506Y-100171402D01*
X136128597Y-100338493D01*
X136128603Y-100338498D01*
X136314158Y-100468425D01*
X136357783Y-100523002D01*
X136364977Y-100592500D01*
X136333454Y-100654855D01*
X136314158Y-100671575D01*
X136128597Y-100801505D01*
X135961505Y-100968597D01*
X135825965Y-101162169D01*
X135825964Y-101162171D01*
X135726098Y-101376335D01*
X135726094Y-101376344D01*
X135664938Y-101604586D01*
X135664936Y-101604596D01*
X135644341Y-101839999D01*
X135644341Y-101840000D01*
X135664936Y-102075403D01*
X135664938Y-102075413D01*
X135726094Y-102303655D01*
X135726096Y-102303659D01*
X135726097Y-102303663D01*
X135781169Y-102421765D01*
X135825965Y-102517830D01*
X135825967Y-102517834D01*
X135909947Y-102637769D01*
X135961501Y-102711396D01*
X135961506Y-102711402D01*
X136128597Y-102878493D01*
X136128603Y-102878498D01*
X136314158Y-103008425D01*
X136357783Y-103063002D01*
X136364977Y-103132500D01*
X136333454Y-103194855D01*
X136314158Y-103211575D01*
X136128597Y-103341505D01*
X135961505Y-103508597D01*
X135825965Y-103702169D01*
X135825964Y-103702171D01*
X135726098Y-103916335D01*
X135726094Y-103916344D01*
X135664938Y-104144586D01*
X135664936Y-104144596D01*
X135644341Y-104379999D01*
X135644341Y-104380000D01*
X135664936Y-104615403D01*
X135664938Y-104615413D01*
X135726094Y-104843655D01*
X135726096Y-104843659D01*
X135726097Y-104843663D01*
X135806004Y-105015023D01*
X135825965Y-105057830D01*
X135825967Y-105057834D01*
X135931449Y-105208477D01*
X135961501Y-105251396D01*
X135961506Y-105251402D01*
X136128597Y-105418493D01*
X136128603Y-105418498D01*
X136314158Y-105548425D01*
X136357783Y-105603002D01*
X136364977Y-105672500D01*
X136333454Y-105734855D01*
X136314158Y-105751575D01*
X136128597Y-105881505D01*
X135961505Y-106048597D01*
X135825965Y-106242169D01*
X135825964Y-106242171D01*
X135752677Y-106399337D01*
X135727018Y-106454363D01*
X135726098Y-106456335D01*
X135726094Y-106456344D01*
X135664938Y-106684586D01*
X135664936Y-106684596D01*
X135644341Y-106919999D01*
X135644341Y-106920000D01*
X135664936Y-107155403D01*
X135664938Y-107155413D01*
X135726094Y-107383655D01*
X135726096Y-107383659D01*
X135726097Y-107383663D01*
X135813073Y-107570184D01*
X135825965Y-107597830D01*
X135825967Y-107597834D01*
X135924383Y-107738386D01*
X135961501Y-107791396D01*
X135961506Y-107791402D01*
X136128597Y-107958493D01*
X136128603Y-107958498D01*
X136314158Y-108088425D01*
X136357783Y-108143002D01*
X136364977Y-108212500D01*
X136333454Y-108274855D01*
X136314158Y-108291575D01*
X136128597Y-108421505D01*
X135961505Y-108588597D01*
X135825965Y-108782169D01*
X135825964Y-108782171D01*
X135726098Y-108996335D01*
X135726094Y-108996344D01*
X135664938Y-109224586D01*
X135664936Y-109224596D01*
X135644341Y-109459999D01*
X135644341Y-109460000D01*
X135664936Y-109695403D01*
X135664938Y-109695413D01*
X135726094Y-109923655D01*
X135726096Y-109923659D01*
X135726097Y-109923663D01*
X135812468Y-110108886D01*
X135825965Y-110137830D01*
X135825967Y-110137834D01*
X135918625Y-110270162D01*
X135961501Y-110331396D01*
X135961506Y-110331402D01*
X136128597Y-110498493D01*
X136128603Y-110498498D01*
X136314158Y-110628425D01*
X136357783Y-110683002D01*
X136364977Y-110752500D01*
X136333454Y-110814855D01*
X136314158Y-110831575D01*
X136128597Y-110961505D01*
X135961505Y-111128597D01*
X135825965Y-111322169D01*
X135825964Y-111322171D01*
X135726098Y-111536335D01*
X135726094Y-111536344D01*
X135664938Y-111764586D01*
X135664936Y-111764596D01*
X135644341Y-111999999D01*
X135644341Y-112000000D01*
X135664936Y-112235403D01*
X135664938Y-112235413D01*
X135726094Y-112463655D01*
X135726096Y-112463659D01*
X135726097Y-112463663D01*
X135754274Y-112524088D01*
X135768124Y-112553790D01*
X135778616Y-112622868D01*
X135750096Y-112686652D01*
X135717744Y-112713581D01*
X135697818Y-112725086D01*
X135673095Y-112739360D01*
X135644627Y-112755796D01*
X135586285Y-112789479D01*
X135586282Y-112789481D01*
X135474478Y-112901286D01*
X129806465Y-118569298D01*
X129745142Y-118602783D01*
X129732668Y-118604837D01*
X129645750Y-118614630D01*
X129475478Y-118674210D01*
X129322737Y-118770184D01*
X129195184Y-118897737D01*
X129099211Y-119050476D01*
X129039631Y-119220745D01*
X129039630Y-119220750D01*
X129019435Y-119399996D01*
X125939500Y-119399996D01*
X125939500Y-116549996D01*
X128944435Y-116549996D01*
X128944435Y-116550003D01*
X128964630Y-116729249D01*
X128964631Y-116729254D01*
X129024211Y-116899523D01*
X129110464Y-117036793D01*
X129120184Y-117052262D01*
X129247738Y-117179816D01*
X129400478Y-117275789D01*
X129445772Y-117291638D01*
X129570745Y-117335368D01*
X129570750Y-117335369D01*
X129749996Y-117355565D01*
X129750000Y-117355565D01*
X129750004Y-117355565D01*
X129929249Y-117335369D01*
X129929252Y-117335368D01*
X129929255Y-117335368D01*
X130099522Y-117275789D01*
X130252262Y-117179816D01*
X130379816Y-117052262D01*
X130475789Y-116899522D01*
X130535368Y-116729255D01*
X130538184Y-116704265D01*
X130555565Y-116550003D01*
X130555565Y-116549996D01*
X130535369Y-116370750D01*
X130535368Y-116370745D01*
X130499657Y-116268688D01*
X130475789Y-116200478D01*
X130379816Y-116047738D01*
X130252262Y-115920184D01*
X130099523Y-115824211D01*
X129929254Y-115764631D01*
X129929249Y-115764630D01*
X129750004Y-115744435D01*
X129749996Y-115744435D01*
X129570750Y-115764630D01*
X129570745Y-115764631D01*
X129400476Y-115824211D01*
X129247737Y-115920184D01*
X129120184Y-116047737D01*
X129024211Y-116200476D01*
X128964631Y-116370745D01*
X128964630Y-116370750D01*
X128944435Y-116549996D01*
X125939500Y-116549996D01*
X125939500Y-116514970D01*
X125959185Y-116447931D01*
X126011989Y-116402176D01*
X126077383Y-116391750D01*
X126199996Y-116405565D01*
X126200000Y-116405565D01*
X126200004Y-116405565D01*
X126379249Y-116385369D01*
X126379252Y-116385368D01*
X126379255Y-116385368D01*
X126549522Y-116325789D01*
X126702262Y-116229816D01*
X126829816Y-116102262D01*
X126925789Y-115949522D01*
X126985368Y-115779255D01*
X126987016Y-115764630D01*
X127005565Y-115600003D01*
X127005565Y-115599996D01*
X126985369Y-115420750D01*
X126985368Y-115420745D01*
X126982096Y-115411395D01*
X126925789Y-115250478D01*
X126905277Y-115217834D01*
X126857105Y-115141168D01*
X126829816Y-115097738D01*
X126702262Y-114970184D01*
X126625826Y-114922156D01*
X126549523Y-114874211D01*
X126379254Y-114814631D01*
X126379249Y-114814630D01*
X126200004Y-114794435D01*
X126199996Y-114794435D01*
X126020750Y-114814630D01*
X126020745Y-114814631D01*
X125850476Y-114874211D01*
X125697737Y-114970184D01*
X125570185Y-115097736D01*
X125548370Y-115132454D01*
X125496034Y-115178744D01*
X125426981Y-115189391D01*
X125363133Y-115161015D01*
X125355696Y-115154161D01*
X123401531Y-113199996D01*
X125219435Y-113199996D01*
X125219435Y-113200003D01*
X125239630Y-113379249D01*
X125239631Y-113379254D01*
X125299211Y-113549523D01*
X125374031Y-113668597D01*
X125395184Y-113702262D01*
X125522738Y-113829816D01*
X125574231Y-113862171D01*
X125672931Y-113924189D01*
X125675478Y-113925789D01*
X125841172Y-113983768D01*
X125845745Y-113985368D01*
X125845750Y-113985369D01*
X126024996Y-114005565D01*
X126025000Y-114005565D01*
X126025004Y-114005565D01*
X126204249Y-113985369D01*
X126204252Y-113985368D01*
X126204255Y-113985368D01*
X126374522Y-113925789D01*
X126527262Y-113829816D01*
X126654816Y-113702262D01*
X126750789Y-113549522D01*
X126810368Y-113379255D01*
X126810998Y-113373663D01*
X126830565Y-113200003D01*
X126830565Y-113199996D01*
X126810369Y-113020750D01*
X126810368Y-113020745D01*
X126806019Y-113008316D01*
X126750789Y-112850478D01*
X126654816Y-112697738D01*
X126527262Y-112570184D01*
X126512332Y-112560803D01*
X126374523Y-112474211D01*
X126204254Y-112414631D01*
X126204249Y-112414630D01*
X126025004Y-112394435D01*
X126024996Y-112394435D01*
X125845750Y-112414630D01*
X125845745Y-112414631D01*
X125675476Y-112474211D01*
X125522737Y-112570184D01*
X125395184Y-112697737D01*
X125299211Y-112850476D01*
X125239631Y-113020745D01*
X125239630Y-113020750D01*
X125219435Y-113199996D01*
X123401531Y-113199996D01*
X118553300Y-108351765D01*
X118519815Y-108290442D01*
X118517763Y-108277986D01*
X118507968Y-108191045D01*
X118448389Y-108020778D01*
X118352416Y-107868038D01*
X118224862Y-107740484D01*
X118221523Y-107738386D01*
X118072123Y-107644511D01*
X117901854Y-107584931D01*
X117901850Y-107584930D01*
X117833116Y-107577186D01*
X117768702Y-107550119D01*
X117729147Y-107492524D01*
X117723000Y-107453966D01*
X117723000Y-103944999D01*
X126619341Y-103944999D01*
X126619341Y-103945000D01*
X126639936Y-104180403D01*
X126639938Y-104180413D01*
X126701094Y-104408655D01*
X126701096Y-104408659D01*
X126701097Y-104408663D01*
X126756398Y-104527256D01*
X126800965Y-104622830D01*
X126800967Y-104622834D01*
X126899757Y-104763920D01*
X126931795Y-104809675D01*
X126936501Y-104816395D01*
X126936506Y-104816402D01*
X127103597Y-104983493D01*
X127103603Y-104983498D01*
X127289158Y-105113425D01*
X127332783Y-105168002D01*
X127339977Y-105237500D01*
X127308454Y-105299855D01*
X127289158Y-105316575D01*
X127103597Y-105446505D01*
X126936505Y-105613597D01*
X126800965Y-105807169D01*
X126800964Y-105807171D01*
X126701098Y-106021335D01*
X126701094Y-106021344D01*
X126639938Y-106249586D01*
X126639936Y-106249596D01*
X126619341Y-106484999D01*
X126619341Y-106485000D01*
X126639936Y-106720403D01*
X126639938Y-106720413D01*
X126701094Y-106948655D01*
X126701096Y-106948659D01*
X126701097Y-106948663D01*
X126766456Y-107088826D01*
X126800965Y-107162830D01*
X126800967Y-107162834D01*
X126888392Y-107287689D01*
X126936501Y-107356396D01*
X126936506Y-107356402D01*
X127058818Y-107478714D01*
X127092303Y-107540037D01*
X127087319Y-107609729D01*
X127045447Y-107665662D01*
X127014471Y-107682577D01*
X126882912Y-107731646D01*
X126882906Y-107731649D01*
X126767812Y-107817809D01*
X126767809Y-107817812D01*
X126681649Y-107932906D01*
X126681645Y-107932913D01*
X126631403Y-108067620D01*
X126631401Y-108067627D01*
X126625000Y-108127155D01*
X126625000Y-108775000D01*
X127541988Y-108775000D01*
X127509075Y-108832007D01*
X127475000Y-108959174D01*
X127475000Y-109090826D01*
X127509075Y-109217993D01*
X127541988Y-109275000D01*
X126625000Y-109275000D01*
X126625000Y-109922844D01*
X126631401Y-109982372D01*
X126631403Y-109982379D01*
X126681645Y-110117086D01*
X126681649Y-110117093D01*
X126767809Y-110232187D01*
X126767812Y-110232190D01*
X126882906Y-110318350D01*
X126882913Y-110318354D01*
X127017620Y-110368596D01*
X127017627Y-110368598D01*
X127077155Y-110374999D01*
X127077172Y-110375000D01*
X127725000Y-110375000D01*
X127725000Y-109458012D01*
X127782007Y-109490925D01*
X127909174Y-109525000D01*
X128040826Y-109525000D01*
X128167993Y-109490925D01*
X128225000Y-109458012D01*
X128225000Y-110375000D01*
X128872828Y-110375000D01*
X128872844Y-110374999D01*
X128932372Y-110368598D01*
X128932379Y-110368596D01*
X129067086Y-110318354D01*
X129067093Y-110318350D01*
X129182187Y-110232190D01*
X129182190Y-110232187D01*
X129268350Y-110117093D01*
X129268354Y-110117086D01*
X129318596Y-109982379D01*
X129318598Y-109982372D01*
X129324999Y-109922844D01*
X129325000Y-109922827D01*
X129325000Y-109275000D01*
X128408012Y-109275000D01*
X128440925Y-109217993D01*
X128475000Y-109090826D01*
X128475000Y-108959174D01*
X128440925Y-108832007D01*
X128408012Y-108775000D01*
X129325000Y-108775000D01*
X129325000Y-108127172D01*
X129324999Y-108127155D01*
X129318598Y-108067627D01*
X129318596Y-108067620D01*
X129268354Y-107932913D01*
X129268350Y-107932906D01*
X129182190Y-107817812D01*
X129182187Y-107817809D01*
X129067093Y-107731649D01*
X129067088Y-107731646D01*
X128935528Y-107682577D01*
X128879595Y-107640705D01*
X128855178Y-107575241D01*
X128870030Y-107506968D01*
X128891175Y-107478720D01*
X129013495Y-107356401D01*
X129149035Y-107162830D01*
X129248903Y-106948663D01*
X129310063Y-106720408D01*
X129330659Y-106485000D01*
X129310063Y-106249592D01*
X129248903Y-106021337D01*
X129149035Y-105807171D01*
X129146963Y-105804211D01*
X129013494Y-105613597D01*
X128846402Y-105446506D01*
X128846396Y-105446501D01*
X128660842Y-105316575D01*
X128617217Y-105261998D01*
X128610023Y-105192500D01*
X128641546Y-105130145D01*
X128660842Y-105113425D01*
X128728797Y-105065842D01*
X128846401Y-104983495D01*
X129013495Y-104816401D01*
X129149035Y-104622830D01*
X129248903Y-104408663D01*
X129310063Y-104180408D01*
X129330659Y-103945000D01*
X129310063Y-103709592D01*
X129248903Y-103481337D01*
X129149035Y-103267171D01*
X129146963Y-103264211D01*
X129013494Y-103073597D01*
X128846402Y-102906506D01*
X128846395Y-102906501D01*
X128652834Y-102770967D01*
X128652830Y-102770965D01*
X128590504Y-102741902D01*
X128438663Y-102671097D01*
X128438659Y-102671096D01*
X128438655Y-102671094D01*
X128210413Y-102609938D01*
X128210403Y-102609936D01*
X127975001Y-102589341D01*
X127974999Y-102589341D01*
X127739596Y-102609936D01*
X127739586Y-102609938D01*
X127511344Y-102671094D01*
X127511335Y-102671098D01*
X127297171Y-102770964D01*
X127297169Y-102770965D01*
X127103597Y-102906505D01*
X126936505Y-103073597D01*
X126800965Y-103267169D01*
X126800964Y-103267171D01*
X126701098Y-103481335D01*
X126701094Y-103481344D01*
X126639938Y-103709586D01*
X126639936Y-103709596D01*
X126619341Y-103944999D01*
X117723000Y-103944999D01*
X117723000Y-100319396D01*
X117742685Y-100252357D01*
X117759314Y-100231720D01*
X120533735Y-97457298D01*
X120595056Y-97423815D01*
X120607511Y-97421763D01*
X120694455Y-97411968D01*
X120864722Y-97352389D01*
X121017462Y-97256416D01*
X121145016Y-97128862D01*
X121240989Y-96976122D01*
X121300568Y-96805855D01*
X121300569Y-96805849D01*
X121320765Y-96626603D01*
X121320765Y-96626596D01*
X121300569Y-96447350D01*
X121300568Y-96447345D01*
X121277532Y-96381511D01*
X121240989Y-96277078D01*
X121210010Y-96227776D01*
X121156094Y-96141969D01*
X121145016Y-96124338D01*
X121017462Y-95996784D01*
X120978692Y-95972423D01*
X120932402Y-95920089D01*
X120921754Y-95851036D01*
X120950129Y-95787187D01*
X120956971Y-95779762D01*
X124958921Y-91777813D01*
X125020242Y-91744330D01*
X125089934Y-91749314D01*
X125145867Y-91791186D01*
X125170284Y-91856650D01*
X125170600Y-91865496D01*
X125170600Y-94774187D01*
X125150915Y-94841226D01*
X125143550Y-94851496D01*
X125141286Y-94854334D01*
X125045311Y-95007076D01*
X124985731Y-95177345D01*
X124985730Y-95177350D01*
X124965535Y-95356596D01*
X124965535Y-95356603D01*
X124985730Y-95535849D01*
X124985731Y-95535854D01*
X125045311Y-95706123D01*
X125099228Y-95791930D01*
X125141284Y-95858862D01*
X125268838Y-95986416D01*
X125292015Y-96000979D01*
X125421227Y-96082169D01*
X125421578Y-96082389D01*
X125543288Y-96124977D01*
X125591845Y-96141968D01*
X125591850Y-96141969D01*
X125771096Y-96162165D01*
X125771100Y-96162165D01*
X125771101Y-96162165D01*
X125784738Y-96160628D01*
X125853601Y-96152869D01*
X125922422Y-96164923D01*
X125973802Y-96212272D01*
X125991427Y-96279882D01*
X125969701Y-96346288D01*
X125933458Y-96381082D01*
X125780039Y-96477482D01*
X125652484Y-96605037D01*
X125556511Y-96757776D01*
X125496931Y-96928045D01*
X125496930Y-96928050D01*
X125476735Y-97107296D01*
X125476735Y-97107303D01*
X125496930Y-97286549D01*
X125496931Y-97286554D01*
X125556511Y-97456823D01*
X125583216Y-97499323D01*
X125652484Y-97609562D01*
X125780038Y-97737116D01*
X125896715Y-97810429D01*
X125932778Y-97833089D01*
X126056005Y-97876208D01*
X126112781Y-97916930D01*
X126138529Y-97981883D01*
X126125073Y-98050444D01*
X126102732Y-98080931D01*
X123539665Y-100643998D01*
X123478342Y-100677483D01*
X123465868Y-100679537D01*
X123378950Y-100689330D01*
X123208678Y-100748910D01*
X123055937Y-100844884D01*
X122928384Y-100972437D01*
X122832411Y-101125176D01*
X122772831Y-101295445D01*
X122772830Y-101295450D01*
X122752635Y-101474696D01*
X122752635Y-101474703D01*
X122772830Y-101653949D01*
X122772831Y-101653954D01*
X122832411Y-101824223D01*
X122861761Y-101870933D01*
X122928384Y-101976962D01*
X123055938Y-102104516D01*
X123208678Y-102200489D01*
X123307868Y-102235197D01*
X123378945Y-102260068D01*
X123378950Y-102260069D01*
X123558196Y-102280265D01*
X123558200Y-102280265D01*
X123558204Y-102280265D01*
X123737449Y-102260069D01*
X123737452Y-102260068D01*
X123737455Y-102260068D01*
X123907722Y-102200489D01*
X124060462Y-102104516D01*
X124188016Y-101976962D01*
X124283989Y-101824222D01*
X124343568Y-101653955D01*
X124353361Y-101567029D01*
X124380426Y-101502618D01*
X124388890Y-101493243D01*
X139980520Y-85901616D01*
X140059577Y-85764684D01*
X140100501Y-85611957D01*
X140100501Y-85453842D01*
X140100501Y-85446247D01*
X140100500Y-85446229D01*
X140100500Y-84949090D01*
X140120185Y-84882051D01*
X140172101Y-84836706D01*
X140177830Y-84834035D01*
X140371401Y-84698495D01*
X140538495Y-84531401D01*
X140674035Y-84337830D01*
X140773903Y-84123663D01*
X140835063Y-83895408D01*
X140855659Y-83660000D01*
X140835063Y-83424592D01*
X140773903Y-83196337D01*
X140674035Y-82982171D01*
X140665445Y-82969902D01*
X140538494Y-82788597D01*
X140371402Y-82621506D01*
X140371396Y-82621501D01*
X140185842Y-82491575D01*
X140142217Y-82436998D01*
X140135023Y-82367500D01*
X140166546Y-82305145D01*
X140185842Y-82288425D01*
X140221091Y-82263743D01*
X140371401Y-82158495D01*
X140538495Y-81991401D01*
X140674035Y-81797830D01*
X140773903Y-81583663D01*
X140835063Y-81355408D01*
X140855659Y-81120000D01*
X140835063Y-80884592D01*
X140780256Y-80680047D01*
X140773905Y-80656344D01*
X140773904Y-80656343D01*
X140773903Y-80656337D01*
X140674035Y-80442171D01*
X140657910Y-80419141D01*
X140538494Y-80248597D01*
X140371402Y-80081506D01*
X140371396Y-80081501D01*
X140185842Y-79951575D01*
X140142217Y-79896998D01*
X140135023Y-79827500D01*
X140166546Y-79765145D01*
X140185842Y-79748425D01*
X140283563Y-79680000D01*
X140371401Y-79618495D01*
X140538495Y-79451401D01*
X140674035Y-79257830D01*
X140773903Y-79043663D01*
X140835063Y-78815408D01*
X140855659Y-78580000D01*
X140852984Y-78549431D01*
X140851539Y-78532918D01*
X140835063Y-78344592D01*
X140773903Y-78116337D01*
X140674035Y-77902171D01*
X140668425Y-77894158D01*
X140538494Y-77708597D01*
X140371402Y-77541506D01*
X140371396Y-77541501D01*
X140185842Y-77411575D01*
X140142217Y-77356998D01*
X140135023Y-77287500D01*
X140166546Y-77225145D01*
X140185842Y-77208425D01*
X140282513Y-77140735D01*
X140371401Y-77078495D01*
X140538495Y-76911401D01*
X140674035Y-76717830D01*
X140773903Y-76503663D01*
X140835063Y-76275408D01*
X140855659Y-76040000D01*
X140835063Y-75804592D01*
X140773903Y-75576337D01*
X140674035Y-75362171D01*
X140650623Y-75328734D01*
X140538494Y-75168597D01*
X140371402Y-75001506D01*
X140371396Y-75001501D01*
X140185842Y-74871575D01*
X140142217Y-74816998D01*
X140135023Y-74747500D01*
X140166546Y-74685145D01*
X140185842Y-74668425D01*
X140254200Y-74620560D01*
X140371401Y-74538495D01*
X140538495Y-74371401D01*
X140674035Y-74177830D01*
X140773903Y-73963663D01*
X140835063Y-73735408D01*
X140855659Y-73500000D01*
X140835063Y-73264592D01*
X140773903Y-73036337D01*
X140674035Y-72822171D01*
X140673036Y-72820743D01*
X140538494Y-72628597D01*
X140371402Y-72461506D01*
X140371401Y-72461505D01*
X140197343Y-72339628D01*
X140185405Y-72331269D01*
X140141781Y-72276692D01*
X140134588Y-72207193D01*
X140166110Y-72144839D01*
X140185405Y-72128119D01*
X140371082Y-71998105D01*
X140538105Y-71831082D01*
X140673600Y-71637578D01*
X140773429Y-71423492D01*
X140773432Y-71423486D01*
X140830636Y-71210000D01*
X139933012Y-71210000D01*
X139965925Y-71152993D01*
X140000000Y-71025826D01*
X140000000Y-70894174D01*
X139965925Y-70767007D01*
X139933012Y-70710000D01*
X140830636Y-70710000D01*
X140830635Y-70709999D01*
X140773432Y-70496513D01*
X140773429Y-70496507D01*
X140673600Y-70282422D01*
X140673599Y-70282420D01*
X140538113Y-70088926D01*
X140538108Y-70088920D01*
X140371078Y-69921890D01*
X140185405Y-69791879D01*
X140141780Y-69737302D01*
X140134588Y-69667804D01*
X140166110Y-69605449D01*
X140185406Y-69588730D01*
X140371401Y-69458495D01*
X140538495Y-69291401D01*
X140674035Y-69097830D01*
X140773903Y-68883663D01*
X140835063Y-68655408D01*
X140855659Y-68420000D01*
X140851709Y-68374858D01*
X140844753Y-68295346D01*
X140835063Y-68184592D01*
X140775818Y-67963483D01*
X140773905Y-67956344D01*
X140773904Y-67956343D01*
X140773903Y-67956337D01*
X140674035Y-67742171D01*
X140674034Y-67742169D01*
X140538494Y-67548597D01*
X140371402Y-67381506D01*
X140371396Y-67381501D01*
X140185842Y-67251575D01*
X140142217Y-67196998D01*
X140135023Y-67127500D01*
X140166546Y-67065145D01*
X140185842Y-67048425D01*
X140319943Y-66954526D01*
X140371401Y-66918495D01*
X140538495Y-66751401D01*
X140674035Y-66557830D01*
X140773903Y-66343663D01*
X140835063Y-66115408D01*
X140855659Y-65880000D01*
X140853662Y-65857180D01*
X140845327Y-65761908D01*
X140835063Y-65644592D01*
X140773903Y-65416337D01*
X140674035Y-65202171D01*
X140668425Y-65194158D01*
X140538494Y-65008597D01*
X140371402Y-64841506D01*
X140371396Y-64841501D01*
X140185842Y-64711575D01*
X140142217Y-64656998D01*
X140135023Y-64587500D01*
X140166546Y-64525145D01*
X140185842Y-64508425D01*
X140236061Y-64473261D01*
X140371401Y-64378495D01*
X140538495Y-64211401D01*
X140674035Y-64017830D01*
X140773903Y-63803663D01*
X140835063Y-63575408D01*
X140855659Y-63340000D01*
X140835063Y-63104592D01*
X140773903Y-62876337D01*
X140674035Y-62662171D01*
X140668425Y-62654158D01*
X140538494Y-62468597D01*
X140371402Y-62301506D01*
X140371396Y-62301501D01*
X140185842Y-62171575D01*
X140142217Y-62116998D01*
X140135023Y-62047500D01*
X140166546Y-61985145D01*
X140185842Y-61968425D01*
X140269033Y-61910174D01*
X140371401Y-61838495D01*
X140538495Y-61671401D01*
X140674035Y-61477830D01*
X140773903Y-61263663D01*
X140835063Y-61035408D01*
X140855659Y-60800000D01*
X140835063Y-60564592D01*
X140773903Y-60336337D01*
X140674035Y-60122171D01*
X140668198Y-60113834D01*
X140538494Y-59928597D01*
X140371402Y-59761506D01*
X140371395Y-59761501D01*
X140177834Y-59625967D01*
X140177830Y-59625965D01*
X140177828Y-59625964D01*
X139963663Y-59526097D01*
X139963659Y-59526096D01*
X139963655Y-59526094D01*
X139735413Y-59464938D01*
X139735403Y-59464936D01*
X139500001Y-59444341D01*
X139499999Y-59444341D01*
X139264596Y-59464936D01*
X139264586Y-59464938D01*
X139036344Y-59526094D01*
X139036335Y-59526098D01*
X138822171Y-59625964D01*
X138822169Y-59625965D01*
X138628600Y-59761503D01*
X138506673Y-59883430D01*
X138445350Y-59916914D01*
X138375658Y-59911930D01*
X138319725Y-59870058D01*
X138302810Y-59839081D01*
X138253797Y-59707671D01*
X138253793Y-59707664D01*
X138167547Y-59592455D01*
X138167544Y-59592452D01*
X138052335Y-59506206D01*
X138052328Y-59506202D01*
X137917482Y-59455908D01*
X137917483Y-59455908D01*
X137857883Y-59449501D01*
X137857881Y-59449500D01*
X137857873Y-59449500D01*
X137857864Y-59449500D01*
X136062129Y-59449500D01*
X136062123Y-59449501D01*
X136002516Y-59455908D01*
X135867671Y-59506202D01*
X135867664Y-59506206D01*
X135752455Y-59592452D01*
X135752452Y-59592455D01*
X135666206Y-59707664D01*
X135666202Y-59707671D01*
X135615908Y-59842517D01*
X135609501Y-59902116D01*
X135609500Y-59902135D01*
X135609500Y-60075500D01*
X135589815Y-60142539D01*
X135537011Y-60188294D01*
X135485500Y-60199500D01*
X128334470Y-60199500D01*
X128334454Y-60199499D01*
X128326858Y-60199499D01*
X128168743Y-60199499D01*
X128092379Y-60219961D01*
X128016014Y-60240423D01*
X128016009Y-60240426D01*
X127879090Y-60319475D01*
X127879082Y-60319481D01*
X127190670Y-61007893D01*
X127129347Y-61041378D01*
X127059655Y-61036394D01*
X127015310Y-61007895D01*
X125038403Y-59031067D01*
X124962813Y-58955477D01*
X124906821Y-58923151D01*
X124906820Y-58923150D01*
X124856499Y-58894097D01*
X124808283Y-58843530D01*
X124794499Y-58786710D01*
X124794499Y-58538129D01*
X124794498Y-58538123D01*
X124794497Y-58538116D01*
X124788091Y-58478517D01*
X124786810Y-58475083D01*
X124737797Y-58343671D01*
X124737793Y-58343664D01*
X124651547Y-58228455D01*
X124651544Y-58228452D01*
X124536335Y-58142206D01*
X124536328Y-58142202D01*
X124401482Y-58091908D01*
X124401483Y-58091908D01*
X124341883Y-58085501D01*
X124341881Y-58085500D01*
X124341873Y-58085500D01*
X124341864Y-58085500D01*
X122546129Y-58085500D01*
X122546123Y-58085501D01*
X122486516Y-58091908D01*
X122351671Y-58142202D01*
X122351664Y-58142206D01*
X122236455Y-58228452D01*
X122236452Y-58228455D01*
X122150206Y-58343664D01*
X122150203Y-58343669D01*
X122101189Y-58475083D01*
X122059317Y-58531016D01*
X121993853Y-58555433D01*
X121925580Y-58540581D01*
X121897326Y-58519430D01*
X121775402Y-58397506D01*
X121775395Y-58397501D01*
X121581834Y-58261967D01*
X121581830Y-58261965D01*
X121581828Y-58261964D01*
X121367663Y-58162097D01*
X121367659Y-58162096D01*
X121367655Y-58162094D01*
X121139413Y-58100938D01*
X121139403Y-58100936D01*
X120904001Y-58080341D01*
X120903999Y-58080341D01*
X120668596Y-58100936D01*
X120668586Y-58100938D01*
X120440344Y-58162094D01*
X120440335Y-58162098D01*
X120226171Y-58261964D01*
X120226169Y-58261965D01*
X120032597Y-58397505D01*
X119865505Y-58564597D01*
X119729965Y-58758169D01*
X119729964Y-58758171D01*
X119630098Y-58972335D01*
X119630094Y-58972344D01*
X119568938Y-59200586D01*
X119568936Y-59200596D01*
X119548341Y-59435999D01*
X119548341Y-59436000D01*
X119568936Y-59671403D01*
X119568938Y-59671413D01*
X119630094Y-59899655D01*
X119630096Y-59899659D01*
X119630097Y-59899663D01*
X119712091Y-60075500D01*
X119729965Y-60113830D01*
X119729967Y-60113834D01*
X119838281Y-60268521D01*
X119865505Y-60307401D01*
X120032599Y-60474495D01*
X120191884Y-60586028D01*
X120218594Y-60604730D01*
X120262219Y-60659307D01*
X120269413Y-60728805D01*
X120237890Y-60791160D01*
X120218595Y-60807880D01*
X120032922Y-60937890D01*
X120032920Y-60937891D01*
X119865891Y-61104920D01*
X119865886Y-61104926D01*
X119730400Y-61298420D01*
X119730399Y-61298422D01*
X119630570Y-61512507D01*
X119630567Y-61512513D01*
X119573364Y-61725999D01*
X119573364Y-61726000D01*
X120470988Y-61726000D01*
X120438075Y-61783007D01*
X120404000Y-61910174D01*
X120404000Y-62041826D01*
X120438075Y-62168993D01*
X120470988Y-62226000D01*
X119573364Y-62226000D01*
X119630567Y-62439486D01*
X119630570Y-62439492D01*
X119730399Y-62653578D01*
X119865894Y-62847082D01*
X120032917Y-63014105D01*
X120226421Y-63149600D01*
X120440507Y-63249429D01*
X120440516Y-63249433D01*
X120654000Y-63306634D01*
X120654000Y-62409012D01*
X120711007Y-62441925D01*
X120838174Y-62476000D01*
X120969826Y-62476000D01*
X121096993Y-62441925D01*
X121154000Y-62409012D01*
X121154000Y-63306633D01*
X121367483Y-63249433D01*
X121367492Y-63249429D01*
X121581578Y-63149600D01*
X121775082Y-63014105D01*
X121942105Y-62847082D01*
X122072425Y-62660968D01*
X122127002Y-62617344D01*
X122196501Y-62610151D01*
X122258855Y-62641673D01*
X122275575Y-62660968D01*
X122405894Y-62847082D01*
X122572917Y-63014105D01*
X122766421Y-63149600D01*
X122980507Y-63249429D01*
X122980516Y-63249433D01*
X123194000Y-63306634D01*
X123194000Y-62409012D01*
X123251007Y-62441925D01*
X123378174Y-62476000D01*
X123509826Y-62476000D01*
X123636993Y-62441925D01*
X123694000Y-62409012D01*
X123694000Y-63306633D01*
X123907483Y-63249433D01*
X123907492Y-63249429D01*
X124121578Y-63149600D01*
X124315082Y-63014105D01*
X124482105Y-62847082D01*
X124617600Y-62653578D01*
X124717429Y-62439492D01*
X124717432Y-62439486D01*
X124774636Y-62226000D01*
X123877012Y-62226000D01*
X123909925Y-62168993D01*
X123944000Y-62041826D01*
X123944000Y-61910174D01*
X123909925Y-61783007D01*
X123877012Y-61726000D01*
X124774636Y-61726000D01*
X124774635Y-61725999D01*
X124717432Y-61512513D01*
X124717429Y-61512507D01*
X124617600Y-61298422D01*
X124617599Y-61298420D01*
X124482113Y-61104926D01*
X124482108Y-61104920D01*
X124360053Y-60982865D01*
X124326568Y-60921542D01*
X124331552Y-60851850D01*
X124373424Y-60795917D01*
X124404400Y-60779002D01*
X124536331Y-60729796D01*
X124651546Y-60643546D01*
X124694605Y-60586026D01*
X124750537Y-60544157D01*
X124820228Y-60539173D01*
X124881548Y-60572655D01*
X126066423Y-61757483D01*
X126261472Y-61952524D01*
X126294959Y-62013846D01*
X126293683Y-62067476D01*
X126293760Y-62067487D01*
X126293666Y-62068197D01*
X126293569Y-62072297D01*
X126292699Y-62075543D01*
X126292699Y-62243646D01*
X126292700Y-62243659D01*
X126292700Y-73466530D01*
X126292699Y-73466548D01*
X126292699Y-73632254D01*
X126292698Y-73632254D01*
X126333623Y-73784987D01*
X126333624Y-73784988D01*
X126345503Y-73805562D01*
X126345505Y-73805565D01*
X126412677Y-73921912D01*
X126412681Y-73921917D01*
X126531549Y-74040785D01*
X126531555Y-74040790D01*
X126724058Y-74233293D01*
X126757543Y-74294616D01*
X126756152Y-74353067D01*
X126730366Y-74449302D01*
X126730364Y-74449313D01*
X126710532Y-74675998D01*
X126710532Y-74676002D01*
X126730637Y-74905805D01*
X126716870Y-74974305D01*
X126668255Y-75024488D01*
X126600226Y-75040421D01*
X126534383Y-75017046D01*
X126519428Y-75004293D01*
X114684196Y-63169061D01*
X114650711Y-63107738D01*
X114655695Y-63038046D01*
X114684192Y-62993703D01*
X114830495Y-62847401D01*
X114966035Y-62653830D01*
X115065903Y-62439663D01*
X115127063Y-62211408D01*
X115147659Y-61976000D01*
X115127063Y-61740592D01*
X115065903Y-61512337D01*
X114966035Y-61298171D01*
X114941872Y-61263663D01*
X114830496Y-61104600D01*
X114821469Y-61095573D01*
X114708567Y-60982671D01*
X114675084Y-60921351D01*
X114680068Y-60851659D01*
X114721939Y-60795725D01*
X114752915Y-60778810D01*
X114884331Y-60729796D01*
X114999546Y-60643546D01*
X115085796Y-60528331D01*
X115136091Y-60393483D01*
X115142500Y-60333873D01*
X115142499Y-58538128D01*
X115136091Y-58478517D01*
X115134810Y-58475083D01*
X115085797Y-58343671D01*
X115085793Y-58343664D01*
X114999547Y-58228455D01*
X114999544Y-58228452D01*
X114884335Y-58142206D01*
X114884328Y-58142202D01*
X114749482Y-58091908D01*
X114749483Y-58091908D01*
X114689883Y-58085501D01*
X114689881Y-58085500D01*
X114689873Y-58085500D01*
X114689864Y-58085500D01*
X112894129Y-58085500D01*
X112894123Y-58085501D01*
X112834516Y-58091908D01*
X112699671Y-58142202D01*
X112699664Y-58142206D01*
X112584455Y-58228452D01*
X112584452Y-58228455D01*
X112498206Y-58343664D01*
X112498202Y-58343671D01*
X112447908Y-58478517D01*
X112441501Y-58538116D01*
X112441501Y-58538123D01*
X112441500Y-58538135D01*
X112441500Y-58776319D01*
X112421815Y-58843358D01*
X112379500Y-58883706D01*
X112255187Y-58955477D01*
X112255182Y-58955481D01*
X103603481Y-67607182D01*
X103603480Y-67607184D01*
X103561440Y-67680000D01*
X103544998Y-67708478D01*
X103525547Y-67742169D01*
X103524423Y-67744115D01*
X103483499Y-67896843D01*
X103483499Y-67896845D01*
X103483499Y-68064946D01*
X103483500Y-68064959D01*
X103483500Y-69167800D01*
X103463815Y-69234839D01*
X103411011Y-69280594D01*
X103359502Y-69291800D01*
X103286130Y-69291800D01*
X103286123Y-69291801D01*
X103226516Y-69298208D01*
X103091671Y-69348502D01*
X103091664Y-69348506D01*
X102976455Y-69434752D01*
X102976452Y-69434755D01*
X102890206Y-69549964D01*
X102890202Y-69549971D01*
X102839908Y-69684817D01*
X102834468Y-69735421D01*
X102833501Y-69744423D01*
X102833500Y-69744435D01*
X102833500Y-69753312D01*
X102813815Y-69820351D01*
X102761011Y-69866106D01*
X102691853Y-69876050D01*
X102628297Y-69847025D01*
X102607925Y-69824435D01*
X102545599Y-69735424D01*
X102470172Y-69659997D01*
X102390877Y-69580702D01*
X102216345Y-69458493D01*
X102211638Y-69455197D01*
X102112484Y-69408961D01*
X102013330Y-69362725D01*
X102013326Y-69362724D01*
X102013322Y-69362722D01*
X101801977Y-69306093D01*
X101584002Y-69287023D01*
X101583998Y-69287023D01*
X101456151Y-69298208D01*
X101366023Y-69306093D01*
X101366020Y-69306093D01*
X101154677Y-69362722D01*
X101154670Y-69362724D01*
X101154670Y-69362725D01*
X101129631Y-69374400D01*
X100956361Y-69455198D01*
X100956357Y-69455200D01*
X100777124Y-69580700D01*
X100671680Y-69686144D01*
X100610357Y-69719628D01*
X100540665Y-69714644D01*
X100496318Y-69686143D01*
X100390881Y-69580706D01*
X100390877Y-69580702D01*
X100216345Y-69458493D01*
X100211638Y-69455197D01*
X100112484Y-69408961D01*
X100013330Y-69362725D01*
X100013326Y-69362724D01*
X100013322Y-69362722D01*
X99801977Y-69306093D01*
X99584002Y-69287023D01*
X99583998Y-69287023D01*
X99456151Y-69298208D01*
X99366023Y-69306093D01*
X99366020Y-69306093D01*
X99154677Y-69362722D01*
X99154670Y-69362724D01*
X99154670Y-69362725D01*
X99129631Y-69374400D01*
X98956361Y-69455198D01*
X98956357Y-69455200D01*
X98777121Y-69580702D01*
X98622402Y-69735421D01*
X98496900Y-69914657D01*
X98496900Y-69914658D01*
X98496898Y-69914661D01*
X98496898Y-69914662D01*
X98496781Y-69914913D01*
X98446105Y-70023586D01*
X98399932Y-70076025D01*
X98332738Y-70095176D01*
X98265857Y-70074960D01*
X98221341Y-70023584D01*
X98170669Y-69914918D01*
X98170666Y-69914912D01*
X98127124Y-69852728D01*
X98127124Y-69852727D01*
X97534302Y-70445549D01*
X97512651Y-70364747D01*
X97452091Y-70259854D01*
X97366446Y-70174209D01*
X97261553Y-70113649D01*
X97180749Y-70091997D01*
X97773571Y-69499174D01*
X97711387Y-69455633D01*
X97513159Y-69363198D01*
X97513150Y-69363194D01*
X97301894Y-69306589D01*
X97301884Y-69306587D01*
X97084001Y-69287525D01*
X97083999Y-69287525D01*
X96866115Y-69306587D01*
X96866105Y-69306589D01*
X96654849Y-69363194D01*
X96654840Y-69363198D01*
X96456613Y-69455633D01*
X96394428Y-69499174D01*
X96987251Y-70091997D01*
X96906447Y-70113649D01*
X96801554Y-70174209D01*
X96715909Y-70259854D01*
X96655349Y-70364747D01*
X96633697Y-70445551D01*
X96040874Y-69852728D01*
X95997333Y-69914913D01*
X95904898Y-70113140D01*
X95904894Y-70113149D01*
X95848289Y-70324405D01*
X95848287Y-70324415D01*
X95829225Y-70542299D01*
X95829225Y-70542300D01*
X95848287Y-70760184D01*
X95848289Y-70760194D01*
X95904894Y-70971450D01*
X95904898Y-70971459D01*
X95997333Y-71169687D01*
X96040874Y-71231871D01*
X96633697Y-70639048D01*
X96655349Y-70719853D01*
X96715909Y-70824746D01*
X96801554Y-70910391D01*
X96906447Y-70970951D01*
X96987250Y-70992602D01*
X96394427Y-71585424D01*
X96456612Y-71628966D01*
X96654840Y-71721401D01*
X96654849Y-71721405D01*
X96696349Y-71732525D01*
X96756010Y-71768890D01*
X96786539Y-71831737D01*
X96778244Y-71901112D01*
X96733759Y-71954990D01*
X96696349Y-71972075D01*
X96654849Y-71983194D01*
X96654840Y-71983198D01*
X96456613Y-72075633D01*
X96394428Y-72119174D01*
X96987251Y-72711997D01*
X96906447Y-72733649D01*
X96801554Y-72794209D01*
X96715909Y-72879854D01*
X96655349Y-72984747D01*
X96633697Y-73065550D01*
X95999987Y-72431841D01*
X96002110Y-72429717D01*
X95977147Y-72405531D01*
X95973813Y-72399234D01*
X95966738Y-72384887D01*
X95802876Y-72139650D01*
X95773593Y-72106258D01*
X94986086Y-72893765D01*
X94891171Y-72763125D01*
X94763175Y-72635129D01*
X94632533Y-72540212D01*
X95420040Y-71752705D01*
X95386649Y-71723423D01*
X95141419Y-71559565D01*
X95141406Y-71559558D01*
X94876888Y-71429112D01*
X94597599Y-71334305D01*
X94597584Y-71334301D01*
X94308324Y-71276764D01*
X94308312Y-71276762D01*
X94014000Y-71257472D01*
X93719687Y-71276762D01*
X93719675Y-71276764D01*
X93430415Y-71334301D01*
X93430400Y-71334305D01*
X93151111Y-71429112D01*
X92886593Y-71559558D01*
X92886580Y-71559565D01*
X92641346Y-71723426D01*
X92641339Y-71723431D01*
X92607959Y-71752703D01*
X92607959Y-71752705D01*
X93395466Y-72540212D01*
X93264825Y-72635129D01*
X93136829Y-72763125D01*
X93041912Y-72893766D01*
X92254405Y-72106259D01*
X92254403Y-72106259D01*
X92225131Y-72139639D01*
X92225126Y-72139646D01*
X92061265Y-72384880D01*
X92061258Y-72384893D01*
X91930812Y-72649411D01*
X91836005Y-72928700D01*
X91836001Y-72928715D01*
X91778464Y-73217975D01*
X91778462Y-73217987D01*
X91759172Y-73512300D01*
X91778462Y-73806612D01*
X91778464Y-73806624D01*
X91836001Y-74095884D01*
X91836005Y-74095899D01*
X91930812Y-74375188D01*
X92061258Y-74639706D01*
X92061265Y-74639719D01*
X92225123Y-74884949D01*
X92254405Y-74918340D01*
X93041912Y-74130832D01*
X93136829Y-74261475D01*
X93264825Y-74389471D01*
X93395465Y-74484386D01*
X92607958Y-75271893D01*
X92641350Y-75301176D01*
X92886580Y-75465034D01*
X92886593Y-75465041D01*
X93151111Y-75595487D01*
X93430400Y-75690294D01*
X93430415Y-75690298D01*
X93719675Y-75747835D01*
X93719687Y-75747837D01*
X94014000Y-75767127D01*
X94308312Y-75747837D01*
X94308324Y-75747835D01*
X94597584Y-75690298D01*
X94597599Y-75690294D01*
X94876888Y-75595487D01*
X95141406Y-75465041D01*
X95141419Y-75465034D01*
X95386648Y-75301177D01*
X95420039Y-75271893D01*
X94632533Y-74484386D01*
X94763175Y-74389471D01*
X94891171Y-74261475D01*
X94986087Y-74130833D01*
X95773593Y-74918339D01*
X95802877Y-74884948D01*
X95966734Y-74639719D01*
X95966741Y-74639706D01*
X96097187Y-74375188D01*
X96147696Y-74226396D01*
X96187885Y-74169242D01*
X96252594Y-74142889D01*
X96321278Y-74155703D01*
X96336239Y-74164680D01*
X96456612Y-74248966D01*
X96654840Y-74341401D01*
X96654849Y-74341405D01*
X96866105Y-74398010D01*
X96866115Y-74398012D01*
X97083999Y-74417075D01*
X97084001Y-74417075D01*
X97301884Y-74398012D01*
X97301894Y-74398010D01*
X97513150Y-74341405D01*
X97513164Y-74341400D01*
X97711383Y-74248969D01*
X97711385Y-74248968D01*
X97773571Y-74205424D01*
X97180749Y-73612602D01*
X97261553Y-73590951D01*
X97366446Y-73530391D01*
X97452091Y-73444746D01*
X97512651Y-73339853D01*
X97534302Y-73259049D01*
X98127124Y-73851870D01*
X98170668Y-73789685D01*
X98170669Y-73789683D01*
X98221342Y-73681015D01*
X98267514Y-73628575D01*
X98334707Y-73609423D01*
X98401588Y-73629638D01*
X98446106Y-73681015D01*
X98496779Y-73789685D01*
X98496898Y-73789939D01*
X98622402Y-73969177D01*
X98777123Y-74123898D01*
X98956361Y-74249402D01*
X99154670Y-74341875D01*
X99366023Y-74398507D01*
X99548926Y-74414508D01*
X99583998Y-74417577D01*
X99584000Y-74417577D01*
X99584002Y-74417577D01*
X99612254Y-74415105D01*
X99801977Y-74398507D01*
X100013330Y-74341875D01*
X100211639Y-74249402D01*
X100390877Y-74123898D01*
X100496319Y-74018456D01*
X100557642Y-73984971D01*
X100627334Y-73989955D01*
X100671681Y-74018456D01*
X100777123Y-74123898D01*
X100956361Y-74249402D01*
X101154670Y-74341875D01*
X101366023Y-74398507D01*
X101548926Y-74414508D01*
X101583998Y-74417577D01*
X101584000Y-74417577D01*
X101678017Y-74409351D01*
X101746514Y-74423117D01*
X101796697Y-74471732D01*
X101812631Y-74539760D01*
X101789256Y-74605604D01*
X101776503Y-74620560D01*
X98553984Y-77843081D01*
X98492661Y-77876566D01*
X98466303Y-77879400D01*
X96989270Y-77879400D01*
X96989254Y-77879399D01*
X96981658Y-77879399D01*
X96823543Y-77879399D01*
X96768463Y-77894158D01*
X96670814Y-77920323D01*
X96670809Y-77920326D01*
X96533890Y-77999375D01*
X96533882Y-77999381D01*
X95903906Y-78629357D01*
X95842583Y-78662842D01*
X95772891Y-78657858D01*
X95728544Y-78629357D01*
X95679141Y-78579954D01*
X95492734Y-78449432D01*
X95492732Y-78449431D01*
X95286497Y-78353261D01*
X95286488Y-78353258D01*
X95066697Y-78294366D01*
X95066693Y-78294365D01*
X95066692Y-78294365D01*
X95066691Y-78294364D01*
X95066686Y-78294364D01*
X94840002Y-78274532D01*
X94839998Y-78274532D01*
X94613313Y-78294364D01*
X94613302Y-78294366D01*
X94393511Y-78353258D01*
X94393502Y-78353261D01*
X94187267Y-78449431D01*
X94187265Y-78449432D01*
X94000858Y-78579954D01*
X93839954Y-78740858D01*
X93709432Y-78927265D01*
X93709431Y-78927267D01*
X93613261Y-79133502D01*
X93613258Y-79133511D01*
X93554366Y-79353302D01*
X93554364Y-79353313D01*
X93534532Y-79579998D01*
X93534532Y-79580001D01*
X93554364Y-79806686D01*
X93554366Y-79806697D01*
X93613258Y-80026488D01*
X93613261Y-80026497D01*
X93709431Y-80232732D01*
X93709432Y-80232734D01*
X93839954Y-80419141D01*
X94000858Y-80580045D01*
X94000861Y-80580047D01*
X94187266Y-80710568D01*
X94393504Y-80806739D01*
X94393509Y-80806740D01*
X94393511Y-80806741D01*
X94446415Y-80820916D01*
X94613308Y-80865635D01*
X94775230Y-80879801D01*
X94839998Y-80885468D01*
X94840000Y-80885468D01*
X94840002Y-80885468D01*
X94896673Y-80880509D01*
X95066692Y-80865635D01*
X95286496Y-80806739D01*
X95492734Y-80710568D01*
X95679139Y-80580047D01*
X95840047Y-80419139D01*
X95970568Y-80232734D01*
X95970577Y-80232713D01*
X95971663Y-80230834D01*
X95972370Y-80230159D01*
X95973673Y-80228299D01*
X95974046Y-80228560D01*
X96022225Y-80182613D01*
X96046957Y-80173050D01*
X96101702Y-80158382D01*
X96171552Y-80160045D01*
X96229414Y-80199209D01*
X96246174Y-80225748D01*
X96249429Y-80232729D01*
X96249432Y-80232734D01*
X96379954Y-80419141D01*
X96540858Y-80580045D01*
X96540861Y-80580047D01*
X96727266Y-80710568D01*
X96933504Y-80806739D01*
X96933509Y-80806740D01*
X96933511Y-80806741D01*
X96986415Y-80820916D01*
X97153308Y-80865635D01*
X97315230Y-80879801D01*
X97379998Y-80885468D01*
X97380000Y-80885468D01*
X97380002Y-80885468D01*
X97436673Y-80880509D01*
X97606692Y-80865635D01*
X97826496Y-80806739D01*
X98032734Y-80710568D01*
X98219139Y-80580047D01*
X98380047Y-80419139D01*
X98510568Y-80232734D01*
X98537618Y-80174724D01*
X98583790Y-80122285D01*
X98650983Y-80103133D01*
X98717865Y-80123348D01*
X98762382Y-80174725D01*
X98789429Y-80232728D01*
X98789432Y-80232734D01*
X98919954Y-80419141D01*
X99080858Y-80580045D01*
X99080861Y-80580047D01*
X99267266Y-80710568D01*
X99473504Y-80806739D01*
X99473509Y-80806740D01*
X99473511Y-80806741D01*
X99526415Y-80820916D01*
X99693308Y-80865635D01*
X99855230Y-80879801D01*
X99919998Y-80885468D01*
X99920000Y-80885468D01*
X99920002Y-80885468D01*
X99976673Y-80880509D01*
X100146692Y-80865635D01*
X100366496Y-80806739D01*
X100499499Y-80744718D01*
X100568572Y-80734227D01*
X100632356Y-80762746D01*
X100670596Y-80821222D01*
X100675900Y-80857101D01*
X100675900Y-81203502D01*
X100656215Y-81270541D01*
X100639581Y-81291183D01*
X96005855Y-85924909D01*
X95944532Y-85958394D01*
X95874841Y-85953410D01*
X95747482Y-85905908D01*
X95747483Y-85905908D01*
X95687883Y-85899501D01*
X95687881Y-85899500D01*
X95687873Y-85899500D01*
X95687864Y-85899500D01*
X93992129Y-85899500D01*
X93992123Y-85899501D01*
X93932516Y-85905908D01*
X93797671Y-85956202D01*
X93797664Y-85956206D01*
X93682455Y-86042452D01*
X93682452Y-86042455D01*
X93596206Y-86157664D01*
X93596202Y-86157671D01*
X93545908Y-86292517D01*
X93539501Y-86352116D01*
X93539500Y-86352135D01*
X93539500Y-88047870D01*
X93539501Y-88047876D01*
X93545908Y-88107483D01*
X93596202Y-88242328D01*
X93596206Y-88242335D01*
X93682452Y-88357544D01*
X93682455Y-88357547D01*
X93797664Y-88443793D01*
X93797671Y-88443797D01*
X93807074Y-88447304D01*
X93932517Y-88494091D01*
X93992127Y-88500500D01*
X94454803Y-88500499D01*
X94521841Y-88520183D01*
X94567596Y-88572987D01*
X94577540Y-88642146D01*
X94548515Y-88705702D01*
X94542483Y-88712180D01*
X94004284Y-89250381D01*
X93942961Y-89283866D01*
X93916603Y-89286700D01*
X93382912Y-89286700D01*
X93315873Y-89267015D01*
X93305597Y-89259645D01*
X93302763Y-89257385D01*
X93302762Y-89257384D01*
X93222510Y-89206958D01*
X93150023Y-89161411D01*
X92979754Y-89101831D01*
X92979749Y-89101830D01*
X92800504Y-89081635D01*
X92800496Y-89081635D01*
X92621250Y-89101830D01*
X92621245Y-89101831D01*
X92450976Y-89161411D01*
X92298237Y-89257384D01*
X92170684Y-89384937D01*
X92074711Y-89537676D01*
X92015131Y-89707945D01*
X92015130Y-89707950D01*
X91994935Y-89887196D01*
X91994935Y-89887203D01*
X92015130Y-90066449D01*
X92015131Y-90066454D01*
X92074711Y-90236723D01*
X92133007Y-90329500D01*
X92170684Y-90389462D01*
X92298238Y-90517016D01*
X92410685Y-90587671D01*
X92450978Y-90612989D01*
X92554914Y-90649358D01*
X92611691Y-90690080D01*
X92637438Y-90755033D01*
X92623982Y-90823594D01*
X92575595Y-90873997D01*
X92513960Y-90890400D01*
X90326140Y-90890400D01*
X90285219Y-90901364D01*
X90285219Y-90901365D01*
X90247951Y-90911351D01*
X90173414Y-90931323D01*
X90173409Y-90931326D01*
X90036490Y-91010375D01*
X90036482Y-91010381D01*
X89924678Y-91122186D01*
X89168580Y-91878283D01*
X89107257Y-91911768D01*
X89037565Y-91906784D01*
X88981632Y-91864912D01*
X88963857Y-91831556D01*
X88963218Y-91829731D01*
X88905289Y-91664178D01*
X88809316Y-91511438D01*
X88681762Y-91383884D01*
X88653669Y-91366232D01*
X88529023Y-91287911D01*
X88358754Y-91228331D01*
X88358749Y-91228330D01*
X88179504Y-91208135D01*
X88179496Y-91208135D01*
X88000250Y-91228330D01*
X88000245Y-91228331D01*
X87829976Y-91287911D01*
X87677237Y-91383884D01*
X87549684Y-91511437D01*
X87453711Y-91664176D01*
X87394131Y-91834445D01*
X87394130Y-91834450D01*
X87373935Y-92013696D01*
X87373935Y-92013703D01*
X87394130Y-92192949D01*
X87394131Y-92192954D01*
X87453711Y-92363223D01*
X87535069Y-92492703D01*
X87549684Y-92515962D01*
X87677238Y-92643516D01*
X87829978Y-92739489D01*
X87949798Y-92781416D01*
X87997356Y-92798057D01*
X88054132Y-92838779D01*
X88079880Y-92903732D01*
X88066424Y-92972293D01*
X88044083Y-93002780D01*
X87685784Y-93361081D01*
X87624461Y-93394566D01*
X87598103Y-93397400D01*
X84243273Y-93397400D01*
X84176234Y-93377715D01*
X84130479Y-93324911D01*
X84126236Y-93314367D01*
X84068889Y-93150478D01*
X83972916Y-92997738D01*
X83845362Y-92870184D01*
X83692623Y-92774211D01*
X83522354Y-92714631D01*
X83522349Y-92714630D01*
X83343104Y-92694435D01*
X83343096Y-92694435D01*
X83163850Y-92714630D01*
X83163835Y-92714634D01*
X83151652Y-92718897D01*
X83081873Y-92722458D01*
X83021247Y-92687727D01*
X82989021Y-92625733D01*
X82986700Y-92601855D01*
X82986700Y-89273997D01*
X83006385Y-89206958D01*
X83023019Y-89186316D01*
X83193996Y-89015339D01*
X83440520Y-88768816D01*
X83519577Y-88631884D01*
X83553051Y-88506959D01*
X83589414Y-88447303D01*
X83610841Y-88431660D01*
X83612726Y-88430571D01*
X83612734Y-88430568D01*
X83612746Y-88430560D01*
X83697258Y-88371384D01*
X83799139Y-88300047D01*
X83960047Y-88139139D01*
X84090568Y-87952734D01*
X84117618Y-87894724D01*
X84163790Y-87842285D01*
X84230983Y-87823133D01*
X84297865Y-87843348D01*
X84342382Y-87894725D01*
X84369429Y-87952728D01*
X84369432Y-87952734D01*
X84499954Y-88139141D01*
X84660858Y-88300045D01*
X84660861Y-88300047D01*
X84847266Y-88430568D01*
X85053504Y-88526739D01*
X85053509Y-88526740D01*
X85053511Y-88526741D01*
X85072709Y-88531885D01*
X85273308Y-88585635D01*
X85429694Y-88599317D01*
X85499998Y-88605468D01*
X85500000Y-88605468D01*
X85500002Y-88605468D01*
X85570306Y-88599317D01*
X85726692Y-88585635D01*
X85946496Y-88526739D01*
X86152734Y-88430568D01*
X86339139Y-88300047D01*
X86500047Y-88139139D01*
X86630568Y-87952734D01*
X86657895Y-87894129D01*
X86704064Y-87841695D01*
X86771257Y-87822542D01*
X86838139Y-87842757D01*
X86882657Y-87894133D01*
X86909865Y-87952482D01*
X87040342Y-88138820D01*
X87201179Y-88299657D01*
X87387517Y-88430134D01*
X87593673Y-88526265D01*
X87593682Y-88526269D01*
X87789999Y-88578872D01*
X87790000Y-88578871D01*
X87790000Y-87615686D01*
X87794394Y-87620080D01*
X87885606Y-87672741D01*
X87987339Y-87700000D01*
X88092661Y-87700000D01*
X88194394Y-87672741D01*
X88285606Y-87620080D01*
X88290000Y-87615686D01*
X88290000Y-88578872D01*
X88486317Y-88526269D01*
X88486326Y-88526265D01*
X88692482Y-88430134D01*
X88878820Y-88299657D01*
X89039657Y-88138820D01*
X89170134Y-87952482D01*
X89266265Y-87746326D01*
X89266269Y-87746317D01*
X89318872Y-87550000D01*
X88355686Y-87550000D01*
X88360080Y-87545606D01*
X88412741Y-87454394D01*
X88440000Y-87352661D01*
X88440000Y-87247339D01*
X88412741Y-87145606D01*
X88360080Y-87054394D01*
X88355686Y-87050000D01*
X89318872Y-87050000D01*
X89318872Y-87049999D01*
X89266269Y-86853682D01*
X89266265Y-86853673D01*
X89170134Y-86647517D01*
X89039657Y-86461179D01*
X88878820Y-86300342D01*
X88692482Y-86169865D01*
X88486328Y-86073734D01*
X88290000Y-86021127D01*
X88290000Y-86984314D01*
X88285606Y-86979920D01*
X88194394Y-86927259D01*
X88092661Y-86900000D01*
X87987339Y-86900000D01*
X87885606Y-86927259D01*
X87794394Y-86979920D01*
X87790000Y-86984314D01*
X87790000Y-86021127D01*
X87593671Y-86073734D01*
X87387517Y-86169865D01*
X87201179Y-86300342D01*
X87040342Y-86461179D01*
X86909867Y-86647515D01*
X86882657Y-86705867D01*
X86836484Y-86758306D01*
X86769290Y-86777457D01*
X86702409Y-86757241D01*
X86657893Y-86705865D01*
X86644370Y-86676866D01*
X86630568Y-86647266D01*
X86500047Y-86460861D01*
X86500045Y-86460858D01*
X86339141Y-86299954D01*
X86152734Y-86169432D01*
X86152732Y-86169431D01*
X85946497Y-86073261D01*
X85946488Y-86073258D01*
X85726697Y-86014366D01*
X85726693Y-86014365D01*
X85726692Y-86014365D01*
X85726691Y-86014364D01*
X85726686Y-86014364D01*
X85500002Y-85994532D01*
X85499998Y-85994532D01*
X85273313Y-86014364D01*
X85273302Y-86014366D01*
X85053511Y-86073258D01*
X85053502Y-86073261D01*
X84847267Y-86169431D01*
X84847265Y-86169432D01*
X84660858Y-86299954D01*
X84499954Y-86460858D01*
X84369432Y-86647265D01*
X84369431Y-86647267D01*
X84342382Y-86705275D01*
X84296209Y-86757714D01*
X84229016Y-86776866D01*
X84162135Y-86756650D01*
X84117618Y-86705275D01*
X84104646Y-86677457D01*
X84090568Y-86647266D01*
X83960047Y-86460861D01*
X83960045Y-86460858D01*
X83799141Y-86299954D01*
X83612734Y-86169432D01*
X83612732Y-86169431D01*
X83406497Y-86073261D01*
X83406488Y-86073258D01*
X83186697Y-86014366D01*
X83186693Y-86014365D01*
X83186692Y-86014365D01*
X83186691Y-86014364D01*
X83186686Y-86014364D01*
X82960002Y-85994532D01*
X82959998Y-85994532D01*
X82733313Y-86014364D01*
X82733302Y-86014366D01*
X82513511Y-86073258D01*
X82513502Y-86073261D01*
X82307267Y-86169431D01*
X82307265Y-86169432D01*
X82120858Y-86299954D01*
X81959954Y-86460858D01*
X81829432Y-86647265D01*
X81829431Y-86647267D01*
X81802382Y-86705275D01*
X81756209Y-86757714D01*
X81689016Y-86776866D01*
X81622135Y-86756650D01*
X81577618Y-86705275D01*
X81564646Y-86677457D01*
X81550568Y-86647266D01*
X81420047Y-86460861D01*
X81420045Y-86460858D01*
X81259141Y-86299954D01*
X81072734Y-86169432D01*
X81072732Y-86169431D01*
X80866497Y-86073261D01*
X80866488Y-86073258D01*
X80646697Y-86014366D01*
X80646693Y-86014365D01*
X80646692Y-86014365D01*
X80646691Y-86014364D01*
X80646686Y-86014364D01*
X80420002Y-85994532D01*
X80419998Y-85994532D01*
X80193313Y-86014364D01*
X80193302Y-86014366D01*
X79973511Y-86073258D01*
X79973506Y-86073260D01*
X79926904Y-86094991D01*
X79857826Y-86105482D01*
X79794042Y-86076961D01*
X79755803Y-86018484D01*
X79750500Y-85982608D01*
X79750500Y-80997391D01*
X79770185Y-80930352D01*
X79822989Y-80884597D01*
X79892147Y-80874653D01*
X79926902Y-80885008D01*
X79973504Y-80906739D01*
X79973509Y-80906740D01*
X79973511Y-80906741D01*
X80005223Y-80915238D01*
X80193308Y-80965635D01*
X80351637Y-80979487D01*
X80419998Y-80985468D01*
X80420000Y-80985468D01*
X80420002Y-80985468D01*
X80488363Y-80979487D01*
X80646692Y-80965635D01*
X80866496Y-80906739D01*
X81072734Y-80810568D01*
X81259139Y-80680047D01*
X81420047Y-80519139D01*
X81550568Y-80332734D01*
X81577618Y-80274724D01*
X81623790Y-80222285D01*
X81690983Y-80203133D01*
X81757865Y-80223348D01*
X81802382Y-80274725D01*
X81829429Y-80332728D01*
X81829432Y-80332734D01*
X81959954Y-80519141D01*
X82120858Y-80680045D01*
X82120861Y-80680047D01*
X82307266Y-80810568D01*
X82513504Y-80906739D01*
X82513509Y-80906740D01*
X82513511Y-80906741D01*
X82545223Y-80915238D01*
X82733308Y-80965635D01*
X82891637Y-80979487D01*
X82959998Y-80985468D01*
X82960000Y-80985468D01*
X82960002Y-80985468D01*
X83028363Y-80979487D01*
X83186692Y-80965635D01*
X83406496Y-80906739D01*
X83612734Y-80810568D01*
X83799139Y-80680047D01*
X83960047Y-80519139D01*
X84090568Y-80332734D01*
X84117618Y-80274724D01*
X84163790Y-80222285D01*
X84230983Y-80203133D01*
X84297865Y-80223348D01*
X84342382Y-80274725D01*
X84369429Y-80332728D01*
X84369432Y-80332734D01*
X84499954Y-80519141D01*
X84660858Y-80680045D01*
X84660861Y-80680047D01*
X84847266Y-80810568D01*
X85053504Y-80906739D01*
X85053509Y-80906740D01*
X85053511Y-80906741D01*
X85085223Y-80915238D01*
X85273308Y-80965635D01*
X85431637Y-80979487D01*
X85499998Y-80985468D01*
X85500000Y-80985468D01*
X85500002Y-80985468D01*
X85568363Y-80979487D01*
X85726692Y-80965635D01*
X85946496Y-80906739D01*
X85993096Y-80885008D01*
X86062172Y-80874517D01*
X86125956Y-80903036D01*
X86164196Y-80961513D01*
X86169500Y-80997391D01*
X86169500Y-83183330D01*
X86169499Y-83183348D01*
X86169499Y-83349054D01*
X86169498Y-83349054D01*
X86210423Y-83501785D01*
X86239358Y-83551900D01*
X86239359Y-83551904D01*
X86239360Y-83551904D01*
X86276027Y-83615415D01*
X86289479Y-83638714D01*
X86289481Y-83638717D01*
X86408349Y-83757585D01*
X86408355Y-83757590D01*
X87608798Y-84958034D01*
X87642283Y-85019357D01*
X87644337Y-85031831D01*
X87654130Y-85118749D01*
X87713710Y-85289021D01*
X87714074Y-85289600D01*
X87809684Y-85441762D01*
X87937238Y-85569316D01*
X87988072Y-85601257D01*
X88048333Y-85639122D01*
X88089978Y-85665289D01*
X88260245Y-85724868D01*
X88260250Y-85724869D01*
X88439496Y-85745065D01*
X88439500Y-85745065D01*
X88439504Y-85745065D01*
X88618749Y-85724869D01*
X88618752Y-85724868D01*
X88618755Y-85724868D01*
X88789022Y-85665289D01*
X88941762Y-85569316D01*
X89069316Y-85441762D01*
X89165289Y-85289022D01*
X89224868Y-85118755D01*
X89233552Y-85041681D01*
X89245065Y-84939503D01*
X89245065Y-84939496D01*
X89224869Y-84760250D01*
X89224868Y-84760245D01*
X89188145Y-84655296D01*
X89165289Y-84589978D01*
X89151237Y-84567615D01*
X89111411Y-84504232D01*
X89069316Y-84437238D01*
X88941762Y-84309684D01*
X88888382Y-84276143D01*
X88789021Y-84213710D01*
X88618749Y-84154130D01*
X88531831Y-84144337D01*
X88467417Y-84117270D01*
X88458034Y-84108798D01*
X87406819Y-83057583D01*
X87373334Y-82996260D01*
X87370500Y-82969902D01*
X87370500Y-80997391D01*
X87390185Y-80930352D01*
X87442989Y-80884597D01*
X87512147Y-80874653D01*
X87546902Y-80885008D01*
X87593504Y-80906739D01*
X87593509Y-80906740D01*
X87593511Y-80906741D01*
X87625223Y-80915238D01*
X87813308Y-80965635D01*
X87971637Y-80979487D01*
X88039998Y-80985468D01*
X88040000Y-80985468D01*
X88040002Y-80985468D01*
X88108363Y-80979487D01*
X88266692Y-80965635D01*
X88486496Y-80906739D01*
X88692734Y-80810568D01*
X88879139Y-80680047D01*
X89040047Y-80519139D01*
X89170568Y-80332734D01*
X89266739Y-80126496D01*
X89325635Y-79906692D01*
X89345468Y-79680000D01*
X89325635Y-79453308D01*
X89266739Y-79233504D01*
X89170568Y-79027266D01*
X89040047Y-78840861D01*
X89040045Y-78840858D01*
X88879141Y-78679954D01*
X88692734Y-78549432D01*
X88692732Y-78549431D01*
X88486497Y-78453261D01*
X88486488Y-78453258D01*
X88266697Y-78394366D01*
X88266693Y-78394365D01*
X88266692Y-78394365D01*
X88266691Y-78394364D01*
X88266686Y-78394364D01*
X88040002Y-78374532D01*
X88039998Y-78374532D01*
X87813313Y-78394364D01*
X87813302Y-78394366D01*
X87593511Y-78453258D01*
X87593506Y-78453260D01*
X87546904Y-78474991D01*
X87477826Y-78485482D01*
X87414042Y-78456961D01*
X87375803Y-78398484D01*
X87370500Y-78362608D01*
X87370500Y-71256560D01*
X87370501Y-71256547D01*
X87370501Y-71088444D01*
X87370501Y-71088443D01*
X87329577Y-70935716D01*
X87324255Y-70926498D01*
X87307783Y-70858601D01*
X87330635Y-70792574D01*
X87385556Y-70749383D01*
X87431643Y-70740500D01*
X87492316Y-70740500D01*
X87492318Y-70740500D01*
X87492321Y-70740499D01*
X87492329Y-70740499D01*
X87733752Y-70710000D01*
X87804473Y-70701066D01*
X88109225Y-70622819D01*
X88109228Y-70622818D01*
X88401757Y-70506998D01*
X88401758Y-70506997D01*
X88401756Y-70506997D01*
X88401766Y-70506994D01*
X88677484Y-70355416D01*
X88932030Y-70170478D01*
X89161390Y-69955094D01*
X89361947Y-69712663D01*
X89530537Y-69447007D01*
X89664503Y-69162315D01*
X89761731Y-68863079D01*
X89820688Y-68554015D01*
X89823932Y-68502454D01*
X89840444Y-68240005D01*
X89840444Y-68239994D01*
X89820689Y-67925995D01*
X89820688Y-67925988D01*
X89820688Y-67925985D01*
X89802817Y-67832300D01*
X91759172Y-67832300D01*
X91778462Y-68126612D01*
X91778464Y-68126624D01*
X91836001Y-68415884D01*
X91836005Y-68415899D01*
X91930812Y-68695188D01*
X92061258Y-68959706D01*
X92061265Y-68959719D01*
X92225123Y-69204949D01*
X92254405Y-69238340D01*
X93041912Y-68450832D01*
X93136829Y-68581475D01*
X93264825Y-68709471D01*
X93395465Y-68804386D01*
X92607958Y-69591893D01*
X92641350Y-69621176D01*
X92886580Y-69785034D01*
X92886593Y-69785041D01*
X93151111Y-69915487D01*
X93430400Y-70010294D01*
X93430415Y-70010298D01*
X93719675Y-70067835D01*
X93719687Y-70067837D01*
X94014000Y-70087127D01*
X94308312Y-70067837D01*
X94308324Y-70067835D01*
X94597584Y-70010298D01*
X94597599Y-70010294D01*
X94876888Y-69915487D01*
X95141406Y-69785041D01*
X95141419Y-69785034D01*
X95386648Y-69621177D01*
X95420039Y-69591893D01*
X94632533Y-68804386D01*
X94763175Y-68709471D01*
X94891171Y-68581475D01*
X94986087Y-68450833D01*
X95773593Y-69238339D01*
X95802877Y-69204948D01*
X95966734Y-68959719D01*
X95966741Y-68959706D01*
X96097187Y-68695188D01*
X96191994Y-68415899D01*
X96191998Y-68415884D01*
X96249535Y-68126624D01*
X96249537Y-68126612D01*
X96268827Y-67832300D01*
X96249537Y-67537987D01*
X96249535Y-67537975D01*
X96191998Y-67248715D01*
X96191994Y-67248700D01*
X96097187Y-66969411D01*
X95966741Y-66704893D01*
X95966734Y-66704880D01*
X95802876Y-66459650D01*
X95773593Y-66426258D01*
X94986086Y-67213765D01*
X94891171Y-67083125D01*
X94763175Y-66955129D01*
X94632533Y-66860212D01*
X95420040Y-66072705D01*
X95386649Y-66043423D01*
X95141419Y-65879565D01*
X95141406Y-65879558D01*
X94876888Y-65749112D01*
X94597599Y-65654305D01*
X94597584Y-65654301D01*
X94308324Y-65596764D01*
X94308312Y-65596762D01*
X94014000Y-65577472D01*
X93719687Y-65596762D01*
X93719675Y-65596764D01*
X93430415Y-65654301D01*
X93430400Y-65654305D01*
X93151111Y-65749112D01*
X92886593Y-65879558D01*
X92886580Y-65879565D01*
X92641346Y-66043426D01*
X92641339Y-66043431D01*
X92607959Y-66072703D01*
X92607959Y-66072705D01*
X93395466Y-66860212D01*
X93264825Y-66955129D01*
X93136829Y-67083125D01*
X93041912Y-67213766D01*
X92254405Y-66426259D01*
X92254403Y-66426259D01*
X92225131Y-66459639D01*
X92225126Y-66459646D01*
X92061265Y-66704880D01*
X92061258Y-66704893D01*
X91930812Y-66969411D01*
X91836005Y-67248700D01*
X91836001Y-67248715D01*
X91778464Y-67537975D01*
X91778462Y-67537987D01*
X91759172Y-67832300D01*
X89802817Y-67832300D01*
X89761731Y-67616921D01*
X89664503Y-67317685D01*
X89530537Y-67032993D01*
X89463106Y-66926738D01*
X89361948Y-66767338D01*
X89361945Y-66767334D01*
X89161393Y-66524909D01*
X89161391Y-66524907D01*
X89158527Y-66522217D01*
X88932030Y-66309522D01*
X88932027Y-66309520D01*
X88932021Y-66309515D01*
X88677495Y-66124591D01*
X88677488Y-66124586D01*
X88677484Y-66124584D01*
X88401766Y-65973006D01*
X88401763Y-65973004D01*
X88401758Y-65973002D01*
X88401757Y-65973001D01*
X88109228Y-65857181D01*
X88109225Y-65857180D01*
X87804476Y-65778934D01*
X87804463Y-65778932D01*
X87492329Y-65739500D01*
X87492318Y-65739500D01*
X87177682Y-65739500D01*
X87177670Y-65739500D01*
X86865536Y-65778932D01*
X86865523Y-65778934D01*
X86560774Y-65857180D01*
X86560771Y-65857181D01*
X86268242Y-65973001D01*
X86268241Y-65973002D01*
X85992516Y-66124584D01*
X85992504Y-66124591D01*
X85737978Y-66309515D01*
X85737968Y-66309523D01*
X85508608Y-66524907D01*
X85508606Y-66524909D01*
X85308054Y-66767334D01*
X85308051Y-66767338D01*
X85139464Y-67032990D01*
X85139461Y-67032996D01*
X85005499Y-67317678D01*
X85005497Y-67317683D01*
X84908270Y-67616916D01*
X84849311Y-67925988D01*
X84849310Y-67925994D01*
X84838641Y-68095575D01*
X84814786Y-68161246D01*
X84759213Y-68203594D01*
X84689567Y-68209175D01*
X84627959Y-68176217D01*
X84627205Y-68175469D01*
X80672290Y-64220555D01*
X80672288Y-64220552D01*
X80553417Y-64101681D01*
X80553416Y-64101680D01*
X80466604Y-64051560D01*
X80466604Y-64051559D01*
X80466600Y-64051558D01*
X80416485Y-64022623D01*
X80263757Y-63981699D01*
X80105643Y-63981699D01*
X80098047Y-63981699D01*
X80098031Y-63981700D01*
X78594469Y-63981700D01*
X78594453Y-63981699D01*
X78586857Y-63981699D01*
X78428743Y-63981699D01*
X78321387Y-64010465D01*
X78276010Y-64022624D01*
X78276009Y-64022625D01*
X78225896Y-64051559D01*
X78225895Y-64051560D01*
X78182489Y-64076620D01*
X78139085Y-64101679D01*
X78139082Y-64101681D01*
X78027278Y-64213486D01*
X77832705Y-64408058D01*
X77771382Y-64441543D01*
X77712931Y-64440152D01*
X77616697Y-64414366D01*
X77616693Y-64414365D01*
X77616692Y-64414365D01*
X77616691Y-64414364D01*
X77616686Y-64414364D01*
X77390002Y-64394532D01*
X77389998Y-64394532D01*
X77163313Y-64414364D01*
X77163302Y-64414366D01*
X76943511Y-64473258D01*
X76943502Y-64473261D01*
X76737267Y-64569431D01*
X76737265Y-64569432D01*
X76550858Y-64699954D01*
X76389953Y-64860859D01*
X76346575Y-64922811D01*
X76291998Y-64966436D01*
X76222500Y-64973630D01*
X76160145Y-64942107D01*
X76143425Y-64922811D01*
X76100046Y-64860859D01*
X75939141Y-64699954D01*
X75752734Y-64569432D01*
X75752732Y-64569431D01*
X75546497Y-64473261D01*
X75546488Y-64473258D01*
X75326697Y-64414366D01*
X75326693Y-64414365D01*
X75326692Y-64414365D01*
X75326691Y-64414364D01*
X75326686Y-64414364D01*
X75100002Y-64394532D01*
X75099998Y-64394532D01*
X74873313Y-64414364D01*
X74873302Y-64414366D01*
X74653511Y-64473258D01*
X74653502Y-64473261D01*
X74447267Y-64569431D01*
X74447265Y-64569432D01*
X74260858Y-64699954D01*
X74099953Y-64860859D01*
X74056575Y-64922811D01*
X74001998Y-64966436D01*
X73932500Y-64973630D01*
X73870145Y-64942107D01*
X73853425Y-64922811D01*
X73810046Y-64860859D01*
X73649141Y-64699954D01*
X73462734Y-64569432D01*
X73462732Y-64569431D01*
X73256497Y-64473261D01*
X73256488Y-64473258D01*
X73036697Y-64414366D01*
X73036693Y-64414365D01*
X73036692Y-64414365D01*
X73036691Y-64414364D01*
X73036686Y-64414364D01*
X72810002Y-64394532D01*
X72809998Y-64394532D01*
X72583313Y-64414364D01*
X72583302Y-64414366D01*
X72363511Y-64473258D01*
X72363502Y-64473261D01*
X72157267Y-64569431D01*
X72157265Y-64569432D01*
X71970858Y-64699954D01*
X71809953Y-64860859D01*
X71766575Y-64922811D01*
X71711998Y-64966436D01*
X71642500Y-64973630D01*
X71580145Y-64942107D01*
X71563425Y-64922811D01*
X71520046Y-64860859D01*
X71359141Y-64699954D01*
X71172734Y-64569432D01*
X71172732Y-64569431D01*
X70966497Y-64473261D01*
X70966488Y-64473258D01*
X70746697Y-64414366D01*
X70746693Y-64414365D01*
X70746692Y-64414365D01*
X70746691Y-64414364D01*
X70746686Y-64414364D01*
X70520002Y-64394532D01*
X70519998Y-64394532D01*
X70293313Y-64414364D01*
X70293302Y-64414366D01*
X70073511Y-64473258D01*
X70073502Y-64473261D01*
X69867267Y-64569431D01*
X69867265Y-64569432D01*
X69680858Y-64699954D01*
X69519954Y-64860858D01*
X69389432Y-65047265D01*
X69389431Y-65047267D01*
X69293261Y-65253502D01*
X69293258Y-65253511D01*
X69234366Y-65473302D01*
X69234364Y-65473313D01*
X69214532Y-65699998D01*
X69214532Y-65700001D01*
X69234364Y-65926686D01*
X69234366Y-65926697D01*
X69293258Y-66146488D01*
X69293261Y-66146496D01*
X69321998Y-66208123D01*
X69324015Y-66212447D01*
X69334507Y-66281524D01*
X69305988Y-66345308D01*
X69247511Y-66383548D01*
X69222442Y-66388380D01*
X69148399Y-66394858D01*
X69148389Y-66394860D01*
X68928682Y-66453730D01*
X68928673Y-66453734D01*
X68722516Y-66549866D01*
X68722512Y-66549868D01*
X68649526Y-66600973D01*
X68649526Y-66600974D01*
X69245590Y-67197037D01*
X69182007Y-67214075D01*
X69067993Y-67279901D01*
X68974901Y-67372993D01*
X68909075Y-67487007D01*
X68892037Y-67550589D01*
X68295974Y-66954526D01*
X68295973Y-66954526D01*
X68244868Y-67027512D01*
X68244866Y-67027516D01*
X68148734Y-67233673D01*
X68148730Y-67233682D01*
X68089860Y-67453389D01*
X68089858Y-67453400D01*
X68070034Y-67679997D01*
X68070034Y-67679999D01*
X68089858Y-67906599D01*
X68089860Y-67906610D01*
X68148730Y-68126317D01*
X68148735Y-68126331D01*
X68244863Y-68332478D01*
X68295974Y-68405472D01*
X68892037Y-67809409D01*
X68909075Y-67872993D01*
X68974901Y-67987007D01*
X69067993Y-68080099D01*
X69182007Y-68145925D01*
X69245588Y-68162962D01*
X68649526Y-68759025D01*
X68722513Y-68810132D01*
X68722521Y-68810136D01*
X68928668Y-68906264D01*
X68928682Y-68906269D01*
X69127593Y-68959567D01*
X69187254Y-68995932D01*
X69217783Y-69058779D01*
X69219500Y-69079342D01*
X69219500Y-70507870D01*
X69219501Y-70507876D01*
X69225908Y-70567483D01*
X69276202Y-70702328D01*
X69276206Y-70702335D01*
X69362452Y-70817544D01*
X69362455Y-70817547D01*
X69477664Y-70903793D01*
X69477671Y-70903797D01*
X69612517Y-70954091D01*
X69612516Y-70954091D01*
X69619444Y-70954835D01*
X69672127Y-70960500D01*
X71367872Y-70960499D01*
X71427483Y-70954091D01*
X71562331Y-70903796D01*
X71677546Y-70817546D01*
X71763796Y-70702331D01*
X71764104Y-70701506D01*
X71764630Y-70700802D01*
X71768047Y-70694546D01*
X71768946Y-70695037D01*
X71805974Y-70645571D01*
X71871437Y-70621152D01*
X71939711Y-70636002D01*
X71967968Y-70657155D01*
X71970858Y-70660045D01*
X71970861Y-70660047D01*
X72157266Y-70790568D01*
X72363504Y-70886739D01*
X72583308Y-70945635D01*
X72745230Y-70959801D01*
X72809998Y-70965468D01*
X72810000Y-70965468D01*
X72810002Y-70965468D01*
X72866807Y-70960498D01*
X73036692Y-70945635D01*
X73256496Y-70886739D01*
X73462734Y-70790568D01*
X73649139Y-70660047D01*
X73810047Y-70499139D01*
X73853425Y-70437188D01*
X73908001Y-70393563D01*
X73977499Y-70386369D01*
X74039854Y-70417891D01*
X74056573Y-70437186D01*
X74087770Y-70481740D01*
X74099955Y-70499142D01*
X74260858Y-70660045D01*
X74260861Y-70660047D01*
X74447266Y-70790568D01*
X74653504Y-70886739D01*
X74873308Y-70945635D01*
X75035230Y-70959801D01*
X75099998Y-70965468D01*
X75100000Y-70965468D01*
X75100002Y-70965468D01*
X75156807Y-70960498D01*
X75326692Y-70945635D01*
X75546496Y-70886739D01*
X75752734Y-70790568D01*
X75939139Y-70660047D01*
X76100047Y-70499139D01*
X76143425Y-70437188D01*
X76198001Y-70393563D01*
X76267499Y-70386369D01*
X76329854Y-70417891D01*
X76346573Y-70437186D01*
X76377770Y-70481740D01*
X76389955Y-70499142D01*
X76550858Y-70660045D01*
X76550861Y-70660047D01*
X76737266Y-70790568D01*
X76943504Y-70886739D01*
X77163308Y-70945635D01*
X77325230Y-70959801D01*
X77389998Y-70965468D01*
X77390000Y-70965468D01*
X77390002Y-70965468D01*
X77446807Y-70960498D01*
X77616692Y-70945635D01*
X77836496Y-70886739D01*
X78042734Y-70790568D01*
X78229139Y-70660047D01*
X78390047Y-70499139D01*
X78436155Y-70433289D01*
X78490731Y-70389664D01*
X78548538Y-70380884D01*
X78600974Y-70385472D01*
X79197037Y-69789408D01*
X79214075Y-69852993D01*
X79279901Y-69967007D01*
X79372993Y-70060099D01*
X79487007Y-70125925D01*
X79550590Y-70142962D01*
X78954526Y-70739025D01*
X79027513Y-70790132D01*
X79027521Y-70790136D01*
X79233668Y-70886264D01*
X79233682Y-70886269D01*
X79453389Y-70945139D01*
X79453400Y-70945141D01*
X79679998Y-70964966D01*
X79680002Y-70964966D01*
X79906599Y-70945141D01*
X79906610Y-70945139D01*
X80126317Y-70886269D01*
X80126331Y-70886264D01*
X80332478Y-70790136D01*
X80405471Y-70739024D01*
X79809409Y-70142962D01*
X79872993Y-70125925D01*
X79987007Y-70060099D01*
X80080099Y-69967007D01*
X80145925Y-69852993D01*
X80162962Y-69789409D01*
X80759024Y-70385471D01*
X80810136Y-70312478D01*
X80906264Y-70106331D01*
X80906269Y-70106317D01*
X80965139Y-69886610D01*
X80965141Y-69886599D01*
X80984966Y-69660002D01*
X80984966Y-69659997D01*
X80965141Y-69433400D01*
X80965139Y-69433389D01*
X80906269Y-69213682D01*
X80906264Y-69213668D01*
X80810136Y-69007521D01*
X80810132Y-69007513D01*
X80759025Y-68934526D01*
X80162962Y-69530589D01*
X80145925Y-69467007D01*
X80080099Y-69352993D01*
X79987007Y-69259901D01*
X79872993Y-69194075D01*
X79809408Y-69177037D01*
X80405472Y-68580974D01*
X80332478Y-68529863D01*
X80126331Y-68433735D01*
X80126317Y-68433730D01*
X79906610Y-68374860D01*
X79906600Y-68374858D01*
X79832028Y-68368334D01*
X79766959Y-68342881D01*
X79725981Y-68286290D01*
X79722103Y-68216528D01*
X79730454Y-68192400D01*
X79761267Y-68126321D01*
X79761269Y-68126317D01*
X79820139Y-67906610D01*
X79820141Y-67906599D01*
X79839966Y-67679999D01*
X79839966Y-67679997D01*
X79820141Y-67453400D01*
X79820139Y-67453389D01*
X79761269Y-67233682D01*
X79761266Y-67233673D01*
X79730679Y-67168080D01*
X79720187Y-67099003D01*
X79748706Y-67035219D01*
X79807183Y-66996979D01*
X79832249Y-66992147D01*
X79906692Y-66985635D01*
X80126496Y-66926739D01*
X80332734Y-66830568D01*
X80519139Y-66700047D01*
X80680047Y-66539139D01*
X80810568Y-66352734D01*
X80829678Y-66311750D01*
X80875847Y-66259314D01*
X80943041Y-66240161D01*
X81009922Y-66260376D01*
X81029740Y-66276476D01*
X86133181Y-71379916D01*
X86166666Y-71441239D01*
X86169500Y-71467597D01*
X86169500Y-78362608D01*
X86149815Y-78429647D01*
X86097011Y-78475402D01*
X86027853Y-78485346D01*
X85993096Y-78474991D01*
X85985170Y-78471295D01*
X85946496Y-78453261D01*
X85946493Y-78453260D01*
X85946488Y-78453258D01*
X85726697Y-78394366D01*
X85726693Y-78394365D01*
X85726692Y-78394365D01*
X85726691Y-78394364D01*
X85726686Y-78394364D01*
X85500002Y-78374532D01*
X85499998Y-78374532D01*
X85273313Y-78394364D01*
X85273302Y-78394366D01*
X85053511Y-78453258D01*
X85053502Y-78453261D01*
X84847267Y-78549431D01*
X84847265Y-78549432D01*
X84660858Y-78679954D01*
X84499954Y-78840858D01*
X84369432Y-79027265D01*
X84369431Y-79027267D01*
X84342382Y-79085275D01*
X84296209Y-79137714D01*
X84229016Y-79156866D01*
X84162135Y-79136650D01*
X84117618Y-79085275D01*
X84115345Y-79080400D01*
X84090568Y-79027266D01*
X83960047Y-78840861D01*
X83960045Y-78840858D01*
X83799141Y-78679954D01*
X83612734Y-78549432D01*
X83612732Y-78549431D01*
X83406497Y-78453261D01*
X83406488Y-78453258D01*
X83186697Y-78394366D01*
X83186693Y-78394365D01*
X83186692Y-78394365D01*
X83186691Y-78394364D01*
X83186686Y-78394364D01*
X82960002Y-78374532D01*
X82959998Y-78374532D01*
X82733313Y-78394364D01*
X82733302Y-78394366D01*
X82513511Y-78453258D01*
X82513502Y-78453261D01*
X82307267Y-78549431D01*
X82307265Y-78549432D01*
X82120858Y-78679954D01*
X81959954Y-78840858D01*
X81829432Y-79027265D01*
X81829431Y-79027267D01*
X81802382Y-79085275D01*
X81756209Y-79137714D01*
X81689016Y-79156866D01*
X81622135Y-79136650D01*
X81577618Y-79085275D01*
X81575345Y-79080400D01*
X81550568Y-79027266D01*
X81420047Y-78840861D01*
X81420045Y-78840858D01*
X81259141Y-78679954D01*
X81072734Y-78549432D01*
X81072732Y-78549431D01*
X80866497Y-78453261D01*
X80866488Y-78453258D01*
X80646697Y-78394366D01*
X80646693Y-78394365D01*
X80646692Y-78394365D01*
X80646691Y-78394364D01*
X80646686Y-78394364D01*
X80420002Y-78374532D01*
X80419998Y-78374532D01*
X80193313Y-78394364D01*
X80193302Y-78394366D01*
X79973511Y-78453258D01*
X79973506Y-78453260D01*
X79926904Y-78474991D01*
X79857826Y-78485482D01*
X79794042Y-78456961D01*
X79755803Y-78398484D01*
X79750500Y-78362608D01*
X79750500Y-76878396D01*
X79770185Y-76811357D01*
X79786814Y-76790720D01*
X82524313Y-74053221D01*
X82524316Y-74053220D01*
X82636120Y-73941416D01*
X82686239Y-73854604D01*
X82715177Y-73804485D01*
X82756100Y-73651758D01*
X82756100Y-73582412D01*
X82775785Y-73515373D01*
X82783155Y-73505097D01*
X82785410Y-73502267D01*
X82785416Y-73502262D01*
X82881389Y-73349522D01*
X82940968Y-73179255D01*
X82940969Y-73179249D01*
X82961165Y-73000003D01*
X82961165Y-72999996D01*
X82940969Y-72820750D01*
X82940968Y-72820745D01*
X82904028Y-72715176D01*
X82881389Y-72650478D01*
X82877058Y-72643586D01*
X82785415Y-72497737D01*
X82657862Y-72370184D01*
X82505123Y-72274211D01*
X82334854Y-72214631D01*
X82334849Y-72214630D01*
X82155604Y-72194435D01*
X82155596Y-72194435D01*
X81976350Y-72214630D01*
X81976345Y-72214631D01*
X81806076Y-72274211D01*
X81653337Y-72370184D01*
X81525784Y-72497737D01*
X81429811Y-72650476D01*
X81370231Y-72820745D01*
X81370230Y-72820750D01*
X81350035Y-72999996D01*
X81350035Y-73000003D01*
X81370230Y-73179249D01*
X81370231Y-73179254D01*
X81429929Y-73349859D01*
X81433490Y-73419638D01*
X81400568Y-73478495D01*
X80562952Y-74316112D01*
X80501629Y-74349597D01*
X80431938Y-74344613D01*
X80399267Y-74323616D01*
X80397905Y-74325325D01*
X80392462Y-74320984D01*
X80239723Y-74225011D01*
X80069454Y-74165431D01*
X80069449Y-74165430D01*
X79890204Y-74145235D01*
X79890196Y-74145235D01*
X79710950Y-74165430D01*
X79710945Y-74165431D01*
X79540676Y-74225011D01*
X79387937Y-74320984D01*
X79260384Y-74448537D01*
X79164410Y-74601278D01*
X79104830Y-74771550D01*
X79095037Y-74858467D01*
X79067970Y-74922881D01*
X79059498Y-74932264D01*
X76382886Y-77608878D01*
X76271081Y-77720682D01*
X76271077Y-77720687D01*
X76245736Y-77764582D01*
X76245735Y-77764584D01*
X76192023Y-77857615D01*
X76151099Y-78010343D01*
X76151099Y-78010345D01*
X76151099Y-78178446D01*
X76151100Y-78178459D01*
X76151100Y-78428638D01*
X76131415Y-78495677D01*
X76078611Y-78541432D01*
X76009453Y-78551376D01*
X75974695Y-78541020D01*
X75919747Y-78515397D01*
X75786496Y-78453261D01*
X75786492Y-78453260D01*
X75786488Y-78453258D01*
X75566697Y-78394366D01*
X75566693Y-78394365D01*
X75566692Y-78394365D01*
X75566691Y-78394364D01*
X75566686Y-78394364D01*
X75340002Y-78374532D01*
X75339998Y-78374532D01*
X75113313Y-78394364D01*
X75113302Y-78394366D01*
X74893511Y-78453258D01*
X74893506Y-78453260D01*
X74846904Y-78474991D01*
X74777826Y-78485482D01*
X74714042Y-78456961D01*
X74675803Y-78398484D01*
X74670500Y-78362608D01*
X74670500Y-77443996D01*
X74690185Y-77376957D01*
X74706815Y-77356319D01*
X75279835Y-76783298D01*
X75341156Y-76749815D01*
X75353611Y-76747763D01*
X75440555Y-76737968D01*
X75610822Y-76678389D01*
X75763562Y-76582416D01*
X75891116Y-76454862D01*
X75987089Y-76302122D01*
X76046668Y-76131855D01*
X76055136Y-76056700D01*
X76066865Y-75952603D01*
X76066865Y-75952596D01*
X76046669Y-75773350D01*
X76046668Y-75773345D01*
X76037167Y-75746193D01*
X75987089Y-75603078D01*
X75970286Y-75576337D01*
X75931833Y-75515139D01*
X75891116Y-75450338D01*
X75763562Y-75322784D01*
X75682570Y-75271893D01*
X75610823Y-75226811D01*
X75440554Y-75167231D01*
X75440549Y-75167230D01*
X75261304Y-75147035D01*
X75261296Y-75147035D01*
X75082050Y-75167230D01*
X75082045Y-75167231D01*
X74911776Y-75226811D01*
X74759037Y-75322784D01*
X74631484Y-75450337D01*
X74535510Y-75603078D01*
X74475930Y-75773350D01*
X74466137Y-75860268D01*
X74439070Y-75924682D01*
X74430598Y-75934065D01*
X73701286Y-76663378D01*
X73589481Y-76775182D01*
X73589479Y-76775184D01*
X73580513Y-76790715D01*
X73558132Y-76829481D01*
X73510423Y-76912115D01*
X73469499Y-77064843D01*
X73469499Y-77064845D01*
X73469499Y-77232946D01*
X73469500Y-77232959D01*
X73469500Y-78362608D01*
X73449815Y-78429647D01*
X73397011Y-78475402D01*
X73327853Y-78485346D01*
X73293096Y-78474991D01*
X73285170Y-78471295D01*
X73246496Y-78453261D01*
X73246493Y-78453260D01*
X73246488Y-78453258D01*
X73026697Y-78394366D01*
X73026693Y-78394365D01*
X73026692Y-78394365D01*
X73026691Y-78394364D01*
X73026686Y-78394364D01*
X72800002Y-78374532D01*
X72799998Y-78374532D01*
X72573313Y-78394364D01*
X72573302Y-78394366D01*
X72353511Y-78453258D01*
X72353502Y-78453261D01*
X72147267Y-78549431D01*
X72147265Y-78549432D01*
X71960858Y-78679954D01*
X71799954Y-78840858D01*
X71669432Y-79027265D01*
X71669431Y-79027267D01*
X71642382Y-79085275D01*
X71596209Y-79137714D01*
X71529016Y-79156866D01*
X71462135Y-79136650D01*
X71417618Y-79085275D01*
X71415345Y-79080400D01*
X71390568Y-79027266D01*
X71260047Y-78840861D01*
X71260045Y-78840858D01*
X71099141Y-78679954D01*
X70912734Y-78549432D01*
X70912732Y-78549431D01*
X70706497Y-78453261D01*
X70706488Y-78453258D01*
X70486697Y-78394366D01*
X70486693Y-78394365D01*
X70486692Y-78394365D01*
X70486691Y-78394364D01*
X70486686Y-78394364D01*
X70260002Y-78374532D01*
X70259998Y-78374532D01*
X70033313Y-78394364D01*
X70033302Y-78394366D01*
X69813511Y-78453258D01*
X69813502Y-78453261D01*
X69607267Y-78549431D01*
X69607265Y-78549432D01*
X69420858Y-78679954D01*
X69259954Y-78840858D01*
X69129432Y-79027265D01*
X69129431Y-79027267D01*
X69102382Y-79085275D01*
X69056209Y-79137714D01*
X68989016Y-79156866D01*
X68922135Y-79136650D01*
X68877618Y-79085275D01*
X68875345Y-79080400D01*
X68850568Y-79027266D01*
X68720047Y-78840861D01*
X68720045Y-78840858D01*
X68559141Y-78679954D01*
X68372734Y-78549432D01*
X68372732Y-78549431D01*
X68166497Y-78453261D01*
X68166488Y-78453258D01*
X67946697Y-78394366D01*
X67946693Y-78394365D01*
X67946692Y-78394365D01*
X67946691Y-78394364D01*
X67946686Y-78394364D01*
X67720002Y-78374532D01*
X67719998Y-78374532D01*
X67493313Y-78394364D01*
X67493302Y-78394366D01*
X67273511Y-78453258D01*
X67273506Y-78453260D01*
X67226904Y-78474991D01*
X67157826Y-78485482D01*
X67094042Y-78456961D01*
X67055803Y-78398484D01*
X67050500Y-78362608D01*
X67050500Y-74058059D01*
X67050501Y-74058046D01*
X67050501Y-73907196D01*
X76189135Y-73907196D01*
X76189135Y-73907203D01*
X76209330Y-74086449D01*
X76209331Y-74086454D01*
X76268911Y-74256723D01*
X76361322Y-74403793D01*
X76364884Y-74409462D01*
X76492438Y-74537016D01*
X76645178Y-74632989D01*
X76768099Y-74676001D01*
X76815445Y-74692568D01*
X76815450Y-74692569D01*
X76994696Y-74712765D01*
X76994700Y-74712765D01*
X76994704Y-74712765D01*
X77173949Y-74692569D01*
X77173952Y-74692568D01*
X77173955Y-74692568D01*
X77344222Y-74632989D01*
X77496962Y-74537016D01*
X77624516Y-74409462D01*
X77720489Y-74256722D01*
X77780068Y-74086455D01*
X77782663Y-74063426D01*
X77800265Y-73907203D01*
X77800265Y-73907196D01*
X77780069Y-73727950D01*
X77780068Y-73727945D01*
X77763646Y-73681015D01*
X77720489Y-73557678D01*
X77712794Y-73545432D01*
X77643205Y-73434681D01*
X77624516Y-73404938D01*
X77496962Y-73277384D01*
X77410188Y-73222860D01*
X77344223Y-73181411D01*
X77173954Y-73121831D01*
X77173949Y-73121830D01*
X76994704Y-73101635D01*
X76994696Y-73101635D01*
X76815450Y-73121830D01*
X76815445Y-73121831D01*
X76645176Y-73181411D01*
X76492437Y-73277384D01*
X76364884Y-73404937D01*
X76268911Y-73557676D01*
X76209331Y-73727945D01*
X76209330Y-73727950D01*
X76189135Y-73907196D01*
X67050501Y-73907196D01*
X67050501Y-73889945D01*
X67050501Y-73889943D01*
X67009577Y-73737215D01*
X66960238Y-73651758D01*
X66930520Y-73600284D01*
X66818716Y-73488480D01*
X66818715Y-73488479D01*
X66814385Y-73484149D01*
X66814374Y-73484139D01*
X66311700Y-72981465D01*
X66278215Y-72920142D01*
X66276163Y-72907686D01*
X66266368Y-72820745D01*
X66206789Y-72650478D01*
X66110816Y-72497738D01*
X65983262Y-72370184D01*
X65970715Y-72362300D01*
X65830523Y-72274211D01*
X65660254Y-72214631D01*
X65660249Y-72214630D01*
X65481004Y-72194435D01*
X65480996Y-72194435D01*
X65301750Y-72214630D01*
X65301745Y-72214631D01*
X65131476Y-72274211D01*
X64978737Y-72370184D01*
X64851184Y-72497737D01*
X64755211Y-72650476D01*
X64695631Y-72820745D01*
X64695630Y-72820750D01*
X64675435Y-72999996D01*
X64675435Y-73000003D01*
X64695630Y-73179249D01*
X64695631Y-73179254D01*
X64755211Y-73349523D01*
X64839803Y-73484149D01*
X64851184Y-73502262D01*
X64978738Y-73629816D01*
X65131478Y-73725789D01*
X65301745Y-73785368D01*
X65388669Y-73795161D01*
X65453080Y-73822226D01*
X65462465Y-73830700D01*
X65813181Y-74181416D01*
X65846666Y-74242739D01*
X65849500Y-74269097D01*
X65849500Y-78362608D01*
X65829815Y-78429647D01*
X65777011Y-78475402D01*
X65707853Y-78485346D01*
X65673096Y-78474991D01*
X65665170Y-78471295D01*
X65626496Y-78453261D01*
X65626493Y-78453260D01*
X65626488Y-78453258D01*
X65406697Y-78394366D01*
X65406693Y-78394365D01*
X65406692Y-78394365D01*
X65406691Y-78394364D01*
X65406686Y-78394364D01*
X65180002Y-78374532D01*
X65179998Y-78374532D01*
X64953313Y-78394364D01*
X64953302Y-78394366D01*
X64733511Y-78453258D01*
X64733502Y-78453261D01*
X64527267Y-78549431D01*
X64527265Y-78549432D01*
X64340858Y-78679954D01*
X64179954Y-78840858D01*
X64049432Y-79027265D01*
X64049431Y-79027267D01*
X64022382Y-79085275D01*
X63976209Y-79137714D01*
X63909016Y-79156866D01*
X63842135Y-79136650D01*
X63797618Y-79085275D01*
X63795345Y-79080400D01*
X63770568Y-79027266D01*
X63640047Y-78840861D01*
X63640045Y-78840858D01*
X63479141Y-78679954D01*
X63292734Y-78549432D01*
X63292732Y-78549431D01*
X63086497Y-78453261D01*
X63086488Y-78453258D01*
X62866697Y-78394366D01*
X62866693Y-78394365D01*
X62866692Y-78394365D01*
X62866691Y-78394364D01*
X62866686Y-78394364D01*
X62640002Y-78374532D01*
X62639998Y-78374532D01*
X62413313Y-78394364D01*
X62413302Y-78394366D01*
X62193511Y-78453258D01*
X62193502Y-78453261D01*
X61987267Y-78549431D01*
X61987265Y-78549432D01*
X61800858Y-78679954D01*
X61639954Y-78840858D01*
X61509432Y-79027265D01*
X61509431Y-79027267D01*
X61482382Y-79085275D01*
X61436209Y-79137714D01*
X61369016Y-79156866D01*
X61302135Y-79136650D01*
X61257618Y-79085275D01*
X61255345Y-79080400D01*
X61230568Y-79027266D01*
X61100047Y-78840861D01*
X61100045Y-78840858D01*
X60939141Y-78679954D01*
X60752734Y-78549432D01*
X60752732Y-78549431D01*
X60546497Y-78453261D01*
X60546488Y-78453258D01*
X60326697Y-78394366D01*
X60326693Y-78394365D01*
X60326692Y-78394365D01*
X60326691Y-78394364D01*
X60326686Y-78394364D01*
X60100002Y-78374532D01*
X60099998Y-78374532D01*
X59873313Y-78394364D01*
X59873302Y-78394366D01*
X59653511Y-78453258D01*
X59653502Y-78453261D01*
X59447267Y-78549431D01*
X59447265Y-78549432D01*
X59260858Y-78679954D01*
X59099954Y-78840858D01*
X58969432Y-79027265D01*
X58969431Y-79027267D01*
X58873261Y-79233502D01*
X58873258Y-79233511D01*
X58814366Y-79453302D01*
X58814364Y-79453313D01*
X58794532Y-79679998D01*
X58794532Y-79680001D01*
X58814364Y-79906686D01*
X58814366Y-79906697D01*
X58873258Y-80126488D01*
X58873261Y-80126497D01*
X58969431Y-80332732D01*
X58969432Y-80332734D01*
X59099954Y-80519141D01*
X59260858Y-80680045D01*
X59260861Y-80680047D01*
X59447266Y-80810568D01*
X59653504Y-80906739D01*
X59653509Y-80906740D01*
X59653511Y-80906741D01*
X59685223Y-80915238D01*
X59873308Y-80965635D01*
X60031637Y-80979487D01*
X60099998Y-80985468D01*
X60100000Y-80985468D01*
X60100002Y-80985468D01*
X60168363Y-80979487D01*
X60326692Y-80965635D01*
X60546496Y-80906739D01*
X60752734Y-80810568D01*
X60939139Y-80680047D01*
X61100047Y-80519139D01*
X61230568Y-80332734D01*
X61257618Y-80274724D01*
X61303790Y-80222285D01*
X61370983Y-80203133D01*
X61437865Y-80223348D01*
X61482382Y-80274725D01*
X61509429Y-80332728D01*
X61509432Y-80332734D01*
X61639954Y-80519141D01*
X61800858Y-80680045D01*
X61800861Y-80680047D01*
X61987266Y-80810568D01*
X62193504Y-80906739D01*
X62193509Y-80906740D01*
X62193511Y-80906741D01*
X62225223Y-80915238D01*
X62413308Y-80965635D01*
X62571637Y-80979487D01*
X62639998Y-80985468D01*
X62640000Y-80985468D01*
X62640002Y-80985468D01*
X62708363Y-80979487D01*
X62866692Y-80965635D01*
X63086496Y-80906739D01*
X63292734Y-80810568D01*
X63479139Y-80680047D01*
X63640047Y-80519139D01*
X63770568Y-80332734D01*
X63797618Y-80274724D01*
X63843790Y-80222285D01*
X63910983Y-80203133D01*
X63977865Y-80223348D01*
X64022382Y-80274725D01*
X64049429Y-80332728D01*
X64049432Y-80332734D01*
X64179954Y-80519141D01*
X64340858Y-80680045D01*
X64340861Y-80680047D01*
X64527266Y-80810568D01*
X64733504Y-80906739D01*
X64733509Y-80906740D01*
X64733511Y-80906741D01*
X64765223Y-80915238D01*
X64953308Y-80965635D01*
X65111637Y-80979487D01*
X65179998Y-80985468D01*
X65180000Y-80985468D01*
X65180002Y-80985468D01*
X65248363Y-80979487D01*
X65406692Y-80965635D01*
X65625126Y-80907106D01*
X65694974Y-80908769D01*
X65752837Y-80947931D01*
X65780341Y-81012160D01*
X65774260Y-81067835D01*
X65714630Y-81238250D01*
X65704837Y-81325167D01*
X65677770Y-81389581D01*
X65669298Y-81398964D01*
X63701586Y-83366678D01*
X63589781Y-83478482D01*
X63589777Y-83478487D01*
X63541875Y-83561458D01*
X63541875Y-83561459D01*
X63510723Y-83615414D01*
X63510723Y-83615415D01*
X63469799Y-83768143D01*
X63469799Y-83768145D01*
X63469799Y-83936246D01*
X63469800Y-83936259D01*
X63469800Y-86057358D01*
X63450115Y-86124397D01*
X63397311Y-86170152D01*
X63328153Y-86180096D01*
X63293395Y-86169740D01*
X63206165Y-86129064D01*
X63086496Y-86073261D01*
X63086492Y-86073260D01*
X63086488Y-86073258D01*
X62866697Y-86014366D01*
X62866693Y-86014365D01*
X62866692Y-86014365D01*
X62866691Y-86014364D01*
X62866686Y-86014364D01*
X62640002Y-85994532D01*
X62639998Y-85994532D01*
X62413313Y-86014364D01*
X62413302Y-86014366D01*
X62193511Y-86073258D01*
X62193502Y-86073261D01*
X61987267Y-86169431D01*
X61987265Y-86169432D01*
X61800858Y-86299954D01*
X61639954Y-86460858D01*
X61622725Y-86485464D01*
X61568147Y-86529088D01*
X61498648Y-86536280D01*
X61436294Y-86504757D01*
X61400882Y-86444526D01*
X61397861Y-86427591D01*
X61394091Y-86392516D01*
X61343797Y-86257671D01*
X61343793Y-86257664D01*
X61257547Y-86142455D01*
X61257544Y-86142452D01*
X61142335Y-86056206D01*
X61142328Y-86056202D01*
X61007482Y-86005908D01*
X61007483Y-86005908D01*
X60947883Y-85999501D01*
X60947881Y-85999500D01*
X60947873Y-85999500D01*
X60947864Y-85999500D01*
X59252129Y-85999500D01*
X59252123Y-85999501D01*
X59192516Y-86005908D01*
X59057671Y-86056202D01*
X59057664Y-86056206D01*
X58942455Y-86142452D01*
X58942452Y-86142455D01*
X58856206Y-86257664D01*
X58856202Y-86257671D01*
X58805908Y-86392517D01*
X58799501Y-86452116D01*
X58799500Y-86452135D01*
X58799500Y-88147870D01*
X58799501Y-88147876D01*
X58805908Y-88207483D01*
X58856202Y-88342328D01*
X58856206Y-88342335D01*
X58942452Y-88457544D01*
X58942455Y-88457547D01*
X59057664Y-88543793D01*
X59057671Y-88543797D01*
X59102361Y-88560465D01*
X59192517Y-88594091D01*
X59252127Y-88600500D01*
X59375500Y-88600499D01*
X59442539Y-88620183D01*
X59488294Y-88672987D01*
X59499500Y-88724499D01*
X59499500Y-104282485D01*
X59479815Y-104349524D01*
X59427011Y-104395279D01*
X59357853Y-104405223D01*
X59294297Y-104376198D01*
X59258459Y-104323440D01*
X59207474Y-104177736D01*
X59202145Y-104169255D01*
X59111500Y-104024994D01*
X58983946Y-103897440D01*
X58962423Y-103883916D01*
X58831207Y-103801467D01*
X58660938Y-103741887D01*
X58660933Y-103741886D01*
X58481688Y-103721691D01*
X58481680Y-103721691D01*
X58302434Y-103741886D01*
X58302429Y-103741887D01*
X58132160Y-103801467D01*
X57979421Y-103897440D01*
X57851868Y-104024993D01*
X57755893Y-104177736D01*
X57741541Y-104218752D01*
X57700820Y-104275528D01*
X57635867Y-104301275D01*
X57567305Y-104287819D01*
X57516902Y-104239431D01*
X57500500Y-104177797D01*
X57500500Y-68239994D01*
X59829556Y-68239994D01*
X59829556Y-68240005D01*
X59849310Y-68554004D01*
X59849311Y-68554011D01*
X59868653Y-68655403D01*
X59898549Y-68812127D01*
X59908270Y-68863083D01*
X60005497Y-69162316D01*
X60005499Y-69162321D01*
X60139461Y-69447003D01*
X60139464Y-69447009D01*
X60308051Y-69712661D01*
X60308054Y-69712665D01*
X60508606Y-69955090D01*
X60508608Y-69955092D01*
X60508610Y-69955094D01*
X60677454Y-70113649D01*
X60737968Y-70170476D01*
X60737978Y-70170484D01*
X60992504Y-70355408D01*
X60992509Y-70355410D01*
X60992516Y-70355416D01*
X61268234Y-70506994D01*
X61268239Y-70506996D01*
X61268241Y-70506997D01*
X61268242Y-70506998D01*
X61560771Y-70622818D01*
X61560774Y-70622819D01*
X61864499Y-70700802D01*
X61865527Y-70701066D01*
X61931010Y-70709338D01*
X62177670Y-70740499D01*
X62177679Y-70740499D01*
X62177682Y-70740500D01*
X62177684Y-70740500D01*
X62492316Y-70740500D01*
X62492318Y-70740500D01*
X62492321Y-70740499D01*
X62492329Y-70740499D01*
X62733752Y-70710000D01*
X62804473Y-70701066D01*
X63109225Y-70622819D01*
X63109228Y-70622818D01*
X63401757Y-70506998D01*
X63401758Y-70506997D01*
X63401756Y-70506997D01*
X63401766Y-70506994D01*
X63677484Y-70355416D01*
X63932030Y-70170478D01*
X64161390Y-69955094D01*
X64361947Y-69712663D01*
X64530537Y-69447007D01*
X64664503Y-69162315D01*
X64761731Y-68863079D01*
X64820688Y-68554015D01*
X64823932Y-68502454D01*
X64840444Y-68240005D01*
X64840444Y-68239994D01*
X64820689Y-67925995D01*
X64820688Y-67925988D01*
X64820688Y-67925985D01*
X64761731Y-67616921D01*
X64664503Y-67317685D01*
X64530537Y-67032993D01*
X64463106Y-66926738D01*
X64361948Y-66767338D01*
X64361945Y-66767334D01*
X64161393Y-66524909D01*
X64161391Y-66524907D01*
X64158527Y-66522217D01*
X63932030Y-66309522D01*
X63932027Y-66309520D01*
X63932021Y-66309515D01*
X63677495Y-66124591D01*
X63677488Y-66124586D01*
X63677484Y-66124584D01*
X63401766Y-65973006D01*
X63401763Y-65973004D01*
X63401758Y-65973002D01*
X63401757Y-65973001D01*
X63109228Y-65857181D01*
X63109225Y-65857180D01*
X62804476Y-65778934D01*
X62804463Y-65778932D01*
X62492329Y-65739500D01*
X62492318Y-65739500D01*
X62177682Y-65739500D01*
X62177670Y-65739500D01*
X61865536Y-65778932D01*
X61865523Y-65778934D01*
X61560774Y-65857180D01*
X61560771Y-65857181D01*
X61268242Y-65973001D01*
X61268241Y-65973002D01*
X60992516Y-66124584D01*
X60992504Y-66124591D01*
X60737978Y-66309515D01*
X60737968Y-66309523D01*
X60508608Y-66524907D01*
X60508606Y-66524909D01*
X60308054Y-66767334D01*
X60308051Y-66767338D01*
X60139464Y-67032990D01*
X60139461Y-67032996D01*
X60005499Y-67317678D01*
X60005497Y-67317683D01*
X59908270Y-67616916D01*
X59849311Y-67925988D01*
X59849310Y-67925995D01*
X59829556Y-68239994D01*
X57500500Y-68239994D01*
X57500500Y-57624500D01*
X57520185Y-57557461D01*
X57572989Y-57511706D01*
X57624500Y-57500500D01*
X134934108Y-57500500D01*
X142875500Y-57500500D01*
X142942539Y-57520185D01*
G37*
%TD.AperFunction*%
%TA.AperFunction,Conductor*%
G36*
X112423220Y-117024501D02*
G01*
X112453706Y-117046841D01*
X117653084Y-122246220D01*
X117653086Y-122246221D01*
X117653090Y-122246224D01*
X117790009Y-122325273D01*
X117790016Y-122325277D01*
X117942743Y-122366201D01*
X117942745Y-122366201D01*
X118108454Y-122366201D01*
X118108470Y-122366200D01*
X118319142Y-122366200D01*
X118386181Y-122385885D01*
X118406823Y-122402519D01*
X118649537Y-122645233D01*
X118683022Y-122706556D01*
X118678038Y-122776248D01*
X118649537Y-122820595D01*
X118632828Y-122837303D01*
X118536855Y-122990042D01*
X118477275Y-123160311D01*
X118477274Y-123160316D01*
X118457079Y-123339562D01*
X118457079Y-123339570D01*
X118459710Y-123362924D01*
X118447655Y-123431746D01*
X118400305Y-123483125D01*
X118350373Y-123500026D01*
X118220750Y-123514630D01*
X118220745Y-123514631D01*
X118050476Y-123574211D01*
X117897735Y-123670185D01*
X117882204Y-123685716D01*
X117820879Y-123719197D01*
X117751188Y-123714210D01*
X117706846Y-123685711D01*
X111820788Y-117799653D01*
X111787303Y-117738330D01*
X111792287Y-117668638D01*
X111834159Y-117612705D01*
X111842488Y-117606983D01*
X111972462Y-117525316D01*
X112100016Y-117397762D01*
X112195989Y-117245022D01*
X112248985Y-117093567D01*
X112289706Y-117036793D01*
X112354658Y-117011045D01*
X112423220Y-117024501D01*
G37*
%TD.AperFunction*%
%TA.AperFunction,Conductor*%
G36*
X135957502Y-69343245D02*
G01*
X136001849Y-69371745D01*
X136088599Y-69458495D01*
X136088602Y-69458497D01*
X136088603Y-69458498D01*
X136176403Y-69519976D01*
X136263134Y-69580706D01*
X136274594Y-69588730D01*
X136318219Y-69643307D01*
X136325413Y-69712805D01*
X136293890Y-69775160D01*
X136274595Y-69791880D01*
X136088922Y-69921890D01*
X136088920Y-69921891D01*
X135921891Y-70088920D01*
X135921886Y-70088926D01*
X135786400Y-70282420D01*
X135786399Y-70282422D01*
X135686570Y-70496507D01*
X135686567Y-70496513D01*
X135629364Y-70709999D01*
X135629364Y-70710000D01*
X136526988Y-70710000D01*
X136494075Y-70767007D01*
X136460000Y-70894174D01*
X136460000Y-71025826D01*
X136494075Y-71152993D01*
X136526988Y-71210000D01*
X135629364Y-71210000D01*
X135686567Y-71423486D01*
X135686570Y-71423492D01*
X135786399Y-71637578D01*
X135921894Y-71831082D01*
X136088917Y-71998105D01*
X136274595Y-72128119D01*
X136318219Y-72182696D01*
X136325412Y-72252195D01*
X136293890Y-72314549D01*
X136274595Y-72331269D01*
X136088594Y-72461508D01*
X135921505Y-72628597D01*
X135785965Y-72822169D01*
X135785964Y-72822171D01*
X135686098Y-73036335D01*
X135686094Y-73036344D01*
X135624938Y-73264586D01*
X135624936Y-73264596D01*
X135604341Y-73499999D01*
X135604341Y-73500000D01*
X135624936Y-73735403D01*
X135624938Y-73735413D01*
X135686094Y-73963655D01*
X135686096Y-73963659D01*
X135686097Y-73963663D01*
X135732620Y-74063432D01*
X135785965Y-74177830D01*
X135785967Y-74177834D01*
X135882791Y-74316112D01*
X135921501Y-74371396D01*
X135921506Y-74371402D01*
X135933753Y-74383649D01*
X135967238Y-74444972D01*
X135962254Y-74514664D01*
X135933753Y-74559011D01*
X125451086Y-85041678D01*
X125451084Y-85041680D01*
X125400945Y-85091819D01*
X125339281Y-85153482D01*
X125339280Y-85153484D01*
X125329003Y-85171285D01*
X125315760Y-85194223D01*
X125260694Y-85289600D01*
X125260223Y-85290415D01*
X125219299Y-85443143D01*
X125219299Y-85443145D01*
X125219299Y-85611246D01*
X125219300Y-85611259D01*
X125219300Y-88183003D01*
X125199615Y-88250042D01*
X125182981Y-88270684D01*
X113310681Y-100142984D01*
X113249358Y-100176469D01*
X113179666Y-100171485D01*
X113123733Y-100129613D01*
X113099316Y-100064149D01*
X113099000Y-100055303D01*
X113099000Y-97159712D01*
X113118685Y-97092673D01*
X113126055Y-97082397D01*
X113128310Y-97079567D01*
X113128316Y-97079562D01*
X113224289Y-96926822D01*
X113283868Y-96756555D01*
X113283869Y-96756549D01*
X113304065Y-96577303D01*
X113304065Y-96577296D01*
X113283869Y-96398050D01*
X113283868Y-96398045D01*
X113224289Y-96227778D01*
X113128316Y-96075038D01*
X113000762Y-95947484D01*
X112957163Y-95920089D01*
X112848023Y-95851511D01*
X112677754Y-95791931D01*
X112677749Y-95791930D01*
X112498504Y-95771735D01*
X112498496Y-95771735D01*
X112319250Y-95791930D01*
X112319245Y-95791931D01*
X112148976Y-95851511D01*
X111996237Y-95947484D01*
X111863760Y-96079962D01*
X111862749Y-96078951D01*
X111811946Y-96114602D01*
X111742134Y-96117444D01*
X111681868Y-96082092D01*
X111650282Y-96019769D01*
X111648200Y-95997144D01*
X111648200Y-95252496D01*
X111667885Y-95185457D01*
X111684514Y-95164820D01*
X118058506Y-88790827D01*
X118058511Y-88790824D01*
X118068714Y-88780620D01*
X118068716Y-88780620D01*
X118180520Y-88668816D01*
X118231578Y-88580380D01*
X118259577Y-88531885D01*
X118293050Y-88406961D01*
X118329414Y-88347303D01*
X118350841Y-88331660D01*
X118352726Y-88330571D01*
X118352734Y-88330568D01*
X118353379Y-88330117D01*
X118457308Y-88257345D01*
X118539139Y-88200047D01*
X118700047Y-88039139D01*
X118830568Y-87852734D01*
X118857618Y-87794724D01*
X118903790Y-87742285D01*
X118970983Y-87723133D01*
X119037865Y-87743348D01*
X119082382Y-87794725D01*
X119109429Y-87852728D01*
X119109432Y-87852734D01*
X119239954Y-88039141D01*
X119400858Y-88200045D01*
X119400861Y-88200047D01*
X119587266Y-88330568D01*
X119793504Y-88426739D01*
X119793509Y-88426740D01*
X119793511Y-88426741D01*
X119846415Y-88440916D01*
X120013308Y-88485635D01*
X120175230Y-88499801D01*
X120239998Y-88505468D01*
X120240000Y-88505468D01*
X120240002Y-88505468D01*
X120297379Y-88500448D01*
X120466692Y-88485635D01*
X120686496Y-88426739D01*
X120892734Y-88330568D01*
X121079139Y-88200047D01*
X121240047Y-88039139D01*
X121370568Y-87852734D01*
X121397895Y-87794129D01*
X121444064Y-87741695D01*
X121511257Y-87722542D01*
X121578139Y-87742757D01*
X121622657Y-87794133D01*
X121649865Y-87852482D01*
X121780342Y-88038820D01*
X121941179Y-88199657D01*
X122127517Y-88330134D01*
X122333673Y-88426265D01*
X122333682Y-88426269D01*
X122529999Y-88478872D01*
X122530000Y-88478871D01*
X122530000Y-87515686D01*
X122534394Y-87520080D01*
X122625606Y-87572741D01*
X122727339Y-87600000D01*
X122832661Y-87600000D01*
X122934394Y-87572741D01*
X123025606Y-87520080D01*
X123030000Y-87515686D01*
X123030000Y-88478872D01*
X123226317Y-88426269D01*
X123226326Y-88426265D01*
X123432482Y-88330134D01*
X123618820Y-88199657D01*
X123779657Y-88038820D01*
X123910134Y-87852482D01*
X124006265Y-87646326D01*
X124006269Y-87646317D01*
X124058872Y-87450000D01*
X123095686Y-87450000D01*
X123100080Y-87445606D01*
X123152741Y-87354394D01*
X123180000Y-87252661D01*
X123180000Y-87147339D01*
X123152741Y-87045606D01*
X123100080Y-86954394D01*
X123095686Y-86950000D01*
X124058872Y-86950000D01*
X124058872Y-86949999D01*
X124006269Y-86753682D01*
X124006265Y-86753673D01*
X123910134Y-86547517D01*
X123779657Y-86361179D01*
X123618820Y-86200342D01*
X123432482Y-86069865D01*
X123226328Y-85973734D01*
X123030000Y-85921127D01*
X123030000Y-86884314D01*
X123025606Y-86879920D01*
X122934394Y-86827259D01*
X122832661Y-86800000D01*
X122727339Y-86800000D01*
X122625606Y-86827259D01*
X122534394Y-86879920D01*
X122530000Y-86884314D01*
X122530000Y-85921127D01*
X122333671Y-85973734D01*
X122127517Y-86069865D01*
X121941179Y-86200342D01*
X121780342Y-86361179D01*
X121649867Y-86547515D01*
X121622657Y-86605867D01*
X121576484Y-86658306D01*
X121509290Y-86677457D01*
X121442409Y-86657241D01*
X121397893Y-86605865D01*
X121370570Y-86547271D01*
X121370567Y-86547265D01*
X121362875Y-86536280D01*
X121240047Y-86360861D01*
X121240045Y-86360858D01*
X121079141Y-86199954D01*
X120892734Y-86069432D01*
X120892732Y-86069431D01*
X120686497Y-85973261D01*
X120686488Y-85973258D01*
X120466697Y-85914366D01*
X120466693Y-85914365D01*
X120466692Y-85914365D01*
X120466691Y-85914364D01*
X120466686Y-85914364D01*
X120240002Y-85894532D01*
X120239998Y-85894532D01*
X120013313Y-85914364D01*
X120013302Y-85914366D01*
X119793511Y-85973258D01*
X119793502Y-85973261D01*
X119587267Y-86069431D01*
X119587265Y-86069432D01*
X119400858Y-86199954D01*
X119239954Y-86360858D01*
X119109432Y-86547265D01*
X119109431Y-86547267D01*
X119082382Y-86605275D01*
X119036209Y-86657714D01*
X118969016Y-86676866D01*
X118902135Y-86656650D01*
X118857618Y-86605275D01*
X118830568Y-86547267D01*
X118830567Y-86547265D01*
X118822875Y-86536280D01*
X118700047Y-86360861D01*
X118700045Y-86360858D01*
X118539141Y-86199954D01*
X118352734Y-86069432D01*
X118352732Y-86069431D01*
X118146497Y-85973261D01*
X118146491Y-85973259D01*
X117962436Y-85923942D01*
X117902776Y-85887577D01*
X117872247Y-85824730D01*
X117880542Y-85755354D01*
X117889532Y-85738202D01*
X117951789Y-85639122D01*
X118011368Y-85468855D01*
X118013060Y-85453838D01*
X118031565Y-85289603D01*
X118031565Y-85289596D01*
X118011369Y-85110350D01*
X118011368Y-85110345D01*
X117968708Y-84988429D01*
X117951789Y-84940078D01*
X117951423Y-84939496D01*
X117855815Y-84787337D01*
X117728262Y-84659784D01*
X117575523Y-84563811D01*
X117405254Y-84504231D01*
X117405249Y-84504230D01*
X117226004Y-84484035D01*
X117225996Y-84484035D01*
X117046750Y-84504230D01*
X117046745Y-84504231D01*
X116876476Y-84563811D01*
X116723737Y-84659784D01*
X116596184Y-84787337D01*
X116500211Y-84940076D01*
X116440631Y-85110345D01*
X116440630Y-85110350D01*
X116420435Y-85289596D01*
X116420435Y-85289603D01*
X116440630Y-85468849D01*
X116440631Y-85468854D01*
X116500211Y-85639123D01*
X116579111Y-85764690D01*
X116596184Y-85791862D01*
X116723738Y-85919416D01*
X116768752Y-85947700D01*
X116849187Y-85998241D01*
X116895478Y-86050576D01*
X116906126Y-86119630D01*
X116877751Y-86183478D01*
X116862927Y-86198219D01*
X116860868Y-86199946D01*
X116699951Y-86360862D01*
X116569432Y-86547265D01*
X116569431Y-86547267D01*
X116542382Y-86605275D01*
X116496209Y-86657714D01*
X116429016Y-86676866D01*
X116362135Y-86656650D01*
X116317618Y-86605275D01*
X116290568Y-86547267D01*
X116290567Y-86547265D01*
X116282875Y-86536280D01*
X116160047Y-86360861D01*
X116160045Y-86360858D01*
X115999141Y-86199954D01*
X115812734Y-86069432D01*
X115812732Y-86069431D01*
X115606497Y-85973261D01*
X115606488Y-85973258D01*
X115386697Y-85914366D01*
X115386693Y-85914365D01*
X115386692Y-85914365D01*
X115386691Y-85914364D01*
X115386686Y-85914364D01*
X115160002Y-85894532D01*
X115159998Y-85894532D01*
X114933313Y-85914364D01*
X114933302Y-85914366D01*
X114713511Y-85973258D01*
X114713502Y-85973261D01*
X114507267Y-86069431D01*
X114507265Y-86069432D01*
X114320858Y-86199954D01*
X114159954Y-86360858D01*
X114029432Y-86547265D01*
X114029431Y-86547267D01*
X114002382Y-86605275D01*
X113956209Y-86657714D01*
X113889016Y-86676866D01*
X113822135Y-86656650D01*
X113777618Y-86605275D01*
X113750568Y-86547267D01*
X113750567Y-86547265D01*
X113742875Y-86536280D01*
X113620047Y-86360861D01*
X113620045Y-86360858D01*
X113459141Y-86199954D01*
X113272734Y-86069432D01*
X113272732Y-86069431D01*
X113066497Y-85973261D01*
X113066488Y-85973258D01*
X112846697Y-85914366D01*
X112846693Y-85914365D01*
X112846692Y-85914365D01*
X112846691Y-85914364D01*
X112846686Y-85914364D01*
X112620002Y-85894532D01*
X112619998Y-85894532D01*
X112393313Y-85914364D01*
X112393302Y-85914366D01*
X112173511Y-85973258D01*
X112173502Y-85973261D01*
X111967267Y-86069431D01*
X111967265Y-86069432D01*
X111780858Y-86199954D01*
X111619954Y-86360858D01*
X111489432Y-86547265D01*
X111489431Y-86547267D01*
X111462382Y-86605275D01*
X111416209Y-86657714D01*
X111349016Y-86676866D01*
X111282135Y-86656650D01*
X111237618Y-86605275D01*
X111210568Y-86547267D01*
X111210567Y-86547265D01*
X111202875Y-86536280D01*
X111080047Y-86360861D01*
X111080045Y-86360858D01*
X110919141Y-86199954D01*
X110732734Y-86069432D01*
X110732732Y-86069431D01*
X110526497Y-85973261D01*
X110526488Y-85973258D01*
X110306697Y-85914366D01*
X110306693Y-85914365D01*
X110306692Y-85914365D01*
X110306691Y-85914364D01*
X110306686Y-85914364D01*
X110080002Y-85894532D01*
X110079998Y-85894532D01*
X109853313Y-85914364D01*
X109853302Y-85914366D01*
X109633511Y-85973258D01*
X109633502Y-85973261D01*
X109427267Y-86069431D01*
X109427265Y-86069432D01*
X109240858Y-86199954D01*
X109191405Y-86249408D01*
X109130082Y-86282893D01*
X109060390Y-86277909D01*
X109016043Y-86249408D01*
X103410591Y-80643956D01*
X103377106Y-80582633D01*
X103382090Y-80512941D01*
X103410590Y-80468594D01*
X103460047Y-80419139D01*
X103590568Y-80232734D01*
X103593822Y-80225756D01*
X103639993Y-80173315D01*
X103707186Y-80154161D01*
X103738295Y-80158381D01*
X103793037Y-80173049D01*
X103852695Y-80209412D01*
X103868329Y-80230822D01*
X103869429Y-80232727D01*
X103869432Y-80232734D01*
X103869435Y-80232738D01*
X103999954Y-80419141D01*
X104160858Y-80580045D01*
X104160861Y-80580047D01*
X104347266Y-80710568D01*
X104553504Y-80806739D01*
X104553509Y-80806740D01*
X104553511Y-80806741D01*
X104606415Y-80820916D01*
X104773308Y-80865635D01*
X104935230Y-80879801D01*
X104999998Y-80885468D01*
X105000000Y-80885468D01*
X105000002Y-80885468D01*
X105056673Y-80880509D01*
X105226692Y-80865635D01*
X105446496Y-80806739D01*
X105652734Y-80710568D01*
X105839139Y-80580047D01*
X106000047Y-80419139D01*
X106130568Y-80232734D01*
X106157618Y-80174724D01*
X106203790Y-80122285D01*
X106270983Y-80103133D01*
X106337865Y-80123348D01*
X106382382Y-80174725D01*
X106409429Y-80232728D01*
X106409432Y-80232734D01*
X106539954Y-80419141D01*
X106700858Y-80580045D01*
X106700861Y-80580047D01*
X106887266Y-80710568D01*
X107093504Y-80806739D01*
X107093509Y-80806740D01*
X107093511Y-80806741D01*
X107146415Y-80820916D01*
X107313308Y-80865635D01*
X107475230Y-80879801D01*
X107539998Y-80885468D01*
X107540000Y-80885468D01*
X107540002Y-80885468D01*
X107596673Y-80880509D01*
X107766692Y-80865635D01*
X107986496Y-80806739D01*
X108192734Y-80710568D01*
X108379139Y-80580047D01*
X108540047Y-80419139D01*
X108670568Y-80232734D01*
X108697618Y-80174724D01*
X108743790Y-80122285D01*
X108810983Y-80103133D01*
X108877865Y-80123348D01*
X108922382Y-80174725D01*
X108949429Y-80232728D01*
X108949432Y-80232734D01*
X109079954Y-80419141D01*
X109240858Y-80580045D01*
X109240861Y-80580047D01*
X109427266Y-80710568D01*
X109633504Y-80806739D01*
X109633509Y-80806740D01*
X109633511Y-80806741D01*
X109686415Y-80820916D01*
X109853308Y-80865635D01*
X110015230Y-80879801D01*
X110079998Y-80885468D01*
X110080000Y-80885468D01*
X110080002Y-80885468D01*
X110136673Y-80880509D01*
X110306692Y-80865635D01*
X110526496Y-80806739D01*
X110732734Y-80710568D01*
X110919139Y-80580047D01*
X111080047Y-80419139D01*
X111210568Y-80232734D01*
X111237618Y-80174724D01*
X111283790Y-80122285D01*
X111350983Y-80103133D01*
X111417865Y-80123348D01*
X111462382Y-80174725D01*
X111489429Y-80232728D01*
X111489432Y-80232734D01*
X111619954Y-80419141D01*
X111780858Y-80580045D01*
X111780861Y-80580047D01*
X111967266Y-80710568D01*
X112173504Y-80806739D01*
X112173509Y-80806740D01*
X112173511Y-80806741D01*
X112226415Y-80820916D01*
X112393308Y-80865635D01*
X112555230Y-80879801D01*
X112619998Y-80885468D01*
X112620000Y-80885468D01*
X112620002Y-80885468D01*
X112676673Y-80880509D01*
X112846692Y-80865635D01*
X113066496Y-80806739D01*
X113272734Y-80710568D01*
X113459139Y-80580047D01*
X113620047Y-80419139D01*
X113750568Y-80232734D01*
X113777618Y-80174724D01*
X113823790Y-80122285D01*
X113890983Y-80103133D01*
X113957865Y-80123348D01*
X114002382Y-80174725D01*
X114029429Y-80232728D01*
X114029432Y-80232734D01*
X114159954Y-80419141D01*
X114320858Y-80580045D01*
X114320861Y-80580047D01*
X114507266Y-80710568D01*
X114713504Y-80806739D01*
X114713509Y-80806740D01*
X114713511Y-80806741D01*
X114766415Y-80820916D01*
X114933308Y-80865635D01*
X115095230Y-80879801D01*
X115159998Y-80885468D01*
X115160000Y-80885468D01*
X115160002Y-80885468D01*
X115216673Y-80880509D01*
X115386692Y-80865635D01*
X115606496Y-80806739D01*
X115812734Y-80710568D01*
X115999139Y-80580047D01*
X116160047Y-80419139D01*
X116290568Y-80232734D01*
X116317618Y-80174724D01*
X116363790Y-80122285D01*
X116430983Y-80103133D01*
X116497865Y-80123348D01*
X116542382Y-80174725D01*
X116569429Y-80232728D01*
X116569432Y-80232734D01*
X116699954Y-80419141D01*
X116860858Y-80580045D01*
X116860861Y-80580047D01*
X117047266Y-80710568D01*
X117253504Y-80806739D01*
X117253509Y-80806740D01*
X117253511Y-80806741D01*
X117306415Y-80820916D01*
X117473308Y-80865635D01*
X117635230Y-80879801D01*
X117699998Y-80885468D01*
X117700000Y-80885468D01*
X117700002Y-80885468D01*
X117756673Y-80880509D01*
X117926692Y-80865635D01*
X118146496Y-80806739D01*
X118352734Y-80710568D01*
X118539139Y-80580047D01*
X118700047Y-80419139D01*
X118830568Y-80232734D01*
X118857618Y-80174724D01*
X118903790Y-80122285D01*
X118970983Y-80103133D01*
X119037865Y-80123348D01*
X119082382Y-80174725D01*
X119109429Y-80232728D01*
X119109432Y-80232734D01*
X119239954Y-80419141D01*
X119400858Y-80580045D01*
X119400861Y-80580047D01*
X119587266Y-80710568D01*
X119793504Y-80806739D01*
X119793509Y-80806740D01*
X119793511Y-80806741D01*
X119846415Y-80820916D01*
X120013308Y-80865635D01*
X120175230Y-80879801D01*
X120239998Y-80885468D01*
X120240000Y-80885468D01*
X120240002Y-80885468D01*
X120296673Y-80880509D01*
X120466692Y-80865635D01*
X120686496Y-80806739D01*
X120892734Y-80710568D01*
X121079139Y-80580047D01*
X121240047Y-80419139D01*
X121370568Y-80232734D01*
X121370577Y-80232713D01*
X121371663Y-80230834D01*
X121372370Y-80230159D01*
X121373673Y-80228299D01*
X121374046Y-80228560D01*
X121422225Y-80182613D01*
X121446957Y-80173050D01*
X121501702Y-80158382D01*
X121571552Y-80160045D01*
X121629414Y-80199209D01*
X121646174Y-80225748D01*
X121649429Y-80232729D01*
X121649432Y-80232734D01*
X121779954Y-80419141D01*
X121940858Y-80580045D01*
X121940861Y-80580047D01*
X122127266Y-80710568D01*
X122333504Y-80806739D01*
X122333509Y-80806740D01*
X122333511Y-80806741D01*
X122386415Y-80820916D01*
X122553308Y-80865635D01*
X122715230Y-80879801D01*
X122779998Y-80885468D01*
X122780000Y-80885468D01*
X122780002Y-80885468D01*
X122836673Y-80880509D01*
X123006692Y-80865635D01*
X123226496Y-80806739D01*
X123432734Y-80710568D01*
X123619139Y-80580047D01*
X123780047Y-80419139D01*
X123910568Y-80232734D01*
X124006739Y-80026496D01*
X124065635Y-79806692D01*
X124085468Y-79580000D01*
X124065635Y-79353308D01*
X124040052Y-79257830D01*
X124034335Y-79236493D01*
X124035998Y-79166643D01*
X124075161Y-79108781D01*
X124139389Y-79081277D01*
X124154110Y-79080400D01*
X125782431Y-79080400D01*
X125782447Y-79080401D01*
X125790043Y-79080401D01*
X125948154Y-79080401D01*
X125948157Y-79080401D01*
X126100885Y-79039477D01*
X126158929Y-79005965D01*
X126237816Y-78960420D01*
X126349620Y-78848616D01*
X126349620Y-78848614D01*
X126359824Y-78838411D01*
X126359828Y-78838406D01*
X135826489Y-69371744D01*
X135887810Y-69338261D01*
X135957502Y-69343245D01*
G37*
%TD.AperFunction*%
%TA.AperFunction,Conductor*%
G36*
X112477769Y-60533878D02*
G01*
X112533700Y-60575747D01*
X112584454Y-60643546D01*
X112584457Y-60643548D01*
X112699664Y-60729793D01*
X112699671Y-60729797D01*
X112831081Y-60778810D01*
X112887015Y-60820681D01*
X112911432Y-60886145D01*
X112896580Y-60954418D01*
X112875430Y-60982673D01*
X112753503Y-61104600D01*
X112617965Y-61298169D01*
X112617964Y-61298171D01*
X112518098Y-61512335D01*
X112518094Y-61512344D01*
X112456938Y-61740586D01*
X112456936Y-61740596D01*
X112436341Y-61975999D01*
X112436341Y-61976000D01*
X112456936Y-62211403D01*
X112456938Y-62211413D01*
X112518094Y-62439655D01*
X112518096Y-62439659D01*
X112518097Y-62439663D01*
X112597597Y-62610151D01*
X112617965Y-62653830D01*
X112617967Y-62653834D01*
X112726281Y-62808521D01*
X112753505Y-62847401D01*
X112920599Y-63014495D01*
X112999277Y-63069586D01*
X113114165Y-63150032D01*
X113114167Y-63150033D01*
X113114170Y-63150035D01*
X113130137Y-63157480D01*
X113133256Y-63158935D01*
X113185696Y-63205107D01*
X113200627Y-63239223D01*
X113232423Y-63357885D01*
X113261358Y-63408000D01*
X113261359Y-63408004D01*
X113261360Y-63408004D01*
X113311479Y-63494814D01*
X113311481Y-63494817D01*
X113430349Y-63613685D01*
X113430355Y-63613690D01*
X125704121Y-75887456D01*
X125737606Y-75948779D01*
X125739660Y-75989020D01*
X125732035Y-76056696D01*
X125732035Y-76056703D01*
X125752230Y-76235949D01*
X125752231Y-76235954D01*
X125811811Y-76406223D01*
X125873032Y-76503655D01*
X125907784Y-76558962D01*
X126035338Y-76686516D01*
X126188078Y-76782489D01*
X126322376Y-76829482D01*
X126358345Y-76842068D01*
X126358350Y-76842069D01*
X126371511Y-76843552D01*
X126435925Y-76870618D01*
X126475481Y-76928212D01*
X126477620Y-76998049D01*
X126445310Y-77054453D01*
X125656684Y-77843081D01*
X125595361Y-77876566D01*
X125569003Y-77879400D01*
X122389270Y-77879400D01*
X122389254Y-77879399D01*
X122381658Y-77879399D01*
X122223543Y-77879399D01*
X122168463Y-77894158D01*
X122070814Y-77920323D01*
X122070809Y-77920326D01*
X121933890Y-77999375D01*
X121933882Y-77999381D01*
X121303906Y-78629357D01*
X121242583Y-78662842D01*
X121172891Y-78657858D01*
X121128544Y-78629357D01*
X121079141Y-78579954D01*
X120892734Y-78449432D01*
X120892732Y-78449431D01*
X120686497Y-78353261D01*
X120686488Y-78353258D01*
X120466697Y-78294366D01*
X120466693Y-78294365D01*
X120466692Y-78294365D01*
X120466691Y-78294364D01*
X120466686Y-78294364D01*
X120240002Y-78274532D01*
X120239998Y-78274532D01*
X120013313Y-78294364D01*
X120013302Y-78294366D01*
X119793511Y-78353258D01*
X119793502Y-78353261D01*
X119587267Y-78449431D01*
X119587265Y-78449432D01*
X119400858Y-78579954D01*
X119239954Y-78740858D01*
X119109432Y-78927265D01*
X119109431Y-78927267D01*
X119082382Y-78985275D01*
X119036209Y-79037714D01*
X118969016Y-79056866D01*
X118902135Y-79036650D01*
X118857618Y-78985275D01*
X118830568Y-78927267D01*
X118830567Y-78927265D01*
X118700045Y-78740858D01*
X118539141Y-78579954D01*
X118352734Y-78449432D01*
X118352732Y-78449431D01*
X118146497Y-78353261D01*
X118146488Y-78353258D01*
X117926697Y-78294366D01*
X117926693Y-78294365D01*
X117926692Y-78294365D01*
X117926691Y-78294364D01*
X117926686Y-78294364D01*
X117700002Y-78274532D01*
X117699998Y-78274532D01*
X117473313Y-78294364D01*
X117473302Y-78294366D01*
X117253511Y-78353258D01*
X117253502Y-78353261D01*
X117047267Y-78449431D01*
X117047265Y-78449432D01*
X116860858Y-78579954D01*
X116699954Y-78740858D01*
X116569432Y-78927265D01*
X116569431Y-78927267D01*
X116542382Y-78985275D01*
X116496209Y-79037714D01*
X116429016Y-79056866D01*
X116362135Y-79036650D01*
X116317618Y-78985275D01*
X116290568Y-78927267D01*
X116290567Y-78927265D01*
X116160045Y-78740858D01*
X115999141Y-78579954D01*
X115812734Y-78449432D01*
X115812732Y-78449431D01*
X115606497Y-78353261D01*
X115606488Y-78353258D01*
X115386697Y-78294366D01*
X115386693Y-78294365D01*
X115386692Y-78294365D01*
X115386691Y-78294364D01*
X115386686Y-78294364D01*
X115160002Y-78274532D01*
X115159998Y-78274532D01*
X114933313Y-78294364D01*
X114933302Y-78294366D01*
X114713511Y-78353258D01*
X114713502Y-78353261D01*
X114507267Y-78449431D01*
X114507265Y-78449432D01*
X114320858Y-78579954D01*
X114159954Y-78740858D01*
X114029432Y-78927265D01*
X114029431Y-78927267D01*
X114002382Y-78985275D01*
X113956209Y-79037714D01*
X113889016Y-79056866D01*
X113822135Y-79036650D01*
X113777618Y-78985275D01*
X113750568Y-78927267D01*
X113750567Y-78927265D01*
X113620045Y-78740858D01*
X113459141Y-78579954D01*
X113272734Y-78449432D01*
X113272732Y-78449431D01*
X113066497Y-78353261D01*
X113066488Y-78353258D01*
X112846697Y-78294366D01*
X112846693Y-78294365D01*
X112846692Y-78294365D01*
X112846691Y-78294364D01*
X112846686Y-78294364D01*
X112620002Y-78274532D01*
X112619998Y-78274532D01*
X112393313Y-78294364D01*
X112393302Y-78294366D01*
X112173511Y-78353258D01*
X112173502Y-78353261D01*
X111967267Y-78449431D01*
X111967265Y-78449432D01*
X111780858Y-78579954D01*
X111619954Y-78740858D01*
X111489432Y-78927265D01*
X111489431Y-78927267D01*
X111462382Y-78985275D01*
X111416209Y-79037714D01*
X111349016Y-79056866D01*
X111282135Y-79036650D01*
X111237618Y-78985275D01*
X111210568Y-78927267D01*
X111210567Y-78927265D01*
X111080045Y-78740858D01*
X110919141Y-78579954D01*
X110732734Y-78449432D01*
X110732732Y-78449431D01*
X110526497Y-78353261D01*
X110526488Y-78353258D01*
X110306697Y-78294366D01*
X110306693Y-78294365D01*
X110306692Y-78294365D01*
X110306691Y-78294364D01*
X110306686Y-78294364D01*
X110080002Y-78274532D01*
X110079998Y-78274532D01*
X109853313Y-78294364D01*
X109853302Y-78294366D01*
X109633511Y-78353258D01*
X109633502Y-78353261D01*
X109427267Y-78449431D01*
X109427265Y-78449432D01*
X109240858Y-78579954D01*
X109079954Y-78740858D01*
X108949432Y-78927265D01*
X108949431Y-78927267D01*
X108922382Y-78985275D01*
X108876209Y-79037714D01*
X108809016Y-79056866D01*
X108742135Y-79036650D01*
X108697618Y-78985275D01*
X108670568Y-78927267D01*
X108670567Y-78927265D01*
X108540045Y-78740858D01*
X108379141Y-78579954D01*
X108192734Y-78449432D01*
X108192732Y-78449431D01*
X107986497Y-78353261D01*
X107986488Y-78353258D01*
X107766697Y-78294366D01*
X107766693Y-78294365D01*
X107766692Y-78294365D01*
X107766691Y-78294364D01*
X107766686Y-78294364D01*
X107540002Y-78274532D01*
X107539998Y-78274532D01*
X107313313Y-78294364D01*
X107313302Y-78294366D01*
X107093511Y-78353258D01*
X107093502Y-78353261D01*
X106887267Y-78449431D01*
X106887265Y-78449432D01*
X106700858Y-78579954D01*
X106539954Y-78740858D01*
X106409432Y-78927265D01*
X106409431Y-78927267D01*
X106382382Y-78985275D01*
X106336209Y-79037714D01*
X106269016Y-79056866D01*
X106202135Y-79036650D01*
X106157618Y-78985275D01*
X106130568Y-78927267D01*
X106130567Y-78927265D01*
X106000045Y-78740858D01*
X105839141Y-78579954D01*
X105652734Y-78449432D01*
X105652732Y-78449431D01*
X105446497Y-78353261D01*
X105446488Y-78353258D01*
X105226697Y-78294366D01*
X105226693Y-78294365D01*
X105226692Y-78294365D01*
X105226691Y-78294364D01*
X105226686Y-78294364D01*
X105000002Y-78274532D01*
X104999998Y-78274532D01*
X104773313Y-78294364D01*
X104773302Y-78294366D01*
X104553511Y-78353258D01*
X104553502Y-78353261D01*
X104347267Y-78449431D01*
X104347265Y-78449432D01*
X104160861Y-78579952D01*
X104111403Y-78629409D01*
X104050079Y-78662893D01*
X103980387Y-78657907D01*
X103936042Y-78629407D01*
X103410490Y-78103855D01*
X103410488Y-78103852D01*
X103291617Y-77984981D01*
X103291609Y-77984975D01*
X103179627Y-77920323D01*
X103179626Y-77920322D01*
X103162095Y-77910201D01*
X103154685Y-77905923D01*
X103001957Y-77864999D01*
X102843843Y-77864999D01*
X102836247Y-77864999D01*
X102836231Y-77865000D01*
X101882342Y-77865000D01*
X101729614Y-77905923D01*
X101729613Y-77905923D01*
X101704672Y-77920322D01*
X101704673Y-77920323D01*
X101592687Y-77984977D01*
X101592682Y-77984981D01*
X101480878Y-78096786D01*
X100966106Y-78611557D01*
X100904783Y-78645042D01*
X100835091Y-78640058D01*
X100790744Y-78611557D01*
X100759141Y-78579954D01*
X100572734Y-78449432D01*
X100572732Y-78449431D01*
X100366497Y-78353261D01*
X100366488Y-78353258D01*
X100146697Y-78294366D01*
X100146687Y-78294364D01*
X100093871Y-78289743D01*
X100028802Y-78264289D01*
X99987825Y-78207698D01*
X99983948Y-78137936D01*
X100016997Y-78078536D01*
X103682119Y-74413414D01*
X103743440Y-74379931D01*
X103801891Y-74381322D01*
X103866023Y-74398507D01*
X104053787Y-74414933D01*
X104083998Y-74417577D01*
X104084000Y-74417577D01*
X104084002Y-74417577D01*
X104112254Y-74415105D01*
X104301977Y-74398507D01*
X104513330Y-74341875D01*
X104711639Y-74249402D01*
X104831929Y-74165173D01*
X104898134Y-74142846D01*
X104965901Y-74159856D01*
X105013714Y-74210803D01*
X105020471Y-74226889D01*
X105070812Y-74375188D01*
X105201258Y-74639706D01*
X105201265Y-74639719D01*
X105365123Y-74884949D01*
X105394405Y-74918340D01*
X106181912Y-74130832D01*
X106276829Y-74261475D01*
X106404825Y-74389471D01*
X106535465Y-74484386D01*
X105747958Y-75271893D01*
X105781350Y-75301176D01*
X106026580Y-75465034D01*
X106026593Y-75465041D01*
X106291111Y-75595487D01*
X106570400Y-75690294D01*
X106570415Y-75690298D01*
X106859675Y-75747835D01*
X106859687Y-75747837D01*
X107154000Y-75767127D01*
X107448312Y-75747837D01*
X107448324Y-75747835D01*
X107737584Y-75690298D01*
X107737599Y-75690294D01*
X108016888Y-75595487D01*
X108281406Y-75465041D01*
X108281419Y-75465034D01*
X108526648Y-75301177D01*
X108560039Y-75271893D01*
X107772533Y-74484386D01*
X107903175Y-74389471D01*
X108031171Y-74261475D01*
X108126086Y-74130833D01*
X108913593Y-74918339D01*
X108942877Y-74884948D01*
X109082493Y-74675998D01*
X111470532Y-74675998D01*
X111470532Y-74676001D01*
X111490364Y-74902686D01*
X111490366Y-74902697D01*
X111549258Y-75122488D01*
X111549261Y-75122497D01*
X111645431Y-75328732D01*
X111645432Y-75328734D01*
X111775954Y-75515141D01*
X111936858Y-75676045D01*
X111936861Y-75676047D01*
X112123266Y-75806568D01*
X112329504Y-75902739D01*
X112329509Y-75902740D01*
X112329511Y-75902741D01*
X112382415Y-75916916D01*
X112549308Y-75961635D01*
X112711230Y-75975801D01*
X112775998Y-75981468D01*
X112776000Y-75981468D01*
X112776002Y-75981468D01*
X112832673Y-75976509D01*
X113002692Y-75961635D01*
X113222496Y-75902739D01*
X113428734Y-75806568D01*
X113615139Y-75676047D01*
X113776047Y-75515139D01*
X113906568Y-75328734D01*
X114002739Y-75122496D01*
X114061635Y-74902692D01*
X114080018Y-74692569D01*
X114081468Y-74676001D01*
X114081468Y-74675998D01*
X114071233Y-74559011D01*
X114061635Y-74449308D01*
X114002739Y-74229504D01*
X113906568Y-74023266D01*
X113776047Y-73836861D01*
X113776045Y-73836858D01*
X113615141Y-73675954D01*
X113428734Y-73545432D01*
X113428732Y-73545431D01*
X113222497Y-73449261D01*
X113222488Y-73449258D01*
X113002697Y-73390366D01*
X113002693Y-73390365D01*
X113002692Y-73390365D01*
X113002691Y-73390364D01*
X113002686Y-73390364D01*
X112776002Y-73370532D01*
X112775998Y-73370532D01*
X112549313Y-73390364D01*
X112549302Y-73390366D01*
X112329511Y-73449258D01*
X112329502Y-73449261D01*
X112123267Y-73545431D01*
X112123265Y-73545432D01*
X111936858Y-73675954D01*
X111775954Y-73836858D01*
X111645432Y-74023265D01*
X111645431Y-74023267D01*
X111549261Y-74229502D01*
X111549258Y-74229511D01*
X111490366Y-74449302D01*
X111490364Y-74449313D01*
X111470532Y-74675998D01*
X109082493Y-74675998D01*
X109106734Y-74639719D01*
X109106741Y-74639706D01*
X109237187Y-74375188D01*
X109331994Y-74095899D01*
X109331998Y-74095884D01*
X109389535Y-73806624D01*
X109389537Y-73806612D01*
X109408827Y-73512300D01*
X109389537Y-73217987D01*
X109389535Y-73217975D01*
X109331998Y-72928715D01*
X109331994Y-72928700D01*
X109237187Y-72649411D01*
X109106741Y-72384893D01*
X109106734Y-72384880D01*
X108942876Y-72139650D01*
X108913593Y-72106258D01*
X108126086Y-72893765D01*
X108031171Y-72763125D01*
X107903175Y-72635129D01*
X107772533Y-72540212D01*
X108560040Y-71752705D01*
X108526649Y-71723423D01*
X108281419Y-71559565D01*
X108281406Y-71559558D01*
X108016888Y-71429112D01*
X107737599Y-71334305D01*
X107737584Y-71334301D01*
X107448324Y-71276764D01*
X107448312Y-71276762D01*
X107154000Y-71257472D01*
X106859687Y-71276762D01*
X106859675Y-71276764D01*
X106570415Y-71334301D01*
X106570400Y-71334305D01*
X106291111Y-71429112D01*
X106026593Y-71559558D01*
X106026580Y-71559565D01*
X105781346Y-71723426D01*
X105781339Y-71723431D01*
X105747959Y-71752703D01*
X105747959Y-71752705D01*
X106535466Y-72540212D01*
X106404825Y-72635129D01*
X106276829Y-72763125D01*
X106181913Y-72893766D01*
X105394405Y-72106259D01*
X105394403Y-72106259D01*
X105365131Y-72139639D01*
X105365126Y-72139646D01*
X105234656Y-72334907D01*
X105181043Y-72379712D01*
X105111718Y-72388419D01*
X105048691Y-72358264D01*
X105043873Y-72353698D01*
X104996318Y-72306143D01*
X104890877Y-72200702D01*
X104865162Y-72182696D01*
X104737376Y-72093218D01*
X104693751Y-72038641D01*
X104684500Y-71991644D01*
X104684500Y-71916799D01*
X104704185Y-71849760D01*
X104756989Y-71804005D01*
X104808500Y-71792799D01*
X104881871Y-71792799D01*
X104881872Y-71792799D01*
X104941483Y-71786391D01*
X105076331Y-71736096D01*
X105191546Y-71649846D01*
X105277796Y-71534631D01*
X105328091Y-71399783D01*
X105334500Y-71340173D01*
X105334499Y-69744428D01*
X105328091Y-69684817D01*
X105318834Y-69659999D01*
X105277797Y-69549971D01*
X105277793Y-69549964D01*
X105191547Y-69434755D01*
X105191544Y-69434752D01*
X105076335Y-69348506D01*
X105076328Y-69348502D01*
X104941482Y-69298208D01*
X104941483Y-69298208D01*
X104881883Y-69291801D01*
X104881881Y-69291800D01*
X104881873Y-69291800D01*
X104881865Y-69291800D01*
X104808500Y-69291800D01*
X104741461Y-69272115D01*
X104695706Y-69219311D01*
X104684500Y-69167800D01*
X104684500Y-68275996D01*
X104704185Y-68208957D01*
X104720814Y-68188320D01*
X104731870Y-68177264D01*
X104793191Y-68143781D01*
X104862883Y-68148765D01*
X104918816Y-68190637D01*
X104941166Y-68240756D01*
X104976001Y-68415884D01*
X104976005Y-68415899D01*
X105070812Y-68695188D01*
X105201258Y-68959706D01*
X105201265Y-68959719D01*
X105365122Y-69204949D01*
X105394405Y-69238339D01*
X105394406Y-69238339D01*
X106181912Y-68450833D01*
X106276829Y-68581475D01*
X106404825Y-68709471D01*
X106535465Y-68804386D01*
X105747958Y-69591893D01*
X105781350Y-69621176D01*
X106026580Y-69785034D01*
X106026593Y-69785041D01*
X106291111Y-69915487D01*
X106570400Y-70010294D01*
X106570415Y-70010298D01*
X106859675Y-70067835D01*
X106859687Y-70067837D01*
X107154000Y-70087127D01*
X107448312Y-70067837D01*
X107448324Y-70067835D01*
X107737584Y-70010298D01*
X107737599Y-70010294D01*
X108016888Y-69915487D01*
X108281406Y-69785041D01*
X108281419Y-69785034D01*
X108526648Y-69621177D01*
X108560039Y-69591893D01*
X107772533Y-68804386D01*
X107903175Y-68709471D01*
X108031171Y-68581475D01*
X108126086Y-68450833D01*
X108913593Y-69238339D01*
X108942877Y-69204948D01*
X109106734Y-68959719D01*
X109106741Y-68959706D01*
X109237187Y-68695188D01*
X109331994Y-68415899D01*
X109331998Y-68415884D01*
X109389535Y-68126624D01*
X109389537Y-68126612D01*
X109408827Y-67832300D01*
X109389537Y-67537987D01*
X109389535Y-67537975D01*
X109331998Y-67248715D01*
X109331994Y-67248700D01*
X109266579Y-67055997D01*
X111471034Y-67055997D01*
X111471034Y-67056002D01*
X111490858Y-67282599D01*
X111490860Y-67282610D01*
X111549730Y-67502317D01*
X111549735Y-67502331D01*
X111645863Y-67708478D01*
X111696974Y-67781472D01*
X112376000Y-67102446D01*
X112376000Y-67108661D01*
X112403259Y-67210394D01*
X112455920Y-67301606D01*
X112530394Y-67376080D01*
X112621606Y-67428741D01*
X112723339Y-67456000D01*
X112729553Y-67456000D01*
X112050526Y-68135025D01*
X112123513Y-68186132D01*
X112123521Y-68186136D01*
X112329668Y-68282264D01*
X112329682Y-68282269D01*
X112549389Y-68341139D01*
X112549400Y-68341141D01*
X112775998Y-68360966D01*
X112776002Y-68360966D01*
X113002599Y-68341141D01*
X113002610Y-68341139D01*
X113222317Y-68282269D01*
X113222331Y-68282264D01*
X113428478Y-68186136D01*
X113501471Y-68135024D01*
X112822447Y-67456000D01*
X112828661Y-67456000D01*
X112930394Y-67428741D01*
X113021606Y-67376080D01*
X113096080Y-67301606D01*
X113148741Y-67210394D01*
X113176000Y-67108661D01*
X113176000Y-67102447D01*
X113855024Y-67781471D01*
X113906136Y-67708478D01*
X114002264Y-67502331D01*
X114002269Y-67502317D01*
X114061139Y-67282610D01*
X114061141Y-67282599D01*
X114080966Y-67056002D01*
X114080966Y-67055997D01*
X114061141Y-66829400D01*
X114061139Y-66829389D01*
X114002269Y-66609682D01*
X114002264Y-66609668D01*
X113906136Y-66403521D01*
X113906132Y-66403513D01*
X113855025Y-66330526D01*
X113176000Y-67009551D01*
X113176000Y-67003339D01*
X113148741Y-66901606D01*
X113096080Y-66810394D01*
X113021606Y-66735920D01*
X112930394Y-66683259D01*
X112828661Y-66656000D01*
X112822448Y-66656000D01*
X113501472Y-65976974D01*
X113428478Y-65925863D01*
X113222331Y-65829735D01*
X113222317Y-65829730D01*
X113002610Y-65770860D01*
X113002599Y-65770858D01*
X112776002Y-65751034D01*
X112775998Y-65751034D01*
X112549400Y-65770858D01*
X112549389Y-65770860D01*
X112329682Y-65829730D01*
X112329673Y-65829734D01*
X112123516Y-65925866D01*
X112123512Y-65925868D01*
X112050526Y-65976973D01*
X112050526Y-65976974D01*
X112729553Y-66656000D01*
X112723339Y-66656000D01*
X112621606Y-66683259D01*
X112530394Y-66735920D01*
X112455920Y-66810394D01*
X112403259Y-66901606D01*
X112376000Y-67003339D01*
X112376000Y-67009552D01*
X111696974Y-66330526D01*
X111696973Y-66330526D01*
X111645868Y-66403512D01*
X111645866Y-66403516D01*
X111549734Y-66609673D01*
X111549730Y-66609682D01*
X111490860Y-66829389D01*
X111490858Y-66829400D01*
X111471034Y-67055997D01*
X109266579Y-67055997D01*
X109237187Y-66969411D01*
X109106741Y-66704893D01*
X109106734Y-66704880D01*
X108942876Y-66459650D01*
X108913593Y-66426258D01*
X108126086Y-67213765D01*
X108031171Y-67083125D01*
X107903175Y-66955129D01*
X107772533Y-66860212D01*
X108560039Y-66072706D01*
X108560039Y-66072705D01*
X108526649Y-66043422D01*
X108281419Y-65879565D01*
X108281406Y-65879558D01*
X108016888Y-65749112D01*
X107737599Y-65654305D01*
X107737584Y-65654301D01*
X107562455Y-65619466D01*
X107500544Y-65587081D01*
X107465970Y-65526366D01*
X107469709Y-65456596D01*
X107498962Y-65410172D01*
X112346756Y-60562377D01*
X112408077Y-60528894D01*
X112477769Y-60533878D01*
G37*
%TD.AperFunction*%
%TA.AperFunction,Conductor*%
G36*
X98127124Y-71231870D02*
G01*
X98170668Y-71169685D01*
X98170669Y-71169683D01*
X98221342Y-71061015D01*
X98267514Y-71008575D01*
X98334707Y-70989423D01*
X98401588Y-71009638D01*
X98446106Y-71061015D01*
X98496779Y-71169685D01*
X98496898Y-71169939D01*
X98622402Y-71349177D01*
X98777123Y-71503898D01*
X98956361Y-71629402D01*
X99154670Y-71721875D01*
X99160477Y-71723431D01*
X99194416Y-71732525D01*
X99254076Y-71768890D01*
X99284605Y-71831737D01*
X99276310Y-71901113D01*
X99231825Y-71954990D01*
X99194416Y-71972075D01*
X99154674Y-71982723D01*
X99154668Y-71982726D01*
X98956361Y-72075198D01*
X98956357Y-72075200D01*
X98777121Y-72200702D01*
X98622402Y-72355421D01*
X98496900Y-72534657D01*
X98496900Y-72534658D01*
X98496898Y-72534661D01*
X98496898Y-72534662D01*
X98496779Y-72534918D01*
X98446105Y-72643586D01*
X98399932Y-72696025D01*
X98332738Y-72715176D01*
X98265857Y-72694960D01*
X98221341Y-72643584D01*
X98170669Y-72534918D01*
X98170666Y-72534912D01*
X98127124Y-72472728D01*
X98127124Y-72472727D01*
X97534302Y-73065549D01*
X97512651Y-72984747D01*
X97452091Y-72879854D01*
X97366446Y-72794209D01*
X97261553Y-72733649D01*
X97180749Y-72711997D01*
X97773571Y-72119174D01*
X97711387Y-72075633D01*
X97513159Y-71983198D01*
X97513150Y-71983194D01*
X97471650Y-71972075D01*
X97411990Y-71935711D01*
X97381460Y-71872864D01*
X97389754Y-71803488D01*
X97434239Y-71749610D01*
X97471650Y-71732525D01*
X97513150Y-71721405D01*
X97513164Y-71721400D01*
X97711383Y-71628969D01*
X97711385Y-71628968D01*
X97773571Y-71585424D01*
X97180750Y-70992602D01*
X97261553Y-70970951D01*
X97366446Y-70910391D01*
X97452091Y-70824746D01*
X97512651Y-70719853D01*
X97534302Y-70639049D01*
X98127124Y-71231870D01*
G37*
%TD.AperFunction*%
%TA.AperFunction,Conductor*%
G36*
X139034075Y-70767007D02*
G01*
X139000000Y-70894174D01*
X139000000Y-71025826D01*
X139034075Y-71152993D01*
X139066988Y-71210000D01*
X137393012Y-71210000D01*
X137425925Y-71152993D01*
X137460000Y-71025826D01*
X137460000Y-70894174D01*
X137425925Y-70767007D01*
X137393012Y-70710000D01*
X139066988Y-70710000D01*
X139034075Y-70767007D01*
G37*
%TD.AperFunction*%
%TA.AperFunction,Conductor*%
G36*
X122978075Y-61783007D02*
G01*
X122944000Y-61910174D01*
X122944000Y-62041826D01*
X122978075Y-62168993D01*
X123010988Y-62226000D01*
X121337012Y-62226000D01*
X121369925Y-62168993D01*
X121404000Y-62041826D01*
X121404000Y-61910174D01*
X121369925Y-61783007D01*
X121337012Y-61726000D01*
X123010988Y-61726000D01*
X122978075Y-61783007D01*
G37*
%TD.AperFunction*%
%TD*%
M02*
