M48
; DRILL file {KiCad 8.0.4+dfsg-1} date 2024-11-13T23:12:45-0500
; FORMAT={-:-/ absolute / inch / decimal}
; #@! TF.CreationDate,2024-11-13T23:12:45-05:00
; #@! TF.GenerationSoftware,Kicad,Pcbnew,8.0.4+dfsg-1
; #@! TF.FileFunction,Plated,1,4,PTH
FMAT,2
INCH
; #@! TA.AperFunction,Plated,PTH,ViaDrill
T1C0.0118
; #@! TA.AperFunction,Plated,PTH,ComponentDrill
T2C0.0315
; #@! TA.AperFunction,Plated,PTH,ComponentDrill
T3C0.0374
; #@! TA.AperFunction,Plated,PTH,ComponentDrill
T4C0.0394
; #@! TA.AperFunction,Plated,PTH,ComponentDrill
T5C0.0400
; #@! TA.AperFunction,Plated,PTH,ComponentDrill
T6C0.0906
; #@! TA.AperFunction,Plated,PTH,ComponentDrill
T7C0.1260
%
G90
G05
T1
X1.3918Y-6.0758
X1.3922Y-5.9484
X1.7587Y-6.6243
X1.8053Y-6.2395
X1.8555Y-5.8776
X1.8737Y-6.3328
X1.8836Y-6.2326
X1.8843Y-6.5215
X1.8857Y-6.4342
X1.8886Y-6.5774
X1.9178Y-6.1768
X1.9363Y-5.4795
X1.9363Y-5.6641
X1.9369Y-5.7751
X1.9391Y-5.5189
X1.9431Y-5.6325
X1.9487Y-5.9064
X1.9918Y-5.6372
X2.0597Y-6.2342
X2.0992Y-5.438
X2.1241Y-5.8712
X2.1282Y-6.1768
X2.1687Y-5.9775
X2.1688Y-6.3774
X2.2145Y-5.8853
X2.2174Y-5.9774
X2.2192Y-6.2016
X2.2263Y-6.7953
X2.2738Y-6.4014
X2.3764Y-5.6022
X2.3811Y-5.5015
X2.4421Y-5.4385
X2.4509Y-5.5376
X2.4617Y-5.6205
X2.4759Y-6.5367
X2.59Y-5.5286
X2.5904Y-5.4786
X2.5989Y-5.8279
X2.6021Y-5.4154
X2.6134Y-5.5802
X2.6214Y-5.688
X2.6224Y-5.7447
X2.6505Y-6.7116
X2.682Y-6.7014
X2.6877Y-6.1117
X2.6999Y-6.6642
X2.7374Y-5.7872
X2.7378Y-5.5276
X2.7407Y-5.4116
X2.751Y-6.2102
X2.7718Y-5.522
X2.7755Y-5.6678
X2.7786Y-5.5816
X2.7883Y-6.0064
X2.8315Y-6.7717
X2.8369Y-5.9513
X2.8505Y-6.823
X2.895Y-5.3466
X2.9006Y-5.9211
X2.9212Y-5.945
X2.9453Y-5.6036
X2.9454Y-5.7042
X2.951Y-5.5472
X2.9513Y-5.7515
X2.9584Y-5.6727
X2.9702Y-5.5214
X2.9778Y-5.9846
X2.9866Y-5.7357
X3.0079Y-5.5891
X3.048Y-6.2092
X3.09Y-5.8958
X3.0943Y-5.5887
X3.1143Y-6.0162
X3.1386Y-5.9732
X3.1484Y-5.6577
X3.1537Y-5.9088
X3.1604Y-6.0182
X3.1697Y-6.4489
X3.2303Y-6.33
X3.2325Y-5.9801
X3.2342Y-6.0376
X3.2415Y-6.1989
X3.2607Y-5.5057
X3.2618Y-5.6454
X3.2941Y-5.6374
X3.3066Y-5.5902
X3.3078Y-5.9774
X3.3454Y-6.3646
X3.3533Y-6.0238
X3.3585Y-6.1989
X3.371Y-6.0719
X3.3916Y-6.0034
X3.4095Y-6.2003
X3.4151Y-5.6138
X3.4153Y-5.5143
X3.4352Y-6.3645
X3.4507Y-5.8267
X3.4625Y-5.5057
X3.4718Y-5.6
X3.5096Y-5.4387
X3.5138Y-5.6394
X3.5613Y-6.3646
X3.5632Y-5.851
X3.5838Y-6.4618
X3.5858Y-5.9028
X3.5889Y-5.7722
X3.5897Y-6.3809
X3.6045Y-5.8769
X3.6131Y-6.3595
X3.6335Y-6.0664
X3.6799Y-5.9796
X3.773Y-6.0336
X3.7755Y-6.0651
X3.7755Y-6.3651
X3.7841Y-5.3733
X3.807Y-6.3533
X3.8154Y-5.7648
X3.8381Y-5.6287
X3.8478Y-5.4908
X3.8713Y-6.5385
X3.8838Y-5.8332
X3.9038Y-6.533
X3.931Y-5.8485
X3.939Y-6.3962
X3.9586Y-6.1936
X4.0317Y-5.9128
X4.0635Y-6.3856
X4.0685Y-6.3205
X4.0926Y-6.4787
X4.0953Y-6.3795
X4.0959Y-6.0591
X4.1146Y-6.6396
X4.1365Y-6.723
X4.1959Y-6.1798
X4.2214Y-6.0783
X4.2241Y-6.2666
X4.2264Y-6.5911
X4.2564Y-6.1142
X4.2636Y-6.3446
X4.3056Y-6.5755
X4.3178Y-6.1418
X4.3288Y-6.0849
X4.3509Y-6.7049
X4.3647Y-6.5762
X4.3891Y-6.4774
X4.3938Y-6.9318
X4.4061Y-6.3577
X4.4353Y-6.3353
X4.4521Y-5.9763
X4.4551Y-6.8795
X4.4553Y-6.576
X4.459Y-6.7055
X4.4835Y-6.954
X4.4957Y-5.7815
X4.5056Y-6.2855
X4.5084Y-6.8706
X4.5087Y-6.8357
X4.511Y-5.9711
X4.5152Y-6.5903
X4.536Y-6.1433
X4.5462Y-5.7639
X4.5611Y-6.9527
X4.5773Y-6.5751
X4.6517Y-6.3144
T2
X1.964Y-6.061
X1.964Y-6.461
X1.964Y-6.605
X1.964Y-7.005
X2.064Y-6.061
X2.064Y-6.461
X2.064Y-6.605
X2.064Y-7.005
X2.164Y-6.061
X2.164Y-6.461
X2.164Y-6.605
X2.164Y-7.005
X2.264Y-6.061
X2.264Y-6.461
X2.264Y-6.605
X2.264Y-7.005
X2.364Y-6.061
X2.364Y-6.461
X2.364Y-6.605
X2.364Y-7.005
X2.464Y-6.061
X2.464Y-6.461
X2.464Y-6.605
X2.464Y-7.005
X2.564Y-6.061
X2.564Y-6.461
X2.564Y-6.605
X2.564Y-7.005
X2.664Y-6.061
X2.664Y-6.461
X2.664Y-6.605
X2.664Y-7.005
X2.764Y-6.061
X2.764Y-6.461
X2.764Y-6.605
X2.764Y-7.005
X2.864Y-6.061
X2.864Y-6.461
X2.864Y-6.605
X2.864Y-7.005
X2.964Y-6.061
X2.964Y-6.461
X2.964Y-6.605
X2.964Y-7.005
X3.064Y-6.061
X3.064Y-6.461
X3.064Y-6.605
X3.064Y-7.005
X3.34Y-6.655
X3.34Y-6.955
X3.94Y-6.655
X3.94Y-6.955
T3
X1.3919Y-6.8657
X1.4904Y-6.8657
X1.5691Y-6.8657
X1.6675Y-6.8657
T4
X1.4764Y-5.9281
X1.4764Y-6.0183
X1.4764Y-6.1085
X1.4764Y-6.1986
X1.4764Y-6.2888
X1.5417Y-5.2608
X1.5417Y-5.3608
X1.5543Y-5.9732
X1.5543Y-6.0634
X1.5543Y-6.1535
X1.5543Y-6.2437
X1.5543Y-6.3339
X1.6323Y-5.9281
X1.6323Y-6.0183
X1.6323Y-6.1085
X1.6323Y-6.1986
X1.6323Y-6.2888
X1.6417Y-5.2608
X1.6417Y-5.3608
X3.96Y-5.446
X3.96Y-5.546
X3.96Y-5.646
X3.96Y-5.746
X4.06Y-5.446
X4.06Y-5.546
X4.06Y-5.646
X4.06Y-5.746
T5
X1.8Y-5.26
X1.9Y-5.26
X2.0Y-5.26
X2.1Y-5.26
X2.16Y-7.16
X2.2Y-5.26
X2.26Y-7.16
X2.3Y-5.26
X2.36Y-7.16
X2.4Y-5.26
X2.46Y-7.16
X2.5Y-5.26
X2.56Y-7.16
X2.6Y-5.26
X2.66Y-7.16
X2.7Y-5.26
X2.76Y-7.16
X2.86Y-5.26
X2.86Y-7.16
X2.96Y-5.26
X3.06Y-5.26
X3.06Y-7.16
X3.16Y-5.26
X3.16Y-7.16
X3.26Y-5.26
X3.26Y-7.16
X3.36Y-5.26
X3.36Y-7.16
X3.46Y-5.26
X3.46Y-7.16
X3.56Y-5.26
X3.56Y-7.16
X3.66Y-7.16
X3.76Y-5.26
X3.76Y-7.16
X3.86Y-5.26
X3.96Y-5.26
X3.96Y-7.16
X4.06Y-5.26
X4.06Y-7.16
X4.16Y-5.26
X4.16Y-7.16
X4.26Y-5.26
X4.26Y-7.16
X4.36Y-5.26
X4.36Y-7.16
X4.46Y-5.26
X4.46Y-7.16
X4.56Y-7.16
X4.66Y-7.16
X4.76Y-5.26
X4.76Y-5.36
X4.76Y-5.46
X4.76Y-5.56
X4.76Y-5.66
X4.76Y-5.76
X4.76Y-5.86
X4.76Y-5.96
X4.76Y-6.06
X4.76Y-6.16
X4.76Y-6.26
X4.76Y-6.36
X4.76Y-6.46
X4.76Y-6.56
X4.76Y-6.66
X4.76Y-6.76
X4.76Y-6.86
X4.76Y-6.96
X4.86Y-5.26
X4.86Y-5.36
X4.86Y-5.46
X4.86Y-5.56
X4.86Y-5.66
X4.86Y-5.76
X4.86Y-5.86
X4.86Y-5.96
X4.86Y-6.06
X4.86Y-6.16
X4.86Y-6.26
X4.86Y-6.36
X4.86Y-6.46
X4.86Y-6.56
X4.86Y-6.66
X4.86Y-6.76
X4.86Y-6.86
X4.86Y-6.96
T6
X1.2711Y-6.9724
X1.7884Y-6.9724
T7
X1.5764Y-5.6268
X1.5764Y-6.611
M30
