%TF.GenerationSoftware,KiCad,Pcbnew,8.0.4+dfsg-1*%
%TF.CreationDate,2024-11-13T23:12:42-05:00*%
%TF.ProjectId,VGA_SRAM_Shield,5647415f-5352-4414-9d5f-536869656c64,rev?*%
%TF.SameCoordinates,Original*%
%TF.FileFunction,Soldermask,Top*%
%TF.FilePolarity,Negative*%
%FSLAX46Y46*%
G04 Gerber Fmt 4.6, Leading zero omitted, Abs format (unit mm)*
G04 Created by KiCad (PCBNEW 8.0.4+dfsg-1) date 2024-11-13 23:12:42*
%MOMM*%
%LPD*%
G01*
G04 APERTURE LIST*
G04 Aperture macros list*
%AMRoundRect*
0 Rectangle with rounded corners*
0 $1 Rounding radius*
0 $2 $3 $4 $5 $6 $7 $8 $9 X,Y pos of 4 corners*
0 Add a 4 corners polygon primitive as box body*
4,1,4,$2,$3,$4,$5,$6,$7,$8,$9,$2,$3,0*
0 Add four circle primitives for the rounded corners*
1,1,$1+$1,$2,$3*
1,1,$1+$1,$4,$5*
1,1,$1+$1,$6,$7*
1,1,$1+$1,$8,$9*
0 Add four rect primitives between the rounded corners*
20,1,$1+$1,$2,$3,$4,$5,0*
20,1,$1+$1,$4,$5,$6,$7,0*
20,1,$1+$1,$6,$7,$8,$9,0*
20,1,$1+$1,$8,$9,$2,$3,0*%
G04 Aperture macros list end*
%ADD10RoundRect,0.150000X0.150000X-0.725000X0.150000X0.725000X-0.150000X0.725000X-0.150000X-0.725000X0*%
%ADD11R,1.700000X1.700000*%
%ADD12O,1.700000X1.700000*%
%ADD13R,1.600000X1.500000*%
%ADD14C,1.600000*%
%ADD15C,3.000000*%
%ADD16C,4.000000*%
%ADD17R,1.600000X1.600000*%
%ADD18O,1.600000X1.600000*%
%ADD19O,1.727200X1.727200*%
%ADD20R,1.727200X1.727200*%
%ADD21RoundRect,0.150000X0.150000X-0.800000X0.150000X0.800000X-0.150000X0.800000X-0.150000X-0.800000X0*%
%ADD22RoundRect,0.150000X-0.825000X-0.150000X0.825000X-0.150000X0.825000X0.150000X-0.825000X0.150000X0*%
%ADD23RoundRect,0.150000X0.150000X-0.825000X0.150000X0.825000X-0.150000X0.825000X-0.150000X-0.825000X0*%
%ADD24RoundRect,0.150000X-0.800000X-0.150000X0.800000X-0.150000X0.800000X0.150000X-0.800000X0.150000X0*%
G04 APERTURE END LIST*
D10*
%TO.C,U7*%
X92370000Y-164140000D03*
X93640000Y-164140000D03*
X94910000Y-164140000D03*
X96180000Y-164140000D03*
X97450000Y-164140000D03*
X98720000Y-164140000D03*
X99990000Y-164140000D03*
X101260000Y-164140000D03*
X101260000Y-158990000D03*
X99990000Y-158990000D03*
X98720000Y-158990000D03*
X97450000Y-158990000D03*
X96180000Y-158990000D03*
X94910000Y-158990000D03*
X93640000Y-158990000D03*
X92370000Y-158990000D03*
%TD*%
D11*
%TO.C,J2*%
X41700000Y-133625000D03*
D12*
X39160000Y-133625000D03*
X41700000Y-136165000D03*
X39160000Y-136165000D03*
%TD*%
D13*
%TO.C,J5*%
X35355000Y-174390000D03*
D14*
X37855000Y-174390000D03*
X39855000Y-174390000D03*
X42355000Y-174390000D03*
D15*
X32285000Y-177100000D03*
X45425000Y-177100000D03*
%TD*%
D10*
%TO.C,U10*%
X92354400Y-155467200D03*
X93624400Y-155467200D03*
X94894400Y-155467200D03*
X96164400Y-155467200D03*
X97434400Y-155467200D03*
X98704400Y-155467200D03*
X99974400Y-155467200D03*
X101244400Y-155467200D03*
X101244400Y-150317200D03*
X99974400Y-150317200D03*
X98704400Y-150317200D03*
X97434400Y-150317200D03*
X96164400Y-150317200D03*
X94894400Y-150317200D03*
X93624400Y-150317200D03*
X92354400Y-150317200D03*
%TD*%
D16*
%TO.C,J3*%
X40040000Y-142920000D03*
X40040000Y-167920000D03*
D17*
X41460000Y-159735000D03*
D14*
X41460000Y-157445000D03*
X41460000Y-155155000D03*
X41460000Y-152865000D03*
X41460000Y-150575000D03*
X39480000Y-160880000D03*
X39480000Y-158590000D03*
X39480000Y-156300000D03*
X39480000Y-154010000D03*
X39480000Y-151720000D03*
X37500000Y-159735000D03*
X37500000Y-157445000D03*
X37500000Y-155155000D03*
X37500000Y-152865000D03*
X37500000Y-150575000D03*
%TD*%
D17*
%TO.C,X1*%
X84836000Y-176657000D03*
D14*
X100076000Y-176657000D03*
X100076000Y-169037000D03*
X84836000Y-169037000D03*
%TD*%
D17*
%TO.C,U8*%
X49885600Y-164109400D03*
D18*
X52425600Y-164109400D03*
X54965600Y-164109400D03*
X57505600Y-164109400D03*
X60045600Y-164109400D03*
X62585600Y-164109400D03*
X65125600Y-164109400D03*
X67665600Y-164109400D03*
X70205600Y-164109400D03*
X72745600Y-164109400D03*
X75285600Y-164109400D03*
X77825600Y-164109400D03*
X77825600Y-153949400D03*
X75285600Y-153949400D03*
X72745600Y-153949400D03*
X70205600Y-153949400D03*
X67665600Y-153949400D03*
X65125600Y-153949400D03*
X62585600Y-153949400D03*
X60045600Y-153949400D03*
X57505600Y-153949400D03*
X54965600Y-153949400D03*
X52425600Y-153949400D03*
X49885600Y-153949400D03*
%TD*%
D19*
%TO.C,A1*%
X54864000Y-181864000D03*
X62484000Y-181864000D03*
X65024000Y-181864000D03*
X120904000Y-133604000D03*
X123444000Y-133604000D03*
X77724000Y-181864000D03*
X80264000Y-181864000D03*
X82804000Y-181864000D03*
X85344000Y-181864000D03*
X87884000Y-181864000D03*
X90424000Y-181864000D03*
X92964000Y-181864000D03*
X95504000Y-181864000D03*
X100584000Y-181864000D03*
X103124000Y-181864000D03*
X105664000Y-181864000D03*
X108204000Y-181864000D03*
X50800000Y-133604000D03*
X115824000Y-181864000D03*
X118364000Y-181864000D03*
X90424000Y-133604000D03*
X87884000Y-133604000D03*
X85344000Y-133604000D03*
X82804000Y-133604000D03*
X80264000Y-133604000D03*
X77724000Y-133604000D03*
X75184000Y-133604000D03*
X72644000Y-133604000D03*
X68580000Y-133604000D03*
X66040000Y-133604000D03*
X63500000Y-133604000D03*
X60960000Y-133604000D03*
X58420000Y-133604000D03*
X55880000Y-133604000D03*
X95504000Y-133604000D03*
X98044000Y-133604000D03*
X100584000Y-133604000D03*
X103124000Y-133604000D03*
X105664000Y-133604000D03*
X108204000Y-133604000D03*
X110744000Y-133604000D03*
X113284000Y-133604000D03*
X120904000Y-136144000D03*
X123444000Y-136144000D03*
X120904000Y-138684000D03*
X123444000Y-138684000D03*
X120904000Y-141224000D03*
X123444000Y-141224000D03*
X120904000Y-143764000D03*
X123444000Y-143764000D03*
X120904000Y-146304000D03*
X123444000Y-146304000D03*
X120904000Y-148844000D03*
X123444000Y-148844000D03*
X120904000Y-151384000D03*
X123444000Y-151384000D03*
X120904000Y-153924000D03*
X123444000Y-153924000D03*
X120904000Y-156464000D03*
X123444000Y-156464000D03*
X120904000Y-159004000D03*
X123444000Y-159004000D03*
X120904000Y-161544000D03*
X123444000Y-161544000D03*
X120904000Y-164084000D03*
X123444000Y-164084000D03*
X120904000Y-166624000D03*
X123444000Y-166624000D03*
X120904000Y-169164000D03*
X123444000Y-169164000D03*
X120904000Y-171704000D03*
X123444000Y-171704000D03*
X120904000Y-174244000D03*
X123444000Y-174244000D03*
X110744000Y-181864000D03*
X113284000Y-181864000D03*
D20*
X53340000Y-133604000D03*
X67564000Y-181864000D03*
X70104000Y-181864000D03*
X120904000Y-176784000D03*
X123444000Y-176784000D03*
D19*
X57404000Y-181864000D03*
X59944000Y-181864000D03*
X45720000Y-133604000D03*
X48260000Y-133604000D03*
X72644000Y-181864000D03*
%TD*%
D21*
%TO.C,U2*%
X105460800Y-178054000D03*
X106730800Y-178054000D03*
X108000800Y-178054000D03*
X109270800Y-178054000D03*
X110540800Y-178054000D03*
X111810800Y-178054000D03*
X113080800Y-178054000D03*
X114350800Y-178054000D03*
X115620800Y-178054000D03*
X116890800Y-178054000D03*
X116890800Y-168854000D03*
X115620800Y-168854000D03*
X114350800Y-168854000D03*
X113080800Y-168854000D03*
X111810800Y-168854000D03*
X110540800Y-168854000D03*
X109270800Y-168854000D03*
X108000800Y-168854000D03*
X106730800Y-168854000D03*
X105460800Y-168854000D03*
%TD*%
D22*
%TO.C,U19*%
X90833400Y-137287000D03*
X90833400Y-138557000D03*
X90833400Y-139827000D03*
X90833400Y-141097000D03*
X90833400Y-142367000D03*
X90833400Y-143637000D03*
X90833400Y-144907000D03*
X95783400Y-144907000D03*
X95783400Y-143637000D03*
X95783400Y-142367000D03*
X95783400Y-141097000D03*
X95783400Y-139827000D03*
X95783400Y-138557000D03*
X95783400Y-137287000D03*
%TD*%
D10*
%TO.C,U5*%
X81229200Y-155441800D03*
X82499200Y-155441800D03*
X83769200Y-155441800D03*
X85039200Y-155441800D03*
X86309200Y-155441800D03*
X87579200Y-155441800D03*
X88849200Y-155441800D03*
X90119200Y-155441800D03*
X90119200Y-150291800D03*
X88849200Y-150291800D03*
X87579200Y-150291800D03*
X86309200Y-150291800D03*
X85039200Y-150291800D03*
X83769200Y-150291800D03*
X82499200Y-150291800D03*
X81229200Y-150291800D03*
%TD*%
D23*
%TO.C,U16*%
X108051600Y-153289000D03*
X109321600Y-153289000D03*
X110591600Y-153289000D03*
X111861600Y-153289000D03*
X113131600Y-153289000D03*
X114401600Y-153289000D03*
X115671600Y-153289000D03*
X115671600Y-148339000D03*
X114401600Y-148339000D03*
X113131600Y-148339000D03*
X111861600Y-148339000D03*
X110591600Y-148339000D03*
X109321600Y-148339000D03*
X108051600Y-148339000D03*
%TD*%
%TO.C,U15*%
X108051600Y-162966400D03*
X109321600Y-162966400D03*
X110591600Y-162966400D03*
X111861600Y-162966400D03*
X113131600Y-162966400D03*
X114401600Y-162966400D03*
X115671600Y-162966400D03*
X115671600Y-158016400D03*
X114401600Y-158016400D03*
X113131600Y-158016400D03*
X111861600Y-158016400D03*
X110591600Y-158016400D03*
X109321600Y-158016400D03*
X108051600Y-158016400D03*
%TD*%
D11*
%TO.C,J1*%
X103124000Y-138328400D03*
D12*
X100584000Y-138328400D03*
X103124000Y-140868400D03*
X100584000Y-140868400D03*
X103124000Y-143408400D03*
X100584000Y-143408400D03*
X103124000Y-145948400D03*
X100584000Y-145948400D03*
%TD*%
D10*
%TO.C,U6*%
X81330800Y-164128600D03*
X82600800Y-164128600D03*
X83870800Y-164128600D03*
X85140800Y-164128600D03*
X86410800Y-164128600D03*
X87680800Y-164128600D03*
X88950800Y-164128600D03*
X90220800Y-164128600D03*
X90220800Y-158978600D03*
X88950800Y-158978600D03*
X87680800Y-158978600D03*
X86410800Y-158978600D03*
X85140800Y-158978600D03*
X83870800Y-158978600D03*
X82600800Y-158978600D03*
X81330800Y-158978600D03*
%TD*%
D17*
%TO.C,U9*%
X49885600Y-177927000D03*
D18*
X52425600Y-177927000D03*
X54965600Y-177927000D03*
X57505600Y-177927000D03*
X60045600Y-177927000D03*
X62585600Y-177927000D03*
X65125600Y-177927000D03*
X67665600Y-177927000D03*
X70205600Y-177927000D03*
X72745600Y-177927000D03*
X75285600Y-177927000D03*
X77825600Y-177927000D03*
X77825600Y-167767000D03*
X75285600Y-167767000D03*
X72745600Y-167767000D03*
X70205600Y-167767000D03*
X67665600Y-167767000D03*
X65125600Y-167767000D03*
X62585600Y-167767000D03*
X60045600Y-167767000D03*
X57505600Y-167767000D03*
X54965600Y-167767000D03*
X52425600Y-167767000D03*
X49885600Y-167767000D03*
%TD*%
D24*
%TO.C,U18*%
X64333000Y-136615400D03*
X64333000Y-137885400D03*
X64333000Y-139155400D03*
X64333000Y-140425400D03*
X64333000Y-141695400D03*
X64333000Y-142965400D03*
X64333000Y-144235400D03*
X64333000Y-145505400D03*
X64333000Y-146775400D03*
X64333000Y-148045400D03*
X73533000Y-148045400D03*
X73533000Y-146775400D03*
X73533000Y-145505400D03*
X73533000Y-144235400D03*
X73533000Y-142965400D03*
X73533000Y-141695400D03*
X73533000Y-140425400D03*
X73533000Y-139155400D03*
X73533000Y-137885400D03*
X73533000Y-136615400D03*
%TD*%
D23*
%TO.C,U17*%
X108051600Y-143611600D03*
X109321600Y-143611600D03*
X110591600Y-143611600D03*
X111861600Y-143611600D03*
X113131600Y-143611600D03*
X114401600Y-143611600D03*
X115671600Y-143611600D03*
X115671600Y-138661600D03*
X114401600Y-138661600D03*
X113131600Y-138661600D03*
X111861600Y-138661600D03*
X110591600Y-138661600D03*
X109321600Y-138661600D03*
X108051600Y-138661600D03*
%TD*%
D24*
%TO.C,U20*%
X47724000Y-136615400D03*
X47724000Y-137885400D03*
X47724000Y-139155400D03*
X47724000Y-140425400D03*
X47724000Y-141695400D03*
X47724000Y-142965400D03*
X47724000Y-144235400D03*
X47724000Y-145505400D03*
X47724000Y-146775400D03*
X47724000Y-148045400D03*
X56924000Y-148045400D03*
X56924000Y-146775400D03*
X56924000Y-145505400D03*
X56924000Y-144235400D03*
X56924000Y-142965400D03*
X56924000Y-141695400D03*
X56924000Y-140425400D03*
X56924000Y-139155400D03*
X56924000Y-137885400D03*
X56924000Y-136615400D03*
%TD*%
M02*
